<?xml version="1.0" encoding="utf-8" standalone="no"?>
<!DOCTYPE svg PUBLIC "-//W3C//DTD SVG 1.1//EN"
  "http://www.w3.org/Graphics/SVG/1.1/DTD/svg11.dtd">
<svg xmlns:xlink="http://www.w3.org/1999/xlink" width="864pt" height="486pt" viewBox="0 0 864 486" xmlns="http://www.w3.org/2000/svg" version="1.1">
 <metadata>
  <rdf:RDF xmlns:dc="http://purl.org/dc/elements/1.1/" xmlns:cc="http://creativecommons.org/ns#" xmlns:rdf="http://www.w3.org/1999/02/22-rdf-syntax-ns#">
   <cc:Work>
    <dc:type rdf:resource="http://purl.org/dc/dcmitype/StillImage"/>
    <dc:date>2022-12-28T18:25:20.533923</dc:date>
    <dc:format>image/svg+xml</dc:format>
    <dc:creator>
     <cc:Agent>
      <dc:title>Matplotlib v3.6.2, https://matplotlib.org/</dc:title>
     </cc:Agent>
    </dc:creator>
   </cc:Work>
  </rdf:RDF>
 </metadata>
 <defs>
  <style type="text/css">*{stroke-linejoin: round; stroke-linecap: butt}</style>
 </defs>
 <g id="figure_1">
  <g id="patch_1">
   <path d="M 0 486 
L 864 486 
L 864 0 
L 0 0 
z
" style="fill: #ffffff"/>
  </g>
  <g id="axes_1">
   <g id="patch_2">
    <path d="M 108 432.54 
L 777.6 432.54 
L 777.6 58.32 
L 108 58.32 
z
" style="fill: #ffffff"/>
   </g>
   <g id="matplotlib.axis_1">
    <g id="xtick_1">
     <g id="line2d_1">
      <path d="M 138.436364 432.54 
L 138.436364 58.32 
" clip-path="url(#p387b489db2)" style="fill: none; stroke: #e6e6e6; stroke-width: 0.8; stroke-linecap: round"/>
     </g>
     <g id="line2d_2">
      <defs>
       <path id="m6c859bca8e" d="M 0 0 
L 0 -4.8 
" style="stroke: #262626"/>
      </defs>
      <g>
       <use xlink:href="#m6c859bca8e" x="138.436364" y="432.54" style="fill: #262626; stroke: #262626"/>
      </g>
     </g>
     <g id="line2d_3">
      <defs>
       <path id="mad56994ac1" d="M 0 0 
L 0 4.8 
" style="stroke: #262626"/>
      </defs>
      <g>
       <use xlink:href="#mad56994ac1" x="138.436364" y="58.32" style="fill: #262626; stroke: #262626"/>
      </g>
     </g>
     <g id="text_1">
      <!-- $\mathdefault{0}$ -->
      <g style="fill: #262626" transform="translate(135.217227 445.172395) scale(0.132 -0.132)">
       <defs>
        <path id="CMR17-30" d="M 2688 2038 
C 2688 2430 2682 3099 2413 3613 
C 2176 4063 1798 4224 1466 4224 
C 1158 4224 768 4082 525 3620 
C 269 3137 243 2539 243 2038 
C 243 1671 250 1112 448 623 
C 723 -39 1216 -128 1466 -128 
C 1760 -128 2208 -7 2470 604 
C 2662 1048 2688 1568 2688 2038 
z
M 1466 -26 
C 1056 -26 813 328 723 816 
C 653 1196 653 1749 653 2109 
C 653 2604 653 3015 736 3407 
C 858 3954 1216 4121 1466 4121 
C 1728 4121 2067 3947 2189 3420 
C 2272 3054 2278 2623 2278 2109 
C 2278 1691 2278 1176 2202 797 
C 2067 96 1690 -26 1466 -26 
z
" transform="scale(0.015625)"/>
       </defs>
       <use xlink:href="#CMR17-30" transform="scale(0.996264)"/>
      </g>
     </g>
    </g>
    <g id="xtick_2">
     <g id="line2d_4">
      <path d="M 260.193994 432.54 
L 260.193994 58.32 
" clip-path="url(#p387b489db2)" style="fill: none; stroke: #e6e6e6; stroke-width: 0.8; stroke-linecap: round"/>
     </g>
     <g id="line2d_5">
      <g>
       <use xlink:href="#m6c859bca8e" x="260.193994" y="432.54" style="fill: #262626; stroke: #262626"/>
      </g>
     </g>
     <g id="line2d_6">
      <g>
       <use xlink:href="#mad56994ac1" x="260.193994" y="58.32" style="fill: #262626; stroke: #262626"/>
      </g>
     </g>
     <g id="text_2">
      <!-- $\mathdefault{2000}$ -->
      <g style="fill: #262626" transform="translate(247.317446 445.172395) scale(0.132 -0.132)">
       <defs>
        <path id="CMR17-32" d="M 2669 990 
L 2554 990 
C 2490 537 2438 460 2413 422 
C 2381 371 1920 371 1830 371 
L 602 371 
C 832 620 1280 1073 1824 1596 
C 2214 1966 2669 2400 2669 3033 
C 2669 3788 2067 4224 1395 4224 
C 691 4224 262 3603 262 3027 
C 262 2777 448 2745 525 2745 
C 589 2745 781 2783 781 3007 
C 781 3206 614 3264 525 3264 
C 486 3264 448 3257 422 3244 
C 544 3788 915 4057 1306 4057 
C 1862 4057 2227 3616 2227 3033 
C 2227 2477 1901 1998 1536 1583 
L 262 147 
L 262 0 
L 2515 0 
L 2669 990 
z
" transform="scale(0.015625)"/>
       </defs>
       <use xlink:href="#CMR17-32" transform="scale(0.996264)"/>
       <use xlink:href="#CMR17-30" transform="translate(45.690477 0) scale(0.996264)"/>
       <use xlink:href="#CMR17-30" transform="translate(91.380954 0) scale(0.996264)"/>
       <use xlink:href="#CMR17-30" transform="translate(137.071431 0) scale(0.996264)"/>
      </g>
     </g>
    </g>
    <g id="xtick_3">
     <g id="line2d_7">
      <path d="M 381.951624 432.54 
L 381.951624 58.32 
" clip-path="url(#p387b489db2)" style="fill: none; stroke: #e6e6e6; stroke-width: 0.8; stroke-linecap: round"/>
     </g>
     <g id="line2d_8">
      <g>
       <use xlink:href="#m6c859bca8e" x="381.951624" y="432.54" style="fill: #262626; stroke: #262626"/>
      </g>
     </g>
     <g id="line2d_9">
      <g>
       <use xlink:href="#mad56994ac1" x="381.951624" y="58.32" style="fill: #262626; stroke: #262626"/>
      </g>
     </g>
     <g id="text_3">
      <!-- $\mathdefault{4000}$ -->
      <g style="fill: #262626" transform="translate(369.075076 445.172395) scale(0.132 -0.132)">
       <defs>
        <path id="CMR17-34" d="M 2150 4147 
C 2150 4281 2144 4288 2029 4288 
L 128 1254 
L 128 1088 
L 1779 1088 
L 1779 460 
C 1779 230 1766 166 1318 166 
L 1197 166 
L 1197 0 
C 1402 12 1747 12 1965 12 
C 2182 12 2528 12 2733 0 
L 2733 166 
L 2611 166 
C 2163 166 2150 230 2150 460 
L 2150 1088 
L 2803 1088 
L 2803 1254 
L 2150 1254 
L 2150 4147 
z
M 1798 3723 
L 1798 1254 
L 256 1254 
L 1798 3723 
z
" transform="scale(0.015625)"/>
       </defs>
       <use xlink:href="#CMR17-34" transform="scale(0.996264)"/>
       <use xlink:href="#CMR17-30" transform="translate(45.690477 0) scale(0.996264)"/>
       <use xlink:href="#CMR17-30" transform="translate(91.380954 0) scale(0.996264)"/>
       <use xlink:href="#CMR17-30" transform="translate(137.071431 0) scale(0.996264)"/>
      </g>
     </g>
    </g>
    <g id="xtick_4">
     <g id="line2d_10">
      <path d="M 503.709255 432.54 
L 503.709255 58.32 
" clip-path="url(#p387b489db2)" style="fill: none; stroke: #e6e6e6; stroke-width: 0.8; stroke-linecap: round"/>
     </g>
     <g id="line2d_11">
      <g>
       <use xlink:href="#m6c859bca8e" x="503.709255" y="432.54" style="fill: #262626; stroke: #262626"/>
      </g>
     </g>
     <g id="line2d_12">
      <g>
       <use xlink:href="#mad56994ac1" x="503.709255" y="58.32" style="fill: #262626; stroke: #262626"/>
      </g>
     </g>
     <g id="text_4">
      <!-- $\mathdefault{6000}$ -->
      <g style="fill: #262626" transform="translate(490.832706 445.172395) scale(0.132 -0.132)">
       <defs>
        <path id="CMR17-36" d="M 678 2198 
C 678 3712 1395 4076 1811 4076 
C 1946 4076 2272 4049 2400 3782 
C 2298 3782 2106 3782 2106 3558 
C 2106 3385 2246 3328 2336 3328 
C 2394 3328 2566 3353 2566 3571 
C 2566 3987 2246 4224 1805 4224 
C 1043 4224 243 3411 243 2011 
C 243 257 966 -128 1478 -128 
C 2099 -128 2688 431 2688 1295 
C 2688 2101 2170 2688 1517 2688 
C 1126 2688 838 2430 678 1979 
L 678 2198 
z
M 1478 25 
C 691 25 691 1212 691 1450 
C 691 1914 909 2585 1504 2585 
C 1613 2585 1926 2585 2138 2140 
C 2253 1889 2253 1624 2253 1302 
C 2253 954 2253 696 2118 438 
C 1978 173 1773 25 1478 25 
z
" transform="scale(0.015625)"/>
       </defs>
       <use xlink:href="#CMR17-36" transform="scale(0.996264)"/>
       <use xlink:href="#CMR17-30" transform="translate(45.690477 0) scale(0.996264)"/>
       <use xlink:href="#CMR17-30" transform="translate(91.380954 0) scale(0.996264)"/>
       <use xlink:href="#CMR17-30" transform="translate(137.071431 0) scale(0.996264)"/>
      </g>
     </g>
    </g>
    <g id="xtick_5">
     <g id="line2d_13">
      <path d="M 625.466885 432.54 
L 625.466885 58.32 
" clip-path="url(#p387b489db2)" style="fill: none; stroke: #e6e6e6; stroke-width: 0.8; stroke-linecap: round"/>
     </g>
     <g id="line2d_14">
      <g>
       <use xlink:href="#m6c859bca8e" x="625.466885" y="432.54" style="fill: #262626; stroke: #262626"/>
      </g>
     </g>
     <g id="line2d_15">
      <g>
       <use xlink:href="#mad56994ac1" x="625.466885" y="58.32" style="fill: #262626; stroke: #262626"/>
      </g>
     </g>
     <g id="text_5">
      <!-- $\mathdefault{8000}$ -->
      <g style="fill: #262626" transform="translate(612.590337 445.172395) scale(0.132 -0.132)">
       <defs>
        <path id="CMR17-38" d="M 1741 2289 
C 2144 2494 2554 2803 2554 3298 
C 2554 3884 1990 4224 1472 4224 
C 890 4224 378 3800 378 3215 
C 378 3054 416 2777 666 2533 
C 730 2469 998 2276 1171 2154 
C 883 2006 211 1652 211 945 
C 211 282 838 -128 1459 -128 
C 2144 -128 2720 366 2720 1022 
C 2720 1607 2330 1877 2074 2051 
L 1741 2289 
z
M 902 2855 
C 851 2887 595 3086 595 3388 
C 595 3781 998 4076 1459 4076 
C 1965 4076 2336 3716 2336 3298 
C 2336 2700 1670 2359 1638 2359 
C 1632 2359 1626 2359 1574 2398 
L 902 2855 
z
M 2080 1536 
C 2176 1466 2483 1253 2483 861 
C 2483 385 2010 25 1472 25 
C 890 25 448 443 448 951 
C 448 1459 838 1884 1280 2083 
L 2080 1536 
z
" transform="scale(0.015625)"/>
       </defs>
       <use xlink:href="#CMR17-38" transform="scale(0.996264)"/>
       <use xlink:href="#CMR17-30" transform="translate(45.690477 0) scale(0.996264)"/>
       <use xlink:href="#CMR17-30" transform="translate(91.380954 0) scale(0.996264)"/>
       <use xlink:href="#CMR17-30" transform="translate(137.071431 0) scale(0.996264)"/>
      </g>
     </g>
    </g>
    <g id="xtick_6">
     <g id="line2d_16">
      <path d="M 747.224515 432.54 
L 747.224515 58.32 
" clip-path="url(#p387b489db2)" style="fill: none; stroke: #e6e6e6; stroke-width: 0.8; stroke-linecap: round"/>
     </g>
     <g id="line2d_17">
      <g>
       <use xlink:href="#m6c859bca8e" x="747.224515" y="432.54" style="fill: #262626; stroke: #262626"/>
      </g>
     </g>
     <g id="line2d_18">
      <g>
       <use xlink:href="#mad56994ac1" x="747.224515" y="58.32" style="fill: #262626; stroke: #262626"/>
      </g>
     </g>
     <g id="text_6">
      <!-- $\mathdefault{10000}$ -->
      <g style="fill: #262626" transform="translate(731.12883 445.172395) scale(0.132 -0.132)">
       <defs>
        <path id="CMR17-31" d="M 1702 4083 
C 1702 4217 1696 4224 1606 4224 
C 1357 3927 979 3833 621 3820 
C 602 3820 570 3820 563 3808 
C 557 3795 557 3782 557 3648 
C 755 3648 1088 3686 1344 3839 
L 1344 467 
C 1344 243 1331 166 781 166 
L 589 166 
L 589 0 
C 896 6 1216 12 1523 12 
C 1830 12 2150 6 2458 0 
L 2458 166 
L 2266 166 
C 1715 166 1702 236 1702 467 
L 1702 4083 
z
" transform="scale(0.015625)"/>
       </defs>
       <use xlink:href="#CMR17-31" transform="scale(0.996264)"/>
       <use xlink:href="#CMR17-30" transform="translate(45.690477 0) scale(0.996264)"/>
       <use xlink:href="#CMR17-30" transform="translate(91.380954 0) scale(0.996264)"/>
       <use xlink:href="#CMR17-30" transform="translate(137.071431 0) scale(0.996264)"/>
       <use xlink:href="#CMR17-30" transform="translate(182.761908 0) scale(0.996264)"/>
      </g>
     </g>
    </g>
    <g id="text_7">
     <!-- lag -->
     <g style="fill: #262626" transform="translate(434.273746 461.692081) scale(0.144 -0.144)">
      <defs>
       <path id="CMSS17-6c" d="M 947 4416 
L 474 4416 
L 474 0 
L 947 0 
L 947 4416 
z
" transform="scale(0.015625)"/>
       <path id="CMSS17-61" d="M 2406 1789 
C 2406 2399 1978 2816 1402 2816 
C 1120 2816 813 2764 461 2559 
L 499 2133 
C 659 2250 934 2438 1395 2438 
C 1722 2438 1920 2185 1920 1782 
L 1920 1536 
C 896 1504 256 1209 256 711 
C 256 452 416 -64 947 -64 
C 1043 -64 1562 -52 1933 224 
L 1933 -13 
L 2406 -13 
L 2406 1789 
z
M 1920 824 
C 1920 711 1920 559 1728 446 
C 1562 339 1350 326 1261 326 
C 941 326 723 503 723 723 
C 723 1165 1722 1209 1920 1216 
L 1920 824 
z
" transform="scale(0.015625)"/>
       <path id="CMSS17-67" d="M 2848 2816 
C 2483 2809 2170 2739 1914 2617 
C 1702 2783 1485 2816 1338 2816 
C 781 2816 358 2356 358 1824 
C 358 1481 550 1222 563 1209 
C 448 1049 384 876 384 684 
C 384 460 474 300 544 211 
C 211 6 166 -308 166 -429 
C 166 -896 749 -1280 1498 -1280 
C 2253 -1280 2835 -896 2835 -423 
C 2835 460 1856 467 1587 467 
L 1069 467 
C 973 467 717 467 717 793 
C 717 921 774 1004 781 1011 
C 877 940 1075 832 1338 832 
C 1869 832 2310 1279 2310 1824 
C 2310 2128 2170 2349 2112 2425 
L 2131 2425 
C 2150 2425 2419 2444 2515 2444 
C 2720 2444 2739 2438 2918 2419 
L 2848 2816 
z
M 1338 1184 
C 1120 1184 813 1317 813 1824 
C 813 2375 1165 2463 1331 2463 
C 1549 2463 1856 2330 1856 1824 
C 1856 1272 1504 1184 1338 1184 
z
M 1581 0 
C 1734 0 2381 0 2381 -436 
C 2381 -711 1984 -928 1504 -928 
C 1018 -928 621 -717 621 -429 
C 621 -397 621 0 1062 0 
L 1581 0 
z
" transform="scale(0.015625)"/>
      </defs>
      <use xlink:href="#CMSS17-6c" transform="scale(0.996264)"/>
      <use xlink:href="#CMSS17-61" transform="translate(22.180723 0) scale(0.996264)"/>
      <use xlink:href="#CMSS17-67" transform="translate(67.102644 0) scale(0.996264)"/>
     </g>
    </g>
   </g>
   <g id="matplotlib.axis_2">
    <g id="ytick_1">
     <g id="line2d_19">
      <path d="M 108 411.457362 
L 777.6 411.457362 
" clip-path="url(#p387b489db2)" style="fill: none; stroke: #e6e6e6; stroke-width: 0.8; stroke-linecap: round"/>
     </g>
     <g id="line2d_20">
      <defs>
       <path id="m48ba4ea49b" d="M 0 0 
L 4.8 0 
" style="stroke: #262626"/>
      </defs>
      <g>
       <use xlink:href="#m48ba4ea49b" x="108" y="411.457362" style="fill: #262626; stroke: #262626"/>
      </g>
     </g>
     <g id="line2d_21">
      <defs>
       <path id="m0f6149fe78" d="M 0 0 
L -4.8 0 
" style="stroke: #262626"/>
      </defs>
      <g>
       <use xlink:href="#m0f6149fe78" x="777.6" y="411.457362" style="fill: #262626; stroke: #262626"/>
      </g>
     </g>
     <g id="text_8">
      <!-- $\mathdefault{0.0}$ -->
      <g style="fill: #262626" transform="translate(88.04664 416.023559) scale(0.132 -0.132)">
       <defs>
        <path id="CMMI12-3a" d="M 1178 307 
C 1178 492 1024 620 870 620 
C 685 620 557 467 557 313 
C 557 128 710 0 864 0 
C 1050 0 1178 153 1178 307 
z
" transform="scale(0.015625)"/>
       </defs>
       <use xlink:href="#CMR17-30" transform="scale(0.996264)"/>
       <use xlink:href="#CMMI12-3a" transform="translate(45.690477 0) scale(0.996264)"/>
       <use xlink:href="#CMR17-30" transform="translate(72.787654 0) scale(0.996264)"/>
      </g>
     </g>
    </g>
    <g id="ytick_2">
     <g id="line2d_22">
      <path d="M 108 344.231889 
L 777.6 344.231889 
" clip-path="url(#p387b489db2)" style="fill: none; stroke: #e6e6e6; stroke-width: 0.8; stroke-linecap: round"/>
     </g>
     <g id="line2d_23">
      <g>
       <use xlink:href="#m48ba4ea49b" x="108" y="344.231889" style="fill: #262626; stroke: #262626"/>
      </g>
     </g>
     <g id="line2d_24">
      <g>
       <use xlink:href="#m0f6149fe78" x="777.6" y="344.231889" style="fill: #262626; stroke: #262626"/>
      </g>
     </g>
     <g id="text_9">
      <!-- $\mathdefault{0.2}$ -->
      <g style="fill: #262626" transform="translate(88.04664 348.798087) scale(0.132 -0.132)">
       <use xlink:href="#CMR17-30" transform="scale(0.996264)"/>
       <use xlink:href="#CMMI12-3a" transform="translate(45.690477 0) scale(0.996264)"/>
       <use xlink:href="#CMR17-32" transform="translate(72.787654 0) scale(0.996264)"/>
      </g>
     </g>
    </g>
    <g id="ytick_3">
     <g id="line2d_25">
      <path d="M 108 277.006417 
L 777.6 277.006417 
" clip-path="url(#p387b489db2)" style="fill: none; stroke: #e6e6e6; stroke-width: 0.8; stroke-linecap: round"/>
     </g>
     <g id="line2d_26">
      <g>
       <use xlink:href="#m48ba4ea49b" x="108" y="277.006417" style="fill: #262626; stroke: #262626"/>
      </g>
     </g>
     <g id="line2d_27">
      <g>
       <use xlink:href="#m0f6149fe78" x="777.6" y="277.006417" style="fill: #262626; stroke: #262626"/>
      </g>
     </g>
     <g id="text_10">
      <!-- $\mathdefault{0.4}$ -->
      <g style="fill: #262626" transform="translate(88.04664 281.572614) scale(0.132 -0.132)">
       <use xlink:href="#CMR17-30" transform="scale(0.996264)"/>
       <use xlink:href="#CMMI12-3a" transform="translate(45.690477 0) scale(0.996264)"/>
       <use xlink:href="#CMR17-34" transform="translate(72.787654 0) scale(0.996264)"/>
      </g>
     </g>
    </g>
    <g id="ytick_4">
     <g id="line2d_28">
      <path d="M 108 209.780945 
L 777.6 209.780945 
" clip-path="url(#p387b489db2)" style="fill: none; stroke: #e6e6e6; stroke-width: 0.8; stroke-linecap: round"/>
     </g>
     <g id="line2d_29">
      <g>
       <use xlink:href="#m48ba4ea49b" x="108" y="209.780945" style="fill: #262626; stroke: #262626"/>
      </g>
     </g>
     <g id="line2d_30">
      <g>
       <use xlink:href="#m0f6149fe78" x="777.6" y="209.780945" style="fill: #262626; stroke: #262626"/>
      </g>
     </g>
     <g id="text_11">
      <!-- $\mathdefault{0.6}$ -->
      <g style="fill: #262626" transform="translate(88.04664 214.347142) scale(0.132 -0.132)">
       <use xlink:href="#CMR17-30" transform="scale(0.996264)"/>
       <use xlink:href="#CMMI12-3a" transform="translate(45.690477 0) scale(0.996264)"/>
       <use xlink:href="#CMR17-36" transform="translate(72.787654 0) scale(0.996264)"/>
      </g>
     </g>
    </g>
    <g id="ytick_5">
     <g id="line2d_31">
      <path d="M 108 142.555472 
L 777.6 142.555472 
" clip-path="url(#p387b489db2)" style="fill: none; stroke: #e6e6e6; stroke-width: 0.8; stroke-linecap: round"/>
     </g>
     <g id="line2d_32">
      <g>
       <use xlink:href="#m48ba4ea49b" x="108" y="142.555472" style="fill: #262626; stroke: #262626"/>
      </g>
     </g>
     <g id="line2d_33">
      <g>
       <use xlink:href="#m0f6149fe78" x="777.6" y="142.555472" style="fill: #262626; stroke: #262626"/>
      </g>
     </g>
     <g id="text_12">
      <!-- $\mathdefault{0.8}$ -->
      <g style="fill: #262626" transform="translate(88.04664 147.12167) scale(0.132 -0.132)">
       <use xlink:href="#CMR17-30" transform="scale(0.996264)"/>
       <use xlink:href="#CMMI12-3a" transform="translate(45.690477 0) scale(0.996264)"/>
       <use xlink:href="#CMR17-38" transform="translate(72.787654 0) scale(0.996264)"/>
      </g>
     </g>
    </g>
    <g id="ytick_6">
     <g id="line2d_34">
      <path d="M 108 75.33 
L 777.6 75.33 
" clip-path="url(#p387b489db2)" style="fill: none; stroke: #e6e6e6; stroke-width: 0.8; stroke-linecap: round"/>
     </g>
     <g id="line2d_35">
      <g>
       <use xlink:href="#m48ba4ea49b" x="108" y="75.33" style="fill: #262626; stroke: #262626"/>
      </g>
     </g>
     <g id="line2d_36">
      <g>
       <use xlink:href="#m0f6149fe78" x="777.6" y="75.33" style="fill: #262626; stroke: #262626"/>
      </g>
     </g>
     <g id="text_13">
      <!-- $\mathdefault{1.0}$ -->
      <g style="fill: #262626" transform="translate(88.04664 79.896197) scale(0.132 -0.132)">
       <use xlink:href="#CMR17-31" transform="scale(0.996264)"/>
       <use xlink:href="#CMMI12-3a" transform="translate(45.690477 0) scale(0.996264)"/>
       <use xlink:href="#CMR17-30" transform="translate(72.787654 0) scale(0.996264)"/>
      </g>
     </g>
    </g>
    <g id="text_14">
     <!-- ACF -->
     <g style="fill: #262626" transform="translate(81.257113 258.352199) rotate(-90) scale(0.144 -0.144)">
      <defs>
       <path id="CMSS17-41" d="M 2272 4416 
L 1722 4416 
L 166 0 
L 653 0 
L 1101 1280 
L 2816 1280 
L 3270 0 
L 3827 0 
L 2272 4416 
z
M 2694 1638 
L 1222 1638 
C 1530 2530 1914 3638 1958 3924 
L 1965 3924 
C 2010 3663 2138 3281 2246 2956 
L 2694 1638 
z
" transform="scale(0.015625)"/>
       <path id="CMSS17-43" d="M 3501 705 
C 3072 416 2874 332 2355 332 
C 1459 332 934 1304 934 2191 
C 934 3137 1472 4070 2381 4070 
C 2790 4070 3059 3954 3386 3748 
L 3475 4255 
C 3168 4409 2778 4480 2387 4480 
C 1158 4480 397 3343 397 2191 
C 397 924 1299 -77 2323 -77 
C 2874 -77 3066 -32 3539 268 
L 3501 705 
z
" transform="scale(0.015625)"/>
       <path id="CMSS17-46" d="M 2918 1984 
L 2918 2374 
L 1101 2374 
L 1101 3993 
L 1882 3993 
C 1958 3993 2035 3987 2112 3987 
L 3168 3987 
L 3168 4403 
L 563 4403 
L 563 0 
L 1101 0 
L 1101 1984 
L 2918 1984 
z
" transform="scale(0.015625)"/>
      </defs>
      <use xlink:href="#CMSS17-41" transform="scale(0.996264)"/>
      <use xlink:href="#CMSS17-43" transform="translate(59.615401 0) scale(0.996264)"/>
      <use xlink:href="#CMSS17-46" transform="translate(119.471173 0) scale(0.996264)"/>
     </g>
    </g>
   </g>
   <g id="line2d_37">
    <path d="M 138.436364 75.33 
L 138.923394 165.624689 
L 139.471303 227.614092 
L 140.080092 272.546915 
L 140.749759 306.07569 
L 141.480304 331.318064 
L 142.21085 349.253617 
L 143.002275 363.387787 
L 143.793699 373.746145 
L 144.646003 382.055589 
L 145.437427 387.801505 
L 146.533246 393.65957 
L 147.385549 397.144546 
L 148.237853 399.87212 
L 149.090156 401.974958 
L 150.307733 404.495041 
L 151.403551 406.30971 
L 152.621128 407.701841 
L 153.716946 408.663338 
L 154.386613 409.023961 
L 155.786826 409.520149 
L 158.891646 410.043569 
L 159.743949 410.256771 
L 161.813829 410.24701 
L 162.666132 410.357254 
L 164.979527 410.570092 
L 169.241044 411.20421 
L 170.397742 411.24876 
L 171.676197 411.343414 
L 173.198167 411.273883 
L 173.746076 411.204392 
L 175.08541 411.067496 
L 175.572441 411.038853 
L 176.181229 411.196283 
L 177.459684 411.325856 
L 178.799018 411.38996 
L 179.7122 411.504671 
L 180.320988 411.571166 
L 180.808019 411.67698 
L 182.573505 411.497033 
L 183.912839 411.128058 
L 184.8869 411.389322 
L 186.043597 411.375561 
L 187.93084 411.493372 
L 190.061599 411.965667 
L 190.792145 412.129707 
L 191.52269 412.263899 
L 192.55763 412.292662 
L 193.775207 412.529163 
L 195.905965 412.616705 
L 197.001784 412.401982 
L 197.854087 412.182066 
L 199.619573 412.015287 
L 200.837149 411.9365 
L 201.567695 411.843095 
L 203.941969 411.520327 
L 204.855151 411.352065 
L 207.716455 411.731819 
L 208.142607 411.629573 
L 208.812274 411.430632 
L 212.343245 411.137021 
L 213.378185 411.007759 
L 213.986973 411.050521 
L 214.839277 411.211734 
L 215.69158 411.258613 
L 216.300368 411.329957 
L 217.335308 411.383082 
L 218.309369 411.578561 
L 220.379249 411.575579 
L 221.292431 411.621054 
L 221.962098 411.512017 
L 223.057917 411.533035 
L 223.91022 411.628213 
L 224.519008 411.565752 
L 225.614827 411.685062 
L 226.588888 411.782178 
L 227.50207 411.641609 
L 228.53701 411.519119 
L 230.180738 411.352938 
L 230.789526 411.250732 
L 231.824466 411.331455 
L 232.433254 411.374931 
L 233.650831 411.583646 
L 234.381376 411.654674 
L 236.816529 411.586696 
L 238.460257 411.836454 
L 239.616954 411.98021 
L 240.591015 412.076162 
L 241.199804 412.049572 
L 241.869471 412.123378 
L 242.600016 412.077881 
L 243.45232 411.983826 
L 245.704836 411.62747 
L 247.409443 411.860251 
L 248.687898 411.781765 
L 249.479322 411.803684 
L 250.63602 411.758931 
L 252.766778 411.658635 
L 253.314688 411.78241 
L 254.22787 411.972827 
L 255.567204 411.846414 
L 256.967417 411.671905 
L 258.002357 411.84987 
L 258.611145 411.927893 
L 261.046297 412.040011 
L 262.629147 411.98923 
L 264.51639 411.963477 
L 266.342754 411.964438 
L 267.377694 412.023565 
L 268.169119 411.965692 
L 268.59527 411.906818 
L 269.873726 411.876065 
L 272.126242 411.752486 
L 274.500516 411.934669 
L 275.474577 411.85631 
L 277.179183 411.945443 
L 278.88379 411.812286 
L 280.649276 411.303076 
L 281.927731 411.411379 
L 282.962671 411.505848 
L 285.276066 411.167401 
L 285.945733 411.065535 
L 288.259128 410.828244 
L 288.867916 410.943782 
L 289.354946 411.033779 
L 289.902856 411.214052 
L 290.572523 411.382314 
L 293.372948 411.74769 
L 293.981736 411.741236 
L 294.712282 411.713018 
L 298.243253 411.479371 
L 298.608526 411.519852 
L 301.104558 411.369656 
L 303.113559 411.39528 
L 305.913984 411.424625 
L 306.827166 411.293749 
L 308.775288 411.08461 
L 312.062744 411.519631 
L 313.584715 411.311885 
L 314.132624 411.391756 
L 315.106685 411.600188 
L 317.359201 411.709392 
L 319.124687 411.232272 
L 320.464021 411.309448 
L 321.438082 411.362718 
L 323.447083 411.285477 
L 324.299386 411.518913 
L 324.786417 411.530523 
L 325.699599 411.528115 
L 326.491024 411.558321 
L 328.256509 411.405094 
L 330.021995 411.731467 
L 331.422208 411.708188 
L 335.135815 412.340315 
L 336.292513 412.115067 
L 337.144816 412.019171 
L 337.875362 412.114181 
L 339.214696 412.081269 
L 340.188757 412.164495 
L 341.101939 411.969372 
L 341.710727 411.76906 
L 342.563031 411.748241 
L 343.354455 411.653458 
L 343.963244 411.473606 
L 344.693789 411.250665 
L 346.094002 411.272865 
L 346.641911 411.430809 
L 347.128942 411.560138 
L 349.381458 411.737977 
L 349.929367 411.60881 
L 350.355519 411.573086 
L 351.086065 411.524764 
L 354.738794 411.034943 
L 355.591097 410.974953 
L 363.261828 411.245474 
L 364.235889 411.284041 
L 364.72292 411.311277 
L 366.671042 411.15963 
L 367.218951 411.1123 
L 368.010376 411.002142 
L 369.593225 410.971321 
L 370.567286 410.839267 
L 373.185075 411.014095 
L 374.950561 410.666873 
L 376.168137 410.581338 
L 376.655167 410.679925 
L 377.324834 410.831079 
L 379.638229 411.141306 
L 381.099321 411.267506 
L 386.578414 411.495534 
L 387.735112 411.739818 
L 388.952688 411.993567 
L 390.170264 411.986309 
L 394.370903 411.516827 
L 395.771115 411.432729 
L 398.63242 410.971827 
L 400.763178 411.122296 
L 403.015694 411.31791 
L 403.74624 411.296811 
L 405.085574 411.358716 
L 406.30315 411.277668 
L 407.277211 411.441037 
L 409.834122 411.536674 
L 410.686425 411.570014 
L 412.025759 411.68493 
L 412.99982 411.585748 
L 413.547729 411.530551 
L 415.55673 411.574553 
L 416.287276 411.45605 
L 418.11364 411.682329 
L 419.026823 411.672499 
L 420.974945 411.494016 
L 421.705491 411.335609 
L 422.2534 411.273575 
L 424.627674 411.647828 
L 427.793372 412.206961 
L 429.193585 412.255652 
L 429.680615 412.295181 
L 430.776434 412.073555 
L 432.420162 411.873205 
L 434.611799 411.884954 
L 436.803437 412.038599 
L 440.395287 411.661971 
L 441.978136 411.693803 
L 443.8045 411.596216 
L 444.778561 411.606229 
L 445.87438 411.54193 
L 446.42229 411.542493 
L 447.335472 411.516342 
L 448.309533 411.38421 
L 448.735684 411.352918 
L 451.353474 411.301271 
L 453.849505 411.784361 
L 454.64093 411.707121 
L 456.589052 411.19606 
L 458.658931 411.258687 
L 459.632992 411.174393 
L 460.424417 411.30759 
L 463.285721 411.718943 
L 464.077146 411.517862 
L 464.625055 411.354055 
L 465.538237 411.165372 
L 468.399542 411.438056 
L 468.947451 411.43785 
L 470.286785 411.400734 
L 472.478422 411.026918 
L 473.148089 410.971169 
L 473.63512 410.946625 
L 476.252909 411.452685 
L 476.983455 411.327044 
L 478.992456 411.319276 
L 480.088274 411.308125 
L 482.766942 411.783815 
L 483.314851 411.759769 
L 484.288913 411.8088 
L 486.297913 411.594298 
L 488.854824 411.769005 
L 489.402733 411.907414 
L 491.229097 411.939566 
L 493.116341 411.57502 
L 493.603371 411.651555 
L 494.516553 411.830216 
L 495.429736 411.937847 
L 496.282039 411.871433 
L 497.195221 411.702978 
L 497.743131 411.585308 
L 498.351919 411.507826 
L 498.838949 411.529944 
L 500.665314 411.728469 
L 501.213223 411.765127 
L 502.796072 411.856073 
L 503.343982 411.902376 
L 504.135406 411.915455 
L 505.048588 412.016052 
L 505.779134 412.075372 
L 507.118468 411.975958 
L 507.605499 411.822167 
L 508.396923 411.740853 
L 509.005711 411.65232 
L 509.553621 411.511172 
L 512.780198 411.648981 
L 513.267229 411.618503 
L 514.667441 411.436897 
L 516.980836 411.615655 
L 519.903019 411.198276 
L 520.572686 410.962938 
L 521.059717 411.004109 
L 523.068718 411.159531 
L 524.529809 411.335084 
L 525.077719 411.181802 
L 525.564749 411.112691 
L 527.391114 411.005127 
L 528.791326 411.426802 
L 529.460993 411.514338 
L 530.922085 411.452267 
L 531.835267 411.304806 
L 533.966026 411.217372 
L 534.635693 411.197388 
L 535.670633 411.299723 
L 536.644694 411.383423 
L 537.496997 411.192173 
L 538.592816 411.075412 
L 541.393241 410.733194 
L 542.732575 410.955135 
L 543.463121 410.99549 
L 544.315424 411.290697 
L 544.863334 411.386237 
L 546.994092 411.267777 
L 549.003093 410.989684 
L 550.159791 410.977776 
L 552.899337 411.19035 
L 554.056035 411.211168 
L 556.430308 411.502628 
L 557.160854 411.555517 
L 557.587006 411.524314 
L 560.630947 411.986769 
L 561.605008 412.213842 
L 562.335554 412.156078 
L 563.614009 411.857617 
L 564.709827 411.55303 
L 567.14498 411.716401 
L 567.875526 411.706128 
L 570.615072 411.242194 
L 570.980345 411.2558 
L 571.467376 411.27936 
L 572.076164 411.204216 
L 572.502316 411.247129 
L 573.232861 411.237757 
L 573.598134 411.289498 
L 574.450438 411.518192 
L 575.059226 411.439267 
L 575.789772 411.156698 
L 576.824712 411.028042 
L 579.198985 411.318428 
L 580.47744 411.090784 
L 581.02535 411.012349 
L 581.999411 410.990477 
L 582.729957 411.088377 
L 584.799836 411.218605 
L 585.286867 411.338147 
L 586.869716 411.204278 
L 587.782898 411.201749 
L 588.452565 411.236461 
L 589.548384 411.420825 
L 590.27893 411.414579 
L 591.070354 411.490768 
L 594.479568 411.23051 
L 595.027477 411.317562 
L 596.305932 411.339101 
L 596.853842 411.367912 
L 597.706145 411.454454 
L 600.445692 411.777049 
L 601.176238 411.88248 
L 603.185239 411.53039 
L 603.915784 411.401347 
L 606.411816 411.059258 
L 607.994665 410.985798 
L 608.907847 410.99792 
L 613.473758 411.342239 
L 614.447819 411.403646 
L 615.056607 411.398868 
L 617.065608 411.463304 
L 617.796154 411.597545 
L 619.135488 411.771006 
L 620.231307 411.721349 
L 623.457884 411.640086 
L 624.553703 411.855588 
L 625.832158 411.858321 
L 626.623582 411.735351 
L 627.354128 411.750445 
L 630.641584 411.308325 
L 633.320252 411.218551 
L 634.050798 411.141312 
L 634.903101 411.149142 
L 638.799345 411.547037 
L 639.529891 411.492473 
L 640.199558 411.477162 
L 641.11274 411.305546 
L 642.69559 411.22248 
L 643.487014 411.396773 
L 644.765469 411.972022 
L 645.678652 412.011301 
L 646.530955 411.983783 
L 647.139743 411.968216 
L 649.33138 411.965696 
L 650.183684 411.911694 
L 650.975108 411.846029 
L 651.583897 411.808746 
L 653.349382 411.647648 
L 655.419262 411.398032 
L 658.09793 412.00685 
L 658.828476 412.032179 
L 659.924294 411.99047 
L 660.715719 411.933739 
L 661.385386 411.877413 
L 663.820538 411.886203 
L 665.28163 412.111268 
L 665.951297 412.220415 
L 666.499206 412.243925 
L 668.995238 412.231574 
L 669.543147 412.271893 
L 671.186875 412.049108 
L 673.01324 412.003296 
L 674.717846 411.988047 
L 675.387513 411.868855 
L 677.700908 411.96429 
L 682.084183 411.494894 
L 682.632092 411.43992 
L 683.180002 411.294874 
L 684.336699 411.161712 
L 684.762851 411.100108 
L 685.31076 411.307734 
L 685.676033 411.349551 
L 687.502398 411.240202 
L 688.354701 411.387978 
L 689.876671 411.713905 
L 690.911611 411.662878 
L 691.885672 411.53977 
L 692.616218 411.594793 
L 693.651158 411.633117 
L 694.503461 411.612945 
L 698.034433 411.831112 
L 698.947615 411.938552 
L 699.799918 412.081311 
L 700.530464 412.040032 
L 701.626283 412.077949 
L 703.635284 411.931505 
L 704.30495 411.775935 
L 705.705163 411.679125 
L 706.37483 411.729996 
L 708.140316 411.797228 
L 709.905801 411.567537 
L 710.575468 411.688107 
L 711.549529 411.76823 
L 713.802046 411.48659 
L 714.776107 411.688988 
L 715.384895 411.638933 
L 716.237198 411.519436 
L 717.028623 411.512918 
L 718.18532 411.582259 
L 718.854987 411.543997 
L 721.107503 411.682597 
L 722.142443 411.688923 
L 722.994747 411.695768 
L 727.256264 410.849584 
L 728.108567 410.878489 
L 733.344145 410.67652 
L 734.561722 410.944645 
L 736.083692 411.299701 
L 737.118632 411.655944 
L 738.092693 411.686576 
L 739.675542 411.516539 
L 742.293331 411.439201 
L 742.780362 411.381601 
L 743.754423 411.115208 
L 745.94606 411.072049 
L 746.554848 411.06606 
L 747.163636 411.024091 
L 747.163636 411.024091 
" clip-path="url(#p387b489db2)" style="fill: none; stroke: #9467bd; stroke-width: 2; stroke-linecap: round"/>
   </g>
   <g id="line2d_38">
    <path d="M 138.436364 75.33 
L 139.106031 122.068938 
L 139.958334 165.217444 
L 140.932395 202.802841 
L 141.967335 234.133433 
L 143.063154 260.75669 
L 144.158972 282.199874 
L 145.254791 299.696334 
L 146.472367 315.701467 
L 147.689944 328.793449 
L 148.968399 340.158366 
L 150.307733 349.945736 
L 151.586188 357.92092 
L 152.925522 364.805325 
L 154.386613 371.26571 
L 155.847705 376.66205 
L 157.12616 380.710717 
L 158.830767 385.347196 
L 159.926585 387.716373 
L 161.631192 390.895039 
L 162.970526 392.984255 
L 165.283921 396.061393 
L 167.110286 398.161882 
L 168.814892 399.658079 
L 172.345864 402.18053 
L 176.729138 404.833366 
L 180.503625 406.418268 
L 187.748204 408.638571 
L 191.461812 409.331017 
L 197.367057 409.738501 
L 198.462875 409.812063 
L 202.663514 410.077168 
L 204.489878 410.359041 
L 206.864152 410.388195 
L 214.961034 410.129866 
L 218.004975 410.523699 
L 222.692644 410.934731 
L 226.954161 411.058318 
L 232.311497 411.278052 
L 234.381376 411.287753 
L 235.477195 411.498505 
L 236.329498 411.617271 
L 238.886409 411.861213 
L 239.677833 411.851919 
L 241.017167 411.799924 
L 243.878471 411.931732 
L 246.00923 411.748503 
L 249.661959 411.602386 
L 250.757778 411.686465 
L 257.150053 411.936462 
L 260.254873 412.157049 
L 264.090238 411.924367 
L 265.55133 411.875376 
L 267.986482 411.658505 
L 269.995483 411.294417 
L 271.273938 411.309939 
L 275.778971 411.572606 
L 278.335881 411.925078 
L 279.370821 411.975833 
L 284.728156 411.932795 
L 286.6154 411.552362 
L 287.772097 411.219957 
L 289.233189 411.154936 
L 291.790099 411.374902 
L 294.468767 411.887186 
L 295.929858 412.037025 
L 297.086556 412.066774 
L 300.739285 412.145055 
L 304.696408 412.001437 
L 305.974863 412.057783 
L 306.948924 411.980846 
L 307.983864 411.884033 
L 312.184502 412.39803 
L 315.3502 412.425909 
L 316.506898 412.354713 
L 320.707536 412.068143 
L 321.985991 411.968509 
L 324.847296 411.737337 
L 332.213632 412.020329 
L 333.37033 412.001862 
L 335.866361 411.801801 
L 343.963244 410.773053 
L 347.859488 411.033494 
L 351.32958 411.126389 
L 352.181884 411.095426 
L 355.286703 411.047295 
L 357.660977 411.203586 
L 359.852614 411.040142 
L 363.809737 410.665903 
L 365.270829 410.516771 
L 366.975436 410.41518 
L 368.740921 410.373176 
L 373.124196 409.88541 
L 374.220015 410.07515 
L 375.254955 410.232303 
L 377.203077 410.28231 
L 378.664168 410.281397 
L 380.064381 410.239938 
L 382.743049 410.381161 
L 384.569413 410.677022 
L 388.039506 411.313938 
L 389.622355 411.44023 
L 394.00563 411.613331 
L 398.023631 411.435004 
L 400.215269 411.280962 
L 402.772179 411.227564 
L 404.902938 411.513588 
L 405.876999 411.533298 
L 410.503789 411.683767 
L 414.278275 412.146629 
L 416.165518 412.046349 
L 417.504852 411.864046 
L 418.783307 411.767788 
L 422.131642 411.371627 
L 423.410097 411.305722 
L 425.297341 411.385667 
L 426.514917 411.463727 
L 427.488978 411.49775 
L 436.559921 411.271684 
L 439.482105 410.990589 
L 443.439228 411.261684 
L 445.630865 411.187558 
L 451.414352 410.929182 
L 453.910384 411.306682 
L 457.076082 411.155352 
L 463.163964 411.520483 
L 464.320661 411.488493 
L 468.886572 411.759672 
L 470.165027 411.598028 
L 474.913575 411.389616 
L 478.079273 411.536946 
L 479.540365 411.629795 
L 481.305851 411.77725 
L 482.279912 411.872202 
L 483.558367 411.901781 
L 484.593307 411.871059 
L 485.689125 411.996081 
L 488.976581 412.32164 
L 490.863825 412.257827 
L 494.029523 412.128204 
L 497.377858 412.069725 
L 498.412798 412.092259 
L 499.691253 412.208377 
L 502.796072 412.289427 
L 504.4398 412.459976 
L 508.518681 412.364902 
L 510.345045 412.163974 
L 512.354046 411.884258 
L 515.032714 411.767229 
L 519.659504 411.729017 
L 520.511808 411.742679 
L 523.190475 411.756222 
L 525.869143 411.655301 
L 534.574814 411.58143 
L 536.401178 411.585314 
L 538.410179 411.441915 
L 543.341363 411.946699 
L 544.741576 412.059083 
L 547.298486 411.687078 
L 553.873398 410.981341 
L 559.535128 411.265575 
L 562.031159 411.621343 
L 563.979282 411.818419 
L 564.953343 411.869504 
L 568.727829 411.99686 
L 572.684952 411.966022 
L 573.780771 411.920413 
L 576.094166 411.922837 
L 577.555257 411.663193 
L 578.346682 411.647012 
L 579.381622 411.660082 
L 580.47744 411.696294 
L 581.634138 411.833115 
L 583.156108 412.032173 
L 585.713019 412.343677 
L 586.565322 412.258415 
L 590.035414 411.888935 
L 591.618264 411.829402 
L 594.114295 412.147816 
L 596.42769 412.325816 
L 598.071418 412.519873 
L 602.698208 412.973629 
L 604.524572 412.946327 
L 606.411816 412.948026 
L 608.359938 413.028492 
L 609.577514 413.089024 
L 612.195303 412.838764 
L 614.447819 412.665158 
L 615.300123 412.571114 
L 617.735275 412.419794 
L 621.08361 412.484611 
L 622.057671 412.622058 
L 623.64052 413.042231 
L 624.67546 413.217539 
L 627.902037 413.282604 
L 631.128615 413.07524 
L 633.624646 412.91346 
L 634.598707 412.780378 
L 636.851223 412.702509 
L 638.312315 412.628576 
L 640.62571 412.573821 
L 642.269438 412.530616 
L 643.487014 412.530926 
L 645.130742 412.558506 
L 647.626774 412.604625 
L 649.33138 412.555439 
L 650.670714 412.465187 
L 654.019049 412.462306 
L 655.54102 412.436462 
L 656.697717 412.346724 
L 658.341445 412.166279 
L 660.472204 411.960796 
L 661.872416 411.88013 
L 665.464266 411.438623 
L 666.681843 411.364145 
L 670.39545 411.244264 
L 672.769724 411.309697 
L 678.553212 411.01781 
L 680.257819 411.095307 
L 681.658031 411.047776 
L 682.632092 410.935805 
L 683.910547 410.840308 
L 686.528336 410.999749 
L 689.694035 411.518988 
L 695.355765 412.069019 
L 697.730038 412.14303 
L 699.921676 412.035946 
L 706.313951 411.975047 
L 710.271074 411.302801 
L 716.115441 411.151448 
L 717.211259 411.15044 
L 719.889927 411.125681 
L 722.690353 411.33811 
L 733.283267 411.356487 
L 734.683479 411.451791 
L 738.031814 411.706829 
L 743.87618 411.973439 
L 747.163636 411.858599 
L 747.163636 411.858599 
" clip-path="url(#p387b489db2)" style="fill: none; stroke: #ff7f0e; stroke-width: 1.2; stroke-linecap: round"/>
   </g>
   <g id="line2d_39">
    <path d="M 138.436364 75.33 
L 139.166909 106.024975 
L 140.14097 137.325232 
L 141.297668 167.128192 
L 142.576123 194.218527 
L 143.976336 219.169008 
L 145.437427 241.207861 
L 146.959398 260.787804 
L 148.420489 276.831128 
L 150.185975 293.604306 
L 151.707945 306.046072 
L 153.351673 317.698697 
L 155.05628 328.249205 
L 156.760887 337.303557 
L 158.587251 345.736135 
L 160.230979 352.396753 
L 161.996465 358.476382 
L 164.370739 365.559946 
L 166.562376 371.291536 
L 168.266983 375.095451 
L 170.641257 379.595998 
L 173.380804 383.889673 
L 175.511562 386.718059 
L 178.068472 389.812992 
L 181.842959 393.566161 
L 186.165355 397.111892 
L 188.356992 398.619965 
L 193.349055 401.666297 
L 195.966844 402.838241 
L 198.889027 404.238598 
L 202.298241 405.574581 
L 211.369184 407.326489 
L 221.109795 408.54713 
L 222.936159 408.767158 
L 224.397251 409.056168 
L 226.46713 409.447385 
L 232.250618 410.194013 
L 238.034105 410.588355 
L 239.616954 410.694973 
L 243.026168 411.008819 
L 246.313624 411.486475 
L 248.505261 411.584828 
L 252.279748 411.685146 
L 254.106112 411.768261 
L 256.419507 411.763244 
L 258.428508 411.594642 
L 259.828721 411.640583 
L 262.568268 411.661323 
L 264.577269 411.682133 
L 269.569331 411.707945 
L 272.491515 411.465603 
L 274.744031 411.179452 
L 280.95367 410.629212 
L 282.840913 410.42361 
L 285.702217 410.293368 
L 297.269192 410.78174 
L 299.94786 411.139927 
L 303.235316 411.337981 
L 306.948924 411.41557 
L 308.957925 411.402781 
L 310.966926 411.440383 
L 312.549775 411.542624 
L 315.593716 411.714179 
L 318.698535 411.616446 
L 323.873235 411.665499 
L 337.327453 410.836426 
L 338.849423 410.90658 
L 343.780607 411.223721 
L 345.546093 411.319378 
L 347.615973 411.399419 
L 349.259701 411.431614 
L 351.086065 411.550111 
L 362.226888 411.628596 
L 363.870616 411.797373 
L 368.8018 412.32775 
L 371.602226 412.42668 
L 373.245954 412.4508 
L 375.072318 412.394549 
L 380.490533 412.439004 
L 384.508534 412.875375 
L 389.926749 412.9928 
L 392.666296 412.802348 
L 394.431781 412.742341 
L 396.319025 412.677345 
L 398.510662 412.549922 
L 402.833058 412.541962 
L 404.659422 412.608808 
L 408.433909 412.605285 
L 411.721365 412.338794 
L 414.826184 412.362009 
L 424.445037 412.402074 
L 427.428099 412.165051 
L 433.150708 412.342617 
L 437.533982 412.770186 
L 443.500106 412.897872 
L 447.822502 412.915014 
L 450.318534 412.869963 
L 454.336535 412.781771 
L 456.1629 412.646028 
L 462.798691 412.065061 
L 471.808755 411.398857 
L 476.496424 411.618245 
L 479.357729 411.642854 
L 484.349791 411.789506 
L 488.306914 411.672329 
L 489.402733 411.706887 
L 491.777007 411.792867 
L 499.143343 411.67799 
L 505.535619 411.079131 
L 508.823075 410.831881 
L 510.771197 410.87196 
L 518.563685 411.659134 
L 521.546747 411.443909 
L 534.453056 410.332352 
L 536.157663 410.376012 
L 537.984027 410.300303 
L 543.767515 410.424345 
L 548.029032 410.754085 
L 551.499124 410.933552 
L 557.099975 411.159831 
L 562.031159 411.374029 
L 565.501252 411.248475 
L 566.840586 411.180805 
L 574.998347 410.951934 
L 580.355683 410.372707 
L 584.921594 410.728296 
L 586.382686 410.927396 
L 590.27893 411.059543 
L 592.105294 411.024334 
L 594.783962 411.077926 
L 595.758023 411.048772 
L 597.827903 410.912522 
L 606.107422 410.715995 
L 610.368939 410.472296 
L 613.291122 410.352808 
L 617.674397 410.123217 
L 620.961853 410.314399 
L 626.74534 410.639811 
L 627.962916 410.71495 
L 629.971917 410.820991 
L 632.224433 410.88244 
L 635.207495 411.018648 
L 637.399133 411.134247 
L 638.860224 411.137564 
L 645.374257 410.875051 
L 648.113804 410.804962 
L 649.940169 410.794383 
L 654.079928 410.67275 
L 655.601898 410.579265 
L 663.150871 410.338176 
L 669.056117 410.516115 
L 673.378512 410.94592 
L 681.536274 411.277177 
L 688.963489 411.393454 
L 695.781916 411.945547 
L 697.973554 412.12253 
L 703.574405 412.416364 
L 704.791981 412.419766 
L 707.105376 412.541298 
L 710.392832 412.682304 
L 712.03656 412.758647 
L 713.497652 412.76379 
L 714.958743 412.749356 
L 716.541592 412.638888 
L 719.829048 412.388006 
L 727.925931 412.051609 
L 729.630538 412.150188 
L 747.163636 413.7743 
L 747.163636 413.7743 
" clip-path="url(#p387b489db2)" style="fill: none; stroke: #2ca02c; stroke-width: 1.2; stroke-linecap: round"/>
   </g>
   <g id="line2d_40">
    <path d="M 138.436364 75.33 
L 139.227788 98.978561 
L 140.262728 123.278329 
L 141.541183 148.007192 
L 143.002275 171.945875 
L 144.585124 194.273276 
L 146.228852 214.400547 
L 147.994338 233.319047 
L 149.881581 251.07532 
L 151.707945 266.137103 
L 153.656067 280.356539 
L 155.60419 293.018068 
L 157.61319 304.601264 
L 159.561312 314.515946 
L 161.326798 322.46163 
L 163.518435 331.216466 
L 165.588315 338.670848 
L 167.536437 344.779526 
L 169.484559 350.243683 
L 171.371803 354.946742 
L 173.685198 360.137745 
L 175.815956 364.280107 
L 179.103412 370.114046 
L 181.842959 374.389196 
L 184.460748 378.059633 
L 186.8959 380.986623 
L 188.722265 382.956901 
L 191.827085 385.925707 
L 195.540692 389.1218 
L 197.975845 390.813572 
L 201.019786 392.872421 
L 203.698453 394.675054 
L 206.133606 396.060337 
L 216.361247 400.458932 
L 220.379249 402.061224 
L 222.38825 402.775451 
L 224.823402 403.33957 
L 229.693708 404.485366 
L 234.19874 405.621979 
L 238.642893 406.142228 
L 240.591015 406.304723 
L 245.400442 406.84049 
L 250.453384 407.86354 
L 253.314688 408.169437 
L 261.168055 408.78484 
L 264.51639 408.972721 
L 271.517454 409.619296 
L 274.257 410.018172 
L 277.179183 410.303552 
L 279.127305 410.479226 
L 286.250127 411.173737 
L 289.963735 411.263435 
L 293.677342 411.464333 
L 297.756223 411.375163 
L 302.748286 411.566809 
L 304.879044 411.542442 
L 319.550839 410.853354 
L 331.726602 411.378306 
L 347.068063 411.063447 
L 351.816611 411.444652 
L 353.39946 411.473929 
L 356.443401 411.56405 
L 358.635038 411.380519 
L 367.827739 410.498165 
L 372.94156 410.265977 
L 375.194076 410.364284 
L 377.872744 410.481748 
L 379.333835 410.414323 
L 382.803928 410.052935 
L 386.700172 409.720555 
L 388.465657 409.528188 
L 390.292022 409.305831 
L 393.640357 409.233883 
L 397.475722 409.079088 
L 408.981818 408.518546 
L 411.538728 408.64315 
L 418.235398 408.485717 
L 426.210523 408.466548 
L 429.376221 408.668876 
L 436.742558 409.125942 
L 439.116832 409.255301 
L 444.656804 409.732792 
L 446.787562 409.767247 
L 458.841568 410.35768 
L 461.763751 410.601506 
L 465.233843 410.736558 
L 467.303723 410.64568 
L 468.947451 410.597719 
L 476.070272 410.487503 
L 479.723001 410.490118 
L 494.029523 411.27791 
L 495.612372 411.347889 
L 497.316979 411.397097 
L 500.482677 411.278106 
L 503.039588 411.251598 
L 505.170346 411.194322 
L 508.457802 411.185976 
L 511.988773 411.14615 
L 514.119532 411.178165 
L 519.598625 411.314811 
L 520.937959 411.281965 
L 525.138597 411.140294 
L 530.008903 411.05587 
L 548.698699 411.432887 
L 553.26461 411.211212 
L 561.726765 411.326103 
L 577.677015 410.136172 
L 582.303805 409.673446 
L 595.514508 409.826351 
L 599.349873 410.047046 
L 604.402815 409.821742 
L 605.863906 409.760484 
L 612.560576 409.788651 
L 622.909975 409.714305 
L 627.354128 410.023878 
L 629.667523 410.1787 
L 631.676524 410.405701 
L 635.511889 410.609147 
L 637.03386 410.550549 
L 640.016922 410.380137 
L 645.130742 410.338044 
L 652.740594 410.606302 
L 654.99311 410.716259 
L 669.116995 411.278686 
L 676.361574 411.814003 
L 678.735848 411.990114 
L 681.779789 412.164789 
L 684.762851 412.202107 
L 686.893609 412.238076 
L 688.841731 412.279927 
L 696.329826 412.286226 
L 698.825857 412.254475 
L 708.383831 412.014581 
L 711.062499 411.88055 
L 715.567531 412.00884 
L 717.15038 411.995359 
L 726.221324 411.608165 
L 728.960871 411.52501 
L 734.500843 411.712244 
L 739.24939 412.004788 
L 742.780362 412.289212 
L 746.250454 412.585429 
L 747.163636 412.665905 
L 747.163636 412.665905 
" clip-path="url(#p387b489db2)" style="fill: none; stroke: #8c564b; stroke-width: 1.2; stroke-linecap: round"/>
   </g>
   <g id="line2d_41">
    <path d="M 138.436364 75.33 
L 139.288667 94.668188 
L 140.445365 115.597823 
L 141.845577 136.77462 
L 143.428426 157.426731 
L 145.193912 177.49434 
L 147.142034 197.103458 
L 149.090156 214.656157 
L 151.160036 231.231921 
L 153.229916 246.080146 
L 155.482432 260.546483 
L 157.674069 273.242961 
L 159.804828 284.375625 
L 162.23998 295.876227 
L 164.553375 305.804408 
L 166.684134 314.029854 
L 169.180165 322.642955 
L 171.250045 329.064433 
L 173.56344 335.545542 
L 176.242108 342.354897 
L 178.738139 348.135693 
L 181.112413 353.039456 
L 183.973717 358.428849 
L 187.44381 364.344948 
L 190.122478 368.40172 
L 192.922903 372.208943 
L 195.540692 375.266302 
L 199.923967 380.057305 
L 202.907029 383.013436 
L 206.98591 386.596555 
L 211.186548 389.964349 
L 213.986973 391.878104 
L 218.065854 394.543987 
L 220.927158 396.10656 
L 224.823402 397.899832 
L 230.485132 400.459124 
L 234.68577 402.030351 
L 237.79059 403.209154 
L 241.138925 404.44066 
L 242.843532 404.904686 
L 248.627019 406.221343 
L 251.12305 406.848399 
L 256.78478 408.040923 
L 263.542329 408.976696 
L 275.413698 410.170921 
L 297.877981 411.015253 
L 302.50477 410.865525 
L 309.079683 410.870273 
L 312.245381 410.716152 
L 314.558776 410.653674 
L 324.786417 410.93172 
L 329.900237 410.714286 
L 342.745667 409.806843 
L 348.894428 409.704366 
L 352.242762 409.73947 
L 360.704918 409.705866 
L 362.713919 409.741293 
L 371.967499 409.618721 
L 374.585288 409.647548 
L 377.446592 409.48876 
L 387.065445 409.409692 
L 388.83093 409.367427 
L 395.771115 409.073802 
L 407.216333 408.984797 
L 413.425972 409.011489 
L 425.967008 408.42555 
L 431.324343 408.58384 
L 440.334408 409.109011 
L 444.656804 409.275526 
L 448.005139 409.520421 
L 451.049079 409.68372 
L 454.275657 410.00189 
L 456.589052 410.292852 
L 465.599116 411.004703 
L 472.356665 411.640521 
L 479.114213 411.946478 
L 484.41067 412.190512 
L 493.359856 412.661076 
L 498.108404 412.638234 
L 501.761132 412.679388 
L 505.048588 412.848783 
L 514.24129 413.542888 
L 525.01684 414.457713 
L 528.60869 414.85421 
L 530.739448 415.00981 
L 539.627756 415.369394 
L 541.758514 415.428618 
L 546.628819 415.392532 
L 551.316488 415.006615 
L 558.743703 414.602209 
L 566.779707 414.1701 
L 568.66695 414.110385 
L 574.206923 413.886064 
L 577.92053 413.766003 
L 581.390623 413.678336 
L 583.58226 413.615555 
L 587.356747 413.634176 
L 600.202177 414.066108 
L 614.265183 414.07876 
L 627.415007 413.448849 
L 631.189493 413.234389 
L 634.355192 413.072829 
L 638.373194 413.133571 
L 640.869225 413.097469 
L 654.749595 412.877993 
L 657.123869 412.803465 
L 664.490205 412.637271 
L 667.290631 412.74313 
L 669.847541 412.929486 
L 674.474331 413.17747 
L 678.248818 413.252466 
L 688.780853 413.506243 
L 694.259946 413.623232 
L 704.365829 413.213197 
L 706.009557 413.134243 
L 711.00162 412.897101 
L 723.177383 412.122861 
L 726.282203 411.797568 
L 729.752295 411.417585 
L 735.65754 410.901363 
L 737.849178 410.950075 
L 744.180574 411.438041 
L 746.067818 411.51886 
L 747.163636 411.524774 
L 747.163636 411.524774 
" clip-path="url(#p387b489db2)" style="fill: none; stroke: #e377c2; stroke-width: 1.2; stroke-linecap: round"/>
   </g>
   <g id="line2d_42">
    <path d="M 138.436364 75.33 
L 139.288667 90.583136 
L 140.506243 108.242779 
L 142.028214 126.963194 
L 143.732821 145.202729 
L 145.680943 163.682071 
L 147.750822 181.210659 
L 150.003339 198.419115 
L 152.316733 214.357369 
L 154.56925 228.342674 
L 156.943523 241.71465 
L 159.317797 253.869916 
L 161.874707 265.74854 
L 164.30986 275.996121 
L 166.805891 285.531007 
L 169.606317 295.338558 
L 172.406742 304.377578 
L 175.024532 312.156446 
L 177.946715 320.215676 
L 180.686261 327.062363 
L 183.791081 334.190076 
L 186.287112 339.477925 
L 190.061599 346.930349 
L 192.740267 351.679121 
L 195.723329 356.459189 
L 198.645512 360.701286 
L 201.141543 364.018455 
L 203.515817 366.924137 
L 206.98591 370.917027 
L 209.421062 373.48363 
L 212.708518 376.593291 
L 215.569822 379.052236 
L 219.587824 382.167406 
L 222.570886 384.272365 
L 227.075919 387.224102 
L 231.215678 389.587373 
L 234.807528 391.473152 
L 241.869471 394.853619 
L 245.948351 396.325778 
L 252.340627 398.353683 
L 257.697963 399.6043 
L 261.107176 400.480257 
L 264.820784 401.752901 
L 268.717028 403.041184 
L 273.343818 404.367702 
L 279.91873 406.033155 
L 287.041551 407.573286 
L 290.511644 408.033466 
L 295.138434 408.5227 
L 302.078619 408.802751 
L 309.140561 408.956161 
L 315.958989 409.411277 
L 320.220506 409.91475 
L 324.421144 410.311254 
L 326.247508 410.382805 
L 336.779543 410.300656 
L 339.640848 410.225731 
L 351.87749 410.082971 
L 358.391523 410.130893 
L 363.14007 410.143264 
L 367.036315 410.338499 
L 371.419589 410.71184 
L 373.489469 410.783843 
L 385.299959 410.954318 
L 395.284085 410.961374 
L 399.910875 411.25729 
L 408.738303 411.316976 
L 413.304214 411.354101 
L 416.043761 411.483627 
L 421.888127 411.759826 
L 427.428099 411.808512 
L 432.54192 412.054273 
L 435.646739 412.276332 
L 445.204713 413.114994 
L 451.109958 413.8447 
L 461.702872 414.658325 
L 466.512299 414.692234 
L 474.548302 414.518507 
L 482.8887 413.947009 
L 498.412798 413.554995 
L 501.822011 413.433745 
L 509.431863 413.331362 
L 514.302168 413.154214 
L 523.007839 412.741716 
L 535.30536 412.355104 
L 544.741576 411.741927 
L 552.716701 411.930722 
L 556.612945 411.930956 
L 562.822584 411.792553 
L 570.067163 411.609284 
L 578.529318 411.35591 
L 583.764896 411.324069 
L 587.782898 411.525926 
L 590.76596 411.643546 
L 598.558449 411.813511 
L 601.967662 411.875012 
L 609.760151 411.634381 
L 616.335063 411.730428 
L 621.022731 411.715648 
L 624.614581 411.817262 
L 632.954979 411.9728 
L 635.085738 412.154047 
L 637.581769 412.368025 
L 646.896228 412.870732 
L 661.872416 412.805078 
L 667.047116 412.641608 
L 674.656968 412.674235 
L 698.460584 412.231365 
L 702.478586 412.471371 
L 709.905801 412.898135 
L 722.32508 413.229936 
L 725.91693 413.370833 
L 730.421962 413.213049 
L 747.163636 412.809766 
L 747.163636 412.809766 
" clip-path="url(#p387b489db2)" style="fill: none; stroke: #7f7f7f; stroke-width: 1.2; stroke-linecap: round"/>
   </g>
   <g id="line2d_43">
    <path d="M 138.436364 75.33 
L 139.410425 86.855293 
L 140.749759 100.030193 
L 142.454365 114.57245 
L 144.402488 129.28825 
L 146.472367 143.305282 
L 148.724883 157.0699 
L 151.403551 171.967554 
L 154.082219 185.565028 
L 156.821766 198.332568 
L 159.926585 211.772458 
L 162.909647 223.622613 
L 166.197103 235.705678 
L 169.423681 246.756442 
L 172.406742 256.180632 
L 175.146289 264.191222 
L 178.129351 272.249378 
L 181.599444 280.974864 
L 185.860961 290.968963 
L 188.783144 297.270099 
L 192.192357 304.110571 
L 195.966844 311.052643 
L 200.106603 318.177281 
L 204.307242 324.875662 
L 207.107667 328.979525 
L 210.57776 333.697457 
L 215.874217 340.3944 
L 221.84034 347.385327 
L 225.919221 351.730205 
L 230.728647 356.432378 
L 237.79059 362.696671 
L 240.834531 365.000642 
L 249.235807 370.854943 
L 251.975354 372.573676 
L 255.26281 374.392715 
L 261.533328 377.696785 
L 266.890664 380.291262 
L 270.543393 381.862734 
L 275.109304 383.71793 
L 282.962671 386.646511 
L 301.104558 392.628336 
L 304.452893 393.521278 
L 310.540774 395.117043 
L 320.768415 397.970078 
L 324.542902 398.796458 
L 329.474086 399.758385 
L 331.787481 400.071978 
L 336.657786 400.458497 
L 340.188757 400.81734 
L 348.468276 401.786042 
L 353.521218 402.238923 
L 360.522281 403.12744 
L 366.427526 403.96684 
L 370.019376 404.497911 
L 375.49847 405.289603 
L 381.403715 406.228889 
L 389.074446 407.276565 
L 402.041633 408.811313 
L 418.296277 410.224528 
L 423.410097 410.65194 
L 429.071827 410.927735 
L 449.222715 411.357417 
L 453.788626 411.515494 
L 460.546175 411.731542 
L 467.547238 411.840686 
L 482.219033 411.687408 
L 490.863825 411.200197 
L 496.22116 410.93777 
L 504.318043 410.672933 
L 510.832076 410.427735 
L 522.338172 409.659758 
L 534.026905 409.603818 
L 540.784453 409.761328 
L 547.054971 410.042135 
L 553.386368 410.364153 
L 556.065036 410.445614 
L 567.63201 410.723787 
L 575.972408 410.672021 
L 584.982473 410.711476 
L 590.76596 410.799752 
L 620.779216 411.57392 
L 632.8941 411.355093 
L 638.007921 411.339365 
L 649.026986 411.243613 
L 656.088929 411.057 
L 660.472204 411.072614 
L 676.239817 411.492981 
L 687.806792 412.051434 
L 691.581278 412.140174 
L 696.451583 412.252301 
L 701.017494 412.457299 
L 712.462712 412.831232 
L 715.689289 412.984612 
L 730.604599 413.270935 
L 747.163636 413.116972 
L 747.163636 413.116972 
" clip-path="url(#p387b489db2)" style="fill: none; stroke: #1f77b4; stroke-width: 1.2; stroke-linecap: round"/>
   </g>
   <g id="line2d_44">
    <path d="M 138.436364 75.33 
L 139.471303 84.01477 
L 140.993274 94.843336 
L 142.819638 106.242938 
L 144.950397 118.167591 
L 147.385549 130.536913 
L 150.185975 143.565309 
L 153.047279 155.750208 
L 156.212978 168.217159 
L 159.500434 180.256255 
L 162.909647 191.928064 
L 166.501497 203.437968 
L 170.032469 214.072257 
L 173.441682 223.689511 
L 177.216169 233.600265 
L 181.112413 243.038996 
L 184.8869 251.595734 
L 188.47875 259.281396 
L 192.862024 268.124449 
L 198.036724 277.925608 
L 202.115604 285.183596 
L 205.95097 291.600482 
L 210.699517 299.059056 
L 214.230489 304.174336 
L 218.674642 310.242851 
L 222.510007 315.230913 
L 228.415252 322.517767 
L 233.589952 328.387102 
L 237.364438 332.291644 
L 242.660895 337.458556 
L 246.130988 340.577698 
L 252.036233 345.530231 
L 258.428508 350.507756 
L 264.759905 355.049 
L 274.135243 361.458291 
L 278.153244 363.909286 
L 284.667278 367.624132 
L 288.685279 369.706724 
L 295.442828 373.06743 
L 304.331135 377.010426 
L 309.444955 378.964535 
L 320.281385 382.716853 
L 330.691662 385.703928 
L 347.372457 389.777798 
L 359.609099 392.441418 
L 365.879617 393.805623 
L 374.585288 395.655516 
L 388.100385 398.09871 
L 398.815056 399.782769 
L 407.094575 400.961512 
L 416.043761 402.237078 
L 420.427035 402.840664 
L 424.384158 403.24067 
L 435.220588 404.109742 
L 440.821439 404.569418 
L 444.35241 404.719765 
L 466.147026 405.264638 
L 481.427608 406.124731 
L 487.576369 406.506828 
L 494.273038 406.761647 
L 498.717192 407.044723 
L 518.563685 408.532103 
L 526.173537 409.246649 
L 534.209541 409.835775 
L 549.733639 410.631018 
L 556.430308 411.005687 
L 601.541511 413.044333 
L 609.821029 413.237833 
L 624.431945 413.36816 
L 636.242435 413.21663 
L 642.878226 412.871849 
L 677.518272 410.689622 
L 685.615154 410.055788 
L 697.730038 409.324074 
L 713.132379 408.805133 
L 719.585533 408.845414 
L 726.221324 409.033326 
L 730.361083 409.162595 
L 739.858179 409.232789 
L 747.163636 409.171422 
L 747.163636 409.171422 
" clip-path="url(#p387b489db2)" style="fill: none; stroke: #d62728; stroke-width: 1.2; stroke-linecap: round"/>
   </g>
   <g id="patch_3">
    <path d="M 108 432.54 
L 108 58.32 
" style="fill: none; stroke: #000000; stroke-linejoin: miter; stroke-linecap: square"/>
   </g>
   <g id="patch_4">
    <path d="M 777.6 432.54 
L 777.6 58.32 
" style="fill: none; stroke: #000000; stroke-linejoin: miter; stroke-linecap: square"/>
   </g>
   <g id="patch_5">
    <path d="M 108 432.54 
L 777.6 432.54 
" style="fill: none; stroke: #000000; stroke-linejoin: miter; stroke-linecap: square"/>
   </g>
   <g id="patch_6">
    <path d="M 108 58.32 
L 777.6 58.32 
" style="fill: none; stroke: #000000; stroke-linejoin: miter; stroke-linecap: square"/>
   </g>
   <g id="text_15">
    <!-- Autocorrelation function -->
    <g style="fill: #262626" transform="translate(363.62556 52.32) scale(0.16 -0.16)">
     <defs>
      <path id="CMSS17-75" d="M 2618 2752 
L 2131 2752 
L 2131 976 
C 2131 500 1786 307 1421 307 
C 998 307 960 448 960 712 
L 960 2752 
L 474 2752 
L 474 680 
C 474 179 646 -64 1088 -64 
C 1306 -64 1798 -13 2144 307 
L 2144 -13 
L 2618 -13 
L 2618 2752 
z
" transform="scale(0.015625)"/>
      <path id="CMSS17-74" d="M 1069 2380 
L 1901 2380 
L 1901 2752 
L 1069 2752 
L 1069 3520 
L 614 3520 
L 614 2752 
L 109 2752 
L 109 2380 
L 602 2380 
L 602 751 
C 602 384 685 -64 1107 -64 
C 1427 -64 1722 25 2003 172 
L 1901 551 
C 1747 416 1562 339 1363 339 
C 1082 339 1069 699 1069 860 
L 1069 2380 
z
" transform="scale(0.015625)"/>
      <path id="CMSS17-6f" d="M 2829 1356 
C 2829 2175 2221 2816 1504 2816 
C 768 2816 173 2156 173 1356 
C 173 544 787 -64 1498 -64 
C 2227 -64 2829 563 2829 1356 
z
M 1504 339 
C 1050 339 659 710 659 1407 
C 659 2150 1114 2425 1498 2425 
C 1914 2425 2342 2124 2342 1407 
C 2342 684 1926 339 1504 339 
z
" transform="scale(0.015625)"/>
      <path id="CMSS17-63" d="M 2464 2540 
C 2464 2585 2170 2713 2093 2739 
C 1882 2816 1613 2816 1542 2816 
C 710 2816 211 2092 211 1363 
C 211 595 768 -64 1517 -64 
C 1946 -64 2253 76 2502 243 
L 2464 665 
C 2189 454 1869 339 1523 339 
C 1024 339 698 774 698 1369 
C 698 1830 909 2412 1549 2412 
C 1901 2412 2099 2342 2394 2143 
L 2464 2540 
z
" transform="scale(0.015625)"/>
      <path id="CMSS17-72" d="M 954 1369 
C 954 1974 1395 2379 1958 2392 
L 1958 2816 
C 1549 2809 1165 2604 934 2270 
L 934 2783 
L 480 2783 
L 480 0 
L 954 0 
L 954 1369 
z
" transform="scale(0.015625)"/>
      <path id="CMSS17-65" d="M 2502 1375 
C 2502 1587 2490 2001 2285 2347 
C 2061 2713 1696 2816 1421 2816 
C 755 2816 192 2184 192 1363 
C 192 579 774 -64 1510 -64 
C 1798 -64 2150 19 2470 249 
C 2470 275 2458 414 2451 421 
C 2451 433 2432 629 2432 655 
C 2125 408 1773 326 1517 326 
C 1107 326 666 667 646 1375 
L 2502 1375 
z
M 698 1728 
C 781 2086 1062 2425 1421 2425 
C 1517 2425 1965 2412 2080 1728 
L 698 1728 
z
" transform="scale(0.015625)"/>
      <path id="CMSS17-69" d="M 979 4224 
L 442 4224 
L 442 3686 
L 979 3686 
L 979 4224 
z
M 947 2752 
L 474 2752 
L 474 0 
L 947 0 
L 947 2752 
z
" transform="scale(0.015625)"/>
      <path id="CMSS17-6e" d="M 2618 1878 
C 2618 2283 2522 2816 1798 2816 
C 1389 2816 1120 2604 941 2386 
L 941 2783 
L 474 2783 
L 474 0 
L 960 0 
L 960 1556 
C 960 1962 1114 2425 1549 2425 
C 2112 2425 2131 2045 2131 1826 
L 2131 0 
L 2618 0 
L 2618 1878 
z
" transform="scale(0.015625)"/>
      <path id="CMSS17-66" d="M 1075 2380 
L 1722 2380 
L 1722 2752 
L 1062 2752 
L 1062 3563 
C 1062 4013 1408 4089 1606 4089 
C 1670 4089 1850 4089 2080 4007 
L 2080 4428 
C 1933 4460 1754 4480 1613 4480 
C 1018 4480 602 3994 602 3366 
L 602 2752 
L 160 2752 
L 160 2380 
L 602 2380 
L 602 0 
L 1075 0 
L 1075 2380 
z
" transform="scale(0.015625)"/>
     </defs>
     <use xlink:href="#CMSS17-41" transform="scale(0.996264)"/>
     <use xlink:href="#CMSS17-75" transform="translate(62.217855 0) scale(0.996264)"/>
     <use xlink:href="#CMSS17-74" transform="translate(110.422798 0) scale(0.996264)"/>
     <use xlink:href="#CMSS17-6f" transform="translate(144.254365 0) scale(0.996264)"/>
     <use xlink:href="#CMSS17-63" transform="translate(193.700427 0) scale(0.996264)"/>
     <use xlink:href="#CMSS17-6f" transform="translate(235.339249 0) scale(0.996264)"/>
     <use xlink:href="#CMSS17-72" transform="translate(279.580419 0) scale(0.996264)"/>
     <use xlink:href="#CMSS17-72" transform="translate(311.490191 0) scale(0.996264)"/>
     <use xlink:href="#CMSS17-65" transform="translate(343.399964 0) scale(0.996264)"/>
     <use xlink:href="#CMSS17-6c" transform="translate(385.038786 0) scale(0.996264)"/>
     <use xlink:href="#CMSS17-61" transform="translate(407.219509 0) scale(0.996264)"/>
     <use xlink:href="#CMSS17-74" transform="translate(452.141429 0) scale(0.996264)"/>
     <use xlink:href="#CMSS17-69" transform="translate(485.972996 0) scale(0.996264)"/>
     <use xlink:href="#CMSS17-6f" transform="translate(508.153719 0) scale(0.996264)"/>
     <use xlink:href="#CMSS17-6e" transform="translate(554.997343 0) scale(0.996264)"/>
     <use xlink:href="#CMSS17-66" transform="translate(634.431399 0) scale(0.996264)"/>
     <use xlink:href="#CMSS17-75" transform="translate(663.058057 0) scale(0.996264)"/>
     <use xlink:href="#CMSS17-6e" transform="translate(711.263001 0) scale(0.996264)"/>
     <use xlink:href="#CMSS17-63" transform="translate(759.467944 0) scale(0.996264)"/>
     <use xlink:href="#CMSS17-74" transform="translate(801.106766 0) scale(0.996264)"/>
     <use xlink:href="#CMSS17-69" transform="translate(834.938332 0) scale(0.996264)"/>
     <use xlink:href="#CMSS17-6f" transform="translate(857.119055 0) scale(0.996264)"/>
     <use xlink:href="#CMSS17-6e" transform="translate(903.962679 0) scale(0.996264)"/>
    </g>
   </g>
   <g id="legend_1">
    <g id="patch_7">
     <path d="M 680.743925 225.616227 
L 767.8 225.616227 
Q 770.6 225.616227 770.6 222.816227 
L 770.6 68.12 
Q 770.6 65.32 767.8 65.32 
L 680.743925 65.32 
Q 677.943925 65.32 677.943925 68.12 
L 677.943925 222.816227 
Q 677.943925 225.616227 680.743925 225.616227 
z
" style="fill: #ffffff; opacity: 0.8; stroke: #cccccc; stroke-width: 0.8; stroke-linejoin: miter"/>
    </g>
    <g id="line2d_45">
     <path d="M 683.543925 75.82 
L 697.543925 75.82 
L 711.543925 75.82 
" style="fill: none; stroke: #9467bd; stroke-width: 2; stroke-linecap: round"/>
    </g>
    <g id="text_16">
     <!-- $j = 0.5$ -->
     <g style="fill: #262626" transform="translate(722.743925 80.72) scale(0.14 -0.14)">
      <defs>
       <path id="CMMI12-6a" d="M 2240 2027 
C 2266 2129 2266 2218 2266 2243 
C 2266 2611 1990 2816 1702 2816 
C 1056 2816 710 1888 710 1843 
C 710 1811 736 1786 774 1786 
C 826 1786 832 1811 864 1875 
C 1120 2491 1440 2687 1683 2687 
C 1818 2687 1888 2617 1888 2395 
C 1888 2243 1869 2180 1843 2065 
L 1235 -327 
C 1114 -797 813 -1152 461 -1152 
C 435 -1152 301 -1152 179 -1089 
C 333 -1057 454 -937 454 -784 
C 454 -683 378 -581 237 -581 
C 70 -581 -83 -721 -83 -911 
C -83 -1172 198 -1280 461 -1280 
C 902 -1280 1485 -956 1645 -321 
L 2240 2027 
z
M 2502 4012 
C 2502 4172 2368 4224 2291 4224 
C 2118 4224 1971 4057 1971 3916 
C 1971 3820 2048 3705 2189 3705 
C 2336 3705 2502 3846 2502 4012 
z
" transform="scale(0.015625)"/>
       <path id="CMR17-3d" d="M 4115 2048 
C 4211 2048 4307 2048 4307 2156 
C 4307 2272 4198 2272 4090 2272 
L 512 2272 
C 403 2272 294 2272 294 2156 
C 294 2048 390 2048 486 2048 
L 4115 2048 
z
M 4090 927 
C 4198 927 4307 927 4307 1043 
C 4307 1152 4211 1152 4115 1152 
L 486 1152 
C 390 1152 294 1152 294 1043 
C 294 927 403 927 512 927 
L 4090 927 
z
" transform="scale(0.015625)"/>
       <path id="CMR17-35" d="M 730 3750 
C 794 3724 1056 3641 1325 3641 
C 1920 3641 2246 3961 2432 4140 
C 2432 4191 2432 4224 2394 4224 
C 2387 4224 2374 4224 2323 4198 
C 2099 4102 1837 4032 1517 4032 
C 1325 4032 1037 4055 723 4191 
C 653 4224 640 4224 634 4224 
C 602 4224 595 4217 595 4090 
L 595 2231 
C 595 2113 595 2080 659 2080 
C 691 2080 704 2093 736 2139 
C 941 2435 1222 2560 1542 2560 
C 1766 2560 2246 2415 2246 1293 
C 2246 1087 2246 716 2054 422 
C 1894 159 1645 25 1370 25 
C 947 25 518 319 403 812 
C 429 806 480 793 506 793 
C 589 793 749 838 749 1036 
C 749 1209 627 1280 506 1280 
C 358 1280 262 1190 262 1011 
C 262 454 704 -128 1382 -128 
C 2042 -128 2669 441 2669 1267 
C 2669 2054 2170 2662 1549 2662 
C 1222 2662 947 2540 730 2304 
L 730 3750 
z
" transform="scale(0.015625)"/>
      </defs>
      <use xlink:href="#CMMI12-6a" transform="scale(0.996264)"/>
      <use xlink:href="#CMR17-3d" transform="translate(73.636491 0) scale(0.996264)"/>
      <use xlink:href="#CMR17-30" transform="translate(173.025288 0) scale(0.996264)"/>
      <use xlink:href="#CMMI12-3a" transform="translate(218.715766 0) scale(0.996264)"/>
      <use xlink:href="#CMR17-35" transform="translate(245.812943 0) scale(0.996264)"/>
     </g>
    </g>
    <g id="line2d_46">
     <path d="M 683.543925 95.332028 
L 697.543925 95.332028 
L 711.543925 95.332028 
" style="fill: none; stroke: #ff7f0e; stroke-width: 1.2; stroke-linecap: round"/>
    </g>
    <g id="text_17">
     <!-- $j = 1$ -->
     <g style="fill: #262626" transform="translate(722.743925 100.232028) scale(0.14 -0.14)">
      <use xlink:href="#CMMI12-6a" transform="scale(0.996264)"/>
      <use xlink:href="#CMR17-3d" transform="translate(73.636491 0) scale(0.996264)"/>
      <use xlink:href="#CMR17-31" transform="translate(173.025288 0) scale(0.996264)"/>
     </g>
    </g>
    <g id="line2d_47">
     <path d="M 683.543925 114.844057 
L 697.543925 114.844057 
L 711.543925 114.844057 
" style="fill: none; stroke: #2ca02c; stroke-width: 1.2; stroke-linecap: round"/>
    </g>
    <g id="text_18">
     <!-- $j = 1.5$ -->
     <g style="fill: #262626" transform="translate(722.743925 119.744057) scale(0.14 -0.14)">
      <use xlink:href="#CMMI12-6a" transform="scale(0.996264)"/>
      <use xlink:href="#CMR17-3d" transform="translate(73.636491 0) scale(0.996264)"/>
      <use xlink:href="#CMR17-31" transform="translate(173.025288 0) scale(0.996264)"/>
      <use xlink:href="#CMMI12-3a" transform="translate(218.715766 0) scale(0.996264)"/>
      <use xlink:href="#CMR17-35" transform="translate(245.812943 0) scale(0.996264)"/>
     </g>
    </g>
    <g id="line2d_48">
     <path d="M 683.543925 134.356085 
L 697.543925 134.356085 
L 711.543925 134.356085 
" style="fill: none; stroke: #8c564b; stroke-width: 1.2; stroke-linecap: round"/>
    </g>
    <g id="text_19">
     <!-- $j = 2$ -->
     <g style="fill: #262626" transform="translate(722.743925 139.256085) scale(0.14 -0.14)">
      <use xlink:href="#CMMI12-6a" transform="scale(0.996264)"/>
      <use xlink:href="#CMR17-3d" transform="translate(73.636491 0) scale(0.996264)"/>
      <use xlink:href="#CMR17-32" transform="translate(173.025288 0) scale(0.996264)"/>
     </g>
    </g>
    <g id="line2d_49">
     <path d="M 683.543925 153.868114 
L 697.543925 153.868114 
L 711.543925 153.868114 
" style="fill: none; stroke: #e377c2; stroke-width: 1.2; stroke-linecap: round"/>
    </g>
    <g id="text_20">
     <!-- $j = 2.5$ -->
     <g style="fill: #262626" transform="translate(722.743925 158.768114) scale(0.14 -0.14)">
      <use xlink:href="#CMMI12-6a" transform="scale(0.996264)"/>
      <use xlink:href="#CMR17-3d" transform="translate(73.636491 0) scale(0.996264)"/>
      <use xlink:href="#CMR17-32" transform="translate(173.025288 0) scale(0.996264)"/>
      <use xlink:href="#CMMI12-3a" transform="translate(218.715766 0) scale(0.996264)"/>
      <use xlink:href="#CMR17-35" transform="translate(245.812943 0) scale(0.996264)"/>
     </g>
    </g>
    <g id="line2d_50">
     <path d="M 683.543925 173.380142 
L 697.543925 173.380142 
L 711.543925 173.380142 
" style="fill: none; stroke: #7f7f7f; stroke-width: 1.2; stroke-linecap: round"/>
    </g>
    <g id="text_21">
     <!-- $j = 3$ -->
     <g style="fill: #262626" transform="translate(722.743925 178.280142) scale(0.14 -0.14)">
      <defs>
       <path id="CMR17-33" d="M 1414 2176 
C 1984 2176 2234 1673 2234 1094 
C 2234 322 1824 25 1453 25 
C 1114 25 563 193 390 691 
C 422 678 454 678 486 678 
C 640 678 755 780 755 947 
C 755 1132 614 1216 486 1216 
C 378 1216 211 1164 211 927 
C 211 335 787 -128 1466 -128 
C 2176 -128 2720 432 2720 1087 
C 2720 1718 2208 2176 1600 2246 
C 2086 2347 2554 2776 2554 3353 
C 2554 3856 2048 4224 1472 4224 
C 890 4224 378 3862 378 3347 
C 378 3123 544 3084 627 3084 
C 762 3084 877 3167 877 3334 
C 877 3500 762 3584 627 3584 
C 602 3584 570 3584 544 3571 
C 730 3999 1235 4076 1459 4076 
C 1683 4076 2106 3966 2106 3347 
C 2106 3167 2080 2851 1862 2574 
C 1670 2329 1453 2316 1242 2297 
C 1210 2297 1062 2284 1037 2284 
C 992 2278 966 2272 966 2227 
C 966 2182 973 2176 1101 2176 
L 1414 2176 
z
" transform="scale(0.015625)"/>
      </defs>
      <use xlink:href="#CMMI12-6a" transform="scale(0.996264)"/>
      <use xlink:href="#CMR17-3d" transform="translate(73.636491 0) scale(0.996264)"/>
      <use xlink:href="#CMR17-33" transform="translate(173.025288 0) scale(0.996264)"/>
     </g>
    </g>
    <g id="line2d_51">
     <path d="M 683.543925 192.89217 
L 697.543925 192.89217 
L 711.543925 192.89217 
" style="fill: none; stroke: #1f77b4; stroke-width: 1.2; stroke-linecap: round"/>
    </g>
    <g id="text_22">
     <!-- $j = 3.5$ -->
     <g style="fill: #262626" transform="translate(722.743925 197.79217) scale(0.14 -0.14)">
      <use xlink:href="#CMMI12-6a" transform="scale(0.996264)"/>
      <use xlink:href="#CMR17-3d" transform="translate(73.636491 0) scale(0.996264)"/>
      <use xlink:href="#CMR17-33" transform="translate(173.025288 0) scale(0.996264)"/>
      <use xlink:href="#CMMI12-3a" transform="translate(218.715766 0) scale(0.996264)"/>
      <use xlink:href="#CMR17-35" transform="translate(245.812943 0) scale(0.996264)"/>
     </g>
    </g>
    <g id="line2d_52">
     <path d="M 683.543925 212.404199 
L 697.543925 212.404199 
L 711.543925 212.404199 
" style="fill: none; stroke: #d62728; stroke-width: 1.2; stroke-linecap: round"/>
    </g>
    <g id="text_23">
     <!-- $j = 4$ -->
     <g style="fill: #262626" transform="translate(722.743925 217.304199) scale(0.14 -0.14)">
      <use xlink:href="#CMMI12-6a" transform="scale(0.996264)"/>
      <use xlink:href="#CMR17-3d" transform="translate(73.636491 0) scale(0.996264)"/>
      <use xlink:href="#CMR17-34" transform="translate(173.025288 0) scale(0.996264)"/>
     </g>
    </g>
   </g>
  </g>
 </g>
 <defs>
  <clipPath id="p387b489db2">
   <rect x="108" y="58.32" width="669.6" height="374.22"/>
  </clipPath>
 </defs>
</svg>
