<?xml version="1.0" encoding="utf-8" standalone="no"?>
<!DOCTYPE svg PUBLIC "-//W3C//DTD SVG 1.1//EN"
  "http://www.w3.org/Graphics/SVG/1.1/DTD/svg11.dtd">
<svg xmlns:xlink="http://www.w3.org/1999/xlink" width="897.726152pt" height="422.155637pt" viewBox="0 0 897.726152 422.155637" xmlns="http://www.w3.org/2000/svg" version="1.1">
 <metadata>
  <rdf:RDF xmlns:dc="http://purl.org/dc/elements/1.1/" xmlns:cc="http://creativecommons.org/ns#" xmlns:rdf="http://www.w3.org/1999/02/22-rdf-syntax-ns#">
   <cc:Work>
    <dc:type rdf:resource="http://purl.org/dc/dcmitype/StillImage"/>
    <dc:date>2023-01-25T20:01:01.670713</dc:date>
    <dc:format>image/svg+xml</dc:format>
    <dc:creator>
     <cc:Agent>
      <dc:title>Matplotlib v3.6.2, https://matplotlib.org/</dc:title>
     </cc:Agent>
    </dc:creator>
   </cc:Work>
  </rdf:RDF>
 </metadata>
 <defs>
  <style type="text/css">*{stroke-linejoin: round; stroke-linecap: butt}</style>
 </defs>
 <g id="figure_1">
  <g id="patch_1">
   <path d="M 0 422.155637 
L 897.726152 422.155637 
L 897.726152 0 
L 0 0 
z
" style="fill: #ffffff"/>
  </g>
  <g id="axes_1">
   <g id="patch_2">
    <path d="M 62.166152 381.42 
L 731.766152 381.42 
L 731.766152 7.2 
L 62.166152 7.2 
z
" style="fill: #ffffff"/>
   </g>
   <g id="matplotlib.axis_1">
    <g id="xtick_1">
     <g id="line2d_1">
      <path d="M 92.602515 381.42 
L 92.602515 7.2 
" clip-path="url(#p085b207997)" style="fill: none; stroke: #e6e6e6; stroke-width: 0.8; stroke-linecap: round"/>
     </g>
     <g id="line2d_2">
      <defs>
       <path id="m7f4e341dd7" d="M 0 0 
L 0 -4.8 
" style="stroke: #262626"/>
      </defs>
      <g>
       <use xlink:href="#m7f4e341dd7" x="92.602515" y="381.42" style="fill: #262626; stroke: #262626"/>
      </g>
     </g>
     <g id="line2d_3">
      <defs>
       <path id="m4dfb7c5ec5" d="M 0 0 
L 0 4.8 
" style="stroke: #262626"/>
      </defs>
      <g>
       <use xlink:href="#m4dfb7c5ec5" x="92.602515" y="7.2" style="fill: #262626; stroke: #262626"/>
      </g>
     </g>
     <g id="text_1">
      <!-- $\mathdefault{0.5}$ -->
      <g style="fill: #262626" transform="translate(84.375835 394.052395) scale(0.132 -0.132)">
       <defs>
        <path id="CMR17-30" d="M 2688 2038 
C 2688 2430 2682 3099 2413 3613 
C 2176 4063 1798 4224 1466 4224 
C 1158 4224 768 4082 525 3620 
C 269 3137 243 2539 243 2038 
C 243 1671 250 1112 448 623 
C 723 -39 1216 -128 1466 -128 
C 1760 -128 2208 -7 2470 604 
C 2662 1048 2688 1568 2688 2038 
z
M 1466 -26 
C 1056 -26 813 328 723 816 
C 653 1196 653 1749 653 2109 
C 653 2604 653 3015 736 3407 
C 858 3954 1216 4121 1466 4121 
C 1728 4121 2067 3947 2189 3420 
C 2272 3054 2278 2623 2278 2109 
C 2278 1691 2278 1176 2202 797 
C 2067 96 1690 -26 1466 -26 
z
" transform="scale(0.015625)"/>
        <path id="CMMI12-3a" d="M 1178 307 
C 1178 492 1024 620 870 620 
C 685 620 557 467 557 313 
C 557 128 710 0 864 0 
C 1050 0 1178 153 1178 307 
z
" transform="scale(0.015625)"/>
        <path id="CMR17-35" d="M 730 3750 
C 794 3724 1056 3641 1325 3641 
C 1920 3641 2246 3961 2432 4140 
C 2432 4191 2432 4224 2394 4224 
C 2387 4224 2374 4224 2323 4198 
C 2099 4102 1837 4032 1517 4032 
C 1325 4032 1037 4055 723 4191 
C 653 4224 640 4224 634 4224 
C 602 4224 595 4217 595 4090 
L 595 2231 
C 595 2113 595 2080 659 2080 
C 691 2080 704 2093 736 2139 
C 941 2435 1222 2560 1542 2560 
C 1766 2560 2246 2415 2246 1293 
C 2246 1087 2246 716 2054 422 
C 1894 159 1645 25 1370 25 
C 947 25 518 319 403 812 
C 429 806 480 793 506 793 
C 589 793 749 838 749 1036 
C 749 1209 627 1280 506 1280 
C 358 1280 262 1190 262 1011 
C 262 454 704 -128 1382 -128 
C 2042 -128 2669 441 2669 1267 
C 2669 2054 2170 2662 1549 2662 
C 1222 2662 947 2540 730 2304 
L 730 3750 
z
" transform="scale(0.015625)"/>
       </defs>
       <use xlink:href="#CMR17-30" transform="scale(0.996264)"/>
       <use xlink:href="#CMMI12-3a" transform="translate(45.690477 0) scale(0.996264)"/>
       <use xlink:href="#CMR17-35" transform="translate(72.787654 0) scale(0.996264)"/>
      </g>
     </g>
    </g>
    <g id="xtick_2">
     <g id="line2d_4">
      <path d="M 179.563554 381.42 
L 179.563554 7.2 
" clip-path="url(#p085b207997)" style="fill: none; stroke: #e6e6e6; stroke-width: 0.8; stroke-linecap: round"/>
     </g>
     <g id="line2d_5">
      <g>
       <use xlink:href="#m7f4e341dd7" x="179.563554" y="381.42" style="fill: #262626; stroke: #262626"/>
      </g>
     </g>
     <g id="line2d_6">
      <g>
       <use xlink:href="#m4dfb7c5ec5" x="179.563554" y="7.2" style="fill: #262626; stroke: #262626"/>
      </g>
     </g>
     <g id="text_2">
      <!-- $\mathdefault{1.0}$ -->
      <g style="fill: #262626" transform="translate(171.336874 394.052395) scale(0.132 -0.132)">
       <defs>
        <path id="CMR17-31" d="M 1702 4083 
C 1702 4217 1696 4224 1606 4224 
C 1357 3927 979 3833 621 3820 
C 602 3820 570 3820 563 3808 
C 557 3795 557 3782 557 3648 
C 755 3648 1088 3686 1344 3839 
L 1344 467 
C 1344 243 1331 166 781 166 
L 589 166 
L 589 0 
C 896 6 1216 12 1523 12 
C 1830 12 2150 6 2458 0 
L 2458 166 
L 2266 166 
C 1715 166 1702 236 1702 467 
L 1702 4083 
z
" transform="scale(0.015625)"/>
       </defs>
       <use xlink:href="#CMR17-31" transform="scale(0.996264)"/>
       <use xlink:href="#CMMI12-3a" transform="translate(45.690477 0) scale(0.996264)"/>
       <use xlink:href="#CMR17-30" transform="translate(72.787654 0) scale(0.996264)"/>
      </g>
     </g>
    </g>
    <g id="xtick_3">
     <g id="line2d_7">
      <path d="M 266.524593 381.42 
L 266.524593 7.2 
" clip-path="url(#p085b207997)" style="fill: none; stroke: #e6e6e6; stroke-width: 0.8; stroke-linecap: round"/>
     </g>
     <g id="line2d_8">
      <g>
       <use xlink:href="#m7f4e341dd7" x="266.524593" y="381.42" style="fill: #262626; stroke: #262626"/>
      </g>
     </g>
     <g id="line2d_9">
      <g>
       <use xlink:href="#m4dfb7c5ec5" x="266.524593" y="7.2" style="fill: #262626; stroke: #262626"/>
      </g>
     </g>
     <g id="text_3">
      <!-- $\mathdefault{1.5}$ -->
      <g style="fill: #262626" transform="translate(258.297913 394.052395) scale(0.132 -0.132)">
       <use xlink:href="#CMR17-31" transform="scale(0.996264)"/>
       <use xlink:href="#CMMI12-3a" transform="translate(45.690477 0) scale(0.996264)"/>
       <use xlink:href="#CMR17-35" transform="translate(72.787654 0) scale(0.996264)"/>
      </g>
     </g>
    </g>
    <g id="xtick_4">
     <g id="line2d_10">
      <path d="M 353.485632 381.42 
L 353.485632 7.2 
" clip-path="url(#p085b207997)" style="fill: none; stroke: #e6e6e6; stroke-width: 0.8; stroke-linecap: round"/>
     </g>
     <g id="line2d_11">
      <g>
       <use xlink:href="#m7f4e341dd7" x="353.485632" y="381.42" style="fill: #262626; stroke: #262626"/>
      </g>
     </g>
     <g id="line2d_12">
      <g>
       <use xlink:href="#m4dfb7c5ec5" x="353.485632" y="7.2" style="fill: #262626; stroke: #262626"/>
      </g>
     </g>
     <g id="text_4">
      <!-- $\mathdefault{2.0}$ -->
      <g style="fill: #262626" transform="translate(345.258952 394.052395) scale(0.132 -0.132)">
       <defs>
        <path id="CMR17-32" d="M 2669 990 
L 2554 990 
C 2490 537 2438 460 2413 422 
C 2381 371 1920 371 1830 371 
L 602 371 
C 832 620 1280 1073 1824 1596 
C 2214 1966 2669 2400 2669 3033 
C 2669 3788 2067 4224 1395 4224 
C 691 4224 262 3603 262 3027 
C 262 2777 448 2745 525 2745 
C 589 2745 781 2783 781 3007 
C 781 3206 614 3264 525 3264 
C 486 3264 448 3257 422 3244 
C 544 3788 915 4057 1306 4057 
C 1862 4057 2227 3616 2227 3033 
C 2227 2477 1901 1998 1536 1583 
L 262 147 
L 262 0 
L 2515 0 
L 2669 990 
z
" transform="scale(0.015625)"/>
       </defs>
       <use xlink:href="#CMR17-32" transform="scale(0.996264)"/>
       <use xlink:href="#CMMI12-3a" transform="translate(45.690477 0) scale(0.996264)"/>
       <use xlink:href="#CMR17-30" transform="translate(72.787654 0) scale(0.996264)"/>
      </g>
     </g>
    </g>
    <g id="xtick_5">
     <g id="line2d_13">
      <path d="M 440.446671 381.42 
L 440.446671 7.2 
" clip-path="url(#p085b207997)" style="fill: none; stroke: #e6e6e6; stroke-width: 0.8; stroke-linecap: round"/>
     </g>
     <g id="line2d_14">
      <g>
       <use xlink:href="#m7f4e341dd7" x="440.446671" y="381.42" style="fill: #262626; stroke: #262626"/>
      </g>
     </g>
     <g id="line2d_15">
      <g>
       <use xlink:href="#m4dfb7c5ec5" x="440.446671" y="7.2" style="fill: #262626; stroke: #262626"/>
      </g>
     </g>
     <g id="text_5">
      <!-- $\mathdefault{2.5}$ -->
      <g style="fill: #262626" transform="translate(432.219991 394.052395) scale(0.132 -0.132)">
       <use xlink:href="#CMR17-32" transform="scale(0.996264)"/>
       <use xlink:href="#CMMI12-3a" transform="translate(45.690477 0) scale(0.996264)"/>
       <use xlink:href="#CMR17-35" transform="translate(72.787654 0) scale(0.996264)"/>
      </g>
     </g>
    </g>
    <g id="xtick_6">
     <g id="line2d_16">
      <path d="M 527.40771 381.42 
L 527.40771 7.2 
" clip-path="url(#p085b207997)" style="fill: none; stroke: #e6e6e6; stroke-width: 0.8; stroke-linecap: round"/>
     </g>
     <g id="line2d_17">
      <g>
       <use xlink:href="#m7f4e341dd7" x="527.40771" y="381.42" style="fill: #262626; stroke: #262626"/>
      </g>
     </g>
     <g id="line2d_18">
      <g>
       <use xlink:href="#m4dfb7c5ec5" x="527.40771" y="7.2" style="fill: #262626; stroke: #262626"/>
      </g>
     </g>
     <g id="text_6">
      <!-- $\mathdefault{3.0}$ -->
      <g style="fill: #262626" transform="translate(519.18103 394.052395) scale(0.132 -0.132)">
       <defs>
        <path id="CMR17-33" d="M 1414 2176 
C 1984 2176 2234 1673 2234 1094 
C 2234 322 1824 25 1453 25 
C 1114 25 563 193 390 691 
C 422 678 454 678 486 678 
C 640 678 755 780 755 947 
C 755 1132 614 1216 486 1216 
C 378 1216 211 1164 211 927 
C 211 335 787 -128 1466 -128 
C 2176 -128 2720 432 2720 1087 
C 2720 1718 2208 2176 1600 2246 
C 2086 2347 2554 2776 2554 3353 
C 2554 3856 2048 4224 1472 4224 
C 890 4224 378 3862 378 3347 
C 378 3123 544 3084 627 3084 
C 762 3084 877 3167 877 3334 
C 877 3500 762 3584 627 3584 
C 602 3584 570 3584 544 3571 
C 730 3999 1235 4076 1459 4076 
C 1683 4076 2106 3966 2106 3347 
C 2106 3167 2080 2851 1862 2574 
C 1670 2329 1453 2316 1242 2297 
C 1210 2297 1062 2284 1037 2284 
C 992 2278 966 2272 966 2227 
C 966 2182 973 2176 1101 2176 
L 1414 2176 
z
" transform="scale(0.015625)"/>
       </defs>
       <use xlink:href="#CMR17-33" transform="scale(0.996264)"/>
       <use xlink:href="#CMMI12-3a" transform="translate(45.690477 0) scale(0.996264)"/>
       <use xlink:href="#CMR17-30" transform="translate(72.787654 0) scale(0.996264)"/>
      </g>
     </g>
    </g>
    <g id="xtick_7">
     <g id="line2d_19">
      <path d="M 614.368749 381.42 
L 614.368749 7.2 
" clip-path="url(#p085b207997)" style="fill: none; stroke: #e6e6e6; stroke-width: 0.8; stroke-linecap: round"/>
     </g>
     <g id="line2d_20">
      <g>
       <use xlink:href="#m7f4e341dd7" x="614.368749" y="381.42" style="fill: #262626; stroke: #262626"/>
      </g>
     </g>
     <g id="line2d_21">
      <g>
       <use xlink:href="#m4dfb7c5ec5" x="614.368749" y="7.2" style="fill: #262626; stroke: #262626"/>
      </g>
     </g>
     <g id="text_7">
      <!-- $\mathdefault{3.5}$ -->
      <g style="fill: #262626" transform="translate(606.142069 394.052395) scale(0.132 -0.132)">
       <use xlink:href="#CMR17-33" transform="scale(0.996264)"/>
       <use xlink:href="#CMMI12-3a" transform="translate(45.690477 0) scale(0.996264)"/>
       <use xlink:href="#CMR17-35" transform="translate(72.787654 0) scale(0.996264)"/>
      </g>
     </g>
    </g>
    <g id="xtick_8">
     <g id="line2d_22">
      <path d="M 701.329788 381.42 
L 701.329788 7.2 
" clip-path="url(#p085b207997)" style="fill: none; stroke: #e6e6e6; stroke-width: 0.8; stroke-linecap: round"/>
     </g>
     <g id="line2d_23">
      <g>
       <use xlink:href="#m7f4e341dd7" x="701.329788" y="381.42" style="fill: #262626; stroke: #262626"/>
      </g>
     </g>
     <g id="line2d_24">
      <g>
       <use xlink:href="#m4dfb7c5ec5" x="701.329788" y="7.2" style="fill: #262626; stroke: #262626"/>
      </g>
     </g>
     <g id="text_8">
      <!-- $\mathdefault{4.0}$ -->
      <g style="fill: #262626" transform="translate(693.103108 394.052395) scale(0.132 -0.132)">
       <defs>
        <path id="CMR17-34" d="M 2150 4147 
C 2150 4281 2144 4288 2029 4288 
L 128 1254 
L 128 1088 
L 1779 1088 
L 1779 460 
C 1779 230 1766 166 1318 166 
L 1197 166 
L 1197 0 
C 1402 12 1747 12 1965 12 
C 2182 12 2528 12 2733 0 
L 2733 166 
L 2611 166 
C 2163 166 2150 230 2150 460 
L 2150 1088 
L 2803 1088 
L 2803 1254 
L 2150 1254 
L 2150 4147 
z
M 1798 3723 
L 1798 1254 
L 256 1254 
L 1798 3723 
z
" transform="scale(0.015625)"/>
       </defs>
       <use xlink:href="#CMR17-34" transform="scale(0.996264)"/>
       <use xlink:href="#CMMI12-3a" transform="translate(45.690477 0) scale(0.996264)"/>
       <use xlink:href="#CMR17-30" transform="translate(72.787654 0) scale(0.996264)"/>
      </g>
     </g>
    </g>
    <g id="text_9">
     <!-- boundary spin ($j$) -->
     <g style="fill: #262626" transform="translate(345.074708 411.369095) scale(0.144 -0.144)">
      <defs>
       <path id="CMSS17-62" d="M 954 4416 
L 480 4416 
L 480 -13 
L 966 -13 
L 966 275 
C 1210 38 1504 -64 1766 -64 
C 2381 -64 2880 559 2880 1382 
C 2880 2133 2496 2816 1926 2816 
C 1523 2816 1165 2649 954 2476 
L 954 4416 
z
M 966 2095 
C 1107 2276 1306 2425 1587 2425 
C 1965 2425 2394 2146 2394 1382 
C 2394 566 1882 326 1530 326 
C 1402 326 1267 358 1139 468 
C 966 624 966 721 966 812 
L 966 2095 
z
" transform="scale(0.015625)"/>
       <path id="CMSS17-6f" d="M 2829 1356 
C 2829 2175 2221 2816 1504 2816 
C 768 2816 173 2156 173 1356 
C 173 544 787 -64 1498 -64 
C 2227 -64 2829 563 2829 1356 
z
M 1504 339 
C 1050 339 659 710 659 1407 
C 659 2150 1114 2425 1498 2425 
C 1914 2425 2342 2124 2342 1407 
C 2342 684 1926 339 1504 339 
z
" transform="scale(0.015625)"/>
       <path id="CMSS17-75" d="M 2618 2752 
L 2131 2752 
L 2131 976 
C 2131 500 1786 307 1421 307 
C 998 307 960 448 960 712 
L 960 2752 
L 474 2752 
L 474 680 
C 474 179 646 -64 1088 -64 
C 1306 -64 1798 -13 2144 307 
L 2144 -13 
L 2618 -13 
L 2618 2752 
z
" transform="scale(0.015625)"/>
       <path id="CMSS17-6e" d="M 2618 1878 
C 2618 2283 2522 2816 1798 2816 
C 1389 2816 1120 2604 941 2386 
L 941 2783 
L 474 2783 
L 474 0 
L 960 0 
L 960 1556 
C 960 1962 1114 2425 1549 2425 
C 2112 2425 2131 2045 2131 1826 
L 2131 0 
L 2618 0 
L 2618 1878 
z
" transform="scale(0.015625)"/>
       <path id="CMSS17-64" d="M 2611 4416 
L 2138 4416 
L 2138 2495 
C 1939 2662 1613 2816 1254 2816 
C 672 2816 211 2179 211 1375 
C 211 572 666 -64 1235 -64 
C 1677 -64 1971 172 2125 307 
L 2125 -13 
L 2611 -13 
L 2611 4416 
z
M 2125 851 
C 2125 760 2125 663 1926 488 
C 1798 378 1645 326 1498 326 
C 1152 326 698 585 698 1369 
C 698 2185 1210 2425 1562 2425 
C 1798 2425 1990 2308 2125 2114 
L 2125 851 
z
" transform="scale(0.015625)"/>
       <path id="CMSS17-61" d="M 2406 1789 
C 2406 2399 1978 2816 1402 2816 
C 1120 2816 813 2764 461 2559 
L 499 2133 
C 659 2250 934 2438 1395 2438 
C 1722 2438 1920 2185 1920 1782 
L 1920 1536 
C 896 1504 256 1209 256 711 
C 256 452 416 -64 947 -64 
C 1043 -64 1562 -52 1933 224 
L 1933 -13 
L 2406 -13 
L 2406 1789 
z
M 1920 824 
C 1920 711 1920 559 1728 446 
C 1562 339 1350 326 1261 326 
C 941 326 723 503 723 723 
C 723 1165 1722 1209 1920 1216 
L 1920 824 
z
" transform="scale(0.015625)"/>
       <path id="CMSS17-72" d="M 954 1369 
C 954 1974 1395 2379 1958 2392 
L 1958 2816 
C 1549 2809 1165 2604 934 2270 
L 934 2783 
L 480 2783 
L 480 0 
L 954 0 
L 954 1369 
z
" transform="scale(0.015625)"/>
       <path id="CMSS17-79" d="M 2675 2752 
L 2176 2752 
C 1632 1293 1446 701 1434 383 
L 1427 383 
C 1408 695 1126 1459 902 2006 
L 602 2752 
L 83 2752 
L 1216 14 
C 1146 -177 1043 -464 1011 -527 
C 870 -884 774 -884 672 -884 
C 646 -884 442 -877 211 -807 
L 250 -1229 
C 410 -1261 570 -1280 685 -1280 
C 845 -1280 1165 -1280 1459 -495 
L 2675 2752 
z
" transform="scale(0.015625)"/>
       <path id="CMSS17-73" d="M 2061 2623 
C 1683 2803 1389 2816 1197 2816 
C 742 2816 198 2655 198 2009 
C 198 1363 902 1222 1094 1183 
C 1389 1126 1715 1062 1715 742 
C 1715 339 1254 339 1171 339 
C 915 339 563 409 243 639 
L 166 211 
C 531 0 883 -64 1178 -64 
C 1965 -64 2163 416 2163 780 
C 2163 1094 1984 1305 1862 1401 
C 1651 1567 1574 1587 1050 1695 
C 960 1708 646 1779 646 2067 
C 646 2431 1050 2431 1139 2431 
C 1555 2431 1811 2303 1984 2207 
L 2061 2623 
z
" transform="scale(0.015625)"/>
       <path id="CMSS17-70" d="M 966 275 
C 1178 70 1466 -64 1773 -64 
C 2368 -64 2880 553 2880 1382 
C 2880 2147 2496 2816 1946 2816 
C 1626 2816 1242 2700 954 2470 
L 954 2764 
L 480 2764 
L 480 -1280 
L 966 -1280 
L 966 275 
z
M 966 2088 
C 1018 2166 1235 2412 1587 2412 
C 2035 2412 2394 1946 2394 1382 
C 2394 741 1958 326 1530 326 
C 1402 326 1267 358 1139 468 
C 966 624 966 721 966 812 
L 966 2088 
z
" transform="scale(0.015625)"/>
       <path id="CMSS17-69" d="M 979 4224 
L 442 4224 
L 442 3686 
L 979 3686 
L 979 4224 
z
M 947 2752 
L 474 2752 
L 474 0 
L 947 0 
L 947 2752 
z
" transform="scale(0.015625)"/>
       <path id="CMSS17-28" d="M 1613 4800 
C 1267 4447 474 3627 474 1603 
C 474 -428 1267 -1242 1613 -1600 
L 2003 -1600 
C 1216 -781 960 366 960 1596 
C 960 2820 1203 3973 2003 4800 
L 1613 4800 
z
" transform="scale(0.015625)"/>
       <path id="CMMI12-6a" d="M 2240 2027 
C 2266 2129 2266 2218 2266 2243 
C 2266 2611 1990 2816 1702 2816 
C 1056 2816 710 1888 710 1843 
C 710 1811 736 1786 774 1786 
C 826 1786 832 1811 864 1875 
C 1120 2491 1440 2687 1683 2687 
C 1818 2687 1888 2617 1888 2395 
C 1888 2243 1869 2180 1843 2065 
L 1235 -327 
C 1114 -797 813 -1152 461 -1152 
C 435 -1152 301 -1152 179 -1089 
C 333 -1057 454 -937 454 -784 
C 454 -683 378 -581 237 -581 
C 70 -581 -83 -721 -83 -911 
C -83 -1172 198 -1280 461 -1280 
C 902 -1280 1485 -956 1645 -321 
L 2240 2027 
z
M 2502 4012 
C 2502 4172 2368 4224 2291 4224 
C 2118 4224 1971 4057 1971 3916 
C 1971 3820 2048 3705 2189 3705 
C 2336 3705 2502 3846 2502 4012 
z
" transform="scale(0.015625)"/>
       <path id="CMSS17-29" d="M 723 -1600 
C 1069 -1248 1862 -428 1862 1596 
C 1862 3627 1069 4440 723 4800 
L 333 4800 
C 1120 3979 1376 2833 1376 1603 
C 1376 379 1133 -774 333 -1600 
L 723 -1600 
z
" transform="scale(0.015625)"/>
      </defs>
      <use xlink:href="#CMSS17-62" transform="scale(0.996264)"/>
      <use xlink:href="#CMSS17-6f" transform="translate(50.807382 0) scale(0.996264)"/>
      <use xlink:href="#CMSS17-75" transform="translate(97.651005 0) scale(0.996264)"/>
      <use xlink:href="#CMSS17-6e" transform="translate(145.855949 0) scale(0.996264)"/>
      <use xlink:href="#CMSS17-64" transform="translate(194.060892 0) scale(0.996264)"/>
      <use xlink:href="#CMSS17-61" transform="translate(242.265835 0) scale(0.996264)"/>
      <use xlink:href="#CMSS17-72" transform="translate(284.585301 0) scale(0.996264)"/>
      <use xlink:href="#CMSS17-79" transform="translate(316.495074 0) scale(0.996264)"/>
      <use xlink:href="#CMSS17-73" transform="translate(390.724328 0) scale(0.996264)"/>
      <use xlink:href="#CMSS17-70" transform="translate(426.63787 0) scale(0.996264)"/>
      <use xlink:href="#CMSS17-69" transform="translate(474.842814 0) scale(0.996264)"/>
      <use xlink:href="#CMSS17-6e" transform="translate(497.023537 0) scale(0.996264)"/>
      <use xlink:href="#CMSS17-28" transform="translate(576.457592 0) scale(0.996264)"/>
      <use xlink:href="#CMMI12-6a" transform="translate(612.891507 0) scale(0.996264)"/>
      <use xlink:href="#CMSS17-29" transform="translate(658.853989 0) scale(0.996264)"/>
     </g>
    </g>
   </g>
   <g id="matplotlib.axis_2">
    <g id="ytick_1">
     <g id="line2d_25">
      <path d="M 62.166152 380.476502 
L 731.766152 380.476502 
" clip-path="url(#p085b207997)" style="fill: none; stroke: #e6e6e6; stroke-width: 0.8; stroke-linecap: round"/>
     </g>
     <g id="line2d_26">
      <defs>
       <path id="mfac21ba71b" d="M 0 0 
L 4.8 0 
" style="stroke: #262626"/>
      </defs>
      <g>
       <use xlink:href="#mfac21ba71b" x="62.166152" y="380.476502" style="fill: #262626; stroke: #262626"/>
      </g>
     </g>
     <g id="line2d_27">
      <defs>
       <path id="md796af17e5" d="M 0 0 
L -4.8 0 
" style="stroke: #262626"/>
      </defs>
      <g>
       <use xlink:href="#md796af17e5" x="731.766152" y="380.476502" style="fill: #262626; stroke: #262626"/>
      </g>
     </g>
     <g id="text_10">
      <!-- $\mathdefault{−0.10}$ -->
      <g style="fill: #262626" transform="translate(25.54618 385.042699) scale(0.132 -0.132)">
       <defs>
        <path id="CMSY10-0" d="M 4218 1472 
C 4326 1472 4442 1472 4442 1600 
C 4442 1728 4326 1728 4218 1728 
L 755 1728 
C 646 1728 531 1728 531 1600 
C 531 1472 646 1472 755 1472 
L 4218 1472 
z
" transform="scale(0.015625)"/>
       </defs>
       <use xlink:href="#CMSY10-0" transform="scale(0.996264)"/>
       <use xlink:href="#CMR17-30" transform="translate(77.487468 0) scale(0.996264)"/>
       <use xlink:href="#CMMI12-3a" transform="translate(123.177945 0) scale(0.996264)"/>
       <use xlink:href="#CMR17-31" transform="translate(150.275122 0) scale(0.996264)"/>
       <use xlink:href="#CMR17-30" transform="translate(195.965599 0) scale(0.996264)"/>
      </g>
     </g>
    </g>
    <g id="ytick_2">
     <g id="line2d_28">
      <path d="M 62.166152 314.218811 
L 731.766152 314.218811 
" clip-path="url(#p085b207997)" style="fill: none; stroke: #e6e6e6; stroke-width: 0.8; stroke-linecap: round"/>
     </g>
     <g id="line2d_29">
      <g>
       <use xlink:href="#mfac21ba71b" x="62.166152" y="314.218811" style="fill: #262626; stroke: #262626"/>
      </g>
     </g>
     <g id="line2d_30">
      <g>
       <use xlink:href="#md796af17e5" x="731.766152" y="314.218811" style="fill: #262626; stroke: #262626"/>
      </g>
     </g>
     <g id="text_11">
      <!-- $\mathdefault{−0.05}$ -->
      <g style="fill: #262626" transform="translate(25.54618 318.785009) scale(0.132 -0.132)">
       <use xlink:href="#CMSY10-0" transform="scale(0.996264)"/>
       <use xlink:href="#CMR17-30" transform="translate(77.487468 0) scale(0.996264)"/>
       <use xlink:href="#CMMI12-3a" transform="translate(123.177945 0) scale(0.996264)"/>
       <use xlink:href="#CMR17-30" transform="translate(150.275122 0) scale(0.996264)"/>
       <use xlink:href="#CMR17-35" transform="translate(195.965599 0) scale(0.996264)"/>
      </g>
     </g>
    </g>
    <g id="ytick_3">
     <g id="line2d_31">
      <path d="M 62.166152 247.961121 
L 731.766152 247.961121 
" clip-path="url(#p085b207997)" style="fill: none; stroke: #e6e6e6; stroke-width: 0.8; stroke-linecap: round"/>
     </g>
     <g id="line2d_32">
      <g>
       <use xlink:href="#mfac21ba71b" x="62.166152" y="247.961121" style="fill: #262626; stroke: #262626"/>
      </g>
     </g>
     <g id="line2d_33">
      <g>
       <use xlink:href="#md796af17e5" x="731.766152" y="247.961121" style="fill: #262626; stroke: #262626"/>
      </g>
     </g>
     <g id="text_12">
      <!-- $\mathdefault{0.00}$ -->
      <g style="fill: #262626" transform="translate(35.774517 252.527318) scale(0.132 -0.132)">
       <use xlink:href="#CMR17-30" transform="scale(0.996264)"/>
       <use xlink:href="#CMMI12-3a" transform="translate(45.690477 0) scale(0.996264)"/>
       <use xlink:href="#CMR17-30" transform="translate(72.787654 0) scale(0.996264)"/>
       <use xlink:href="#CMR17-30" transform="translate(118.478131 0) scale(0.996264)"/>
      </g>
     </g>
    </g>
    <g id="ytick_4">
     <g id="line2d_34">
      <path d="M 62.166152 181.70343 
L 731.766152 181.70343 
" clip-path="url(#p085b207997)" style="fill: none; stroke: #e6e6e6; stroke-width: 0.8; stroke-linecap: round"/>
     </g>
     <g id="line2d_35">
      <g>
       <use xlink:href="#mfac21ba71b" x="62.166152" y="181.70343" style="fill: #262626; stroke: #262626"/>
      </g>
     </g>
     <g id="line2d_36">
      <g>
       <use xlink:href="#md796af17e5" x="731.766152" y="181.70343" style="fill: #262626; stroke: #262626"/>
      </g>
     </g>
     <g id="text_13">
      <!-- $\mathdefault{0.05}$ -->
      <g style="fill: #262626" transform="translate(35.774517 186.269628) scale(0.132 -0.132)">
       <use xlink:href="#CMR17-30" transform="scale(0.996264)"/>
       <use xlink:href="#CMMI12-3a" transform="translate(45.690477 0) scale(0.996264)"/>
       <use xlink:href="#CMR17-30" transform="translate(72.787654 0) scale(0.996264)"/>
       <use xlink:href="#CMR17-35" transform="translate(118.478131 0) scale(0.996264)"/>
      </g>
     </g>
    </g>
    <g id="ytick_5">
     <g id="line2d_37">
      <path d="M 62.166152 115.44574 
L 731.766152 115.44574 
" clip-path="url(#p085b207997)" style="fill: none; stroke: #e6e6e6; stroke-width: 0.8; stroke-linecap: round"/>
     </g>
     <g id="line2d_38">
      <g>
       <use xlink:href="#mfac21ba71b" x="62.166152" y="115.44574" style="fill: #262626; stroke: #262626"/>
      </g>
     </g>
     <g id="line2d_39">
      <g>
       <use xlink:href="#md796af17e5" x="731.766152" y="115.44574" style="fill: #262626; stroke: #262626"/>
      </g>
     </g>
     <g id="text_14">
      <!-- $\mathdefault{0.10}$ -->
      <g style="fill: #262626" transform="translate(35.774517 120.011937) scale(0.132 -0.132)">
       <use xlink:href="#CMR17-30" transform="scale(0.996264)"/>
       <use xlink:href="#CMMI12-3a" transform="translate(45.690477 0) scale(0.996264)"/>
       <use xlink:href="#CMR17-31" transform="translate(72.787654 0) scale(0.996264)"/>
       <use xlink:href="#CMR17-30" transform="translate(118.478131 0) scale(0.996264)"/>
      </g>
     </g>
    </g>
    <g id="ytick_6">
     <g id="line2d_40">
      <path d="M 62.166152 49.188049 
L 731.766152 49.188049 
" clip-path="url(#p085b207997)" style="fill: none; stroke: #e6e6e6; stroke-width: 0.8; stroke-linecap: round"/>
     </g>
     <g id="line2d_41">
      <g>
       <use xlink:href="#mfac21ba71b" x="62.166152" y="49.188049" style="fill: #262626; stroke: #262626"/>
      </g>
     </g>
     <g id="line2d_42">
      <g>
       <use xlink:href="#md796af17e5" x="731.766152" y="49.188049" style="fill: #262626; stroke: #262626"/>
      </g>
     </g>
     <g id="text_15">
      <!-- $\mathdefault{0.15}$ -->
      <g style="fill: #262626" transform="translate(35.774517 53.754246) scale(0.132 -0.132)">
       <use xlink:href="#CMR17-30" transform="scale(0.996264)"/>
       <use xlink:href="#CMMI12-3a" transform="translate(45.690477 0) scale(0.996264)"/>
       <use xlink:href="#CMR17-31" transform="translate(72.787654 0) scale(0.996264)"/>
       <use xlink:href="#CMR17-35" transform="translate(118.478131 0) scale(0.996264)"/>
      </g>
     </g>
    </g>
    <g id="text_16">
     <!-- $C \left( O_n, O_m \right)$ -->
     <g style="fill: #262626" transform="translate(17.959624 228.251977) rotate(-90) scale(0.144 -0.144)">
      <defs>
       <path id="CMMI12-43" d="M 4781 4422 
C 4781 4480 4736 4480 4723 4480 
C 4710 4480 4685 4480 4634 4415 
L 4192 3881 
C 3968 4262 3616 4480 3136 4480 
C 1754 4480 320 3087 320 1594 
C 320 533 1069 -128 2003 -128 
C 2515 -128 2963 89 3334 400 
C 3891 864 4058 1480 4058 1531 
C 4058 1588 4006 1588 3987 1588 
C 3930 1588 3923 1550 3910 1524 
C 3616 533 2752 57 2112 57 
C 1434 57 845 489 845 1391 
C 845 1594 909 2699 1632 3531 
C 1984 3938 2586 4294 3194 4294 
C 3898 4294 4211 3716 4211 3068 
C 4211 2903 4192 2763 4192 2737 
C 4192 2680 4256 2680 4275 2680 
C 4346 2680 4352 2687 4378 2801 
L 4781 4422 
z
" transform="scale(0.015625)"/>
       <path id="CMR17-28" d="M 1958 -1562 
C 1958 -1556 1958 -1543 1939 -1524 
C 1645 -1223 858 -403 858 1596 
C 858 3595 1632 4408 1946 4729 
C 1946 4735 1958 4748 1958 4767 
C 1958 4787 1939 4800 1914 4800 
C 1843 4800 1299 4325 986 3620 
C 666 2909 576 2218 576 1603 
C 576 1141 621 360 1005 -467 
C 1312 -1133 1837 -1600 1914 -1600 
C 1946 -1600 1958 -1588 1958 -1562 
z
" transform="scale(0.015625)"/>
       <path id="CMMI12-4f" d="M 4646 2788 
C 4646 3837 3955 4480 3059 4480 
C 1690 4480 307 3017 307 1550 
C 307 552 973 -128 1901 -128 
C 3245 -128 4646 1264 4646 2788 
z
M 1939 19 
C 1414 19 858 400 858 1391 
C 858 1969 1069 2915 1594 3551 
C 2061 4110 2598 4339 3027 4339 
C 3590 4339 4134 3932 4134 3017 
C 4134 2452 3891 1569 3462 965 
C 2995 317 2413 19 1939 19 
z
" transform="scale(0.015625)"/>
       <path id="CMMI12-6e" d="M 1318 1870 
C 1331 1909 1491 2228 1728 2432 
C 1894 2585 2112 2687 2362 2687 
C 2618 2687 2707 2496 2707 2241 
C 2707 1877 2445 1149 2317 804 
C 2259 651 2227 568 2227 453 
C 2227 166 2426 -64 2733 -64 
C 3328 -64 3552 874 3552 913 
C 3552 945 3526 970 3488 970 
C 3430 970 3424 951 3392 842 
C 3245 319 3002 64 2752 64 
C 2688 64 2586 70 2586 274 
C 2586 434 2656 625 2694 715 
C 2822 1066 3091 1781 3091 2145 
C 3091 2528 2867 2816 2381 2816 
C 1811 2816 1510 2413 1395 2253 
C 1376 2617 1114 2816 832 2816 
C 627 2816 486 2694 378 2477 
C 262 2247 173 1864 173 1838 
C 173 1813 198 1781 243 1781 
C 294 1781 301 1787 339 1934 
C 442 2324 557 2687 813 2687 
C 960 2687 1011 2585 1011 2394 
C 1011 2253 947 2004 902 1807 
L 723 1117 
C 698 996 627 708 595 593 
C 550 427 480 127 480 95 
C 480 6 550 -64 646 -64 
C 723 -64 813 -26 864 70 
C 877 102 934 325 966 453 
L 1107 1028 
L 1318 1870 
z
" transform="scale(0.015625)"/>
       <path id="CMMI12-3b" d="M 1248 -26 
C 1248 345 1126 620 864 620 
C 659 620 557 454 557 313 
C 557 172 653 0 870 0 
C 954 0 1024 25 1082 83 
C 1094 96 1101 96 1107 96 
C 1120 96 1120 6 1120 -26 
C 1120 -233 1082 -642 710 -1051 
C 640 -1127 640 -1140 640 -1152 
C 640 -1184 672 -1216 704 -1216 
C 755 -1216 1248 -749 1248 -26 
z
" transform="scale(0.015625)"/>
       <path id="CMMI12-6d" d="M 1318 1870 
C 1331 1909 1491 2228 1728 2432 
C 1894 2585 2112 2687 2362 2687 
C 2618 2687 2707 2496 2707 2241 
C 2707 2202 2707 2075 2630 1775 
L 2470 1117 
C 2419 925 2298 453 2285 383 
C 2259 287 2221 121 2221 95 
C 2221 6 2291 -64 2387 -64 
C 2579 -64 2611 83 2669 313 
L 3053 1838 
C 3066 1890 3398 2687 4102 2687 
C 4358 2687 4448 2496 4448 2241 
C 4448 1883 4198 1187 4058 804 
C 4000 651 3968 568 3968 453 
C 3968 166 4166 -64 4474 -64 
C 5069 -64 5293 874 5293 913 
C 5293 945 5267 970 5229 970 
C 5171 970 5165 951 5133 842 
C 4986 332 4749 64 4493 64 
C 4429 64 4326 70 4326 274 
C 4326 440 4403 645 4429 715 
C 4544 1021 4832 1775 4832 2145 
C 4832 2528 4608 2816 4122 2816 
C 3693 2816 3347 2573 3091 2196 
C 3072 2541 2861 2816 2381 2816 
C 1811 2816 1510 2413 1395 2253 
C 1376 2617 1114 2816 832 2816 
C 646 2816 499 2726 378 2483 
C 262 2253 173 1864 173 1838 
C 173 1813 198 1781 243 1781 
C 294 1781 301 1787 339 1934 
C 435 2311 557 2687 813 2687 
C 960 2687 1011 2585 1011 2394 
C 1011 2253 947 2004 902 1807 
L 723 1117 
C 698 996 627 708 595 593 
C 550 427 480 127 480 95 
C 480 6 550 -64 646 -64 
C 723 -64 813 -26 864 70 
C 877 102 934 325 966 453 
L 1107 1028 
L 1318 1870 
z
" transform="scale(0.015625)"/>
       <path id="CMR17-29" d="M 1683 1596 
C 1683 2057 1638 2839 1254 3665 
C 947 4332 422 4800 346 4800 
C 326 4800 301 4793 301 4761 
C 301 4748 307 4742 314 4729 
C 621 4408 1402 3595 1402 1603 
C 1402 -396 627 -1210 314 -1530 
C 307 -1543 301 -1549 301 -1562 
C 301 -1594 326 -1600 346 -1600 
C 416 -1600 960 -1127 1274 -422 
C 1594 289 1683 981 1683 1596 
z
" transform="scale(0.015625)"/>
      </defs>
      <use xlink:href="#CMMI12-43" transform="scale(0.996264)"/>
      <use xlink:href="#CMR17-28" transform="translate(93.551252 0.003177) scale(0.996264)"/>
      <use xlink:href="#CMMI12-4f" transform="translate(128.83202 0) scale(0.996264)"/>
      <use xlink:href="#CMMI12-6e" transform="translate(203.382701 -14.943915) scale(0.697382)"/>
      <use xlink:href="#CMMI12-3b" transform="translate(244.641676 0) scale(0.996264)"/>
      <use xlink:href="#CMMI12-4f" transform="translate(288.343258 0) scale(0.996264)"/>
      <use xlink:href="#CMMI12-6d" transform="translate(362.893939 -14.943915) scale(0.697382)"/>
      <use xlink:href="#CMR17-29" transform="translate(423.120862 0.003177) scale(0.996264)"/>
     </g>
    </g>
   </g>
   <g id="line2d_43">
    <path d="M 92.602515 357.694036 
L 179.563554 356.112962 
L 266.524593 352.283 
L 353.485632 349.321311 
L 440.446671 351.494893 
L 527.40771 355.236878 
L 614.368749 364.41 
L 701.329788 360.484772 
" clip-path="url(#p085b207997)" style="fill: none; stroke: #9467bd; stroke-width: 2; stroke-linecap: round"/>
    <defs>
     <path id="mde10e3a9bf" d="M 0 2.4 
C 0.636487 2.4 1.246992 2.147121 1.697056 1.697056 
C 2.147121 1.246992 2.4 0.636487 2.4 0 
C 2.4 -0.636487 2.147121 -1.246992 1.697056 -1.697056 
C 1.246992 -2.147121 0.636487 -2.4 0 -2.4 
C -0.636487 -2.4 -1.246992 -2.147121 -1.697056 -1.697056 
C -2.147121 -1.246992 -2.4 -0.636487 -2.4 0 
C -2.4 0.636487 -2.147121 1.246992 -1.697056 1.697056 
C -1.246992 2.147121 -0.636487 2.4 0 2.4 
z
" style="stroke: #9467bd"/>
    </defs>
    <g clip-path="url(#p085b207997)">
     <use xlink:href="#mde10e3a9bf" x="92.602515" y="357.694036" style="fill: #9467bd; stroke: #9467bd"/>
     <use xlink:href="#mde10e3a9bf" x="179.563554" y="356.112962" style="fill: #9467bd; stroke: #9467bd"/>
     <use xlink:href="#mde10e3a9bf" x="266.524593" y="352.283" style="fill: #9467bd; stroke: #9467bd"/>
     <use xlink:href="#mde10e3a9bf" x="353.485632" y="349.321311" style="fill: #9467bd; stroke: #9467bd"/>
     <use xlink:href="#mde10e3a9bf" x="440.446671" y="351.494893" style="fill: #9467bd; stroke: #9467bd"/>
     <use xlink:href="#mde10e3a9bf" x="527.40771" y="355.236878" style="fill: #9467bd; stroke: #9467bd"/>
     <use xlink:href="#mde10e3a9bf" x="614.368749" y="364.41" style="fill: #9467bd; stroke: #9467bd"/>
     <use xlink:href="#mde10e3a9bf" x="701.329788" y="360.484772" style="fill: #9467bd; stroke: #9467bd"/>
    </g>
   </g>
   <g id="line2d_44">
    <path d="M 92.602515 320.348666 
L 179.563554 315.43229 
L 266.524593 317.491752 
L 353.485632 314.934523 
L 440.446671 310.034695 
L 527.40771 317.309579 
L 614.368749 321.082451 
L 701.329788 321.082837 
" clip-path="url(#p085b207997)" style="fill: none; stroke: #ff7f0e; stroke-width: 1.2; stroke-linecap: round"/>
    <defs>
     <path id="m790392f549" d="M 0 2.4 
C 0.636487 2.4 1.246992 2.147121 1.697056 1.697056 
C 2.147121 1.246992 2.4 0.636487 2.4 0 
C 2.4 -0.636487 2.147121 -1.246992 1.697056 -1.697056 
C 1.246992 -2.147121 0.636487 -2.4 0 -2.4 
C -0.636487 -2.4 -1.246992 -2.147121 -1.697056 -1.697056 
C -2.147121 -1.246992 -2.4 -0.636487 -2.4 0 
C -2.4 0.636487 -2.147121 1.246992 -1.697056 1.697056 
C -1.246992 2.147121 -0.636487 2.4 0 2.4 
z
" style="stroke: #ff7f0e"/>
    </defs>
    <g clip-path="url(#p085b207997)">
     <use xlink:href="#m790392f549" x="92.602515" y="320.348666" style="fill: #ff7f0e; stroke: #ff7f0e"/>
     <use xlink:href="#m790392f549" x="179.563554" y="315.43229" style="fill: #ff7f0e; stroke: #ff7f0e"/>
     <use xlink:href="#m790392f549" x="266.524593" y="317.491752" style="fill: #ff7f0e; stroke: #ff7f0e"/>
     <use xlink:href="#m790392f549" x="353.485632" y="314.934523" style="fill: #ff7f0e; stroke: #ff7f0e"/>
     <use xlink:href="#m790392f549" x="440.446671" y="310.034695" style="fill: #ff7f0e; stroke: #ff7f0e"/>
     <use xlink:href="#m790392f549" x="527.40771" y="317.309579" style="fill: #ff7f0e; stroke: #ff7f0e"/>
     <use xlink:href="#m790392f549" x="614.368749" y="321.082451" style="fill: #ff7f0e; stroke: #ff7f0e"/>
     <use xlink:href="#m790392f549" x="701.329788" y="321.082837" style="fill: #ff7f0e; stroke: #ff7f0e"/>
    </g>
   </g>
   <g id="line2d_45">
    <path d="M 92.602515 33.754391 
L 179.563554 37.410795 
L 266.524593 25.238403 
L 353.485632 30.802791 
L 440.446671 33.650066 
L 527.40771 39.486768 
L 614.368749 24.21 
L 701.329788 30.518236 
" clip-path="url(#p085b207997)" style="fill: none; stroke: #1f77b4; stroke-width: 1.2; stroke-linecap: round"/>
    <defs>
     <path id="m978b2d09a0" d="M 0 2.4 
C 0.636487 2.4 1.246992 2.147121 1.697056 1.697056 
C 2.147121 1.246992 2.4 0.636487 2.4 0 
C 2.4 -0.636487 2.147121 -1.246992 1.697056 -1.697056 
C 1.246992 -2.147121 0.636487 -2.4 0 -2.4 
C -0.636487 -2.4 -1.246992 -2.147121 -1.697056 -1.697056 
C -2.147121 -1.246992 -2.4 -0.636487 -2.4 0 
C -2.4 0.636487 -2.147121 1.246992 -1.697056 1.697056 
C -1.246992 2.147121 -0.636487 2.4 0 2.4 
z
" style="stroke: #1f77b4"/>
    </defs>
    <g clip-path="url(#p085b207997)">
     <use xlink:href="#m978b2d09a0" x="92.602515" y="33.754391" style="fill: #1f77b4; stroke: #1f77b4"/>
     <use xlink:href="#m978b2d09a0" x="179.563554" y="37.410795" style="fill: #1f77b4; stroke: #1f77b4"/>
     <use xlink:href="#m978b2d09a0" x="266.524593" y="25.238403" style="fill: #1f77b4; stroke: #1f77b4"/>
     <use xlink:href="#m978b2d09a0" x="353.485632" y="30.802791" style="fill: #1f77b4; stroke: #1f77b4"/>
     <use xlink:href="#m978b2d09a0" x="440.446671" y="33.650066" style="fill: #1f77b4; stroke: #1f77b4"/>
     <use xlink:href="#m978b2d09a0" x="527.40771" y="39.486768" style="fill: #1f77b4; stroke: #1f77b4"/>
     <use xlink:href="#m978b2d09a0" x="614.368749" y="24.21" style="fill: #1f77b4; stroke: #1f77b4"/>
     <use xlink:href="#m978b2d09a0" x="701.329788" y="30.518236" style="fill: #1f77b4; stroke: #1f77b4"/>
    </g>
   </g>
   <g id="line2d_46">
    <path d="M 92.602515 241.00877 
L 179.563554 241.741285 
L 266.524593 236.493542 
L 353.485632 246.408432 
L 440.446671 251.724643 
L 527.40771 249.802807 
L 614.368749 234.272015 
L 701.329788 244.400334 
" clip-path="url(#p085b207997)" style="fill: none; stroke: #e377c2; stroke-width: 1.2; stroke-linecap: round"/>
    <defs>
     <path id="mdaab813d3a" d="M 0 2.4 
C 0.636487 2.4 1.246992 2.147121 1.697056 1.697056 
C 2.147121 1.246992 2.4 0.636487 2.4 0 
C 2.4 -0.636487 2.147121 -1.246992 1.697056 -1.697056 
C 1.246992 -2.147121 0.636487 -2.4 0 -2.4 
C -0.636487 -2.4 -1.246992 -2.147121 -1.697056 -1.697056 
C -2.147121 -1.246992 -2.4 -0.636487 -2.4 0 
C -2.4 0.636487 -2.147121 1.246992 -1.697056 1.697056 
C -1.246992 2.147121 -0.636487 2.4 0 2.4 
z
" style="stroke: #e377c2"/>
    </defs>
    <g clip-path="url(#p085b207997)">
     <use xlink:href="#mdaab813d3a" x="92.602515" y="241.00877" style="fill: #e377c2; stroke: #e377c2"/>
     <use xlink:href="#mdaab813d3a" x="179.563554" y="241.741285" style="fill: #e377c2; stroke: #e377c2"/>
     <use xlink:href="#mdaab813d3a" x="266.524593" y="236.493542" style="fill: #e377c2; stroke: #e377c2"/>
     <use xlink:href="#mdaab813d3a" x="353.485632" y="246.408432" style="fill: #e377c2; stroke: #e377c2"/>
     <use xlink:href="#mdaab813d3a" x="440.446671" y="251.724643" style="fill: #e377c2; stroke: #e377c2"/>
     <use xlink:href="#mdaab813d3a" x="527.40771" y="249.802807" style="fill: #e377c2; stroke: #e377c2"/>
     <use xlink:href="#mdaab813d3a" x="614.368749" y="234.272015" style="fill: #e377c2; stroke: #e377c2"/>
     <use xlink:href="#mdaab813d3a" x="701.329788" y="244.400334" style="fill: #e377c2; stroke: #e377c2"/>
    </g>
   </g>
   <g id="line2d_47">
    <path d="M 92.602515 184.918606 
L 179.563554 188.621505 
L 266.524593 186.019023 
L 353.485632 182.415456 
L 440.446671 189.822641 
L 527.40771 192.519151 
L 614.368749 189.727848 
L 701.329788 183.163012 
" clip-path="url(#p085b207997)" style="fill: none; stroke: #d62728; stroke-width: 1.2; stroke-linecap: round"/>
    <defs>
     <path id="m990fc0af60" d="M 0 2.4 
C 0.636487 2.4 1.246992 2.147121 1.697056 1.697056 
C 2.147121 1.246992 2.4 0.636487 2.4 0 
C 2.4 -0.636487 2.147121 -1.246992 1.697056 -1.697056 
C 1.246992 -2.147121 0.636487 -2.4 0 -2.4 
C -0.636487 -2.4 -1.246992 -2.147121 -1.697056 -1.697056 
C -2.147121 -1.246992 -2.4 -0.636487 -2.4 0 
C -2.4 0.636487 -2.147121 1.246992 -1.697056 1.697056 
C -1.246992 2.147121 -0.636487 2.4 0 2.4 
z
" style="stroke: #d62728"/>
    </defs>
    <g clip-path="url(#p085b207997)">
     <use xlink:href="#m990fc0af60" x="92.602515" y="184.918606" style="fill: #d62728; stroke: #d62728"/>
     <use xlink:href="#m990fc0af60" x="179.563554" y="188.621505" style="fill: #d62728; stroke: #d62728"/>
     <use xlink:href="#m990fc0af60" x="266.524593" y="186.019023" style="fill: #d62728; stroke: #d62728"/>
     <use xlink:href="#m990fc0af60" x="353.485632" y="182.415456" style="fill: #d62728; stroke: #d62728"/>
     <use xlink:href="#m990fc0af60" x="440.446671" y="189.822641" style="fill: #d62728; stroke: #d62728"/>
     <use xlink:href="#m990fc0af60" x="527.40771" y="192.519151" style="fill: #d62728; stroke: #d62728"/>
     <use xlink:href="#m990fc0af60" x="614.368749" y="189.727848" style="fill: #d62728; stroke: #d62728"/>
     <use xlink:href="#m990fc0af60" x="701.329788" y="183.163012" style="fill: #d62728; stroke: #d62728"/>
    </g>
   </g>
   <g id="line2d_48">
    <path d="M 92.602515 105.836873 
L 179.563554 105.074841 
L 266.524593 101.465782 
L 353.485632 109.215344 
L 440.446671 97.629912 
L 527.40771 118.875635 
L 614.368749 104.688145 
L 701.329788 115.064372 
" clip-path="url(#p085b207997)" style="fill: none; stroke: #2ca02c; stroke-width: 1.2; stroke-linecap: round"/>
    <defs>
     <path id="m30956e8fa2" d="M 0 2.4 
C 0.636487 2.4 1.246992 2.147121 1.697056 1.697056 
C 2.147121 1.246992 2.4 0.636487 2.4 0 
C 2.4 -0.636487 2.147121 -1.246992 1.697056 -1.697056 
C 1.246992 -2.147121 0.636487 -2.4 0 -2.4 
C -0.636487 -2.4 -1.246992 -2.147121 -1.697056 -1.697056 
C -2.147121 -1.246992 -2.4 -0.636487 -2.4 0 
C -2.4 0.636487 -2.147121 1.246992 -1.697056 1.697056 
C -1.246992 2.147121 -0.636487 2.4 0 2.4 
z
" style="stroke: #2ca02c"/>
    </defs>
    <g clip-path="url(#p085b207997)">
     <use xlink:href="#m30956e8fa2" x="92.602515" y="105.836873" style="fill: #2ca02c; stroke: #2ca02c"/>
     <use xlink:href="#m30956e8fa2" x="179.563554" y="105.074841" style="fill: #2ca02c; stroke: #2ca02c"/>
     <use xlink:href="#m30956e8fa2" x="266.524593" y="101.465782" style="fill: #2ca02c; stroke: #2ca02c"/>
     <use xlink:href="#m30956e8fa2" x="353.485632" y="109.215344" style="fill: #2ca02c; stroke: #2ca02c"/>
     <use xlink:href="#m30956e8fa2" x="440.446671" y="97.629912" style="fill: #2ca02c; stroke: #2ca02c"/>
     <use xlink:href="#m30956e8fa2" x="527.40771" y="118.875635" style="fill: #2ca02c; stroke: #2ca02c"/>
     <use xlink:href="#m30956e8fa2" x="614.368749" y="104.688145" style="fill: #2ca02c; stroke: #2ca02c"/>
     <use xlink:href="#m30956e8fa2" x="701.329788" y="115.064372" style="fill: #2ca02c; stroke: #2ca02c"/>
    </g>
   </g>
   <g id="line2d_49">
    <path d="M 92.602515 270.960235 
L 179.563554 268.700988 
L 266.524593 268.15138 
L 353.485632 267.098724 
L 440.446671 265.788158 
L 527.40771 258.999428 
L 614.368749 275.632816 
L 701.329788 261.353184 
" clip-path="url(#p085b207997)" style="fill: none; stroke: #8c564b; stroke-width: 1.2; stroke-linecap: round"/>
    <defs>
     <path id="m3d95b075ca" d="M 0 2.4 
C 0.636487 2.4 1.246992 2.147121 1.697056 1.697056 
C 2.147121 1.246992 2.4 0.636487 2.4 0 
C 2.4 -0.636487 2.147121 -1.246992 1.697056 -1.697056 
C 1.246992 -2.147121 0.636487 -2.4 0 -2.4 
C -0.636487 -2.4 -1.246992 -2.147121 -1.697056 -1.697056 
C -2.147121 -1.246992 -2.4 -0.636487 -2.4 0 
C -2.4 0.636487 -2.147121 1.246992 -1.697056 1.697056 
C -1.246992 2.147121 -0.636487 2.4 0 2.4 
z
" style="stroke: #8c564b"/>
    </defs>
    <g clip-path="url(#p085b207997)">
     <use xlink:href="#m3d95b075ca" x="92.602515" y="270.960235" style="fill: #8c564b; stroke: #8c564b"/>
     <use xlink:href="#m3d95b075ca" x="179.563554" y="268.700988" style="fill: #8c564b; stroke: #8c564b"/>
     <use xlink:href="#m3d95b075ca" x="266.524593" y="268.15138" style="fill: #8c564b; stroke: #8c564b"/>
     <use xlink:href="#m3d95b075ca" x="353.485632" y="267.098724" style="fill: #8c564b; stroke: #8c564b"/>
     <use xlink:href="#m3d95b075ca" x="440.446671" y="265.788158" style="fill: #8c564b; stroke: #8c564b"/>
     <use xlink:href="#m3d95b075ca" x="527.40771" y="258.999428" style="fill: #8c564b; stroke: #8c564b"/>
     <use xlink:href="#m3d95b075ca" x="614.368749" y="275.632816" style="fill: #8c564b; stroke: #8c564b"/>
     <use xlink:href="#m3d95b075ca" x="701.329788" y="261.353184" style="fill: #8c564b; stroke: #8c564b"/>
    </g>
   </g>
   <g id="patch_3">
    <path d="M 62.166152 381.42 
L 62.166152 7.2 
" style="fill: none; stroke: #000000; stroke-linejoin: miter; stroke-linecap: square"/>
   </g>
   <g id="patch_4">
    <path d="M 731.766152 381.42 
L 731.766152 7.2 
" style="fill: none; stroke: #000000; stroke-linejoin: miter; stroke-linecap: square"/>
   </g>
   <g id="patch_5">
    <path d="M 62.166152 381.42 
L 731.766152 381.42 
" style="fill: none; stroke: #000000; stroke-linejoin: miter; stroke-linecap: square"/>
   </g>
   <g id="patch_6">
    <path d="M 62.166152 7.2 
L 731.766152 7.2 
" style="fill: none; stroke: #000000; stroke-linejoin: miter; stroke-linecap: square"/>
   </g>
   <g id="legend_1">
    <g id="patch_7">
     <path d="M 758.092754 189.615795 
L 887.070152 189.615795 
Q 890.526152 189.615795 890.526152 186.159795 
L 890.526152 19.296 
Q 890.526152 15.84 887.070152 15.84 
L 758.092754 15.84 
Q 754.636754 15.84 754.636754 19.296 
L 754.636754 186.159795 
Q 754.636754 189.615795 758.092754 189.615795 
z
" style="fill: #ffffff; opacity: 0.8; stroke: #cccccc; stroke-width: 0.8; stroke-linejoin: miter"/>
    </g>
    <g id="line2d_50">
     <path d="M 761.548754 28.8 
L 778.828754 28.8 
L 796.108754 28.8 
" style="fill: none; stroke: #9467bd; stroke-width: 2; stroke-linecap: round"/>
     <g>
      <use xlink:href="#mde10e3a9bf" x="778.828754" y="28.8" style="fill: #9467bd; stroke: #9467bd"/>
     </g>
    </g>
    <g id="text_17">
     <!-- nodes 1-2 -->
     <g style="fill: #262626" transform="translate(809.932754 34.848) scale(0.1728 -0.1728)">
      <defs>
       <path id="CMSS17-65" d="M 2502 1375 
C 2502 1587 2490 2001 2285 2347 
C 2061 2713 1696 2816 1421 2816 
C 755 2816 192 2184 192 1363 
C 192 579 774 -64 1510 -64 
C 1798 -64 2150 19 2470 249 
C 2470 275 2458 414 2451 421 
C 2451 433 2432 629 2432 655 
C 2125 408 1773 326 1517 326 
C 1107 326 666 667 646 1375 
L 2502 1375 
z
M 698 1728 
C 781 2086 1062 2425 1421 2425 
C 1517 2425 1965 2412 2080 1728 
L 698 1728 
z
" transform="scale(0.015625)"/>
       <path id="CMSS17-31" d="M 1818 4288 
L 1696 4288 
C 1350 3949 947 3902 538 3891 
L 538 3520 
C 723 3526 1024 3539 1325 3673 
L 1325 371 
L 570 371 
L 570 0 
L 2573 0 
L 2573 371 
L 1818 371 
L 1818 4288 
z
" transform="scale(0.015625)"/>
       <path id="CMSS17-2d" d="M 1664 1216 
L 1664 1587 
L 64 1587 
L 64 1216 
L 1664 1216 
z
" transform="scale(0.015625)"/>
       <path id="CMSS17-32" d="M 1651 1353 
C 1830 1538 2099 1761 2285 1984 
C 2464 2201 2701 2507 2701 2953 
C 2701 3655 2227 4288 1421 4288 
C 787 4288 422 3891 250 3272 
L 499 2928 
C 640 3508 838 3878 1338 3878 
C 1888 3878 2195 3431 2195 2940 
C 2195 2354 1747 1901 1408 1563 
C 1030 1187 659 805 301 409 
L 301 0 
L 2701 0 
L 2701 435 
L 1613 435 
C 1536 435 1459 428 1382 428 
L 742 428 
L 742 435 
L 1651 1353 
z
" transform="scale(0.015625)"/>
      </defs>
      <use xlink:href="#CMSS17-6e" transform="scale(0.996264)"/>
      <use xlink:href="#CMSS17-6f" transform="translate(48.204943 0) scale(0.996264)"/>
      <use xlink:href="#CMSS17-64" transform="translate(97.651005 0) scale(0.996264)"/>
      <use xlink:href="#CMSS17-65" transform="translate(145.855949 0) scale(0.996264)"/>
      <use xlink:href="#CMSS17-73" transform="translate(187.494771 0) scale(0.996264)"/>
      <use xlink:href="#CMSS17-31" transform="translate(254.637425 0) scale(0.996264)"/>
      <use xlink:href="#CMSS17-2d" transform="translate(301.481049 0) scale(0.996264)"/>
      <use xlink:href="#CMSS17-32" transform="translate(332.710162 0) scale(0.996264)"/>
     </g>
    </g>
    <g id="line2d_51">
     <path d="M 761.548754 52.884542 
L 778.828754 52.884542 
L 796.108754 52.884542 
" style="fill: none; stroke: #ff7f0e; stroke-width: 1.2; stroke-linecap: round"/>
     <g>
      <use xlink:href="#m790392f549" x="778.828754" y="52.884542" style="fill: #ff7f0e; stroke: #ff7f0e"/>
     </g>
    </g>
    <g id="text_18">
     <!-- nodes 1-3 -->
     <g style="fill: #262626" transform="translate(809.932754 58.932542) scale(0.1728 -0.1728)">
      <defs>
       <path id="CMSS17-33" d="M 1005 2060 
L 1440 2060 
C 2042 2060 2214 1532 2214 1164 
C 2214 662 1933 268 1472 268 
C 1114 268 608 449 320 926 
C 275 700 275 687 250 533 
C 550 89 1037 -128 1485 -128 
C 2214 -128 2752 481 2752 1158 
C 2752 1667 2400 2092 1920 2252 
C 2304 2463 2586 2860 2586 3321 
C 2586 3859 2093 4288 1491 4288 
C 941 4288 512 3948 333 3583 
C 378 3519 493 3334 550 3238 
C 691 3615 1056 3897 1485 3897 
C 1843 3897 2080 3660 2080 3321 
C 2080 2969 1856 2585 1478 2496 
C 1453 2496 1056 2457 1005 2451 
L 1005 2060 
z
" transform="scale(0.015625)"/>
      </defs>
      <use xlink:href="#CMSS17-6e" transform="scale(0.996264)"/>
      <use xlink:href="#CMSS17-6f" transform="translate(48.204943 0) scale(0.996264)"/>
      <use xlink:href="#CMSS17-64" transform="translate(97.651005 0) scale(0.996264)"/>
      <use xlink:href="#CMSS17-65" transform="translate(145.855949 0) scale(0.996264)"/>
      <use xlink:href="#CMSS17-73" transform="translate(187.494771 0) scale(0.996264)"/>
      <use xlink:href="#CMSS17-31" transform="translate(254.637425 0) scale(0.996264)"/>
      <use xlink:href="#CMSS17-2d" transform="translate(301.481049 0) scale(0.996264)"/>
      <use xlink:href="#CMSS17-33" transform="translate(332.710162 0) scale(0.996264)"/>
     </g>
    </g>
    <g id="line2d_52">
     <path d="M 761.548754 76.969084 
L 778.828754 76.969084 
L 796.108754 76.969084 
" style="fill: none; stroke: #1f77b4; stroke-width: 1.2; stroke-linecap: round"/>
     <g>
      <use xlink:href="#m978b2d09a0" x="778.828754" y="76.969084" style="fill: #1f77b4; stroke: #1f77b4"/>
     </g>
    </g>
    <g id="text_19">
     <!-- nodes 1-4 -->
     <g style="fill: #262626" transform="translate(809.932754 83.017084) scale(0.1728 -0.1728)">
      <defs>
       <path id="CMSS17-34" d="M 2253 1088 
L 2835 1088 
L 2835 1478 
L 2253 1478 
L 2253 4224 
L 1690 4224 
L 166 1478 
L 166 1088 
L 1747 1088 
L 1747 0 
L 2253 0 
L 2253 1088 
z
M 659 1478 
C 1030 2139 1766 3474 1766 3927 
L 1766 1478 
L 659 1478 
z
" transform="scale(0.015625)"/>
      </defs>
      <use xlink:href="#CMSS17-6e" transform="scale(0.996264)"/>
      <use xlink:href="#CMSS17-6f" transform="translate(48.204943 0) scale(0.996264)"/>
      <use xlink:href="#CMSS17-64" transform="translate(97.651005 0) scale(0.996264)"/>
      <use xlink:href="#CMSS17-65" transform="translate(145.855949 0) scale(0.996264)"/>
      <use xlink:href="#CMSS17-73" transform="translate(187.494771 0) scale(0.996264)"/>
      <use xlink:href="#CMSS17-31" transform="translate(254.637425 0) scale(0.996264)"/>
      <use xlink:href="#CMSS17-2d" transform="translate(301.481049 0) scale(0.996264)"/>
      <use xlink:href="#CMSS17-34" transform="translate(332.710162 0) scale(0.996264)"/>
     </g>
    </g>
    <g id="line2d_53">
     <path d="M 761.548754 101.053627 
L 778.828754 101.053627 
L 796.108754 101.053627 
" style="fill: none; stroke: #e377c2; stroke-width: 1.2; stroke-linecap: round"/>
     <g>
      <use xlink:href="#mdaab813d3a" x="778.828754" y="101.053627" style="fill: #e377c2; stroke: #e377c2"/>
     </g>
    </g>
    <g id="text_20">
     <!-- nodes 1-5 -->
     <g style="fill: #262626" transform="translate(809.932754 107.101627) scale(0.1728 -0.1728)">
      <defs>
       <path id="CMSS17-35" d="M 934 3814 
L 2502 3814 
L 2502 4224 
L 467 4224 
L 467 1830 
L 896 1830 
C 1011 2103 1248 2304 1555 2304 
C 1843 2304 2163 2044 2163 1299 
C 2163 502 1709 268 1376 268 
C 966 268 589 521 422 871 
L 218 508 
C 512 51 992 -128 1376 -128 
C 2118 -128 2701 508 2701 1286 
C 2701 2083 2182 2694 1562 2694 
C 1338 2694 1120 2617 934 2464 
L 934 3814 
z
" transform="scale(0.015625)"/>
      </defs>
      <use xlink:href="#CMSS17-6e" transform="scale(0.996264)"/>
      <use xlink:href="#CMSS17-6f" transform="translate(48.204943 0) scale(0.996264)"/>
      <use xlink:href="#CMSS17-64" transform="translate(97.651005 0) scale(0.996264)"/>
      <use xlink:href="#CMSS17-65" transform="translate(145.855949 0) scale(0.996264)"/>
      <use xlink:href="#CMSS17-73" transform="translate(187.494771 0) scale(0.996264)"/>
      <use xlink:href="#CMSS17-31" transform="translate(254.637425 0) scale(0.996264)"/>
      <use xlink:href="#CMSS17-2d" transform="translate(301.481049 0) scale(0.996264)"/>
      <use xlink:href="#CMSS17-35" transform="translate(332.710162 0) scale(0.996264)"/>
     </g>
    </g>
    <g id="line2d_54">
     <path d="M 761.548754 125.138169 
L 778.828754 125.138169 
L 796.108754 125.138169 
" style="fill: none; stroke: #d62728; stroke-width: 1.2; stroke-linecap: round"/>
     <g>
      <use xlink:href="#m990fc0af60" x="778.828754" y="125.138169" style="fill: #d62728; stroke: #d62728"/>
     </g>
    </g>
    <g id="text_21">
     <!-- nodes 1-7 -->
     <g style="fill: #262626" transform="translate(809.932754 131.186169) scale(0.1728 -0.1728)">
      <defs>
       <path id="CMSS17-37" d="M 1389 3788 
C 1466 3788 1542 3795 1619 3795 
L 2355 3795 
C 1440 2715 915 1350 915 -64 
L 1427 -64 
C 1427 1305 1875 2695 2752 3807 
L 2752 4224 
L 250 4224 
L 250 3788 
L 1389 3788 
z
" transform="scale(0.015625)"/>
      </defs>
      <use xlink:href="#CMSS17-6e" transform="scale(0.996264)"/>
      <use xlink:href="#CMSS17-6f" transform="translate(48.204943 0) scale(0.996264)"/>
      <use xlink:href="#CMSS17-64" transform="translate(97.651005 0) scale(0.996264)"/>
      <use xlink:href="#CMSS17-65" transform="translate(145.855949 0) scale(0.996264)"/>
      <use xlink:href="#CMSS17-73" transform="translate(187.494771 0) scale(0.996264)"/>
      <use xlink:href="#CMSS17-31" transform="translate(254.637425 0) scale(0.996264)"/>
      <use xlink:href="#CMSS17-2d" transform="translate(301.481049 0) scale(0.996264)"/>
      <use xlink:href="#CMSS17-37" transform="translate(332.710162 0) scale(0.996264)"/>
     </g>
    </g>
    <g id="line2d_55">
     <path d="M 761.548754 149.222711 
L 778.828754 149.222711 
L 796.108754 149.222711 
" style="fill: none; stroke: #2ca02c; stroke-width: 1.2; stroke-linecap: round"/>
     <g>
      <use xlink:href="#m30956e8fa2" x="778.828754" y="149.222711" style="fill: #2ca02c; stroke: #2ca02c"/>
     </g>
    </g>
    <g id="text_22">
     <!-- nodes 1-9 -->
     <g style="fill: #262626" transform="translate(809.932754 155.270711) scale(0.1728 -0.1728)">
      <defs>
       <path id="CMSS17-39" d="M 435 172 
C 614 19 845 -128 1235 -128 
C 2010 -128 2752 738 2752 2136 
C 2752 3987 1952 4288 1523 4288 
C 1094 4288 819 4095 582 3789 
C 301 3438 250 3125 250 2761 
C 250 2327 326 2059 506 1753 
C 749 1356 973 1273 1222 1273 
C 1600 1273 1978 1459 2234 1778 
C 2189 908 1798 268 1235 268 
C 1005 268 819 340 634 516 
L 435 172 
z
M 2214 2774 
C 2221 2729 2221 2646 2221 2621 
C 2221 2085 1914 1664 1466 1664 
C 1171 1664 1018 1817 902 2015 
C 762 2263 755 2506 755 2761 
C 755 3010 755 3284 934 3559 
C 1069 3757 1235 3897 1523 3897 
C 2112 3897 2208 3036 2214 2774 
z
" transform="scale(0.015625)"/>
      </defs>
      <use xlink:href="#CMSS17-6e" transform="scale(0.996264)"/>
      <use xlink:href="#CMSS17-6f" transform="translate(48.204943 0) scale(0.996264)"/>
      <use xlink:href="#CMSS17-64" transform="translate(97.651005 0) scale(0.996264)"/>
      <use xlink:href="#CMSS17-65" transform="translate(145.855949 0) scale(0.996264)"/>
      <use xlink:href="#CMSS17-73" transform="translate(187.494771 0) scale(0.996264)"/>
      <use xlink:href="#CMSS17-31" transform="translate(254.637425 0) scale(0.996264)"/>
      <use xlink:href="#CMSS17-2d" transform="translate(301.481049 0) scale(0.996264)"/>
      <use xlink:href="#CMSS17-39" transform="translate(332.710162 0) scale(0.996264)"/>
     </g>
    </g>
    <g id="line2d_56">
     <path d="M 761.548754 173.307253 
L 778.828754 173.307253 
L 796.108754 173.307253 
" style="fill: none; stroke: #8c564b; stroke-width: 1.2; stroke-linecap: round"/>
     <g>
      <use xlink:href="#m3d95b075ca" x="778.828754" y="173.307253" style="fill: #8c564b; stroke: #8c564b"/>
     </g>
    </g>
    <g id="text_23">
     <!-- nodes 1-11 -->
     <g style="fill: #262626" transform="translate(809.932754 179.355253) scale(0.1728 -0.1728)">
      <use xlink:href="#CMSS17-6e" transform="scale(0.996264)"/>
      <use xlink:href="#CMSS17-6f" transform="translate(48.204943 0) scale(0.996264)"/>
      <use xlink:href="#CMSS17-64" transform="translate(97.651005 0) scale(0.996264)"/>
      <use xlink:href="#CMSS17-65" transform="translate(145.855949 0) scale(0.996264)"/>
      <use xlink:href="#CMSS17-73" transform="translate(187.494771 0) scale(0.996264)"/>
      <use xlink:href="#CMSS17-31" transform="translate(254.637425 0) scale(0.996264)"/>
      <use xlink:href="#CMSS17-2d" transform="translate(301.481049 0) scale(0.996264)"/>
      <use xlink:href="#CMSS17-31" transform="translate(332.710162 0) scale(0.996264)"/>
      <use xlink:href="#CMSS17-31" transform="translate(379.553785 0) scale(0.996264)"/>
     </g>
    </g>
   </g>
  </g>
 </g>
 <defs>
  <clipPath id="p085b207997">
   <rect x="62.166152" y="7.2" width="669.6" height="374.22"/>
  </clipPath>
 </defs>
</svg>
