<?xml version="1.0" encoding="utf-8" standalone="no"?>
<!DOCTYPE svg PUBLIC "-//W3C//DTD SVG 1.1//EN"
  "http://www.w3.org/Graphics/SVG/1.1/DTD/svg11.dtd">
<svg xmlns:xlink="http://www.w3.org/1999/xlink" width="864pt" height="486pt" viewBox="0 0 864 486" xmlns="http://www.w3.org/2000/svg" version="1.1">
 <metadata>
  <rdf:RDF xmlns:dc="http://purl.org/dc/elements/1.1/" xmlns:cc="http://creativecommons.org/ns#" xmlns:rdf="http://www.w3.org/1999/02/22-rdf-syntax-ns#">
   <cc:Work>
    <dc:type rdf:resource="http://purl.org/dc/dcmitype/StillImage"/>
    <dc:date>2023-01-02T17:55:53.744018</dc:date>
    <dc:format>image/svg+xml</dc:format>
    <dc:creator>
     <cc:Agent>
      <dc:title>Matplotlib v3.6.2, https://matplotlib.org/</dc:title>
     </cc:Agent>
    </dc:creator>
   </cc:Work>
  </rdf:RDF>
 </metadata>
 <defs>
  <style type="text/css">*{stroke-linejoin: round; stroke-linecap: butt}</style>
 </defs>
 <g id="figure_1">
  <g id="patch_1">
   <path d="M 0 486 
L 864 486 
L 864 0 
L 0 0 
z
" style="fill: #ffffff"/>
  </g>
  <g id="axes_1">
   <g id="patch_2">
    <path d="M 108 432.54 
L 777.6 432.54 
L 777.6 58.32 
L 108 58.32 
z
" style="fill: #ffffff"/>
   </g>
   <g id="matplotlib.axis_1">
    <g id="xtick_1">
     <g id="line2d_1">
      <path d="M 138.436364 432.54 
L 138.436364 58.32 
" clip-path="url(#p3397872f2b)" style="fill: none; stroke: #e6e6e6; stroke-width: 0.8; stroke-linecap: round"/>
     </g>
     <g id="line2d_2">
      <defs>
       <path id="m83badda823" d="M 0 0 
L 0 -4.8 
" style="stroke: #262626"/>
      </defs>
      <g>
       <use xlink:href="#m83badda823" x="138.436364" y="432.54" style="fill: #262626; stroke: #262626"/>
      </g>
     </g>
     <g id="line2d_3">
      <defs>
       <path id="m5031771914" d="M 0 0 
L 0 4.8 
" style="stroke: #262626"/>
      </defs>
      <g>
       <use xlink:href="#m5031771914" x="138.436364" y="58.32" style="fill: #262626; stroke: #262626"/>
      </g>
     </g>
     <g id="text_1">
      <!-- $\mathdefault{0}$ -->
      <g style="fill: #262626" transform="translate(135.217227 445.172395) scale(0.132 -0.132)">
       <defs>
        <path id="CMR17-30" d="M 2688 2038 
C 2688 2430 2682 3099 2413 3613 
C 2176 4063 1798 4224 1466 4224 
C 1158 4224 768 4082 525 3620 
C 269 3137 243 2539 243 2038 
C 243 1671 250 1112 448 623 
C 723 -39 1216 -128 1466 -128 
C 1760 -128 2208 -7 2470 604 
C 2662 1048 2688 1568 2688 2038 
z
M 1466 -26 
C 1056 -26 813 328 723 816 
C 653 1196 653 1749 653 2109 
C 653 2604 653 3015 736 3407 
C 858 3954 1216 4121 1466 4121 
C 1728 4121 2067 3947 2189 3420 
C 2272 3054 2278 2623 2278 2109 
C 2278 1691 2278 1176 2202 797 
C 2067 96 1690 -26 1466 -26 
z
" transform="scale(0.015625)"/>
       </defs>
       <use xlink:href="#CMR17-30" transform="scale(0.996264)"/>
      </g>
     </g>
    </g>
    <g id="xtick_2">
     <g id="line2d_4">
      <path d="M 214.527273 432.54 
L 214.527273 58.32 
" clip-path="url(#p3397872f2b)" style="fill: none; stroke: #e6e6e6; stroke-width: 0.8; stroke-linecap: round"/>
     </g>
     <g id="line2d_5">
      <g>
       <use xlink:href="#m83badda823" x="214.527273" y="432.54" style="fill: #262626; stroke: #262626"/>
      </g>
     </g>
     <g id="line2d_6">
      <g>
       <use xlink:href="#m5031771914" x="214.527273" y="58.32" style="fill: #262626; stroke: #262626"/>
      </g>
     </g>
     <g id="text_2">
      <!-- $\mathdefault{1000}$ -->
      <g style="fill: #262626" transform="translate(201.650725 445.172395) scale(0.132 -0.132)">
       <defs>
        <path id="CMR17-31" d="M 1702 4083 
C 1702 4217 1696 4224 1606 4224 
C 1357 3927 979 3833 621 3820 
C 602 3820 570 3820 563 3808 
C 557 3795 557 3782 557 3648 
C 755 3648 1088 3686 1344 3839 
L 1344 467 
C 1344 243 1331 166 781 166 
L 589 166 
L 589 0 
C 896 6 1216 12 1523 12 
C 1830 12 2150 6 2458 0 
L 2458 166 
L 2266 166 
C 1715 166 1702 236 1702 467 
L 1702 4083 
z
" transform="scale(0.015625)"/>
       </defs>
       <use xlink:href="#CMR17-31" transform="scale(0.996264)"/>
       <use xlink:href="#CMR17-30" transform="translate(45.690477 0) scale(0.996264)"/>
       <use xlink:href="#CMR17-30" transform="translate(91.380954 0) scale(0.996264)"/>
       <use xlink:href="#CMR17-30" transform="translate(137.071431 0) scale(0.996264)"/>
      </g>
     </g>
    </g>
    <g id="xtick_3">
     <g id="line2d_7">
      <path d="M 290.618182 432.54 
L 290.618182 58.32 
" clip-path="url(#p3397872f2b)" style="fill: none; stroke: #e6e6e6; stroke-width: 0.8; stroke-linecap: round"/>
     </g>
     <g id="line2d_8">
      <g>
       <use xlink:href="#m83badda823" x="290.618182" y="432.54" style="fill: #262626; stroke: #262626"/>
      </g>
     </g>
     <g id="line2d_9">
      <g>
       <use xlink:href="#m5031771914" x="290.618182" y="58.32" style="fill: #262626; stroke: #262626"/>
      </g>
     </g>
     <g id="text_3">
      <!-- $\mathdefault{2000}$ -->
      <g style="fill: #262626" transform="translate(277.741634 445.172395) scale(0.132 -0.132)">
       <defs>
        <path id="CMR17-32" d="M 2669 990 
L 2554 990 
C 2490 537 2438 460 2413 422 
C 2381 371 1920 371 1830 371 
L 602 371 
C 832 620 1280 1073 1824 1596 
C 2214 1966 2669 2400 2669 3033 
C 2669 3788 2067 4224 1395 4224 
C 691 4224 262 3603 262 3027 
C 262 2777 448 2745 525 2745 
C 589 2745 781 2783 781 3007 
C 781 3206 614 3264 525 3264 
C 486 3264 448 3257 422 3244 
C 544 3788 915 4057 1306 4057 
C 1862 4057 2227 3616 2227 3033 
C 2227 2477 1901 1998 1536 1583 
L 262 147 
L 262 0 
L 2515 0 
L 2669 990 
z
" transform="scale(0.015625)"/>
       </defs>
       <use xlink:href="#CMR17-32" transform="scale(0.996264)"/>
       <use xlink:href="#CMR17-30" transform="translate(45.690477 0) scale(0.996264)"/>
       <use xlink:href="#CMR17-30" transform="translate(91.380954 0) scale(0.996264)"/>
       <use xlink:href="#CMR17-30" transform="translate(137.071431 0) scale(0.996264)"/>
      </g>
     </g>
    </g>
    <g id="xtick_4">
     <g id="line2d_10">
      <path d="M 366.709091 432.54 
L 366.709091 58.32 
" clip-path="url(#p3397872f2b)" style="fill: none; stroke: #e6e6e6; stroke-width: 0.8; stroke-linecap: round"/>
     </g>
     <g id="line2d_11">
      <g>
       <use xlink:href="#m83badda823" x="366.709091" y="432.54" style="fill: #262626; stroke: #262626"/>
      </g>
     </g>
     <g id="line2d_12">
      <g>
       <use xlink:href="#m5031771914" x="366.709091" y="58.32" style="fill: #262626; stroke: #262626"/>
      </g>
     </g>
     <g id="text_4">
      <!-- $\mathdefault{3000}$ -->
      <g style="fill: #262626" transform="translate(353.832543 445.172395) scale(0.132 -0.132)">
       <defs>
        <path id="CMR17-33" d="M 1414 2176 
C 1984 2176 2234 1673 2234 1094 
C 2234 322 1824 25 1453 25 
C 1114 25 563 193 390 691 
C 422 678 454 678 486 678 
C 640 678 755 780 755 947 
C 755 1132 614 1216 486 1216 
C 378 1216 211 1164 211 927 
C 211 335 787 -128 1466 -128 
C 2176 -128 2720 432 2720 1087 
C 2720 1718 2208 2176 1600 2246 
C 2086 2347 2554 2776 2554 3353 
C 2554 3856 2048 4224 1472 4224 
C 890 4224 378 3862 378 3347 
C 378 3123 544 3084 627 3084 
C 762 3084 877 3167 877 3334 
C 877 3500 762 3584 627 3584 
C 602 3584 570 3584 544 3571 
C 730 3999 1235 4076 1459 4076 
C 1683 4076 2106 3966 2106 3347 
C 2106 3167 2080 2851 1862 2574 
C 1670 2329 1453 2316 1242 2297 
C 1210 2297 1062 2284 1037 2284 
C 992 2278 966 2272 966 2227 
C 966 2182 973 2176 1101 2176 
L 1414 2176 
z
" transform="scale(0.015625)"/>
       </defs>
       <use xlink:href="#CMR17-33" transform="scale(0.996264)"/>
       <use xlink:href="#CMR17-30" transform="translate(45.690477 0) scale(0.996264)"/>
       <use xlink:href="#CMR17-30" transform="translate(91.380954 0) scale(0.996264)"/>
       <use xlink:href="#CMR17-30" transform="translate(137.071431 0) scale(0.996264)"/>
      </g>
     </g>
    </g>
    <g id="xtick_5">
     <g id="line2d_13">
      <path d="M 442.8 432.54 
L 442.8 58.32 
" clip-path="url(#p3397872f2b)" style="fill: none; stroke: #e6e6e6; stroke-width: 0.8; stroke-linecap: round"/>
     </g>
     <g id="line2d_14">
      <g>
       <use xlink:href="#m83badda823" x="442.8" y="432.54" style="fill: #262626; stroke: #262626"/>
      </g>
     </g>
     <g id="line2d_15">
      <g>
       <use xlink:href="#m5031771914" x="442.8" y="58.32" style="fill: #262626; stroke: #262626"/>
      </g>
     </g>
     <g id="text_5">
      <!-- $\mathdefault{4000}$ -->
      <g style="fill: #262626" transform="translate(429.923452 445.172395) scale(0.132 -0.132)">
       <defs>
        <path id="CMR17-34" d="M 2150 4147 
C 2150 4281 2144 4288 2029 4288 
L 128 1254 
L 128 1088 
L 1779 1088 
L 1779 460 
C 1779 230 1766 166 1318 166 
L 1197 166 
L 1197 0 
C 1402 12 1747 12 1965 12 
C 2182 12 2528 12 2733 0 
L 2733 166 
L 2611 166 
C 2163 166 2150 230 2150 460 
L 2150 1088 
L 2803 1088 
L 2803 1254 
L 2150 1254 
L 2150 4147 
z
M 1798 3723 
L 1798 1254 
L 256 1254 
L 1798 3723 
z
" transform="scale(0.015625)"/>
       </defs>
       <use xlink:href="#CMR17-34" transform="scale(0.996264)"/>
       <use xlink:href="#CMR17-30" transform="translate(45.690477 0) scale(0.996264)"/>
       <use xlink:href="#CMR17-30" transform="translate(91.380954 0) scale(0.996264)"/>
       <use xlink:href="#CMR17-30" transform="translate(137.071431 0) scale(0.996264)"/>
      </g>
     </g>
    </g>
    <g id="xtick_6">
     <g id="line2d_16">
      <path d="M 518.890909 432.54 
L 518.890909 58.32 
" clip-path="url(#p3397872f2b)" style="fill: none; stroke: #e6e6e6; stroke-width: 0.8; stroke-linecap: round"/>
     </g>
     <g id="line2d_17">
      <g>
       <use xlink:href="#m83badda823" x="518.890909" y="432.54" style="fill: #262626; stroke: #262626"/>
      </g>
     </g>
     <g id="line2d_18">
      <g>
       <use xlink:href="#m5031771914" x="518.890909" y="58.32" style="fill: #262626; stroke: #262626"/>
      </g>
     </g>
     <g id="text_6">
      <!-- $\mathdefault{5000}$ -->
      <g style="fill: #262626" transform="translate(506.014361 445.172395) scale(0.132 -0.132)">
       <defs>
        <path id="CMR17-35" d="M 730 3750 
C 794 3724 1056 3641 1325 3641 
C 1920 3641 2246 3961 2432 4140 
C 2432 4191 2432 4224 2394 4224 
C 2387 4224 2374 4224 2323 4198 
C 2099 4102 1837 4032 1517 4032 
C 1325 4032 1037 4055 723 4191 
C 653 4224 640 4224 634 4224 
C 602 4224 595 4217 595 4090 
L 595 2231 
C 595 2113 595 2080 659 2080 
C 691 2080 704 2093 736 2139 
C 941 2435 1222 2560 1542 2560 
C 1766 2560 2246 2415 2246 1293 
C 2246 1087 2246 716 2054 422 
C 1894 159 1645 25 1370 25 
C 947 25 518 319 403 812 
C 429 806 480 793 506 793 
C 589 793 749 838 749 1036 
C 749 1209 627 1280 506 1280 
C 358 1280 262 1190 262 1011 
C 262 454 704 -128 1382 -128 
C 2042 -128 2669 441 2669 1267 
C 2669 2054 2170 2662 1549 2662 
C 1222 2662 947 2540 730 2304 
L 730 3750 
z
" transform="scale(0.015625)"/>
       </defs>
       <use xlink:href="#CMR17-35" transform="scale(0.996264)"/>
       <use xlink:href="#CMR17-30" transform="translate(45.690477 0) scale(0.996264)"/>
       <use xlink:href="#CMR17-30" transform="translate(91.380954 0) scale(0.996264)"/>
       <use xlink:href="#CMR17-30" transform="translate(137.071431 0) scale(0.996264)"/>
      </g>
     </g>
    </g>
    <g id="xtick_7">
     <g id="line2d_19">
      <path d="M 594.981818 432.54 
L 594.981818 58.32 
" clip-path="url(#p3397872f2b)" style="fill: none; stroke: #e6e6e6; stroke-width: 0.8; stroke-linecap: round"/>
     </g>
     <g id="line2d_20">
      <g>
       <use xlink:href="#m83badda823" x="594.981818" y="432.54" style="fill: #262626; stroke: #262626"/>
      </g>
     </g>
     <g id="line2d_21">
      <g>
       <use xlink:href="#m5031771914" x="594.981818" y="58.32" style="fill: #262626; stroke: #262626"/>
      </g>
     </g>
     <g id="text_7">
      <!-- $\mathdefault{6000}$ -->
      <g style="fill: #262626" transform="translate(582.10527 445.172395) scale(0.132 -0.132)">
       <defs>
        <path id="CMR17-36" d="M 678 2198 
C 678 3712 1395 4076 1811 4076 
C 1946 4076 2272 4049 2400 3782 
C 2298 3782 2106 3782 2106 3558 
C 2106 3385 2246 3328 2336 3328 
C 2394 3328 2566 3353 2566 3571 
C 2566 3987 2246 4224 1805 4224 
C 1043 4224 243 3411 243 2011 
C 243 257 966 -128 1478 -128 
C 2099 -128 2688 431 2688 1295 
C 2688 2101 2170 2688 1517 2688 
C 1126 2688 838 2430 678 1979 
L 678 2198 
z
M 1478 25 
C 691 25 691 1212 691 1450 
C 691 1914 909 2585 1504 2585 
C 1613 2585 1926 2585 2138 2140 
C 2253 1889 2253 1624 2253 1302 
C 2253 954 2253 696 2118 438 
C 1978 173 1773 25 1478 25 
z
" transform="scale(0.015625)"/>
       </defs>
       <use xlink:href="#CMR17-36" transform="scale(0.996264)"/>
       <use xlink:href="#CMR17-30" transform="translate(45.690477 0) scale(0.996264)"/>
       <use xlink:href="#CMR17-30" transform="translate(91.380954 0) scale(0.996264)"/>
       <use xlink:href="#CMR17-30" transform="translate(137.071431 0) scale(0.996264)"/>
      </g>
     </g>
    </g>
    <g id="xtick_8">
     <g id="line2d_22">
      <path d="M 671.072727 432.54 
L 671.072727 58.32 
" clip-path="url(#p3397872f2b)" style="fill: none; stroke: #e6e6e6; stroke-width: 0.8; stroke-linecap: round"/>
     </g>
     <g id="line2d_23">
      <g>
       <use xlink:href="#m83badda823" x="671.072727" y="432.54" style="fill: #262626; stroke: #262626"/>
      </g>
     </g>
     <g id="line2d_24">
      <g>
       <use xlink:href="#m5031771914" x="671.072727" y="58.32" style="fill: #262626; stroke: #262626"/>
      </g>
     </g>
     <g id="text_8">
      <!-- $\mathdefault{7000}$ -->
      <g style="fill: #262626" transform="translate(658.196179 445.172395) scale(0.132 -0.132)">
       <defs>
        <path id="CMR17-37" d="M 2886 3955 
L 2886 4096 
L 1382 4096 
C 634 4096 621 4166 595 4288 
L 480 4288 
L 294 3104 
L 410 3104 
C 429 3226 474 3552 550 3673 
C 589 3724 1062 3724 1171 3724 
L 2579 3724 
L 1869 2670 
C 1395 1961 1069 1003 1069 166 
C 1069 89 1069 -128 1299 -128 
C 1530 -128 1530 89 1530 172 
L 1530 466 
C 1530 1514 1709 2204 2003 2644 
L 2886 3955 
z
" transform="scale(0.015625)"/>
       </defs>
       <use xlink:href="#CMR17-37" transform="scale(0.996264)"/>
       <use xlink:href="#CMR17-30" transform="translate(45.690477 0) scale(0.996264)"/>
       <use xlink:href="#CMR17-30" transform="translate(91.380954 0) scale(0.996264)"/>
       <use xlink:href="#CMR17-30" transform="translate(137.071431 0) scale(0.996264)"/>
      </g>
     </g>
    </g>
    <g id="xtick_9">
     <g id="line2d_25">
      <path d="M 747.163636 432.54 
L 747.163636 58.32 
" clip-path="url(#p3397872f2b)" style="fill: none; stroke: #e6e6e6; stroke-width: 0.8; stroke-linecap: round"/>
     </g>
     <g id="line2d_26">
      <g>
       <use xlink:href="#m83badda823" x="747.163636" y="432.54" style="fill: #262626; stroke: #262626"/>
      </g>
     </g>
     <g id="line2d_27">
      <g>
       <use xlink:href="#m5031771914" x="747.163636" y="58.32" style="fill: #262626; stroke: #262626"/>
      </g>
     </g>
     <g id="text_9">
      <!-- $\mathdefault{8000}$ -->
      <g style="fill: #262626" transform="translate(734.287088 445.172395) scale(0.132 -0.132)">
       <defs>
        <path id="CMR17-38" d="M 1741 2289 
C 2144 2494 2554 2803 2554 3298 
C 2554 3884 1990 4224 1472 4224 
C 890 4224 378 3800 378 3215 
C 378 3054 416 2777 666 2533 
C 730 2469 998 2276 1171 2154 
C 883 2006 211 1652 211 945 
C 211 282 838 -128 1459 -128 
C 2144 -128 2720 366 2720 1022 
C 2720 1607 2330 1877 2074 2051 
L 1741 2289 
z
M 902 2855 
C 851 2887 595 3086 595 3388 
C 595 3781 998 4076 1459 4076 
C 1965 4076 2336 3716 2336 3298 
C 2336 2700 1670 2359 1638 2359 
C 1632 2359 1626 2359 1574 2398 
L 902 2855 
z
M 2080 1536 
C 2176 1466 2483 1253 2483 861 
C 2483 385 2010 25 1472 25 
C 890 25 448 443 448 951 
C 448 1459 838 1884 1280 2083 
L 2080 1536 
z
" transform="scale(0.015625)"/>
       </defs>
       <use xlink:href="#CMR17-38" transform="scale(0.996264)"/>
       <use xlink:href="#CMR17-30" transform="translate(45.690477 0) scale(0.996264)"/>
       <use xlink:href="#CMR17-30" transform="translate(91.380954 0) scale(0.996264)"/>
       <use xlink:href="#CMR17-30" transform="translate(137.071431 0) scale(0.996264)"/>
      </g>
     </g>
    </g>
    <g id="text_10">
     <!-- lag -->
     <g style="fill: #262626" transform="translate(434.273746 461.692081) scale(0.144 -0.144)">
      <defs>
       <path id="CMSS17-6c" d="M 947 4416 
L 474 4416 
L 474 0 
L 947 0 
L 947 4416 
z
" transform="scale(0.015625)"/>
       <path id="CMSS17-61" d="M 2406 1789 
C 2406 2399 1978 2816 1402 2816 
C 1120 2816 813 2764 461 2559 
L 499 2133 
C 659 2250 934 2438 1395 2438 
C 1722 2438 1920 2185 1920 1782 
L 1920 1536 
C 896 1504 256 1209 256 711 
C 256 452 416 -64 947 -64 
C 1043 -64 1562 -52 1933 224 
L 1933 -13 
L 2406 -13 
L 2406 1789 
z
M 1920 824 
C 1920 711 1920 559 1728 446 
C 1562 339 1350 326 1261 326 
C 941 326 723 503 723 723 
C 723 1165 1722 1209 1920 1216 
L 1920 824 
z
" transform="scale(0.015625)"/>
       <path id="CMSS17-67" d="M 2848 2816 
C 2483 2809 2170 2739 1914 2617 
C 1702 2783 1485 2816 1338 2816 
C 781 2816 358 2356 358 1824 
C 358 1481 550 1222 563 1209 
C 448 1049 384 876 384 684 
C 384 460 474 300 544 211 
C 211 6 166 -308 166 -429 
C 166 -896 749 -1280 1498 -1280 
C 2253 -1280 2835 -896 2835 -423 
C 2835 460 1856 467 1587 467 
L 1069 467 
C 973 467 717 467 717 793 
C 717 921 774 1004 781 1011 
C 877 940 1075 832 1338 832 
C 1869 832 2310 1279 2310 1824 
C 2310 2128 2170 2349 2112 2425 
L 2131 2425 
C 2150 2425 2419 2444 2515 2444 
C 2720 2444 2739 2438 2918 2419 
L 2848 2816 
z
M 1338 1184 
C 1120 1184 813 1317 813 1824 
C 813 2375 1165 2463 1331 2463 
C 1549 2463 1856 2330 1856 1824 
C 1856 1272 1504 1184 1338 1184 
z
M 1581 0 
C 1734 0 2381 0 2381 -436 
C 2381 -711 1984 -928 1504 -928 
C 1018 -928 621 -717 621 -429 
C 621 -397 621 0 1062 0 
L 1581 0 
z
" transform="scale(0.015625)"/>
      </defs>
      <use xlink:href="#CMSS17-6c" transform="scale(0.996264)"/>
      <use xlink:href="#CMSS17-61" transform="translate(22.180723 0) scale(0.996264)"/>
      <use xlink:href="#CMSS17-67" transform="translate(67.102644 0) scale(0.996264)"/>
     </g>
    </g>
   </g>
   <g id="matplotlib.axis_2">
    <g id="ytick_1">
     <g id="line2d_28">
      <path d="M 108 411.457362 
L 777.6 411.457362 
" clip-path="url(#p3397872f2b)" style="fill: none; stroke: #e6e6e6; stroke-width: 0.8; stroke-linecap: round"/>
     </g>
     <g id="line2d_29">
      <defs>
       <path id="m1747906017" d="M 0 0 
L 4.8 0 
" style="stroke: #262626"/>
      </defs>
      <g>
       <use xlink:href="#m1747906017" x="108" y="411.457362" style="fill: #262626; stroke: #262626"/>
      </g>
     </g>
     <g id="line2d_30">
      <defs>
       <path id="me001e8f89d" d="M 0 0 
L -4.8 0 
" style="stroke: #262626"/>
      </defs>
      <g>
       <use xlink:href="#me001e8f89d" x="777.6" y="411.457362" style="fill: #262626; stroke: #262626"/>
      </g>
     </g>
     <g id="text_11">
      <!-- $\mathdefault{0.0}$ -->
      <g style="fill: #262626" transform="translate(88.04664 416.023559) scale(0.132 -0.132)">
       <defs>
        <path id="CMMI12-3a" d="M 1178 307 
C 1178 492 1024 620 870 620 
C 685 620 557 467 557 313 
C 557 128 710 0 864 0 
C 1050 0 1178 153 1178 307 
z
" transform="scale(0.015625)"/>
       </defs>
       <use xlink:href="#CMR17-30" transform="scale(0.996264)"/>
       <use xlink:href="#CMMI12-3a" transform="translate(45.690477 0) scale(0.996264)"/>
       <use xlink:href="#CMR17-30" transform="translate(72.787654 0) scale(0.996264)"/>
      </g>
     </g>
    </g>
    <g id="ytick_2">
     <g id="line2d_31">
      <path d="M 108 344.231889 
L 777.6 344.231889 
" clip-path="url(#p3397872f2b)" style="fill: none; stroke: #e6e6e6; stroke-width: 0.8; stroke-linecap: round"/>
     </g>
     <g id="line2d_32">
      <g>
       <use xlink:href="#m1747906017" x="108" y="344.231889" style="fill: #262626; stroke: #262626"/>
      </g>
     </g>
     <g id="line2d_33">
      <g>
       <use xlink:href="#me001e8f89d" x="777.6" y="344.231889" style="fill: #262626; stroke: #262626"/>
      </g>
     </g>
     <g id="text_12">
      <!-- $\mathdefault{0.2}$ -->
      <g style="fill: #262626" transform="translate(88.04664 348.798087) scale(0.132 -0.132)">
       <use xlink:href="#CMR17-30" transform="scale(0.996264)"/>
       <use xlink:href="#CMMI12-3a" transform="translate(45.690477 0) scale(0.996264)"/>
       <use xlink:href="#CMR17-32" transform="translate(72.787654 0) scale(0.996264)"/>
      </g>
     </g>
    </g>
    <g id="ytick_3">
     <g id="line2d_34">
      <path d="M 108 277.006417 
L 777.6 277.006417 
" clip-path="url(#p3397872f2b)" style="fill: none; stroke: #e6e6e6; stroke-width: 0.8; stroke-linecap: round"/>
     </g>
     <g id="line2d_35">
      <g>
       <use xlink:href="#m1747906017" x="108" y="277.006417" style="fill: #262626; stroke: #262626"/>
      </g>
     </g>
     <g id="line2d_36">
      <g>
       <use xlink:href="#me001e8f89d" x="777.6" y="277.006417" style="fill: #262626; stroke: #262626"/>
      </g>
     </g>
     <g id="text_13">
      <!-- $\mathdefault{0.4}$ -->
      <g style="fill: #262626" transform="translate(88.04664 281.572614) scale(0.132 -0.132)">
       <use xlink:href="#CMR17-30" transform="scale(0.996264)"/>
       <use xlink:href="#CMMI12-3a" transform="translate(45.690477 0) scale(0.996264)"/>
       <use xlink:href="#CMR17-34" transform="translate(72.787654 0) scale(0.996264)"/>
      </g>
     </g>
    </g>
    <g id="ytick_4">
     <g id="line2d_37">
      <path d="M 108 209.780945 
L 777.6 209.780945 
" clip-path="url(#p3397872f2b)" style="fill: none; stroke: #e6e6e6; stroke-width: 0.8; stroke-linecap: round"/>
     </g>
     <g id="line2d_38">
      <g>
       <use xlink:href="#m1747906017" x="108" y="209.780945" style="fill: #262626; stroke: #262626"/>
      </g>
     </g>
     <g id="line2d_39">
      <g>
       <use xlink:href="#me001e8f89d" x="777.6" y="209.780945" style="fill: #262626; stroke: #262626"/>
      </g>
     </g>
     <g id="text_14">
      <!-- $\mathdefault{0.6}$ -->
      <g style="fill: #262626" transform="translate(88.04664 214.347142) scale(0.132 -0.132)">
       <use xlink:href="#CMR17-30" transform="scale(0.996264)"/>
       <use xlink:href="#CMMI12-3a" transform="translate(45.690477 0) scale(0.996264)"/>
       <use xlink:href="#CMR17-36" transform="translate(72.787654 0) scale(0.996264)"/>
      </g>
     </g>
    </g>
    <g id="ytick_5">
     <g id="line2d_40">
      <path d="M 108 142.555472 
L 777.6 142.555472 
" clip-path="url(#p3397872f2b)" style="fill: none; stroke: #e6e6e6; stroke-width: 0.8; stroke-linecap: round"/>
     </g>
     <g id="line2d_41">
      <g>
       <use xlink:href="#m1747906017" x="108" y="142.555472" style="fill: #262626; stroke: #262626"/>
      </g>
     </g>
     <g id="line2d_42">
      <g>
       <use xlink:href="#me001e8f89d" x="777.6" y="142.555472" style="fill: #262626; stroke: #262626"/>
      </g>
     </g>
     <g id="text_15">
      <!-- $\mathdefault{0.8}$ -->
      <g style="fill: #262626" transform="translate(88.04664 147.12167) scale(0.132 -0.132)">
       <use xlink:href="#CMR17-30" transform="scale(0.996264)"/>
       <use xlink:href="#CMMI12-3a" transform="translate(45.690477 0) scale(0.996264)"/>
       <use xlink:href="#CMR17-38" transform="translate(72.787654 0) scale(0.996264)"/>
      </g>
     </g>
    </g>
    <g id="ytick_6">
     <g id="line2d_43">
      <path d="M 108 75.33 
L 777.6 75.33 
" clip-path="url(#p3397872f2b)" style="fill: none; stroke: #e6e6e6; stroke-width: 0.8; stroke-linecap: round"/>
     </g>
     <g id="line2d_44">
      <g>
       <use xlink:href="#m1747906017" x="108" y="75.33" style="fill: #262626; stroke: #262626"/>
      </g>
     </g>
     <g id="line2d_45">
      <g>
       <use xlink:href="#me001e8f89d" x="777.6" y="75.33" style="fill: #262626; stroke: #262626"/>
      </g>
     </g>
     <g id="text_16">
      <!-- $\mathdefault{1.0}$ -->
      <g style="fill: #262626" transform="translate(88.04664 79.896197) scale(0.132 -0.132)">
       <use xlink:href="#CMR17-31" transform="scale(0.996264)"/>
       <use xlink:href="#CMMI12-3a" transform="translate(45.690477 0) scale(0.996264)"/>
       <use xlink:href="#CMR17-30" transform="translate(72.787654 0) scale(0.996264)"/>
      </g>
     </g>
    </g>
    <g id="text_17">
     <!-- ACF -->
     <g style="fill: #262626" transform="translate(81.257113 258.352199) rotate(-90) scale(0.144 -0.144)">
      <defs>
       <path id="CMSS17-41" d="M 2272 4416 
L 1722 4416 
L 166 0 
L 653 0 
L 1101 1280 
L 2816 1280 
L 3270 0 
L 3827 0 
L 2272 4416 
z
M 2694 1638 
L 1222 1638 
C 1530 2530 1914 3638 1958 3924 
L 1965 3924 
C 2010 3663 2138 3281 2246 2956 
L 2694 1638 
z
" transform="scale(0.015625)"/>
       <path id="CMSS17-43" d="M 3501 705 
C 3072 416 2874 332 2355 332 
C 1459 332 934 1304 934 2191 
C 934 3137 1472 4070 2381 4070 
C 2790 4070 3059 3954 3386 3748 
L 3475 4255 
C 3168 4409 2778 4480 2387 4480 
C 1158 4480 397 3343 397 2191 
C 397 924 1299 -77 2323 -77 
C 2874 -77 3066 -32 3539 268 
L 3501 705 
z
" transform="scale(0.015625)"/>
       <path id="CMSS17-46" d="M 2918 1984 
L 2918 2374 
L 1101 2374 
L 1101 3993 
L 1882 3993 
C 1958 3993 2035 3987 2112 3987 
L 3168 3987 
L 3168 4403 
L 563 4403 
L 563 0 
L 1101 0 
L 1101 1984 
L 2918 1984 
z
" transform="scale(0.015625)"/>
      </defs>
      <use xlink:href="#CMSS17-41" transform="scale(0.996264)"/>
      <use xlink:href="#CMSS17-43" transform="translate(59.615401 0) scale(0.996264)"/>
      <use xlink:href="#CMSS17-46" transform="translate(119.471173 0) scale(0.996264)"/>
     </g>
    </g>
   </g>
   <g id="line2d_46">
    <path d="M 138.436364 75.33 
L 138.969 156.728347 
L 139.577727 216.094418 
L 140.262545 260.878548 
L 140.947364 292.408111 
L 141.708273 317.723146 
L 142.469182 336.340261 
L 143.306182 351.734911 
L 144.143182 363.387787 
L 145.056273 373.059207 
L 146.045455 381.007714 
L 146.958545 386.640882 
L 147.947727 391.252775 
L 149.013 395.266531 
L 150.078273 398.392157 
L 151.295727 401.164839 
L 153.198 404.369009 
L 154.263273 405.942618 
L 155.632909 407.263629 
L 157.002545 408.342381 
L 158.448273 409.050561 
L 159.437455 409.358475 
L 161.263636 409.712435 
L 163.622455 409.959806 
L 165.753 410.189602 
L 166.361727 410.12345 
L 167.350909 410.168777 
L 168.416182 410.343267 
L 170.775 410.442696 
L 172.220727 410.628922 
L 173.133818 410.723379 
L 176.557909 411.228348 
L 178.003636 411.201629 
L 180.210273 411.315221 
L 180.895091 411.262574 
L 182.264727 411.245691 
L 183.101727 411.202014 
L 184.395273 411.037511 
L 184.927909 411.043828 
L 185.688818 411.207265 
L 187.134545 411.333633 
L 188.275909 411.321788 
L 189.189 411.458963 
L 190.026 411.504671 
L 190.786909 411.571166 
L 191.395636 411.67698 
L 193.602273 411.497033 
L 195.276273 411.128058 
L 196.493727 411.389322 
L 197.939455 411.375561 
L 200.298273 411.493372 
L 202.885364 411.954663 
L 205.472455 412.216921 
L 207.070364 412.477715 
L 207.831273 412.547652 
L 210.798818 412.552008 
L 213.233727 412.159421 
L 214.603364 412.072255 
L 215.820818 411.894169 
L 217.114364 411.891883 
L 218.103545 411.76262 
L 220.005818 411.557238 
L 220.766727 411.391294 
L 221.527636 411.362375 
L 225.560455 411.629573 
L 226.321364 411.432761 
L 230.354182 411.212842 
L 232.865182 411.050521 
L 233.930455 411.211734 
L 234.995727 411.258613 
L 235.756636 411.329957 
L 237.050182 411.383082 
L 238.267636 411.578561 
L 240.854727 411.575579 
L 241.996091 411.621054 
L 242.833091 411.512017 
L 244.202727 411.533035 
L 245.268 411.628213 
L 246.028909 411.565752 
L 247.398545 411.685062 
L 248.616 411.782178 
L 249.757364 411.641609 
L 251.050909 411.519119 
L 253.105364 411.352938 
L 253.866273 411.250732 
L 255.159818 411.331455 
L 255.920727 411.374931 
L 257.442545 411.583646 
L 258.355636 411.654674 
L 261.399273 411.586696 
L 263.453727 411.836454 
L 264.899455 411.98021 
L 266.116909 412.076162 
L 266.877818 412.049572 
L 267.714818 412.123378 
L 268.627909 412.077881 
L 269.693182 411.983826 
L 272.508545 411.62747 
L 274.639091 411.860251 
L 276.237 411.781765 
L 277.226182 411.803684 
L 278.671909 411.758931 
L 281.335091 411.658635 
L 282.019909 411.78241 
L 283.161273 411.972827 
L 284.835273 411.846414 
L 286.585364 411.671905 
L 287.878909 411.84987 
L 288.639818 411.927893 
L 291.683455 412.040011 
L 293.661818 411.98923 
L 296.020636 411.963477 
L 298.227273 411.951417 
L 299.292545 412.030332 
L 300.890455 411.919773 
L 306.445091 411.772209 
L 307.890818 411.910137 
L 308.651727 411.920281 
L 310.325727 411.85167 
L 312.988909 411.891351 
L 316.793455 411.281914 
L 317.630455 411.375949 
L 319.076182 411.505848 
L 321.967636 411.167401 
L 322.804636 411.065535 
L 325.696091 410.828244 
L 326.457 410.943782 
L 327.065727 411.033779 
L 327.750545 411.214052 
L 328.587545 411.382314 
L 332.087727 411.74769 
L 332.848636 411.741236 
L 333.761727 411.713018 
L 338.175 411.479371 
L 338.631545 411.519852 
L 341.751273 411.369656 
L 344.262273 411.39528 
L 347.762455 411.424625 
L 348.903818 411.293749 
L 351.338727 411.08461 
L 355.447636 411.519631 
L 357.273818 411.311437 
L 358.110818 411.411274 
L 359.328273 411.605519 
L 361.002273 411.718885 
L 361.687091 411.808359 
L 364.274182 411.232272 
L 365.948182 411.309448 
L 367.165636 411.362718 
L 369.676636 411.285477 
L 370.741909 411.518913 
L 371.350636 411.530523 
L 372.492 411.528115 
L 373.481182 411.558321 
L 375.687818 411.405094 
L 377.894455 411.731467 
L 379.644545 411.708188 
L 384.286091 412.340315 
L 385.731818 412.115067 
L 386.797091 412.019171 
L 387.710182 412.114181 
L 389.384182 412.081269 
L 390.601636 412.164495 
L 391.743 411.969372 
L 392.503909 411.76906 
L 393.569182 411.748241 
L 394.558364 411.653458 
L 395.319273 411.473606 
L 396.232364 411.250665 
L 397.982455 411.272865 
L 398.667273 411.430809 
L 399.276 411.560138 
L 402.091364 411.737977 
L 402.776182 411.60881 
L 403.308818 411.573086 
L 404.221909 411.524764 
L 408.787364 411.034943 
L 409.852636 410.974953 
L 419.440091 411.245474 
L 420.657545 411.284041 
L 421.266273 411.311277 
L 423.701182 411.15963 
L 424.386 411.1123 
L 425.375182 411.002142 
L 427.353545 410.971321 
L 428.571 410.839267 
L 431.842909 411.014095 
L 434.049545 410.666873 
L 435.571364 410.581338 
L 436.180091 410.679925 
L 436.941 410.830539 
L 438.995455 410.955137 
L 440.365091 411.213552 
L 441.354273 411.275352 
L 442.343455 411.26981 
L 445.615364 411.383494 
L 446.985 411.443064 
L 449.496 411.664048 
L 452.615727 412.035724 
L 455.735455 411.618286 
L 456.800727 411.554021 
L 458.398636 411.517726 
L 461.061818 411.253903 
L 463.116273 410.948424 
L 464.942455 410.945586 
L 465.855545 411.049147 
L 468.442636 411.355579 
L 469.127455 411.31791 
L 470.040545 411.296811 
L 471.714545 411.358716 
L 473.236364 411.277668 
L 474.453818 411.441037 
L 477.649636 411.536674 
L 478.714909 411.570014 
L 480.388909 411.68493 
L 481.606364 411.585748 
L 482.291182 411.530551 
L 484.802182 411.574553 
L 485.715273 411.45605 
L 487.998 411.682329 
L 489.139364 411.672499 
L 491.574273 411.494016 
L 492.487364 411.335609 
L 493.172182 411.273575 
L 496.139727 411.647828 
L 500.096455 412.206961 
L 501.846545 412.255652 
L 502.455273 412.295181 
L 503.748818 412.088995 
L 505.194545 411.896425 
L 506.107636 411.864621 
L 507.249 411.823781 
L 510.977455 412.041395 
L 512.194909 411.89901 
L 513.260182 411.787878 
L 514.325455 411.751916 
L 515.542909 411.63777 
L 517.521273 411.703825 
L 520.412727 411.622746 
L 521.021455 411.62264 
L 525.282545 411.384929 
L 526.195636 411.359217 
L 528.858818 411.244448 
L 533.272091 411.788877 
L 537.076636 411.169146 
L 538.598455 411.266689 
L 540.044182 411.209955 
L 540.881182 411.30759 
L 544.457455 411.718943 
L 545.446636 411.517862 
L 546.131455 411.354055 
L 547.272818 411.165372 
L 550.849091 411.438056 
L 551.533909 411.43785 
L 553.207909 411.400734 
L 555.947182 411.026918 
L 556.784182 410.971169 
L 557.392909 410.946625 
L 560.664818 411.452685 
L 561.577909 411.327044 
L 564.012818 411.322125 
L 565.762909 411.363246 
L 567.436909 411.7062 
L 569.110909 411.739278 
L 569.795727 411.792701 
L 571.469727 411.72758 
L 573.980727 411.595411 
L 579.383182 411.939566 
L 581.742 411.57502 
L 582.350727 411.651555 
L 583.492091 411.830216 
L 584.633455 411.937847 
L 585.698727 411.871433 
L 586.840091 411.702978 
L 587.524909 411.585308 
L 588.285818 411.507826 
L 588.894545 411.529944 
L 591.177273 411.728469 
L 591.862091 411.765127 
L 593.840455 411.856073 
L 594.525273 411.902376 
L 595.514455 411.915455 
L 596.655818 412.016052 
L 597.568909 412.075372 
L 599.242909 411.975958 
L 599.851636 411.822167 
L 600.840818 411.740853 
L 601.601727 411.65232 
L 602.286545 411.511172 
L 606.319364 411.648981 
L 606.928091 411.618503 
L 608.678182 411.436897 
L 611.569636 411.615655 
L 615.222 411.198276 
L 616.059 410.962938 
L 616.667727 411.004109 
L 619.178727 411.159531 
L 621.004909 411.335084 
L 621.689727 411.181802 
L 622.298455 411.112691 
L 624.581182 411.005127 
L 626.331273 411.426802 
L 627.168273 411.514338 
L 628.994455 411.452267 
L 630.135818 411.304806 
L 632.799 411.217372 
L 633.636 411.197388 
L 634.929545 411.299723 
L 636.147 411.383423 
L 637.212273 411.192173 
L 638.581909 411.075412 
L 642.082091 410.733194 
L 643.756091 410.955135 
L 644.669182 410.99549 
L 645.658364 411.275055 
L 646.647545 411.377523 
L 650.376 410.994135 
L 650.984727 411.013006 
L 655.093636 411.059799 
L 656.843727 411.185524 
L 658.137273 411.231383 
L 659.887364 411.346589 
L 660.496091 411.432308 
L 661.865727 411.536425 
L 663.235364 411.555742 
L 666.659455 412.104259 
L 667.572545 412.220405 
L 669.398727 412.022576 
L 670.844455 411.553123 
L 673.203273 411.620769 
L 674.801182 411.749322 
L 676.094727 411.60883 
L 679.062273 411.2558 
L 679.671 411.27936 
L 680.431909 411.204216 
L 680.964545 411.247129 
L 681.877636 411.237757 
L 682.334182 411.289498 
L 683.323364 411.5112 
L 684.008182 411.5 
L 685.073455 411.156698 
L 686.367 411.028042 
L 689.334545 411.318428 
L 690.932455 411.090784 
L 691.617273 411.012349 
L 692.834727 410.990477 
L 693.747818 411.088377 
L 696.334909 411.218605 
L 696.943636 411.338147 
L 698.922 411.204278 
L 700.063364 411.201749 
L 700.900364 411.236461 
L 702.27 411.420825 
L 703.183091 411.414579 
L 704.172273 411.490768 
L 708.433364 411.23051 
L 709.118182 411.317562 
L 710.716091 411.339101 
L 711.400909 411.367912 
L 712.466182 411.454454 
L 715.890273 411.777049 
L 716.803364 411.88248 
L 719.314364 411.53039 
L 720.151364 411.413494 
L 722.510182 411.135379 
L 723.195 411.06739 
L 726.010364 410.986981 
L 727.227818 411.132741 
L 727.760455 411.196112 
L 729.434455 411.317912 
L 731.032364 411.343242 
L 732.021545 411.335499 
L 736.739182 411.484279 
L 737.271818 411.569987 
L 737.956636 411.655848 
L 739.174091 411.776092 
L 741.685091 411.714079 
L 742.369909 411.691621 
L 742.978636 411.601333 
L 744.880909 411.678676 
L 745.717909 411.807233 
L 746.859273 411.915941 
L 747.163636 411.892389 
L 747.163636 411.892389 
" clip-path="url(#p3397872f2b)" style="fill: none; stroke: #4c72b0; stroke-width: 2; stroke-linecap: round"/>
   </g>
   <g id="line2d_47">
    <path d="M 138.436364 75.33 
L 139.197273 118.435519 
L 140.110364 156.974819 
L 141.175636 192.056054 
L 142.317 222.080081 
L 143.534455 248.17902 
L 144.751909 269.622978 
L 146.045455 288.424434 
L 147.339 303.993863 
L 148.708636 317.821862 
L 150.078273 329.385031 
L 151.447909 339.179868 
L 152.893636 347.85355 
L 154.491545 356.170287 
L 155.861182 362.105114 
L 157.611273 368.725546 
L 159.133091 373.628467 
L 160.807091 378.304803 
L 162.405 382.103452 
L 164.307273 386.072366 
L 165.600818 388.201823 
L 167.274818 390.687621 
L 169.024909 392.900043 
L 172.372909 396.440052 
L 173.894727 397.850022 
L 175.416545 398.993898 
L 176.557909 399.747873 
L 183.634364 403.682462 
L 185.384455 404.459906 
L 187.667182 405.356512 
L 189.873818 406.063371 
L 199.461273 408.547952 
L 204.711545 409.331017 
L 212.092364 409.738501 
L 213.462 409.812063 
L 218.712273 410.077168 
L 220.995 410.359041 
L 223.962545 410.388195 
L 234.082636 410.129866 
L 237.887182 410.523699 
L 243.746182 410.934731 
L 249.072545 411.058318 
L 255.768545 411.278052 
L 258.355636 411.287753 
L 259.649182 411.480573 
L 260.638364 411.608181 
L 265.279909 411.828638 
L 267.334364 411.83246 
L 269.464909 411.983336 
L 277.682727 411.628255 
L 281.030727 411.72255 
L 288.639818 412.090559 
L 290.085545 412.168977 
L 292.520455 412.072394 
L 301.651364 411.433273 
L 302.792727 411.297474 
L 304.847182 411.32523 
L 308.727818 411.494673 
L 310.401818 411.610762 
L 311.467091 411.750659 
L 314.967273 411.968153 
L 316.184727 412.009412 
L 318.695727 412.007768 
L 322.804636 411.772895 
L 323.717727 411.529365 
L 325.011273 411.223167 
L 328.054909 411.197212 
L 333.533455 411.898 
L 335.055273 412.045002 
L 337.642364 412.118428 
L 339.012 412.168143 
L 340.686 412.171751 
L 344.034 412.046222 
L 345.631909 411.991401 
L 349.284273 411.947733 
L 350.425636 411.893109 
L 356.284636 412.430021 
L 358.719545 412.47014 
L 373.557273 411.73426 
L 374.774727 411.768871 
L 376.981364 411.770569 
L 382.840364 411.927333 
L 383.829545 411.873753 
L 389.155909 411.450569 
L 391.666909 411.16699 
L 395.243182 410.768008 
L 400.797818 411.031516 
L 402.776182 411.042431 
L 407.874273 411.069533 
L 409.396091 411.041962 
L 413.200636 411.198704 
L 414.646364 411.142086 
L 415.863818 410.982567 
L 418.222636 410.752902 
L 419.211818 410.69552 
L 421.190182 410.590336 
L 424.918636 410.44934 
L 426.897 410.292561 
L 430.549364 409.896369 
L 431.919 409.89484 
L 433.593 410.160237 
L 434.43 410.232303 
L 436.864909 410.28231 
L 438.691091 410.281397 
L 440.441182 410.239938 
L 443.789182 410.381161 
L 446.071909 410.677022 
L 450.409091 411.313938 
L 452.311364 411.438602 
L 454.213636 411.589169 
L 455.202818 411.61774 
L 456.724636 411.609589 
L 461.898818 411.542014 
L 468.747 411.223684 
L 470.801455 411.435996 
L 472.475455 411.540985 
L 475.747364 411.495976 
L 477.497455 411.62128 
L 480.541091 412.028025 
L 482.215091 412.177758 
L 483.813 412.084513 
L 485.030455 412.046977 
L 486.476182 411.972382 
L 488.606727 411.774575 
L 491.193818 411.595443 
L 494.313545 411.289918 
L 500.248636 411.470547 
L 503.748818 411.457979 
L 505.346727 411.504959 
L 507.857727 411.423127 
L 509.303455 411.421152 
L 511.510091 411.221633 
L 514.325455 410.962934 
L 519.575727 411.266525 
L 522.847636 411.165638 
L 523.989 411.060138 
L 526.043455 410.977642 
L 527.945727 410.928091 
L 529.848 410.961092 
L 532.739455 411.306682 
L 536.696182 411.155352 
L 544.305273 411.520483 
L 545.751 411.488493 
L 551.457818 411.759672 
L 553.055727 411.598028 
L 558.990818 411.389616 
L 562.947545 411.536946 
L 564.773727 411.629795 
L 566.980364 411.77725 
L 568.197818 411.872202 
L 569.795727 411.901781 
L 571.089273 411.871059 
L 572.458909 411.996081 
L 576.567818 412.32164 
L 578.926636 412.257827 
L 582.883364 412.128204 
L 587.068364 412.069725 
L 588.361909 412.092259 
L 589.959818 412.208377 
L 593.840455 412.289427 
L 595.894909 412.459976 
L 600.993 412.364902 
L 603.275727 412.163974 
L 605.786727 411.884258 
L 609.134727 411.767229 
L 614.917636 411.729017 
L 615.982909 411.742679 
L 619.330909 411.756222 
L 622.678909 411.655301 
L 633.559909 411.58143 
L 635.842636 411.585314 
L 638.353636 411.441915 
L 644.517 411.946699 
L 646.267091 412.059083 
L 649.462909 411.687078 
L 657.680727 410.981341 
L 664.757182 411.265575 
L 667.800818 411.619568 
L 669.322636 411.764466 
L 672.138 411.876382 
L 673.735909 411.930213 
L 676.627364 411.998657 
L 678.986182 412.04624 
L 680.431909 412.025645 
L 682.866818 411.939453 
L 685.377818 411.929565 
L 689.715 411.653386 
L 691.312909 411.752624 
L 693.976091 411.995305 
L 698.161091 412.304306 
L 703.107 411.872553 
L 705.313636 411.874763 
L 709.879091 412.322992 
L 712.314 412.450177 
L 714.901091 412.768092 
L 718.477364 412.987476 
L 720.912273 412.938496 
L 722.205818 412.970706 
L 724.184182 412.962668 
L 729.206182 412.902464 
L 735.217364 412.562249 
L 736.587 412.442477 
L 739.554545 412.351047 
L 740.772 412.417288 
L 741.761182 412.48635 
L 743.130818 412.662819 
L 746.783182 413.228907 
L 747.163636 413.225964 
L 747.163636 413.225964 
" clip-path="url(#p3397872f2b)" style="fill: none; stroke: #dd8452; stroke-width: 2; stroke-linecap: round"/>
   </g>
   <g id="line2d_48">
    <path d="M 138.436364 75.33 
L 139.273364 103.779247 
L 140.338636 131.984626 
L 141.556091 158.366019 
L 142.925727 183.209077 
L 144.447545 206.666051 
L 146.045455 227.874474 
L 147.719455 247.004281 
L 149.469545 264.356659 
L 151.067455 278.062307 
L 152.969727 292.525614 
L 154.643727 303.697603 
L 156.469909 314.437145 
L 158.524364 325.022829 
L 160.274455 332.945931 
L 162.100636 340.229329 
L 164.231182 347.816072 
L 165.905182 353.068687 
L 167.655273 357.8923 
L 170.014091 363.667724 
L 172.220727 368.493225 
L 174.275182 372.585378 
L 175.949182 375.460571 
L 178.308 379.087151 
L 181.047273 382.647431 
L 183.558273 385.468975 
L 187.210636 389.157917 
L 189.417273 390.984833 
L 193.602273 394.170991 
L 199.233 397.761473 
L 202.352727 399.402208 
L 207.374727 401.761785 
L 209.429182 402.479824 
L 213.994636 404.238598 
L 218.255727 405.574581 
L 229.517182 407.317369 
L 232.560818 407.572399 
L 235.452273 407.889994 
L 245.952818 409.071024 
L 249.453 409.562231 
L 252.953182 409.950668 
L 255.996818 410.226274 
L 258.051273 410.407389 
L 268.932273 410.970866 
L 272.508545 411.425903 
L 274.715182 411.549162 
L 278.291455 411.574413 
L 280.117636 411.639191 
L 284.074364 411.816251 
L 286.433182 411.717344 
L 289.400727 411.597294 
L 302.944909 411.682265 
L 306.369 411.408865 
L 308.119091 411.198953 
L 314.586818 410.830542 
L 322.272 410.286441 
L 330.185455 410.494575 
L 331.935545 410.476889 
L 337.718455 410.880854 
L 340.914273 411.183629 
L 349.436455 411.389958 
L 351.490909 411.399106 
L 360.013091 411.705623 
L 363.132818 411.601148 
L 370.970182 411.616437 
L 373.481182 411.529465 
L 375.535636 411.387583 
L 378.351 411.193891 
L 388.014545 410.852679 
L 391.971273 411.081076 
L 394.254 411.197614 
L 400.036909 411.394322 
L 401.939182 411.431614 
L 404.221909 411.550111 
L 418.146545 411.628596 
L 420.201 411.797373 
L 426.364364 412.32775 
L 429.864545 412.42668 
L 431.919 412.4508 
L 434.201727 412.394549 
L 440.973818 412.439004 
L 445.995818 412.875375 
L 452.767909 412.9928 
L 456.192 412.802348 
L 458.398636 412.742341 
L 460.757455 412.677345 
L 463.496727 412.549922 
L 468.899182 412.541962 
L 471.181909 412.608808 
L 475.899545 412.605285 
L 480.008455 412.338794 
L 483.889091 412.362009 
L 495.911455 412.402074 
L 499.639909 412.165051 
L 506.792455 412.342617 
L 512.271 412.770186 
L 519.727909 412.897872 
L 525.130364 412.915014 
L 528.250091 412.869963 
L 533.272091 412.781771 
L 535.554818 412.646028 
L 543.848727 412.065061 
L 555.110182 411.398857 
L 560.969182 411.618245 
L 564.545455 411.642854 
L 570.784909 411.789506 
L 575.730818 411.672329 
L 577.100455 411.706887 
L 580.068 411.792867 
L 589.275 411.67799 
L 597.264545 411.079131 
L 601.297364 410.836355 
L 603.275727 410.823179 
L 607.004182 411.186933 
L 609.819545 411.461091 
L 611.417455 411.582858 
L 613.624091 411.656994 
L 619.102636 411.266718 
L 622.146273 410.988393 
L 633.712091 410.348919 
L 635.614364 410.369953 
L 638.353636 410.283482 
L 641.777727 410.281431 
L 645.658364 410.480542 
L 648.017182 410.667511 
L 653.800091 410.894692 
L 656.006727 410.955617 
L 659.126455 411.108524 
L 666.355091 411.377704 
L 676.323 411.142018 
L 679.518818 411.121407 
L 681.192818 411.122935 
L 684.312545 410.927823 
L 691.160727 410.381418 
L 695.421818 410.561181 
L 700.063364 410.976017 
L 702.726545 411.071822 
L 705.618 411.020092 
L 707.976818 411.037713 
L 710.031273 411.048772 
L 712.618364 410.912522 
L 722.966727 410.715995 
L 728.293091 410.472296 
L 731.945455 410.352808 
L 737.424 410.123217 
L 741.456818 410.309565 
L 747.163636 410.611827 
L 747.163636 410.611827 
" clip-path="url(#p3397872f2b)" style="fill: none; stroke: #55a868; stroke-width: 2; stroke-linecap: round"/>
   </g>
   <g id="line2d_49">
    <path d="M 138.436364 75.33 
L 139.349455 97.365082 
L 140.490818 119.337952 
L 141.860455 141.382445 
L 143.458364 163.397187 
L 145.208455 184.372657 
L 147.034636 203.562611 
L 148.936909 221.218099 
L 150.915273 237.534485 
L 152.893636 252.139447 
L 154.948091 265.664376 
L 157.078636 278.241421 
L 159.361364 290.380253 
L 161.568 300.906683 
L 163.698545 309.993405 
L 165.753 317.936122 
L 167.807455 324.997232 
L 170.014091 331.908312 
L 172.372909 338.670848 
L 174.503455 344.05445 
L 177.090545 349.920068 
L 179.221091 354.225007 
L 182.112545 359.496804 
L 184.319182 363.026453 
L 186.678 366.505031 
L 189.873818 370.909251 
L 192.917455 374.657819 
L 195.961091 378.059633 
L 198.700364 380.699687 
L 201.211364 382.895565 
L 204.939818 385.764791 
L 210.418364 389.480473 
L 213.994636 391.415682 
L 217.951364 393.623135 
L 220.462364 394.899433 
L 223.049455 396.060337 
L 235.756636 400.436531 
L 240.626455 401.982244 
L 243.061364 402.712542 
L 250.213909 404.070372 
L 253.485818 404.706848 
L 257.746909 405.591328 
L 272.508545 406.91684 
L 275.171727 407.411751 
L 280.041545 408.003071 
L 304.923273 409.6424 
L 307.814727 409.975166 
L 311.695364 410.29984 
L 314.434636 410.49406 
L 323.109 411.17432 
L 327.522273 411.247214 
L 332.848636 411.447763 
L 338.251091 411.382826 
L 348.066818 411.48277 
L 356.512909 411.114099 
L 362.067545 410.780324 
L 364.654636 410.846151 
L 377.742273 411.375062 
L 399.276 411.069764 
L 404.450182 411.44037 
L 413.428909 411.400485 
L 422.788091 410.642369 
L 429.636273 410.326506 
L 432.527727 410.278005 
L 437.778 410.483348 
L 440.365091 410.359735 
L 456.724636 409.246934 
L 466.920818 408.796016 
L 472.475455 408.559278 
L 485.182636 408.441997 
L 487.389273 408.469899 
L 489.900273 408.450321 
L 496.368 408.456441 
L 502.074818 408.668876 
L 511.281818 409.125942 
L 514.249364 409.255301 
L 521.173636 409.732792 
L 523.836818 409.767247 
L 538.902818 410.35768 
L 542.555182 410.601506 
L 546.892364 410.736558 
L 549.479455 410.64568 
L 551.533909 410.597719 
L 560.436545 410.487503 
L 565.002 410.490118 
L 582.883364 411.27791 
L 584.861727 411.347889 
L 586.992273 411.397097 
L 590.949 411.278106 
L 594.144818 411.251598 
L 596.808 411.194322 
L 600.916909 411.185976 
L 605.330182 411.14615 
L 607.993364 411.178165 
L 614.841545 411.314811 
L 616.515545 411.281965 
L 621.765818 411.140294 
L 627.853091 411.05587 
L 651.213 411.432887 
L 656.919818 411.211212 
L 667.496455 411.326103 
L 687.432273 410.136172 
L 693.215182 409.673446 
L 709.726909 409.826351 
L 714.520636 410.047046 
L 720.836182 409.821742 
L 722.662364 409.760484 
L 731.032364 409.788651 
L 743.967818 409.714305 
L 747.163636 409.958593 
L 747.163636 409.958593 
" clip-path="url(#p3397872f2b)" style="fill: none; stroke: #c44e52; stroke-width: 2; stroke-linecap: round"/>
   </g>
   <g id="line2d_50">
    <path d="M 138.436364 75.33 
L 139.349455 92.184718 
L 140.566909 110.480752 
L 142.012636 128.873131 
L 143.762727 148.261863 
L 145.588909 166.044461 
L 147.643364 183.859606 
L 150.002182 202.258077 
L 152.132727 217.214213 
L 154.415455 231.693211 
L 156.698182 244.836351 
L 159.133091 257.549664 
L 161.568 269.132663 
L 164.079 280.047217 
L 166.59 289.96569 
L 169.177091 299.381031 
L 171.840273 308.254294 
L 173.970818 314.689435 
L 176.710091 322.242941 
L 179.145 328.342355 
L 181.808182 334.396337 
L 184.775727 340.567627 
L 187.971545 346.653001 
L 190.558636 351.095687 
L 194.058818 356.574063 
L 196.950273 360.693829 
L 199.613455 364.247647 
L 202.581 367.86679 
L 205.168091 370.790555 
L 207.526909 373.174192 
L 211.407545 376.699756 
L 215.516455 380.245242 
L 219.701455 383.529836 
L 222.592909 385.597284 
L 229.745455 390.185792 
L 235.832727 393.489104 
L 239.485091 395.238266 
L 241.843909 396.211651 
L 247.855091 398.457895 
L 251.355273 399.742465 
L 256.377273 401.378896 
L 268.019182 404.725093 
L 274.030364 405.864208 
L 279.813273 406.955589 
L 284.074364 407.76265 
L 287.498455 408.199591 
L 292.596545 408.78605 
L 312.456273 410.248737 
L 321.587182 410.643885 
L 328.891909 410.933488 
L 332.163818 410.938292 
L 335.816182 411.004457 
L 339.696818 410.948511 
L 346.392818 410.861148 
L 355.523727 410.727767 
L 357.958636 410.641171 
L 362.980636 410.824417 
L 365.872091 410.943101 
L 369.752727 410.959962 
L 377.057455 410.755287 
L 384.362182 410.322862 
L 395.243182 409.739535 
L 398.362909 409.704082 
L 402.471818 409.738242 
L 404.982818 409.752964 
L 413.657182 409.607047 
L 422.559818 409.62092 
L 427.886182 409.562013 
L 434.506091 409.583663 
L 437.625818 409.486717 
L 455.431091 409.257739 
L 462.127091 409.053527 
L 485.258727 408.87277 
L 491.726455 408.563212 
L 495.531 408.417943 
L 503.520545 408.537795 
L 515.238545 409.112882 
L 518.510455 409.146909 
L 522.467182 409.360504 
L 527.184818 409.564407 
L 531.978545 409.882961 
L 537.989727 410.437602 
L 546.359727 410.941603 
L 548.870727 411.13221 
L 553.816636 411.513039 
L 557.621182 411.692821 
L 560.664818 411.841828 
L 565.002 411.96193 
L 570.632727 412.176716 
L 577.937455 412.57482 
L 583.948636 412.642457 
L 589.275 412.684516 
L 591.633818 412.686109 
L 594.297 412.714949 
L 600.308182 413.106362 
L 605.406273 413.436587 
L 618.341727 414.097728 
L 630.059727 415.031354 
L 634.625182 415.122211 
L 638.734091 415.33008 
L 645.354 415.522679 
L 647.104091 415.476529 
L 650.908636 415.211385 
L 654.408818 415.009129 
L 666.583364 414.496122 
L 678.757909 414.057015 
L 681.877636 413.934292 
L 691.617273 413.67223 
L 694.737 413.616738 
L 699.987273 413.644346 
L 706.683273 413.8264 
L 711.248727 414.038483 
L 714.444545 414.07266 
L 720.531818 414.046336 
L 724.412455 414.211795 
L 727.227818 414.181761 
L 737.195727 413.825104 
L 740.848091 413.694108 
L 747.163636 413.519992 
L 747.163636 413.519992 
" clip-path="url(#p3397872f2b)" style="fill: none; stroke: #8172b3; stroke-width: 2; stroke-linecap: round"/>
   </g>
   <g id="line2d_51">
    <path d="M 138.436364 75.33 
L 139.425545 89.602357 
L 140.719091 104.956248 
L 142.317 121.267003 
L 144.143182 137.663075 
L 146.197636 154.136624 
L 148.404273 170.082795 
L 150.839182 186.041046 
L 153.274091 200.602544 
L 155.937273 215.149126 
L 158.524364 227.981373 
L 161.111455 239.740247 
L 163.850727 251.165661 
L 166.666091 261.934087 
L 169.405364 271.490292 
L 172.296818 280.761567 
L 175.264364 289.473494 
L 178.612364 298.581839 
L 181.732091 306.437769 
L 185.080091 314.244657 
L 187.971545 320.533062 
L 191.091273 326.770203 
L 194.591455 333.246106 
L 198.243818 339.477925 
L 202.657091 346.473907 
L 205.776818 350.957259 
L 209.277 355.522339 
L 212.244545 359.053807 
L 216.125182 363.30954 
L 219.244909 366.414904 
L 223.734273 370.57961 
L 227.006182 373.363222 
L 231.039 376.426156 
L 234.082636 378.547762 
L 238.191545 381.173328 
L 247.474636 386.344481 
L 251.127 388.132775 
L 258.66 391.383727 
L 268.780091 395.167166 
L 278.215364 397.741719 
L 284.378727 399.015015 
L 293.357455 400.887924 
L 302.792727 403.417285 
L 308.195182 404.610628 
L 317.706545 406.484872 
L 325.163455 407.702606 
L 333.533455 408.486681 
L 340.001182 408.785298 
L 355.523727 409.141442 
L 366.404727 409.977188 
L 371.502818 410.350968 
L 373.633364 410.370607 
L 379.492364 410.24348 
L 385.199182 410.294738 
L 392.960455 410.188878 
L 406.580727 410.113078 
L 412.668 410.14177 
L 419.287909 410.143264 
L 424.157727 410.338499 
L 429.636273 410.71184 
L 432.223364 410.783843 
L 446.985 410.954318 
L 459.463909 410.961374 
L 465.170727 411.255769 
L 474.986455 411.34113 
L 478.182273 411.319557 
L 486.704455 411.560476 
L 491.878636 411.740583 
L 494.922273 411.717803 
L 498.726818 411.779781 
L 510.977455 412.336307 
L 522.923727 413.252297 
L 526.728273 413.662158 
L 533.196 414.085281 
L 537.837545 414.455608 
L 542.250818 414.653656 
L 549.099 414.684913 
L 559.371273 414.468827 
L 569.034818 413.945905 
L 586.840091 413.63395 
L 591.177273 413.463938 
L 610.808727 413.010184 
L 614.537182 412.799328 
L 634.396909 412.359853 
L 646.114909 411.738449 
L 660.191727 411.942279 
L 669.094364 411.783883 
L 674.420727 411.642201 
L 679.062273 411.599824 
L 687.660545 411.377779 
L 693.519545 411.31964 
L 700.824273 411.569092 
L 703.563545 411.640789 
L 719.923091 411.794382 
L 727.151727 411.626406 
L 736.130455 411.724664 
L 744.043909 411.798155 
L 747.163636 411.843434 
L 747.163636 411.843434 
" clip-path="url(#p3397872f2b)" style="fill: none; stroke: #937860; stroke-width: 2; stroke-linecap: round"/>
   </g>
   <g id="line2d_52">
    <path d="M 138.436364 75.33 
L 139.501636 85.535051 
L 140.947364 97.211176 
L 142.773545 110.101821 
L 144.828 123.042943 
L 147.110727 136.078208 
L 149.545636 148.686659 
L 152.132727 160.922571 
L 154.948091 173.251528 
L 157.991727 185.565028 
L 161.035364 196.956239 
L 164.459455 208.983056 
L 167.655273 219.380554 
L 171.079364 229.759141 
L 175.036091 241.043411 
L 178.384091 249.91599 
L 181.884273 258.56341 
L 185.156182 266.055404 
L 188.732455 273.67006 
L 192.689182 281.563108 
L 197.178545 290.005648 
L 200.678727 296.123374 
L 204.331091 302.0903 
L 207.603 307.087866 
L 211.407545 312.54793 
L 216.581727 319.566676 
L 221.223273 325.433362 
L 224.723455 329.493729 
L 229.060636 334.170977 
L 235.147909 340.321307 
L 242.376545 347.113227 
L 246.485455 350.668283 
L 251.887909 355.007029 
L 256.529455 358.439324 
L 262.084091 362.35435 
L 265.660364 364.560548 
L 273.954273 369.267395 
L 279.661091 372.252505 
L 285.291818 374.757884 
L 291.911727 377.543769 
L 299.901273 380.615032 
L 308.803909 383.582324 
L 330.261545 389.752986 
L 341.294727 392.514845 
L 345.023182 393.338022 
L 355.219364 395.520002 
L 360.393545 396.773602 
L 368.535273 398.38413 
L 377.285727 399.769501 
L 380.557636 400.108568 
L 385.579636 400.425188 
L 389.916818 400.7503 
L 403.308818 401.921738 
L 407.493818 402.264899 
L 433.440818 405.112948 
L 451.017818 407.204172 
L 465.627273 408.666121 
L 469.203545 408.888935 
L 498.194182 410.841605 
L 504.890182 410.965267 
L 517.901727 411.210499 
L 526.956545 411.360979 
L 532.587273 411.515494 
L 541.033364 411.731542 
L 549.783818 411.840686 
L 568.121727 411.687408 
L 578.926636 411.200197 
L 585.546545 410.940092 
L 610.276091 410.074737 
L 617.961273 409.663819 
L 632.190273 409.578526 
L 643.375636 409.789387 
L 646.495364 409.901311 
L 656.539364 410.361963 
L 662.322273 410.529254 
L 667.496455 410.664154 
L 674.725091 410.7262 
L 685.377818 410.67303 
L 693.9 410.708887 
L 711.933545 410.903322 
L 721.292727 411.174234 
L 725.249455 411.326036 
L 733.619455 411.557277 
L 742.826455 411.558226 
L 747.163636 411.573763 
L 747.163636 411.573763 
" clip-path="url(#p3397872f2b)" style="fill: none; stroke: #da8bc3; stroke-width: 2; stroke-linecap: round"/>
   </g>
   <g id="line2d_53">
    <path d="M 138.436364 75.33 
L 139.577727 83.070493 
L 141.175636 92.376383 
L 143.154 102.590205 
L 145.512818 113.545336 
L 148.099909 124.492189 
L 150.991364 135.775648 
L 153.958909 146.503076 
L 157.230818 157.483057 
L 160.807091 168.678419 
L 164.535545 179.609541 
L 168.644455 190.917688 
L 172.677273 201.337316 
L 176.557909 210.847395 
L 180.742909 220.503701 
L 184.699636 229.064018 
L 188.123727 236.016379 
L 192.232636 243.892122 
L 196.569818 251.730436 
L 200.830909 259.028083 
L 205.776818 267.047912 
L 210.570545 274.432434 
L 216.201273 282.643648 
L 220.842818 288.997247 
L 225.256091 294.716625 
L 230.049818 300.595372 
L 234.539182 305.699219 
L 240.626455 312.277632 
L 245.952818 317.686762 
L 251.127 322.731792 
L 256.225091 327.391837 
L 259.801364 330.42635 
L 266.040818 335.411957 
L 270.758455 338.970042 
L 275.704364 342.416027 
L 281.030727 345.922677 
L 287.574545 350.004718 
L 292.216091 352.713361 
L 298.683818 356.367706 
L 309.108273 362.000415 
L 314.130273 364.412103 
L 322.043727 367.989221 
L 327.978818 370.414496 
L 337.109727 373.951428 
L 350.73 378.541688 
L 361.154455 381.578542 
L 368.459182 383.4052 
L 374.394273 384.793768 
L 379.340182 385.828664 
L 392.884364 388.586085 
L 403.993636 390.564813 
L 441.810818 396.887261 
L 455.431091 398.748497 
L 461.822727 399.532778 
L 492.183 402.965449 
L 499.259455 403.45935 
L 523.228091 404.752507 
L 546.131455 405.203679 
L 561.501818 405.822831 
L 575.730818 406.536807 
L 588.666273 407.040396 
L 616.211182 408.718047 
L 629.603182 409.64579 
L 636.375273 409.938728 
L 644.136545 410.215764 
L 658.974273 410.927098 
L 676.627364 411.666375 
L 682.258091 411.91233 
L 699.302455 412.496472 
L 704.096182 412.607302 
L 723.499364 413.170145 
L 747.163636 413.365378 
L 747.163636 413.365378 
" clip-path="url(#p3397872f2b)" style="fill: none; stroke: #8c8c8c; stroke-width: 2; stroke-linecap: round"/>
   </g>
   <g id="patch_3">
    <path d="M 108 432.54 
L 108 58.32 
" style="fill: none; stroke: #000000; stroke-linejoin: miter; stroke-linecap: square"/>
   </g>
   <g id="patch_4">
    <path d="M 777.6 432.54 
L 777.6 58.32 
" style="fill: none; stroke: #000000; stroke-linejoin: miter; stroke-linecap: square"/>
   </g>
   <g id="patch_5">
    <path d="M 108 432.54 
L 777.6 432.54 
" style="fill: none; stroke: #000000; stroke-linejoin: miter; stroke-linecap: square"/>
   </g>
   <g id="patch_6">
    <path d="M 108 58.32 
L 777.6 58.32 
" style="fill: none; stroke: #000000; stroke-linejoin: miter; stroke-linecap: square"/>
   </g>
   <g id="text_18">
    <!-- Autocorrelation function -->
    <g style="fill: #262626" transform="translate(363.62556 52.32) scale(0.16 -0.16)">
     <defs>
      <path id="CMSS17-75" d="M 2618 2752 
L 2131 2752 
L 2131 976 
C 2131 500 1786 307 1421 307 
C 998 307 960 448 960 712 
L 960 2752 
L 474 2752 
L 474 680 
C 474 179 646 -64 1088 -64 
C 1306 -64 1798 -13 2144 307 
L 2144 -13 
L 2618 -13 
L 2618 2752 
z
" transform="scale(0.015625)"/>
      <path id="CMSS17-74" d="M 1069 2380 
L 1901 2380 
L 1901 2752 
L 1069 2752 
L 1069 3520 
L 614 3520 
L 614 2752 
L 109 2752 
L 109 2380 
L 602 2380 
L 602 751 
C 602 384 685 -64 1107 -64 
C 1427 -64 1722 25 2003 172 
L 1901 551 
C 1747 416 1562 339 1363 339 
C 1082 339 1069 699 1069 860 
L 1069 2380 
z
" transform="scale(0.015625)"/>
      <path id="CMSS17-6f" d="M 2829 1356 
C 2829 2175 2221 2816 1504 2816 
C 768 2816 173 2156 173 1356 
C 173 544 787 -64 1498 -64 
C 2227 -64 2829 563 2829 1356 
z
M 1504 339 
C 1050 339 659 710 659 1407 
C 659 2150 1114 2425 1498 2425 
C 1914 2425 2342 2124 2342 1407 
C 2342 684 1926 339 1504 339 
z
" transform="scale(0.015625)"/>
      <path id="CMSS17-63" d="M 2464 2540 
C 2464 2585 2170 2713 2093 2739 
C 1882 2816 1613 2816 1542 2816 
C 710 2816 211 2092 211 1363 
C 211 595 768 -64 1517 -64 
C 1946 -64 2253 76 2502 243 
L 2464 665 
C 2189 454 1869 339 1523 339 
C 1024 339 698 774 698 1369 
C 698 1830 909 2412 1549 2412 
C 1901 2412 2099 2342 2394 2143 
L 2464 2540 
z
" transform="scale(0.015625)"/>
      <path id="CMSS17-72" d="M 954 1369 
C 954 1974 1395 2379 1958 2392 
L 1958 2816 
C 1549 2809 1165 2604 934 2270 
L 934 2783 
L 480 2783 
L 480 0 
L 954 0 
L 954 1369 
z
" transform="scale(0.015625)"/>
      <path id="CMSS17-65" d="M 2502 1375 
C 2502 1587 2490 2001 2285 2347 
C 2061 2713 1696 2816 1421 2816 
C 755 2816 192 2184 192 1363 
C 192 579 774 -64 1510 -64 
C 1798 -64 2150 19 2470 249 
C 2470 275 2458 414 2451 421 
C 2451 433 2432 629 2432 655 
C 2125 408 1773 326 1517 326 
C 1107 326 666 667 646 1375 
L 2502 1375 
z
M 698 1728 
C 781 2086 1062 2425 1421 2425 
C 1517 2425 1965 2412 2080 1728 
L 698 1728 
z
" transform="scale(0.015625)"/>
      <path id="CMSS17-69" d="M 979 4224 
L 442 4224 
L 442 3686 
L 979 3686 
L 979 4224 
z
M 947 2752 
L 474 2752 
L 474 0 
L 947 0 
L 947 2752 
z
" transform="scale(0.015625)"/>
      <path id="CMSS17-6e" d="M 2618 1878 
C 2618 2283 2522 2816 1798 2816 
C 1389 2816 1120 2604 941 2386 
L 941 2783 
L 474 2783 
L 474 0 
L 960 0 
L 960 1556 
C 960 1962 1114 2425 1549 2425 
C 2112 2425 2131 2045 2131 1826 
L 2131 0 
L 2618 0 
L 2618 1878 
z
" transform="scale(0.015625)"/>
      <path id="CMSS17-66" d="M 1075 2380 
L 1722 2380 
L 1722 2752 
L 1062 2752 
L 1062 3563 
C 1062 4013 1408 4089 1606 4089 
C 1670 4089 1850 4089 2080 4007 
L 2080 4428 
C 1933 4460 1754 4480 1613 4480 
C 1018 4480 602 3994 602 3366 
L 602 2752 
L 160 2752 
L 160 2380 
L 602 2380 
L 602 0 
L 1075 0 
L 1075 2380 
z
" transform="scale(0.015625)"/>
     </defs>
     <use xlink:href="#CMSS17-41" transform="scale(0.996264)"/>
     <use xlink:href="#CMSS17-75" transform="translate(62.217855 0) scale(0.996264)"/>
     <use xlink:href="#CMSS17-74" transform="translate(110.422798 0) scale(0.996264)"/>
     <use xlink:href="#CMSS17-6f" transform="translate(144.254365 0) scale(0.996264)"/>
     <use xlink:href="#CMSS17-63" transform="translate(193.700427 0) scale(0.996264)"/>
     <use xlink:href="#CMSS17-6f" transform="translate(235.339249 0) scale(0.996264)"/>
     <use xlink:href="#CMSS17-72" transform="translate(279.580419 0) scale(0.996264)"/>
     <use xlink:href="#CMSS17-72" transform="translate(311.490191 0) scale(0.996264)"/>
     <use xlink:href="#CMSS17-65" transform="translate(343.399964 0) scale(0.996264)"/>
     <use xlink:href="#CMSS17-6c" transform="translate(385.038786 0) scale(0.996264)"/>
     <use xlink:href="#CMSS17-61" transform="translate(407.219509 0) scale(0.996264)"/>
     <use xlink:href="#CMSS17-74" transform="translate(452.141429 0) scale(0.996264)"/>
     <use xlink:href="#CMSS17-69" transform="translate(485.972996 0) scale(0.996264)"/>
     <use xlink:href="#CMSS17-6f" transform="translate(508.153719 0) scale(0.996264)"/>
     <use xlink:href="#CMSS17-6e" transform="translate(554.997343 0) scale(0.996264)"/>
     <use xlink:href="#CMSS17-66" transform="translate(634.431399 0) scale(0.996264)"/>
     <use xlink:href="#CMSS17-75" transform="translate(663.058057 0) scale(0.996264)"/>
     <use xlink:href="#CMSS17-6e" transform="translate(711.263001 0) scale(0.996264)"/>
     <use xlink:href="#CMSS17-63" transform="translate(759.467944 0) scale(0.996264)"/>
     <use xlink:href="#CMSS17-74" transform="translate(801.106766 0) scale(0.996264)"/>
     <use xlink:href="#CMSS17-69" transform="translate(834.938332 0) scale(0.996264)"/>
     <use xlink:href="#CMSS17-6f" transform="translate(857.119055 0) scale(0.996264)"/>
     <use xlink:href="#CMSS17-6e" transform="translate(903.962679 0) scale(0.996264)"/>
    </g>
   </g>
   <g id="legend_1">
    <g id="patch_7">
     <path d="M 659.836347 286.21249 
L 765.504 286.21249 
Q 768.96 286.21249 768.96 282.75649 
L 768.96 70.416 
Q 768.96 66.96 765.504 66.96 
L 659.836347 66.96 
Q 656.380347 66.96 656.380347 70.416 
L 656.380347 282.75649 
Q 656.380347 286.21249 659.836347 286.21249 
z
" style="fill: #ffffff; opacity: 0.8; stroke: #cccccc; stroke-width: 0.8; stroke-linejoin: miter"/>
    </g>
    <g id="text_19">
     <!-- boundary spin -->
     <g style="fill: #262626" transform="translate(671.891985 83.834625) scale(0.144 -0.144)">
      <defs>
       <path id="CMSS17-62" d="M 954 4416 
L 480 4416 
L 480 -13 
L 966 -13 
L 966 275 
C 1210 38 1504 -64 1766 -64 
C 2381 -64 2880 559 2880 1382 
C 2880 2133 2496 2816 1926 2816 
C 1523 2816 1165 2649 954 2476 
L 954 4416 
z
M 966 2095 
C 1107 2276 1306 2425 1587 2425 
C 1965 2425 2394 2146 2394 1382 
C 2394 566 1882 326 1530 326 
C 1402 326 1267 358 1139 468 
C 966 624 966 721 966 812 
L 966 2095 
z
" transform="scale(0.015625)"/>
       <path id="CMSS17-64" d="M 2611 4416 
L 2138 4416 
L 2138 2495 
C 1939 2662 1613 2816 1254 2816 
C 672 2816 211 2179 211 1375 
C 211 572 666 -64 1235 -64 
C 1677 -64 1971 172 2125 307 
L 2125 -13 
L 2611 -13 
L 2611 4416 
z
M 2125 851 
C 2125 760 2125 663 1926 488 
C 1798 378 1645 326 1498 326 
C 1152 326 698 585 698 1369 
C 698 2185 1210 2425 1562 2425 
C 1798 2425 1990 2308 2125 2114 
L 2125 851 
z
" transform="scale(0.015625)"/>
       <path id="CMSS17-79" d="M 2675 2752 
L 2176 2752 
C 1632 1293 1446 701 1434 383 
L 1427 383 
C 1408 695 1126 1459 902 2006 
L 602 2752 
L 83 2752 
L 1216 14 
C 1146 -177 1043 -464 1011 -527 
C 870 -884 774 -884 672 -884 
C 646 -884 442 -877 211 -807 
L 250 -1229 
C 410 -1261 570 -1280 685 -1280 
C 845 -1280 1165 -1280 1459 -495 
L 2675 2752 
z
" transform="scale(0.015625)"/>
       <path id="CMSS17-73" d="M 2061 2623 
C 1683 2803 1389 2816 1197 2816 
C 742 2816 198 2655 198 2009 
C 198 1363 902 1222 1094 1183 
C 1389 1126 1715 1062 1715 742 
C 1715 339 1254 339 1171 339 
C 915 339 563 409 243 639 
L 166 211 
C 531 0 883 -64 1178 -64 
C 1965 -64 2163 416 2163 780 
C 2163 1094 1984 1305 1862 1401 
C 1651 1567 1574 1587 1050 1695 
C 960 1708 646 1779 646 2067 
C 646 2431 1050 2431 1139 2431 
C 1555 2431 1811 2303 1984 2207 
L 2061 2623 
z
" transform="scale(0.015625)"/>
       <path id="CMSS17-70" d="M 966 275 
C 1178 70 1466 -64 1773 -64 
C 2368 -64 2880 553 2880 1382 
C 2880 2147 2496 2816 1946 2816 
C 1626 2816 1242 2700 954 2470 
L 954 2764 
L 480 2764 
L 480 -1280 
L 966 -1280 
L 966 275 
z
M 966 2088 
C 1018 2166 1235 2412 1587 2412 
C 2035 2412 2394 1946 2394 1382 
C 2394 741 1958 326 1530 326 
C 1402 326 1267 358 1139 468 
C 966 624 966 721 966 812 
L 966 2088 
z
" transform="scale(0.015625)"/>
      </defs>
      <use xlink:href="#CMSS17-62" transform="scale(0.996264)"/>
      <use xlink:href="#CMSS17-6f" transform="translate(50.807382 0) scale(0.996264)"/>
      <use xlink:href="#CMSS17-75" transform="translate(97.651005 0) scale(0.996264)"/>
      <use xlink:href="#CMSS17-6e" transform="translate(145.855949 0) scale(0.996264)"/>
      <use xlink:href="#CMSS17-64" transform="translate(194.060892 0) scale(0.996264)"/>
      <use xlink:href="#CMSS17-61" transform="translate(242.265835 0) scale(0.996264)"/>
      <use xlink:href="#CMSS17-72" transform="translate(284.585301 0) scale(0.996264)"/>
      <use xlink:href="#CMSS17-79" transform="translate(316.495074 0) scale(0.996264)"/>
      <use xlink:href="#CMSS17-73" transform="translate(390.724328 0) scale(0.996264)"/>
      <use xlink:href="#CMSS17-70" transform="translate(426.63787 0) scale(0.996264)"/>
      <use xlink:href="#CMSS17-69" transform="translate(474.842814 0) scale(0.996264)"/>
      <use xlink:href="#CMSS17-6e" transform="translate(497.023537 0) scale(0.996264)"/>
     </g>
    </g>
    <g id="line2d_54">
     <path d="M 663.292347 101.312152 
L 680.572347 101.312152 
L 697.852347 101.312152 
" style="fill: none; stroke: #4c72b0; stroke-width: 2; stroke-linecap: round"/>
    </g>
    <g id="text_20">
     <!-- $j = 0.5$ -->
     <g style="fill: #262626" transform="translate(711.676347 107.360152) scale(0.1728 -0.1728)">
      <defs>
       <path id="CMMI12-6a" d="M 2240 2027 
C 2266 2129 2266 2218 2266 2243 
C 2266 2611 1990 2816 1702 2816 
C 1056 2816 710 1888 710 1843 
C 710 1811 736 1786 774 1786 
C 826 1786 832 1811 864 1875 
C 1120 2491 1440 2687 1683 2687 
C 1818 2687 1888 2617 1888 2395 
C 1888 2243 1869 2180 1843 2065 
L 1235 -327 
C 1114 -797 813 -1152 461 -1152 
C 435 -1152 301 -1152 179 -1089 
C 333 -1057 454 -937 454 -784 
C 454 -683 378 -581 237 -581 
C 70 -581 -83 -721 -83 -911 
C -83 -1172 198 -1280 461 -1280 
C 902 -1280 1485 -956 1645 -321 
L 2240 2027 
z
M 2502 4012 
C 2502 4172 2368 4224 2291 4224 
C 2118 4224 1971 4057 1971 3916 
C 1971 3820 2048 3705 2189 3705 
C 2336 3705 2502 3846 2502 4012 
z
" transform="scale(0.015625)"/>
       <path id="CMR17-3d" d="M 4115 2048 
C 4211 2048 4307 2048 4307 2156 
C 4307 2272 4198 2272 4090 2272 
L 512 2272 
C 403 2272 294 2272 294 2156 
C 294 2048 390 2048 486 2048 
L 4115 2048 
z
M 4090 927 
C 4198 927 4307 927 4307 1043 
C 4307 1152 4211 1152 4115 1152 
L 486 1152 
C 390 1152 294 1152 294 1043 
C 294 927 403 927 512 927 
L 4090 927 
z
" transform="scale(0.015625)"/>
      </defs>
      <use xlink:href="#CMMI12-6a" transform="scale(0.996264)"/>
      <use xlink:href="#CMR17-3d" transform="translate(73.636491 0) scale(0.996264)"/>
      <use xlink:href="#CMR17-30" transform="translate(173.025288 0) scale(0.996264)"/>
      <use xlink:href="#CMMI12-3a" transform="translate(218.715766 0) scale(0.996264)"/>
      <use xlink:href="#CMR17-35" transform="translate(245.812943 0) scale(0.996264)"/>
     </g>
    </g>
    <g id="line2d_55">
     <path d="M 663.292347 125.396694 
L 680.572347 125.396694 
L 697.852347 125.396694 
" style="fill: none; stroke: #dd8452; stroke-width: 2; stroke-linecap: round"/>
    </g>
    <g id="text_21">
     <!-- $j = 1$ -->
     <g style="fill: #262626" transform="translate(711.676347 131.444694) scale(0.1728 -0.1728)">
      <use xlink:href="#CMMI12-6a" transform="scale(0.996264)"/>
      <use xlink:href="#CMR17-3d" transform="translate(73.636491 0) scale(0.996264)"/>
      <use xlink:href="#CMR17-31" transform="translate(173.025288 0) scale(0.996264)"/>
     </g>
    </g>
    <g id="line2d_56">
     <path d="M 663.292347 149.481236 
L 680.572347 149.481236 
L 697.852347 149.481236 
" style="fill: none; stroke: #55a868; stroke-width: 2; stroke-linecap: round"/>
    </g>
    <g id="text_22">
     <!-- $j = 1.5$ -->
     <g style="fill: #262626" transform="translate(711.676347 155.529236) scale(0.1728 -0.1728)">
      <use xlink:href="#CMMI12-6a" transform="scale(0.996264)"/>
      <use xlink:href="#CMR17-3d" transform="translate(73.636491 0) scale(0.996264)"/>
      <use xlink:href="#CMR17-31" transform="translate(173.025288 0) scale(0.996264)"/>
      <use xlink:href="#CMMI12-3a" transform="translate(218.715766 0) scale(0.996264)"/>
      <use xlink:href="#CMR17-35" transform="translate(245.812943 0) scale(0.996264)"/>
     </g>
    </g>
    <g id="line2d_57">
     <path d="M 663.292347 173.565779 
L 680.572347 173.565779 
L 697.852347 173.565779 
" style="fill: none; stroke: #c44e52; stroke-width: 2; stroke-linecap: round"/>
    </g>
    <g id="text_23">
     <!-- $j = 2$ -->
     <g style="fill: #262626" transform="translate(711.676347 179.613779) scale(0.1728 -0.1728)">
      <use xlink:href="#CMMI12-6a" transform="scale(0.996264)"/>
      <use xlink:href="#CMR17-3d" transform="translate(73.636491 0) scale(0.996264)"/>
      <use xlink:href="#CMR17-32" transform="translate(173.025288 0) scale(0.996264)"/>
     </g>
    </g>
    <g id="line2d_58">
     <path d="M 663.292347 197.650321 
L 680.572347 197.650321 
L 697.852347 197.650321 
" style="fill: none; stroke: #8172b3; stroke-width: 2; stroke-linecap: round"/>
    </g>
    <g id="text_24">
     <!-- $j = 2.5$ -->
     <g style="fill: #262626" transform="translate(711.676347 203.698321) scale(0.1728 -0.1728)">
      <use xlink:href="#CMMI12-6a" transform="scale(0.996264)"/>
      <use xlink:href="#CMR17-3d" transform="translate(73.636491 0) scale(0.996264)"/>
      <use xlink:href="#CMR17-32" transform="translate(173.025288 0) scale(0.996264)"/>
      <use xlink:href="#CMMI12-3a" transform="translate(218.715766 0) scale(0.996264)"/>
      <use xlink:href="#CMR17-35" transform="translate(245.812943 0) scale(0.996264)"/>
     </g>
    </g>
    <g id="line2d_59">
     <path d="M 663.292347 221.734863 
L 680.572347 221.734863 
L 697.852347 221.734863 
" style="fill: none; stroke: #937860; stroke-width: 2; stroke-linecap: round"/>
    </g>
    <g id="text_25">
     <!-- $j = 3$ -->
     <g style="fill: #262626" transform="translate(711.676347 227.782863) scale(0.1728 -0.1728)">
      <use xlink:href="#CMMI12-6a" transform="scale(0.996264)"/>
      <use xlink:href="#CMR17-3d" transform="translate(73.636491 0) scale(0.996264)"/>
      <use xlink:href="#CMR17-33" transform="translate(173.025288 0) scale(0.996264)"/>
     </g>
    </g>
    <g id="line2d_60">
     <path d="M 663.292347 245.819405 
L 680.572347 245.819405 
L 697.852347 245.819405 
" style="fill: none; stroke: #da8bc3; stroke-width: 2; stroke-linecap: round"/>
    </g>
    <g id="text_26">
     <!-- $j = 3.5$ -->
     <g style="fill: #262626" transform="translate(711.676347 251.867405) scale(0.1728 -0.1728)">
      <use xlink:href="#CMMI12-6a" transform="scale(0.996264)"/>
      <use xlink:href="#CMR17-3d" transform="translate(73.636491 0) scale(0.996264)"/>
      <use xlink:href="#CMR17-33" transform="translate(173.025288 0) scale(0.996264)"/>
      <use xlink:href="#CMMI12-3a" transform="translate(218.715766 0) scale(0.996264)"/>
      <use xlink:href="#CMR17-35" transform="translate(245.812943 0) scale(0.996264)"/>
     </g>
    </g>
    <g id="line2d_61">
     <path d="M 663.292347 269.903947 
L 680.572347 269.903947 
L 697.852347 269.903947 
" style="fill: none; stroke: #8c8c8c; stroke-width: 2; stroke-linecap: round"/>
    </g>
    <g id="text_27">
     <!-- $j = 4$ -->
     <g style="fill: #262626" transform="translate(711.676347 275.951947) scale(0.1728 -0.1728)">
      <use xlink:href="#CMMI12-6a" transform="scale(0.996264)"/>
      <use xlink:href="#CMR17-3d" transform="translate(73.636491 0) scale(0.996264)"/>
      <use xlink:href="#CMR17-34" transform="translate(173.025288 0) scale(0.996264)"/>
     </g>
    </g>
   </g>
  </g>
 </g>
 <defs>
  <clipPath id="p3397872f2b">
   <rect x="108" y="58.32" width="669.6" height="374.22"/>
  </clipPath>
 </defs>
</svg>
