<?xml version="1.0" encoding="utf-8" standalone="no"?>
<!DOCTYPE svg PUBLIC "-//W3C//DTD SVG 1.1//EN"
  "http://www.w3.org/Graphics/SVG/1.1/DTD/svg11.dtd">
<svg xmlns:xlink="http://www.w3.org/1999/xlink" width="864pt" height="486pt" viewBox="0 0 864 486" xmlns="http://www.w3.org/2000/svg" version="1.1">
 <metadata>
  <rdf:RDF xmlns:dc="http://purl.org/dc/elements/1.1/" xmlns:cc="http://creativecommons.org/ns#" xmlns:rdf="http://www.w3.org/1999/02/22-rdf-syntax-ns#">
   <cc:Work>
    <dc:type rdf:resource="http://purl.org/dc/dcmitype/StillImage"/>
    <dc:date>2022-12-31T13:33:37.290920</dc:date>
    <dc:format>image/svg+xml</dc:format>
    <dc:creator>
     <cc:Agent>
      <dc:title>Matplotlib v3.6.2, https://matplotlib.org/</dc:title>
     </cc:Agent>
    </dc:creator>
   </cc:Work>
  </rdf:RDF>
 </metadata>
 <defs>
  <style type="text/css">*{stroke-linejoin: round; stroke-linecap: butt}</style>
 </defs>
 <g id="figure_1">
  <g id="patch_1">
   <path d="M 0 486 
L 864 486 
L 864 0 
L 0 0 
z
" style="fill: #ffffff"/>
  </g>
  <g id="axes_1">
   <g id="patch_2">
    <path d="M 108 432.54 
L 777.6 432.54 
L 777.6 58.32 
L 108 58.32 
z
" style="fill: #ffffff"/>
   </g>
   <g id="matplotlib.axis_1">
    <g id="xtick_1">
     <g id="line2d_1">
      <path d="M 138.436364 432.54 
L 138.436364 58.32 
" clip-path="url(#p92e7d47204)" style="fill: none; stroke: #e6e6e6; stroke-width: 0.8; stroke-linecap: round"/>
     </g>
     <g id="line2d_2">
      <defs>
       <path id="mad8b2f7b00" d="M 0 0 
L 0 -4.8 
" style="stroke: #262626"/>
      </defs>
      <g>
       <use xlink:href="#mad8b2f7b00" x="138.436364" y="432.54" style="fill: #262626; stroke: #262626"/>
      </g>
     </g>
     <g id="line2d_3">
      <defs>
       <path id="m49c0430bbb" d="M 0 0 
L 0 4.8 
" style="stroke: #262626"/>
      </defs>
      <g>
       <use xlink:href="#m49c0430bbb" x="138.436364" y="58.32" style="fill: #262626; stroke: #262626"/>
      </g>
     </g>
     <g id="text_1">
      <!-- $\mathdefault{0}$ -->
      <g style="fill: #262626" transform="translate(135.217227 445.172395) scale(0.132 -0.132)">
       <defs>
        <path id="CMR17-30" d="M 2688 2038 
C 2688 2430 2682 3099 2413 3613 
C 2176 4063 1798 4224 1466 4224 
C 1158 4224 768 4082 525 3620 
C 269 3137 243 2539 243 2038 
C 243 1671 250 1112 448 623 
C 723 -39 1216 -128 1466 -128 
C 1760 -128 2208 -7 2470 604 
C 2662 1048 2688 1568 2688 2038 
z
M 1466 -26 
C 1056 -26 813 328 723 816 
C 653 1196 653 1749 653 2109 
C 653 2604 653 3015 736 3407 
C 858 3954 1216 4121 1466 4121 
C 1728 4121 2067 3947 2189 3420 
C 2272 3054 2278 2623 2278 2109 
C 2278 1691 2278 1176 2202 797 
C 2067 96 1690 -26 1466 -26 
z
" transform="scale(0.015625)"/>
       </defs>
       <use xlink:href="#CMR17-30" transform="scale(0.996264)"/>
      </g>
     </g>
    </g>
    <g id="xtick_2">
     <g id="line2d_4">
      <path d="M 214.536785 432.54 
L 214.536785 58.32 
" clip-path="url(#p92e7d47204)" style="fill: none; stroke: #e6e6e6; stroke-width: 0.8; stroke-linecap: round"/>
     </g>
     <g id="line2d_5">
      <g>
       <use xlink:href="#mad8b2f7b00" x="214.536785" y="432.54" style="fill: #262626; stroke: #262626"/>
      </g>
     </g>
     <g id="line2d_6">
      <g>
       <use xlink:href="#m49c0430bbb" x="214.536785" y="58.32" style="fill: #262626; stroke: #262626"/>
      </g>
     </g>
     <g id="text_2">
      <!-- $\mathdefault{1000}$ -->
      <g style="fill: #262626" transform="translate(201.660237 445.172395) scale(0.132 -0.132)">
       <defs>
        <path id="CMR17-31" d="M 1702 4083 
C 1702 4217 1696 4224 1606 4224 
C 1357 3927 979 3833 621 3820 
C 602 3820 570 3820 563 3808 
C 557 3795 557 3782 557 3648 
C 755 3648 1088 3686 1344 3839 
L 1344 467 
C 1344 243 1331 166 781 166 
L 589 166 
L 589 0 
C 896 6 1216 12 1523 12 
C 1830 12 2150 6 2458 0 
L 2458 166 
L 2266 166 
C 1715 166 1702 236 1702 467 
L 1702 4083 
z
" transform="scale(0.015625)"/>
       </defs>
       <use xlink:href="#CMR17-31" transform="scale(0.996264)"/>
       <use xlink:href="#CMR17-30" transform="translate(45.690477 0) scale(0.996264)"/>
       <use xlink:href="#CMR17-30" transform="translate(91.380954 0) scale(0.996264)"/>
       <use xlink:href="#CMR17-30" transform="translate(137.071431 0) scale(0.996264)"/>
      </g>
     </g>
    </g>
    <g id="xtick_3">
     <g id="line2d_7">
      <path d="M 290.637207 432.54 
L 290.637207 58.32 
" clip-path="url(#p92e7d47204)" style="fill: none; stroke: #e6e6e6; stroke-width: 0.8; stroke-linecap: round"/>
     </g>
     <g id="line2d_8">
      <g>
       <use xlink:href="#mad8b2f7b00" x="290.637207" y="432.54" style="fill: #262626; stroke: #262626"/>
      </g>
     </g>
     <g id="line2d_9">
      <g>
       <use xlink:href="#m49c0430bbb" x="290.637207" y="58.32" style="fill: #262626; stroke: #262626"/>
      </g>
     </g>
     <g id="text_3">
      <!-- $\mathdefault{2000}$ -->
      <g style="fill: #262626" transform="translate(277.760659 445.172395) scale(0.132 -0.132)">
       <defs>
        <path id="CMR17-32" d="M 2669 990 
L 2554 990 
C 2490 537 2438 460 2413 422 
C 2381 371 1920 371 1830 371 
L 602 371 
C 832 620 1280 1073 1824 1596 
C 2214 1966 2669 2400 2669 3033 
C 2669 3788 2067 4224 1395 4224 
C 691 4224 262 3603 262 3027 
C 262 2777 448 2745 525 2745 
C 589 2745 781 2783 781 3007 
C 781 3206 614 3264 525 3264 
C 486 3264 448 3257 422 3244 
C 544 3788 915 4057 1306 4057 
C 1862 4057 2227 3616 2227 3033 
C 2227 2477 1901 1998 1536 1583 
L 262 147 
L 262 0 
L 2515 0 
L 2669 990 
z
" transform="scale(0.015625)"/>
       </defs>
       <use xlink:href="#CMR17-32" transform="scale(0.996264)"/>
       <use xlink:href="#CMR17-30" transform="translate(45.690477 0) scale(0.996264)"/>
       <use xlink:href="#CMR17-30" transform="translate(91.380954 0) scale(0.996264)"/>
       <use xlink:href="#CMR17-30" transform="translate(137.071431 0) scale(0.996264)"/>
      </g>
     </g>
    </g>
    <g id="xtick_4">
     <g id="line2d_10">
      <path d="M 366.737629 432.54 
L 366.737629 58.32 
" clip-path="url(#p92e7d47204)" style="fill: none; stroke: #e6e6e6; stroke-width: 0.8; stroke-linecap: round"/>
     </g>
     <g id="line2d_11">
      <g>
       <use xlink:href="#mad8b2f7b00" x="366.737629" y="432.54" style="fill: #262626; stroke: #262626"/>
      </g>
     </g>
     <g id="line2d_12">
      <g>
       <use xlink:href="#m49c0430bbb" x="366.737629" y="58.32" style="fill: #262626; stroke: #262626"/>
      </g>
     </g>
     <g id="text_4">
      <!-- $\mathdefault{3000}$ -->
      <g style="fill: #262626" transform="translate(353.86108 445.172395) scale(0.132 -0.132)">
       <defs>
        <path id="CMR17-33" d="M 1414 2176 
C 1984 2176 2234 1673 2234 1094 
C 2234 322 1824 25 1453 25 
C 1114 25 563 193 390 691 
C 422 678 454 678 486 678 
C 640 678 755 780 755 947 
C 755 1132 614 1216 486 1216 
C 378 1216 211 1164 211 927 
C 211 335 787 -128 1466 -128 
C 2176 -128 2720 432 2720 1087 
C 2720 1718 2208 2176 1600 2246 
C 2086 2347 2554 2776 2554 3353 
C 2554 3856 2048 4224 1472 4224 
C 890 4224 378 3862 378 3347 
C 378 3123 544 3084 627 3084 
C 762 3084 877 3167 877 3334 
C 877 3500 762 3584 627 3584 
C 602 3584 570 3584 544 3571 
C 730 3999 1235 4076 1459 4076 
C 1683 4076 2106 3966 2106 3347 
C 2106 3167 2080 2851 1862 2574 
C 1670 2329 1453 2316 1242 2297 
C 1210 2297 1062 2284 1037 2284 
C 992 2278 966 2272 966 2227 
C 966 2182 973 2176 1101 2176 
L 1414 2176 
z
" transform="scale(0.015625)"/>
       </defs>
       <use xlink:href="#CMR17-33" transform="scale(0.996264)"/>
       <use xlink:href="#CMR17-30" transform="translate(45.690477 0) scale(0.996264)"/>
       <use xlink:href="#CMR17-30" transform="translate(91.380954 0) scale(0.996264)"/>
       <use xlink:href="#CMR17-30" transform="translate(137.071431 0) scale(0.996264)"/>
      </g>
     </g>
    </g>
    <g id="xtick_5">
     <g id="line2d_13">
      <path d="M 442.83805 432.54 
L 442.83805 58.32 
" clip-path="url(#p92e7d47204)" style="fill: none; stroke: #e6e6e6; stroke-width: 0.8; stroke-linecap: round"/>
     </g>
     <g id="line2d_14">
      <g>
       <use xlink:href="#mad8b2f7b00" x="442.83805" y="432.54" style="fill: #262626; stroke: #262626"/>
      </g>
     </g>
     <g id="line2d_15">
      <g>
       <use xlink:href="#m49c0430bbb" x="442.83805" y="58.32" style="fill: #262626; stroke: #262626"/>
      </g>
     </g>
     <g id="text_5">
      <!-- $\mathdefault{4000}$ -->
      <g style="fill: #262626" transform="translate(429.961502 445.172395) scale(0.132 -0.132)">
       <defs>
        <path id="CMR17-34" d="M 2150 4147 
C 2150 4281 2144 4288 2029 4288 
L 128 1254 
L 128 1088 
L 1779 1088 
L 1779 460 
C 1779 230 1766 166 1318 166 
L 1197 166 
L 1197 0 
C 1402 12 1747 12 1965 12 
C 2182 12 2528 12 2733 0 
L 2733 166 
L 2611 166 
C 2163 166 2150 230 2150 460 
L 2150 1088 
L 2803 1088 
L 2803 1254 
L 2150 1254 
L 2150 4147 
z
M 1798 3723 
L 1798 1254 
L 256 1254 
L 1798 3723 
z
" transform="scale(0.015625)"/>
       </defs>
       <use xlink:href="#CMR17-34" transform="scale(0.996264)"/>
       <use xlink:href="#CMR17-30" transform="translate(45.690477 0) scale(0.996264)"/>
       <use xlink:href="#CMR17-30" transform="translate(91.380954 0) scale(0.996264)"/>
       <use xlink:href="#CMR17-30" transform="translate(137.071431 0) scale(0.996264)"/>
      </g>
     </g>
    </g>
    <g id="xtick_6">
     <g id="line2d_16">
      <path d="M 518.938472 432.54 
L 518.938472 58.32 
" clip-path="url(#p92e7d47204)" style="fill: none; stroke: #e6e6e6; stroke-width: 0.8; stroke-linecap: round"/>
     </g>
     <g id="line2d_17">
      <g>
       <use xlink:href="#mad8b2f7b00" x="518.938472" y="432.54" style="fill: #262626; stroke: #262626"/>
      </g>
     </g>
     <g id="line2d_18">
      <g>
       <use xlink:href="#m49c0430bbb" x="518.938472" y="58.32" style="fill: #262626; stroke: #262626"/>
      </g>
     </g>
     <g id="text_6">
      <!-- $\mathdefault{5000}$ -->
      <g style="fill: #262626" transform="translate(506.061924 445.172395) scale(0.132 -0.132)">
       <defs>
        <path id="CMR17-35" d="M 730 3750 
C 794 3724 1056 3641 1325 3641 
C 1920 3641 2246 3961 2432 4140 
C 2432 4191 2432 4224 2394 4224 
C 2387 4224 2374 4224 2323 4198 
C 2099 4102 1837 4032 1517 4032 
C 1325 4032 1037 4055 723 4191 
C 653 4224 640 4224 634 4224 
C 602 4224 595 4217 595 4090 
L 595 2231 
C 595 2113 595 2080 659 2080 
C 691 2080 704 2093 736 2139 
C 941 2435 1222 2560 1542 2560 
C 1766 2560 2246 2415 2246 1293 
C 2246 1087 2246 716 2054 422 
C 1894 159 1645 25 1370 25 
C 947 25 518 319 403 812 
C 429 806 480 793 506 793 
C 589 793 749 838 749 1036 
C 749 1209 627 1280 506 1280 
C 358 1280 262 1190 262 1011 
C 262 454 704 -128 1382 -128 
C 2042 -128 2669 441 2669 1267 
C 2669 2054 2170 2662 1549 2662 
C 1222 2662 947 2540 730 2304 
L 730 3750 
z
" transform="scale(0.015625)"/>
       </defs>
       <use xlink:href="#CMR17-35" transform="scale(0.996264)"/>
       <use xlink:href="#CMR17-30" transform="translate(45.690477 0) scale(0.996264)"/>
       <use xlink:href="#CMR17-30" transform="translate(91.380954 0) scale(0.996264)"/>
       <use xlink:href="#CMR17-30" transform="translate(137.071431 0) scale(0.996264)"/>
      </g>
     </g>
    </g>
    <g id="xtick_7">
     <g id="line2d_19">
      <path d="M 595.038893 432.54 
L 595.038893 58.32 
" clip-path="url(#p92e7d47204)" style="fill: none; stroke: #e6e6e6; stroke-width: 0.8; stroke-linecap: round"/>
     </g>
     <g id="line2d_20">
      <g>
       <use xlink:href="#mad8b2f7b00" x="595.038893" y="432.54" style="fill: #262626; stroke: #262626"/>
      </g>
     </g>
     <g id="line2d_21">
      <g>
       <use xlink:href="#m49c0430bbb" x="595.038893" y="58.32" style="fill: #262626; stroke: #262626"/>
      </g>
     </g>
     <g id="text_7">
      <!-- $\mathdefault{6000}$ -->
      <g style="fill: #262626" transform="translate(582.162345 445.172395) scale(0.132 -0.132)">
       <defs>
        <path id="CMR17-36" d="M 678 2198 
C 678 3712 1395 4076 1811 4076 
C 1946 4076 2272 4049 2400 3782 
C 2298 3782 2106 3782 2106 3558 
C 2106 3385 2246 3328 2336 3328 
C 2394 3328 2566 3353 2566 3571 
C 2566 3987 2246 4224 1805 4224 
C 1043 4224 243 3411 243 2011 
C 243 257 966 -128 1478 -128 
C 2099 -128 2688 431 2688 1295 
C 2688 2101 2170 2688 1517 2688 
C 1126 2688 838 2430 678 1979 
L 678 2198 
z
M 1478 25 
C 691 25 691 1212 691 1450 
C 691 1914 909 2585 1504 2585 
C 1613 2585 1926 2585 2138 2140 
C 2253 1889 2253 1624 2253 1302 
C 2253 954 2253 696 2118 438 
C 1978 173 1773 25 1478 25 
z
" transform="scale(0.015625)"/>
       </defs>
       <use xlink:href="#CMR17-36" transform="scale(0.996264)"/>
       <use xlink:href="#CMR17-30" transform="translate(45.690477 0) scale(0.996264)"/>
       <use xlink:href="#CMR17-30" transform="translate(91.380954 0) scale(0.996264)"/>
       <use xlink:href="#CMR17-30" transform="translate(137.071431 0) scale(0.996264)"/>
      </g>
     </g>
    </g>
    <g id="xtick_8">
     <g id="line2d_22">
      <path d="M 671.139315 432.54 
L 671.139315 58.32 
" clip-path="url(#p92e7d47204)" style="fill: none; stroke: #e6e6e6; stroke-width: 0.8; stroke-linecap: round"/>
     </g>
     <g id="line2d_23">
      <g>
       <use xlink:href="#mad8b2f7b00" x="671.139315" y="432.54" style="fill: #262626; stroke: #262626"/>
      </g>
     </g>
     <g id="line2d_24">
      <g>
       <use xlink:href="#m49c0430bbb" x="671.139315" y="58.32" style="fill: #262626; stroke: #262626"/>
      </g>
     </g>
     <g id="text_8">
      <!-- $\mathdefault{7000}$ -->
      <g style="fill: #262626" transform="translate(658.262767 445.172395) scale(0.132 -0.132)">
       <defs>
        <path id="CMR17-37" d="M 2886 3955 
L 2886 4096 
L 1382 4096 
C 634 4096 621 4166 595 4288 
L 480 4288 
L 294 3104 
L 410 3104 
C 429 3226 474 3552 550 3673 
C 589 3724 1062 3724 1171 3724 
L 2579 3724 
L 1869 2670 
C 1395 1961 1069 1003 1069 166 
C 1069 89 1069 -128 1299 -128 
C 1530 -128 1530 89 1530 172 
L 1530 466 
C 1530 1514 1709 2204 2003 2644 
L 2886 3955 
z
" transform="scale(0.015625)"/>
       </defs>
       <use xlink:href="#CMR17-37" transform="scale(0.996264)"/>
       <use xlink:href="#CMR17-30" transform="translate(45.690477 0) scale(0.996264)"/>
       <use xlink:href="#CMR17-30" transform="translate(91.380954 0) scale(0.996264)"/>
       <use xlink:href="#CMR17-30" transform="translate(137.071431 0) scale(0.996264)"/>
      </g>
     </g>
    </g>
    <g id="xtick_9">
     <g id="line2d_25">
      <path d="M 747.239737 432.54 
L 747.239737 58.32 
" clip-path="url(#p92e7d47204)" style="fill: none; stroke: #e6e6e6; stroke-width: 0.8; stroke-linecap: round"/>
     </g>
     <g id="line2d_26">
      <g>
       <use xlink:href="#mad8b2f7b00" x="747.239737" y="432.54" style="fill: #262626; stroke: #262626"/>
      </g>
     </g>
     <g id="line2d_27">
      <g>
       <use xlink:href="#m49c0430bbb" x="747.239737" y="58.32" style="fill: #262626; stroke: #262626"/>
      </g>
     </g>
     <g id="text_9">
      <!-- $\mathdefault{8000}$ -->
      <g style="fill: #262626" transform="translate(734.363189 445.172395) scale(0.132 -0.132)">
       <defs>
        <path id="CMR17-38" d="M 1741 2289 
C 2144 2494 2554 2803 2554 3298 
C 2554 3884 1990 4224 1472 4224 
C 890 4224 378 3800 378 3215 
C 378 3054 416 2777 666 2533 
C 730 2469 998 2276 1171 2154 
C 883 2006 211 1652 211 945 
C 211 282 838 -128 1459 -128 
C 2144 -128 2720 366 2720 1022 
C 2720 1607 2330 1877 2074 2051 
L 1741 2289 
z
M 902 2855 
C 851 2887 595 3086 595 3388 
C 595 3781 998 4076 1459 4076 
C 1965 4076 2336 3716 2336 3298 
C 2336 2700 1670 2359 1638 2359 
C 1632 2359 1626 2359 1574 2398 
L 902 2855 
z
M 2080 1536 
C 2176 1466 2483 1253 2483 861 
C 2483 385 2010 25 1472 25 
C 890 25 448 443 448 951 
C 448 1459 838 1884 1280 2083 
L 2080 1536 
z
" transform="scale(0.015625)"/>
       </defs>
       <use xlink:href="#CMR17-38" transform="scale(0.996264)"/>
       <use xlink:href="#CMR17-30" transform="translate(45.690477 0) scale(0.996264)"/>
       <use xlink:href="#CMR17-30" transform="translate(91.380954 0) scale(0.996264)"/>
       <use xlink:href="#CMR17-30" transform="translate(137.071431 0) scale(0.996264)"/>
      </g>
     </g>
    </g>
    <g id="text_10">
     <!-- lag -->
     <g style="fill: #262626" transform="translate(434.273746 461.692081) scale(0.144 -0.144)">
      <defs>
       <path id="CMSS17-6c" d="M 947 4416 
L 474 4416 
L 474 0 
L 947 0 
L 947 4416 
z
" transform="scale(0.015625)"/>
       <path id="CMSS17-61" d="M 2406 1789 
C 2406 2399 1978 2816 1402 2816 
C 1120 2816 813 2764 461 2559 
L 499 2133 
C 659 2250 934 2438 1395 2438 
C 1722 2438 1920 2185 1920 1782 
L 1920 1536 
C 896 1504 256 1209 256 711 
C 256 452 416 -64 947 -64 
C 1043 -64 1562 -52 1933 224 
L 1933 -13 
L 2406 -13 
L 2406 1789 
z
M 1920 824 
C 1920 711 1920 559 1728 446 
C 1562 339 1350 326 1261 326 
C 941 326 723 503 723 723 
C 723 1165 1722 1209 1920 1216 
L 1920 824 
z
" transform="scale(0.015625)"/>
       <path id="CMSS17-67" d="M 2848 2816 
C 2483 2809 2170 2739 1914 2617 
C 1702 2783 1485 2816 1338 2816 
C 781 2816 358 2356 358 1824 
C 358 1481 550 1222 563 1209 
C 448 1049 384 876 384 684 
C 384 460 474 300 544 211 
C 211 6 166 -308 166 -429 
C 166 -896 749 -1280 1498 -1280 
C 2253 -1280 2835 -896 2835 -423 
C 2835 460 1856 467 1587 467 
L 1069 467 
C 973 467 717 467 717 793 
C 717 921 774 1004 781 1011 
C 877 940 1075 832 1338 832 
C 1869 832 2310 1279 2310 1824 
C 2310 2128 2170 2349 2112 2425 
L 2131 2425 
C 2150 2425 2419 2444 2515 2444 
C 2720 2444 2739 2438 2918 2419 
L 2848 2816 
z
M 1338 1184 
C 1120 1184 813 1317 813 1824 
C 813 2375 1165 2463 1331 2463 
C 1549 2463 1856 2330 1856 1824 
C 1856 1272 1504 1184 1338 1184 
z
M 1581 0 
C 1734 0 2381 0 2381 -436 
C 2381 -711 1984 -928 1504 -928 
C 1018 -928 621 -717 621 -429 
C 621 -397 621 0 1062 0 
L 1581 0 
z
" transform="scale(0.015625)"/>
      </defs>
      <use xlink:href="#CMSS17-6c" transform="scale(0.996264)"/>
      <use xlink:href="#CMSS17-61" transform="translate(22.180723 0) scale(0.996264)"/>
      <use xlink:href="#CMSS17-67" transform="translate(67.102644 0) scale(0.996264)"/>
     </g>
    </g>
   </g>
   <g id="matplotlib.axis_2">
    <g id="ytick_1">
     <g id="line2d_28">
      <path d="M 108 411.457362 
L 777.6 411.457362 
" clip-path="url(#p92e7d47204)" style="fill: none; stroke: #e6e6e6; stroke-width: 0.8; stroke-linecap: round"/>
     </g>
     <g id="line2d_29">
      <defs>
       <path id="m20473a9ab4" d="M 0 0 
L 4.8 0 
" style="stroke: #262626"/>
      </defs>
      <g>
       <use xlink:href="#m20473a9ab4" x="108" y="411.457362" style="fill: #262626; stroke: #262626"/>
      </g>
     </g>
     <g id="line2d_30">
      <defs>
       <path id="mce9b24db47" d="M 0 0 
L -4.8 0 
" style="stroke: #262626"/>
      </defs>
      <g>
       <use xlink:href="#mce9b24db47" x="777.6" y="411.457362" style="fill: #262626; stroke: #262626"/>
      </g>
     </g>
     <g id="text_11">
      <!-- $\mathdefault{0.0}$ -->
      <g style="fill: #262626" transform="translate(88.04664 416.023559) scale(0.132 -0.132)">
       <defs>
        <path id="CMMI12-3a" d="M 1178 307 
C 1178 492 1024 620 870 620 
C 685 620 557 467 557 313 
C 557 128 710 0 864 0 
C 1050 0 1178 153 1178 307 
z
" transform="scale(0.015625)"/>
       </defs>
       <use xlink:href="#CMR17-30" transform="scale(0.996264)"/>
       <use xlink:href="#CMMI12-3a" transform="translate(45.690477 0) scale(0.996264)"/>
       <use xlink:href="#CMR17-30" transform="translate(72.787654 0) scale(0.996264)"/>
      </g>
     </g>
    </g>
    <g id="ytick_2">
     <g id="line2d_31">
      <path d="M 108 344.231889 
L 777.6 344.231889 
" clip-path="url(#p92e7d47204)" style="fill: none; stroke: #e6e6e6; stroke-width: 0.8; stroke-linecap: round"/>
     </g>
     <g id="line2d_32">
      <g>
       <use xlink:href="#m20473a9ab4" x="108" y="344.231889" style="fill: #262626; stroke: #262626"/>
      </g>
     </g>
     <g id="line2d_33">
      <g>
       <use xlink:href="#mce9b24db47" x="777.6" y="344.231889" style="fill: #262626; stroke: #262626"/>
      </g>
     </g>
     <g id="text_12">
      <!-- $\mathdefault{0.2}$ -->
      <g style="fill: #262626" transform="translate(88.04664 348.798087) scale(0.132 -0.132)">
       <use xlink:href="#CMR17-30" transform="scale(0.996264)"/>
       <use xlink:href="#CMMI12-3a" transform="translate(45.690477 0) scale(0.996264)"/>
       <use xlink:href="#CMR17-32" transform="translate(72.787654 0) scale(0.996264)"/>
      </g>
     </g>
    </g>
    <g id="ytick_3">
     <g id="line2d_34">
      <path d="M 108 277.006417 
L 777.6 277.006417 
" clip-path="url(#p92e7d47204)" style="fill: none; stroke: #e6e6e6; stroke-width: 0.8; stroke-linecap: round"/>
     </g>
     <g id="line2d_35">
      <g>
       <use xlink:href="#m20473a9ab4" x="108" y="277.006417" style="fill: #262626; stroke: #262626"/>
      </g>
     </g>
     <g id="line2d_36">
      <g>
       <use xlink:href="#mce9b24db47" x="777.6" y="277.006417" style="fill: #262626; stroke: #262626"/>
      </g>
     </g>
     <g id="text_13">
      <!-- $\mathdefault{0.4}$ -->
      <g style="fill: #262626" transform="translate(88.04664 281.572614) scale(0.132 -0.132)">
       <use xlink:href="#CMR17-30" transform="scale(0.996264)"/>
       <use xlink:href="#CMMI12-3a" transform="translate(45.690477 0) scale(0.996264)"/>
       <use xlink:href="#CMR17-34" transform="translate(72.787654 0) scale(0.996264)"/>
      </g>
     </g>
    </g>
    <g id="ytick_4">
     <g id="line2d_37">
      <path d="M 108 209.780945 
L 777.6 209.780945 
" clip-path="url(#p92e7d47204)" style="fill: none; stroke: #e6e6e6; stroke-width: 0.8; stroke-linecap: round"/>
     </g>
     <g id="line2d_38">
      <g>
       <use xlink:href="#m20473a9ab4" x="108" y="209.780945" style="fill: #262626; stroke: #262626"/>
      </g>
     </g>
     <g id="line2d_39">
      <g>
       <use xlink:href="#mce9b24db47" x="777.6" y="209.780945" style="fill: #262626; stroke: #262626"/>
      </g>
     </g>
     <g id="text_14">
      <!-- $\mathdefault{0.6}$ -->
      <g style="fill: #262626" transform="translate(88.04664 214.347142) scale(0.132 -0.132)">
       <use xlink:href="#CMR17-30" transform="scale(0.996264)"/>
       <use xlink:href="#CMMI12-3a" transform="translate(45.690477 0) scale(0.996264)"/>
       <use xlink:href="#CMR17-36" transform="translate(72.787654 0) scale(0.996264)"/>
      </g>
     </g>
    </g>
    <g id="ytick_5">
     <g id="line2d_40">
      <path d="M 108 142.555472 
L 777.6 142.555472 
" clip-path="url(#p92e7d47204)" style="fill: none; stroke: #e6e6e6; stroke-width: 0.8; stroke-linecap: round"/>
     </g>
     <g id="line2d_41">
      <g>
       <use xlink:href="#m20473a9ab4" x="108" y="142.555472" style="fill: #262626; stroke: #262626"/>
      </g>
     </g>
     <g id="line2d_42">
      <g>
       <use xlink:href="#mce9b24db47" x="777.6" y="142.555472" style="fill: #262626; stroke: #262626"/>
      </g>
     </g>
     <g id="text_15">
      <!-- $\mathdefault{0.8}$ -->
      <g style="fill: #262626" transform="translate(88.04664 147.12167) scale(0.132 -0.132)">
       <use xlink:href="#CMR17-30" transform="scale(0.996264)"/>
       <use xlink:href="#CMMI12-3a" transform="translate(45.690477 0) scale(0.996264)"/>
       <use xlink:href="#CMR17-38" transform="translate(72.787654 0) scale(0.996264)"/>
      </g>
     </g>
    </g>
    <g id="ytick_6">
     <g id="line2d_43">
      <path d="M 108 75.33 
L 777.6 75.33 
" clip-path="url(#p92e7d47204)" style="fill: none; stroke: #e6e6e6; stroke-width: 0.8; stroke-linecap: round"/>
     </g>
     <g id="line2d_44">
      <g>
       <use xlink:href="#m20473a9ab4" x="108" y="75.33" style="fill: #262626; stroke: #262626"/>
      </g>
     </g>
     <g id="line2d_45">
      <g>
       <use xlink:href="#mce9b24db47" x="777.6" y="75.33" style="fill: #262626; stroke: #262626"/>
      </g>
     </g>
     <g id="text_16">
      <!-- $\mathdefault{1.0}$ -->
      <g style="fill: #262626" transform="translate(88.04664 79.896197) scale(0.132 -0.132)">
       <use xlink:href="#CMR17-31" transform="scale(0.996264)"/>
       <use xlink:href="#CMMI12-3a" transform="translate(45.690477 0) scale(0.996264)"/>
       <use xlink:href="#CMR17-30" transform="translate(72.787654 0) scale(0.996264)"/>
      </g>
     </g>
    </g>
    <g id="text_17">
     <!-- ACF -->
     <g style="fill: #262626" transform="translate(81.257113 258.352199) rotate(-90) scale(0.144 -0.144)">
      <defs>
       <path id="CMSS17-41" d="M 2272 4416 
L 1722 4416 
L 166 0 
L 653 0 
L 1101 1280 
L 2816 1280 
L 3270 0 
L 3827 0 
L 2272 4416 
z
M 2694 1638 
L 1222 1638 
C 1530 2530 1914 3638 1958 3924 
L 1965 3924 
C 2010 3663 2138 3281 2246 2956 
L 2694 1638 
z
" transform="scale(0.015625)"/>
       <path id="CMSS17-43" d="M 3501 705 
C 3072 416 2874 332 2355 332 
C 1459 332 934 1304 934 2191 
C 934 3137 1472 4070 2381 4070 
C 2790 4070 3059 3954 3386 3748 
L 3475 4255 
C 3168 4409 2778 4480 2387 4480 
C 1158 4480 397 3343 397 2191 
C 397 924 1299 -77 2323 -77 
C 2874 -77 3066 -32 3539 268 
L 3501 705 
z
" transform="scale(0.015625)"/>
       <path id="CMSS17-46" d="M 2918 1984 
L 2918 2374 
L 1101 2374 
L 1101 3993 
L 1882 3993 
C 1958 3993 2035 3987 2112 3987 
L 3168 3987 
L 3168 4403 
L 563 4403 
L 563 0 
L 1101 0 
L 1101 1984 
L 2918 1984 
z
" transform="scale(0.015625)"/>
      </defs>
      <use xlink:href="#CMSS17-41" transform="scale(0.996264)"/>
      <use xlink:href="#CMSS17-43" transform="translate(59.615401 0) scale(0.996264)"/>
      <use xlink:href="#CMSS17-46" transform="translate(119.471173 0) scale(0.996264)"/>
     </g>
    </g>
   </g>
   <g id="line2d_46">
    <path d="M 138.436364 75.33 
L 138.969067 156.728347 
L 139.57787 216.094418 
L 140.262774 260.878548 
L 140.947678 292.408111 
L 141.708682 317.723146 
L 142.469686 336.340261 
L 143.306791 351.734911 
L 144.143895 363.387787 
L 145.0571 373.059207 
L 146.046406 381.007714 
L 146.959611 386.640882 
L 147.948916 391.252775 
L 149.014322 395.266531 
L 150.079728 398.392157 
L 151.297335 401.164839 
L 153.199845 404.369009 
L 154.265251 405.942618 
L 155.635059 407.263629 
L 157.004867 408.342381 
L 158.450775 409.050561 
L 159.44008 409.358475 
L 161.26649 409.712435 
L 163.625603 409.959806 
L 165.756415 410.189602 
L 166.365218 410.12345 
L 167.354524 410.168777 
L 168.41993 410.343267 
L 170.779043 410.442696 
L 172.224951 410.628922 
L 173.138156 410.723379 
L 176.562675 411.228348 
L 178.008583 411.201629 
L 180.215495 411.315221 
L 180.900399 411.262574 
L 182.270207 411.245691 
L 183.107311 411.202014 
L 184.401018 411.037511 
L 184.933721 411.043828 
L 185.694725 411.207265 
L 187.140633 411.333633 
L 188.28214 411.321788 
L 189.195345 411.458963 
L 190.03245 411.504671 
L 190.793454 411.571166 
L 191.402257 411.67698 
L 193.609169 411.497033 
L 195.283379 411.128058 
L 196.500985 411.389322 
L 197.946893 411.375561 
L 200.306006 411.493372 
L 202.893421 411.954663 
L 205.480835 412.216921 
L 207.078944 412.477715 
L 207.839948 412.547652 
L 210.807865 412.552008 
L 213.243078 412.159421 
L 214.612886 412.072255 
L 215.830492 411.894169 
L 217.1242 411.891883 
L 218.113505 411.76262 
L 220.016016 411.557238 
L 220.77702 411.391294 
L 221.538024 411.362375 
L 225.571346 411.629573 
L 226.332351 411.432761 
L 230.365673 411.212842 
L 232.876987 411.050521 
L 233.942393 411.211734 
L 235.007799 411.258613 
L 235.768803 411.329957 
L 237.06251 411.383082 
L 238.280117 411.578561 
L 240.867531 411.575579 
L 242.009037 411.621054 
L 242.846142 411.512017 
L 244.21595 411.533035 
L 245.281356 411.628213 
L 246.04236 411.565752 
L 247.412167 411.685062 
L 248.629774 411.782178 
L 249.771281 411.641609 
L 251.064988 411.519119 
L 253.119699 411.352938 
L 253.880703 411.250732 
L 255.17441 411.331455 
L 255.935415 411.374931 
L 257.457423 411.583646 
L 258.370628 411.654674 
L 261.414645 411.586696 
L 263.469356 411.836454 
L 264.915264 411.98021 
L 266.132871 412.076162 
L 266.893875 412.049572 
L 267.73098 412.123378 
L 268.644185 412.077881 
L 269.709591 411.983826 
L 272.525307 411.62747 
L 274.656118 411.860251 
L 276.254227 411.781765 
L 277.243533 411.803684 
L 278.689441 411.758931 
L 281.352955 411.658635 
L 282.037859 411.78241 
L 283.179366 411.972827 
L 284.853575 411.846414 
L 286.603885 411.671905 
L 287.897592 411.84987 
L 288.658596 411.927893 
L 291.702613 412.040011 
L 293.681224 411.98923 
L 296.040337 411.963477 
L 298.247249 411.951417 
L 299.312655 412.030332 
L 300.910764 411.919773 
L 306.466095 411.772209 
L 307.912003 411.910137 
L 308.673007 411.920281 
L 310.347216 411.85167 
L 313.010731 411.891351 
L 316.815752 411.281914 
L 317.652857 411.375949 
L 319.098765 411.505848 
L 321.990581 411.167401 
L 322.827685 411.065535 
L 325.719501 410.828244 
L 326.480506 410.943782 
L 327.089309 411.033779 
L 327.774213 411.214052 
L 328.611317 411.382314 
L 332.111937 411.74769 
L 332.872941 411.741236 
L 333.786146 411.713018 
L 338.19997 411.479371 
L 338.656573 411.519852 
L 341.77669 411.369656 
L 344.288004 411.39528 
L 347.788624 411.424625 
L 348.93013 411.293749 
L 351.365343 411.08461 
L 355.474766 411.519631 
L 357.301176 411.311437 
L 358.138281 411.411274 
L 359.355888 411.605519 
L 361.030097 411.718885 
L 361.715001 411.808359 
L 364.302415 411.232272 
L 365.976624 411.309448 
L 367.194231 411.362718 
L 369.705545 411.285477 
L 370.770951 411.518913 
L 371.379754 411.530523 
L 372.521261 411.528115 
L 373.510566 411.558321 
L 375.717478 411.405094 
L 377.924391 411.731467 
L 379.6747 411.708188 
L 384.316826 412.340315 
L 385.762734 412.115067 
L 386.82814 412.019171 
L 387.741345 412.114181 
L 389.415554 412.081269 
L 390.633161 412.164495 
L 391.774667 411.969372 
L 392.535672 411.76906 
L 393.601077 411.748241 
L 394.590383 411.653458 
L 395.351387 411.473606 
L 396.264592 411.250665 
L 398.014902 411.272865 
L 398.699806 411.430809 
L 399.308609 411.560138 
L 402.124325 411.737977 
L 402.809228 411.60881 
L 403.341931 411.573086 
L 404.255136 411.524764 
L 408.821162 411.034943 
L 409.886568 410.974953 
L 419.475221 411.245474 
L 420.692828 411.284041 
L 421.301631 411.311277 
L 423.736844 411.15963 
L 424.421748 411.1123 
L 425.411054 411.002142 
L 427.389665 410.971321 
L 428.607271 410.839267 
L 431.879589 411.014095 
L 434.086502 410.666873 
L 435.60851 410.581338 
L 436.217314 410.679925 
L 436.978318 410.830539 
L 439.033029 410.955137 
L 440.402837 411.213552 
L 441.392142 411.275352 
L 442.381448 411.26981 
L 445.653766 411.383494 
L 447.023573 411.443064 
L 449.534887 411.664048 
L 452.655005 412.035724 
L 455.775122 411.618286 
L 456.840528 411.554021 
L 458.438637 411.517726 
L 461.102151 411.253903 
L 463.156863 410.948424 
L 464.983273 410.945586 
L 465.896478 411.049147 
L 468.483892 411.355579 
L 469.168796 411.31791 
L 470.082001 411.296811 
L 471.75621 411.358716 
L 473.278219 411.277668 
L 474.495826 411.441037 
L 477.692043 411.536674 
L 478.757449 411.570014 
L 480.431659 411.68493 
L 481.649265 411.585748 
L 482.334169 411.530551 
L 484.845483 411.574553 
L 485.758688 411.45605 
L 488.041701 411.682329 
L 489.183207 411.672499 
L 491.61842 411.494016 
L 492.531626 411.335609 
L 493.216529 411.273575 
L 496.184446 411.647828 
L 500.141668 412.206961 
L 501.891977 412.255652 
L 502.500781 412.295181 
L 503.794488 412.088995 
L 505.240396 411.896425 
L 506.153601 411.864621 
L 507.295107 411.823781 
L 511.024028 412.041395 
L 512.241635 411.89901 
L 513.307041 411.787878 
L 514.372447 411.751916 
L 515.590053 411.63777 
L 517.568664 411.703825 
L 520.46048 411.622746 
L 521.069284 411.62264 
L 525.330907 411.384929 
L 526.244112 411.359217 
L 528.907627 411.244448 
L 533.321452 411.788877 
L 537.126473 411.169146 
L 538.648481 411.266689 
L 540.094389 411.209955 
L 540.931494 411.30759 
L 544.508214 411.718943 
L 545.497519 411.517862 
L 546.182423 411.354055 
L 547.323929 411.165372 
L 550.900649 411.438056 
L 551.585553 411.43785 
L 553.259762 411.400734 
L 555.999377 411.026918 
L 556.836482 410.971169 
L 557.445285 410.946625 
L 560.717603 411.452685 
L 561.630808 411.327044 
L 564.066022 411.322125 
L 565.816332 411.363246 
L 567.490541 411.7062 
L 569.16475 411.739278 
L 569.849654 411.792701 
L 571.523863 411.72758 
L 574.035177 411.595411 
L 579.438307 411.939566 
L 581.79742 411.57502 
L 582.406224 411.651555 
L 583.54773 411.830216 
L 584.689236 411.937847 
L 585.754642 411.871433 
L 586.896148 411.702978 
L 587.581052 411.585308 
L 588.342056 411.507826 
L 588.95086 411.529944 
L 591.233872 411.728469 
L 591.918776 411.765127 
L 593.897387 411.856073 
L 594.582291 411.902376 
L 595.571596 411.915455 
L 596.713103 412.016052 
L 597.626308 412.075372 
L 599.300517 411.975958 
L 599.90932 411.822167 
L 600.898626 411.740853 
L 601.65963 411.65232 
L 602.344534 411.511172 
L 606.377856 411.648981 
L 606.98666 411.618503 
L 608.736969 411.436897 
L 611.628785 411.615655 
L 615.281606 411.198276 
L 616.11871 410.962938 
L 616.727514 411.004109 
L 619.238828 411.159531 
L 621.065238 411.335084 
L 621.750141 411.181802 
L 622.358945 411.112691 
L 624.641958 411.005127 
L 626.392267 411.426802 
L 627.229372 411.514338 
L 629.055782 411.452267 
L 630.197288 411.304806 
L 632.860803 411.217372 
L 633.697908 411.197388 
L 634.991615 411.299723 
L 636.209222 411.383423 
L 637.274628 411.192173 
L 638.644435 411.075412 
L 642.145054 410.733194 
L 643.819264 410.955135 
L 644.732469 410.99549 
L 645.721774 411.275055 
L 646.71108 411.377523 
L 650.44 410.994135 
L 651.048804 411.013006 
L 655.158227 411.059799 
L 656.908536 411.185524 
L 658.202243 411.231383 
L 659.952553 411.346589 
L 660.561357 411.432308 
L 661.931164 411.536425 
L 663.300972 411.555742 
L 666.725491 412.104259 
L 667.638696 412.220405 
L 669.465106 412.022576 
L 670.911014 411.553123 
L 673.270127 411.620769 
L 674.868236 411.749322 
L 676.161943 411.60883 
L 679.129859 411.2558 
L 679.738663 411.27936 
L 680.499667 411.204216 
L 681.03237 411.247129 
L 681.945575 411.237757 
L 682.402178 411.289498 
L 683.391483 411.5112 
L 684.076387 411.5 
L 685.141793 411.156698 
L 686.4355 411.028042 
L 689.403416 411.318428 
L 691.001525 411.090784 
L 691.686429 411.012349 
L 692.904036 410.990477 
L 693.817241 411.088377 
L 696.404655 411.218605 
L 697.013459 411.338147 
L 698.992069 411.204278 
L 700.133576 411.201749 
L 700.97068 411.236461 
L 702.340488 411.420825 
L 703.253693 411.414579 
L 704.242999 411.490768 
L 708.504622 411.23051 
L 709.189526 411.317562 
L 710.787635 411.339101 
L 711.472539 411.367912 
L 712.537945 411.454454 
L 715.962463 411.777049 
L 716.875669 411.88248 
L 719.386982 411.53039 
L 720.224087 411.413494 
L 722.5832 411.135379 
L 723.268104 411.06739 
L 726.08382 410.986981 
L 727.301426 411.132741 
L 727.834129 411.196112 
L 729.508339 411.317912 
L 731.106447 411.343242 
L 732.095753 411.335499 
L 736.813979 411.484279 
L 737.346682 411.569987 
L 738.031586 411.655848 
L 739.249193 411.776092 
L 741.760506 411.714079 
L 742.44541 411.691621 
L 743.054214 411.601333 
L 744.956724 411.678676 
L 745.793829 411.807233 
L 746.935335 411.915941 
L 747.163636 411.892501 
L 747.163636 411.892501 
" clip-path="url(#p92e7d47204)" style="fill: none; stroke: #9467bd; stroke-width: 2; stroke-linecap: round"/>
   </g>
   <g id="line2d_47">
    <path d="M 138.436364 75.33 
L 139.197368 118.435519 
L 140.110573 156.974819 
L 141.175979 192.056054 
L 142.317485 222.080081 
L 143.535092 248.17902 
L 144.752699 269.622978 
L 146.046406 288.424434 
L 147.340113 303.993863 
L 148.709921 317.821862 
L 150.079728 329.385031 
L 151.449536 339.179868 
L 152.895444 347.85355 
L 154.493553 356.170287 
L 155.86336 362.105114 
L 157.61367 368.725546 
L 159.135678 373.628467 
L 160.809888 378.304803 
L 162.407996 382.103452 
L 164.310507 386.072366 
L 165.604214 388.201823 
L 167.278423 390.687621 
L 169.028733 392.900043 
L 172.377152 396.440052 
L 173.89916 397.850022 
L 175.421169 398.993898 
L 176.562675 399.747873 
L 183.640014 403.682462 
L 185.390324 404.459906 
L 187.673336 405.356512 
L 189.880249 406.063371 
L 199.468902 408.547952 
L 204.719831 409.331017 
L 212.101572 409.738501 
L 213.471379 409.812063 
L 218.722308 410.077168 
L 221.005321 410.359041 
L 223.973238 410.388195 
L 234.094594 410.129866 
L 237.899615 410.523699 
L 243.759347 410.934731 
L 249.086377 411.058318 
L 255.783214 411.278052 
L 258.370628 411.287753 
L 259.664335 411.480573 
L 260.653641 411.608181 
L 265.295767 411.828638 
L 267.350478 411.83246 
L 269.48129 411.983336 
L 277.700135 411.628255 
L 281.048554 411.72255 
L 288.658596 412.090559 
L 290.104504 412.168977 
L 292.539717 412.072394 
L 301.671768 411.433273 
L 302.813274 411.297474 
L 304.867986 411.32523 
L 308.749107 411.494673 
L 310.423317 411.610762 
L 311.488722 411.750659 
L 314.989342 411.968153 
L 316.206949 412.009412 
L 318.718263 412.007768 
L 322.827685 411.772895 
L 323.74089 411.529365 
L 325.034598 411.223167 
L 328.078614 411.197212 
L 333.557845 411.898 
L 335.079853 412.045002 
L 337.667267 412.118428 
L 339.037075 412.168143 
L 340.711284 412.171751 
L 344.059703 412.046222 
L 345.657812 411.991401 
L 349.310632 411.947733 
L 350.452138 411.893109 
L 356.311871 412.430021 
L 358.747084 412.47014 
L 373.586667 411.73426 
L 374.804273 411.768871 
L 377.011185 411.770569 
L 382.870918 411.927333 
L 383.860223 411.873753 
L 389.187253 411.450569 
L 391.698567 411.16699 
L 395.275287 410.768008 
L 400.830617 411.031516 
L 402.809228 411.042431 
L 407.907957 411.069533 
L 409.429965 411.041962 
L 413.234986 411.198704 
L 414.680894 411.142086 
L 415.898501 410.982567 
L 418.257614 410.752902 
L 419.24692 410.69552 
L 421.22553 410.590336 
L 424.954451 410.44934 
L 426.933062 410.292561 
L 430.585882 409.896369 
L 431.95569 409.89484 
L 433.629899 410.160237 
L 434.467004 410.232303 
L 436.902217 410.28231 
L 438.728627 410.281397 
L 440.478937 410.239938 
L 443.827356 410.381161 
L 446.110368 410.677022 
L 450.448092 411.313938 
L 452.350603 411.438602 
L 454.253113 411.589169 
L 455.242419 411.61774 
L 456.764427 411.609589 
L 461.939256 411.542014 
L 468.788294 411.223684 
L 470.843005 411.435996 
L 472.517215 411.540985 
L 475.789533 411.495976 
L 477.539842 411.62128 
L 480.583859 412.028025 
L 482.258069 412.177758 
L 483.856177 412.084513 
L 485.073784 412.046977 
L 486.519692 411.972382 
L 488.650504 411.774575 
L 491.237918 411.595443 
L 494.358036 411.289918 
L 500.293869 411.470547 
L 503.794488 411.457979 
L 505.392597 411.504959 
L 507.903911 411.423127 
L 509.349819 411.421152 
L 511.556731 411.221633 
L 514.372447 410.962934 
L 519.623376 411.266525 
L 522.895694 411.165638 
L 524.0372 411.060138 
L 526.091911 410.977642 
L 527.994422 410.928091 
L 529.896933 410.961092 
L 532.788749 411.306682 
L 536.745971 411.155352 
L 544.356013 411.520483 
L 545.801921 411.488493 
L 551.509452 411.759672 
L 553.107561 411.598028 
L 559.043394 411.389616 
L 563.000616 411.536946 
L 564.827026 411.629795 
L 567.033938 411.77725 
L 568.251545 411.872202 
L 569.849654 411.901781 
L 571.143361 411.871059 
L 572.513169 411.996081 
L 576.622591 412.32164 
L 578.981705 412.257827 
L 582.938926 412.128204 
L 587.12445 412.069725 
L 588.418157 412.092259 
L 590.016266 412.208377 
L 593.897387 412.289427 
L 595.952099 412.459976 
L 601.050827 412.364902 
L 603.333839 412.163974 
L 605.845153 411.884258 
L 609.193572 411.767229 
L 614.977204 411.729017 
L 616.04261 411.742679 
L 619.391028 411.756222 
L 622.739447 411.655301 
L 633.621807 411.58143 
L 635.90482 411.585314 
L 638.416134 411.441915 
L 644.580268 411.946699 
L 646.330578 412.059083 
L 649.526795 411.687078 
L 657.745641 410.981341 
L 664.82298 411.265575 
L 667.866997 411.619568 
L 669.389005 411.764466 
L 672.204721 411.876382 
L 673.80283 411.930213 
L 676.694646 411.998657 
L 679.053759 412.04624 
L 680.499667 412.025645 
L 682.93488 411.939453 
L 685.446194 411.929565 
L 689.783918 411.653386 
L 691.382027 411.752624 
L 694.045542 411.995305 
L 698.231065 412.304306 
L 703.177593 411.872553 
L 705.384505 411.874763 
L 709.95053 412.322992 
L 712.385744 412.450177 
L 714.973158 412.768092 
L 718.549878 412.987476 
L 720.985091 412.938496 
L 722.278798 412.970706 
L 724.257409 412.962668 
L 729.280037 412.902464 
L 735.291971 412.562249 
L 736.661778 412.442477 
L 739.629695 412.351047 
L 740.847301 412.417288 
L 741.836607 412.48635 
L 743.206414 412.662819 
L 746.859235 413.228907 
L 747.163636 413.226857 
L 747.163636 413.226857 
" clip-path="url(#p92e7d47204)" style="fill: none; stroke: #ff7f0e; stroke-width: 1.2; stroke-linecap: round"/>
   </g>
   <g id="line2d_48">
    <path d="M 138.436364 75.33 
L 139.273468 103.779247 
L 140.338874 131.984626 
L 141.556481 158.366019 
L 142.926289 183.209077 
L 144.448297 206.666051 
L 146.046406 227.874474 
L 147.720615 247.004281 
L 149.470925 264.356659 
L 151.069034 278.062307 
L 152.971544 292.525614 
L 154.645753 303.697603 
L 156.472164 314.437145 
L 158.526875 325.022829 
L 160.277185 332.945931 
L 162.103595 340.229329 
L 164.234407 347.816072 
L 165.908616 353.068687 
L 167.658926 357.8923 
L 170.018039 363.667724 
L 172.224951 368.493225 
L 174.279662 372.585378 
L 175.953872 375.460571 
L 178.312985 379.087151 
L 181.0526 382.647431 
L 183.563914 385.468975 
L 187.216734 389.157917 
L 189.423646 390.984833 
L 193.609169 394.170991 
L 199.240601 397.761473 
L 202.360718 399.402208 
L 207.383346 401.761785 
L 209.438057 402.479824 
L 214.004082 404.238598 
L 218.265706 405.574581 
L 229.528568 407.317369 
L 232.572585 407.572399 
L 235.464401 407.889994 
L 245.966259 409.071024 
L 249.466879 409.562231 
L 252.967498 409.950668 
L 256.011515 410.226274 
L 258.066226 410.407389 
L 268.948587 410.970866 
L 272.525307 411.425903 
L 274.732219 411.549162 
L 278.308939 411.574413 
L 280.135349 411.639191 
L 284.092571 411.816251 
L 286.451684 411.717344 
L 289.4196 411.597294 
L 302.965475 411.682265 
L 306.389994 411.408865 
L 308.140304 411.198953 
L 314.60884 410.830542 
L 322.294982 410.286441 
L 330.209426 410.494575 
L 331.959736 410.476889 
L 337.743368 410.880854 
L 340.939586 411.183629 
L 349.462833 411.389958 
L 351.517544 411.399106 
L 360.040791 411.705623 
L 363.160909 411.601148 
L 370.999252 411.616437 
L 373.510566 411.529465 
L 375.565277 411.387583 
L 378.380993 411.193891 
L 388.045747 410.852679 
L 392.002969 411.081076 
L 394.285981 411.197614 
L 400.069613 411.394322 
L 401.972124 411.431614 
L 404.255136 411.550111 
L 418.181514 411.628596 
L 420.236225 411.797373 
L 426.400359 412.32775 
L 429.900979 412.42668 
L 431.95569 412.4508 
L 434.238703 412.394549 
L 441.01164 412.439004 
L 446.034268 412.875375 
L 452.807205 412.9928 
L 456.231724 412.802348 
L 458.438637 412.742341 
L 460.79775 412.677345 
L 463.537365 412.549922 
L 468.940495 412.541962 
L 471.223507 412.608808 
L 475.941734 412.605285 
L 480.051156 412.338794 
L 483.932278 412.362009 
L 495.956145 412.402074 
L 499.685065 412.165051 
L 506.838505 412.342617 
L 512.317735 412.770186 
L 519.775576 412.897872 
L 525.178706 412.915014 
L 528.298824 412.869963 
L 533.321452 412.781771 
L 535.604464 412.646028 
L 543.89941 412.065061 
L 555.162273 411.398857 
L 561.022005 411.618245 
L 564.598725 411.642854 
L 570.838959 411.789506 
L 575.785487 411.672329 
L 577.155294 411.706887 
L 580.123211 411.792867 
L 589.331362 411.67799 
L 597.321906 411.079131 
L 601.355228 410.836355 
L 603.333839 410.823179 
L 607.06276 411.186933 
L 609.878476 411.461091 
L 611.476585 411.582858 
L 613.683497 411.656994 
L 619.162727 411.266718 
L 622.206744 410.988393 
L 633.774008 410.348919 
L 635.676519 410.369953 
L 638.416134 410.283482 
L 641.840653 410.281431 
L 645.721774 410.480542 
L 648.080887 410.667511 
L 653.864519 410.894692 
L 656.071432 410.955617 
L 659.191549 411.108524 
L 666.421089 411.377704 
L 676.390244 411.142018 
L 679.586462 411.121407 
L 681.260671 411.122935 
L 684.380789 410.927823 
L 691.229826 410.381418 
L 695.49145 410.561181 
L 700.133576 410.976017 
L 702.797091 411.071822 
L 705.688907 411.020092 
L 708.04802 411.037713 
L 710.102731 411.048772 
L 712.690145 410.912522 
L 723.039803 410.715995 
L 728.366832 410.472296 
L 732.019652 410.352808 
L 737.498883 410.123217 
L 741.532205 410.309565 
L 747.163636 410.609915 
L 747.163636 410.609915 
" clip-path="url(#p92e7d47204)" style="fill: none; stroke: #2ca02c; stroke-width: 1.2; stroke-linecap: round"/>
   </g>
   <g id="line2d_49">
    <path d="M 138.436364 75.33 
L 139.349569 97.365082 
L 140.491075 119.337952 
L 141.860883 141.382445 
L 143.458991 163.397187 
L 145.209301 184.372657 
L 147.035711 203.562611 
L 148.938222 221.218099 
L 150.916833 237.534485 
L 152.895444 252.139447 
L 154.950155 265.664376 
L 157.080967 278.241421 
L 159.36398 290.380253 
L 161.570892 300.906683 
L 163.701704 309.993405 
L 165.756415 317.936122 
L 167.811126 324.997232 
L 170.018039 331.908312 
L 172.377152 338.670848 
L 174.507963 344.05445 
L 177.095378 349.920068 
L 179.22619 354.225007 
L 182.118006 359.496804 
L 184.324918 363.026453 
L 186.684031 366.505031 
L 189.880249 370.909251 
L 192.924266 374.657819 
L 195.968282 378.059633 
L 198.707898 380.699687 
L 201.219211 382.895565 
L 204.948132 385.764791 
L 210.427363 389.480473 
L 214.004082 391.415682 
L 217.961304 393.623135 
L 220.472618 394.899433 
L 223.060033 396.060337 
L 235.768803 400.436531 
L 240.63923 401.982244 
L 243.074443 402.712542 
L 250.227883 404.070372 
L 253.500201 404.706848 
L 257.761825 405.591328 
L 272.525307 406.91684 
L 275.188821 407.411751 
L 280.059248 408.003071 
L 304.944086 409.6424 
L 307.835902 409.975166 
L 311.717024 410.29984 
L 314.456639 410.49406 
L 323.132087 411.17432 
L 327.545911 411.247214 
L 332.872941 411.447763 
L 338.276071 411.382826 
L 348.093025 411.48277 
L 356.540172 411.114099 
L 362.095503 410.780324 
L 364.682917 410.846151 
L 377.77219 411.375062 
L 399.308609 411.069764 
L 404.483438 411.44037 
L 413.463287 411.400485 
L 422.823639 410.642369 
L 429.672677 410.326506 
L 432.564493 410.278005 
L 437.815422 410.483348 
L 440.402837 410.359735 
L 456.764427 409.246934 
L 466.961884 408.796016 
L 472.517215 408.559278 
L 485.225985 408.441997 
L 487.432897 408.469899 
L 489.944211 408.450321 
L 496.412747 408.456441 
L 502.120279 408.668876 
L 511.32843 409.125942 
L 514.296346 409.255301 
L 521.221485 409.732792 
L 523.884999 409.767247 
L 538.952883 410.35768 
L 542.605703 410.601506 
L 546.943427 410.736558 
L 549.530841 410.64568 
L 551.585553 410.597719 
L 560.489302 410.487503 
L 565.055327 410.490118 
L 582.938926 411.27791 
L 584.917537 411.347889 
L 587.048349 411.397097 
L 591.005571 411.278106 
L 594.201789 411.251598 
L 596.865304 411.194322 
L 600.974726 411.185976 
L 605.388551 411.14615 
L 608.052066 411.178165 
L 614.901104 411.314811 
L 616.575313 411.281965 
L 621.826242 411.140294 
L 627.914276 411.05587 
L 651.277105 411.432887 
L 656.984637 411.211212 
L 667.562595 411.326103 
L 687.500906 410.136172 
L 693.284538 409.673446 
L 709.798329 409.826351 
L 714.592656 410.047046 
L 720.908991 409.821742 
L 722.735401 409.760484 
L 731.106447 409.788651 
L 744.043519 409.714305 
L 747.163636 409.954163 
L 747.163636 409.954163 
" clip-path="url(#p92e7d47204)" style="fill: none; stroke: #8c564b; stroke-width: 1.2; stroke-linecap: round"/>
   </g>
   <g id="line2d_50">
    <path d="M 138.436364 75.33 
L 139.349569 92.184718 
L 140.567175 110.480752 
L 142.013083 128.873131 
L 143.763393 148.261863 
L 145.589803 166.044461 
L 147.644515 183.859606 
L 150.003628 202.258077 
L 152.13444 217.214213 
L 154.417452 231.693211 
L 156.700465 244.836351 
L 159.135678 257.549664 
L 161.570892 269.132663 
L 164.082206 280.047217 
L 166.59352 289.96569 
L 169.180934 299.381031 
L 171.844449 308.254294 
L 173.975261 314.689435 
L 176.714876 322.242941 
L 179.150089 328.342355 
L 181.813604 334.396337 
L 184.78152 340.567627 
L 187.977738 346.653001 
L 190.565152 351.095687 
L 194.065772 356.574063 
L 196.957588 360.693829 
L 199.621103 364.247647 
L 202.589019 367.86679 
L 205.176433 370.790555 
L 207.535546 373.174192 
L 211.416668 376.699756 
L 215.526091 380.245242 
L 219.711614 383.529836 
L 222.60343 385.597284 
L 229.75687 390.185792 
L 235.844903 393.489104 
L 239.497724 395.238266 
L 241.856837 396.211651 
L 247.86877 398.457895 
L 251.369389 399.742465 
L 256.392017 401.378896 
L 268.035382 404.725093 
L 274.047315 405.864208 
L 279.830947 406.955589 
L 284.092571 407.76265 
L 287.51709 408.199591 
L 292.615818 408.78605 
L 312.478028 410.248737 
L 321.610079 410.643885 
L 328.915719 410.933488 
L 332.188037 410.938292 
L 335.840857 411.004457 
L 339.721979 410.948511 
L 346.418816 410.861148 
L 355.550867 410.727767 
L 357.98608 410.641171 
L 363.008708 410.824417 
L 365.900524 410.943101 
L 369.781645 410.959962 
L 377.087286 410.755287 
L 384.392926 410.322862 
L 395.275287 409.739535 
L 398.395404 409.704082 
L 402.504827 409.738242 
L 405.016141 409.752964 
L 413.691589 409.607047 
L 422.595338 409.62092 
L 427.922368 409.562013 
L 434.543104 409.583663 
L 437.663222 409.486717 
L 455.47072 409.257739 
L 462.167557 409.053527 
L 485.302085 408.87277 
L 491.770621 408.563212 
L 495.575642 408.417943 
L 503.566187 408.537795 
L 515.285652 409.112882 
L 518.55797 409.146909 
L 522.515192 409.360504 
L 527.233418 409.564407 
L 532.027744 409.882961 
L 538.039678 410.437602 
L 546.410724 410.941603 
L 548.922038 411.13221 
L 553.868565 411.513039 
L 557.673586 411.692821 
L 560.717603 411.841828 
L 565.055327 411.96193 
L 570.686759 412.176716 
L 577.992399 412.57482 
L 584.004332 412.642457 
L 589.331362 412.684516 
L 591.690475 412.686109 
L 594.35399 412.714949 
L 600.365923 413.106362 
L 605.464651 413.436587 
L 618.401723 414.097728 
L 630.121188 415.031354 
L 634.687213 415.122211 
L 638.796636 415.33008 
L 645.417373 415.522679 
L 647.167682 415.476529 
L 650.972703 415.211385 
L 654.473323 415.009129 
L 666.64939 414.496122 
L 678.825458 414.057015 
L 681.945575 413.934292 
L 691.686429 413.67223 
L 694.806546 413.616738 
L 700.057475 413.644346 
L 706.754312 413.8264 
L 711.320338 414.038483 
L 714.516555 414.07266 
L 720.604589 414.046336 
L 724.485711 414.211795 
L 727.301426 414.181761 
L 737.270582 413.825104 
L 740.923402 413.694108 
L 747.163636 413.521974 
L 747.163636 413.521974 
" clip-path="url(#p92e7d47204)" style="fill: none; stroke: #e377c2; stroke-width: 1.2; stroke-linecap: round"/>
   </g>
   <g id="line2d_51">
    <path d="M 138.436364 75.33 
L 139.425669 89.602357 
L 140.719376 104.956248 
L 142.317485 121.267003 
L 144.143895 137.663075 
L 146.198607 154.136624 
L 148.405519 170.082795 
L 150.840732 186.041046 
L 153.275946 200.602544 
L 155.939461 215.149126 
L 158.526875 227.981373 
L 161.114289 239.740247 
L 163.853904 251.165661 
L 166.66962 261.934087 
L 169.409235 271.490292 
L 172.301051 280.761567 
L 175.268968 289.473494 
L 178.617386 298.581839 
L 181.737504 306.437769 
L 185.085922 314.244657 
L 187.977738 320.533062 
L 191.097855 326.770203 
L 194.598475 333.246106 
L 198.251295 339.477925 
L 202.66512 346.473907 
L 205.785237 350.957259 
L 209.285856 355.522339 
L 212.253773 359.053807 
L 216.134894 363.30954 
L 219.255011 366.414904 
L 223.744936 370.57961 
L 227.017254 373.363222 
L 231.050577 376.426156 
L 234.094594 378.547762 
L 238.204016 381.173328 
L 247.488268 386.344481 
L 251.141088 388.132775 
L 258.67503 391.383727 
L 268.796386 395.167166 
L 278.232838 397.741719 
L 284.396972 399.015015 
L 293.376822 400.887924 
L 302.813274 403.417285 
L 308.216404 404.610628 
L 317.728957 406.484872 
L 325.186798 407.702606 
L 333.557845 408.486681 
L 340.026381 408.785298 
L 355.550867 409.141442 
L 366.433227 409.977188 
L 371.531955 410.350968 
L 373.662767 410.370607 
L 379.522499 410.24348 
L 385.230031 410.294738 
L 392.992274 410.188878 
L 406.61425 410.113078 
L 412.702283 410.14177 
L 419.32302 410.143264 
L 424.193447 410.338499 
L 429.672677 410.71184 
L 432.260092 410.783843 
L 447.023573 410.954318 
L 459.504043 410.961374 
L 465.211574 411.255769 
L 475.028529 411.34113 
L 478.224746 411.319557 
L 486.747993 411.560476 
L 491.922822 411.740583 
L 494.966839 411.717803 
L 498.77186 411.779781 
L 511.024028 412.336307 
L 522.971794 413.252297 
L 526.776815 413.662158 
L 533.245351 414.085281 
L 537.887477 414.455608 
L 542.301301 414.653656 
L 549.150339 414.684913 
L 559.423896 414.468827 
L 569.08865 413.945905 
L 586.896148 413.63395 
L 591.233872 413.463938 
L 610.867781 413.010184 
L 614.596702 412.799328 
L 634.458912 412.359853 
L 646.178377 411.738449 
L 660.256955 411.942279 
L 669.160704 411.783883 
L 674.487734 411.642201 
L 679.129859 411.599824 
L 687.729207 411.377779 
L 693.58894 411.31964 
L 700.89458 411.569092 
L 703.634195 411.640789 
L 719.995786 411.794382 
L 727.225326 411.626406 
L 736.205176 411.724664 
L 744.119619 411.798155 
L 747.163636 411.841258 
L 747.163636 411.841258 
" clip-path="url(#p92e7d47204)" style="fill: none; stroke: #7f7f7f; stroke-width: 1.2; stroke-linecap: round"/>
   </g>
   <g id="line2d_52">
    <path d="M 138.436364 75.33 
L 139.50177 85.535051 
L 140.947678 97.211176 
L 142.774088 110.101821 
L 144.828799 123.042943 
L 147.111812 136.078208 
L 149.547025 148.686659 
L 152.13444 160.922571 
L 154.950155 173.251528 
L 157.994172 185.565028 
L 161.038189 196.956239 
L 164.462708 208.983056 
L 167.658926 219.380554 
L 171.083445 229.759141 
L 175.040666 241.043411 
L 178.389085 249.91599 
L 181.889704 258.56341 
L 185.162023 266.055404 
L 188.738742 273.67006 
L 192.695964 281.563108 
L 197.185889 290.005648 
L 200.686509 296.123374 
L 204.339329 302.0903 
L 207.611647 307.087866 
L 211.416668 312.54793 
L 216.591497 319.566676 
L 221.233622 325.433362 
L 224.734242 329.493729 
L 229.071966 334.170977 
L 235.16 340.321307 
L 242.38954 347.113227 
L 246.498962 350.668283 
L 251.902092 355.007029 
L 256.544218 358.439324 
L 262.099549 362.35435 
L 265.676269 364.560548 
L 273.971215 369.267395 
L 279.678746 372.252505 
L 285.310177 374.757884 
L 291.930914 377.543769 
L 299.921458 380.615032 
L 308.825208 383.582324 
L 330.285527 389.752986 
L 341.320088 392.514845 
L 345.049008 393.338022 
L 355.246465 395.520002 
L 360.421294 396.773602 
L 368.564039 398.38413 
L 377.315587 399.769501 
L 380.587905 400.108568 
L 385.610533 400.425188 
L 389.948257 400.7503 
L 403.341931 401.921738 
L 407.527455 402.264899 
L 433.477698 405.112948 
L 451.056896 407.204172 
L 465.668177 408.666121 
L 469.244897 408.888935 
L 498.239157 410.841605 
L 504.935994 410.965267 
L 517.949166 411.210499 
L 527.005117 411.360979 
L 532.636548 411.515494 
L 541.083695 411.731542 
L 549.835243 411.840686 
L 568.175445 411.687408 
L 578.981705 411.200197 
L 585.602441 410.940092 
L 610.335078 410.074737 
L 618.021221 409.663819 
L 632.252 409.578526 
L 643.438762 409.789387 
L 646.558879 409.901311 
L 656.604135 410.361963 
L 662.387767 410.529254 
L 667.562595 410.664154 
L 674.792135 410.7262 
L 685.446194 410.67303 
L 693.969442 410.708887 
L 712.005242 410.903322 
L 721.365593 411.174234 
L 725.322815 411.326036 
L 733.693862 411.557277 
L 742.902013 411.558226 
L 747.163636 411.575579 
L 747.163636 411.575579 
" clip-path="url(#p92e7d47204)" style="fill: none; stroke: #1f77b4; stroke-width: 1.2; stroke-linecap: round"/>
   </g>
   <g id="line2d_53">
    <path d="M 138.436364 75.33 
L 139.57787 83.070493 
L 141.175979 92.376383 
L 143.15459 102.590205 
L 145.513703 113.545336 
L 148.101117 124.492189 
L 150.992933 135.775648 
L 153.96085 146.503076 
L 157.233168 157.483057 
L 160.809888 168.678419 
L 164.538808 179.609541 
L 168.648231 190.917688 
L 172.681553 201.337316 
L 176.562675 210.847395 
L 180.748198 220.503701 
L 184.70542 229.064018 
L 188.129939 236.016379 
L 192.239362 243.892122 
L 196.577086 251.730436 
L 200.838709 259.028083 
L 205.785237 267.047912 
L 210.579563 274.432434 
L 216.210995 282.643648 
L 220.85312 288.997247 
L 225.266945 294.716625 
L 230.061271 300.595372 
L 234.551196 305.699219 
L 240.63923 312.277632 
L 245.966259 317.686762 
L 251.141088 322.731792 
L 256.239816 327.391837 
L 259.816536 330.42635 
L 266.056771 335.411957 
L 270.774997 338.970042 
L 275.721524 342.416027 
L 281.048554 345.922677 
L 287.59319 350.004718 
L 292.235316 352.713361 
L 298.703852 356.367706 
L 309.129609 362.000415 
L 314.152237 364.412103 
L 322.066681 367.989221 
L 328.002514 370.414496 
L 337.134565 373.951428 
L 350.75654 378.541688 
L 361.182298 381.578542 
L 368.487938 383.4052 
L 374.423771 384.793768 
L 379.370299 385.828664 
L 392.916174 388.586085 
L 404.026835 390.564813 
L 441.848745 396.887261 
L 455.47072 398.748497 
L 461.863156 399.532778 
L 492.227224 402.965449 
L 499.304563 403.45935 
L 523.276196 404.752507 
L 546.182423 405.203679 
L 561.554708 405.822831 
L 575.785487 406.536807 
L 588.722559 407.040396 
L 616.270911 408.718047 
L 629.664585 409.64579 
L 636.437523 409.938728 
L 644.199766 410.215764 
L 659.039348 410.927098 
L 676.694646 411.666375 
L 682.326077 411.91233 
L 699.372572 412.496472 
L 704.166898 412.607302 
L 723.572506 413.170145 
L 747.163636 413.364916 
L 747.163636 413.364916 
" clip-path="url(#p92e7d47204)" style="fill: none; stroke: #d62728; stroke-width: 1.2; stroke-linecap: round"/>
   </g>
   <g id="patch_3">
    <path d="M 108 432.54 
L 108 58.32 
" style="fill: none; stroke: #000000; stroke-linejoin: miter; stroke-linecap: square"/>
   </g>
   <g id="patch_4">
    <path d="M 777.6 432.54 
L 777.6 58.32 
" style="fill: none; stroke: #000000; stroke-linejoin: miter; stroke-linecap: square"/>
   </g>
   <g id="patch_5">
    <path d="M 108 432.54 
L 777.6 432.54 
" style="fill: none; stroke: #000000; stroke-linejoin: miter; stroke-linecap: square"/>
   </g>
   <g id="patch_6">
    <path d="M 108 58.32 
L 777.6 58.32 
" style="fill: none; stroke: #000000; stroke-linejoin: miter; stroke-linecap: square"/>
   </g>
   <g id="text_18">
    <!-- Autocorrelation function -->
    <g style="fill: #262626" transform="translate(363.62556 52.32) scale(0.16 -0.16)">
     <defs>
      <path id="CMSS17-75" d="M 2618 2752 
L 2131 2752 
L 2131 976 
C 2131 500 1786 307 1421 307 
C 998 307 960 448 960 712 
L 960 2752 
L 474 2752 
L 474 680 
C 474 179 646 -64 1088 -64 
C 1306 -64 1798 -13 2144 307 
L 2144 -13 
L 2618 -13 
L 2618 2752 
z
" transform="scale(0.015625)"/>
      <path id="CMSS17-74" d="M 1069 2380 
L 1901 2380 
L 1901 2752 
L 1069 2752 
L 1069 3520 
L 614 3520 
L 614 2752 
L 109 2752 
L 109 2380 
L 602 2380 
L 602 751 
C 602 384 685 -64 1107 -64 
C 1427 -64 1722 25 2003 172 
L 1901 551 
C 1747 416 1562 339 1363 339 
C 1082 339 1069 699 1069 860 
L 1069 2380 
z
" transform="scale(0.015625)"/>
      <path id="CMSS17-6f" d="M 2829 1356 
C 2829 2175 2221 2816 1504 2816 
C 768 2816 173 2156 173 1356 
C 173 544 787 -64 1498 -64 
C 2227 -64 2829 563 2829 1356 
z
M 1504 339 
C 1050 339 659 710 659 1407 
C 659 2150 1114 2425 1498 2425 
C 1914 2425 2342 2124 2342 1407 
C 2342 684 1926 339 1504 339 
z
" transform="scale(0.015625)"/>
      <path id="CMSS17-63" d="M 2464 2540 
C 2464 2585 2170 2713 2093 2739 
C 1882 2816 1613 2816 1542 2816 
C 710 2816 211 2092 211 1363 
C 211 595 768 -64 1517 -64 
C 1946 -64 2253 76 2502 243 
L 2464 665 
C 2189 454 1869 339 1523 339 
C 1024 339 698 774 698 1369 
C 698 1830 909 2412 1549 2412 
C 1901 2412 2099 2342 2394 2143 
L 2464 2540 
z
" transform="scale(0.015625)"/>
      <path id="CMSS17-72" d="M 954 1369 
C 954 1974 1395 2379 1958 2392 
L 1958 2816 
C 1549 2809 1165 2604 934 2270 
L 934 2783 
L 480 2783 
L 480 0 
L 954 0 
L 954 1369 
z
" transform="scale(0.015625)"/>
      <path id="CMSS17-65" d="M 2502 1375 
C 2502 1587 2490 2001 2285 2347 
C 2061 2713 1696 2816 1421 2816 
C 755 2816 192 2184 192 1363 
C 192 579 774 -64 1510 -64 
C 1798 -64 2150 19 2470 249 
C 2470 275 2458 414 2451 421 
C 2451 433 2432 629 2432 655 
C 2125 408 1773 326 1517 326 
C 1107 326 666 667 646 1375 
L 2502 1375 
z
M 698 1728 
C 781 2086 1062 2425 1421 2425 
C 1517 2425 1965 2412 2080 1728 
L 698 1728 
z
" transform="scale(0.015625)"/>
      <path id="CMSS17-69" d="M 979 4224 
L 442 4224 
L 442 3686 
L 979 3686 
L 979 4224 
z
M 947 2752 
L 474 2752 
L 474 0 
L 947 0 
L 947 2752 
z
" transform="scale(0.015625)"/>
      <path id="CMSS17-6e" d="M 2618 1878 
C 2618 2283 2522 2816 1798 2816 
C 1389 2816 1120 2604 941 2386 
L 941 2783 
L 474 2783 
L 474 0 
L 960 0 
L 960 1556 
C 960 1962 1114 2425 1549 2425 
C 2112 2425 2131 2045 2131 1826 
L 2131 0 
L 2618 0 
L 2618 1878 
z
" transform="scale(0.015625)"/>
      <path id="CMSS17-66" d="M 1075 2380 
L 1722 2380 
L 1722 2752 
L 1062 2752 
L 1062 3563 
C 1062 4013 1408 4089 1606 4089 
C 1670 4089 1850 4089 2080 4007 
L 2080 4428 
C 1933 4460 1754 4480 1613 4480 
C 1018 4480 602 3994 602 3366 
L 602 2752 
L 160 2752 
L 160 2380 
L 602 2380 
L 602 0 
L 1075 0 
L 1075 2380 
z
" transform="scale(0.015625)"/>
     </defs>
     <use xlink:href="#CMSS17-41" transform="scale(0.996264)"/>
     <use xlink:href="#CMSS17-75" transform="translate(62.217855 0) scale(0.996264)"/>
     <use xlink:href="#CMSS17-74" transform="translate(110.422798 0) scale(0.996264)"/>
     <use xlink:href="#CMSS17-6f" transform="translate(144.254365 0) scale(0.996264)"/>
     <use xlink:href="#CMSS17-63" transform="translate(193.700427 0) scale(0.996264)"/>
     <use xlink:href="#CMSS17-6f" transform="translate(235.339249 0) scale(0.996264)"/>
     <use xlink:href="#CMSS17-72" transform="translate(279.580419 0) scale(0.996264)"/>
     <use xlink:href="#CMSS17-72" transform="translate(311.490191 0) scale(0.996264)"/>
     <use xlink:href="#CMSS17-65" transform="translate(343.399964 0) scale(0.996264)"/>
     <use xlink:href="#CMSS17-6c" transform="translate(385.038786 0) scale(0.996264)"/>
     <use xlink:href="#CMSS17-61" transform="translate(407.219509 0) scale(0.996264)"/>
     <use xlink:href="#CMSS17-74" transform="translate(452.141429 0) scale(0.996264)"/>
     <use xlink:href="#CMSS17-69" transform="translate(485.972996 0) scale(0.996264)"/>
     <use xlink:href="#CMSS17-6f" transform="translate(508.153719 0) scale(0.996264)"/>
     <use xlink:href="#CMSS17-6e" transform="translate(554.997343 0) scale(0.996264)"/>
     <use xlink:href="#CMSS17-66" transform="translate(634.431399 0) scale(0.996264)"/>
     <use xlink:href="#CMSS17-75" transform="translate(663.058057 0) scale(0.996264)"/>
     <use xlink:href="#CMSS17-6e" transform="translate(711.263001 0) scale(0.996264)"/>
     <use xlink:href="#CMSS17-63" transform="translate(759.467944 0) scale(0.996264)"/>
     <use xlink:href="#CMSS17-74" transform="translate(801.106766 0) scale(0.996264)"/>
     <use xlink:href="#CMSS17-69" transform="translate(834.938332 0) scale(0.996264)"/>
     <use xlink:href="#CMSS17-6f" transform="translate(857.119055 0) scale(0.996264)"/>
     <use xlink:href="#CMSS17-6e" transform="translate(903.962679 0) scale(0.996264)"/>
    </g>
   </g>
   <g id="legend_1">
    <g id="patch_7">
     <path d="M 659.836347 286.21249 
L 765.504 286.21249 
Q 768.96 286.21249 768.96 282.75649 
L 768.96 70.416 
Q 768.96 66.96 765.504 66.96 
L 659.836347 66.96 
Q 656.380347 66.96 656.380347 70.416 
L 656.380347 282.75649 
Q 656.380347 286.21249 659.836347 286.21249 
z
" style="fill: #ffffff; opacity: 0.8; stroke: #cccccc; stroke-width: 0.8; stroke-linejoin: miter"/>
    </g>
    <g id="text_19">
     <!-- boundary spin -->
     <g style="fill: #262626" transform="translate(671.891985 83.834625) scale(0.144 -0.144)">
      <defs>
       <path id="CMSS17-62" d="M 954 4416 
L 480 4416 
L 480 -13 
L 966 -13 
L 966 275 
C 1210 38 1504 -64 1766 -64 
C 2381 -64 2880 559 2880 1382 
C 2880 2133 2496 2816 1926 2816 
C 1523 2816 1165 2649 954 2476 
L 954 4416 
z
M 966 2095 
C 1107 2276 1306 2425 1587 2425 
C 1965 2425 2394 2146 2394 1382 
C 2394 566 1882 326 1530 326 
C 1402 326 1267 358 1139 468 
C 966 624 966 721 966 812 
L 966 2095 
z
" transform="scale(0.015625)"/>
       <path id="CMSS17-64" d="M 2611 4416 
L 2138 4416 
L 2138 2495 
C 1939 2662 1613 2816 1254 2816 
C 672 2816 211 2179 211 1375 
C 211 572 666 -64 1235 -64 
C 1677 -64 1971 172 2125 307 
L 2125 -13 
L 2611 -13 
L 2611 4416 
z
M 2125 851 
C 2125 760 2125 663 1926 488 
C 1798 378 1645 326 1498 326 
C 1152 326 698 585 698 1369 
C 698 2185 1210 2425 1562 2425 
C 1798 2425 1990 2308 2125 2114 
L 2125 851 
z
" transform="scale(0.015625)"/>
       <path id="CMSS17-79" d="M 2675 2752 
L 2176 2752 
C 1632 1293 1446 701 1434 383 
L 1427 383 
C 1408 695 1126 1459 902 2006 
L 602 2752 
L 83 2752 
L 1216 14 
C 1146 -177 1043 -464 1011 -527 
C 870 -884 774 -884 672 -884 
C 646 -884 442 -877 211 -807 
L 250 -1229 
C 410 -1261 570 -1280 685 -1280 
C 845 -1280 1165 -1280 1459 -495 
L 2675 2752 
z
" transform="scale(0.015625)"/>
       <path id="CMSS17-73" d="M 2061 2623 
C 1683 2803 1389 2816 1197 2816 
C 742 2816 198 2655 198 2009 
C 198 1363 902 1222 1094 1183 
C 1389 1126 1715 1062 1715 742 
C 1715 339 1254 339 1171 339 
C 915 339 563 409 243 639 
L 166 211 
C 531 0 883 -64 1178 -64 
C 1965 -64 2163 416 2163 780 
C 2163 1094 1984 1305 1862 1401 
C 1651 1567 1574 1587 1050 1695 
C 960 1708 646 1779 646 2067 
C 646 2431 1050 2431 1139 2431 
C 1555 2431 1811 2303 1984 2207 
L 2061 2623 
z
" transform="scale(0.015625)"/>
       <path id="CMSS17-70" d="M 966 275 
C 1178 70 1466 -64 1773 -64 
C 2368 -64 2880 553 2880 1382 
C 2880 2147 2496 2816 1946 2816 
C 1626 2816 1242 2700 954 2470 
L 954 2764 
L 480 2764 
L 480 -1280 
L 966 -1280 
L 966 275 
z
M 966 2088 
C 1018 2166 1235 2412 1587 2412 
C 2035 2412 2394 1946 2394 1382 
C 2394 741 1958 326 1530 326 
C 1402 326 1267 358 1139 468 
C 966 624 966 721 966 812 
L 966 2088 
z
" transform="scale(0.015625)"/>
      </defs>
      <use xlink:href="#CMSS17-62" transform="scale(0.996264)"/>
      <use xlink:href="#CMSS17-6f" transform="translate(50.807382 0) scale(0.996264)"/>
      <use xlink:href="#CMSS17-75" transform="translate(97.651005 0) scale(0.996264)"/>
      <use xlink:href="#CMSS17-6e" transform="translate(145.855949 0) scale(0.996264)"/>
      <use xlink:href="#CMSS17-64" transform="translate(194.060892 0) scale(0.996264)"/>
      <use xlink:href="#CMSS17-61" transform="translate(242.265835 0) scale(0.996264)"/>
      <use xlink:href="#CMSS17-72" transform="translate(284.585301 0) scale(0.996264)"/>
      <use xlink:href="#CMSS17-79" transform="translate(316.495074 0) scale(0.996264)"/>
      <use xlink:href="#CMSS17-73" transform="translate(390.724328 0) scale(0.996264)"/>
      <use xlink:href="#CMSS17-70" transform="translate(426.63787 0) scale(0.996264)"/>
      <use xlink:href="#CMSS17-69" transform="translate(474.842814 0) scale(0.996264)"/>
      <use xlink:href="#CMSS17-6e" transform="translate(497.023537 0) scale(0.996264)"/>
     </g>
    </g>
    <g id="line2d_54">
     <path d="M 663.292347 101.312152 
L 680.572347 101.312152 
L 697.852347 101.312152 
" style="fill: none; stroke: #9467bd; stroke-width: 2; stroke-linecap: round"/>
    </g>
    <g id="text_20">
     <!-- $j = 0.5$ -->
     <g style="fill: #262626" transform="translate(711.676347 107.360152) scale(0.1728 -0.1728)">
      <defs>
       <path id="CMMI12-6a" d="M 2240 2027 
C 2266 2129 2266 2218 2266 2243 
C 2266 2611 1990 2816 1702 2816 
C 1056 2816 710 1888 710 1843 
C 710 1811 736 1786 774 1786 
C 826 1786 832 1811 864 1875 
C 1120 2491 1440 2687 1683 2687 
C 1818 2687 1888 2617 1888 2395 
C 1888 2243 1869 2180 1843 2065 
L 1235 -327 
C 1114 -797 813 -1152 461 -1152 
C 435 -1152 301 -1152 179 -1089 
C 333 -1057 454 -937 454 -784 
C 454 -683 378 -581 237 -581 
C 70 -581 -83 -721 -83 -911 
C -83 -1172 198 -1280 461 -1280 
C 902 -1280 1485 -956 1645 -321 
L 2240 2027 
z
M 2502 4012 
C 2502 4172 2368 4224 2291 4224 
C 2118 4224 1971 4057 1971 3916 
C 1971 3820 2048 3705 2189 3705 
C 2336 3705 2502 3846 2502 4012 
z
" transform="scale(0.015625)"/>
       <path id="CMR17-3d" d="M 4115 2048 
C 4211 2048 4307 2048 4307 2156 
C 4307 2272 4198 2272 4090 2272 
L 512 2272 
C 403 2272 294 2272 294 2156 
C 294 2048 390 2048 486 2048 
L 4115 2048 
z
M 4090 927 
C 4198 927 4307 927 4307 1043 
C 4307 1152 4211 1152 4115 1152 
L 486 1152 
C 390 1152 294 1152 294 1043 
C 294 927 403 927 512 927 
L 4090 927 
z
" transform="scale(0.015625)"/>
      </defs>
      <use xlink:href="#CMMI12-6a" transform="scale(0.996264)"/>
      <use xlink:href="#CMR17-3d" transform="translate(73.636491 0) scale(0.996264)"/>
      <use xlink:href="#CMR17-30" transform="translate(173.025288 0) scale(0.996264)"/>
      <use xlink:href="#CMMI12-3a" transform="translate(218.715766 0) scale(0.996264)"/>
      <use xlink:href="#CMR17-35" transform="translate(245.812943 0) scale(0.996264)"/>
     </g>
    </g>
    <g id="line2d_55">
     <path d="M 663.292347 125.396694 
L 680.572347 125.396694 
L 697.852347 125.396694 
" style="fill: none; stroke: #ff7f0e; stroke-width: 1.2; stroke-linecap: round"/>
    </g>
    <g id="text_21">
     <!-- $j = 1$ -->
     <g style="fill: #262626" transform="translate(711.676347 131.444694) scale(0.1728 -0.1728)">
      <use xlink:href="#CMMI12-6a" transform="scale(0.996264)"/>
      <use xlink:href="#CMR17-3d" transform="translate(73.636491 0) scale(0.996264)"/>
      <use xlink:href="#CMR17-31" transform="translate(173.025288 0) scale(0.996264)"/>
     </g>
    </g>
    <g id="line2d_56">
     <path d="M 663.292347 149.481236 
L 680.572347 149.481236 
L 697.852347 149.481236 
" style="fill: none; stroke: #2ca02c; stroke-width: 1.2; stroke-linecap: round"/>
    </g>
    <g id="text_22">
     <!-- $j = 1.5$ -->
     <g style="fill: #262626" transform="translate(711.676347 155.529236) scale(0.1728 -0.1728)">
      <use xlink:href="#CMMI12-6a" transform="scale(0.996264)"/>
      <use xlink:href="#CMR17-3d" transform="translate(73.636491 0) scale(0.996264)"/>
      <use xlink:href="#CMR17-31" transform="translate(173.025288 0) scale(0.996264)"/>
      <use xlink:href="#CMMI12-3a" transform="translate(218.715766 0) scale(0.996264)"/>
      <use xlink:href="#CMR17-35" transform="translate(245.812943 0) scale(0.996264)"/>
     </g>
    </g>
    <g id="line2d_57">
     <path d="M 663.292347 173.565779 
L 680.572347 173.565779 
L 697.852347 173.565779 
" style="fill: none; stroke: #8c564b; stroke-width: 1.2; stroke-linecap: round"/>
    </g>
    <g id="text_23">
     <!-- $j = 2$ -->
     <g style="fill: #262626" transform="translate(711.676347 179.613779) scale(0.1728 -0.1728)">
      <use xlink:href="#CMMI12-6a" transform="scale(0.996264)"/>
      <use xlink:href="#CMR17-3d" transform="translate(73.636491 0) scale(0.996264)"/>
      <use xlink:href="#CMR17-32" transform="translate(173.025288 0) scale(0.996264)"/>
     </g>
    </g>
    <g id="line2d_58">
     <path d="M 663.292347 197.650321 
L 680.572347 197.650321 
L 697.852347 197.650321 
" style="fill: none; stroke: #e377c2; stroke-width: 1.2; stroke-linecap: round"/>
    </g>
    <g id="text_24">
     <!-- $j = 2.5$ -->
     <g style="fill: #262626" transform="translate(711.676347 203.698321) scale(0.1728 -0.1728)">
      <use xlink:href="#CMMI12-6a" transform="scale(0.996264)"/>
      <use xlink:href="#CMR17-3d" transform="translate(73.636491 0) scale(0.996264)"/>
      <use xlink:href="#CMR17-32" transform="translate(173.025288 0) scale(0.996264)"/>
      <use xlink:href="#CMMI12-3a" transform="translate(218.715766 0) scale(0.996264)"/>
      <use xlink:href="#CMR17-35" transform="translate(245.812943 0) scale(0.996264)"/>
     </g>
    </g>
    <g id="line2d_59">
     <path d="M 663.292347 221.734863 
L 680.572347 221.734863 
L 697.852347 221.734863 
" style="fill: none; stroke: #7f7f7f; stroke-width: 1.2; stroke-linecap: round"/>
    </g>
    <g id="text_25">
     <!-- $j = 3$ -->
     <g style="fill: #262626" transform="translate(711.676347 227.782863) scale(0.1728 -0.1728)">
      <use xlink:href="#CMMI12-6a" transform="scale(0.996264)"/>
      <use xlink:href="#CMR17-3d" transform="translate(73.636491 0) scale(0.996264)"/>
      <use xlink:href="#CMR17-33" transform="translate(173.025288 0) scale(0.996264)"/>
     </g>
    </g>
    <g id="line2d_60">
     <path d="M 663.292347 245.819405 
L 680.572347 245.819405 
L 697.852347 245.819405 
" style="fill: none; stroke: #1f77b4; stroke-width: 1.2; stroke-linecap: round"/>
    </g>
    <g id="text_26">
     <!-- $j = 3.5$ -->
     <g style="fill: #262626" transform="translate(711.676347 251.867405) scale(0.1728 -0.1728)">
      <use xlink:href="#CMMI12-6a" transform="scale(0.996264)"/>
      <use xlink:href="#CMR17-3d" transform="translate(73.636491 0) scale(0.996264)"/>
      <use xlink:href="#CMR17-33" transform="translate(173.025288 0) scale(0.996264)"/>
      <use xlink:href="#CMMI12-3a" transform="translate(218.715766 0) scale(0.996264)"/>
      <use xlink:href="#CMR17-35" transform="translate(245.812943 0) scale(0.996264)"/>
     </g>
    </g>
    <g id="line2d_61">
     <path d="M 663.292347 269.903947 
L 680.572347 269.903947 
L 697.852347 269.903947 
" style="fill: none; stroke: #d62728; stroke-width: 1.2; stroke-linecap: round"/>
    </g>
    <g id="text_27">
     <!-- $j = 4$ -->
     <g style="fill: #262626" transform="translate(711.676347 275.951947) scale(0.1728 -0.1728)">
      <use xlink:href="#CMMI12-6a" transform="scale(0.996264)"/>
      <use xlink:href="#CMR17-3d" transform="translate(73.636491 0) scale(0.996264)"/>
      <use xlink:href="#CMR17-34" transform="translate(173.025288 0) scale(0.996264)"/>
     </g>
    </g>
   </g>
  </g>
 </g>
 <defs>
  <clipPath id="p92e7d47204">
   <rect x="108" y="58.32" width="669.6" height="374.22"/>
  </clipPath>
 </defs>
</svg>
