<?xml version="1.0" encoding="utf-8" standalone="no"?>
<!DOCTYPE svg PUBLIC "-//W3C//DTD SVG 1.1//EN"
  "http://www.w3.org/Graphics/SVG/1.1/DTD/svg11.dtd">
<svg xmlns:xlink="http://www.w3.org/1999/xlink" width="864pt" height="486pt" viewBox="0 0 864 486" xmlns="http://www.w3.org/2000/svg" version="1.1">
 <metadata>
  <rdf:RDF xmlns:dc="http://purl.org/dc/elements/1.1/" xmlns:cc="http://creativecommons.org/ns#" xmlns:rdf="http://www.w3.org/1999/02/22-rdf-syntax-ns#">
   <cc:Work>
    <dc:type rdf:resource="http://purl.org/dc/dcmitype/StillImage"/>
    <dc:date>2023-02-09T17:03:52.900861</dc:date>
    <dc:format>image/svg+xml</dc:format>
    <dc:creator>
     <cc:Agent>
      <dc:title>Matplotlib v3.6.2, https://matplotlib.org/</dc:title>
     </cc:Agent>
    </dc:creator>
   </cc:Work>
  </rdf:RDF>
 </metadata>
 <defs>
  <style type="text/css">*{stroke-linejoin: round; stroke-linecap: butt}</style>
 </defs>
 <g id="figure_1">
  <g id="patch_1">
   <path d="M 0 486 
L 864 486 
L 864 0 
L 0 0 
z
" style="fill: #ffffff"/>
  </g>
  <g id="axes_1">
   <g id="patch_2">
    <path d="M 108 432.54 
L 777.6 432.54 
L 777.6 58.32 
L 108 58.32 
z
" style="fill: #ffffff"/>
   </g>
   <g id="matplotlib.axis_1">
    <g id="xtick_1">
     <g id="line2d_1">
      <path d="M 204.436819 432.54 
L 204.436819 58.32 
" clip-path="url(#p9a3d0791ea)" style="fill: none; stroke: #e6e6e6; stroke-width: 0.8; stroke-linecap: round"/>
     </g>
     <g id="line2d_2">
      <defs>
       <path id="m552bf33a41" d="M 0 0 
L 0 -4.8 
" style="stroke: #262626"/>
      </defs>
      <g>
       <use xlink:href="#m552bf33a41" x="204.436819" y="432.54" style="fill: #262626; stroke: #262626"/>
      </g>
     </g>
     <g id="line2d_3">
      <defs>
       <path id="m130a69d80a" d="M 0 0 
L 0 4.8 
" style="stroke: #262626"/>
      </defs>
      <g>
       <use xlink:href="#m130a69d80a" x="204.436819" y="58.32" style="fill: #262626; stroke: #262626"/>
      </g>
     </g>
     <g id="text_1">
      <!-- $\mathdefault{−0.38}$ -->
      <g style="fill: #262626" transform="translate(187.876833 445.172395) scale(0.132 -0.132)">
       <defs>
        <path id="CMSY10-0" d="M 4218 1472 
C 4326 1472 4442 1472 4442 1600 
C 4442 1728 4326 1728 4218 1728 
L 755 1728 
C 646 1728 531 1728 531 1600 
C 531 1472 646 1472 755 1472 
L 4218 1472 
z
" transform="scale(0.015625)"/>
        <path id="CMR17-30" d="M 2688 2038 
C 2688 2430 2682 3099 2413 3613 
C 2176 4063 1798 4224 1466 4224 
C 1158 4224 768 4082 525 3620 
C 269 3137 243 2539 243 2038 
C 243 1671 250 1112 448 623 
C 723 -39 1216 -128 1466 -128 
C 1760 -128 2208 -7 2470 604 
C 2662 1048 2688 1568 2688 2038 
z
M 1466 -26 
C 1056 -26 813 328 723 816 
C 653 1196 653 1749 653 2109 
C 653 2604 653 3015 736 3407 
C 858 3954 1216 4121 1466 4121 
C 1728 4121 2067 3947 2189 3420 
C 2272 3054 2278 2623 2278 2109 
C 2278 1691 2278 1176 2202 797 
C 2067 96 1690 -26 1466 -26 
z
" transform="scale(0.015625)"/>
        <path id="CMMI12-3a" d="M 1178 307 
C 1178 492 1024 620 870 620 
C 685 620 557 467 557 313 
C 557 128 710 0 864 0 
C 1050 0 1178 153 1178 307 
z
" transform="scale(0.015625)"/>
        <path id="CMR17-33" d="M 1414 2176 
C 1984 2176 2234 1673 2234 1094 
C 2234 322 1824 25 1453 25 
C 1114 25 563 193 390 691 
C 422 678 454 678 486 678 
C 640 678 755 780 755 947 
C 755 1132 614 1216 486 1216 
C 378 1216 211 1164 211 927 
C 211 335 787 -128 1466 -128 
C 2176 -128 2720 432 2720 1087 
C 2720 1718 2208 2176 1600 2246 
C 2086 2347 2554 2776 2554 3353 
C 2554 3856 2048 4224 1472 4224 
C 890 4224 378 3862 378 3347 
C 378 3123 544 3084 627 3084 
C 762 3084 877 3167 877 3334 
C 877 3500 762 3584 627 3584 
C 602 3584 570 3584 544 3571 
C 730 3999 1235 4076 1459 4076 
C 1683 4076 2106 3966 2106 3347 
C 2106 3167 2080 2851 1862 2574 
C 1670 2329 1453 2316 1242 2297 
C 1210 2297 1062 2284 1037 2284 
C 992 2278 966 2272 966 2227 
C 966 2182 973 2176 1101 2176 
L 1414 2176 
z
" transform="scale(0.015625)"/>
        <path id="CMR17-38" d="M 1741 2289 
C 2144 2494 2554 2803 2554 3298 
C 2554 3884 1990 4224 1472 4224 
C 890 4224 378 3800 378 3215 
C 378 3054 416 2777 666 2533 
C 730 2469 998 2276 1171 2154 
C 883 2006 211 1652 211 945 
C 211 282 838 -128 1459 -128 
C 2144 -128 2720 366 2720 1022 
C 2720 1607 2330 1877 2074 2051 
L 1741 2289 
z
M 902 2855 
C 851 2887 595 3086 595 3388 
C 595 3781 998 4076 1459 4076 
C 1965 4076 2336 3716 2336 3298 
C 2336 2700 1670 2359 1638 2359 
C 1632 2359 1626 2359 1574 2398 
L 902 2855 
z
M 2080 1536 
C 2176 1466 2483 1253 2483 861 
C 2483 385 2010 25 1472 25 
C 890 25 448 443 448 951 
C 448 1459 838 1884 1280 2083 
L 2080 1536 
z
" transform="scale(0.015625)"/>
       </defs>
       <use xlink:href="#CMSY10-0" transform="scale(0.996264)"/>
       <use xlink:href="#CMR17-30" transform="translate(77.487468 0) scale(0.996264)"/>
       <use xlink:href="#CMMI12-3a" transform="translate(123.177945 0) scale(0.996264)"/>
       <use xlink:href="#CMR17-33" transform="translate(150.275122 0) scale(0.996264)"/>
       <use xlink:href="#CMR17-38" transform="translate(195.965599 0) scale(0.996264)"/>
      </g>
     </g>
    </g>
    <g id="xtick_2">
     <g id="line2d_4">
      <path d="M 305.97598 432.54 
L 305.97598 58.32 
" clip-path="url(#p9a3d0791ea)" style="fill: none; stroke: #e6e6e6; stroke-width: 0.8; stroke-linecap: round"/>
     </g>
     <g id="line2d_5">
      <g>
       <use xlink:href="#m552bf33a41" x="305.97598" y="432.54" style="fill: #262626; stroke: #262626"/>
      </g>
     </g>
     <g id="line2d_6">
      <g>
       <use xlink:href="#m130a69d80a" x="305.97598" y="58.32" style="fill: #262626; stroke: #262626"/>
      </g>
     </g>
     <g id="text_2">
      <!-- $\mathdefault{−0.36}$ -->
      <g style="fill: #262626" transform="translate(289.415994 445.172395) scale(0.132 -0.132)">
       <defs>
        <path id="CMR17-36" d="M 678 2198 
C 678 3712 1395 4076 1811 4076 
C 1946 4076 2272 4049 2400 3782 
C 2298 3782 2106 3782 2106 3558 
C 2106 3385 2246 3328 2336 3328 
C 2394 3328 2566 3353 2566 3571 
C 2566 3987 2246 4224 1805 4224 
C 1043 4224 243 3411 243 2011 
C 243 257 966 -128 1478 -128 
C 2099 -128 2688 431 2688 1295 
C 2688 2101 2170 2688 1517 2688 
C 1126 2688 838 2430 678 1979 
L 678 2198 
z
M 1478 25 
C 691 25 691 1212 691 1450 
C 691 1914 909 2585 1504 2585 
C 1613 2585 1926 2585 2138 2140 
C 2253 1889 2253 1624 2253 1302 
C 2253 954 2253 696 2118 438 
C 1978 173 1773 25 1478 25 
z
" transform="scale(0.015625)"/>
       </defs>
       <use xlink:href="#CMSY10-0" transform="scale(0.996264)"/>
       <use xlink:href="#CMR17-30" transform="translate(77.487468 0) scale(0.996264)"/>
       <use xlink:href="#CMMI12-3a" transform="translate(123.177945 0) scale(0.996264)"/>
       <use xlink:href="#CMR17-33" transform="translate(150.275122 0) scale(0.996264)"/>
       <use xlink:href="#CMR17-36" transform="translate(195.965599 0) scale(0.996264)"/>
      </g>
     </g>
    </g>
    <g id="xtick_3">
     <g id="line2d_7">
      <path d="M 407.515141 432.54 
L 407.515141 58.32 
" clip-path="url(#p9a3d0791ea)" style="fill: none; stroke: #e6e6e6; stroke-width: 0.8; stroke-linecap: round"/>
     </g>
     <g id="line2d_8">
      <g>
       <use xlink:href="#m552bf33a41" x="407.515141" y="432.54" style="fill: #262626; stroke: #262626"/>
      </g>
     </g>
     <g id="line2d_9">
      <g>
       <use xlink:href="#m130a69d80a" x="407.515141" y="58.32" style="fill: #262626; stroke: #262626"/>
      </g>
     </g>
     <g id="text_3">
      <!-- $\mathdefault{−0.34}$ -->
      <g style="fill: #262626" transform="translate(390.955156 445.172395) scale(0.132 -0.132)">
       <defs>
        <path id="CMR17-34" d="M 2150 4147 
C 2150 4281 2144 4288 2029 4288 
L 128 1254 
L 128 1088 
L 1779 1088 
L 1779 460 
C 1779 230 1766 166 1318 166 
L 1197 166 
L 1197 0 
C 1402 12 1747 12 1965 12 
C 2182 12 2528 12 2733 0 
L 2733 166 
L 2611 166 
C 2163 166 2150 230 2150 460 
L 2150 1088 
L 2803 1088 
L 2803 1254 
L 2150 1254 
L 2150 4147 
z
M 1798 3723 
L 1798 1254 
L 256 1254 
L 1798 3723 
z
" transform="scale(0.015625)"/>
       </defs>
       <use xlink:href="#CMSY10-0" transform="scale(0.996264)"/>
       <use xlink:href="#CMR17-30" transform="translate(77.487468 0) scale(0.996264)"/>
       <use xlink:href="#CMMI12-3a" transform="translate(123.177945 0) scale(0.996264)"/>
       <use xlink:href="#CMR17-33" transform="translate(150.275122 0) scale(0.996264)"/>
       <use xlink:href="#CMR17-34" transform="translate(195.965599 0) scale(0.996264)"/>
      </g>
     </g>
    </g>
    <g id="xtick_4">
     <g id="line2d_10">
      <path d="M 509.054303 432.54 
L 509.054303 58.32 
" clip-path="url(#p9a3d0791ea)" style="fill: none; stroke: #e6e6e6; stroke-width: 0.8; stroke-linecap: round"/>
     </g>
     <g id="line2d_11">
      <g>
       <use xlink:href="#m552bf33a41" x="509.054303" y="432.54" style="fill: #262626; stroke: #262626"/>
      </g>
     </g>
     <g id="line2d_12">
      <g>
       <use xlink:href="#m130a69d80a" x="509.054303" y="58.32" style="fill: #262626; stroke: #262626"/>
      </g>
     </g>
     <g id="text_4">
      <!-- $\mathdefault{−0.32}$ -->
      <g style="fill: #262626" transform="translate(492.494317 445.172395) scale(0.132 -0.132)">
       <defs>
        <path id="CMR17-32" d="M 2669 990 
L 2554 990 
C 2490 537 2438 460 2413 422 
C 2381 371 1920 371 1830 371 
L 602 371 
C 832 620 1280 1073 1824 1596 
C 2214 1966 2669 2400 2669 3033 
C 2669 3788 2067 4224 1395 4224 
C 691 4224 262 3603 262 3027 
C 262 2777 448 2745 525 2745 
C 589 2745 781 2783 781 3007 
C 781 3206 614 3264 525 3264 
C 486 3264 448 3257 422 3244 
C 544 3788 915 4057 1306 4057 
C 1862 4057 2227 3616 2227 3033 
C 2227 2477 1901 1998 1536 1583 
L 262 147 
L 262 0 
L 2515 0 
L 2669 990 
z
" transform="scale(0.015625)"/>
       </defs>
       <use xlink:href="#CMSY10-0" transform="scale(0.996264)"/>
       <use xlink:href="#CMR17-30" transform="translate(77.487468 0) scale(0.996264)"/>
       <use xlink:href="#CMMI12-3a" transform="translate(123.177945 0) scale(0.996264)"/>
       <use xlink:href="#CMR17-33" transform="translate(150.275122 0) scale(0.996264)"/>
       <use xlink:href="#CMR17-32" transform="translate(195.965599 0) scale(0.996264)"/>
      </g>
     </g>
    </g>
    <g id="xtick_5">
     <g id="line2d_13">
      <path d="M 610.593464 432.54 
L 610.593464 58.32 
" clip-path="url(#p9a3d0791ea)" style="fill: none; stroke: #e6e6e6; stroke-width: 0.8; stroke-linecap: round"/>
     </g>
     <g id="line2d_14">
      <g>
       <use xlink:href="#m552bf33a41" x="610.593464" y="432.54" style="fill: #262626; stroke: #262626"/>
      </g>
     </g>
     <g id="line2d_15">
      <g>
       <use xlink:href="#m130a69d80a" x="610.593464" y="58.32" style="fill: #262626; stroke: #262626"/>
      </g>
     </g>
     <g id="text_5">
      <!-- $\mathdefault{−0.30}$ -->
      <g style="fill: #262626" transform="translate(594.033479 445.172395) scale(0.132 -0.132)">
       <use xlink:href="#CMSY10-0" transform="scale(0.996264)"/>
       <use xlink:href="#CMR17-30" transform="translate(77.487468 0) scale(0.996264)"/>
       <use xlink:href="#CMMI12-3a" transform="translate(123.177945 0) scale(0.996264)"/>
       <use xlink:href="#CMR17-33" transform="translate(150.275122 0) scale(0.996264)"/>
       <use xlink:href="#CMR17-30" transform="translate(195.965599 0) scale(0.996264)"/>
      </g>
     </g>
    </g>
    <g id="xtick_6">
     <g id="line2d_16">
      <path d="M 712.132626 432.54 
L 712.132626 58.32 
" clip-path="url(#p9a3d0791ea)" style="fill: none; stroke: #e6e6e6; stroke-width: 0.8; stroke-linecap: round"/>
     </g>
     <g id="line2d_17">
      <g>
       <use xlink:href="#m552bf33a41" x="712.132626" y="432.54" style="fill: #262626; stroke: #262626"/>
      </g>
     </g>
     <g id="line2d_18">
      <g>
       <use xlink:href="#m130a69d80a" x="712.132626" y="58.32" style="fill: #262626; stroke: #262626"/>
      </g>
     </g>
     <g id="text_6">
      <!-- $\mathdefault{−0.28}$ -->
      <g style="fill: #262626" transform="translate(695.57264 445.172395) scale(0.132 -0.132)">
       <use xlink:href="#CMSY10-0" transform="scale(0.996264)"/>
       <use xlink:href="#CMR17-30" transform="translate(77.487468 0) scale(0.996264)"/>
       <use xlink:href="#CMMI12-3a" transform="translate(123.177945 0) scale(0.996264)"/>
       <use xlink:href="#CMR17-32" transform="translate(150.275122 0) scale(0.996264)"/>
       <use xlink:href="#CMR17-38" transform="translate(195.965599 0) scale(0.996264)"/>
      </g>
     </g>
    </g>
    <g id="text_7">
     <!-- $x$ -->
     <g style="fill: #262626" transform="translate(438.808757 461.692081) scale(0.144 -0.144)">
      <defs>
       <path id="CMMI12-78" d="M 3034 2624 
C 2829 2585 2752 2431 2752 2310 
C 2752 2156 2874 2105 2963 2105 
C 3155 2105 3290 2271 3290 2444 
C 3290 2694 2982 2816 2714 2816 
C 2323 2816 2106 2451 2048 2329 
C 1901 2790 1504 2816 1389 2816 
C 736 2816 390 1993 390 1849 
C 390 1823 416 1790 461 1790 
C 512 1790 525 1829 538 1855 
C 755 2572 1184 2687 1370 2687 
C 1658 2687 1715 2438 1715 2284 
C 1715 2143 1677 1993 1600 1678 
L 1382 778 
C 1286 390 1101 64 762 64 
C 730 64 570 64 435 126 
C 666 166 717 358 717 435 
C 717 563 621 640 499 640 
C 346 640 179 505 179 300 
C 179 57 480 -64 755 -64 
C 1062 -64 1280 153 1414 415 
C 1517 64 1837 -64 2074 -64 
C 2726 -64 3072 751 3072 896 
C 3072 929 3046 955 3008 955 
C 2950 955 2944 922 2925 870 
C 2752 300 2381 64 2093 64 
C 1869 64 1747 204 1747 467 
C 1747 607 1773 712 1875 1146 
L 2099 2039 
C 2195 2425 2413 2687 2707 2687 
C 2720 2687 2899 2687 3034 2624 
z
" transform="scale(0.015625)"/>
      </defs>
      <use xlink:href="#CMMI12-78" transform="scale(0.996264)"/>
     </g>
    </g>
   </g>
   <g id="matplotlib.axis_2">
    <g id="ytick_1">
     <g id="line2d_19">
      <path d="M 108 415.53 
L 777.6 415.53 
" clip-path="url(#p9a3d0791ea)" style="fill: none; stroke: #e6e6e6; stroke-width: 0.8; stroke-linecap: round"/>
     </g>
     <g id="line2d_20">
      <defs>
       <path id="mebd34996e8" d="M 0 0 
L 4.8 0 
" style="stroke: #262626"/>
      </defs>
      <g>
       <use xlink:href="#mebd34996e8" x="108" y="415.53" style="fill: #262626; stroke: #262626"/>
      </g>
     </g>
     <g id="line2d_21">
      <defs>
       <path id="me2dba682f2" d="M 0 0 
L -4.8 0 
" style="stroke: #262626"/>
      </defs>
      <g>
       <use xlink:href="#me2dba682f2" x="777.6" y="415.53" style="fill: #262626; stroke: #262626"/>
      </g>
     </g>
     <g id="text_8">
      <!-- $\mathdefault{0}$ -->
      <g style="fill: #262626" transform="translate(98.061726 420.096197) scale(0.132 -0.132)">
       <use xlink:href="#CMR17-30" transform="scale(0.996264)"/>
      </g>
     </g>
    </g>
    <g id="ytick_2">
     <g id="line2d_22">
      <path d="M 108 369.632938 
L 777.6 369.632938 
" clip-path="url(#p9a3d0791ea)" style="fill: none; stroke: #e6e6e6; stroke-width: 0.8; stroke-linecap: round"/>
     </g>
     <g id="line2d_23">
      <g>
       <use xlink:href="#mebd34996e8" x="108" y="369.632938" style="fill: #262626; stroke: #262626"/>
      </g>
     </g>
     <g id="line2d_24">
      <g>
       <use xlink:href="#me2dba682f2" x="777.6" y="369.632938" style="fill: #262626; stroke: #262626"/>
      </g>
     </g>
     <g id="text_9">
      <!-- $\mathdefault{10}$ -->
      <g style="fill: #262626" transform="translate(91.623452 374.199135) scale(0.132 -0.132)">
       <defs>
        <path id="CMR17-31" d="M 1702 4083 
C 1702 4217 1696 4224 1606 4224 
C 1357 3927 979 3833 621 3820 
C 602 3820 570 3820 563 3808 
C 557 3795 557 3782 557 3648 
C 755 3648 1088 3686 1344 3839 
L 1344 467 
C 1344 243 1331 166 781 166 
L 589 166 
L 589 0 
C 896 6 1216 12 1523 12 
C 1830 12 2150 6 2458 0 
L 2458 166 
L 2266 166 
C 1715 166 1702 236 1702 467 
L 1702 4083 
z
" transform="scale(0.015625)"/>
       </defs>
       <use xlink:href="#CMR17-31" transform="scale(0.996264)"/>
       <use xlink:href="#CMR17-30" transform="translate(45.690477 0) scale(0.996264)"/>
      </g>
     </g>
    </g>
    <g id="ytick_3">
     <g id="line2d_25">
      <path d="M 108 323.735876 
L 777.6 323.735876 
" clip-path="url(#p9a3d0791ea)" style="fill: none; stroke: #e6e6e6; stroke-width: 0.8; stroke-linecap: round"/>
     </g>
     <g id="line2d_26">
      <g>
       <use xlink:href="#mebd34996e8" x="108" y="323.735876" style="fill: #262626; stroke: #262626"/>
      </g>
     </g>
     <g id="line2d_27">
      <g>
       <use xlink:href="#me2dba682f2" x="777.6" y="323.735876" style="fill: #262626; stroke: #262626"/>
      </g>
     </g>
     <g id="text_10">
      <!-- $\mathdefault{20}$ -->
      <g style="fill: #262626" transform="translate(91.623452 328.302074) scale(0.132 -0.132)">
       <use xlink:href="#CMR17-32" transform="scale(0.996264)"/>
       <use xlink:href="#CMR17-30" transform="translate(45.690477 0) scale(0.996264)"/>
      </g>
     </g>
    </g>
    <g id="ytick_4">
     <g id="line2d_28">
      <path d="M 108 277.838814 
L 777.6 277.838814 
" clip-path="url(#p9a3d0791ea)" style="fill: none; stroke: #e6e6e6; stroke-width: 0.8; stroke-linecap: round"/>
     </g>
     <g id="line2d_29">
      <g>
       <use xlink:href="#mebd34996e8" x="108" y="277.838814" style="fill: #262626; stroke: #262626"/>
      </g>
     </g>
     <g id="line2d_30">
      <g>
       <use xlink:href="#me2dba682f2" x="777.6" y="277.838814" style="fill: #262626; stroke: #262626"/>
      </g>
     </g>
     <g id="text_11">
      <!-- $\mathdefault{30}$ -->
      <g style="fill: #262626" transform="translate(91.623452 282.405012) scale(0.132 -0.132)">
       <use xlink:href="#CMR17-33" transform="scale(0.996264)"/>
       <use xlink:href="#CMR17-30" transform="translate(45.690477 0) scale(0.996264)"/>
      </g>
     </g>
    </g>
    <g id="ytick_5">
     <g id="line2d_31">
      <path d="M 108 231.941752 
L 777.6 231.941752 
" clip-path="url(#p9a3d0791ea)" style="fill: none; stroke: #e6e6e6; stroke-width: 0.8; stroke-linecap: round"/>
     </g>
     <g id="line2d_32">
      <g>
       <use xlink:href="#mebd34996e8" x="108" y="231.941752" style="fill: #262626; stroke: #262626"/>
      </g>
     </g>
     <g id="line2d_33">
      <g>
       <use xlink:href="#me2dba682f2" x="777.6" y="231.941752" style="fill: #262626; stroke: #262626"/>
      </g>
     </g>
     <g id="text_12">
      <!-- $\mathdefault{40}$ -->
      <g style="fill: #262626" transform="translate(91.623452 236.50795) scale(0.132 -0.132)">
       <use xlink:href="#CMR17-34" transform="scale(0.996264)"/>
       <use xlink:href="#CMR17-30" transform="translate(45.690477 0) scale(0.996264)"/>
      </g>
     </g>
    </g>
    <g id="ytick_6">
     <g id="line2d_34">
      <path d="M 108 186.04469 
L 777.6 186.04469 
" clip-path="url(#p9a3d0791ea)" style="fill: none; stroke: #e6e6e6; stroke-width: 0.8; stroke-linecap: round"/>
     </g>
     <g id="line2d_35">
      <g>
       <use xlink:href="#mebd34996e8" x="108" y="186.04469" style="fill: #262626; stroke: #262626"/>
      </g>
     </g>
     <g id="line2d_36">
      <g>
       <use xlink:href="#me2dba682f2" x="777.6" y="186.04469" style="fill: #262626; stroke: #262626"/>
      </g>
     </g>
     <g id="text_13">
      <!-- $\mathdefault{50}$ -->
      <g style="fill: #262626" transform="translate(91.623452 190.610888) scale(0.132 -0.132)">
       <defs>
        <path id="CMR17-35" d="M 730 3750 
C 794 3724 1056 3641 1325 3641 
C 1920 3641 2246 3961 2432 4140 
C 2432 4191 2432 4224 2394 4224 
C 2387 4224 2374 4224 2323 4198 
C 2099 4102 1837 4032 1517 4032 
C 1325 4032 1037 4055 723 4191 
C 653 4224 640 4224 634 4224 
C 602 4224 595 4217 595 4090 
L 595 2231 
C 595 2113 595 2080 659 2080 
C 691 2080 704 2093 736 2139 
C 941 2435 1222 2560 1542 2560 
C 1766 2560 2246 2415 2246 1293 
C 2246 1087 2246 716 2054 422 
C 1894 159 1645 25 1370 25 
C 947 25 518 319 403 812 
C 429 806 480 793 506 793 
C 589 793 749 838 749 1036 
C 749 1209 627 1280 506 1280 
C 358 1280 262 1190 262 1011 
C 262 454 704 -128 1382 -128 
C 2042 -128 2669 441 2669 1267 
C 2669 2054 2170 2662 1549 2662 
C 1222 2662 947 2540 730 2304 
L 730 3750 
z
" transform="scale(0.015625)"/>
       </defs>
       <use xlink:href="#CMR17-35" transform="scale(0.996264)"/>
       <use xlink:href="#CMR17-30" transform="translate(45.690477 0) scale(0.996264)"/>
      </g>
     </g>
    </g>
    <g id="ytick_7">
     <g id="line2d_37">
      <path d="M 108 140.147628 
L 777.6 140.147628 
" clip-path="url(#p9a3d0791ea)" style="fill: none; stroke: #e6e6e6; stroke-width: 0.8; stroke-linecap: round"/>
     </g>
     <g id="line2d_38">
      <g>
       <use xlink:href="#mebd34996e8" x="108" y="140.147628" style="fill: #262626; stroke: #262626"/>
      </g>
     </g>
     <g id="line2d_39">
      <g>
       <use xlink:href="#me2dba682f2" x="777.6" y="140.147628" style="fill: #262626; stroke: #262626"/>
      </g>
     </g>
     <g id="text_14">
      <!-- $\mathdefault{60}$ -->
      <g style="fill: #262626" transform="translate(91.623452 144.713826) scale(0.132 -0.132)">
       <use xlink:href="#CMR17-36" transform="scale(0.996264)"/>
       <use xlink:href="#CMR17-30" transform="translate(45.690477 0) scale(0.996264)"/>
      </g>
     </g>
    </g>
    <g id="ytick_8">
     <g id="line2d_40">
      <path d="M 108 94.250566 
L 777.6 94.250566 
" clip-path="url(#p9a3d0791ea)" style="fill: none; stroke: #e6e6e6; stroke-width: 0.8; stroke-linecap: round"/>
     </g>
     <g id="line2d_41">
      <g>
       <use xlink:href="#mebd34996e8" x="108" y="94.250566" style="fill: #262626; stroke: #262626"/>
      </g>
     </g>
     <g id="line2d_42">
      <g>
       <use xlink:href="#me2dba682f2" x="777.6" y="94.250566" style="fill: #262626; stroke: #262626"/>
      </g>
     </g>
     <g id="text_15">
      <!-- $\mathdefault{70}$ -->
      <g style="fill: #262626" transform="translate(91.623452 98.816764) scale(0.132 -0.132)">
       <defs>
        <path id="CMR17-37" d="M 2886 3955 
L 2886 4096 
L 1382 4096 
C 634 4096 621 4166 595 4288 
L 480 4288 
L 294 3104 
L 410 3104 
C 429 3226 474 3552 550 3673 
C 589 3724 1062 3724 1171 3724 
L 2579 3724 
L 1869 2670 
C 1395 1961 1069 1003 1069 166 
C 1069 89 1069 -128 1299 -128 
C 1530 -128 1530 89 1530 172 
L 1530 466 
C 1530 1514 1709 2204 2003 2644 
L 2886 3955 
z
" transform="scale(0.015625)"/>
       </defs>
       <use xlink:href="#CMR17-37" transform="scale(0.996264)"/>
       <use xlink:href="#CMR17-30" transform="translate(45.690477 0) scale(0.996264)"/>
      </g>
     </g>
    </g>
    <g id="text_16">
     <!-- $\mathcal{N}_{\cos (\theta)}$ -->
     <g style="fill: #262626" transform="translate(82.602258 264.336092) rotate(-90) scale(0.144 -0.144)">
      <defs>
       <path id="CMSY10-4e" d="M 1958 3657 
C 2074 3326 2214 2848 2502 2065 
C 2906 982 3085 587 3475 -20 
C 3565 -154 3571 -160 3629 -160 
C 3718 -160 3853 -84 3923 -32 
C 4013 51 4019 57 4090 370 
C 4474 2046 4960 3791 5088 4084 
C 5094 4097 5222 4339 6010 4352 
C 6138 4358 6259 4697 6259 4838 
C 6259 4940 6221 4940 6131 4940 
C 5491 4940 5203 4672 5126 4588 
C 4947 4358 4794 3893 4499 2829 
C 4275 2014 4070 1186 3872 364 
C 3520 893 3322 1396 3014 2218 
C 2675 3122 2470 3785 2298 4358 
C 2259 4486 2253 4492 2195 4492 
C 2182 4492 2054 4492 1869 4339 
C 1805 4282 1798 4224 1792 4154 
C 1613 2460 1011 784 838 479 
C 787 383 710 268 582 268 
C 518 268 269 300 102 453 
C 70 479 58 479 51 479 
C -51 479 -186 160 -186 6 
C -186 -192 205 -320 384 -320 
C 794 -320 1120 580 1222 873 
C 1638 2026 1837 2976 1958 3657 
z
" transform="scale(0.015625)"/>
       <path id="CMR17-63" d="M 2234 2240 
C 2112 2240 1933 2240 1933 2015 
C 1933 1836 2080 1785 2163 1785 
C 2208 1785 2394 1804 2394 2028 
C 2394 2476 1958 2816 1466 2816 
C 787 2816 211 2201 211 1379 
C 211 521 813 -64 1466 -64 
C 2259 -64 2458 676 2458 747 
C 2458 773 2451 792 2406 792 
C 2362 792 2355 786 2330 702 
C 2163 180 1798 51 1523 51 
C 1114 51 621 431 621 1385 
C 621 2358 1094 2700 1472 2700 
C 1722 2700 2093 2582 2234 2240 
z
" transform="scale(0.015625)"/>
       <path id="CMR17-6f" d="M 2758 1356 
C 2758 2176 2163 2816 1466 2816 
C 768 2816 173 2176 173 1356 
C 173 550 768 -64 1466 -64 
C 2163 -64 2758 550 2758 1356 
z
M 1466 51 
C 1165 51 909 230 762 480 
C 602 768 582 1126 582 1408 
C 582 1676 595 2009 762 2297 
C 890 2508 1139 2713 1466 2713 
C 1754 2713 1997 2553 2150 2329 
C 2349 2028 2349 1606 2349 1408 
C 2349 1158 2336 774 2163 467 
C 1984 172 1709 51 1466 51 
z
" transform="scale(0.015625)"/>
       <path id="CMR17-73" d="M 1978 2688 
C 1978 2803 1971 2809 1933 2809 
C 1907 2809 1901 2803 1824 2707 
C 1805 2681 1747 2617 1728 2592 
C 1523 2809 1235 2816 1126 2816 
C 416 2816 160 2444 160 2073 
C 160 1497 813 1363 998 1324 
C 1402 1241 1542 1216 1677 1100 
C 1760 1024 1901 883 1901 652 
C 1901 384 1747 38 1158 38 
C 602 38 403 460 288 1024 
C 269 1113 269 1120 218 1120 
C 166 1120 160 1113 160 985 
L 160 64 
C 160 -52 166 -58 205 -58 
C 237 -58 243 -52 275 0 
C 314 57 410 211 448 275 
C 576 102 800 -64 1158 -64 
C 1792 -64 2131 281 2131 780 
C 2131 1107 1958 1280 1875 1356 
C 1683 1555 1459 1600 1190 1651 
C 838 1728 390 1817 390 2208 
C 390 2374 480 2726 1126 2726 
C 1811 2726 1850 2086 1862 1881 
C 1869 1849 1901 1843 1920 1843 
C 1978 1843 1978 1862 1978 1971 
L 1978 2688 
z
" transform="scale(0.015625)"/>
       <path id="CMR17-28" d="M 1958 -1562 
C 1958 -1556 1958 -1543 1939 -1524 
C 1645 -1223 858 -403 858 1596 
C 858 3595 1632 4408 1946 4729 
C 1946 4735 1958 4748 1958 4767 
C 1958 4787 1939 4800 1914 4800 
C 1843 4800 1299 4325 986 3620 
C 666 2909 576 2218 576 1603 
C 576 1141 621 360 1005 -467 
C 1312 -1133 1837 -1600 1914 -1600 
C 1946 -1600 1958 -1588 1958 -1562 
z
" transform="scale(0.015625)"/>
       <path id="CMMI12-12" d="M 2835 3200 
C 2835 3849 2630 4480 2106 4480 
C 1210 4480 256 2615 256 1215 
C 256 922 320 -64 992 -64 
C 1862 -64 2835 1755 2835 3200 
z
M 896 2304 
C 992 2679 1126 3213 1382 3665 
C 1594 4046 1818 4351 2099 4351 
C 2310 4351 2451 4173 2451 3563 
C 2451 3334 2432 3016 2246 2304 
L 896 2304 
z
M 2202 2112 
C 2042 1488 1907 1088 1677 687 
C 1491 362 1267 64 998 64 
C 800 64 640 216 640 846 
C 640 1259 742 1692 845 2112 
L 2202 2112 
z
" transform="scale(0.015625)"/>
       <path id="CMR17-29" d="M 1683 1596 
C 1683 2057 1638 2839 1254 3665 
C 947 4332 422 4800 346 4800 
C 326 4800 301 4793 301 4761 
C 301 4748 307 4742 314 4729 
C 621 4408 1402 3595 1402 1603 
C 1402 -396 627 -1210 314 -1530 
C 307 -1543 301 -1549 301 -1562 
C 301 -1594 326 -1600 346 -1600 
C 416 -1600 960 -1127 1274 -422 
C 1594 289 1683 981 1683 1596 
z
" transform="scale(0.015625)"/>
      </defs>
      <use xlink:href="#CMSY10-4e" transform="scale(0.996264)"/>
      <use xlink:href="#CMR17-63" transform="translate(81.742538 -17.925121) scale(0.697382)"/>
      <use xlink:href="#CMR17-6f" transform="translate(110.082369 -17.925121) scale(0.697382)"/>
      <use xlink:href="#CMR17-73" transform="translate(142.065551 -17.925121) scale(0.697382)"/>
      <use xlink:href="#CMR17-28" transform="translate(167.126374 -17.925121) scale(0.697382)"/>
      <use xlink:href="#CMMI12-12" transform="translate(191.822794 -17.925121) scale(0.697382)"/>
      <use xlink:href="#CMR17-29" transform="translate(225.54129 -17.925121) scale(0.697382)"/>
     </g>
    </g>
   </g>
   <g id="line2d_43">
    <path d="M 138.436364 415.53 
L 327.299204 415.422658 
L 335.422337 415.191175 
L 341.006991 414.820559 
L 345.068557 414.34714 
L 348.622428 413.713114 
L 351.668603 412.940315 
L 354.207082 412.083404 
L 356.745561 410.982364 
L 358.776344 409.888386 
L 360.807127 408.569791 
L 362.83791 406.990304 
L 364.868694 405.110093 
L 366.899477 402.885941 
L 368.93026 400.27155 
L 370.961043 397.218008 
L 372.991827 393.674437 
L 375.02261 389.588824 
L 377.053393 384.909056 
L 379.084176 379.584151 
L 381.114959 373.565682 
L 383.145743 366.809377 
L 385.176526 359.276862 
L 387.207309 350.937525 
L 389.238092 341.770435 
L 391.776571 329.134597 
L 394.31505 315.203682 
L 396.853529 300.027584 
L 399.899704 280.305595 
L 403.453575 255.534297 
L 408.022837 221.780969 
L 416.14597 161.406979 
L 419.192145 140.534337 
L 421.730624 124.6116 
L 423.761407 113.097211 
L 425.79219 102.858851 
L 427.315278 96.113143 
L 428.838365 90.234124 
L 430.361453 85.274555 
L 431.88454 81.279459 
L 432.899932 79.170319 
L 433.915323 77.514935 
L 434.930715 76.320118 
L 435.946107 75.590802 
L 436.961498 75.33 
L 437.469194 75.375706 
L 437.97689 75.538793 
L 438.992281 76.216316 
L 440.007673 77.359768 
L 441.023065 78.964427 
L 442.038456 81.023688 
L 443.053848 83.529104 
L 444.576935 88.100917 
L 446.100023 93.611489 
L 447.62311 100.011119 
L 449.146198 107.242824 
L 451.176981 118.069003 
L 453.207764 130.095904 
L 455.746243 146.54542 
L 458.792418 167.875739 
L 463.36168 201.781187 
L 470.469421 254.724529 
L 474.023292 279.548408 
L 477.069467 299.327512 
L 479.607946 314.556984 
L 482.146425 328.544435 
L 484.684904 341.238179 
L 487.223383 352.624768 
L 489.254166 360.805123 
L 491.28495 368.183916 
L 493.315733 374.793418 
L 495.346516 380.673293 
L 497.377299 385.868755 
L 499.408082 390.428848 
L 501.438866 394.40488 
L 503.469649 397.849035 
L 505.500432 400.81318 
L 507.531215 403.347869 
L 509.561999 405.50155 
L 511.592782 407.319954 
L 513.623565 408.845659 
L 515.654348 410.117812 
L 518.192827 411.405299 
L 520.731306 412.413522 
L 523.269785 413.195534 
L 526.31596 413.898195 
L 529.869831 414.47219 
L 533.931397 414.898668 
L 539.008355 415.208947 
L 546.116097 415.412446 
L 558.808492 415.513481 
L 608.054985 415.529999 
L 747.163636 415.53 
L 747.163636 415.53 
" clip-path="url(#p9a3d0791ea)" style="fill: none; stroke: #4c72b0; stroke-width: 2.5; stroke-linecap: round"/>
   </g>
   <g id="line2d_44">
    <path d="M 138.436364 415.529999 
L 259.775662 415.419852 
L 275.514232 415.180534 
L 286.175844 414.807202 
L 294.298976 414.309786 
L 300.899022 413.698083 
L 306.991372 412.904637 
L 312.06833 412.025895 
L 316.637592 411.025387 
L 321.206854 409.786619 
L 325.268421 408.45124 
L 329.329987 406.861862 
L 332.883858 405.235997 
L 336.437728 403.365815 
L 339.991599 401.227171 
L 343.54547 398.795949 
L 346.591645 396.461288 
L 349.637819 393.880152 
L 352.683994 391.039279 
L 355.730169 387.926668 
L 358.776344 384.531929 
L 361.822519 380.846649 
L 365.376389 376.172002 
L 368.93026 371.088863 
L 372.484131 365.598164 
L 376.038001 359.707389 
L 380.099568 352.504389 
L 384.161134 344.832665 
L 388.730397 335.702436 
L 393.807355 325.045025 
L 400.4074 310.639147 
L 414.115187 280.573522 
L 418.684449 271.139502 
L 422.746016 263.256018 
L 426.299886 256.853409 
L 429.346061 251.800965 
L 432.392236 247.203781 
L 434.930715 243.754443 
L 437.469194 240.678631 
L 440.007673 237.998762 
L 442.038456 236.153318 
L 444.06924 234.582762 
L 446.100023 233.29462 
L 448.130806 232.295097 
L 450.161589 231.58903 
L 452.192372 231.179844 
L 453.71546 231.069035 
L 455.238547 231.126674 
L 456.761635 231.352604 
L 458.792418 231.914494 
L 460.823201 232.771685 
L 462.853984 233.920023 
L 464.884768 235.353964 
L 466.915551 237.066618 
L 468.946334 239.049805 
L 471.484813 241.894785 
L 474.023292 245.126812 
L 476.561771 248.722454 
L 479.607946 253.480863 
L 482.654121 258.677669 
L 486.207992 265.226038 
L 490.269558 273.244888 
L 494.83882 282.790486 
L 500.93117 296.066788 
L 515.146653 327.270069 
L 520.223611 337.827473 
L 524.792873 346.843569 
L 528.854439 354.399058 
L 532.916006 361.475694 
L 536.469876 367.250329 
L 540.023747 372.621975 
L 543.577618 377.585138 
L 547.131488 382.140675 
L 550.685359 386.295038 
L 554.23923 390.05949 
L 557.285405 392.987303 
L 560.331579 395.65133 
L 563.88545 398.443222 
L 567.439321 400.91586 
L 570.993191 403.092687 
L 574.547062 404.997777 
L 578.100933 406.655298 
L 581.654803 408.089061 
L 585.71637 409.483211 
L 589.777936 410.647965 
L 594.347198 411.722064 
L 599.424156 412.668453 
L 605.00881 413.464561 
L 611.10116 414.102851 
L 618.208901 414.619778 
L 626.83973 415.016718 
L 638.009038 415.295856 
L 654.255304 415.461517 
L 687.255531 415.525906 
L 747.163636 415.529992 
L 747.163636 415.529992 
" clip-path="url(#p9a3d0791ea)" style="fill: none; stroke: #dd8452; stroke-width: 2.5; stroke-linecap: round"/>
   </g>
   <g id="line2d_45">
    <path d="M 138.436364 415.52993 
L 227.28313 415.421692 
L 245.052483 415.182266 
L 256.729487 414.8216 
L 265.868011 414.330707 
L 273.483448 413.707752 
L 280.083494 412.950396 
L 286.175844 412.018282 
L 291.252802 411.029899 
L 296.32976 409.810652 
L 300.899022 408.483088 
L 305.468284 406.905127 
L 309.529851 405.265854 
L 313.591417 403.379258 
L 317.652984 401.22155 
L 321.206854 399.092717 
L 324.760725 396.723237 
L 328.314595 394.09889 
L 331.868466 391.206734 
L 335.422337 388.035508 
L 338.976207 384.576047 
L 342.530078 380.821717 
L 346.083949 376.768843 
L 350.145515 371.771216 
L 354.207082 366.389043 
L 358.268648 360.635124 
L 362.83791 353.743503 
L 367.407173 346.44928 
L 372.484131 337.940047 
L 379.084176 326.396894 
L 399.899704 289.523258 
L 404.468967 282.071225 
L 408.530533 275.862745 
L 412.084404 270.821188 
L 415.130579 266.833844 
L 418.176753 263.189181 
L 421.222928 259.917451 
L 423.761407 257.495888 
L 426.299886 255.366899 
L 428.838365 253.543246 
L 431.376844 252.035953 
L 433.407628 251.06413 
L 435.438411 250.304493 
L 437.469194 249.760031 
L 439.499977 249.432888 
L 441.53076 249.324357 
L 443.561544 249.434866 
L 445.592327 249.763979 
L 447.62311 250.310396 
L 449.653893 251.071964 
L 451.684677 252.045688 
L 453.71546 253.227755 
L 456.253939 254.991224 
L 458.792418 257.062293 
L 461.330897 259.428526 
L 463.869376 262.075848 
L 466.915551 265.601656 
L 469.961726 269.480313 
L 473.515596 274.40883 
L 477.069467 279.720452 
L 481.131033 286.187531 
L 486.207992 294.739115 
L 492.808037 306.369526 
L 510.57739 337.971456 
L 516.162044 347.307895 
L 521.239002 355.339585 
L 525.808264 362.133864 
L 529.869831 367.7948 
L 533.931397 373.080019 
L 537.992964 377.978603 
L 541.546834 381.944449 
L 545.100705 385.61249 
L 548.654576 388.987306 
L 552.208446 392.076311 
L 555.762317 394.889324 
L 559.316188 397.438137 
L 562.870058 399.736106 
L 566.423929 401.797748 
L 570.485495 403.884206 
L 574.547062 405.705595 
L 578.608628 407.285711 
L 583.177891 408.804205 
L 587.747153 410.07951 
L 592.824111 411.248631 
L 597.901069 412.194573 
L 603.485723 413.019594 
L 610.085768 413.7586 
L 617.701206 414.365664 
L 626.332034 414.822367 
L 636.993646 415.159854 
L 651.716825 415.387511 
L 675.578528 415.503821 
L 746.655941 415.529943 
L 747.163636 415.529946 
L 747.163636 415.529946 
" clip-path="url(#p9a3d0791ea)" style="fill: none; stroke: #55a868; stroke-width: 2.5; stroke-linecap: round"/>
   </g>
   <g id="line2d_46">
    <path d="M 138.436364 415.528707 
L 205.959906 415.413066 
L 226.267738 415.164459 
L 239.975525 414.784138 
L 250.637137 414.271195 
L 259.267966 413.645266 
L 266.883403 412.878785 
L 273.483448 412.006527 
L 279.575798 410.991121 
L 285.160452 409.849991 
L 290.745106 408.47519 
L 295.822064 406.994452 
L 300.899022 405.266868 
L 305.468284 403.479164 
L 310.037546 401.451078 
L 314.606809 399.164225 
L 319.176071 396.601389 
L 323.237637 394.07906 
L 327.299204 391.317062 
L 331.36077 388.307865 
L 335.422337 385.046105 
L 339.991599 381.071321 
L 344.560861 376.773748 
L 349.130124 372.158955 
L 353.699386 367.238246 
L 358.776344 361.433486 
L 364.360998 354.677344 
L 370.453347 346.931669 
L 378.068785 336.84472 
L 399.899704 307.622718 
L 405.484358 300.681392 
L 410.05362 295.345022 
L 414.115187 290.921206 
L 418.176753 286.847123 
L 421.730624 283.60409 
L 425.284495 280.690345 
L 428.330669 278.474094 
L 431.376844 276.532575 
L 434.423019 274.878414 
L 436.961498 273.727343 
L 439.499977 272.788678 
L 442.038456 272.066749 
L 444.576935 271.564897 
L 447.115414 271.285452 
L 449.653893 271.229714 
L 452.192372 271.397943 
L 454.730851 271.789356 
L 457.269331 272.402133 
L 459.80781 273.233433 
L 462.346289 274.279415 
L 464.884768 275.535267 
L 467.930942 277.311164 
L 470.977117 279.369341 
L 474.023292 281.69647 
L 477.069467 284.277646 
L 480.623338 287.588263 
L 484.177208 291.194377 
L 488.238775 295.639005 
L 492.808037 300.995113 
L 497.884995 307.306665 
L 503.977345 315.248717 
L 513.623565 328.259875 
L 525.300569 343.952599 
L 531.900614 352.462699 
L 537.485268 359.33095 
L 542.562226 365.252514 
L 547.639184 370.828656 
L 552.208446 375.529402 
L 556.777709 379.915458 
L 561.346971 383.97972 
L 565.916233 387.720444 
L 569.9778 390.776282 
L 574.039366 393.583746 
L 578.100933 396.149993 
L 582.670195 398.760003 
L 587.239457 401.091335 
L 591.808719 403.160958 
L 596.377982 404.987101 
L 600.947244 406.588734 
L 606.024202 408.128426 
L 611.10116 409.440921 
L 616.685814 410.652625 
L 622.778164 411.7339 
L 629.378209 412.665592 
L 636.48595 413.439618 
L 644.609083 414.093193 
L 654.255304 414.628281 
L 665.932307 415.032125 
L 680.655486 415.305334 
L 702.486405 415.467286 
L 747.163636 415.526781 
L 747.163636 415.526781 
" clip-path="url(#p9a3d0791ea)" style="fill: none; stroke: #c44e52; stroke-width: 2.5; stroke-linecap: round"/>
   </g>
   <g id="line2d_47">
    <path d="M 138.436364 414.871683 
L 154.682629 414.392109 
L 168.390416 413.768001 
L 180.06742 413.017503 
L 190.221336 412.15426 
L 199.867556 411.111483 
L 208.498385 409.960761 
L 216.621518 408.661209 
L 224.236955 407.228238 
L 231.852392 405.565428 
L 238.960133 403.787706 
L 246.067875 401.775889 
L 252.66792 399.68599 
L 259.267966 397.37304 
L 265.868011 394.830179 
L 272.468057 392.053385 
L 279.068102 389.041961 
L 285.668148 385.798996 
L 292.775889 382.056093 
L 299.88363 378.068215 
L 307.499067 373.548251 
L 316.129896 368.160347 
L 326.283812 361.546888 
L 346.591645 347.958339 
L 357.760952 340.662219 
L 365.884085 335.615584 
L 372.991827 331.465526 
L 379.084176 328.156913 
L 384.66883 325.360809 
L 390.253484 322.820455 
L 395.330442 320.755167 
L 400.4074 318.941029 
L 404.976662 317.536339 
L 409.545925 316.358283 
L 414.115187 315.415475 
L 418.684449 314.71486 
L 423.253711 314.261626 
L 427.315278 314.069196 
L 431.376844 314.07605 
L 435.438411 314.282147 
L 440.007673 314.750607 
L 444.576935 315.466185 
L 449.146198 316.42358 
L 453.71546 317.615743 
L 458.284722 319.033962 
L 462.853984 320.667964 
L 467.930942 322.722317 
L 473.007901 325.010666 
L 478.592554 327.774635 
L 484.684904 331.052577 
L 491.28495 334.86929 
L 498.900387 339.551123 
L 508.038911 345.454259 
L 522.254394 354.948895 
L 537.992964 365.396043 
L 547.639184 371.534187 
L 555.762317 376.453899 
L 563.377754 380.814121 
L 570.485495 384.636828 
L 577.593237 388.203622 
L 584.193282 391.276964 
L 590.793328 394.116109 
L 597.393373 396.720793 
L 603.993419 399.094201 
L 610.593464 401.242488 
L 617.701206 403.314213 
L 624.808947 405.148227 
L 631.916688 406.759853 
L 639.532125 408.258778 
L 647.655258 409.62156 
L 656.286087 410.831461 
L 665.424611 411.879125 
L 675.070832 412.762709 
L 685.732444 413.518861 
L 697.917143 414.156516 
L 712.132626 414.669224 
L 729.394283 415.057491 
L 747.163636 415.284439 
L 747.163636 415.284439 
" clip-path="url(#p9a3d0791ea)" style="fill: none; stroke: #8172b3; stroke-width: 2.5; stroke-linecap: round"/>
   </g>
   <g id="line2d_48">
    <path d="M 138.436364 413.655696 
L 152.14415 412.880936 
L 164.32885 411.976244 
L 175.498158 410.9304 
L 186.15977 409.705465 
L 195.80599 408.379534 
L 204.944514 406.91064 
L 214.083039 405.215242 
L 222.713868 403.390183 
L 231.344696 401.334536 
L 239.467829 399.179968 
L 247.590962 396.806222 
L 255.714095 394.210637 
L 264.344924 391.210989 
L 272.975753 387.968559 
L 282.114277 384.284579 
L 291.760497 380.140603 
L 301.914414 375.534886 
L 314.099113 369.755535 
L 335.930033 359.087042 
L 350.653211 352.025969 
L 360.807127 347.401029 
L 369.437956 343.714417 
L 377.053393 340.700179 
L 384.161134 338.126153 
L 390.76118 335.97062 
L 396.853529 334.201789 
L 402.945879 332.661766 
L 409.038229 331.36491 
L 414.622883 330.400232 
L 420.207537 329.657911 
L 425.79219 329.143927 
L 431.376844 328.862442 
L 436.961498 328.815742 
L 442.546152 329.004207 
L 448.130806 329.426305 
L 453.71546 330.078613 
L 459.300114 330.955865 
L 464.884768 332.051019 
L 470.977117 333.483959 
L 477.069467 335.152378 
L 483.669512 337.207608 
L 490.269558 339.499088 
L 497.377299 342.203476 
L 504.992736 345.337707 
L 513.623565 349.134572 
L 523.777481 353.853446 
L 537.992964 360.734151 
L 564.393146 373.546685 
L 575.562454 378.699433 
L 585.71637 383.139476 
L 594.854894 386.896493 
L 603.485723 390.213289 
L 612.116552 393.290534 
L 620.239685 395.960483 
L 628.362817 398.408505 
L 636.48595 400.636076 
L 645.116779 402.766774 
L 653.747608 404.66334 
L 662.378437 406.337872 
L 671.516961 407.884748 
L 681.163181 409.285508 
L 691.317098 410.527619 
L 701.97871 411.604942 
L 713.655713 412.55454 
L 726.348108 413.357518 
L 740.563591 414.027766 
L 747.163636 414.271788 
L 747.163636 414.271788 
" clip-path="url(#p9a3d0791ea)" style="fill: none; stroke: #937860; stroke-width: 2.5; stroke-linecap: round"/>
   </g>
   <g id="line2d_49">
    <path d="M 138.436364 410.650499 
L 151.636455 409.385533 
L 163.821154 407.998059 
L 175.498158 406.450639 
L 186.667465 404.755739 
L 197.836773 402.838737 
L 209.006081 400.690906 
L 220.175389 398.307545 
L 231.344696 395.688802 
L 242.514004 392.840451 
L 254.191008 389.63031 
L 266.375707 386.050801 
L 280.083494 381.786414 
L 296.837455 376.326036 
L 341.514686 361.619922 
L 353.699386 357.923451 
L 364.360998 354.921288 
L 374.007218 352.438197 
L 382.638047 350.435734 
L 391.268876 348.665914 
L 399.392008 347.23259 
L 407.007446 346.108256 
L 414.622883 345.207823 
L 422.23832 344.540424 
L 429.346061 344.133816 
L 436.453802 343.939807 
L 443.561544 343.960137 
L 450.669285 344.194624 
L 457.777026 344.641164 
L 465.392463 345.350341 
L 473.007901 346.291101 
L 480.623338 347.453919 
L 488.746471 348.92585 
L 496.869603 350.620597 
L 505.500432 352.644404 
L 514.638957 355.010791 
L 524.792873 357.871895 
L 536.469876 361.40624 
L 550.685359 365.962076 
L 574.039366 373.73162 
L 596.377982 381.08028 
L 611.10116 385.689332 
L 623.793555 389.435342 
L 635.470559 392.658813 
L 646.639867 395.520898 
L 657.809174 398.153928 
L 668.978482 400.55176 
L 680.14779 402.713923 
L 691.317098 404.644845 
L 702.486405 406.353032 
L 714.163409 407.913478 
L 726.348108 409.31346 
L 739.040503 410.545782 
L 747.163636 411.224642 
L 747.163636 411.224642 
" clip-path="url(#p9a3d0791ea)" style="fill: none; stroke: #da8bc3; stroke-width: 2.5; stroke-linecap: round"/>
   </g>
   <g id="line2d_50">
    <path d="M 138.436364 403.559787 
L 158.2365 401.38418 
L 178.544332 398.925722 
L 199.867556 396.118167 
L 223.729259 392.745262 
L 253.683312 388.271747 
L 314.606809 379.116896 
L 335.930033 376.179413 
L 354.207082 373.884188 
L 370.453347 372.0635 
L 385.684222 370.577408 
L 399.899704 369.406984 
L 413.607491 368.494142 
L 427.315278 367.806915 
L 440.515369 367.368049 
L 453.71546 367.154162 
L 466.915551 367.168272 
L 480.115642 367.41018 
L 493.315733 367.876473 
L 506.515824 368.560603 
L 520.223611 369.491369 
L 534.439093 370.679062 
L 549.669967 372.181894 
L 565.916233 374.018156 
L 583.685586 376.260625 
L 603.993419 379.05971 
L 629.378209 382.798284 
L 711.117234 395.009571 
L 733.963545 398.094092 
L 747.163636 399.762206 
L 747.163636 399.762206 
" clip-path="url(#p9a3d0791ea)" style="fill: none; stroke: #8c8c8c; stroke-width: 2.5; stroke-linecap: round"/>
   </g>
   <g id="patch_3">
    <path d="M 108 432.54 
L 108 58.32 
" style="fill: none; stroke: #000000; stroke-linejoin: miter; stroke-linecap: square"/>
   </g>
   <g id="patch_4">
    <path d="M 777.6 432.54 
L 777.6 58.32 
" style="fill: none; stroke: #000000; stroke-linejoin: miter; stroke-linecap: square"/>
   </g>
   <g id="patch_5">
    <path d="M 108 432.54 
L 777.6 432.54 
" style="fill: none; stroke: #000000; stroke-linejoin: miter; stroke-linecap: square"/>
   </g>
   <g id="patch_6">
    <path d="M 108 58.32 
L 777.6 58.32 
" style="fill: none; stroke: #000000; stroke-linejoin: miter; stroke-linecap: square"/>
   </g>
   <g id="legend_1">
    <g id="patch_7">
     <path d="M 659.836347 286.21249 
L 765.504 286.21249 
Q 768.96 286.21249 768.96 282.75649 
L 768.96 70.416 
Q 768.96 66.96 765.504 66.96 
L 659.836347 66.96 
Q 656.380347 66.96 656.380347 70.416 
L 656.380347 282.75649 
Q 656.380347 286.21249 659.836347 286.21249 
z
" style="fill: #ffffff; opacity: 0.8; stroke: #cccccc; stroke-width: 0.8; stroke-linejoin: miter"/>
    </g>
    <g id="text_17">
     <!-- boundary spin -->
     <g style="fill: #262626" transform="translate(671.891985 83.834625) scale(0.144 -0.144)">
      <defs>
       <path id="CMSS17-62" d="M 954 4416 
L 480 4416 
L 480 -13 
L 966 -13 
L 966 275 
C 1210 38 1504 -64 1766 -64 
C 2381 -64 2880 559 2880 1382 
C 2880 2133 2496 2816 1926 2816 
C 1523 2816 1165 2649 954 2476 
L 954 4416 
z
M 966 2095 
C 1107 2276 1306 2425 1587 2425 
C 1965 2425 2394 2146 2394 1382 
C 2394 566 1882 326 1530 326 
C 1402 326 1267 358 1139 468 
C 966 624 966 721 966 812 
L 966 2095 
z
" transform="scale(0.015625)"/>
       <path id="CMSS17-6f" d="M 2829 1356 
C 2829 2175 2221 2816 1504 2816 
C 768 2816 173 2156 173 1356 
C 173 544 787 -64 1498 -64 
C 2227 -64 2829 563 2829 1356 
z
M 1504 339 
C 1050 339 659 710 659 1407 
C 659 2150 1114 2425 1498 2425 
C 1914 2425 2342 2124 2342 1407 
C 2342 684 1926 339 1504 339 
z
" transform="scale(0.015625)"/>
       <path id="CMSS17-75" d="M 2618 2752 
L 2131 2752 
L 2131 976 
C 2131 500 1786 307 1421 307 
C 998 307 960 448 960 712 
L 960 2752 
L 474 2752 
L 474 680 
C 474 179 646 -64 1088 -64 
C 1306 -64 1798 -13 2144 307 
L 2144 -13 
L 2618 -13 
L 2618 2752 
z
" transform="scale(0.015625)"/>
       <path id="CMSS17-6e" d="M 2618 1878 
C 2618 2283 2522 2816 1798 2816 
C 1389 2816 1120 2604 941 2386 
L 941 2783 
L 474 2783 
L 474 0 
L 960 0 
L 960 1556 
C 960 1962 1114 2425 1549 2425 
C 2112 2425 2131 2045 2131 1826 
L 2131 0 
L 2618 0 
L 2618 1878 
z
" transform="scale(0.015625)"/>
       <path id="CMSS17-64" d="M 2611 4416 
L 2138 4416 
L 2138 2495 
C 1939 2662 1613 2816 1254 2816 
C 672 2816 211 2179 211 1375 
C 211 572 666 -64 1235 -64 
C 1677 -64 1971 172 2125 307 
L 2125 -13 
L 2611 -13 
L 2611 4416 
z
M 2125 851 
C 2125 760 2125 663 1926 488 
C 1798 378 1645 326 1498 326 
C 1152 326 698 585 698 1369 
C 698 2185 1210 2425 1562 2425 
C 1798 2425 1990 2308 2125 2114 
L 2125 851 
z
" transform="scale(0.015625)"/>
       <path id="CMSS17-61" d="M 2406 1789 
C 2406 2399 1978 2816 1402 2816 
C 1120 2816 813 2764 461 2559 
L 499 2133 
C 659 2250 934 2438 1395 2438 
C 1722 2438 1920 2185 1920 1782 
L 1920 1536 
C 896 1504 256 1209 256 711 
C 256 452 416 -64 947 -64 
C 1043 -64 1562 -52 1933 224 
L 1933 -13 
L 2406 -13 
L 2406 1789 
z
M 1920 824 
C 1920 711 1920 559 1728 446 
C 1562 339 1350 326 1261 326 
C 941 326 723 503 723 723 
C 723 1165 1722 1209 1920 1216 
L 1920 824 
z
" transform="scale(0.015625)"/>
       <path id="CMSS17-72" d="M 954 1369 
C 954 1974 1395 2379 1958 2392 
L 1958 2816 
C 1549 2809 1165 2604 934 2270 
L 934 2783 
L 480 2783 
L 480 0 
L 954 0 
L 954 1369 
z
" transform="scale(0.015625)"/>
       <path id="CMSS17-79" d="M 2675 2752 
L 2176 2752 
C 1632 1293 1446 701 1434 383 
L 1427 383 
C 1408 695 1126 1459 902 2006 
L 602 2752 
L 83 2752 
L 1216 14 
C 1146 -177 1043 -464 1011 -527 
C 870 -884 774 -884 672 -884 
C 646 -884 442 -877 211 -807 
L 250 -1229 
C 410 -1261 570 -1280 685 -1280 
C 845 -1280 1165 -1280 1459 -495 
L 2675 2752 
z
" transform="scale(0.015625)"/>
       <path id="CMSS17-73" d="M 2061 2623 
C 1683 2803 1389 2816 1197 2816 
C 742 2816 198 2655 198 2009 
C 198 1363 902 1222 1094 1183 
C 1389 1126 1715 1062 1715 742 
C 1715 339 1254 339 1171 339 
C 915 339 563 409 243 639 
L 166 211 
C 531 0 883 -64 1178 -64 
C 1965 -64 2163 416 2163 780 
C 2163 1094 1984 1305 1862 1401 
C 1651 1567 1574 1587 1050 1695 
C 960 1708 646 1779 646 2067 
C 646 2431 1050 2431 1139 2431 
C 1555 2431 1811 2303 1984 2207 
L 2061 2623 
z
" transform="scale(0.015625)"/>
       <path id="CMSS17-70" d="M 966 275 
C 1178 70 1466 -64 1773 -64 
C 2368 -64 2880 553 2880 1382 
C 2880 2147 2496 2816 1946 2816 
C 1626 2816 1242 2700 954 2470 
L 954 2764 
L 480 2764 
L 480 -1280 
L 966 -1280 
L 966 275 
z
M 966 2088 
C 1018 2166 1235 2412 1587 2412 
C 2035 2412 2394 1946 2394 1382 
C 2394 741 1958 326 1530 326 
C 1402 326 1267 358 1139 468 
C 966 624 966 721 966 812 
L 966 2088 
z
" transform="scale(0.015625)"/>
       <path id="CMSS17-69" d="M 979 4224 
L 442 4224 
L 442 3686 
L 979 3686 
L 979 4224 
z
M 947 2752 
L 474 2752 
L 474 0 
L 947 0 
L 947 2752 
z
" transform="scale(0.015625)"/>
      </defs>
      <use xlink:href="#CMSS17-62" transform="scale(0.996264)"/>
      <use xlink:href="#CMSS17-6f" transform="translate(50.807382 0) scale(0.996264)"/>
      <use xlink:href="#CMSS17-75" transform="translate(97.651005 0) scale(0.996264)"/>
      <use xlink:href="#CMSS17-6e" transform="translate(145.855949 0) scale(0.996264)"/>
      <use xlink:href="#CMSS17-64" transform="translate(194.060892 0) scale(0.996264)"/>
      <use xlink:href="#CMSS17-61" transform="translate(242.265835 0) scale(0.996264)"/>
      <use xlink:href="#CMSS17-72" transform="translate(284.585301 0) scale(0.996264)"/>
      <use xlink:href="#CMSS17-79" transform="translate(316.495074 0) scale(0.996264)"/>
      <use xlink:href="#CMSS17-73" transform="translate(390.724328 0) scale(0.996264)"/>
      <use xlink:href="#CMSS17-70" transform="translate(426.63787 0) scale(0.996264)"/>
      <use xlink:href="#CMSS17-69" transform="translate(474.842814 0) scale(0.996264)"/>
      <use xlink:href="#CMSS17-6e" transform="translate(497.023537 0) scale(0.996264)"/>
     </g>
    </g>
    <g id="line2d_51">
     <path d="M 663.292347 101.312152 
L 680.572347 101.312152 
L 697.852347 101.312152 
" style="fill: none; stroke: #4c72b0; stroke-width: 2.5; stroke-linecap: round"/>
    </g>
    <g id="text_18">
     <!-- $j = 0.5$ -->
     <g style="fill: #262626" transform="translate(711.676347 107.360152) scale(0.1728 -0.1728)">
      <defs>
       <path id="CMMI12-6a" d="M 2240 2027 
C 2266 2129 2266 2218 2266 2243 
C 2266 2611 1990 2816 1702 2816 
C 1056 2816 710 1888 710 1843 
C 710 1811 736 1786 774 1786 
C 826 1786 832 1811 864 1875 
C 1120 2491 1440 2687 1683 2687 
C 1818 2687 1888 2617 1888 2395 
C 1888 2243 1869 2180 1843 2065 
L 1235 -327 
C 1114 -797 813 -1152 461 -1152 
C 435 -1152 301 -1152 179 -1089 
C 333 -1057 454 -937 454 -784 
C 454 -683 378 -581 237 -581 
C 70 -581 -83 -721 -83 -911 
C -83 -1172 198 -1280 461 -1280 
C 902 -1280 1485 -956 1645 -321 
L 2240 2027 
z
M 2502 4012 
C 2502 4172 2368 4224 2291 4224 
C 2118 4224 1971 4057 1971 3916 
C 1971 3820 2048 3705 2189 3705 
C 2336 3705 2502 3846 2502 4012 
z
" transform="scale(0.015625)"/>
       <path id="CMR17-3d" d="M 4115 2048 
C 4211 2048 4307 2048 4307 2156 
C 4307 2272 4198 2272 4090 2272 
L 512 2272 
C 403 2272 294 2272 294 2156 
C 294 2048 390 2048 486 2048 
L 4115 2048 
z
M 4090 927 
C 4198 927 4307 927 4307 1043 
C 4307 1152 4211 1152 4115 1152 
L 486 1152 
C 390 1152 294 1152 294 1043 
C 294 927 403 927 512 927 
L 4090 927 
z
" transform="scale(0.015625)"/>
      </defs>
      <use xlink:href="#CMMI12-6a" transform="scale(0.996264)"/>
      <use xlink:href="#CMR17-3d" transform="translate(73.636491 0) scale(0.996264)"/>
      <use xlink:href="#CMR17-30" transform="translate(173.025288 0) scale(0.996264)"/>
      <use xlink:href="#CMMI12-3a" transform="translate(218.715766 0) scale(0.996264)"/>
      <use xlink:href="#CMR17-35" transform="translate(245.812943 0) scale(0.996264)"/>
     </g>
    </g>
    <g id="line2d_52">
     <path d="M 663.292347 125.396694 
L 680.572347 125.396694 
L 697.852347 125.396694 
" style="fill: none; stroke: #dd8452; stroke-width: 2.5; stroke-linecap: round"/>
    </g>
    <g id="text_19">
     <!-- $j = 1$ -->
     <g style="fill: #262626" transform="translate(711.676347 131.444694) scale(0.1728 -0.1728)">
      <use xlink:href="#CMMI12-6a" transform="scale(0.996264)"/>
      <use xlink:href="#CMR17-3d" transform="translate(73.636491 0) scale(0.996264)"/>
      <use xlink:href="#CMR17-31" transform="translate(173.025288 0) scale(0.996264)"/>
     </g>
    </g>
    <g id="line2d_53">
     <path d="M 663.292347 149.481236 
L 680.572347 149.481236 
L 697.852347 149.481236 
" style="fill: none; stroke: #55a868; stroke-width: 2.5; stroke-linecap: round"/>
    </g>
    <g id="text_20">
     <!-- $j = 1.5$ -->
     <g style="fill: #262626" transform="translate(711.676347 155.529236) scale(0.1728 -0.1728)">
      <use xlink:href="#CMMI12-6a" transform="scale(0.996264)"/>
      <use xlink:href="#CMR17-3d" transform="translate(73.636491 0) scale(0.996264)"/>
      <use xlink:href="#CMR17-31" transform="translate(173.025288 0) scale(0.996264)"/>
      <use xlink:href="#CMMI12-3a" transform="translate(218.715766 0) scale(0.996264)"/>
      <use xlink:href="#CMR17-35" transform="translate(245.812943 0) scale(0.996264)"/>
     </g>
    </g>
    <g id="line2d_54">
     <path d="M 663.292347 173.565779 
L 680.572347 173.565779 
L 697.852347 173.565779 
" style="fill: none; stroke: #c44e52; stroke-width: 2.5; stroke-linecap: round"/>
    </g>
    <g id="text_21">
     <!-- $j = 2$ -->
     <g style="fill: #262626" transform="translate(711.676347 179.613779) scale(0.1728 -0.1728)">
      <use xlink:href="#CMMI12-6a" transform="scale(0.996264)"/>
      <use xlink:href="#CMR17-3d" transform="translate(73.636491 0) scale(0.996264)"/>
      <use xlink:href="#CMR17-32" transform="translate(173.025288 0) scale(0.996264)"/>
     </g>
    </g>
    <g id="line2d_55">
     <path d="M 663.292347 197.650321 
L 680.572347 197.650321 
L 697.852347 197.650321 
" style="fill: none; stroke: #8172b3; stroke-width: 2.5; stroke-linecap: round"/>
    </g>
    <g id="text_22">
     <!-- $j = 2.5$ -->
     <g style="fill: #262626" transform="translate(711.676347 203.698321) scale(0.1728 -0.1728)">
      <use xlink:href="#CMMI12-6a" transform="scale(0.996264)"/>
      <use xlink:href="#CMR17-3d" transform="translate(73.636491 0) scale(0.996264)"/>
      <use xlink:href="#CMR17-32" transform="translate(173.025288 0) scale(0.996264)"/>
      <use xlink:href="#CMMI12-3a" transform="translate(218.715766 0) scale(0.996264)"/>
      <use xlink:href="#CMR17-35" transform="translate(245.812943 0) scale(0.996264)"/>
     </g>
    </g>
    <g id="line2d_56">
     <path d="M 663.292347 221.734863 
L 680.572347 221.734863 
L 697.852347 221.734863 
" style="fill: none; stroke: #937860; stroke-width: 2.5; stroke-linecap: round"/>
    </g>
    <g id="text_23">
     <!-- $j = 3$ -->
     <g style="fill: #262626" transform="translate(711.676347 227.782863) scale(0.1728 -0.1728)">
      <use xlink:href="#CMMI12-6a" transform="scale(0.996264)"/>
      <use xlink:href="#CMR17-3d" transform="translate(73.636491 0) scale(0.996264)"/>
      <use xlink:href="#CMR17-33" transform="translate(173.025288 0) scale(0.996264)"/>
     </g>
    </g>
    <g id="line2d_57">
     <path d="M 663.292347 245.819405 
L 680.572347 245.819405 
L 697.852347 245.819405 
" style="fill: none; stroke: #da8bc3; stroke-width: 2.5; stroke-linecap: round"/>
    </g>
    <g id="text_24">
     <!-- $j = 3.5$ -->
     <g style="fill: #262626" transform="translate(711.676347 251.867405) scale(0.1728 -0.1728)">
      <use xlink:href="#CMMI12-6a" transform="scale(0.996264)"/>
      <use xlink:href="#CMR17-3d" transform="translate(73.636491 0) scale(0.996264)"/>
      <use xlink:href="#CMR17-33" transform="translate(173.025288 0) scale(0.996264)"/>
      <use xlink:href="#CMMI12-3a" transform="translate(218.715766 0) scale(0.996264)"/>
      <use xlink:href="#CMR17-35" transform="translate(245.812943 0) scale(0.996264)"/>
     </g>
    </g>
    <g id="line2d_58">
     <path d="M 663.292347 269.903947 
L 680.572347 269.903947 
L 697.852347 269.903947 
" style="fill: none; stroke: #8c8c8c; stroke-width: 2.5; stroke-linecap: round"/>
    </g>
    <g id="text_25">
     <!-- $j = 4$ -->
     <g style="fill: #262626" transform="translate(711.676347 275.951947) scale(0.1728 -0.1728)">
      <use xlink:href="#CMMI12-6a" transform="scale(0.996264)"/>
      <use xlink:href="#CMR17-3d" transform="translate(73.636491 0) scale(0.996264)"/>
      <use xlink:href="#CMR17-34" transform="translate(173.025288 0) scale(0.996264)"/>
     </g>
    </g>
   </g>
  </g>
 </g>
 <defs>
  <clipPath id="p9a3d0791ea">
   <rect x="108" y="58.32" width="669.6" height="374.22"/>
  </clipPath>
 </defs>
</svg>
