<?xml version="1.0" encoding="utf-8" standalone="no"?>
<!DOCTYPE svg PUBLIC "-//W3C//DTD SVG 1.1//EN"
  "http://www.w3.org/Graphics/SVG/1.1/DTD/svg11.dtd">
<svg xmlns:xlink="http://www.w3.org/1999/xlink" width="864pt" height="486pt" viewBox="0 0 864 486" xmlns="http://www.w3.org/2000/svg" version="1.1">
 <metadata>
  <rdf:RDF xmlns:dc="http://purl.org/dc/elements/1.1/" xmlns:cc="http://creativecommons.org/ns#" xmlns:rdf="http://www.w3.org/1999/02/22-rdf-syntax-ns#">
   <cc:Work>
    <dc:type rdf:resource="http://purl.org/dc/dcmitype/StillImage"/>
    <dc:date>2023-02-09T16:22:47.804225</dc:date>
    <dc:format>image/svg+xml</dc:format>
    <dc:creator>
     <cc:Agent>
      <dc:title>Matplotlib v3.6.2, https://matplotlib.org/</dc:title>
     </cc:Agent>
    </dc:creator>
   </cc:Work>
  </rdf:RDF>
 </metadata>
 <defs>
  <style type="text/css">*{stroke-linejoin: round; stroke-linecap: butt}</style>
 </defs>
 <g id="figure_1">
  <g id="patch_1">
   <path d="M 0 486 
L 864 486 
L 864 0 
L 0 0 
z
" style="fill: #ffffff"/>
  </g>
  <g id="axes_1">
   <g id="patch_2">
    <path d="M 108 432.54 
L 777.6 432.54 
L 777.6 58.32 
L 108 58.32 
z
" style="fill: #ffffff"/>
   </g>
   <g id="matplotlib.axis_1">
    <g id="xtick_1">
     <g id="line2d_1">
      <path d="M 138.375485 432.54 
L 138.375485 58.32 
" clip-path="url(#p1d1d56e2dc)" style="fill: none; stroke: #e6e6e6; stroke-width: 0.8; stroke-linecap: round"/>
     </g>
     <g id="line2d_2">
      <defs>
       <path id="m23caa5efba" d="M 0 0 
L 0 -4.8 
" style="stroke: #262626"/>
      </defs>
      <g>
       <use xlink:href="#m23caa5efba" x="138.375485" y="432.54" style="fill: #262626; stroke: #262626"/>
      </g>
     </g>
     <g id="line2d_3">
      <defs>
       <path id="med0956094e" d="M 0 0 
L 0 4.8 
" style="stroke: #262626"/>
      </defs>
      <g>
       <use xlink:href="#med0956094e" x="138.375485" y="58.32" style="fill: #262626; stroke: #262626"/>
      </g>
     </g>
     <g id="text_1">
      <!-- $\mathdefault{0}$ -->
      <g style="fill: #262626" transform="translate(135.156348 445.172395) scale(0.132 -0.132)">
       <defs>
        <path id="CMR17-30" d="M 2688 2038 
C 2688 2430 2682 3099 2413 3613 
C 2176 4063 1798 4224 1466 4224 
C 1158 4224 768 4082 525 3620 
C 269 3137 243 2539 243 2038 
C 243 1671 250 1112 448 623 
C 723 -39 1216 -128 1466 -128 
C 1760 -128 2208 -7 2470 604 
C 2662 1048 2688 1568 2688 2038 
z
M 1466 -26 
C 1056 -26 813 328 723 816 
C 653 1196 653 1749 653 2109 
C 653 2604 653 3015 736 3407 
C 858 3954 1216 4121 1466 4121 
C 1728 4121 2067 3947 2189 3420 
C 2272 3054 2278 2623 2278 2109 
C 2278 1691 2278 1176 2202 797 
C 2067 96 1690 -26 1466 -26 
z
" transform="scale(0.015625)"/>
       </defs>
       <use xlink:href="#CMR17-30" transform="scale(0.996264)"/>
      </g>
     </g>
    </g>
    <g id="xtick_2">
     <g id="line2d_4">
      <path d="M 260.133115 432.54 
L 260.133115 58.32 
" clip-path="url(#p1d1d56e2dc)" style="fill: none; stroke: #e6e6e6; stroke-width: 0.8; stroke-linecap: round"/>
     </g>
     <g id="line2d_5">
      <g>
       <use xlink:href="#m23caa5efba" x="260.133115" y="432.54" style="fill: #262626; stroke: #262626"/>
      </g>
     </g>
     <g id="line2d_6">
      <g>
       <use xlink:href="#med0956094e" x="260.133115" y="58.32" style="fill: #262626; stroke: #262626"/>
      </g>
     </g>
     <g id="text_2">
      <!-- $\mathdefault{2000}$ -->
      <g style="fill: #262626" transform="translate(247.256567 445.172395) scale(0.132 -0.132)">
       <defs>
        <path id="CMR17-32" d="M 2669 990 
L 2554 990 
C 2490 537 2438 460 2413 422 
C 2381 371 1920 371 1830 371 
L 602 371 
C 832 620 1280 1073 1824 1596 
C 2214 1966 2669 2400 2669 3033 
C 2669 3788 2067 4224 1395 4224 
C 691 4224 262 3603 262 3027 
C 262 2777 448 2745 525 2745 
C 589 2745 781 2783 781 3007 
C 781 3206 614 3264 525 3264 
C 486 3264 448 3257 422 3244 
C 544 3788 915 4057 1306 4057 
C 1862 4057 2227 3616 2227 3033 
C 2227 2477 1901 1998 1536 1583 
L 262 147 
L 262 0 
L 2515 0 
L 2669 990 
z
" transform="scale(0.015625)"/>
       </defs>
       <use xlink:href="#CMR17-32" transform="scale(0.996264)"/>
       <use xlink:href="#CMR17-30" transform="translate(45.690477 0) scale(0.996264)"/>
       <use xlink:href="#CMR17-30" transform="translate(91.380954 0) scale(0.996264)"/>
       <use xlink:href="#CMR17-30" transform="translate(137.071431 0) scale(0.996264)"/>
      </g>
     </g>
    </g>
    <g id="xtick_3">
     <g id="line2d_7">
      <path d="M 381.890745 432.54 
L 381.890745 58.32 
" clip-path="url(#p1d1d56e2dc)" style="fill: none; stroke: #e6e6e6; stroke-width: 0.8; stroke-linecap: round"/>
     </g>
     <g id="line2d_8">
      <g>
       <use xlink:href="#m23caa5efba" x="381.890745" y="432.54" style="fill: #262626; stroke: #262626"/>
      </g>
     </g>
     <g id="line2d_9">
      <g>
       <use xlink:href="#med0956094e" x="381.890745" y="58.32" style="fill: #262626; stroke: #262626"/>
      </g>
     </g>
     <g id="text_3">
      <!-- $\mathdefault{4000}$ -->
      <g style="fill: #262626" transform="translate(369.014197 445.172395) scale(0.132 -0.132)">
       <defs>
        <path id="CMR17-34" d="M 2150 4147 
C 2150 4281 2144 4288 2029 4288 
L 128 1254 
L 128 1088 
L 1779 1088 
L 1779 460 
C 1779 230 1766 166 1318 166 
L 1197 166 
L 1197 0 
C 1402 12 1747 12 1965 12 
C 2182 12 2528 12 2733 0 
L 2733 166 
L 2611 166 
C 2163 166 2150 230 2150 460 
L 2150 1088 
L 2803 1088 
L 2803 1254 
L 2150 1254 
L 2150 4147 
z
M 1798 3723 
L 1798 1254 
L 256 1254 
L 1798 3723 
z
" transform="scale(0.015625)"/>
       </defs>
       <use xlink:href="#CMR17-34" transform="scale(0.996264)"/>
       <use xlink:href="#CMR17-30" transform="translate(45.690477 0) scale(0.996264)"/>
       <use xlink:href="#CMR17-30" transform="translate(91.380954 0) scale(0.996264)"/>
       <use xlink:href="#CMR17-30" transform="translate(137.071431 0) scale(0.996264)"/>
      </g>
     </g>
    </g>
    <g id="xtick_4">
     <g id="line2d_10">
      <path d="M 503.648376 432.54 
L 503.648376 58.32 
" clip-path="url(#p1d1d56e2dc)" style="fill: none; stroke: #e6e6e6; stroke-width: 0.8; stroke-linecap: round"/>
     </g>
     <g id="line2d_11">
      <g>
       <use xlink:href="#m23caa5efba" x="503.648376" y="432.54" style="fill: #262626; stroke: #262626"/>
      </g>
     </g>
     <g id="line2d_12">
      <g>
       <use xlink:href="#med0956094e" x="503.648376" y="58.32" style="fill: #262626; stroke: #262626"/>
      </g>
     </g>
     <g id="text_4">
      <!-- $\mathdefault{6000}$ -->
      <g style="fill: #262626" transform="translate(490.771828 445.172395) scale(0.132 -0.132)">
       <defs>
        <path id="CMR17-36" d="M 678 2198 
C 678 3712 1395 4076 1811 4076 
C 1946 4076 2272 4049 2400 3782 
C 2298 3782 2106 3782 2106 3558 
C 2106 3385 2246 3328 2336 3328 
C 2394 3328 2566 3353 2566 3571 
C 2566 3987 2246 4224 1805 4224 
C 1043 4224 243 3411 243 2011 
C 243 257 966 -128 1478 -128 
C 2099 -128 2688 431 2688 1295 
C 2688 2101 2170 2688 1517 2688 
C 1126 2688 838 2430 678 1979 
L 678 2198 
z
M 1478 25 
C 691 25 691 1212 691 1450 
C 691 1914 909 2585 1504 2585 
C 1613 2585 1926 2585 2138 2140 
C 2253 1889 2253 1624 2253 1302 
C 2253 954 2253 696 2118 438 
C 1978 173 1773 25 1478 25 
z
" transform="scale(0.015625)"/>
       </defs>
       <use xlink:href="#CMR17-36" transform="scale(0.996264)"/>
       <use xlink:href="#CMR17-30" transform="translate(45.690477 0) scale(0.996264)"/>
       <use xlink:href="#CMR17-30" transform="translate(91.380954 0) scale(0.996264)"/>
       <use xlink:href="#CMR17-30" transform="translate(137.071431 0) scale(0.996264)"/>
      </g>
     </g>
    </g>
    <g id="xtick_5">
     <g id="line2d_13">
      <path d="M 625.406006 432.54 
L 625.406006 58.32 
" clip-path="url(#p1d1d56e2dc)" style="fill: none; stroke: #e6e6e6; stroke-width: 0.8; stroke-linecap: round"/>
     </g>
     <g id="line2d_14">
      <g>
       <use xlink:href="#m23caa5efba" x="625.406006" y="432.54" style="fill: #262626; stroke: #262626"/>
      </g>
     </g>
     <g id="line2d_15">
      <g>
       <use xlink:href="#med0956094e" x="625.406006" y="58.32" style="fill: #262626; stroke: #262626"/>
      </g>
     </g>
     <g id="text_5">
      <!-- $\mathdefault{8000}$ -->
      <g style="fill: #262626" transform="translate(612.529458 445.172395) scale(0.132 -0.132)">
       <defs>
        <path id="CMR17-38" d="M 1741 2289 
C 2144 2494 2554 2803 2554 3298 
C 2554 3884 1990 4224 1472 4224 
C 890 4224 378 3800 378 3215 
C 378 3054 416 2777 666 2533 
C 730 2469 998 2276 1171 2154 
C 883 2006 211 1652 211 945 
C 211 282 838 -128 1459 -128 
C 2144 -128 2720 366 2720 1022 
C 2720 1607 2330 1877 2074 2051 
L 1741 2289 
z
M 902 2855 
C 851 2887 595 3086 595 3388 
C 595 3781 998 4076 1459 4076 
C 1965 4076 2336 3716 2336 3298 
C 2336 2700 1670 2359 1638 2359 
C 1632 2359 1626 2359 1574 2398 
L 902 2855 
z
M 2080 1536 
C 2176 1466 2483 1253 2483 861 
C 2483 385 2010 25 1472 25 
C 890 25 448 443 448 951 
C 448 1459 838 1884 1280 2083 
L 2080 1536 
z
" transform="scale(0.015625)"/>
       </defs>
       <use xlink:href="#CMR17-38" transform="scale(0.996264)"/>
       <use xlink:href="#CMR17-30" transform="translate(45.690477 0) scale(0.996264)"/>
       <use xlink:href="#CMR17-30" transform="translate(91.380954 0) scale(0.996264)"/>
       <use xlink:href="#CMR17-30" transform="translate(137.071431 0) scale(0.996264)"/>
      </g>
     </g>
    </g>
    <g id="xtick_6">
     <g id="line2d_16">
      <path d="M 747.163636 432.54 
L 747.163636 58.32 
" clip-path="url(#p1d1d56e2dc)" style="fill: none; stroke: #e6e6e6; stroke-width: 0.8; stroke-linecap: round"/>
     </g>
     <g id="line2d_17">
      <g>
       <use xlink:href="#m23caa5efba" x="747.163636" y="432.54" style="fill: #262626; stroke: #262626"/>
      </g>
     </g>
     <g id="line2d_18">
      <g>
       <use xlink:href="#med0956094e" x="747.163636" y="58.32" style="fill: #262626; stroke: #262626"/>
      </g>
     </g>
     <g id="text_6">
      <!-- $\mathdefault{10000}$ -->
      <g style="fill: #262626" transform="translate(731.067951 445.172395) scale(0.132 -0.132)">
       <defs>
        <path id="CMR17-31" d="M 1702 4083 
C 1702 4217 1696 4224 1606 4224 
C 1357 3927 979 3833 621 3820 
C 602 3820 570 3820 563 3808 
C 557 3795 557 3782 557 3648 
C 755 3648 1088 3686 1344 3839 
L 1344 467 
C 1344 243 1331 166 781 166 
L 589 166 
L 589 0 
C 896 6 1216 12 1523 12 
C 1830 12 2150 6 2458 0 
L 2458 166 
L 2266 166 
C 1715 166 1702 236 1702 467 
L 1702 4083 
z
" transform="scale(0.015625)"/>
       </defs>
       <use xlink:href="#CMR17-31" transform="scale(0.996264)"/>
       <use xlink:href="#CMR17-30" transform="translate(45.690477 0) scale(0.996264)"/>
       <use xlink:href="#CMR17-30" transform="translate(91.380954 0) scale(0.996264)"/>
       <use xlink:href="#CMR17-30" transform="translate(137.071431 0) scale(0.996264)"/>
       <use xlink:href="#CMR17-30" transform="translate(182.761908 0) scale(0.996264)"/>
      </g>
     </g>
    </g>
    <g id="text_7">
     <!-- step ($s$) -->
     <g style="fill: #262626" transform="translate(419.734282 462.489095) scale(0.144 -0.144)">
      <defs>
       <path id="CMSS17-73" d="M 2061 2623 
C 1683 2803 1389 2816 1197 2816 
C 742 2816 198 2655 198 2009 
C 198 1363 902 1222 1094 1183 
C 1389 1126 1715 1062 1715 742 
C 1715 339 1254 339 1171 339 
C 915 339 563 409 243 639 
L 166 211 
C 531 0 883 -64 1178 -64 
C 1965 -64 2163 416 2163 780 
C 2163 1094 1984 1305 1862 1401 
C 1651 1567 1574 1587 1050 1695 
C 960 1708 646 1779 646 2067 
C 646 2431 1050 2431 1139 2431 
C 1555 2431 1811 2303 1984 2207 
L 2061 2623 
z
" transform="scale(0.015625)"/>
       <path id="CMSS17-74" d="M 1069 2380 
L 1901 2380 
L 1901 2752 
L 1069 2752 
L 1069 3520 
L 614 3520 
L 614 2752 
L 109 2752 
L 109 2380 
L 602 2380 
L 602 751 
C 602 384 685 -64 1107 -64 
C 1427 -64 1722 25 2003 172 
L 1901 551 
C 1747 416 1562 339 1363 339 
C 1082 339 1069 699 1069 860 
L 1069 2380 
z
" transform="scale(0.015625)"/>
       <path id="CMSS17-65" d="M 2502 1375 
C 2502 1587 2490 2001 2285 2347 
C 2061 2713 1696 2816 1421 2816 
C 755 2816 192 2184 192 1363 
C 192 579 774 -64 1510 -64 
C 1798 -64 2150 19 2470 249 
C 2470 275 2458 414 2451 421 
C 2451 433 2432 629 2432 655 
C 2125 408 1773 326 1517 326 
C 1107 326 666 667 646 1375 
L 2502 1375 
z
M 698 1728 
C 781 2086 1062 2425 1421 2425 
C 1517 2425 1965 2412 2080 1728 
L 698 1728 
z
" transform="scale(0.015625)"/>
       <path id="CMSS17-70" d="M 966 275 
C 1178 70 1466 -64 1773 -64 
C 2368 -64 2880 553 2880 1382 
C 2880 2147 2496 2816 1946 2816 
C 1626 2816 1242 2700 954 2470 
L 954 2764 
L 480 2764 
L 480 -1280 
L 966 -1280 
L 966 275 
z
M 966 2088 
C 1018 2166 1235 2412 1587 2412 
C 2035 2412 2394 1946 2394 1382 
C 2394 741 1958 326 1530 326 
C 1402 326 1267 358 1139 468 
C 966 624 966 721 966 812 
L 966 2088 
z
" transform="scale(0.015625)"/>
       <path id="CMSS17-28" d="M 1613 4800 
C 1267 4447 474 3627 474 1603 
C 474 -428 1267 -1242 1613 -1600 
L 2003 -1600 
C 1216 -781 960 366 960 1596 
C 960 2820 1203 3973 2003 4800 
L 1613 4800 
z
" transform="scale(0.015625)"/>
       <path id="CMMI12-73" d="M 1459 1290 
C 1568 1271 1741 1233 1779 1227 
C 1862 1201 2150 1099 2150 793 
C 2150 595 1971 64 1229 64 
C 1094 64 614 83 486 447 
C 742 414 870 614 870 755 
C 870 889 781 960 653 960 
C 512 960 326 851 326 563 
C 326 176 710 -64 1222 -64 
C 2195 -64 2483 665 2483 998 
C 2483 1093 2483 1271 2278 1475 
C 2118 1627 1965 1659 1619 1729 
C 1446 1767 1171 1824 1171 2111 
C 1171 2239 1286 2687 1894 2687 
C 2163 2687 2426 2589 2490 2368 
C 2208 2368 2195 2124 2195 2118 
C 2195 1983 2317 1945 2374 1945 
C 2464 1945 2643 2015 2643 2284 
C 2643 2546 2400 2816 1901 2816 
C 1062 2816 838 2169 838 1907 
C 838 1424 1312 1322 1459 1290 
z
" transform="scale(0.015625)"/>
       <path id="CMSS17-29" d="M 723 -1600 
C 1069 -1248 1862 -428 1862 1596 
C 1862 3627 1069 4440 723 4800 
L 333 4800 
C 1120 3979 1376 2833 1376 1603 
C 1376 379 1133 -774 333 -1600 
L 723 -1600 
z
" transform="scale(0.015625)"/>
      </defs>
      <use xlink:href="#CMSS17-73" transform="scale(0.996264)"/>
      <use xlink:href="#CMSS17-74" transform="translate(35.913542 0) scale(0.996264)"/>
      <use xlink:href="#CMSS17-65" transform="translate(69.745109 0) scale(0.996264)"/>
      <use xlink:href="#CMSS17-70" transform="translate(111.383931 0) scale(0.996264)"/>
      <use xlink:href="#CMSS17-28" transform="translate(190.817987 0) scale(0.996264)"/>
      <use xlink:href="#CMMI12-73" transform="translate(227.251901 0) scale(0.996264)"/>
      <use xlink:href="#CMSS17-29" transform="translate(273.201948 0) scale(0.996264)"/>
     </g>
    </g>
   </g>
   <g id="matplotlib.axis_2">
    <g id="ytick_1">
     <g id="line2d_19">
      <path d="M 108 415.53011 
L 777.6 415.53011 
" clip-path="url(#p1d1d56e2dc)" style="fill: none; stroke: #e6e6e6; stroke-width: 0.8; stroke-linecap: round"/>
     </g>
     <g id="line2d_20">
      <defs>
       <path id="m9acf603034" d="M 0 0 
L 4.8 0 
" style="stroke: #262626"/>
      </defs>
      <g>
       <use xlink:href="#m9acf603034" x="108" y="415.53011" style="fill: #262626; stroke: #262626"/>
      </g>
     </g>
     <g id="line2d_21">
      <defs>
       <path id="m2089e8ddb5" d="M 0 0 
L -4.8 0 
" style="stroke: #262626"/>
      </defs>
      <g>
       <use xlink:href="#m2089e8ddb5" x="777.6" y="415.53011" style="fill: #262626; stroke: #262626"/>
      </g>
     </g>
     <g id="text_8">
      <!-- $\mathdefault{0.0}$ -->
      <g style="fill: #262626" transform="translate(88.04664 420.096307) scale(0.132 -0.132)">
       <defs>
        <path id="CMMI12-3a" d="M 1178 307 
C 1178 492 1024 620 870 620 
C 685 620 557 467 557 313 
C 557 128 710 0 864 0 
C 1050 0 1178 153 1178 307 
z
" transform="scale(0.015625)"/>
       </defs>
       <use xlink:href="#CMR17-30" transform="scale(0.996264)"/>
       <use xlink:href="#CMMI12-3a" transform="translate(45.690477 0) scale(0.996264)"/>
       <use xlink:href="#CMR17-30" transform="translate(72.787654 0) scale(0.996264)"/>
      </g>
     </g>
    </g>
    <g id="ytick_2">
     <g id="line2d_22">
      <path d="M 108 352.999979 
L 777.6 352.999979 
" clip-path="url(#p1d1d56e2dc)" style="fill: none; stroke: #e6e6e6; stroke-width: 0.8; stroke-linecap: round"/>
     </g>
     <g id="line2d_23">
      <g>
       <use xlink:href="#m9acf603034" x="108" y="352.999979" style="fill: #262626; stroke: #262626"/>
      </g>
     </g>
     <g id="line2d_24">
      <g>
       <use xlink:href="#m2089e8ddb5" x="777.6" y="352.999979" style="fill: #262626; stroke: #262626"/>
      </g>
     </g>
     <g id="text_9">
      <!-- $\mathdefault{0.5}$ -->
      <g style="fill: #262626" transform="translate(88.04664 357.566176) scale(0.132 -0.132)">
       <defs>
        <path id="CMR17-35" d="M 730 3750 
C 794 3724 1056 3641 1325 3641 
C 1920 3641 2246 3961 2432 4140 
C 2432 4191 2432 4224 2394 4224 
C 2387 4224 2374 4224 2323 4198 
C 2099 4102 1837 4032 1517 4032 
C 1325 4032 1037 4055 723 4191 
C 653 4224 640 4224 634 4224 
C 602 4224 595 4217 595 4090 
L 595 2231 
C 595 2113 595 2080 659 2080 
C 691 2080 704 2093 736 2139 
C 941 2435 1222 2560 1542 2560 
C 1766 2560 2246 2415 2246 1293 
C 2246 1087 2246 716 2054 422 
C 1894 159 1645 25 1370 25 
C 947 25 518 319 403 812 
C 429 806 480 793 506 793 
C 589 793 749 838 749 1036 
C 749 1209 627 1280 506 1280 
C 358 1280 262 1190 262 1011 
C 262 454 704 -128 1382 -128 
C 2042 -128 2669 441 2669 1267 
C 2669 2054 2170 2662 1549 2662 
C 1222 2662 947 2540 730 2304 
L 730 3750 
z
" transform="scale(0.015625)"/>
       </defs>
       <use xlink:href="#CMR17-30" transform="scale(0.996264)"/>
       <use xlink:href="#CMMI12-3a" transform="translate(45.690477 0) scale(0.996264)"/>
       <use xlink:href="#CMR17-35" transform="translate(72.787654 0) scale(0.996264)"/>
      </g>
     </g>
    </g>
    <g id="ytick_3">
     <g id="line2d_25">
      <path d="M 108 290.469848 
L 777.6 290.469848 
" clip-path="url(#p1d1d56e2dc)" style="fill: none; stroke: #e6e6e6; stroke-width: 0.8; stroke-linecap: round"/>
     </g>
     <g id="line2d_26">
      <g>
       <use xlink:href="#m9acf603034" x="108" y="290.469848" style="fill: #262626; stroke: #262626"/>
      </g>
     </g>
     <g id="line2d_27">
      <g>
       <use xlink:href="#m2089e8ddb5" x="777.6" y="290.469848" style="fill: #262626; stroke: #262626"/>
      </g>
     </g>
     <g id="text_10">
      <!-- $\mathdefault{1.0}$ -->
      <g style="fill: #262626" transform="translate(88.04664 295.036046) scale(0.132 -0.132)">
       <use xlink:href="#CMR17-31" transform="scale(0.996264)"/>
       <use xlink:href="#CMMI12-3a" transform="translate(45.690477 0) scale(0.996264)"/>
       <use xlink:href="#CMR17-30" transform="translate(72.787654 0) scale(0.996264)"/>
      </g>
     </g>
    </g>
    <g id="ytick_4">
     <g id="line2d_28">
      <path d="M 108 227.939717 
L 777.6 227.939717 
" clip-path="url(#p1d1d56e2dc)" style="fill: none; stroke: #e6e6e6; stroke-width: 0.8; stroke-linecap: round"/>
     </g>
     <g id="line2d_29">
      <g>
       <use xlink:href="#m9acf603034" x="108" y="227.939717" style="fill: #262626; stroke: #262626"/>
      </g>
     </g>
     <g id="line2d_30">
      <g>
       <use xlink:href="#m2089e8ddb5" x="777.6" y="227.939717" style="fill: #262626; stroke: #262626"/>
      </g>
     </g>
     <g id="text_11">
      <!-- $\mathdefault{1.5}$ -->
      <g style="fill: #262626" transform="translate(88.04664 232.505915) scale(0.132 -0.132)">
       <use xlink:href="#CMR17-31" transform="scale(0.996264)"/>
       <use xlink:href="#CMMI12-3a" transform="translate(45.690477 0) scale(0.996264)"/>
       <use xlink:href="#CMR17-35" transform="translate(72.787654 0) scale(0.996264)"/>
      </g>
     </g>
    </g>
    <g id="ytick_5">
     <g id="line2d_31">
      <path d="M 108 165.409587 
L 777.6 165.409587 
" clip-path="url(#p1d1d56e2dc)" style="fill: none; stroke: #e6e6e6; stroke-width: 0.8; stroke-linecap: round"/>
     </g>
     <g id="line2d_32">
      <g>
       <use xlink:href="#m9acf603034" x="108" y="165.409587" style="fill: #262626; stroke: #262626"/>
      </g>
     </g>
     <g id="line2d_33">
      <g>
       <use xlink:href="#m2089e8ddb5" x="777.6" y="165.409587" style="fill: #262626; stroke: #262626"/>
      </g>
     </g>
     <g id="text_12">
      <!-- $\mathdefault{2.0}$ -->
      <g style="fill: #262626" transform="translate(88.04664 169.975784) scale(0.132 -0.132)">
       <use xlink:href="#CMR17-32" transform="scale(0.996264)"/>
       <use xlink:href="#CMMI12-3a" transform="translate(45.690477 0) scale(0.996264)"/>
       <use xlink:href="#CMR17-30" transform="translate(72.787654 0) scale(0.996264)"/>
      </g>
     </g>
    </g>
    <g id="ytick_6">
     <g id="line2d_34">
      <path d="M 108 102.879456 
L 777.6 102.879456 
" clip-path="url(#p1d1d56e2dc)" style="fill: none; stroke: #e6e6e6; stroke-width: 0.8; stroke-linecap: round"/>
     </g>
     <g id="line2d_35">
      <g>
       <use xlink:href="#m9acf603034" x="108" y="102.879456" style="fill: #262626; stroke: #262626"/>
      </g>
     </g>
     <g id="line2d_36">
      <g>
       <use xlink:href="#m2089e8ddb5" x="777.6" y="102.879456" style="fill: #262626; stroke: #262626"/>
      </g>
     </g>
     <g id="text_13">
      <!-- $\mathdefault{2.5}$ -->
      <g style="fill: #262626" transform="translate(88.04664 107.445653) scale(0.132 -0.132)">
       <use xlink:href="#CMR17-32" transform="scale(0.996264)"/>
       <use xlink:href="#CMMI12-3a" transform="translate(45.690477 0) scale(0.996264)"/>
       <use xlink:href="#CMR17-35" transform="translate(72.787654 0) scale(0.996264)"/>
      </g>
     </g>
    </g>
    <g id="text_14">
     <!-- $W^2 \left(j, [i_n]_s \right)$ -->
     <g style="fill: #262626" transform="translate(80.460083 280.621092) rotate(-90) scale(0.144 -0.144)">
      <defs>
       <path id="CMMI12-57" d="M 5779 3644 
C 5926 3892 6067 4127 6451 4166 
C 6509 4172 6566 4179 6566 4281 
C 6566 4352 6509 4352 6490 4352 
C 6477 4352 6432 4339 6010 4339 
C 5818 4339 5619 4352 5434 4352 
C 5395 4352 5318 4352 5318 4230 
C 5318 4172 5370 4166 5408 4166 
C 5536 4159 5741 4121 5741 3924 
C 5741 3841 5715 3797 5651 3689 
L 3904 648 
L 3674 3962 
C 3674 4038 3744 4159 4102 4166 
C 4186 4166 4250 4166 4250 4287 
C 4250 4352 4186 4352 4154 4352 
C 3930 4352 3693 4339 3462 4339 
L 3130 4339 
C 3034 4339 2918 4352 2822 4352 
C 2784 4352 2707 4352 2707 4230 
C 2707 4166 2752 4166 2861 4166 
C 3155 4166 3155 4159 3181 3771 
L 3200 3542 
L 1542 648 
L 1306 3930 
C 1306 4000 1306 4159 1741 4166 
C 1811 4166 1882 4166 1882 4281 
C 1882 4352 1824 4352 1786 4352 
C 1562 4352 1325 4339 1094 4339 
L 762 4339 
C 666 4339 550 4352 454 4352 
C 416 4352 339 4352 339 4230 
C 339 4166 390 4166 480 4166 
C 781 4166 787 4127 800 3924 
L 1082 19 
C 1088 -90 1094 -128 1171 -128 
C 1235 -128 1248 -103 1306 -7 
L 3213 3307 
L 3450 19 
C 3456 -90 3462 -128 3539 -128 
C 3603 -128 3622 -96 3674 -7 
L 5779 3644 
z
" transform="scale(0.015625)"/>
       <path id="CMR17-28" d="M 1958 -1562 
C 1958 -1556 1958 -1543 1939 -1524 
C 1645 -1223 858 -403 858 1596 
C 858 3595 1632 4408 1946 4729 
C 1946 4735 1958 4748 1958 4767 
C 1958 4787 1939 4800 1914 4800 
C 1843 4800 1299 4325 986 3620 
C 666 2909 576 2218 576 1603 
C 576 1141 621 360 1005 -467 
C 1312 -1133 1837 -1600 1914 -1600 
C 1946 -1600 1958 -1588 1958 -1562 
z
" transform="scale(0.015625)"/>
       <path id="CMMI12-6a" d="M 2240 2027 
C 2266 2129 2266 2218 2266 2243 
C 2266 2611 1990 2816 1702 2816 
C 1056 2816 710 1888 710 1843 
C 710 1811 736 1786 774 1786 
C 826 1786 832 1811 864 1875 
C 1120 2491 1440 2687 1683 2687 
C 1818 2687 1888 2617 1888 2395 
C 1888 2243 1869 2180 1843 2065 
L 1235 -327 
C 1114 -797 813 -1152 461 -1152 
C 435 -1152 301 -1152 179 -1089 
C 333 -1057 454 -937 454 -784 
C 454 -683 378 -581 237 -581 
C 70 -581 -83 -721 -83 -911 
C -83 -1172 198 -1280 461 -1280 
C 902 -1280 1485 -956 1645 -321 
L 2240 2027 
z
M 2502 4012 
C 2502 4172 2368 4224 2291 4224 
C 2118 4224 1971 4057 1971 3916 
C 1971 3820 2048 3705 2189 3705 
C 2336 3705 2502 3846 2502 4012 
z
" transform="scale(0.015625)"/>
       <path id="CMMI12-3b" d="M 1248 -26 
C 1248 345 1126 620 864 620 
C 659 620 557 454 557 313 
C 557 172 653 0 870 0 
C 954 0 1024 25 1082 83 
C 1094 96 1101 96 1107 96 
C 1120 96 1120 6 1120 -26 
C 1120 -233 1082 -642 710 -1051 
C 640 -1127 640 -1140 640 -1152 
C 640 -1184 672 -1216 704 -1216 
C 755 -1216 1248 -749 1248 -26 
z
" transform="scale(0.015625)"/>
       <path id="CMR17-5b" d="M 1504 -1600 
L 1504 -1376 
L 902 -1376 
L 902 4575 
L 1504 4575 
L 1504 4800 
L 678 4800 
L 678 -1600 
L 1504 -1600 
z
" transform="scale(0.015625)"/>
       <path id="CMMI12-69" d="M 1811 913 
C 1811 945 1786 970 1747 970 
C 1690 970 1683 951 1651 842 
C 1485 261 1222 64 1011 64 
C 934 64 845 83 845 274 
C 845 447 922 638 992 830 
L 1440 2017 
C 1459 2068 1504 2183 1504 2305 
C 1504 2573 1312 2816 998 2816 
C 410 2816 173 1890 173 1838 
C 173 1813 198 1781 243 1781 
C 301 1781 307 1807 333 1896 
C 486 2432 730 2687 979 2687 
C 1037 2687 1146 2681 1146 2477 
C 1146 2311 1062 2100 1011 1960 
L 563 772 
C 525 670 486 568 486 453 
C 486 166 685 -64 992 -64 
C 1581 -64 1811 868 1811 913 
z
M 1760 4012 
C 1760 4108 1683 4224 1542 4224 
C 1395 4224 1229 4083 1229 3916 
C 1229 3756 1363 3705 1440 3705 
C 1613 3705 1760 3871 1760 4012 
z
" transform="scale(0.015625)"/>
       <path id="CMMI12-6e" d="M 1318 1870 
C 1331 1909 1491 2228 1728 2432 
C 1894 2585 2112 2687 2362 2687 
C 2618 2687 2707 2496 2707 2241 
C 2707 1877 2445 1149 2317 804 
C 2259 651 2227 568 2227 453 
C 2227 166 2426 -64 2733 -64 
C 3328 -64 3552 874 3552 913 
C 3552 945 3526 970 3488 970 
C 3430 970 3424 951 3392 842 
C 3245 319 3002 64 2752 64 
C 2688 64 2586 70 2586 274 
C 2586 434 2656 625 2694 715 
C 2822 1066 3091 1781 3091 2145 
C 3091 2528 2867 2816 2381 2816 
C 1811 2816 1510 2413 1395 2253 
C 1376 2617 1114 2816 832 2816 
C 627 2816 486 2694 378 2477 
C 262 2247 173 1864 173 1838 
C 173 1813 198 1781 243 1781 
C 294 1781 301 1787 339 1934 
C 442 2324 557 2687 813 2687 
C 960 2687 1011 2585 1011 2394 
C 1011 2253 947 2004 902 1807 
L 723 1117 
C 698 996 627 708 595 593 
C 550 427 480 127 480 95 
C 480 6 550 -64 646 -64 
C 723 -64 813 -26 864 70 
C 877 102 934 325 966 453 
L 1107 1028 
L 1318 1870 
z
" transform="scale(0.015625)"/>
       <path id="CMR17-5d" d="M 915 4800 
L 90 4800 
L 90 4575 
L 691 4575 
L 691 -1376 
L 90 -1376 
L 90 -1600 
L 915 -1600 
L 915 4800 
z
" transform="scale(0.015625)"/>
       <path id="CMR17-29" d="M 1683 1596 
C 1683 2057 1638 2839 1254 3665 
C 947 4332 422 4800 346 4800 
C 326 4800 301 4793 301 4761 
C 301 4748 307 4742 314 4729 
C 621 4408 1402 3595 1402 1603 
C 1402 -396 627 -1210 314 -1530 
C 307 -1543 301 -1549 301 -1562 
C 301 -1594 326 -1600 346 -1600 
C 416 -1600 960 -1127 1274 -422 
C 1594 289 1683 981 1683 1596 
z
" transform="scale(0.015625)"/>
      </defs>
      <use xlink:href="#CMMI12-57" transform="scale(0.996264)"/>
      <use xlink:href="#CMR17-32" transform="translate(105.644498 36.153639) scale(0.697382)"/>
      <use xlink:href="#CMR17-28" transform="translate(154.730217 0.003177) scale(0.996264)"/>
      <use xlink:href="#CMMI12-6a" transform="translate(190.010985 0) scale(0.996264)"/>
      <use xlink:href="#CMMI12-3b" transform="translate(230.554032 0) scale(0.996264)"/>
      <use xlink:href="#CMR17-5b" transform="translate(274.255614 0) scale(0.996264)"/>
      <use xlink:href="#CMMI12-69" transform="translate(299.126673 0) scale(0.996264)"/>
      <use xlink:href="#CMMI12-6e" transform="translate(332.405275 -14.943915) scale(0.697382)"/>
      <use xlink:href="#CMR17-5d" transform="translate(373.66425 0) scale(0.996264)"/>
      <use xlink:href="#CMMI12-73" transform="translate(398.535308 -14.943915) scale(0.697382)"/>
      <use xlink:href="#CMR17-29" transform="translate(431.198329 0.003177) scale(0.996264)"/>
     </g>
    </g>
    <g id="text_15">
     <!-- $\times\mathdefault{10^{−20}}\mathdefault{}$ -->
     <g style="fill: #262626" transform="translate(108 55.32) scale(0.132 -0.132)">
      <defs>
       <path id="CMSY10-2" d="M 2490 1775 
L 1210 3046 
C 1133 3123 1120 3136 1069 3136 
C 1005 3136 941 3078 941 3008 
C 941 2963 954 2950 1024 2880 
L 2304 1596 
L 1024 313 
C 954 243 941 230 941 185 
C 941 115 1005 57 1069 57 
C 1120 57 1133 70 1210 147 
L 2483 1418 
L 3808 95 
C 3821 89 3866 57 3904 57 
C 3981 57 4032 115 4032 185 
C 4032 198 4032 223 4013 255 
C 4006 268 2989 1271 2669 1596 
L 3840 2765 
C 3872 2803 3968 2886 4000 2925 
C 4006 2937 4032 2963 4032 3008 
C 4032 3078 3981 3136 3904 3136 
C 3853 3136 3827 3110 3757 3040 
L 2490 1775 
z
" transform="scale(0.015625)"/>
       <path id="CMSY10-0" d="M 4218 1472 
C 4326 1472 4442 1472 4442 1600 
C 4442 1728 4326 1728 4218 1728 
L 755 1728 
C 646 1728 531 1728 531 1600 
C 531 1472 646 1472 755 1472 
L 4218 1472 
z
" transform="scale(0.015625)"/>
      </defs>
      <use xlink:href="#CMSY10-2" transform="scale(0.996264)"/>
      <use xlink:href="#CMR17-31" transform="translate(77.487468 0) scale(0.996264)"/>
      <use xlink:href="#CMR17-30" transform="translate(123.177945 0) scale(0.996264)"/>
      <use xlink:href="#CMSY10-0" transform="translate(168.868422 36.153639) scale(0.697382)"/>
      <use xlink:href="#CMR17-32" transform="translate(223.109415 36.153639) scale(0.697382)"/>
      <use xlink:href="#CMR17-30" transform="translate(255.092597 36.153639) scale(0.697382)"/>
     </g>
    </g>
   </g>
   <g id="line2d_37">
    <path d="M 138.436364 415.514974 
L 139.166909 415.493207 
L 139.288667 415.278948 
L 139.532182 415.278948 
L 139.65394 415.496094 
L 139.897455 415.504996 
L 140.080092 415.376318 
L 140.262728 415.302497 
L 140.810637 415.329237 
L 140.932395 415.528421 
L 141.297668 415.506869 
L 141.419426 415.497077 
L 141.541183 415.173743 
L 141.784698 415.173743 
L 141.845577 415.381411 
L 141.906456 415.173743 
L 141.967335 415.192289 
L 142.454365 415.192289 
L 142.576123 414.39645 
L 142.637002 414.39645 
L 142.75876 414.567695 
L 142.880517 414.567695 
L 143.063154 415.455553 
L 143.489305 415.490247 
L 143.611063 415.324084 
L 143.732821 415.318736 
L 143.915457 415.440825 
L 144.098093 415.420979 
L 144.28073 415.507486 
L 144.76776 415.520003 
L 146.046216 415.493721 
L 146.35061 415.522011 
L 148.420489 415.480058 
L 148.481368 414.555647 
L 148.542247 414.844372 
L 148.724883 414.920247 
L 148.846641 413.834188 
L 149.090156 413.834188 
L 149.211914 414.102948 
L 149.698944 414.102948 
L 149.881581 415.000938 
L 150.003339 414.467207 
L 150.125096 414.467207 
L 150.246854 414.758475 
L 150.307733 414.54437 
L 150.42949 414.758475 
L 151.038278 414.758475 
L 151.099157 414.139846 
L 151.220915 414.848901 
L 151.281794 414.848901 
L 151.403551 414.384519 
L 151.525309 414.578417 
L 151.829703 414.644189 
L 151.951461 415.192692 
L 152.316733 415.093911 
L 152.49937 413.787324 
L 152.560249 413.787324 
L 152.682006 414.492905 
L 153.716946 414.492905 
L 153.777825 415.472122 
L 153.838704 415.417206 
L 154.02134 415.35466 
L 155.908584 415.33182 
L 156.030341 415.115805 
L 156.212978 415.115805 
L 156.334735 414.930183 
L 156.700008 414.930183 
L 156.821766 413.736678 
L 157.61319 413.736678 
L 157.674069 414.917986 
L 157.734948 414.789398 
L 158.526373 414.789398 
L 158.64813 415.072561 
L 158.830767 415.072561 
L 158.952524 413.711399 
L 159.865707 413.711399 
L 160.048343 415.383686 
L 160.170101 415.017581 
L 160.352737 415.017581 
L 160.413616 414.392288 
L 160.474495 414.434937 
L 160.535374 414.434937 
L 160.657131 414.785714 
L 160.778889 414.785714 
L 160.839768 415.522959 
L 160.900646 415.339277 
L 161.448556 415.361853 
L 161.509435 415.174384 
L 161.631192 415.404403 
L 162.300859 415.404403 
L 162.483496 415.280058 
L 162.605253 415.375882 
L 162.848769 415.420312 
L 164.675133 415.466384 
L 164.796891 415.193853 
L 164.918648 415.193853 
L 165.040406 413.33684 
L 165.162163 413.33684 
L 165.283921 413.975218 
L 165.649194 413.975218 
L 165.953588 414.337394 
L 166.014467 414.337394 
L 166.136225 414.097385 
L 166.197103 414.097385 
L 166.440619 413.344914 
L 166.501497 413.344914 
L 166.623255 414.829552 
L 168.145225 414.900064 
L 168.266983 415.158776 
L 168.44962 415.161102 
L 168.510498 415.432793 
L 168.632256 409.872062 
L 168.875771 409.872062 
L 168.997529 401.069571 
L 169.788953 401.069571 
L 169.910711 415.341462 
L 170.032469 408.750559 
L 170.154226 414.085366 
L 170.45862 414.05909 
L 170.580378 408.140624 
L 171.432681 408.140624 
L 171.554439 406.422196 
L 171.919712 406.422196 
L 172.04147 414.910479 
L 172.163227 414.910479 
L 172.284985 414.322772 
L 172.954652 414.322772 
L 173.076409 415.444891 
L 173.319925 415.477494 
L 173.746076 415.398729 
L 173.867834 414.951623 
L 173.928713 414.951623 
L 174.050471 414.160916 
L 174.841895 414.160916 
L 174.902774 413.247914 
L 175.024532 410.625761 
L 175.572441 410.625761 
L 175.694199 414.498756 
L 175.815956 413.876562 
L 176.12035 413.876562 
L 176.242108 414.958636 
L 176.302987 414.958636 
L 176.424744 415.431702 
L 176.546502 415.431702 
L 176.607381 415.167547 
L 176.729138 415.487895 
L 176.850896 415.399497 
L 177.094411 415.386196 
L 177.337927 413.237089 
L 177.398805 413.237089 
L 177.520563 414.462597 
L 177.581442 414.462597 
L 177.703199 414.023367 
L 178.433745 414.023367 
L 178.555503 414.891754 
L 178.799018 414.891754 
L 178.920776 414.127609 
L 179.407806 414.233622 
L 179.529564 413.21383 
L 180.077473 413.21383 
L 180.199231 415.50098 
L 180.320988 408.488339 
L 180.625383 408.488339 
L 180.686261 408.767378 
L 180.74714 406.283773 
L 180.868898 409.842817 
L 180.990655 409.842817 
L 181.112413 407.981885 
L 181.173292 377.634284 
L 181.29505 406.389362 
L 182.147353 406.389362 
L 182.269111 405.218466 
L 182.329989 405.218466 
L 182.512626 413.413143 
L 182.634383 409.075599 
L 182.756141 411.252004 
L 182.938778 411.252004 
L 182.999656 415.438934 
L 183.060535 415.305631 
L 183.243172 415.195655 
L 183.30405 415.195655 
L 183.486687 415.42374 
L 183.669323 415.495786 
L 183.730202 415.495786 
L 183.85196 412.902313 
L 183.912839 412.902313 
L 184.156354 411.745743 
L 184.217233 411.745743 
L 184.33899 412.121918 
L 184.521627 412.121918 
L 184.643384 412.309088 
L 184.8869 412.309088 
L 185.008657 413.274428 
L 185.130415 413.274428 
L 185.191294 413.869162 
L 185.313051 412.997337 
L 185.37393 412.997337 
L 185.495688 400.162392 
L 185.739203 400.162392 
L 185.860961 407.989749 
L 185.982718 407.989749 
L 186.104476 407.667753 
L 186.469749 407.667753 
L 186.591506 402.486656 
L 186.713264 406.876856 
L 187.687325 406.876856 
L 187.809083 395.576955 
L 187.93084 413.225525 
L 187.991719 413.225525 
L 188.113477 414.965724 
L 188.174356 414.965724 
L 188.296113 415.153118 
L 188.356992 415.153118 
L 188.539629 414.178108 
L 188.600507 414.178108 
L 188.722265 415.015934 
L 188.96578 415.015934 
L 189.087538 414.82552 
L 189.270174 414.82552 
L 189.391932 415.257117 
L 189.818084 415.257117 
L 189.939841 414.799438 
L 190.487751 414.845903 
L 190.609508 415.016317 
L 191.340054 415.016317 
L 191.461812 414.875701 
L 191.705327 414.875701 
L 191.827085 415.442263 
L 191.948842 415.240934 
L 192.435873 415.240934 
L 192.55763 414.778451 
L 192.679388 415.374687 
L 192.983782 415.374687 
L 193.044661 415.209323 
L 193.10554 415.511617 
L 193.166418 415.376634 
L 193.227297 415.371219 
L 193.288176 414.872265 
L 193.349055 415.221034 
L 193.409934 415.221034 
L 193.531691 414.543184 
L 193.714328 414.543184 
L 193.896964 410.685807 
L 194.323116 410.685807 
L 194.505752 415.374815 
L 194.566631 415.374815 
L 194.62751 414.403474 
L 194.688389 414.927097 
L 194.749268 414.927097 
L 194.871025 414.612442 
L 195.053662 414.612442 
L 195.175419 415.364096 
L 195.418935 415.25755 
L 195.479813 415.114485 
L 195.601571 415.35455 
L 195.784208 415.263423 
L 196.027723 415.298198 
L 196.210359 415.490193 
L 206.803273 415.412558 
L 207.046788 415.36848 
L 207.594698 415.443873 
L 207.716455 415.468523 
L 212.525882 415.416257 
L 212.708518 415.320773 
L 213.560822 415.365414 
L 213.743458 415.462059 
L 214.108731 415.484483 
L 214.230489 415.236806 
L 214.352246 415.399814 
L 214.474004 415.399814 
L 214.595761 413.65321 
L 215.387186 413.65321 
L 215.569822 415.165622 
L 215.813338 415.408646 
L 215.935095 415.204128 
L 217.091793 415.302328 
L 217.21355 415.511451 
L 217.274429 415.511451 
L 217.396187 415.364595 
L 217.578823 415.460044 
L 218.674642 415.505569 
L 218.7964 414.418989 
L 218.857278 414.4287 
L 218.979036 415.077245 
L 219.100794 414.247717 
L 219.344309 414.247717 
L 219.526945 414.367681 
L 219.587824 414.367681 
L 219.709582 415.340728 
L 220.196612 415.404607 
L 220.257491 415.164136 
L 220.31837 415.318662 
L 220.379249 415.318662 
L 220.440128 415.207125 
L 220.622764 415.342914 
L 220.744522 415.342914 
L 220.805401 415.155109 
L 220.988037 412.83404 
L 221.048916 412.83404 
L 221.170673 411.78757 
L 221.292431 412.755175 
L 221.35331 412.755175 
L 221.657704 407.850618 
L 221.84034 407.850618 
L 221.962098 403.783047 
L 222.083856 403.783047 
L 222.205613 395.877335 
L 222.87528 395.877335 
L 222.997038 396.601001 
L 223.057917 404.357598 
L 223.301432 372.580812 
L 223.362311 413.61827 
L 223.42319 413.529623 
L 223.788462 413.529623 
L 223.849341 415.177685 
L 223.91022 415.083281 
L 224.031978 415.283574 
L 224.092857 415.283574 
L 224.214614 414.920788 
L 224.579887 414.921378 
L 224.701645 414.439919 
L 224.823402 414.439919 
L 224.94516 415.517332 
L 225.127796 415.466259 
L 226.223615 415.373155 
L 226.406252 415.312422 
L 226.893282 415.312422 
L 227.01504 415.030119 
L 228.597889 415.001935 
L 228.719647 415.409694 
L 229.145798 415.409694 
L 229.206677 415.194189 
L 229.328435 415.455778 
L 229.57195 415.455778 
L 229.693708 415.231623 
L 229.876344 415.232947 
L 230.05898 415.500828 
L 230.241617 415.462739 
L 230.302496 415.194189 
L 230.363375 415.345178 
L 230.485132 415.454098 
L 230.60689 415.450144 
L 230.667769 415.315036 
L 230.789526 415.486946 
L 231.215678 415.419927 
L 231.276557 412.257017 
L 231.337436 414.169538 
L 231.824466 414.169538 
L 231.885345 413.837769 
L 231.946224 414.644311 
L 232.007103 412.352852 
L 232.189739 415.373185 
L 232.433254 415.43034 
L 232.615891 415.514777 
L 232.859406 415.523601 
L 233.042042 415.393331 
L 233.285558 415.394074 
L 233.468194 410.431495 
L 233.711709 410.431495 
L 233.955225 411.00445 
L 234.016103 411.00445 
L 234.137861 413.278994 
L 234.259619 410.80994 
L 234.442255 410.80994 
L 234.564013 414.751415 
L 234.68577 414.751415 
L 234.807528 413.731882 
L 234.929286 414.080792 
L 235.172801 414.080792 
L 235.355437 415.381415 
L 235.477195 415.048579 
L 235.72071 415.048579 
L 235.842468 415.513146 
L 239.982227 415.457359 
L 240.164864 415.256932 
L 240.225743 415.256932 
L 240.3475 414.94838 
L 240.469258 414.94838 
L 240.591015 415.195344 
L 240.773652 415.195344 
L 240.834531 415.482428 
L 240.89541 415.232944 
L 240.956288 415.360078 
L 241.078046 415.360078 
L 241.199804 415.509348 
L 241.321561 415.465222 
L 241.504198 415.514577 
L 257.150053 415.424719 
L 257.271811 415.233129 
L 257.454447 415.233129 
L 257.576205 415.479046 
L 261.350691 415.473134 
L 261.41157 414.841786 
L 261.533328 415.471522 
L 262.507389 415.479218 
L 262.629147 415.261826 
L 262.933541 415.261826 
L 263.116177 415.379705 
L 263.96848 415.366162 
L 264.090238 414.545968 
L 264.151117 414.545968 
L 264.211996 414.658766 
L 264.333753 415.074614 
L 264.455511 415.139724 
L 264.577269 414.792584 
L 265.00342 414.792584 
L 265.125178 415.471499 
L 265.307814 415.368959 
L 265.794845 415.295609 
L 265.916603 415.022093 
L 266.03836 415.123298 
L 266.160118 415.515431 
L 266.281875 412.048275 
L 266.829785 412.048275 
L 266.951542 415.385823 
L 267.195058 415.321544 
L 267.255937 415.449386 
L 267.377694 415.170578 
L 267.499452 415.234713 
L 267.560331 415.046789 
L 267.682088 413.945064 
L 267.803846 413.945064 
L 267.986482 415.340064 
L 268.10824 415.314928 
L 268.412634 410.867153 
L 269.021422 410.867153 
L 269.14318 412.378713 
L 270.299877 412.378713 
L 270.421635 414.17522 
L 270.786908 414.17522 
L 270.908665 413.752607 
L 271.030423 413.752607 
L 271.091302 414.032687 
L 271.213059 412.516536 
L 271.456575 412.516536 
L 271.578332 410.937975 
L 271.70009 410.937975 
L 271.760969 377.076968 
L 271.821848 385.882725 
L 272.126242 385.882725 
L 272.247999 382.370533 
L 272.369757 406.774312 
L 272.491515 408.612543 
L 272.795909 408.612543 
L 272.856787 414.517835 
L 272.917666 414.145273 
L 272.978545 414.145273 
L 273.039424 415.184239 
L 273.100303 414.882505 
L 273.891727 414.791729 
L 274.013485 414.583959 
L 274.135243 414.583959 
L 274.257 415.450088 
L 274.378758 415.292835 
L 274.439637 415.46707 
L 274.500516 415.321364 
L 274.561394 415.330782 
L 274.683152 415.489504 
L 275.29194 415.489102 
L 275.474577 415.353577 
L 275.778971 415.464373 
L 275.839849 415.508654 
L 276.266001 414.268603 
L 276.387759 414.268603 
L 276.509516 414.637163 
L 276.631274 414.637163 
L 276.81391 414.753469 
L 276.996547 414.753469 
L 277.118305 414.349525 
L 278.335881 414.349525 
L 278.457638 415.308889 
L 278.944669 415.308889 
L 279.127305 415.181959 
L 279.309942 415.181959 
L 279.492578 415.303753 
L 279.979609 415.303753 
L 280.101367 415.466569 
L 280.223124 415.519205 
L 280.344882 415.185169 
L 280.710155 415.185169 
L 280.771033 415.417456 
L 280.831912 415.244838 
L 281.379822 415.244838 
L 281.501579 415.464148 
L 282.962671 415.528857 
L 283.084428 415.272578 
L 283.632338 415.272578 
L 283.754095 415.39515 
L 283.875853 415.103437 
L 283.997611 415.366732 
L 284.119368 415.001429 
L 284.606399 415.001429 
L 284.667278 415.457708 
L 284.728156 415.241844 
L 284.971672 415.202325 
L 285.458702 415.202325 
L 285.519581 415.458263 
L 285.58046 415.408424 
L 285.763096 415.381527 
L 285.884854 415.496641 
L 285.945733 415.401398 
L 286.006612 415.456357 
L 286.189248 415.51286 
L 289.354946 415.444093 
L 289.537583 415.372102 
L 292.76416 415.443967 
L 292.885918 415.133957 
L 293.312069 415.133957 
L 293.433827 415.433196 
L 294.83404 415.515312 
L 294.955797 413.094765 
L 295.381949 413.094765 
L 295.625464 414.239218 
L 295.747222 414.423922 
L 295.808101 414.423922 
L 295.929858 413.108533 
L 296.295131 413.108533 
L 296.416889 414.375753 
L 296.538647 413.777123 
L 296.660404 406.266967 
L 296.964798 406.266967 
L 297.086556 406.979646 
L 297.269192 406.979646 
L 297.330071 411.951285 
L 297.39095 408.130589 
L 297.695344 408.130589 
L 297.817102 410.896086 
L 298.791163 410.896086 
L 299.156436 407.82593 
L 299.217314 407.82593 
L 299.278193 415.137524 
L 299.339072 414.998266 
L 299.643466 414.990714 
L 299.704345 415.165126 
L 299.826103 414.703571 
L 299.94786 411.284233 
L 300.130497 415.513062 
L 300.49577 415.526052 
L 300.617527 415.244956 
L 300.678406 415.244956 
L 300.800164 413.462093 
L 300.921921 413.462093 
L 301.043679 415.000103 
L 302.01774 415.030309 
L 302.139498 407.513606 
L 302.200376 407.513606 
L 302.261255 406.326163 
L 302.322134 396.065075 
L 302.383013 402.978861 
L 302.748286 402.978861 
L 302.870043 402.185335 
L 303.235316 402.185335 
L 303.357074 404.765211 
L 303.661468 404.765211 
L 303.783226 408.103429 
L 304.026741 408.103429 
L 304.209377 348.92785 
L 304.270256 348.92785 
L 304.392014 408.738615 
L 304.879044 408.738615 
L 305.000802 400.803423 
L 305.244317 400.803423 
L 305.366075 403.362642 
L 305.670469 403.362642 
L 305.731348 394.05353 
L 305.853105 354.949614 
L 306.218378 354.949614 
L 306.340136 414.898551 
L 306.401015 414.766005 
L 306.583651 409.142249 
L 306.766288 414.713553 
L 306.827166 414.713553 
L 306.948924 415.044111 
L 307.253318 415.044111 
L 307.375076 412.049819 
L 307.740349 412.049819 
L 307.862106 409.888649 
L 308.349137 409.888649 
L 308.470894 414.037445 
L 309.018804 414.037445 
L 309.140561 414.277355 
L 309.20144 414.277355 
L 309.323198 413.025272 
L 309.444955 413.025272 
L 309.505834 412.518826 
L 309.627592 413.025272 
L 310.723411 413.025272 
L 310.845168 413.638196 
L 310.906047 413.638196 
L 310.966926 412.887318 
L 311.088683 414.850587 
L 311.149562 414.850587 
L 311.27132 413.457459 
L 311.332199 413.457459 
L 311.453956 414.608935 
L 311.636593 414.608935 
L 311.75835 414.396369 
L 311.880108 406.204508 
L 312.062744 406.204508 
L 312.184502 408.748462 
L 312.79329 408.748462 
L 312.854169 415.340588 
L 312.915048 415.154617 
L 313.036805 415.154617 
L 313.158563 404.603015 
L 313.3412 404.603015 
L 313.462957 75.33 
L 314.497897 75.33 
L 314.619655 377.196567 
L 314.680534 377.196567 
L 314.802291 374.634709 
L 315.593716 374.634709 
L 315.715473 218.616708 
L 315.837231 218.616708 
L 315.958989 183.701312 
L 316.019867 183.701312 
L 316.080746 408.457324 
L 316.141625 307.507104 
L 316.263383 307.507104 
L 316.38514 357.991701 
L 316.506898 357.991701 
L 316.628656 352.137081 
L 317.907111 352.137081 
L 318.028868 332.658962 
L 319.002929 332.658962 
L 319.124687 321.266539 
L 319.48996 321.266539 
L 319.611718 242.721809 
L 319.672596 242.721809 
L 319.794354 332.658962 
L 320.403142 332.658962 
L 320.5249 317.330823 
L 321.194567 317.330823 
L 321.316324 379.305788 
L 321.681597 379.305788 
L 321.803355 397.044439 
L 322.107749 397.044439 
L 322.229507 413.269185 
L 322.655658 413.269185 
L 322.716537 411.911742 
L 322.838295 404.420978 
L 322.960052 405.092757 
L 323.325325 405.092757 
L 323.386204 412.435117 
L 323.507962 346.392001 
L 323.690598 346.392001 
L 323.751477 343.635545 
L 323.873235 393.376096 
L 324.11675 393.376096 
L 324.238507 386.424953 
L 325.760478 386.424953 
L 325.882235 406.368997 
L 326.125751 378.565028 
L 326.247508 378.565028 
L 326.369266 327.636642 
L 326.734539 327.636642 
L 326.856297 217.985357 
L 326.978054 309.495627 
L 327.038933 309.495627 
L 327.160691 217.985357 
L 327.586842 217.985357 
L 327.7086 307.187934 
L 328.012994 307.187934 
L 328.19563 376.506362 
L 328.256509 376.506362 
L 328.378267 339.435057 
L 328.500025 339.435057 
L 328.682661 414.433907 
L 328.804419 414.433907 
L 328.865297 414.688607 
L 328.926176 413.535282 
L 329.047934 407.542141 
L 329.108813 414.925048 
L 329.169692 414.629003 
L 329.77848 414.629003 
L 329.900237 414.224386 
L 330.143753 414.224386 
L 330.26551 410.023248 
L 330.387268 410.023248 
L 330.448147 405.433799 
L 330.569904 381.902402 
L 330.81342 381.902402 
L 330.935177 405.690407 
L 331.239571 405.690407 
L 331.361329 372.918739 
L 331.483086 412.456211 
L 331.665723 412.456211 
L 331.787481 412.021513 
L 331.970117 412.021513 
L 332.091875 410.897771 
L 332.396269 410.897771 
L 332.518026 410.189508 
L 332.639784 411.471401 
L 333.005057 411.471401 
L 333.126814 412.646683 
L 333.248572 407.187003 
L 333.492087 407.187003 
L 333.613845 404.455913 
L 333.674724 404.455913 
L 333.796481 413.744756 
L 333.918239 413.846893 
L 334.039997 412.869836 
L 334.283512 412.869836 
L 334.40527 409.634306 
L 334.527027 409.634306 
L 334.648785 410.357342 
L 334.709664 410.357342 
L 334.831421 413.898976 
L 335.318452 413.898976 
L 335.440209 409.482474 
L 335.501088 414.054991 
L 335.561967 413.706087 
L 335.683725 413.706087 
L 335.805482 414.869806 
L 335.92724 414.596229 
L 335.988119 414.596229 
L 336.048998 414.809397 
L 336.170755 415.509104 
L 336.231634 415.509104 
L 336.414271 415.320099 
L 337.388332 415.219169 
L 337.510089 414.814766 
L 337.631847 415.297581 
L 337.692726 415.297581 
L 337.814483 414.051729 
L 337.875362 414.051729 
L 337.99712 410.928576 
L 338.057999 410.928576 
L 338.179756 414.376937 
L 338.301514 414.376937 
L 338.423271 415.306915 
L 338.910302 415.319519 
L 339.03206 414.805142 
L 339.153817 414.805142 
L 339.214696 415.177654 
L 339.275575 414.892148 
L 339.336454 414.892148 
L 339.458211 414.290645 
L 340.614909 414.290645 
L 340.736666 415.424539 
L 340.858424 415.129337 
L 340.980182 415.129337 
L 341.101939 415.490249 
L 341.406333 415.425274 
L 341.528091 415.270276 
L 341.58897 415.478706 
L 341.649849 415.371054 
L 343.171819 415.327929 
L 343.293577 415.169195 
L 343.354455 415.169195 
L 343.415334 415.380393 
L 343.537092 414.479452 
L 343.719728 415.329736 
L 343.780607 415.329736 
L 343.841486 415.443746 
L 344.14588 414.946989 
L 344.693789 414.946989 
L 344.815547 415.4297 
L 345.363456 415.403168 
L 345.424335 415.317777 
L 345.485214 415.470566 
L 345.546093 415.404574 
L 345.66785 414.956733 
L 345.789608 415.396143 
L 345.911366 413.703488 
L 346.094002 413.703488 
L 346.21576 408.20723 
L 346.276639 408.20723 
L 346.398396 410.473024 
L 346.459275 410.473024 
L 346.581033 415.07183 
L 346.824548 415.07183 
L 346.946306 414.882211 
L 347.189821 414.882211 
L 347.311578 415.25285 
L 347.555094 415.337135 
L 347.676851 415.426492 
L 347.798609 415.242182 
L 347.920367 415.242182 
L 347.981245 414.92444 
L 348.042124 415.209976 
L 348.103003 414.915894 
L 348.163882 415.411554 
L 348.224761 415.271734 
L 348.590034 415.271734 
L 348.711791 414.984069 
L 348.77267 414.984069 
L 348.833549 415.209347 
L 348.955306 414.783896 
L 349.259701 414.783896 
L 349.381458 414.312749 
L 350.477277 414.312749 
L 350.659913 415.263952 
L 350.720792 415.458059 
L 350.84255 415.184191 
L 351.025186 415.184191 
L 351.086065 415.422295 
L 351.146944 415.280586 
L 351.512217 415.280586 
L 351.633974 415.416703 
L 351.87749 415.421094 
L 351.999247 411.911827 
L 352.121005 415.416019 
L 353.277702 415.433875 
L 353.39946 414.954888 
L 353.460339 414.954888 
L 353.642975 409.660345 
L 353.825612 409.660345 
L 353.947369 414.781426 
L 354.008248 414.781426 
L 354.069127 414.587013 
L 354.190885 415.139337 
L 354.617036 415.139337 
L 354.799673 415.402719 
L 354.860552 415.440644 
L 354.982309 415.282574 
L 355.408461 415.282574 
L 355.530218 415.517335 
L 356.017249 415.503918 
L 356.686916 415.488435 
L 356.808674 415.216554 
L 356.930431 415.365895 
L 357.052189 414.277205 
L 357.173946 414.277205 
L 357.295704 408.446077 
L 357.782735 408.446077 
L 357.904492 403.756278 
L 358.51328 403.756278 
L 358.635038 407.558947 
L 358.695917 407.558947 
L 358.756796 411.872324 
L 358.817674 408.922588 
L 359.06119 408.922588 
L 359.182947 414.920825 
L 359.243826 414.920825 
L 359.304705 415.059535 
L 359.426463 415.475346 
L 359.730857 415.221653 
L 360.035251 415.140978 
L 360.157008 414.66313 
L 360.765797 414.66313 
L 360.887554 415.342924 
L 361.009312 415.342924 
L 361.131069 415.049659 
L 361.191948 415.378504 
L 361.313706 415.066982 
L 361.678979 415.066982 
L 361.739858 415.256861 
L 361.861615 414.492436 
L 361.983373 414.492436 
L 362.044252 414.88641 
L 362.105131 414.861397 
L 362.226888 412.533944 
L 362.287767 412.533944 
L 362.409525 414.854293 
L 362.531282 410.977574 
L 362.65304 410.977574 
L 362.774797 411.503195 
L 363.383586 411.503195 
L 363.505343 413.61465 
L 363.566222 413.61465 
L 363.68798 414.557928 
L 364.17501 414.557928 
L 364.296768 414.707205 
L 364.479404 414.707205 
L 364.540283 412.964591 
L 364.601162 413.354393 
L 364.662041 413.354393 
L 364.783798 413.045409 
L 365.20995 413.045409 
L 365.331708 414.812227 
L 365.453465 412.636191 
L 365.575223 413.418509 
L 365.757859 413.418509 
L 365.879617 413.161216 
L 366.001375 413.161216 
L 366.123132 413.924158 
L 366.366648 413.924158 
L 366.488405 415.191112 
L 366.610163 414.340065 
L 366.671042 415.374525 
L 366.73192 415.347328 
L 366.853678 415.347328 
L 366.975436 414.95719 
L 367.036315 412.961437 
L 367.218951 415.33285 
L 367.340709 410.790483 
L 367.584224 410.790483 
L 367.76686 415.188367 
L 367.888618 415.188367 
L 368.010376 413.515712 
L 368.071254 413.515712 
L 368.193012 412.142244 
L 368.740921 412.142244 
L 368.862679 393.362935 
L 368.984437 415.416331 
L 369.106194 415.416331 
L 369.227952 413.611213 
L 369.410588 413.504395 
L 370.019376 413.504395 
L 370.141134 410.935291 
L 370.262892 410.935291 
L 370.384649 406.160059 
L 371.236953 406.160059 
L 371.35871 410.68039 
L 372.089256 410.68039 
L 372.211014 413.406402 
L 373.002438 413.406402 
L 373.124196 411.325931 
L 373.489469 411.325931 
L 373.611227 415.391878 
L 374.402651 415.416453 
L 374.646166 413.36997 
L 375.254955 413.36997 
L 375.376712 414.53898 
L 375.9855 414.53898 
L 376.107258 415.289003 
L 376.350773 415.289003 
L 376.472531 414.58296 
L 376.594289 407.388688 
L 376.898683 407.388688 
L 377.081319 414.449291 
L 377.203077 414.449291 
L 377.324834 413.392854 
L 377.385713 413.392854 
L 377.56835 415.213945 
L 377.629228 415.213945 
L 377.750986 414.174881 
L 378.481532 414.174881 
L 378.603289 415.353244 
L 378.785926 415.411355 
L 378.968562 415.490627 
L 379.333835 415.501347 
L 379.516472 415.375177 
L 379.57735 415.375177 
L 379.638229 415.513886 
L 379.699108 415.260927 
L 379.759987 415.353084 
L 379.942623 415.248779 
L 380.003502 415.248779 
L 380.12526 415.020841 
L 380.186139 415.020841 
L 380.307896 413.952714 
L 380.429654 413.952714 
L 380.551412 414.652039 
L 380.734048 414.652039 
L 380.855806 413.82088 
L 381.403715 413.82088 
L 381.586351 413.542951 
L 381.708109 414.280945 
L 381.951624 414.280945 
L 382.073382 407.909572 
L 382.316897 407.909572 
L 382.438655 414.094009 
L 382.560412 414.094009 
L 382.803928 415.193772 
L 383.169201 401.77211 
L 383.230079 401.77211 
L 383.351837 397.220477 
L 383.412716 409.250939 
L 383.473595 407.68687 
L 383.595352 407.68687 
L 383.71711 397.233873 
L 383.777989 397.233873 
L 383.899746 407.042903 
L 384.691171 407.042903 
L 384.812929 412.959788 
L 384.873807 412.959788 
L 384.995565 415.075017 
L 385.604353 415.145204 
L 385.726111 415.415194 
L 385.908747 415.291443 
L 386.091384 415.379867 
L 386.517535 415.379867 
L 386.639293 414.415218 
L 387.065445 414.343193 
L 387.126324 414.157695 
L 387.187202 415.38054 
L 387.248081 414.815568 
L 387.369839 415.093802 
L 387.430718 414.750337 
L 387.552475 415.108678 
L 387.613354 415.108678 
L 387.735112 415.374132 
L 387.795991 415.374132 
L 387.917748 414.828097 
L 388.161263 414.886932 
L 388.283021 413.988964 
L 388.465657 414.099178 
L 388.709173 415.12193 
L 388.83093 415.12193 
L 388.891809 413.164072 
L 388.952688 414.657172 
L 389.074446 414.657172 
L 389.196203 414.896616 
L 389.317961 412.258312 
L 389.500597 412.258312 
L 389.622355 413.131519 
L 389.744113 411.293584 
L 389.804991 411.293584 
L 389.926749 383.608443 
L 390.048507 383.608443 
L 390.109385 413.389942 
L 390.170264 407.343058 
L 390.231143 407.343058 
L 390.352901 400.312394 
L 390.535537 400.43395 
L 390.596416 400.43395 
L 390.718174 409.613814 
L 391.083447 409.613814 
L 391.205204 411.697381 
L 391.509598 411.697381 
L 391.631356 405.517697 
L 391.753113 405.517697 
L 391.813992 405.133543 
L 391.93575 415.266123 
L 391.996629 415.15085 
L 392.118386 414.514889 
L 392.240144 415.063796 
L 392.605417 414.987186 
L 392.666296 414.467045 
L 392.727175 414.804182 
L 393.275084 414.804182 
L 393.396842 414.979438 
L 393.579478 415.04294 
L 393.701236 413.813181 
L 393.762114 413.813181 
L 393.883872 413.061775 
L 393.944751 413.061775 
L 394.066508 414.968595 
L 394.127387 414.968595 
L 394.249145 413.771759 
L 394.310024 414.713268 
L 394.370903 413.909215 
L 394.431781 414.313359 
L 394.797054 414.313359 
L 394.979691 415.220591 
L 395.04057 415.220591 
L 395.162327 414.562657 
L 395.344964 414.562657 
L 395.466721 415.156075 
L 395.5276 415.156075 
L 395.710236 415.272577 
L 395.831994 414.698598 
L 395.953752 414.698598 
L 396.197267 412.491908 
L 396.258146 413.211277 
L 396.379903 392.912815 
L 396.745176 392.912815 
L 396.866934 377.015363 
L 396.988692 405.870445 
L 397.04957 405.870445 
L 397.171328 396.487856 
L 397.232207 396.487856 
L 397.353964 391.831514 
L 397.475722 405.740297 
L 398.449783 405.740297 
L 398.571541 412.713664 
L 398.63242 412.496273 
L 399.11945 412.496273 
L 399.241208 407.961409 
L 399.606481 407.961409 
L 399.728238 411.670712 
L 399.910875 411.670712 
L 399.971754 415.388618 
L 400.032632 415.280454 
L 400.458784 415.381851 
L 400.641421 415.401916 
L 400.763178 415.423245 
L 400.884936 415.275422 
L 400.945815 415.275422 
L 401.128451 415.428638 
L 401.250209 413.720527 
L 401.371966 414.287817 
L 401.432845 414.287817 
L 401.493724 414.442146 
L 401.67636 415.220263 
L 402.22427 415.220263 
L 402.346027 414.616959 
L 402.650421 415.476616 
L 402.772179 415.146764 
L 402.833058 415.160841 
L 402.954815 415.304522 
L 403.015694 414.780373 
L 403.137452 415.304522 
L 403.502725 415.304522 
L 403.563604 415.459752 
L 403.685361 415.009047 
L 403.807119 415.380349 
L 404.050634 415.343807 
L 404.172392 415.387609 
L 404.233271 415.483916 
L 404.355028 415.304208 
L 404.720301 415.304208 
L 404.78118 415.142162 
L 404.842059 415.276161 
L 405.389968 415.296491 
L 405.511726 415.462562 
L 407.946878 415.506982 
L 408.068636 415.34939 
L 408.494788 415.324585 
L 408.555666 414.255254 
L 408.616545 414.73422 
L 408.677424 414.73422 
L 408.799182 396.966754 
L 408.981818 396.966754 
L 409.103576 409.066674 
L 409.225333 388.498723 
L 409.40797 388.498723 
L 409.529728 396.214677 
L 409.590606 396.214677 
L 409.712364 393.601854 
L 409.773243 393.601854 
L 409.895 390.77529 
L 409.955879 390.77529 
L 410.199394 406.562589 
L 410.321152 397.737593 
L 410.564667 397.737593 
L 410.686425 392.266654 
L 410.747304 392.266654 
L 410.869061 413.222842 
L 410.92994 412.617289 
L 411.051698 411.086673 
L 411.295213 411.086673 
L 411.416971 410.223619 
L 411.538728 411.898201 
L 411.599607 411.898201 
L 411.660486 412.276209 
L 411.721365 409.806971 
L 411.843122 412.637066 
L 411.904001 412.510204 
L 411.96488 411.847343 
L 412.025759 399.687773 
L 412.086638 404.807731 
L 412.391032 404.807731 
L 412.512789 410.250223 
L 412.756305 410.250223 
L 412.878062 410.678863 
L 412.938941 410.678863 
L 412.99982 398.598275 
L 413.060699 406.55589 
L 413.365093 406.55589 
L 413.486851 404.642165 
L 414.03476 404.642165 
L 414.217396 415.375698 
L 414.643548 415.290208 
L 414.765306 414.655265 
L 414.887063 414.655265 
L 415.008821 407.922779 
L 415.374094 407.922779 
L 415.495851 402.238145 
L 415.617609 411.380737 
L 415.739367 411.380737 
L 415.861124 412.03545 
L 415.922003 412.03545 
L 416.043761 414.822516 
L 416.409034 414.822516 
L 416.469912 415.419791 
L 416.530791 415.379833 
L 417.017822 415.379793 
L 417.139579 414.610384 
L 417.200458 414.610384 
L 417.322216 415.048276 
L 417.443973 415.048276 
L 417.565731 415.266796 
L 417.687489 415.266796 
L 417.748368 415.415685 
L 417.870125 415.269875 
L 418.052762 415.269875 
L 418.296277 414.857892 
L 418.418035 414.857892 
L 418.66155 413.481314 
L 418.722429 413.037293 
L 418.844186 413.481314 
L 418.905065 413.481314 
L 419.026823 414.796922 
L 419.087701 414.716179 
L 419.270338 415.372015 
L 420.000884 415.464557 
L 420.122641 414.192969 
L 420.244399 414.192969 
L 420.366157 414.350633 
L 420.427035 414.350633 
L 420.487914 412.253455 
L 420.548793 412.38994 
L 421.035824 412.38994 
L 421.157581 414.162695 
L 421.21846 414.162695 
L 421.340218 414.8501 
L 421.461975 414.8501 
L 421.583733 414.115531 
L 421.766369 414.025507 
L 421.888127 412.206079 
L 422.009885 412.206079 
L 422.131642 408.629063 
L 422.2534 412.566491 
L 422.314279 412.566491 
L 422.436036 413.114237 
L 422.862188 413.114237 
L 423.044824 410.720695 
L 423.227461 410.720695 
L 423.349219 412.478092 
L 423.470976 412.503865 
L 423.592734 412.35883 
L 423.714491 413.050095 
L 424.079764 413.050095 
L 424.262401 415.042051 
L 424.32328 411.540451 
L 424.445037 414.919983 
L 424.566795 415.200959 
L 424.688552 414.763534 
L 424.749431 414.763534 
L 424.871189 415.20874 
L 424.932068 415.20874 
L 425.053825 413.712847 
L 425.175583 413.712847 
L 425.297341 415.042654 
L 425.358219 415.042654 
L 425.419098 415.502329 
L 425.479977 415.383045 
L 426.210523 415.443022 
L 426.393159 415.500773 
L 426.514917 415.517826 
L 426.575796 415.17881 
L 426.636675 415.337492 
L 427.001947 415.439897 
L 427.184584 415.446088 
L 427.549857 415.469782 
L 427.976009 415.503118 
L 428.097766 415.021777 
L 428.219524 415.021777 
L 428.523918 415.433959 
L 428.767433 415.465755 
L 432.237526 415.358564 
L 432.359283 415.041545 
L 432.663677 415.041545 
L 432.785435 415.361446 
L 432.907193 415.250737 
L 433.02895 415.485602 
L 440.76056 415.480038 
L 440.882317 415.225144 
L 442.526045 415.239549 
L 442.647803 415.438857 
L 444.230652 415.519776 
L 444.291531 415.188881 
L 444.35241 415.428466 
L 444.535046 415.470897 
L 444.717683 415.394204 
L 446.300532 415.494373 
L 446.604926 414.718528 
L 446.787562 415.17873 
L 447.091956 415.085179 
L 447.213714 415.327078 
L 447.274593 415.327078 
L 447.335472 415.073844 
L 447.396351 415.223568 
L 447.761623 415.223568 
L 447.883381 414.670281 
L 447.94426 414.670281 
L 448.066018 413.844309 
L 448.492169 413.844309 
L 448.613927 414.885952 
L 448.735684 414.885952 
L 448.796563 415.197617 
L 448.857442 415.069789 
L 448.918321 415.069789 
L 449.100957 414.571871 
L 449.161836 414.571871 
L 449.283594 415.031385 
L 449.892382 414.922348 
L 450.01414 415.482479 
L 450.135897 415.336317 
L 450.50117 415.336317 
L 450.622928 415.493284 
L 450.683807 415.204705 
L 450.744685 415.44677 
L 450.805564 415.475078 
L 450.866443 415.07409 
L 450.988201 412.871478 
L 451.049079 415.456952 
L 451.109958 414.490927 
L 451.962262 414.490927 
L 452.084019 413.185389 
L 452.449292 413.185389 
L 452.57105 414.861849 
L 452.753686 414.861849 
L 452.875444 414.568533 
L 452.997202 411.000357 
L 453.179838 411.000357 
L 453.301596 415.044929 
L 453.666869 415.044929 
L 453.788626 414.234818 
L 453.910384 414.234818 
L 454.032141 412.395803 
L 454.09302 412.395803 
L 454.214778 411.942479 
L 454.336535 412.809046 
L 454.701808 412.809046 
L 454.823566 409.894173 
L 454.884445 409.894173 
L 455.067081 412.490856 
L 455.12796 412.490856 
L 455.188839 413.261712 
L 455.310597 363.23878 
L 455.675869 363.23878 
L 455.797627 358.470825 
L 456.223779 358.470825 
L 456.345536 352.729758 
L 456.528173 352.729758 
L 456.710809 415.094043 
L 457.015203 415.094043 
L 457.076082 415.33351 
L 457.19784 412.470742 
L 457.623991 412.470742 
L 457.745749 415.133357 
L 458.23278 415.133357 
L 458.476295 415.377148 
L 458.963325 415.377148 
L 459.024204 414.886441 
L 459.145962 415.359728 
L 459.389477 415.42366 
L 459.511235 415.205145 
L 459.572114 415.205145 
L 459.693871 415.36524 
L 459.75475 415.36524 
L 459.876508 414.726794 
L 459.998265 415.403802 
L 460.120023 415.49394 
L 460.180902 415.404721 
L 460.241781 415.465708 
L 460.607053 415.384693 
L 460.972326 415.517087 
L 461.459357 415.483752 
L 463.468358 415.507166 
L 463.650994 415.335529 
L 464.564176 415.442557 
L 464.746813 415.505852 
L 467.790754 415.518145 
L 467.912511 415.380138 
L 470.04327 415.386034 
L 470.165027 415.247553 
L 472.356665 415.33282 
L 472.478422 415.486101 
L 475.948515 415.493453 
L 476.070272 415.273846 
L 476.131151 415.273846 
L 476.252909 414.621512 
L 476.679061 414.621512 
L 476.800818 414.922406 
L 477.287849 414.922406 
L 477.409606 415.078022 
L 477.957516 415.078022 
L 478.079273 414.314168 
L 478.140152 414.314168 
L 478.26191 414.618867 
L 478.444546 414.618867 
L 478.505425 414.76197 
L 478.627183 414.199117 
L 478.688062 414.199117 
L 478.809819 414.786216 
L 479.479486 414.808389 
L 479.540365 415.13913 
L 479.662123 414.809135 
L 479.966517 414.809135 
L 480.088274 414.56174 
L 480.757941 414.652487 
L 480.879699 414.385668 
L 481.305851 414.385668 
L 481.427608 415.050094 
L 481.914639 415.050094 
L 482.036396 415.405571 
L 482.097275 415.405571 
L 482.219033 415.1688 
L 482.401669 415.1688 
L 482.523427 411.948831 
L 482.645185 411.948831 
L 482.766942 413.057733 
L 483.071336 413.057733 
L 483.193094 411.797429 
L 483.497488 411.797429 
L 483.558367 414.345853 
L 483.680124 410.771034 
L 484.532428 410.771034 
L 484.654185 413.629449 
L 484.958579 413.519963 
L 485.262974 413.519963 
L 485.384731 414.753461 
L 485.628246 414.772945 
L 485.750004 415.314311 
L 486.054398 415.314311 
L 486.176156 415.475394 
L 488.185157 415.367721 
L 488.306914 415.189648 
L 488.793945 415.189648 
L 488.854824 415.392738 
L 488.915702 415.370651 
L 489.220097 415.370651 
L 489.341854 415.128583 
L 489.646248 415.057134 
L 489.828885 415.487223 
L 490.437673 415.401131 
L 490.681188 415.326527 
L 491.10734 415.409277 
L 491.229097 415.153764 
L 491.837886 415.153764 
L 491.959643 415.448308 
L 492.62931 415.518437 
L 492.811947 415.44874 
L 494.212159 415.459387 
L 494.333917 414.98774 
L 494.455675 412.572072 
L 494.577432 412.572072 
L 494.760069 415.291537 
L 495.003584 415.291537 
L 495.125342 415.444994 
L 509.06659 415.472285 
L 509.188348 414.929812 
L 509.310106 415.339942 
L 509.370984 415.339942 
L 509.492742 415.506719 
L 510.223288 415.397118 
L 511.258228 415.304521 
L 511.379985 415.01682 
L 511.440864 415.01682 
L 511.562622 415.381506 
L 511.684379 415.381506 
L 511.745258 415.268716 
L 511.867016 415.406294 
L 511.927895 415.406294 
L 512.049652 415.291775 
L 512.354046 415.523561 
L 512.475804 414.924045 
L 512.536683 414.924045 
L 512.65844 415.107728 
L 513.084592 415.107728 
L 513.20635 415.501065 
L 513.267229 415.501065 
L 513.328107 415.077666 
L 513.388986 415.132034 
L 513.449865 415.132034 
L 513.571623 415.505913 
L 513.754259 415.442444 
L 513.876017 415.117974 
L 513.936896 415.416239 
L 514.058653 413.334819 
L 514.180411 413.334819 
L 514.302168 413.170295 
L 514.423926 411.453899 
L 514.545684 412.126788 
L 514.72832 412.126788 
L 514.850078 413.527345 
L 514.971835 412.516924 
L 515.093593 413.938891 
L 515.154472 413.965049 
L 515.276229 415.201217 
L 516.615563 415.114498 
L 516.676442 413.965049 
L 516.7982 415.244969 
L 516.919957 415.244969 
L 516.980836 415.496969 
L 517.102594 414.043478 
L 517.163473 414.043478 
L 517.28523 412.593344 
L 518.746322 412.593344 
L 518.86808 414.88878 
L 518.989837 414.88878 
L 519.050716 415.065802 
L 519.111595 414.974899 
L 519.172474 414.974899 
L 519.294231 415.463733 
L 519.598625 415.082689 
L 519.903019 415.082689 
L 520.024777 415.242103 
L 520.085656 415.242103 
L 520.146535 415.511818 
L 520.207413 415.440841 
L 520.937959 415.472556 
L 521.059717 415.293039 
L 521.790263 415.290065 
L 521.91202 415.51059 
L 522.764324 415.510272 
L 522.886081 415.089638 
L 523.616627 415.159088 
L 523.677506 414.815253 
L 523.799264 415.492871 
L 524.042779 415.492871 
L 524.164536 415.338991 
L 526.295295 415.280882 
L 526.477931 415.171086 
L 526.964962 415.24603 
L 527.08672 415.385838 
L 527.817265 415.481915 
L 527.999902 415.52092 
L 529.826266 415.526955 
L 529.948024 415.376461 
L 530.435054 415.28432 
L 530.556812 415.507725 
L 531.226479 415.476936 
L 531.348237 414.617096 
L 531.835267 414.617096 
L 531.957025 415.128094 
L 532.383176 415.055774 
L 532.504934 414.159973 
L 532.626692 414.159973 
L 532.748449 414.877079 
L 532.809328 414.877079 
L 532.931086 415.35082 
L 532.991965 415.350775 
L 533.174601 414.925397 
L 533.296359 414.925397 
L 533.418116 413.865008 
L 533.478995 413.865008 
L 533.600753 413.998833 
L 533.72251 415.51902 
L 533.783389 415.51902 
L 533.905147 414.400345 
L 534.27042 414.400345 
L 534.392177 414.123368 
L 534.513935 413.018117 
L 534.635693 413.018117 
L 534.75745 413.731522 
L 534.879208 413.731522 
L 534.940087 413.166583 
L 535.061844 414.345877 
L 535.183602 413.399192 
L 535.244481 413.399192 
L 535.427117 412.852041 
L 535.609754 412.852041 
L 535.731511 415.293044 
L 535.79239 415.293044 
L 535.914148 414.017706 
L 535.975027 414.017706 
L 536.157663 415.310698 
L 536.522936 415.433338 
L 536.644694 415.433338 
L 536.705572 415.03977 
L 536.766451 415.333976 
L 536.888209 415.333976 
L 537.070845 415.506012 
L 540.114786 415.505981 
L 540.236544 415.053293 
L 540.358301 415.053293 
L 540.480059 415.324299 
L 541.332362 415.232986 
L 541.45412 414.852748 
L 541.636756 414.852748 
L 541.758514 415.065133 
L 541.94115 415.065133 
L 542.062908 414.852748 
L 542.549939 414.852748 
L 542.671696 415.460863 
L 542.97609 415.460863 
L 543.158727 415.342988 
L 543.280484 415.342988 
L 543.341363 415.506507 
L 543.463121 415.288381 
L 543.706636 415.206538 
L 543.828394 415.475505 
L 543.950151 415.48239 
L 545.776516 415.487444 
L 545.898273 415.299188 
L 546.263546 415.299188 
L 546.385304 415.462924 
L 547.11585 415.379222 
L 547.237607 415.333289 
L 547.359365 415.509671 
L 547.663759 415.523666 
L 547.785517 415.38718 
L 547.846396 415.38718 
L 547.968153 415.042232 
L 549.855396 415.010613 
L 549.977154 414.76506 
L 550.403306 414.76506 
L 550.525063 415.257123 
L 550.646821 415.257123 
L 550.768579 415.484266 
L 550.890336 415.484266 
L 551.012094 415.333269 
L 551.316488 415.355627 
L 551.438246 415.155373 
L 551.620882 415.155373 
L 551.864397 414.709622 
L 552.22967 414.709622 
L 552.351428 414.904976 
L 552.473186 414.904976 
L 552.594943 415.099226 
L 552.716701 413.811364 
L 552.960216 413.811364 
L 553.021095 408.545083 
L 553.203731 415.511508 
L 553.508125 415.421269 
L 553.751641 415.393752 
L 553.873398 414.786355 
L 554.360429 414.797324 
L 554.482186 415.29782 
L 555.151853 415.384953 
L 555.273611 415.459574 
L 555.456247 415.327741 
L 555.517126 415.361158 
L 555.578005 414.761876 
L 555.699763 415.437526 
L 556.004157 415.449953 
L 556.125914 412.687781 
L 556.186793 412.687781 
L 556.308551 414.689934 
L 557.039097 414.689934 
L 557.160854 415.515331 
L 557.282612 415.355776 
L 558.013158 415.355776 
L 558.074036 415.496714 
L 558.134915 415.448137 
L 558.256673 415.448137 
L 558.378431 415.032129 
L 558.439309 415.311995 
L 558.500188 415.100938 
L 558.804582 415.100938 
L 558.92634 412.388869 
L 559.41337 412.388869 
L 559.535128 414.603117 
L 559.596007 414.603117 
L 559.717765 412.765746 
L 561.057098 412.765746 
L 561.178856 412.585213 
L 561.48325 412.585213 
L 561.605008 411.162722 
L 562.152917 411.162722 
L 562.274675 414.603591 
L 562.579069 414.603591 
L 562.700826 415.182271 
L 563.066099 415.182271 
L 563.248736 415.471014 
L 563.370493 415.471014 
L 563.492251 415.01548 
L 563.979282 415.051059 
L 564.101039 415.179216 
L 564.222797 410.686053 
L 564.466312 410.690482 
L 564.58807 411.158935 
L 565.866525 411.158935 
L 565.988282 410.521394 
L 566.718828 410.521394 
L 566.840586 401.484578 
L 566.962344 406.103835 
L 567.205859 406.103835 
L 567.327616 414.803267 
L 567.63201 414.803267 
L 567.814647 414.688843 
L 567.875526 414.667554 
L 567.936405 413.528896 
L 568.058162 414.599934 
L 568.240799 414.696096 
L 568.362556 415.077598 
L 569.336617 415.145427 
L 569.397496 415.341467 
L 569.519254 415.069173 
L 569.762769 415.069173 
L 569.884527 415.276732 
L 569.945405 415.276732 
L 570.067163 415.086583 
L 570.128042 415.086583 
L 570.2498 414.610098 
L 570.310678 414.937129 
L 570.371557 412.735991 
L 570.432436 414.099606 
L 570.554194 415.273322 
L 571.223861 415.273322 
L 571.284739 415.476701 
L 571.345618 415.364465 
L 571.406497 415.364465 
L 571.650012 414.499485 
L 572.015285 414.499485 
L 572.137043 415.059024 
L 572.197922 415.059024 
L 572.319679 407.739709 
L 572.441437 407.739709 
L 572.502316 394.94268 
L 572.624073 410.3331 
L 573.29374 410.3331 
L 573.415498 412.974826 
L 573.84165 412.974826 
L 573.963407 412.437045 
L 574.267801 412.437045 
L 574.389559 415.306347 
L 574.511317 414.923561 
L 574.693953 414.923561 
L 574.815711 415.348625 
L 575.059226 415.348625 
L 575.180984 415.112256 
L 575.302741 415.112256 
L 575.485378 415.244774 
L 575.728893 415.244774 
L 575.850651 415.398198 
L 576.824712 415.498675 
L 577.068227 415.506605 
L 577.189984 415.364904 
L 577.250863 415.408472 
L 577.311742 415.315442 
L 577.372621 415.315442 
L 577.494379 413.370988 
L 577.555257 413.370988 
L 577.677015 409.204448 
L 577.737894 409.204448 
L 577.859651 412.250702 
L 578.224924 412.250702 
L 578.407561 414.616805 
L 578.46844 414.616805 
L 578.529318 414.432928 
L 578.590197 415.105679 
L 578.651076 414.947583 
L 578.772834 413.072481 
L 578.833712 413.072481 
L 579.016349 414.394027 
L 579.198985 412.948373 
L 579.320743 400.668102 
L 579.381622 400.668102 
L 579.503379 361.583626 
L 579.686016 361.583626 
L 579.807774 326.86815 
L 580.47744 326.86815 
L 580.599198 275.53157 
L 582.182047 275.53157 
L 582.303805 366.499132 
L 582.54732 366.499132 
L 582.669078 392.271293 
L 582.729957 392.271293 
L 582.973472 413.561572 
L 583.09523 413.561572 
L 583.156108 410.110915 
L 583.277866 414.066594 
L 583.704018 414.066594 
L 583.825775 414.977496 
L 584.069291 414.977496 
L 584.312806 414.463103 
L 584.434563 415.192039 
L 584.556321 414.769409 
L 584.6172 414.769409 
L 584.738958 415.378458 
L 585.286867 415.472183 
L 585.408624 415.474389 
L 585.469503 415.429174 
L 585.713019 414.427782 
L 586.017413 414.427782 
L 586.200049 401.383391 
L 586.869716 401.383391 
L 586.991474 415.274493 
L 587.113231 415.274493 
L 587.234989 414.424931 
L 587.478504 414.424931 
L 587.539383 415.27636 
L 587.600262 415.18753 
L 587.782898 415.203999 
L 587.904656 412.489647 
L 588.391686 412.489647 
L 588.513444 415.110232 
L 588.756959 415.268681 
L 588.878717 415.471594 
L 589.183111 415.506423 
L 589.304869 415.061828 
L 589.487505 415.061828 
L 589.609263 414.397057 
L 589.852778 414.397057 
L 589.974536 414.944063 
L 590.035414 414.17212 
L 590.157172 407.658971 
L 590.583324 407.658971 
L 590.705081 407.316863 
L 591.496506 407.316863 
L 591.557385 410.372083 
L 591.679142 405.916893 
L 592.044415 405.916893 
L 592.166173 409.623711 
L 592.531446 409.623711 
L 592.592325 413.919109 
L 592.653204 413.323936 
L 592.774961 351.216124 
L 593.444628 351.216124 
L 593.566386 362.909942 
L 593.809901 362.909942 
L 593.931659 208.000925 
L 593.992537 208.000925 
L 594.114295 251.180394 
L 594.296932 251.180394 
L 594.418689 317.262769 
L 594.662204 317.262769 
L 594.783962 344.305882 
L 595.149235 344.305882 
L 595.270993 343.308038 
L 595.575387 343.308038 
L 595.697144 344.305882 
L 595.879781 344.305882 
L 596.001538 252.308172 
L 596.245054 252.308172 
L 596.366811 124.377796 
L 596.549448 124.377796 
L 596.671205 259.465857 
L 597.036478 259.465857 
L 597.158236 248.534777 
L 597.401751 248.534777 
L 597.523509 241.422763 
L 598.619327 241.422763 
L 598.741085 262.820112 
L 598.9846 262.820112 
L 599.106358 252.742215 
L 599.410752 252.742215 
L 599.53251 301.148372 
L 599.776025 301.148372 
L 599.897783 313.164868 
L 600.810965 313.164868 
L 600.932722 372.407529 
L 600.993601 372.407529 
L 601.115359 413.695984 
L 601.176238 413.695984 
L 601.297995 409.593124 
L 601.419753 369.806363 
L 601.541511 369.806363 
L 601.663268 378.969959 
L 601.724147 378.969959 
L 601.845905 380.766661 
L 601.906783 350.321039 
L 602.028541 408.894099 
L 602.759087 408.894099 
L 602.880844 404.492428 
L 602.941723 404.492428 
L 603.002602 414.630066 
L 603.063481 409.79005 
L 603.915784 409.79005 
L 604.037542 378.018957 
L 604.1593 373.455195 
L 604.707209 373.455195 
L 604.828967 377.257058 
L 604.889845 394.179384 
L 605.011603 269.665223 
L 605.072482 269.665223 
L 605.194239 402.753056 
L 605.315997 365.28422 
L 605.376876 365.28422 
L 605.498633 236.701735 
L 605.620391 236.701735 
L 605.742149 141.646234 
L 605.863906 389.886896 
L 605.985664 383.181294 
L 606.046543 383.181294 
L 606.229179 405.582349 
L 606.472695 405.582349 
L 606.594452 409.357752 
L 606.71621 375.595169 
L 606.777089 375.595169 
L 606.898846 323.304224 
L 607.142362 323.304224 
L 607.324998 384.907892 
L 607.385877 384.907892 
L 607.507634 391.110217 
L 607.690271 391.110217 
L 607.812028 220.773223 
L 610.734212 220.773223 
L 610.855969 315.324162 
L 610.977727 315.324162 
L 611.038606 400.186494 
L 611.099484 393.616724 
L 611.586515 393.616724 
L 611.708273 391.940704 
L 611.769151 391.940704 
L 611.890909 397.858429 
L 612.134424 397.858429 
L 612.256182 398.640767 
L 612.37794 394.209138 
L 612.499697 411.532495 
L 612.621455 411.532495 
L 612.743213 413.725548 
L 612.86497 384.32317 
L 613.534637 384.32317 
L 613.656395 369.749631 
L 613.717274 369.749631 
L 613.839031 398.311865 
L 614.813092 398.311865 
L 614.93485 409.511316 
L 614.995729 409.511316 
L 615.117486 407.028431 
L 615.482759 407.028431 
L 615.604517 379.302422 
L 616.152426 379.302422 
L 616.274184 323.290907 
L 617.00473 323.290907 
L 617.126487 398.362408 
L 617.978791 398.362408 
L 618.161427 405.906974 
L 618.222306 405.906974 
L 618.344063 373.237297 
L 618.891973 373.237297 
L 619.01373 408.664975 
L 619.196367 408.664975 
L 619.318125 412.038544 
L 619.439882 412.450169 
L 619.56164 412.450169 
L 619.683397 411.582912 
L 619.805155 411.582912 
L 619.866034 412.848123 
L 619.987792 404.217737 
L 620.353064 404.217737 
L 620.413943 409.95792 
L 620.474822 408.358718 
L 620.657458 408.358718 
L 620.779216 409.176798 
L 621.692398 409.176798 
L 621.814156 413.007151 
L 622.057671 413.007151 
L 622.11855 415.255243 
L 622.240308 405.971322 
L 622.362065 405.971322 
L 622.483823 407.55301 
L 624.67546 407.55301 
L 624.797218 410.997596 
L 625.040733 410.997596 
L 625.162491 410.848443 
L 626.075673 410.848443 
L 626.197431 413.610128 
L 626.258309 413.610128 
L 626.380067 414.980573 
L 626.684461 414.980573 
L 626.867098 406.67895 
L 627.293249 406.67895 
L 627.415007 409.656606 
L 628.632583 409.656606 
L 628.754341 410.045113 
L 629.119614 410.045113 
L 629.241371 411.146862 
L 629.30225 411.146862 
L 629.424008 409.636424 
L 631.250372 409.636424 
L 631.37213 412.940065 
L 633.076737 412.940065 
L 633.198494 414.050533 
L 634.172555 414.050533 
L 634.294313 412.940065 
L 634.537828 412.940065 
L 634.659586 414.093956 
L 634.720465 414.093956 
L 634.842222 406.101363 
L 634.903101 406.101363 
L 634.96398 404.907686 
L 635.085738 409.326484 
L 635.329253 409.326484 
L 635.451011 410.554726 
L 635.572768 410.554726 
L 635.694526 412.746375 
L 636.303314 412.746375 
L 636.425072 382.893801 
L 636.546829 382.893801 
L 636.790344 405.208624 
L 637.460011 405.208624 
L 637.581769 404.543344 
L 638.251436 404.543344 
L 638.312315 415.439039 
L 638.373194 413.553908 
L 638.55583 413.553908 
L 638.677588 413.225559 
L 639.529891 413.225559 
L 639.651649 415.042429 
L 639.895164 415.042429 
L 640.016922 413.875814 
L 640.564831 413.875814 
L 640.686589 415.006107 
L 640.808346 415.006107 
L 640.930104 414.454656 
L 640.990983 415.254097 
L 641.11274 403.798374 
L 641.234498 403.798374 
L 641.356256 403.514145 
L 641.965044 403.514145 
L 642.14768 409.86392 
L 642.208559 399.412218 
L 642.330317 410.665257 
L 642.512953 410.665257 
L 642.634711 413.340548 
L 642.756468 409.278931 
L 644.400196 409.278931 
L 644.521954 412.6891 
L 644.826348 412.6891 
L 644.887227 409.897146 
L 645.008985 414.927875 
L 645.130742 414.927875 
L 645.191621 415.378588 
L 645.313379 414.411607 
L 645.435136 414.411607 
L 645.496015 415.101655 
L 645.556894 414.784433 
L 645.617773 414.784433 
L 645.73953 413.977086 
L 645.800409 413.977086 
L 645.861288 413.834479 
L 645.922167 413.934685 
L 645.983046 413.934685 
L 646.104803 412.439798 
L 646.226561 412.439798 
L 646.348318 415.251192 
L 646.591834 415.072781 
L 646.957107 415.072781 
L 647.078864 414.627557 
L 647.200622 414.627557 
L 647.32238 412.146771 
L 647.444137 412.146771 
L 647.565895 415.498543 
L 647.931168 415.369727 
L 648.235562 415.519888 
L 649.818411 415.453596 
L 650.001047 415.326097 
L 650.122805 415.326097 
L 650.244563 415.047226 
L 650.548957 415.022225 
L 650.609836 414.859569 
L 650.731593 415.43917 
L 657.06299 415.442768 
L 657.184748 415.288846 
L 657.489142 415.246347 
L 657.610899 415.401202 
L 660.046052 415.363306 
L 660.106931 415.516499 
L 660.16781 415.469128 
L 660.472204 415.42273 
L 660.593961 415.129572 
L 660.65484 415.129572 
L 660.898355 415.525138 
L 661.994174 415.483529 
L 662.055053 415.334542 
L 662.115932 415.450739 
L 662.237689 415.450739 
L 662.359447 415.295853 
L 662.907356 415.397615 
L 663.150871 415.498762 
L 663.637902 415.514684 
L 663.698781 415.339125 
L 663.75966 415.373826 
L 664.490205 415.456823 
L 664.733721 415.498391 
L 664.794599 415.498391 
L 664.855478 415.19418 
L 664.916357 415.433357 
L 665.098994 415.512715 
L 665.342509 415.500597 
L 665.464266 415.304222 
L 665.707782 415.26058 
L 665.829539 413.386112 
L 665.951297 413.386112 
L 666.073055 415.420303 
L 666.255691 415.222971 
L 666.377449 415.417621 
L 667.229752 415.355149 
L 667.35151 415.071913 
L 667.473267 415.071913 
L 667.595025 415.284569 
L 667.716783 415.284569 
L 667.899419 415.505158 
L 668.508207 415.4434 
L 668.629965 415.29337 
L 668.751722 415.29337 
L 668.812601 415.052171 
L 668.934359 415.312347 
L 668.995238 415.342031 
L 669.116995 415.133952 
L 669.847541 415.123653 
L 669.969299 415.400146 
L 670.94336 415.370954 
L 671.065117 415.517645 
L 671.795663 415.510997 
L 672.160936 415.51513 
L 672.587088 415.478937 
L 672.708845 414.611166 
L 673.134997 414.611166 
L 673.195876 415.450838 
L 673.256755 415.427947 
L 673.50027 415.391152 
L 674.230816 415.368789 
L 674.352573 415.178146 
L 674.839604 415.228415 
L 674.961362 414.087946 
L 675.448392 414.087946 
L 675.57015 415.370905 
L 675.813665 415.370905 
L 675.996301 414.929603 
L 676.361574 414.929603 
L 676.483332 414.652753 
L 676.544211 414.652753 
L 676.665968 414.985195 
L 676.726847 414.985195 
L 676.848605 415.303825 
L 676.909484 415.303825 
L 677.031241 415.137887 
L 677.274757 415.137887 
L 677.396514 415.480601 
L 677.640029 415.436325 
L 677.761787 411.995869 
L 678.492333 411.995869 
L 678.61409 415.461821 
L 678.674969 415.137165 
L 678.735848 415.399116 
L 679.162 415.399116 
L 679.222879 415.529013 
L 679.283757 415.491773 
L 679.770788 415.47043 
L 679.953424 415.383142 
L 681.353637 415.459109 
L 681.597152 415.504957 
L 684.458457 415.411708 
L 684.580214 415.272278 
L 686.3457 415.30487 
L 686.528336 415.503185 
L 687.624155 415.4929 
L 687.685034 415.078105 
L 687.745913 415.282363 
L 688.050307 415.282363 
L 688.232943 415.481883 
L 688.476459 415.438398 
L 688.659095 415.501022 
L 689.572277 415.421916 
L 689.754914 415.288935 
L 689.815792 415.288935 
L 689.93755 414.819882 
L 690.059308 407.360072 
L 690.302823 407.360072 
L 690.668096 341.617811 
L 690.728975 341.617811 
L 690.850732 400.220206 
L 691.763915 400.220206 
L 691.885672 341.617811 
L 692.250945 341.617811 
L 692.372703 342.868298 
L 692.737976 342.868298 
L 692.859733 406.330912 
L 693.04237 406.330912 
L 693.164127 404.675571 
L 693.468521 404.783695 
L 693.590279 407.892893 
L 694.016431 407.892893 
L 694.138188 408.715922 
L 694.442582 240.281738 
L 694.990492 240.281738 
L 695.112249 362.537913 
L 695.59928 362.537913 
L 695.721038 397.405957 
L 695.964553 397.405957 
L 696.08631 403.336883 
L 696.208068 396.280775 
L 696.329826 396.280775 
L 696.451583 376.029311 
L 696.938614 376.029311 
L 697.060371 400.932656 
L 697.243008 400.932656 
L 697.364766 396.280775 
L 697.547402 396.280775 
L 697.730038 408.566052 
L 698.338827 408.566052 
L 698.460584 411.038596 
L 698.7041 411.038596 
L 698.825857 413.883141 
L 698.947615 414.022515 
L 699.19113 414.022515 
L 699.312888 412.487931 
L 699.373766 412.487931 
L 699.495524 413.111525 
L 699.556403 413.111525 
L 699.678161 413.390989 
L 699.799918 412.799112 
L 700.043433 412.799112 
L 700.22607 415.024574 
L 700.347828 414.300563 
L 700.530464 414.300563 
L 700.652222 409.584128 
L 700.773979 414.136944 
L 700.834858 414.136944 
L 700.956616 411.865348 
L 701.078373 411.865348 
L 701.139252 413.953107 
L 701.200131 413.881304 
L 701.382767 413.881304 
L 701.626283 415.505716 
L 701.869798 404.908852 
L 702.478586 404.908852 
L 702.722101 397.755608 
L 702.843859 397.755608 
L 702.965617 394.888859 
L 703.026495 394.888859 
L 703.148253 408.96002 
L 703.81792 409.038554 
L 704.000556 414.858277 
L 704.244072 414.858277 
L 704.365829 415.185752 
L 704.426708 415.185752 
L 704.548466 415.364485 
L 704.609345 415.364485 
L 704.731102 415.188453 
L 704.85286 414.211268 
L 704.913739 414.211268 
L 705.035496 412.896944 
L 705.8878 412.896944 
L 706.009557 415.412829 
L 706.070436 415.412829 
L 706.192194 413.337833 
L 706.253073 413.670482 
L 706.37483 413.163178 
L 706.496588 413.163178 
L 706.618345 413.961242 
L 706.861861 413.961242 
L 706.983618 413.795906 
L 707.044497 413.795906 
L 707.105376 415.042195 
L 707.166255 414.975755 
L 707.40977 414.975755 
L 707.531528 414.337702 
L 707.592407 414.689654 
L 707.775043 411.173372 
L 707.896801 411.173372 
L 707.957679 412.361975 
L 708.018558 411.606649 
L 708.201195 411.606649 
L 708.383831 414.869924 
L 708.809983 414.869924 
L 708.93174 415.106815 
L 708.992619 415.106815 
L 709.114377 415.279823 
L 709.297013 413.690103 
L 709.47965 413.690103 
L 709.601407 412.717267 
L 710.149317 412.717267 
L 710.210196 415.114395 
L 710.331953 411.899692 
L 710.453711 411.899692 
L 710.51459 410.662691 
L 710.575468 411.438125 
L 710.879863 411.438125 
L 711.00162 412.339403 
L 711.793045 412.339403 
L 711.914802 415.061956 
L 712.462712 415.061956 
L 712.645348 415.521895 
L 712.706227 415.401153 
L 712.767106 415.454437 
L 712.949742 415.503673 
L 713.254136 415.460249 
L 713.55853 414.335356 
L 714.654349 414.335356 
L 714.776107 415.122412 
L 714.958743 413.824738 
L 715.263137 413.824738 
L 715.384895 411.656243 
L 715.445774 411.656243 
L 715.567531 413.397657 
L 715.811047 413.397657 
L 715.932804 415.267196 
L 716.237198 415.267196 
L 716.358956 414.491379 
L 716.967744 414.491379 
L 717.089502 413.082849 
L 717.393896 413.082849 
L 717.454775 414.992062 
L 717.515653 414.848576 
L 717.637411 414.848576 
L 717.759169 414.706671 
L 717.941805 414.706671 
L 718.063563 414.136785 
L 719.22026 414.136785 
L 719.402897 415.076645 
L 719.585533 415.076645 
L 719.707291 415.290472 
L 719.76817 415.290472 
L 719.950806 414.01688 
L 720.194321 414.01688 
L 720.316079 413.500828 
L 720.437837 413.500828 
L 720.498715 414.881885 
L 720.559594 413.265046 
L 720.620473 415.317573 
L 720.681352 414.744447 
L 721.168382 414.744447 
L 721.229261 414.960722 
L 721.29014 414.770364 
L 721.351019 414.770364 
L 721.411898 414.900632 
L 721.533655 414.209572 
L 721.898928 414.209572 
L 722.020686 413.440681 
L 722.081565 415.271556 
L 722.142443 414.349819 
L 722.446837 414.349819 
L 722.507716 414.969208 
L 722.568595 414.941603 
L 722.872989 414.925281 
L 722.994747 414.574461 
L 723.420898 414.574461 
L 723.542656 415.396318 
L 723.907929 415.416941 
L 724.029687 413.506527 
L 724.151444 414.355586 
L 725.308142 414.355586 
L 725.429899 412.522512 
L 725.490778 412.522512 
L 725.612536 404.572015 
L 725.673415 404.572015 
L 725.795172 411.848245 
L 725.91693 409.674642 
L 726.038688 413.73515 
L 726.221324 413.73515 
L 726.40396 412.926007 
L 726.890991 412.926007 
L 727.012749 409.030232 
L 727.134506 414.707432 
L 727.195385 414.707432 
L 727.256264 410.931023 
L 727.378021 415.033602 
L 727.499779 415.033602 
L 727.621537 411.792329 
L 727.743294 412.929002 
L 728.291204 412.929002 
L 728.352082 414.370727 
L 728.47384 412.838224 
L 728.595598 412.838224 
L 728.778234 415.232135 
L 729.265265 415.232135 
L 729.387022 413.896204 
L 729.447901 413.896204 
L 729.569659 413.433206 
L 729.752295 413.527345 
L 730.056689 413.527345 
L 730.178447 410.261985 
L 730.726356 410.261985 
L 730.848114 409.466293 
L 731.03075 409.466293 
L 731.091629 410.261985 
L 731.213387 414.338313 
L 731.274266 414.338313 
L 731.396023 412.076596 
L 731.517781 412.076596 
L 731.639538 406.969114 
L 731.761296 412.930806 
L 732.004811 412.930806 
L 732.126569 409.10619 
L 732.248327 412.691174 
L 732.6136 412.691174 
L 732.735357 415.102758 
L 732.796236 415.102758 
L 732.917994 414.642561 
L 733.039751 414.642561 
L 733.161509 414.462895 
L 733.222388 414.462895 
L 733.344145 414.956582 
L 733.526782 414.956582 
L 733.648539 415.307593 
L 734.074691 415.314741 
L 734.196449 415.495059 
L 734.379085 415.495059 
L 734.561722 414.891938 
L 734.683479 408.292923 
L 734.744358 408.292923 
L 734.805237 413.380017 
L 734.926995 400.539437 
L 735.17051 400.539437 
L 735.231389 398.015659 
L 735.353146 412.78979 
L 735.65754 412.78979 
L 735.779298 413.880701 
L 735.901056 409.901763 
L 736.022813 409.901763 
L 736.144571 413.901774 
L 736.266328 411.977471 
L 736.631601 411.977471 
L 736.753359 411.664119 
L 736.814238 411.664119 
L 736.935995 408.581566 
L 736.996874 408.581566 
L 737.118632 393.067315 
L 737.544784 393.067315 
L 737.666541 408.91563 
L 737.910056 408.91563 
L 738.031814 408.352368 
L 738.214451 408.352368 
L 738.336208 406.486611 
L 738.518845 406.486611 
L 738.640602 400.321117 
L 738.76236 400.321117 
L 738.884118 399.711978 
L 739.127633 399.711978 
L 739.188512 347.144988 
L 739.310269 415.236522 
L 739.492906 415.013282 
L 739.675542 415.013282 
L 739.7973 414.313911 
L 739.858179 414.313911 
L 739.979936 415.153959 
L 740.040815 415.153959 
L 740.162573 415.441617 
L 740.345209 415.205249 
L 740.710482 415.175651 
L 740.83224 415.390739 
L 741.380149 415.405808 
L 741.501907 414.808279 
L 741.562785 415.386868 
L 741.623664 415.2179 
L 741.806301 415.2179 
L 741.988937 414.815752 
L 742.293331 414.815752 
L 742.415089 415.281502 
L 742.780362 415.261815 
L 742.902119 414.920705 
L 742.962998 415.180798 
L 743.084756 414.808814 
L 743.328271 414.850981 
L 743.632665 414.850981 
L 743.815302 405.737917 
L 744.119696 405.737917 
L 744.180574 414.862672 
L 744.241453 412.528289 
L 744.42409 412.528289 
L 744.545847 413.158806 
L 744.667605 413.158806 
L 744.850241 395.383569 
L 744.91112 395.383569 
L 745.032878 407.437244 
L 745.276393 407.437244 
L 745.398151 414.789338 
L 745.519908 413.713902 
L 745.580787 413.713902 
L 745.702545 414.428371 
L 746.006939 414.428371 
L 746.128697 415.41793 
L 746.250454 415.41793 
L 746.372212 415.129194 
L 746.433091 415.210789 
L 746.554848 415.210789 
L 746.676606 414.363665 
L 746.859242 414.363665 
L 746.981 414.917906 
L 747.163636 414.917906 
L 747.163636 414.917906 
" clip-path="url(#p1d1d56e2dc)" style="fill: none; stroke: #4c72b0; stroke-width: 2; stroke-linecap: round"/>
   </g>
   <g id="patch_3">
    <path d="M 108 432.54 
L 108 58.32 
" style="fill: none; stroke: #000000; stroke-linejoin: miter; stroke-linecap: square"/>
   </g>
   <g id="patch_4">
    <path d="M 777.6 432.54 
L 777.6 58.32 
" style="fill: none; stroke: #000000; stroke-linejoin: miter; stroke-linecap: square"/>
   </g>
   <g id="patch_5">
    <path d="M 108 432.54 
L 777.6 432.54 
" style="fill: none; stroke: #000000; stroke-linejoin: miter; stroke-linecap: square"/>
   </g>
   <g id="patch_6">
    <path d="M 108 58.32 
L 777.6 58.32 
" style="fill: none; stroke: #000000; stroke-linejoin: miter; stroke-linecap: square"/>
   </g>
   <g id="legend_1">
    <g id="patch_7">
     <path d="M 691.366018 89.032028 
L 767.8 89.032028 
Q 770.6 89.032028 770.6 86.232028 
L 770.6 68.12 
Q 770.6 65.32 767.8 65.32 
L 691.366018 65.32 
Q 688.566018 65.32 688.566018 68.12 
L 688.566018 86.232028 
Q 688.566018 89.032028 691.366018 89.032028 
z
" style="fill: #ffffff; opacity: 0.8; stroke: #cccccc; stroke-width: 0.8; stroke-linejoin: miter"/>
    </g>
    <g id="line2d_38">
     <path d="M 694.166018 75.82 
L 708.166018 75.82 
L 722.166018 75.82 
" style="fill: none; stroke: #4c72b0; stroke-width: 2; stroke-linecap: round"/>
    </g>
    <g id="text_16">
     <!-- $j = 3$ -->
     <g style="fill: #262626" transform="translate(733.366018 80.72) scale(0.14 -0.14)">
      <defs>
       <path id="CMR17-3d" d="M 4115 2048 
C 4211 2048 4307 2048 4307 2156 
C 4307 2272 4198 2272 4090 2272 
L 512 2272 
C 403 2272 294 2272 294 2156 
C 294 2048 390 2048 486 2048 
L 4115 2048 
z
M 4090 927 
C 4198 927 4307 927 4307 1043 
C 4307 1152 4211 1152 4115 1152 
L 486 1152 
C 390 1152 294 1152 294 1043 
C 294 927 403 927 512 927 
L 4090 927 
z
" transform="scale(0.015625)"/>
       <path id="CMR17-33" d="M 1414 2176 
C 1984 2176 2234 1673 2234 1094 
C 2234 322 1824 25 1453 25 
C 1114 25 563 193 390 691 
C 422 678 454 678 486 678 
C 640 678 755 780 755 947 
C 755 1132 614 1216 486 1216 
C 378 1216 211 1164 211 927 
C 211 335 787 -128 1466 -128 
C 2176 -128 2720 432 2720 1087 
C 2720 1718 2208 2176 1600 2246 
C 2086 2347 2554 2776 2554 3353 
C 2554 3856 2048 4224 1472 4224 
C 890 4224 378 3862 378 3347 
C 378 3123 544 3084 627 3084 
C 762 3084 877 3167 877 3334 
C 877 3500 762 3584 627 3584 
C 602 3584 570 3584 544 3571 
C 730 3999 1235 4076 1459 4076 
C 1683 4076 2106 3966 2106 3347 
C 2106 3167 2080 2851 1862 2574 
C 1670 2329 1453 2316 1242 2297 
C 1210 2297 1062 2284 1037 2284 
C 992 2278 966 2272 966 2227 
C 966 2182 973 2176 1101 2176 
L 1414 2176 
z
" transform="scale(0.015625)"/>
      </defs>
      <use xlink:href="#CMMI12-6a" transform="scale(0.996264)"/>
      <use xlink:href="#CMR17-3d" transform="translate(73.636491 0) scale(0.996264)"/>
      <use xlink:href="#CMR17-33" transform="translate(173.025288 0) scale(0.996264)"/>
     </g>
    </g>
   </g>
  </g>
 </g>
 <defs>
  <clipPath id="p1d1d56e2dc">
   <rect x="108" y="58.32" width="669.6" height="374.22"/>
  </clipPath>
 </defs>
</svg>
