<?xml version="1.0" encoding="utf-8" standalone="no"?>
<!DOCTYPE svg PUBLIC "-//W3C//DTD SVG 1.1//EN"
  "http://www.w3.org/Graphics/SVG/1.1/DTD/svg11.dtd">
<svg xmlns:xlink="http://www.w3.org/1999/xlink" width="864pt" height="486pt" viewBox="0 0 864 486" xmlns="http://www.w3.org/2000/svg" version="1.1">
 <metadata>
  <rdf:RDF xmlns:dc="http://purl.org/dc/elements/1.1/" xmlns:cc="http://creativecommons.org/ns#" xmlns:rdf="http://www.w3.org/1999/02/22-rdf-syntax-ns#">
   <cc:Work>
    <dc:type rdf:resource="http://purl.org/dc/dcmitype/StillImage"/>
    <dc:date>2023-01-19T23:27:31.617833</dc:date>
    <dc:format>image/svg+xml</dc:format>
    <dc:creator>
     <cc:Agent>
      <dc:title>Matplotlib v3.6.2, https://matplotlib.org/</dc:title>
     </cc:Agent>
    </dc:creator>
   </cc:Work>
  </rdf:RDF>
 </metadata>
 <defs>
  <style type="text/css">*{stroke-linejoin: round; stroke-linecap: butt}</style>
 </defs>
 <g id="figure_1">
  <g id="patch_1">
   <path d="M 0 486 
L 864 486 
L 864 0 
L 0 0 
z
" style="fill: #ffffff"/>
  </g>
  <g id="axes_1">
   <g id="patch_2">
    <path d="M 108 432.54 
L 777.6 432.54 
L 777.6 58.32 
L 108 58.32 
z
" style="fill: #ffffff"/>
   </g>
   <g id="matplotlib.axis_1">
    <g id="xtick_1">
     <g id="line2d_1">
      <path d="M 138.375485 432.54 
L 138.375485 58.32 
" clip-path="url(#p1cdec419bc)" style="fill: none; stroke: #e6e6e6; stroke-width: 0.8; stroke-linecap: round"/>
     </g>
     <g id="line2d_2">
      <defs>
       <path id="mdc3f02b9d3" d="M 0 0 
L 0 -4.8 
" style="stroke: #262626"/>
      </defs>
      <g>
       <use xlink:href="#mdc3f02b9d3" x="138.375485" y="432.54" style="fill: #262626; stroke: #262626"/>
      </g>
     </g>
     <g id="line2d_3">
      <defs>
       <path id="m48a59457c4" d="M 0 0 
L 0 4.8 
" style="stroke: #262626"/>
      </defs>
      <g>
       <use xlink:href="#m48a59457c4" x="138.375485" y="58.32" style="fill: #262626; stroke: #262626"/>
      </g>
     </g>
     <g id="text_1">
      <!-- $\mathdefault{0}$ -->
      <g style="fill: #262626" transform="translate(135.156348 445.172395) scale(0.132 -0.132)">
       <defs>
        <path id="CMR17-30" d="M 2688 2038 
C 2688 2430 2682 3099 2413 3613 
C 2176 4063 1798 4224 1466 4224 
C 1158 4224 768 4082 525 3620 
C 269 3137 243 2539 243 2038 
C 243 1671 250 1112 448 623 
C 723 -39 1216 -128 1466 -128 
C 1760 -128 2208 -7 2470 604 
C 2662 1048 2688 1568 2688 2038 
z
M 1466 -26 
C 1056 -26 813 328 723 816 
C 653 1196 653 1749 653 2109 
C 653 2604 653 3015 736 3407 
C 858 3954 1216 4121 1466 4121 
C 1728 4121 2067 3947 2189 3420 
C 2272 3054 2278 2623 2278 2109 
C 2278 1691 2278 1176 2202 797 
C 2067 96 1690 -26 1466 -26 
z
" transform="scale(0.015625)"/>
       </defs>
       <use xlink:href="#CMR17-30" transform="scale(0.996264)"/>
      </g>
     </g>
    </g>
    <g id="xtick_2">
     <g id="line2d_4">
      <path d="M 260.133115 432.54 
L 260.133115 58.32 
" clip-path="url(#p1cdec419bc)" style="fill: none; stroke: #e6e6e6; stroke-width: 0.8; stroke-linecap: round"/>
     </g>
     <g id="line2d_5">
      <g>
       <use xlink:href="#mdc3f02b9d3" x="260.133115" y="432.54" style="fill: #262626; stroke: #262626"/>
      </g>
     </g>
     <g id="line2d_6">
      <g>
       <use xlink:href="#m48a59457c4" x="260.133115" y="58.32" style="fill: #262626; stroke: #262626"/>
      </g>
     </g>
     <g id="text_2">
      <!-- $\mathdefault{2000}$ -->
      <g style="fill: #262626" transform="translate(247.256567 445.172395) scale(0.132 -0.132)">
       <defs>
        <path id="CMR17-32" d="M 2669 990 
L 2554 990 
C 2490 537 2438 460 2413 422 
C 2381 371 1920 371 1830 371 
L 602 371 
C 832 620 1280 1073 1824 1596 
C 2214 1966 2669 2400 2669 3033 
C 2669 3788 2067 4224 1395 4224 
C 691 4224 262 3603 262 3027 
C 262 2777 448 2745 525 2745 
C 589 2745 781 2783 781 3007 
C 781 3206 614 3264 525 3264 
C 486 3264 448 3257 422 3244 
C 544 3788 915 4057 1306 4057 
C 1862 4057 2227 3616 2227 3033 
C 2227 2477 1901 1998 1536 1583 
L 262 147 
L 262 0 
L 2515 0 
L 2669 990 
z
" transform="scale(0.015625)"/>
       </defs>
       <use xlink:href="#CMR17-32" transform="scale(0.996264)"/>
       <use xlink:href="#CMR17-30" transform="translate(45.690477 0) scale(0.996264)"/>
       <use xlink:href="#CMR17-30" transform="translate(91.380954 0) scale(0.996264)"/>
       <use xlink:href="#CMR17-30" transform="translate(137.071431 0) scale(0.996264)"/>
      </g>
     </g>
    </g>
    <g id="xtick_3">
     <g id="line2d_7">
      <path d="M 381.890745 432.54 
L 381.890745 58.32 
" clip-path="url(#p1cdec419bc)" style="fill: none; stroke: #e6e6e6; stroke-width: 0.8; stroke-linecap: round"/>
     </g>
     <g id="line2d_8">
      <g>
       <use xlink:href="#mdc3f02b9d3" x="381.890745" y="432.54" style="fill: #262626; stroke: #262626"/>
      </g>
     </g>
     <g id="line2d_9">
      <g>
       <use xlink:href="#m48a59457c4" x="381.890745" y="58.32" style="fill: #262626; stroke: #262626"/>
      </g>
     </g>
     <g id="text_3">
      <!-- $\mathdefault{4000}$ -->
      <g style="fill: #262626" transform="translate(369.014197 445.172395) scale(0.132 -0.132)">
       <defs>
        <path id="CMR17-34" d="M 2150 4147 
C 2150 4281 2144 4288 2029 4288 
L 128 1254 
L 128 1088 
L 1779 1088 
L 1779 460 
C 1779 230 1766 166 1318 166 
L 1197 166 
L 1197 0 
C 1402 12 1747 12 1965 12 
C 2182 12 2528 12 2733 0 
L 2733 166 
L 2611 166 
C 2163 166 2150 230 2150 460 
L 2150 1088 
L 2803 1088 
L 2803 1254 
L 2150 1254 
L 2150 4147 
z
M 1798 3723 
L 1798 1254 
L 256 1254 
L 1798 3723 
z
" transform="scale(0.015625)"/>
       </defs>
       <use xlink:href="#CMR17-34" transform="scale(0.996264)"/>
       <use xlink:href="#CMR17-30" transform="translate(45.690477 0) scale(0.996264)"/>
       <use xlink:href="#CMR17-30" transform="translate(91.380954 0) scale(0.996264)"/>
       <use xlink:href="#CMR17-30" transform="translate(137.071431 0) scale(0.996264)"/>
      </g>
     </g>
    </g>
    <g id="xtick_4">
     <g id="line2d_10">
      <path d="M 503.648376 432.54 
L 503.648376 58.32 
" clip-path="url(#p1cdec419bc)" style="fill: none; stroke: #e6e6e6; stroke-width: 0.8; stroke-linecap: round"/>
     </g>
     <g id="line2d_11">
      <g>
       <use xlink:href="#mdc3f02b9d3" x="503.648376" y="432.54" style="fill: #262626; stroke: #262626"/>
      </g>
     </g>
     <g id="line2d_12">
      <g>
       <use xlink:href="#m48a59457c4" x="503.648376" y="58.32" style="fill: #262626; stroke: #262626"/>
      </g>
     </g>
     <g id="text_4">
      <!-- $\mathdefault{6000}$ -->
      <g style="fill: #262626" transform="translate(490.771828 445.172395) scale(0.132 -0.132)">
       <defs>
        <path id="CMR17-36" d="M 678 2198 
C 678 3712 1395 4076 1811 4076 
C 1946 4076 2272 4049 2400 3782 
C 2298 3782 2106 3782 2106 3558 
C 2106 3385 2246 3328 2336 3328 
C 2394 3328 2566 3353 2566 3571 
C 2566 3987 2246 4224 1805 4224 
C 1043 4224 243 3411 243 2011 
C 243 257 966 -128 1478 -128 
C 2099 -128 2688 431 2688 1295 
C 2688 2101 2170 2688 1517 2688 
C 1126 2688 838 2430 678 1979 
L 678 2198 
z
M 1478 25 
C 691 25 691 1212 691 1450 
C 691 1914 909 2585 1504 2585 
C 1613 2585 1926 2585 2138 2140 
C 2253 1889 2253 1624 2253 1302 
C 2253 954 2253 696 2118 438 
C 1978 173 1773 25 1478 25 
z
" transform="scale(0.015625)"/>
       </defs>
       <use xlink:href="#CMR17-36" transform="scale(0.996264)"/>
       <use xlink:href="#CMR17-30" transform="translate(45.690477 0) scale(0.996264)"/>
       <use xlink:href="#CMR17-30" transform="translate(91.380954 0) scale(0.996264)"/>
       <use xlink:href="#CMR17-30" transform="translate(137.071431 0) scale(0.996264)"/>
      </g>
     </g>
    </g>
    <g id="xtick_5">
     <g id="line2d_13">
      <path d="M 625.406006 432.54 
L 625.406006 58.32 
" clip-path="url(#p1cdec419bc)" style="fill: none; stroke: #e6e6e6; stroke-width: 0.8; stroke-linecap: round"/>
     </g>
     <g id="line2d_14">
      <g>
       <use xlink:href="#mdc3f02b9d3" x="625.406006" y="432.54" style="fill: #262626; stroke: #262626"/>
      </g>
     </g>
     <g id="line2d_15">
      <g>
       <use xlink:href="#m48a59457c4" x="625.406006" y="58.32" style="fill: #262626; stroke: #262626"/>
      </g>
     </g>
     <g id="text_5">
      <!-- $\mathdefault{8000}$ -->
      <g style="fill: #262626" transform="translate(612.529458 445.172395) scale(0.132 -0.132)">
       <defs>
        <path id="CMR17-38" d="M 1741 2289 
C 2144 2494 2554 2803 2554 3298 
C 2554 3884 1990 4224 1472 4224 
C 890 4224 378 3800 378 3215 
C 378 3054 416 2777 666 2533 
C 730 2469 998 2276 1171 2154 
C 883 2006 211 1652 211 945 
C 211 282 838 -128 1459 -128 
C 2144 -128 2720 366 2720 1022 
C 2720 1607 2330 1877 2074 2051 
L 1741 2289 
z
M 902 2855 
C 851 2887 595 3086 595 3388 
C 595 3781 998 4076 1459 4076 
C 1965 4076 2336 3716 2336 3298 
C 2336 2700 1670 2359 1638 2359 
C 1632 2359 1626 2359 1574 2398 
L 902 2855 
z
M 2080 1536 
C 2176 1466 2483 1253 2483 861 
C 2483 385 2010 25 1472 25 
C 890 25 448 443 448 951 
C 448 1459 838 1884 1280 2083 
L 2080 1536 
z
" transform="scale(0.015625)"/>
       </defs>
       <use xlink:href="#CMR17-38" transform="scale(0.996264)"/>
       <use xlink:href="#CMR17-30" transform="translate(45.690477 0) scale(0.996264)"/>
       <use xlink:href="#CMR17-30" transform="translate(91.380954 0) scale(0.996264)"/>
       <use xlink:href="#CMR17-30" transform="translate(137.071431 0) scale(0.996264)"/>
      </g>
     </g>
    </g>
    <g id="xtick_6">
     <g id="line2d_16">
      <path d="M 747.163636 432.54 
L 747.163636 58.32 
" clip-path="url(#p1cdec419bc)" style="fill: none; stroke: #e6e6e6; stroke-width: 0.8; stroke-linecap: round"/>
     </g>
     <g id="line2d_17">
      <g>
       <use xlink:href="#mdc3f02b9d3" x="747.163636" y="432.54" style="fill: #262626; stroke: #262626"/>
      </g>
     </g>
     <g id="line2d_18">
      <g>
       <use xlink:href="#m48a59457c4" x="747.163636" y="58.32" style="fill: #262626; stroke: #262626"/>
      </g>
     </g>
     <g id="text_6">
      <!-- $\mathdefault{10000}$ -->
      <g style="fill: #262626" transform="translate(731.067951 445.172395) scale(0.132 -0.132)">
       <defs>
        <path id="CMR17-31" d="M 1702 4083 
C 1702 4217 1696 4224 1606 4224 
C 1357 3927 979 3833 621 3820 
C 602 3820 570 3820 563 3808 
C 557 3795 557 3782 557 3648 
C 755 3648 1088 3686 1344 3839 
L 1344 467 
C 1344 243 1331 166 781 166 
L 589 166 
L 589 0 
C 896 6 1216 12 1523 12 
C 1830 12 2150 6 2458 0 
L 2458 166 
L 2266 166 
C 1715 166 1702 236 1702 467 
L 1702 4083 
z
" transform="scale(0.015625)"/>
       </defs>
       <use xlink:href="#CMR17-31" transform="scale(0.996264)"/>
       <use xlink:href="#CMR17-30" transform="translate(45.690477 0) scale(0.996264)"/>
       <use xlink:href="#CMR17-30" transform="translate(91.380954 0) scale(0.996264)"/>
       <use xlink:href="#CMR17-30" transform="translate(137.071431 0) scale(0.996264)"/>
       <use xlink:href="#CMR17-30" transform="translate(182.761908 0) scale(0.996264)"/>
      </g>
     </g>
    </g>
    <g id="text_7">
     <!-- $s$ -->
     <g style="fill: #262626" transform="translate(439.491598 461.692081) scale(0.144 -0.144)">
      <defs>
       <path id="CMMI12-73" d="M 1459 1290 
C 1568 1271 1741 1233 1779 1227 
C 1862 1201 2150 1099 2150 793 
C 2150 595 1971 64 1229 64 
C 1094 64 614 83 486 447 
C 742 414 870 614 870 755 
C 870 889 781 960 653 960 
C 512 960 326 851 326 563 
C 326 176 710 -64 1222 -64 
C 2195 -64 2483 665 2483 998 
C 2483 1093 2483 1271 2278 1475 
C 2118 1627 1965 1659 1619 1729 
C 1446 1767 1171 1824 1171 2111 
C 1171 2239 1286 2687 1894 2687 
C 2163 2687 2426 2589 2490 2368 
C 2208 2368 2195 2124 2195 2118 
C 2195 1983 2317 1945 2374 1945 
C 2464 1945 2643 2015 2643 2284 
C 2643 2546 2400 2816 1901 2816 
C 1062 2816 838 2169 838 1907 
C 838 1424 1312 1322 1459 1290 
z
" transform="scale(0.015625)"/>
      </defs>
      <use xlink:href="#CMMI12-73" transform="scale(0.996264)"/>
     </g>
    </g>
   </g>
   <g id="matplotlib.axis_2">
    <g id="ytick_1">
     <g id="line2d_19">
      <path d="M 108 415.530375 
L 777.6 415.530375 
" clip-path="url(#p1cdec419bc)" style="fill: none; stroke: #e6e6e6; stroke-width: 0.8; stroke-linecap: round"/>
     </g>
     <g id="line2d_20">
      <defs>
       <path id="mce36393dea" d="M 0 0 
L 4.8 0 
" style="stroke: #262626"/>
      </defs>
      <g>
       <use xlink:href="#mce36393dea" x="108" y="415.530375" style="fill: #262626; stroke: #262626"/>
      </g>
     </g>
     <g id="line2d_21">
      <defs>
       <path id="m6836459f2b" d="M 0 0 
L -4.8 0 
" style="stroke: #262626"/>
      </defs>
      <g>
       <use xlink:href="#m6836459f2b" x="777.6" y="415.530375" style="fill: #262626; stroke: #262626"/>
      </g>
     </g>
     <g id="text_8">
      <!-- $\mathdefault{0}$ -->
      <g style="fill: #262626" transform="translate(98.061726 420.096572) scale(0.132 -0.132)">
       <use xlink:href="#CMR17-30" transform="scale(0.996264)"/>
      </g>
     </g>
    </g>
    <g id="ytick_2">
     <g id="line2d_22">
      <path d="M 108 356.068104 
L 777.6 356.068104 
" clip-path="url(#p1cdec419bc)" style="fill: none; stroke: #e6e6e6; stroke-width: 0.8; stroke-linecap: round"/>
     </g>
     <g id="line2d_23">
      <g>
       <use xlink:href="#mce36393dea" x="108" y="356.068104" style="fill: #262626; stroke: #262626"/>
      </g>
     </g>
     <g id="line2d_24">
      <g>
       <use xlink:href="#m6836459f2b" x="777.6" y="356.068104" style="fill: #262626; stroke: #262626"/>
      </g>
     </g>
     <g id="text_9">
      <!-- $\mathdefault{1}$ -->
      <g style="fill: #262626" transform="translate(98.061726 360.634302) scale(0.132 -0.132)">
       <use xlink:href="#CMR17-31" transform="scale(0.996264)"/>
      </g>
     </g>
    </g>
    <g id="ytick_3">
     <g id="line2d_25">
      <path d="M 108 296.605834 
L 777.6 296.605834 
" clip-path="url(#p1cdec419bc)" style="fill: none; stroke: #e6e6e6; stroke-width: 0.8; stroke-linecap: round"/>
     </g>
     <g id="line2d_26">
      <g>
       <use xlink:href="#mce36393dea" x="108" y="296.605834" style="fill: #262626; stroke: #262626"/>
      </g>
     </g>
     <g id="line2d_27">
      <g>
       <use xlink:href="#m6836459f2b" x="777.6" y="296.605834" style="fill: #262626; stroke: #262626"/>
      </g>
     </g>
     <g id="text_10">
      <!-- $\mathdefault{2}$ -->
      <g style="fill: #262626" transform="translate(98.061726 301.172031) scale(0.132 -0.132)">
       <use xlink:href="#CMR17-32" transform="scale(0.996264)"/>
      </g>
     </g>
    </g>
    <g id="ytick_4">
     <g id="line2d_28">
      <path d="M 108 237.143564 
L 777.6 237.143564 
" clip-path="url(#p1cdec419bc)" style="fill: none; stroke: #e6e6e6; stroke-width: 0.8; stroke-linecap: round"/>
     </g>
     <g id="line2d_29">
      <g>
       <use xlink:href="#mce36393dea" x="108" y="237.143564" style="fill: #262626; stroke: #262626"/>
      </g>
     </g>
     <g id="line2d_30">
      <g>
       <use xlink:href="#m6836459f2b" x="777.6" y="237.143564" style="fill: #262626; stroke: #262626"/>
      </g>
     </g>
     <g id="text_11">
      <!-- $\mathdefault{3}$ -->
      <g style="fill: #262626" transform="translate(98.061726 241.709761) scale(0.132 -0.132)">
       <defs>
        <path id="CMR17-33" d="M 1414 2176 
C 1984 2176 2234 1673 2234 1094 
C 2234 322 1824 25 1453 25 
C 1114 25 563 193 390 691 
C 422 678 454 678 486 678 
C 640 678 755 780 755 947 
C 755 1132 614 1216 486 1216 
C 378 1216 211 1164 211 927 
C 211 335 787 -128 1466 -128 
C 2176 -128 2720 432 2720 1087 
C 2720 1718 2208 2176 1600 2246 
C 2086 2347 2554 2776 2554 3353 
C 2554 3856 2048 4224 1472 4224 
C 890 4224 378 3862 378 3347 
C 378 3123 544 3084 627 3084 
C 762 3084 877 3167 877 3334 
C 877 3500 762 3584 627 3584 
C 602 3584 570 3584 544 3571 
C 730 3999 1235 4076 1459 4076 
C 1683 4076 2106 3966 2106 3347 
C 2106 3167 2080 2851 1862 2574 
C 1670 2329 1453 2316 1242 2297 
C 1210 2297 1062 2284 1037 2284 
C 992 2278 966 2272 966 2227 
C 966 2182 973 2176 1101 2176 
L 1414 2176 
z
" transform="scale(0.015625)"/>
       </defs>
       <use xlink:href="#CMR17-33" transform="scale(0.996264)"/>
      </g>
     </g>
    </g>
    <g id="ytick_5">
     <g id="line2d_31">
      <path d="M 108 177.681293 
L 777.6 177.681293 
" clip-path="url(#p1cdec419bc)" style="fill: none; stroke: #e6e6e6; stroke-width: 0.8; stroke-linecap: round"/>
     </g>
     <g id="line2d_32">
      <g>
       <use xlink:href="#mce36393dea" x="108" y="177.681293" style="fill: #262626; stroke: #262626"/>
      </g>
     </g>
     <g id="line2d_33">
      <g>
       <use xlink:href="#m6836459f2b" x="777.6" y="177.681293" style="fill: #262626; stroke: #262626"/>
      </g>
     </g>
     <g id="text_12">
      <!-- $\mathdefault{4}$ -->
      <g style="fill: #262626" transform="translate(98.061726 182.247491) scale(0.132 -0.132)">
       <use xlink:href="#CMR17-34" transform="scale(0.996264)"/>
      </g>
     </g>
    </g>
    <g id="ytick_6">
     <g id="line2d_34">
      <path d="M 108 118.219023 
L 777.6 118.219023 
" clip-path="url(#p1cdec419bc)" style="fill: none; stroke: #e6e6e6; stroke-width: 0.8; stroke-linecap: round"/>
     </g>
     <g id="line2d_35">
      <g>
       <use xlink:href="#mce36393dea" x="108" y="118.219023" style="fill: #262626; stroke: #262626"/>
      </g>
     </g>
     <g id="line2d_36">
      <g>
       <use xlink:href="#m6836459f2b" x="777.6" y="118.219023" style="fill: #262626; stroke: #262626"/>
      </g>
     </g>
     <g id="text_13">
      <!-- $\mathdefault{5}$ -->
      <g style="fill: #262626" transform="translate(98.061726 122.78522) scale(0.132 -0.132)">
       <defs>
        <path id="CMR17-35" d="M 730 3750 
C 794 3724 1056 3641 1325 3641 
C 1920 3641 2246 3961 2432 4140 
C 2432 4191 2432 4224 2394 4224 
C 2387 4224 2374 4224 2323 4198 
C 2099 4102 1837 4032 1517 4032 
C 1325 4032 1037 4055 723 4191 
C 653 4224 640 4224 634 4224 
C 602 4224 595 4217 595 4090 
L 595 2231 
C 595 2113 595 2080 659 2080 
C 691 2080 704 2093 736 2139 
C 941 2435 1222 2560 1542 2560 
C 1766 2560 2246 2415 2246 1293 
C 2246 1087 2246 716 2054 422 
C 1894 159 1645 25 1370 25 
C 947 25 518 319 403 812 
C 429 806 480 793 506 793 
C 589 793 749 838 749 1036 
C 749 1209 627 1280 506 1280 
C 358 1280 262 1190 262 1011 
C 262 454 704 -128 1382 -128 
C 2042 -128 2669 441 2669 1267 
C 2669 2054 2170 2662 1549 2662 
C 1222 2662 947 2540 730 2304 
L 730 3750 
z
" transform="scale(0.015625)"/>
       </defs>
       <use xlink:href="#CMR17-35" transform="scale(0.996264)"/>
      </g>
     </g>
    </g>
    <g id="ytick_7">
     <g id="line2d_37">
      <path d="M 108 58.756752 
L 777.6 58.756752 
" clip-path="url(#p1cdec419bc)" style="fill: none; stroke: #e6e6e6; stroke-width: 0.8; stroke-linecap: round"/>
     </g>
     <g id="line2d_38">
      <g>
       <use xlink:href="#mce36393dea" x="108" y="58.756752" style="fill: #262626; stroke: #262626"/>
      </g>
     </g>
     <g id="line2d_39">
      <g>
       <use xlink:href="#m6836459f2b" x="777.6" y="58.756752" style="fill: #262626; stroke: #262626"/>
      </g>
     </g>
     <g id="text_14">
      <!-- $\mathdefault{6}$ -->
      <g style="fill: #262626" transform="translate(98.061726 63.32295) scale(0.132 -0.132)">
       <use xlink:href="#CMR17-36" transform="scale(0.996264)"/>
      </g>
     </g>
    </g>
    <g id="text_15">
     <!-- $W^2 \left(j, [i_n]_s \right)$ -->
     <g style="fill: #262626" transform="translate(90.475169 280.621092) rotate(-90) scale(0.144 -0.144)">
      <defs>
       <path id="CMMI12-57" d="M 5779 3644 
C 5926 3892 6067 4127 6451 4166 
C 6509 4172 6566 4179 6566 4281 
C 6566 4352 6509 4352 6490 4352 
C 6477 4352 6432 4339 6010 4339 
C 5818 4339 5619 4352 5434 4352 
C 5395 4352 5318 4352 5318 4230 
C 5318 4172 5370 4166 5408 4166 
C 5536 4159 5741 4121 5741 3924 
C 5741 3841 5715 3797 5651 3689 
L 3904 648 
L 3674 3962 
C 3674 4038 3744 4159 4102 4166 
C 4186 4166 4250 4166 4250 4287 
C 4250 4352 4186 4352 4154 4352 
C 3930 4352 3693 4339 3462 4339 
L 3130 4339 
C 3034 4339 2918 4352 2822 4352 
C 2784 4352 2707 4352 2707 4230 
C 2707 4166 2752 4166 2861 4166 
C 3155 4166 3155 4159 3181 3771 
L 3200 3542 
L 1542 648 
L 1306 3930 
C 1306 4000 1306 4159 1741 4166 
C 1811 4166 1882 4166 1882 4281 
C 1882 4352 1824 4352 1786 4352 
C 1562 4352 1325 4339 1094 4339 
L 762 4339 
C 666 4339 550 4352 454 4352 
C 416 4352 339 4352 339 4230 
C 339 4166 390 4166 480 4166 
C 781 4166 787 4127 800 3924 
L 1082 19 
C 1088 -90 1094 -128 1171 -128 
C 1235 -128 1248 -103 1306 -7 
L 3213 3307 
L 3450 19 
C 3456 -90 3462 -128 3539 -128 
C 3603 -128 3622 -96 3674 -7 
L 5779 3644 
z
" transform="scale(0.015625)"/>
       <path id="CMR17-28" d="M 1958 -1562 
C 1958 -1556 1958 -1543 1939 -1524 
C 1645 -1223 858 -403 858 1596 
C 858 3595 1632 4408 1946 4729 
C 1946 4735 1958 4748 1958 4767 
C 1958 4787 1939 4800 1914 4800 
C 1843 4800 1299 4325 986 3620 
C 666 2909 576 2218 576 1603 
C 576 1141 621 360 1005 -467 
C 1312 -1133 1837 -1600 1914 -1600 
C 1946 -1600 1958 -1588 1958 -1562 
z
" transform="scale(0.015625)"/>
       <path id="CMMI12-6a" d="M 2240 2027 
C 2266 2129 2266 2218 2266 2243 
C 2266 2611 1990 2816 1702 2816 
C 1056 2816 710 1888 710 1843 
C 710 1811 736 1786 774 1786 
C 826 1786 832 1811 864 1875 
C 1120 2491 1440 2687 1683 2687 
C 1818 2687 1888 2617 1888 2395 
C 1888 2243 1869 2180 1843 2065 
L 1235 -327 
C 1114 -797 813 -1152 461 -1152 
C 435 -1152 301 -1152 179 -1089 
C 333 -1057 454 -937 454 -784 
C 454 -683 378 -581 237 -581 
C 70 -581 -83 -721 -83 -911 
C -83 -1172 198 -1280 461 -1280 
C 902 -1280 1485 -956 1645 -321 
L 2240 2027 
z
M 2502 4012 
C 2502 4172 2368 4224 2291 4224 
C 2118 4224 1971 4057 1971 3916 
C 1971 3820 2048 3705 2189 3705 
C 2336 3705 2502 3846 2502 4012 
z
" transform="scale(0.015625)"/>
       <path id="CMMI12-3b" d="M 1248 -26 
C 1248 345 1126 620 864 620 
C 659 620 557 454 557 313 
C 557 172 653 0 870 0 
C 954 0 1024 25 1082 83 
C 1094 96 1101 96 1107 96 
C 1120 96 1120 6 1120 -26 
C 1120 -233 1082 -642 710 -1051 
C 640 -1127 640 -1140 640 -1152 
C 640 -1184 672 -1216 704 -1216 
C 755 -1216 1248 -749 1248 -26 
z
" transform="scale(0.015625)"/>
       <path id="CMR17-5b" d="M 1504 -1600 
L 1504 -1376 
L 902 -1376 
L 902 4575 
L 1504 4575 
L 1504 4800 
L 678 4800 
L 678 -1600 
L 1504 -1600 
z
" transform="scale(0.015625)"/>
       <path id="CMMI12-69" d="M 1811 913 
C 1811 945 1786 970 1747 970 
C 1690 970 1683 951 1651 842 
C 1485 261 1222 64 1011 64 
C 934 64 845 83 845 274 
C 845 447 922 638 992 830 
L 1440 2017 
C 1459 2068 1504 2183 1504 2305 
C 1504 2573 1312 2816 998 2816 
C 410 2816 173 1890 173 1838 
C 173 1813 198 1781 243 1781 
C 301 1781 307 1807 333 1896 
C 486 2432 730 2687 979 2687 
C 1037 2687 1146 2681 1146 2477 
C 1146 2311 1062 2100 1011 1960 
L 563 772 
C 525 670 486 568 486 453 
C 486 166 685 -64 992 -64 
C 1581 -64 1811 868 1811 913 
z
M 1760 4012 
C 1760 4108 1683 4224 1542 4224 
C 1395 4224 1229 4083 1229 3916 
C 1229 3756 1363 3705 1440 3705 
C 1613 3705 1760 3871 1760 4012 
z
" transform="scale(0.015625)"/>
       <path id="CMMI12-6e" d="M 1318 1870 
C 1331 1909 1491 2228 1728 2432 
C 1894 2585 2112 2687 2362 2687 
C 2618 2687 2707 2496 2707 2241 
C 2707 1877 2445 1149 2317 804 
C 2259 651 2227 568 2227 453 
C 2227 166 2426 -64 2733 -64 
C 3328 -64 3552 874 3552 913 
C 3552 945 3526 970 3488 970 
C 3430 970 3424 951 3392 842 
C 3245 319 3002 64 2752 64 
C 2688 64 2586 70 2586 274 
C 2586 434 2656 625 2694 715 
C 2822 1066 3091 1781 3091 2145 
C 3091 2528 2867 2816 2381 2816 
C 1811 2816 1510 2413 1395 2253 
C 1376 2617 1114 2816 832 2816 
C 627 2816 486 2694 378 2477 
C 262 2247 173 1864 173 1838 
C 173 1813 198 1781 243 1781 
C 294 1781 301 1787 339 1934 
C 442 2324 557 2687 813 2687 
C 960 2687 1011 2585 1011 2394 
C 1011 2253 947 2004 902 1807 
L 723 1117 
C 698 996 627 708 595 593 
C 550 427 480 127 480 95 
C 480 6 550 -64 646 -64 
C 723 -64 813 -26 864 70 
C 877 102 934 325 966 453 
L 1107 1028 
L 1318 1870 
z
" transform="scale(0.015625)"/>
       <path id="CMR17-5d" d="M 915 4800 
L 90 4800 
L 90 4575 
L 691 4575 
L 691 -1376 
L 90 -1376 
L 90 -1600 
L 915 -1600 
L 915 4800 
z
" transform="scale(0.015625)"/>
       <path id="CMR17-29" d="M 1683 1596 
C 1683 2057 1638 2839 1254 3665 
C 947 4332 422 4800 346 4800 
C 326 4800 301 4793 301 4761 
C 301 4748 307 4742 314 4729 
C 621 4408 1402 3595 1402 1603 
C 1402 -396 627 -1210 314 -1530 
C 307 -1543 301 -1549 301 -1562 
C 301 -1594 326 -1600 346 -1600 
C 416 -1600 960 -1127 1274 -422 
C 1594 289 1683 981 1683 1596 
z
" transform="scale(0.015625)"/>
      </defs>
      <use xlink:href="#CMMI12-57" transform="scale(0.996264)"/>
      <use xlink:href="#CMR17-32" transform="translate(105.644498 36.153639) scale(0.697382)"/>
      <use xlink:href="#CMR17-28" transform="translate(154.730217 0.003177) scale(0.996264)"/>
      <use xlink:href="#CMMI12-6a" transform="translate(190.010985 0) scale(0.996264)"/>
      <use xlink:href="#CMMI12-3b" transform="translate(230.554032 0) scale(0.996264)"/>
      <use xlink:href="#CMR17-5b" transform="translate(274.255614 0) scale(0.996264)"/>
      <use xlink:href="#CMMI12-69" transform="translate(299.126673 0) scale(0.996264)"/>
      <use xlink:href="#CMMI12-6e" transform="translate(332.405275 -14.943915) scale(0.697382)"/>
      <use xlink:href="#CMR17-5d" transform="translate(373.66425 0) scale(0.996264)"/>
      <use xlink:href="#CMMI12-73" transform="translate(398.535308 -14.943915) scale(0.697382)"/>
      <use xlink:href="#CMR17-29" transform="translate(431.198329 0.003177) scale(0.996264)"/>
     </g>
    </g>
    <g id="text_16">
     <!-- $\times\mathdefault{10^{−16}}\mathdefault{}$ -->
     <g style="fill: #262626" transform="translate(108 55.32) scale(0.132 -0.132)">
      <defs>
       <path id="CMSY10-2" d="M 2490 1775 
L 1210 3046 
C 1133 3123 1120 3136 1069 3136 
C 1005 3136 941 3078 941 3008 
C 941 2963 954 2950 1024 2880 
L 2304 1596 
L 1024 313 
C 954 243 941 230 941 185 
C 941 115 1005 57 1069 57 
C 1120 57 1133 70 1210 147 
L 2483 1418 
L 3808 95 
C 3821 89 3866 57 3904 57 
C 3981 57 4032 115 4032 185 
C 4032 198 4032 223 4013 255 
C 4006 268 2989 1271 2669 1596 
L 3840 2765 
C 3872 2803 3968 2886 4000 2925 
C 4006 2937 4032 2963 4032 3008 
C 4032 3078 3981 3136 3904 3136 
C 3853 3136 3827 3110 3757 3040 
L 2490 1775 
z
" transform="scale(0.015625)"/>
       <path id="CMSY10-0" d="M 4218 1472 
C 4326 1472 4442 1472 4442 1600 
C 4442 1728 4326 1728 4218 1728 
L 755 1728 
C 646 1728 531 1728 531 1600 
C 531 1472 646 1472 755 1472 
L 4218 1472 
z
" transform="scale(0.015625)"/>
      </defs>
      <use xlink:href="#CMSY10-2" transform="scale(0.996264)"/>
      <use xlink:href="#CMR17-31" transform="translate(77.487468 0) scale(0.996264)"/>
      <use xlink:href="#CMR17-30" transform="translate(123.177945 0) scale(0.996264)"/>
      <use xlink:href="#CMSY10-0" transform="translate(168.868422 36.153639) scale(0.697382)"/>
      <use xlink:href="#CMR17-31" transform="translate(223.109415 36.153639) scale(0.697382)"/>
      <use xlink:href="#CMR17-36" transform="translate(255.092597 36.153639) scale(0.697382)"/>
     </g>
    </g>
   </g>
   <g id="line2d_40">
    <path d="M 138.436364 415.365896 
L 138.558121 415.338909 
L 138.679879 415.104082 
L 139.166909 415.087658 
L 139.410425 415.087658 
L 139.532182 415.527874 
L 140.384486 415.508994 
L 141.541183 415.516375 
L 141.602062 415.292495 
L 141.72382 414.407981 
L 142.149971 414.407981 
L 142.21085 415.436422 
L 142.271729 414.673947 
L 142.697881 414.673947 
L 142.75876 415.350183 
L 142.819638 415.337927 
L 142.941396 415.337927 
L 143.063154 414.765635 
L 143.367548 414.765635 
L 143.489305 415.200126 
L 144.158972 415.090568 
L 144.28073 414.86363 
L 144.76776 414.86363 
L 144.889518 412.928901 
L 145.072154 412.928901 
L 145.193912 409.446575 
L 145.376549 409.446575 
L 145.498306 408.732463 
L 145.559185 411.742136 
L 145.680943 396.978784 
L 146.228852 396.978784 
L 146.289731 379.920289 
L 146.411488 405.750809 
L 146.533246 403.519269 
L 147.385549 403.519269 
L 147.507307 406.813606 
L 147.689944 406.813606 
L 147.811701 411.427275 
L 148.237853 411.427275 
L 148.359611 415.001533 
L 148.420489 415.001533 
L 148.542247 415.260738 
L 148.785762 414.963725 
L 148.846641 414.963725 
L 148.968399 415.511002 
L 149.090156 415.440726 
L 149.211914 415.472813 
L 149.333672 414.932477 
L 149.638066 414.932477 
L 149.759823 415.466211 
L 149.820702 415.466211 
L 149.94246 414.797001 
L 150.003339 414.797001 
L 150.125096 414.580664 
L 150.612127 414.672719 
L 150.733884 415.482689 
L 150.855642 415.498475 
L 152.682006 415.411219 
L 152.742885 415.28015 
L 152.803764 415.314604 
L 152.9864 415.295612 
L 153.108158 415.523052 
L 153.716946 415.485088 
L 153.838704 413.797084 
L 154.812765 413.797084 
L 155.05628 415.38031 
L 155.908584 415.369866 
L 156.030341 415.036206 
L 157.430554 415.036206 
L 157.552312 415.522067 
L 157.856706 415.450993 
L 158.039342 415.322387 
L 158.587251 415.322387 
L 158.709009 415.482626 
L 159.865707 415.404605 
L 159.987464 415.040154 
L 160.170101 415.113815 
L 160.291858 415.470177 
L 160.535374 415.446995 
L 160.71801 415.466831 
L 160.839768 415.466831 
L 160.961525 415.188227 
L 161.083283 415.188227 
L 161.205041 415.521814 
L 161.265919 415.505802 
L 161.387677 415.127646 
L 162.909647 415.119066 
L 163.031405 414.916463 
L 163.153163 414.916463 
L 163.27492 415.226822 
L 163.761951 415.25186 
L 163.883708 415.414387 
L 164.370739 415.520648 
L 164.918648 415.506218 
L 165.040406 415.342166 
L 165.101285 415.510423 
L 165.223042 415.199968 
L 165.588315 415.199426 
L 165.710073 415.517852 
L 166.562376 415.505407 
L 166.684134 415.35967 
L 167.597316 415.273911 
L 167.719074 415.47295 
L 167.840831 415.472818 
L 167.962589 415.006233 
L 168.084347 415.257832 
L 169.119286 415.311251 
L 169.301923 415.51229 
L 169.423681 415.179514 
L 169.484559 415.439519 
L 169.606317 415.439519 
L 169.728075 414.494132 
L 169.849832 415.364084 
L 169.97159 414.872929 
L 170.093348 414.872929 
L 170.215105 415.397951 
L 170.275984 415.397951 
L 170.336863 415.152354 
L 170.397742 415.216234 
L 170.580378 415.216234 
L 170.702136 415.48739 
L 171.371803 415.480239 
L 171.49356 415.286812 
L 171.615318 415.272855 
L 171.737076 415.522719 
L 172.345864 415.470172 
L 172.467621 415.290154 
L 173.015531 415.290154 
L 173.076409 415.172337 
L 173.198167 415.3094 
L 173.867834 415.42051 
L 174.050471 415.480827 
L 174.293986 414.277299 
L 174.354865 414.277299 
L 174.476622 414.79675 
L 175.024532 414.842613 
L 175.146289 415.297438 
L 175.207168 415.297438 
L 175.328926 415.026017 
L 175.450683 415.407503 
L 175.572441 415.081964 
L 176.424744 415.081964 
L 176.546502 415.289643 
L 176.850896 415.289643 
L 177.033532 415.495249 
L 177.15529 413.890549 
L 178.19023 413.890549 
L 178.251109 413.125673 
L 178.372866 414.173588 
L 178.67726 414.173588 
L 178.981655 415.089996 
L 179.103412 415.089996 
L 179.22517 414.862055 
L 179.590443 414.878395 
L 179.7122 414.482923 
L 179.955716 414.482923 
L 180.077473 414.863706 
L 180.199231 414.863706 
L 180.320988 415.031709 
L 180.929777 415.031709 
L 181.112413 414.294795 
L 181.355928 415.294632 
L 181.903838 415.294632 
L 182.208232 413.961571 
L 182.329989 413.961571 
L 182.451747 414.321512 
L 182.512626 414.321512 
L 182.634383 414.906636 
L 182.695262 414.906636 
L 182.81702 414.697433 
L 182.999656 414.697433 
L 183.121414 414.498335 
L 183.243172 414.895982 
L 183.364929 414.895982 
L 183.486687 414.746869 
L 183.608444 414.9832 
L 183.85196 414.9832 
L 183.973717 415.250305 
L 184.460748 415.207052 
L 184.582506 415.511506 
L 184.826021 415.303145 
L 185.008657 415.303145 
L 185.069536 414.809743 
L 185.191294 415.229789 
L 185.252172 415.229789 
L 185.37393 415.417537 
L 185.434809 415.417537 
L 185.495688 415.241535 
L 185.556567 415.322706 
L 185.800082 415.272347 
L 185.860961 415.061973 
L 185.982718 415.266488 
L 186.104476 415.322335 
L 186.226234 415.426708 
L 186.469749 415.390242 
L 186.774143 415.450764 
L 186.835022 415.187736 
L 186.956779 415.420795 
L 187.322052 415.420795 
L 187.44381 415.146715 
L 187.504689 415.146715 
L 187.626446 415.315493 
L 187.991719 415.293254 
L 188.113477 413.03508 
L 188.356992 413.03508 
L 188.47875 414.940989 
L 188.661386 414.940989 
L 188.722265 415.389508 
L 188.783144 415.236718 
L 189.148417 415.236718 
L 189.270174 415.449476 
L 189.574568 415.518805 
L 189.696326 415.19606 
L 190.548629 415.19606 
L 190.670387 415.37845 
L 191.03566 415.473247 
L 191.400933 415.497073 
L 191.948842 415.504533 
L 192.0706 413.719838 
L 192.253236 413.667418 
L 192.374994 414.182322 
L 192.862024 414.182322 
L 192.983782 406.36718 
L 193.10554 406.36718 
L 193.227297 413.266005 
L 193.349055 411.391522 
L 193.59257 411.391522 
L 193.714328 410.451351 
L 194.018722 410.451351 
L 194.14048 411.993072 
L 194.262237 411.993072 
L 194.383995 409.54451 
L 194.505752 413.231715 
L 194.749268 413.231715 
L 194.871025 409.764728 
L 195.236298 409.764728 
L 195.479813 408.832298 
L 195.601571 414.051028 
L 195.723329 413.621033 
L 196.027723 413.621033 
L 196.210359 411.141528 
L 196.392996 411.141528 
L 196.514753 412.865385 
L 196.575632 412.865385 
L 196.69739 415.138787 
L 196.819147 415.138787 
L 197.001784 415.529561 
L 197.367057 415.455481 
L 197.488814 415.185294 
L 197.854087 415.185294 
L 198.036724 415.444182 
L 198.706391 415.516133 
L 198.828148 415.193993 
L 199.010785 415.193993 
L 199.132542 414.561906 
L 199.497815 414.561906 
L 199.619573 414.900164 
L 200.350119 414.900164 
L 200.471876 415.285976 
L 200.532755 415.285976 
L 200.593634 415.507912 
L 200.654513 415.445343 
L 200.77627 415.445343 
L 200.898028 415.236354 
L 201.202422 415.236354 
L 201.385059 415.360742 
L 201.567695 415.450526 
L 201.81121 415.398431 
L 201.932968 414.496124 
L 202.054725 414.496124 
L 202.176483 414.275296 
L 202.785271 414.275296 
L 202.907029 414.462989 
L 203.028787 414.462989 
L 203.150544 415.110709 
L 203.272302 408.210907 
L 203.394059 408.210907 
L 203.515817 406.151597 
L 205.585697 406.151597 
L 205.707454 404.240934 
L 209.238426 404.240934 
L 209.360183 413.125983 
L 209.725456 413.125983 
L 209.908093 413.841085 
L 210.638638 413.841085 
L 210.699517 415.511539 
L 210.760396 415.499918 
L 211.003911 415.453913 
L 211.125669 415.453913 
L 211.308305 414.728166 
L 211.490942 414.839412 
L 211.795336 414.839412 
L 211.917094 415.284961 
L 211.977972 415.284961 
L 212.09973 412.314519 
L 212.465003 412.314519 
L 212.58676 415.12552 
L 212.647639 415.12552 
L 212.769397 414.680357 
L 213.378185 414.680357 
L 213.499943 414.122383 
L 213.6217 414.122383 
L 213.682579 415.096369 
L 213.804337 408.63351 
L 214.474004 408.63351 
L 214.65664 415.350516 
L 215.143671 415.350516 
L 215.265428 414.955203 
L 215.935095 414.955203 
L 216.056853 414.726881 
L 216.300368 414.726881 
L 216.422126 413.013766 
L 216.970035 413.013766 
L 217.091793 413.265587 
L 217.517945 413.265587 
L 217.639702 412.774644 
L 217.76146 412.774644 
L 217.883217 406.922951 
L 218.126733 406.922951 
L 218.24849 410.476449 
L 218.492006 410.476449 
L 218.613763 413.065415 
L 218.735521 413.065415 
L 218.857278 412.49043 
L 219.039915 414.789931 
L 219.892218 414.789931 
L 220.013976 413.999261 
L 220.074855 413.999261 
L 220.135734 415.235726 
L 220.196612 414.92905 
L 220.257491 414.92905 
L 220.379249 415.478768 
L 220.744522 415.478768 
L 220.866279 415.241774 
L 221.048916 415.241774 
L 221.109795 415.077705 
L 221.231552 414.489558 
L 221.292431 414.489558 
L 221.414189 414.875565 
L 221.535946 414.875565 
L 221.657704 414.586472 
L 221.901219 414.586472 
L 222.022977 414.926919 
L 222.144734 413.97004 
L 222.570886 413.97004 
L 222.692644 414.670289 
L 222.814401 414.733902 
L 222.87528 414.098437 
L 222.936159 414.858002 
L 222.997038 414.687735 
L 223.118796 414.687735 
L 223.179674 411.427838 
L 223.240553 414.013122 
L 223.301432 414.013122 
L 223.484068 415.477244 
L 223.605826 415.477244 
L 223.727584 415.354598 
L 223.788462 414.459353 
L 223.849341 414.978475 
L 223.91022 414.978475 
L 224.031978 415.345147 
L 224.762524 415.382055 
L 224.884281 414.481976 
L 225.858342 414.436198 
L 225.9801 411.229257 
L 227.01504 411.229257 
L 227.075919 414.436198 
L 227.136797 414.268566 
L 228.293495 414.268566 
L 228.415252 414.436198 
L 228.780525 414.436198 
L 228.902283 415.413812 
L 229.206677 415.342317 
L 229.450192 415.219442 
L 229.632829 415.219442 
L 229.754586 415.367991 
L 229.876344 415.367991 
L 229.998102 415.111247 
L 231.033041 415.123935 
L 231.154799 415.469777 
L 235.23368 415.424627 
L 235.355437 414.755405 
L 235.842468 414.755405 
L 236.025104 412.581088 
L 237.242681 412.581088 
L 237.364438 411.137876 
L 237.912348 411.137876 
L 238.034105 403.83408 
L 238.399378 403.83408 
L 238.521136 348.834493 
L 240.408379 348.834493 
L 240.530137 364.629426 
L 240.712773 364.629426 
L 240.834531 356.322568 
L 242.90441 356.322568 
L 243.026168 364.629426 
L 245.583078 364.629426 
L 245.704836 380.275378 
L 246.00923 380.275378 
L 246.130988 411.618737 
L 247.348564 411.618737 
L 247.470322 406.413898 
L 250.331626 406.413898 
L 250.392505 414.500057 
L 250.453384 413.78117 
L 250.575141 413.78117 
L 250.696899 413.069336 
L 251.488323 413.069336 
L 251.610081 400.202517 
L 253.923476 400.202517 
L 254.045234 403.201956 
L 255.323689 403.201956 
L 255.445446 412.980014 
L 255.810719 412.970942 
L 255.932477 415.30881 
L 256.054235 415.30881 
L 256.175992 413.900232 
L 256.358629 415.224948 
L 256.480386 413.763236 
L 256.602144 413.763236 
L 256.723901 414.871315 
L 256.78478 414.871315 
L 256.906538 414.464821 
L 257.210932 414.464821 
L 257.33269 415.17646 
L 257.454447 415.154125 
L 257.576205 414.948295 
L 258.550266 414.902085 
L 258.672024 414.006732 
L 258.793781 414.006732 
L 258.915539 410.213819 
L 259.828721 410.213819 
L 259.950479 412.087772 
L 260.011357 412.087772 
L 260.133115 410.213819 
L 260.559267 410.213819 
L 260.681024 412.347374 
L 263.542329 412.249225 
L 263.664086 414.388107 
L 264.029359 414.388107 
L 264.151117 412.833821 
L 264.272875 412.833821 
L 264.333753 415.478547 
L 264.394632 415.468404 
L 264.455511 413.158064 
L 264.51639 414.682148 
L 264.638147 414.994137 
L 265.00342 414.994137 
L 265.125178 413.072553 
L 265.368693 413.072553 
L 265.429572 412.263234 
L 265.55133 414.476046 
L 265.794845 414.476046 
L 266.099239 408.744802 
L 266.281875 408.744802 
L 266.403633 399.314135 
L 266.708027 399.314135 
L 266.829785 413.691923 
L 266.951542 413.691923 
L 267.0733 413.53471 
L 267.316815 413.53471 
L 267.438573 413.806756 
L 267.560331 411.214499 
L 270.66515 411.214499 
L 270.786908 413.693742 
L 270.908665 413.693742 
L 270.969544 414.691497 
L 271.030423 414.133305 
L 272.308878 414.133305 
L 272.430636 414.800958 
L 272.552393 414.800958 
L 272.674151 414.642609 
L 272.73503 414.642609 
L 272.856787 415.3562 
L 272.917666 415.3562 
L 273.039424 415.047168 
L 273.100303 415.047168 
L 273.22206 415.382781 
L 273.76997 415.45503 
L 273.891727 414.961639 
L 274.196121 414.961639 
L 274.317879 414.101204 
L 274.439637 414.101204 
L 274.561394 400.777808 
L 275.109304 400.777808 
L 275.231061 406.995644 
L 276.144244 406.995644 
L 276.266001 415.426299 
L 277.179183 415.38303 
L 277.36182 415.222047 
L 277.544456 415.308931 
L 277.605335 415.308931 
L 277.727093 415.503014 
L 280.344882 415.513345 
L 280.466639 415.331513 
L 280.649276 415.475173 
L 280.831912 415.442824 
L 281.014549 415.52415 
L 283.814974 415.520491 
L 283.936732 415.101906 
L 284.484641 415.101906 
L 284.606399 415.365363 
L 284.728156 415.40115 
L 284.849914 414.509834 
L 284.910793 414.509834 
L 285.032551 412.687275 
L 285.215187 412.687275 
L 285.336945 413.972331 
L 285.458702 413.972331 
L 285.58046 414.139187 
L 286.371884 414.139187 
L 286.493642 412.348612 
L 286.676279 412.348612 
L 286.798036 359.61462 
L 287.041551 359.61462 
L 287.10243 352.445627 
L 287.345946 392.128897 
L 288.13737 392.128897 
L 288.198249 399.223584 
L 288.259128 397.460398 
L 288.380885 399.303203 
L 288.807037 399.303203 
L 288.928795 408.036304 
L 289.050552 405.07422 
L 289.111431 405.07422 
L 289.17231 399.303203 
L 289.233189 401.789194 
L 289.294068 401.789194 
L 289.415825 399.487069 
L 289.537583 399.487069 
L 289.65934 405.616029 
L 289.720219 405.616029 
L 289.841977 409.664906 
L 290.146371 409.664906 
L 290.20725 408.082674 
L 290.329007 413.445431 
L 290.755159 413.445431 
L 290.876917 412.526756 
L 290.937796 414.263224 
L 290.998674 414.20431 
L 291.120432 412.83691 
L 291.24219 415.156399 
L 292.27713 415.156399 
L 292.398887 414.976668 
L 292.885918 414.976668 
L 293.007675 415.242081 
L 293.555585 415.242081 
L 293.738221 414.953568 
L 294.529646 414.953568 
L 294.651403 408.230629 
L 294.712282 408.230629 
L 294.83404 409.66218 
L 294.955797 396.382069 
L 295.138434 412.168022 
L 295.32107 412.168022 
L 295.442828 412.444275 
L 295.503707 411.440448 
L 295.625464 412.345805 
L 295.929858 412.345805 
L 295.990737 367.759222 
L 296.112495 405.215123 
L 296.477768 405.215123 
L 296.599525 399.627909 
L 296.782162 399.627909 
L 296.964798 409.424797 
L 297.39095 409.424797 
L 297.512708 404.034956 
L 297.634465 410.969344 
L 297.756223 406.170574 
L 298.304132 406.170574 
L 298.365011 369.54023 
L 298.42589 370.969959 
L 300.313133 370.969959 
L 300.374012 412.092835 
L 300.434891 410.753416 
L 300.556648 410.753416 
L 300.678406 409.968932 
L 300.739285 409.968932 
L 300.921921 414.495371 
L 301.043679 414.495371 
L 301.165437 415.332357 
L 301.469831 415.332357 
L 301.591588 414.896007 
L 301.774225 414.896007 
L 301.956861 412.996096 
L 302.200376 412.996096 
L 302.322134 415.390052 
L 303.174437 415.430127 
L 303.296195 414.696842 
L 303.357074 414.696842 
L 303.478832 411.362606 
L 304.270256 411.362606 
L 304.392014 414.792503 
L 304.757287 414.792503 
L 304.818165 414.511251 
L 304.879044 415.522924 
L 304.939923 415.508427 
L 307.314197 415.49071 
L 307.435955 415.176316 
L 307.557712 415.423314 
L 309.262319 415.313887 
L 309.384077 415.107125 
L 310.175501 415.214263 
L 310.358138 415.283004 
L 310.601653 415.125961 
L 310.662532 415.125961 
L 310.784289 415.335598 
L 311.393077 415.335598 
L 311.453956 415.455043 
L 311.575714 415.004829 
L 312.245381 415.004829 
L 312.30626 414.17899 
L 312.367139 414.742481 
L 312.915048 414.742481 
L 313.036805 412.793123 
L 313.584715 412.793123 
L 313.706472 414.946898 
L 313.949988 414.874429 
L 314.071745 413.636877 
L 314.132624 413.636877 
L 314.193503 414.17899 
L 314.254382 414.069055 
L 314.376139 414.069055 
L 314.497897 414.45163 
L 315.106685 414.45163 
L 315.228443 414.730209 
L 315.411079 414.730209 
L 315.532837 413.626762 
L 315.715473 413.626762 
L 315.776352 414.211174 
L 315.89811 413.626762 
L 316.202504 413.626762 
L 316.324262 412.580108 
L 316.93305 412.580108 
L 317.054807 414.115604 
L 317.480959 414.115604 
L 317.602717 414.743207 
L 318.089747 414.743207 
L 318.272384 415.177549 
L 318.45502 415.095397 
L 318.820293 415.095397 
L 318.942051 413.930785 
L 319.307323 413.930785 
L 319.429081 410.569696 
L 319.611718 410.569696 
L 319.733475 413.844691 
L 319.97699 413.844691 
L 320.098748 413.008161 
L 320.5249 413.008161 
L 320.646657 413.654893 
L 320.768415 413.325575 
L 320.890173 413.325575 
L 321.01193 414.945536 
L 322.351264 414.945536 
L 322.473022 415.185133 
L 323.264446 415.185133 
L 323.386204 415.021008 
L 323.507962 415.021008 
L 323.568841 415.512625 
L 323.629719 415.496632 
L 326.795418 415.518004 
L 326.917175 415.179769 
L 328.073873 415.179769 
L 328.134752 415.508972 
L 328.19563 415.462119 
L 328.256509 415.500796 
L 328.378267 414.758376 
L 328.804419 414.752198 
L 328.926176 414.479638 
L 328.987055 414.479638 
L 329.108813 413.735492 
L 329.23057 410.761637 
L 329.656722 410.761637 
L 329.717601 410.221462 
L 329.839358 408.495566 
L 329.961116 412.145474 
L 330.082874 412.145474 
L 330.204631 414.565272 
L 330.326389 414.565272 
L 330.387268 412.91368 
L 330.448147 414.193276 
L 330.81342 414.193276 
L 330.935177 412.010628 
L 331.483086 412.010628 
L 331.604844 412.438339 
L 331.848359 412.438339 
L 331.970117 413.89124 
L 332.091875 412.974913 
L 332.33539 412.974913 
L 332.396269 413.15507 
L 332.518026 414.136238 
L 332.700663 414.136238 
L 332.82242 415.151966 
L 332.883299 415.151966 
L 332.944178 415.50376 
L 333.065936 413.926882 
L 333.979118 413.926882 
L 334.100876 407.08229 
L 335.561967 407.08229 
L 335.622846 407.994746 
L 335.744604 387.296568 
L 335.988119 387.296568 
L 336.109876 411.09712 
L 336.536028 411.09712 
L 336.657786 409.947927 
L 337.023059 409.947927 
L 337.144816 401.526227 
L 337.510089 401.526227 
L 337.631847 399.253215 
L 337.692726 399.253215 
L 337.814483 393.997903 
L 337.936241 393.997903 
L 338.118877 406.410126 
L 338.48415 406.410126 
L 338.605908 411.09712 
L 338.788544 411.09712 
L 338.910302 402.016693 
L 339.092938 410.291623 
L 339.153817 410.291623 
L 339.275575 414.938963 
L 339.458211 411.270386 
L 340.006121 411.270386 
L 340.127878 414.039375 
L 340.310515 414.039375 
L 340.432272 411.77308 
L 341.406333 411.77308 
L 341.528091 413.312365 
L 342.380394 413.312365 
L 342.502152 409.549188 
L 342.62391 409.549188 
L 342.745667 404.042694 
L 342.806546 404.042694 
L 342.928304 412.806324 
L 343.050061 412.806324 
L 343.171819 415.083211 
L 343.415334 415.083211 
L 343.537092 409.104718 
L 343.597971 409.104718 
L 343.780607 413.383245 
L 345.363456 413.383245 
L 345.485214 410.002161 
L 346.641911 410.002161 
L 346.763669 406.770342 
L 346.885427 406.770342 
L 347.007184 411.024411 
L 347.068063 411.024411 
L 347.2507 410.898354 
L 347.494215 410.898354 
L 347.615973 411.126329 
L 347.920367 411.126329 
L 348.042124 411.389985 
L 348.163882 411.389985 
L 348.285639 407.964954 
L 350.355519 407.964954 
L 350.416398 415.203255 
L 350.477277 414.861866 
L 350.599034 415.20987 
L 350.720792 415.20987 
L 350.84255 415.451737 
L 350.964307 414.814709 
L 351.025186 414.9773 
L 351.32958 414.9773 
L 351.451338 414.662376 
L 351.938368 414.662376 
L 352.060126 415.006436 
L 352.608035 415.043131 
L 352.729793 412.646878 
L 352.851551 412.646878 
L 352.973308 414.607199 
L 353.095066 414.540587 
L 353.216824 411.820729 
L 354.92143 411.914616 
L 355.043188 405.076315 
L 355.104067 405.076315 
L 355.286703 415.483498 
L 355.591097 415.483498 
L 355.712855 415.334659 
L 355.773734 413.403355 
L 355.834613 414.975578 
L 356.260764 414.965699 
L 356.382522 413.70057 
L 356.808674 413.70057 
L 356.930431 414.11564 
L 356.99131 414.11564 
L 357.113068 415.483555 
L 357.234825 415.490427 
L 357.356583 414.917007 
L 357.539219 414.931284 
L 357.660977 413.762908 
L 357.782735 401.351447 
L 357.904492 409.763543 
L 358.695917 409.763543 
L 358.817674 413.005588 
L 359.791736 413.005588 
L 360.09613 415.174857 
L 360.217887 415.174857 
L 360.339645 413.720294 
L 360.461403 413.720294 
L 360.58316 414.013217 
L 360.644039 414.013217 
L 360.704918 415.212455 
L 360.765797 415.186834 
L 360.826675 415.186834 
L 360.948433 415.043271 
L 361.435464 415.043271 
L 361.6181 412.146495 
L 361.678979 412.146495 
L 361.800736 398.404814 
L 362.226888 398.404814 
L 362.348646 413.630186 
L 362.470403 413.630186 
L 362.592161 405.88663 
L 362.65304 405.88663 
L 362.774797 409.92816 
L 362.896555 409.48209 
L 362.957434 409.48209 
L 363.14007 369.917747 
L 363.383586 369.917747 
L 363.505343 410.048623 
L 363.748859 414.431628 
L 363.870616 409.442237 
L 363.931495 409.442237 
L 364.053253 406.658657 
L 364.296768 406.658657 
L 364.418525 408.722045 
L 364.479404 408.722045 
L 364.601162 405.465899 
L 364.72292 410.550682 
L 364.844677 410.550682 
L 364.966435 401.925716 
L 365.696981 401.925716 
L 365.818738 402.368652 
L 366.123132 402.368652 
L 366.24489 412.510805 
L 366.73192 412.510805 
L 366.792799 402.368652 
L 366.914557 369.917747 
L 367.523345 369.917747 
L 367.645103 401.189019 
L 368.253891 401.189019 
L 368.375648 369.917747 
L 368.558285 369.917747 
L 368.680043 401.898683 
L 368.984437 401.898683 
L 369.167073 407.209249 
L 369.34971 407.209249 
L 369.410588 408.686546 
L 369.471467 413.236762 
L 369.593225 405.481891 
L 369.654104 405.481891 
L 369.775861 414.905357 
L 369.897619 414.905357 
L 369.958498 415.202299 
L 370.080255 414.644918 
L 370.262892 414.644918 
L 370.384649 414.973427 
L 370.567286 414.973427 
L 370.689043 414.80598 
L 370.810801 414.80598 
L 370.87168 415.020848 
L 371.054316 414.037152 
L 371.176074 414.037152 
L 371.297832 411.958529 
L 372.576287 411.958529 
L 372.698044 413.08108 
L 372.94156 413.08108 
L 373.063317 413.695017 
L 373.793863 413.695017 
L 373.915621 414.959912 
L 374.098257 414.959912 
L 374.220015 412.347951 
L 374.585288 412.347951 
L 374.707045 408.256067 
L 375.194076 408.256067 
L 375.315833 411.199909 
L 376.898683 411.199909 
L 377.02044 401.715862 
L 378.542411 401.715862 
L 378.664168 392.982734 
L 379.455593 392.982734 
L 379.57735 414.801537 
L 379.942623 414.801537 
L 380.064381 415.370569 
L 380.307896 415.261159 
L 380.551412 415.220872 
L 380.673169 414.279077 
L 380.734048 414.279077 
L 380.855806 414.124779 
L 381.403715 414.124779 
L 381.525473 415.106568 
L 381.64723 415.106568 
L 381.768988 414.088454 
L 381.951624 414.088454 
L 382.134261 414.214573 
L 382.316897 414.214573 
L 382.499534 358.280302 
L 382.68217 375.694866 
L 383.047443 375.694866 
L 383.169201 358.280302 
L 383.290958 358.280302 
L 383.412716 386.316975 
L 384.021504 386.316975 
L 384.20414 353.286784 
L 384.325898 353.286784 
L 384.386777 337.411727 
L 384.508534 358.200925 
L 384.691171 358.200925 
L 384.812929 406.281219 
L 384.934686 403.321824 
L 385.117323 403.321824 
L 385.23908 413.411894 
L 385.360838 413.411894 
L 385.421717 415.270138 
L 385.482596 414.587311 
L 385.665232 414.587311 
L 385.847868 414.456127 
L 385.969626 414.456127 
L 386.091384 415.032902 
L 386.152262 415.032902 
L 386.213141 415.506188 
L 386.27402 415.291984 
L 386.456657 415.184438 
L 386.639293 414.106159 
L 386.882808 415.363188 
L 387.917748 415.282458 
L 388.039506 415.228795 
L 388.222142 415.323396 
L 388.770052 415.423407 
L 388.891809 414.979533 
L 388.952688 415.093525 
L 389.257082 414.41154 
L 389.987628 414.41154 
L 390.109385 414.874678 
L 390.352901 414.874678 
L 390.474658 412.94844 
L 391.874871 412.94844 
L 391.93575 415.120271 
L 391.996629 414.187599 
L 392.544538 414.187599 
L 392.666296 415.207418 
L 392.97069 415.182894 
L 393.153326 408.112022 
L 393.396842 408.112022 
L 393.518599 410.144358 
L 393.944751 410.144358 
L 394.00563 415.090739 
L 394.127387 410.144358 
L 394.431781 410.144358 
L 394.553539 407.630419 
L 394.857933 407.630419 
L 395.04057 412.201703 
L 395.162327 411.321133 
L 395.223206 411.321133 
L 395.344964 413.67419 
L 395.466721 413.67419 
L 395.588479 414.801563 
L 396.623419 414.801563 
L 396.745176 414.937717 
L 397.04957 414.937717 
L 397.232207 414.8023 
L 397.59748 414.8023 
L 397.780116 415.418045 
L 397.962753 415.478916 
L 398.023631 415.41932 
L 398.145389 414.709605 
L 398.267147 414.951057 
L 398.449783 414.611727 
L 398.63242 414.626142 
L 398.754177 406.577441 
L 398.815056 412.631222 
L 398.875935 408.774939 
L 399.180329 408.774939 
L 399.241208 411.850373 
L 399.362965 399.453941 
L 399.484723 404.888838 
L 399.789117 404.888838 
L 399.910875 409.404659 
L 400.276148 409.404659 
L 400.397905 413.278334 
L 400.458784 413.278334 
L 400.641421 409.947963 
L 400.884936 409.947963 
L 401.067572 390.156486 
L 401.250209 390.156486 
L 401.371966 401.886267 
L 401.432845 401.886267 
L 401.554603 392.680377 
L 401.615482 392.680377 
L 401.737239 396.07153 
L 402.650421 396.07153 
L 402.772179 402.140398 
L 402.893937 402.140398 
L 402.954815 407.99301 
L 403.076573 400.156714 
L 403.137452 400.156714 
L 403.25921 406.356673 
L 403.563604 406.356673 
L 403.685361 408.494707 
L 403.989755 408.494707 
L 404.111513 409.478828 
L 404.172392 409.478828 
L 404.415907 413.664681 
L 404.537665 413.664681 
L 404.659422 413.505013 
L 404.842059 413.505013 
L 404.963816 412.979472 
L 405.024695 409.394578 
L 405.085574 411.929059 
L 405.26821 411.929059 
L 405.389968 401.54342 
L 405.450847 401.54342 
L 405.572605 411.269431 
L 405.876999 411.269431 
L 405.998756 410.903132 
L 406.181393 410.903132 
L 406.30315 407.455596 
L 406.424908 407.455596 
L 406.546666 407.831855 
L 406.607544 411.54328 
L 406.668423 408.867178 
L 406.790181 408.867178 
L 406.85106 413.432629 
L 406.911938 412.117838 
L 407.216333 412.117838 
L 407.33809 414.835419 
L 407.398969 414.835419 
L 407.520727 415.265025 
L 408.494788 415.265025 
L 408.616545 414.835419 
L 408.920939 414.835419 
L 409.042697 415.20746 
L 409.103576 415.20746 
L 409.225333 414.554683 
L 409.651485 414.554683 
L 409.773243 415.162301 
L 409.895 415.162301 
L 409.955879 415.498061 
L 410.016758 415.445452 
L 410.564667 415.445452 
L 410.686425 415.260846 
L 411.234334 415.246923 
L 411.356092 415.387779 
L 411.904001 415.433186 
L 412.025759 414.917116 
L 412.147517 414.917116 
L 412.269274 414.287877 
L 412.330153 414.287877 
L 412.451911 413.313766 
L 412.634547 413.313766 
L 412.756305 400.085944 
L 412.817184 403.507454 
L 412.878062 403.507454 
L 412.99982 404.596621 
L 413.852123 404.596621 
L 413.973881 388.659061 
L 414.095639 389.856278 
L 414.826184 389.856278 
L 415.008821 408.581773 
L 415.495851 408.581773 
L 415.617609 406.63595 
L 416.348155 406.63595 
L 416.469912 400.093216 
L 416.956943 400.093216 
L 417.139579 413.931448 
L 417.443973 413.931448 
L 417.565731 413.775168 
L 417.748368 402.039134 
L 418.052762 402.039134 
L 418.11364 387.423608 
L 418.174519 390.668471 
L 418.600671 409.912781 
L 418.722429 409.912781 
L 418.844186 403.827064 
L 419.026823 403.827064 
L 419.14858 401.393518 
L 419.331217 401.393518 
L 419.635611 386.496997 
L 420.122641 386.496997 
L 420.244399 387.512169 
L 420.609672 387.512169 
L 420.73143 366.723003 
L 421.279339 366.723003 
L 421.340218 329.739082 
L 421.461975 413.017508 
L 421.583733 413.017508 
L 421.705491 413.253199 
L 421.766369 413.017508 
L 421.827248 408.607159 
L 421.949006 385.802753 
L 422.009885 385.802753 
L 422.131642 412.670895 
L 422.192521 412.670895 
L 422.2534 415.385322 
L 422.314279 415.011482 
L 422.436036 415.011482 
L 422.557794 415.421242 
L 423.592734 415.358002 
L 423.714491 415.020191 
L 424.505916 415.011482 
L 424.627674 415.443617 
L 424.688552 415.443617 
L 424.81031 415.17236 
L 425.175583 415.17236 
L 425.236462 414.760921 
L 425.297341 415.028832 
L 425.601735 415.028832 
L 425.723492 414.153592 
L 425.84525 414.153592 
L 425.967008 414.588463 
L 426.088765 414.259402 
L 426.210523 414.259402 
L 426.332281 400.797527 
L 426.454038 414.146381 
L 426.514917 414.146381 
L 426.636675 415.153857 
L 426.819311 415.153857 
L 426.88019 414.186723 
L 427.001947 414.993217 
L 427.488978 415.081377 
L 427.549857 415.127957 
L 427.671614 414.867717 
L 429.193585 414.867717 
L 429.315342 414.657729 
L 429.985009 414.657729 
L 430.167646 415.162844 
L 430.289403 415.123686 
L 430.411161 415.503103 
L 430.654676 415.503103 
L 430.776434 415.278768 
L 430.837313 415.278768 
L 431.019949 415.412308 
L 431.202586 415.359401 
L 431.324343 415.023902 
L 431.446101 415.362731 
L 432.420162 415.370941 
L 432.54192 415.477274 
L 432.724556 415.477274 
L 432.968071 415.081583 
L 433.150708 415.081583 
L 433.333344 415.381166 
L 433.759496 415.389759 
L 433.881254 414.34844 
L 434.185648 414.34844 
L 434.307405 413.865093 
L 434.368284 413.865093 
L 434.550921 410.395098 
L 434.611799 410.395098 
L 434.733557 415.308401 
L 434.916193 415.423216 
L 434.977072 415.423216 
L 435.037951 414.152651 
L 435.159709 415.372902 
L 435.281466 415.108212 
L 435.58586 415.108212 
L 435.646739 415.415896 
L 435.768497 413.804265 
L 435.890254 413.804265 
L 435.951133 415.243072 
L 436.072891 408.51057 
L 436.13377 408.51057 
L 436.255527 405.732087 
L 436.377285 405.732087 
L 436.499043 404.650763 
L 436.6208 397.598462 
L 436.742558 402.921174 
L 436.864316 402.921174 
L 436.925194 412.832124 
L 436.986073 410.042193 
L 437.046952 410.042193 
L 437.16871 411.628187 
L 437.838377 411.628187 
L 437.960134 411.94616 
L 438.081892 413.345522 
L 438.142771 413.345522 
L 438.325407 404.640129 
L 438.508044 404.640129 
L 438.629801 400.366069 
L 438.995074 400.366069 
L 439.116832 408.941335 
L 439.17771 408.941335 
L 439.299468 413.785756 
L 439.421226 406.555554 
L 439.664741 406.555554 
L 439.786499 408.507096 
L 439.908256 404.351451 
L 440.76056 404.351451 
L 440.882317 411.967792 
L 441.004075 411.967792 
L 441.125833 408.331077 
L 441.308469 412.593867 
L 441.369348 412.593867 
L 441.491105 413.593444 
L 441.612863 413.656541 
L 441.734621 413.804001 
L 441.856378 411.454316 
L 442.039015 411.454316 
L 442.160772 414.314584 
L 442.891318 414.314584 
L 443.013076 415.020202 
L 443.31747 415.020202 
L 443.378349 411.974077 
L 443.439228 413.282221 
L 443.500106 413.282221 
L 443.621864 413.982018 
L 444.048016 413.982018 
L 444.169773 412.028169 
L 444.291531 412.028169 
L 444.474167 382.787383 
L 444.595925 341.830643 
L 444.778561 341.830643 
L 444.900319 302.072048 
L 445.022077 409.99487 
L 445.143834 409.99487 
L 445.265592 410.535769 
L 445.326471 384.185267 
L 445.38735 384.252666 
L 445.448228 384.252666 
L 445.569986 333.320654 
L 445.630865 333.320654 
L 445.752623 239.340943 
L 445.87438 239.340943 
L 445.996138 84.251075 
L 446.361411 84.251075 
L 446.42229 203.412804 
L 446.483168 75.33 
L 446.604926 313.67248 
L 446.787562 313.67248 
L 446.90932 414.443381 
L 446.970199 414.443381 
L 447.091956 414.203315 
L 447.152835 414.203315 
L 447.213714 413.886201 
L 447.274593 412.97146 
L 447.335472 409.394922 
L 447.457229 412.604639 
L 447.518108 412.604639 
L 447.639866 411.652855 
L 447.94426 411.652855 
L 448.005139 412.447119 
L 448.126896 414.812646 
L 448.309533 414.812646 
L 448.43129 415.08198 
L 449.527109 415.094304 
L 449.709746 415.445337 
L 451.779625 415.380654 
L 451.901383 415.100315 
L 452.02314 411.487378 
L 452.084019 415.368848 
L 452.144898 414.266729 
L 452.205777 414.266729 
L 452.327535 414.712132 
L 452.388413 414.712132 
L 452.510171 413.647748 
L 452.631929 413.874652 
L 453.240717 413.960006 
L 453.362474 411.588267 
L 453.484232 412.882403 
L 453.545111 410.649748 
L 453.666869 396.188978 
L 453.788626 396.188978 
L 453.910384 383.645206 
L 454.032141 383.645206 
L 454.153899 408.391077 
L 454.458293 408.391077 
L 454.580051 411.219848 
L 454.701808 411.219848 
L 454.823566 406.965882 
L 454.945324 406.965882 
L 455.006202 407.918305 
L 455.067081 404.74639 
L 455.188839 415.292857 
L 455.310597 415.196554 
L 455.432354 415.470907 
L 456.710809 415.426016 
L 456.893446 415.31593 
L 457.015203 415.465258 
L 457.928386 415.374251 
L 458.050143 415.209299 
L 458.476295 415.209299 
L 458.598053 415.374251 
L 458.841568 415.374251 
L 459.085083 413.481549 
L 459.145962 413.481549 
L 459.267719 413.909532 
L 459.328598 413.909532 
L 459.450356 414.068514 
L 459.815629 414.068514 
L 459.937386 413.268696 
L 460.911448 413.268696 
L 461.094084 413.148601 
L 461.154963 413.148601 
L 461.27672 414.899674 
L 461.459357 414.899674 
L 461.520236 415.027273 
L 461.581114 414.966891 
L 461.641993 414.966891 
L 461.763751 415.343395 
L 461.946387 415.208345 
L 462.616054 415.208345 
L 462.920448 412.517153 
L 463.529237 412.517153 
L 463.650994 413.889384 
L 463.894509 413.889384 
L 464.016267 415.393452 
L 464.198904 415.393452 
L 464.259782 415.209868 
L 464.38154 415.470943 
L 464.86857 415.483737 
L 465.233843 415.475424 
L 467.303723 415.515989 
L 467.425481 415.102563 
L 468.460421 415.19427 
L 468.582178 414.797767 
L 468.703936 414.797767 
L 468.825693 414.081631 
L 468.947451 414.081631 
L 469.069209 413.016579 
L 469.130088 406.297628 
L 469.190966 412.681135 
L 469.251845 411.43505 
L 469.373603 411.43505 
L 469.49536 414.868118 
L 470.04327 414.883813 
L 470.104149 414.733641 
L 470.165027 415.386344 
L 470.347664 410.026031 
L 470.469421 413.944526 
L 470.5303 412.696006 
L 470.652058 415.091366 
L 470.773816 415.091366 
L 470.895573 414.240222 
L 471.139088 414.240222 
L 471.260846 413.570086 
L 471.321725 413.570086 
L 471.443483 414.39326 
L 471.504361 414.39326 
L 471.626119 415.092722 
L 471.747877 414.255243 
L 471.808755 414.255243 
L 471.930513 414.068402 
L 472.113149 414.068402 
L 472.234907 413.344632 
L 473.087211 413.344632 
L 473.269847 415.479177 
L 473.513362 415.479177 
L 473.63512 415.256707 
L 474.304787 415.256707 
L 474.487423 415.378607 
L 474.974454 415.376912 
L 475.096211 415.176745 
L 475.217969 415.176745 
L 475.400606 415.46822 
L 476.435545 415.527188 
L 476.557303 415.328868 
L 476.800818 415.328868 
L 476.922576 415.47456 
L 477.105212 415.389655 
L 477.22697 415.286845 
L 478.505425 415.308908 
L 478.688062 415.495096 
L 478.931577 415.453029 
L 479.29685 415.46261 
L 479.418607 414.96019 
L 479.601244 415.028578 
L 479.78388 415.028578 
L 479.905638 412.709206 
L 481.732002 412.709206 
L 481.85376 414.691299 
L 481.914639 414.691299 
L 482.036396 414.314873 
L 482.401669 414.314873 
L 482.523427 413.888277 
L 482.827821 413.888277 
L 482.949579 415.285722 
L 483.071336 413.888277 
L 483.314851 413.888277 
L 483.436609 411.187351 
L 483.862761 411.187351 
L 483.92364 412.513511 
L 484.045397 406.910775 
L 484.167155 412.944275 
L 484.288913 412.944275 
L 484.471549 415.101401 
L 484.775943 415.101401 
L 484.897701 410.506015 
L 485.019458 415.105852 
L 485.44561 414.996169 
L 485.567368 414.17436 
L 486.602308 414.17436 
L 486.724065 413.394146 
L 487.51549 413.394146 
L 487.637247 415.164405 
L 487.759005 415.441357 
L 489.159218 415.383411 
L 489.341854 415.048874 
L 489.828885 415.048874 
L 489.889764 414.736309 
L 490.011521 415.318388 
L 490.194158 415.239164 
L 490.255036 415.239164 
L 490.376794 414.628047 
L 490.55943 414.628047 
L 490.681188 414.063531 
L 490.924703 414.063531 
L 490.985582 415.424766 
L 491.046461 415.274981 
L 491.472613 415.274981 
L 491.59437 415.511835 
L 491.837886 415.491129 
L 491.959643 413.932014 
L 492.020522 415.246536 
L 492.081401 415.230812 
L 492.203158 415.465491 
L 492.568431 414.290883 
L 492.690189 410.998807 
L 492.811947 414.216182 
L 492.872825 414.216182 
L 492.994583 406.820435 
L 493.298977 412.773492 
L 493.420735 411.262775 
L 493.481614 411.262775 
L 493.603371 409.777201 
L 494.212159 409.777201 
L 494.333917 407.013972 
L 494.577432 407.013972 
L 494.69919 409.777201 
L 495.855887 409.777201 
L 495.977645 409.191214 
L 496.525554 409.191214 
L 496.76907 413.854109 
L 497.743131 413.854109 
L 497.864888 414.791881 
L 497.925767 414.435892 
L 497.986646 414.561815 
L 498.047525 414.561815 
L 498.169282 414.157842 
L 498.230161 414.157842 
L 498.351919 414.900654 
L 498.595434 414.900654 
L 498.717192 414.443429 
L 500.239162 414.391385 
L 500.36092 415.174865 
L 500.84795 415.264355 
L 501.030587 415.480845 
L 501.091466 415.480845 
L 501.213223 414.949742 
L 501.334981 415.488426 
L 501.39586 415.488426 
L 501.517617 415.330176 
L 501.578496 415.330176 
L 501.700254 415.451438 
L 501.88289 415.382437 
L 501.943769 415.382437 
L 502.065527 414.271336 
L 502.248163 414.271336 
L 502.369921 413.397571 
L 502.430799 413.397571 
L 502.552557 415.296047 
L 502.735194 415.187514 
L 502.796072 415.187514 
L 502.91783 414.879838 
L 503.95277 414.879838 
L 504.074527 415.137451 
L 504.378922 415.137451 
L 504.500679 414.556084 
L 504.622437 415.104461 
L 505.292104 415.104461 
L 505.413861 414.657325 
L 505.657377 414.657325 
L 505.779134 415.127146 
L 505.840013 414.869435 
L 506.02265 415.249621 
L 506.50968 415.333806 
L 506.631438 415.023201 
L 507.240226 415.023201 
L 507.361983 415.269938 
L 507.483741 415.269938 
L 507.666378 415.50419 
L 507.849014 415.48865 
L 507.970772 415.050294 
L 508.275166 415.091154 
L 508.457802 414.168211 
L 508.57956 414.721231 
L 508.640439 414.721231 
L 508.762196 415.084755 
L 508.883954 415.084755 
L 508.944833 415.37857 
L 509.005711 415.16191 
L 509.188348 415.16191 
L 509.310106 414.708501 
L 509.553621 414.708501 
L 509.6145 413.439681 
L 509.736257 415.159633 
L 509.858015 414.685667 
L 509.918894 415.470242 
L 509.979773 415.253095 
L 510.223288 415.253095 
L 510.345045 414.73083 
L 510.405924 414.73083 
L 510.466803 414.993135 
L 510.527682 414.964943 
L 511.075591 414.993135 
L 511.197349 414.814292 
L 511.379985 414.814292 
L 511.501743 413.2348 
L 511.623501 414.992865 
L 511.684379 414.992865 
L 511.806137 415.284771 
L 512.049652 415.185337 
L 512.17141 413.791272 
L 512.232289 413.791272 
L 512.354046 415.346233 
L 512.597562 415.268764 
L 512.65844 415.192659 
L 512.780198 414.707326 
L 512.901956 414.707326 
L 513.023713 415.304834 
L 513.145471 415.395049 
L 513.20635 415.317895 
L 513.388986 414.764529 
L 513.449865 414.764529 
L 513.571623 415.323161 
L 513.754259 415.323161 
L 513.815138 415.206707 
L 513.876017 415.314051 
L 514.119532 415.314051 
L 514.24129 414.363382 
L 514.302168 414.363382 
L 514.423926 414.623647 
L 514.545684 414.623647 
L 514.72832 415.446834 
L 515.458866 415.436764 
L 515.580624 415.436764 
L 515.702381 414.872216 
L 515.885018 414.872216 
L 516.006775 413.820577 
L 516.128533 413.820577 
L 516.189412 415.25989 
L 516.25029 415.241023 
L 516.432927 415.367832 
L 517.041715 415.3594 
L 517.224352 415.463479 
L 521.181475 415.462129 
L 521.364111 415.264928 
L 522.764324 415.264928 
L 522.825203 415.459716 
L 522.886081 415.418058 
L 523.007839 415.418058 
L 523.129597 415.253163 
L 523.312233 415.253163 
L 523.433991 415.112229 
L 524.225415 415.082806 
L 524.347173 415.443846 
L 526.660568 415.414299 
L 526.843204 415.506383 
L 527.451992 415.514567 
L 530.008903 415.497406 
L 530.252418 415.16839 
L 530.67857 415.16839 
L 530.800327 414.409973 
L 532.20054 414.487811 
L 532.322298 415.304447 
L 532.931086 415.413183 
L 533.052843 415.076783 
L 533.113722 415.076783 
L 533.23548 415.369596 
L 533.72251 415.369596 
L 533.844268 415.183094 
L 533.905147 415.519729 
L 533.966026 415.46225 
L 534.087783 415.46225 
L 534.209541 409.991205 
L 534.392177 409.991205 
L 534.513935 405.299403 
L 536.157663 405.299403 
L 536.279421 408.341129 
L 536.644694 408.341129 
L 536.766451 398.417576 
L 537.131724 398.417576 
L 537.253482 409.265123 
L 538.3493 409.265123 
L 538.471058 412.195369 
L 540.175665 412.195369 
L 540.297422 414.033531 
L 541.393241 414.033531 
L 541.514999 414.912057 
L 542.245545 414.912057 
L 542.306423 415.399455 
L 542.367302 415.33148 
L 542.549939 415.449625 
L 542.610817 415.399659 
L 542.793454 415.494635 
L 547.907274 415.418113 
L 548.089911 415.36911 
L 548.211668 415.405073 
L 548.333426 415.011508 
L 548.455184 415.415811 
L 548.759578 415.415811 
L 548.881335 415.241341 
L 549.733639 415.297479 
L 549.794518 415.48575 
L 549.855396 415.359008 
L 550.342427 415.318053 
L 550.464185 414.519269 
L 550.646821 414.519269 
L 550.768579 413.173953 
L 551.19473 413.12976 
L 551.316488 412.43351 
L 551.499124 412.43351 
L 551.620882 413.596855 
L 551.681761 413.596855 
L 551.803519 415.185624 
L 551.864397 415.185624 
L 551.986155 413.596855 
L 552.290549 413.596855 
L 552.412307 413.405222 
L 552.655822 413.405222 
L 552.838458 415.22281 
L 552.899337 415.22281 
L 552.960216 414.804326 
L 553.021095 415.388299 
L 553.203731 413.044791 
L 553.325489 413.044791 
L 553.447247 413.749494 
L 554.482186 413.749494 
L 554.603944 412.186604 
L 555.090975 412.186604 
L 555.212732 415.272951 
L 555.273611 415.272951 
L 555.395369 415.091154 
L 555.578005 415.091154 
L 555.699763 414.826752 
L 555.82152 414.826752 
L 555.943278 414.94984 
L 556.247672 409.306937 
L 556.552066 409.306937 
L 556.673824 408.876689 
L 556.978218 408.876689 
L 557.099975 405.696669 
L 557.40437 405.696669 
L 557.526127 407.171169 
L 557.647885 407.171169 
L 557.769642 414.062485 
L 558.439309 414.062485 
L 558.561067 410.984219 
L 558.682825 413.854548 
L 558.743703 413.854548 
L 558.865461 414.350217 
L 559.352492 414.350217 
L 559.474249 415.158967 
L 560.022159 415.241348 
L 560.143916 414.778341 
L 560.630947 414.778341 
L 560.752704 415.42125 
L 560.874462 415.249589 
L 560.935341 415.249589 
L 561.057098 414.904771 
L 562.092038 414.904771 
L 562.213796 415.249589 
L 562.579069 415.249589 
L 562.639948 414.904771 
L 562.700826 415.145958 
L 563.126978 415.182393 
L 563.492251 411.249671 
L 563.55313 411.249671 
L 563.674887 415.401734 
L 563.796645 415.401734 
L 563.857524 414.902562 
L 563.979282 415.464232 
L 564.161918 415.428753 
L 564.892464 415.502685 
L 565.014221 414.953847 
L 565.196858 414.953847 
L 565.318615 414.432484 
L 566.718828 414.432484 
L 566.840586 413.479341 
L 567.14498 413.479341 
L 567.266738 415.49569 
L 567.997283 415.496166 
L 568.971344 415.432405 
L 569.093102 415.335509 
L 569.336617 415.375109 
L 569.580133 415.375109 
L 569.70189 415.18792 
L 569.762769 415.18792 
L 569.884527 413.879392 
L 569.945405 413.879392 
L 570.067163 414.042142 
L 570.310678 414.042142 
L 570.493315 414.160587 
L 570.554194 414.160587 
L 570.615072 412.688991 
L 570.73683 414.984158 
L 570.797709 414.984158 
L 570.919466 415.523842 
L 572.80671 415.522364 
L 572.928467 415.291969 
L 573.050225 415.509879 
L 573.354619 415.344949 
L 574.146044 415.25151 
L 574.267801 415.521555 
L 574.937468 415.495432 
L 575.059226 415.337545 
L 575.607135 415.430284 
L 575.911529 415.454699 
L 577.798773 415.47874 
L 577.859651 415.333399 
L 577.92053 415.391234 
L 578.224924 415.471352 
L 578.346682 415.528322 
L 578.529318 415.412288 
L 579.442501 415.514683 
L 579.686016 415.519879 
L 579.868652 415.389772 
L 580.112168 415.476451 
L 580.233925 415.155429 
L 580.660077 415.162815 
L 580.781835 415.522073 
L 580.903592 415.318134 
L 581.451502 415.318134 
L 581.51238 415.472964 
L 581.573259 415.418497 
L 581.755896 415.418497 
L 581.877653 415.158377 
L 582.973472 415.119846 
L 583.09523 415.270806 
L 583.399624 415.16114 
L 583.460502 415.497433 
L 583.521381 415.449383 
L 585.530382 415.429058 
L 585.65214 415.104484 
L 585.895655 415.104484 
L 585.956534 415.502671 
L 586.017413 415.259378 
L 586.321807 415.259378 
L 586.443564 415.51553 
L 586.504443 415.51553 
L 586.626201 415.333717 
L 586.808837 413.113508 
L 587.722019 413.113508 
L 587.843777 407.481432 
L 587.965535 415.227443 
L 588.330808 415.227443 
L 588.391686 415.429419 
L 588.452565 415.372339 
L 588.817838 415.429419 
L 588.939596 414.617734 
L 589.061353 403.317189 
L 589.183111 403.317189 
L 589.304869 399.211251 
L 589.426626 399.211251 
L 589.548384 411.794603 
L 590.461566 411.794603 
L 590.583324 415.458545 
L 590.705081 415.458545 
L 590.826839 415.271284 
L 590.948597 415.45198 
L 592.105294 415.501034 
L 592.227052 415.288873 
L 592.714082 415.288873 
L 592.83584 414.52954 
L 593.201113 414.52954 
L 593.32287 415.055412 
L 593.383749 415.055412 
L 593.505507 415.431785 
L 595.088356 415.524728 
L 595.210114 415.147965 
L 595.636265 415.147965 
L 595.758023 415.322281 
L 595.94066 415.250018 
L 596.123296 415.351145 
L 596.245054 415.461511 
L 596.42769 415.526497 
L 596.671205 415.482081 
L 598.010539 415.373127 
L 598.436691 415.355765 
L 599.776025 415.273182 
L 599.836904 412.861129 
L 599.897783 413.95399 
L 599.958661 413.95399 
L 600.080419 414.17019 
L 600.323934 414.17019 
L 600.445692 414.880087 
L 600.506571 414.880087 
L 600.628328 412.327449 
L 601.237116 412.327449 
L 601.419753 415.021514 
L 601.541511 415.436408 
L 601.967662 415.52109 
L 602.332935 415.498672 
L 602.57645 415.437368 
L 602.698208 415.437368 
L 602.819966 415.285435 
L 603.185239 415.32529 
L 603.246117 415.499078 
L 603.306996 415.448721 
L 603.489633 415.498886 
L 604.341936 415.454593 
L 604.402815 415.132227 
L 604.524572 415.433975 
L 605.985664 415.368274 
L 606.107422 414.873591 
L 606.411816 414.873591 
L 606.472695 415.066627 
L 606.594452 412.028371 
L 606.959725 412.028371 
L 607.081483 414.245122 
L 607.446756 414.245122 
L 607.568513 413.799134 
L 607.629392 413.799134 
L 607.75115 414.555825 
L 607.812028 414.555825 
L 607.933786 415.38851 
L 608.542574 415.451201 
L 608.725211 415.510885 
L 608.968726 415.472476 
L 609.151362 415.38116 
L 609.455756 415.38116 
L 609.638393 415.264232 
L 609.942787 415.264232 
L 610.064545 415.011109 
L 611.099484 415.011109 
L 611.221242 414.062859 
L 611.464757 414.062859 
L 611.586515 409.766209 
L 612.134424 409.766209 
L 612.256182 408.554061 
L 613.047607 408.554061 
L 613.169364 410.605526 
L 613.352001 410.605526 
L 613.473758 408.554061 
L 614.326062 408.554061 
L 614.447819 409.584402 
L 614.691335 409.584402 
L 614.813092 403.711287 
L 614.93485 411.867159 
L 615.056607 411.867159 
L 615.178365 412.565175 
L 615.239244 412.565175 
L 615.361002 411.480677 
L 615.726274 411.480677 
L 615.848032 413.787874 
L 618.100548 413.787874 
L 618.222306 415.502861 
L 618.344063 415.502861 
L 618.465821 415.091487 
L 618.587579 406.270898 
L 618.831094 406.270898 
L 618.952852 408.591933 
L 619.500761 408.591933 
L 619.622519 409.545755 
L 619.926913 409.545755 
L 620.04867 415.090066 
L 620.59658 415.074414 
L 620.779216 414.938783 
L 621.448883 414.938783 
L 621.570641 406.441072 
L 622.179429 406.441072 
L 622.362065 412.562678 
L 622.422944 412.562678 
L 622.544702 411.039033 
L 622.970853 411.039033 
L 623.092611 415.136477 
L 623.15349 415.136477 
L 623.275248 413.375781 
L 623.397005 413.375781 
L 623.518763 411.573647 
L 623.823157 411.573647 
L 623.884036 406.086732 
L 623.944914 409.610698 
L 624.18843 409.610698 
L 624.310187 414.115237 
L 624.858097 414.115237 
L 624.918976 415.420603 
L 624.979854 415.412817 
L 625.893037 415.469688 
L 626.014794 415.160985 
L 626.136552 415.474982 
L 626.197431 415.469247 
L 626.380067 414.344043 
L 626.440946 414.344043 
L 626.501825 415.389782 
L 626.623582 414.467636 
L 626.74534 414.467636 
L 626.988855 410.505669 
L 627.171492 410.505669 
L 627.293249 412.271564 
L 627.597643 412.271564 
L 627.841159 411.667964 
L 628.328189 411.667964 
L 628.449947 415.239274 
L 628.510826 415.239274 
L 628.632583 411.558601 
L 628.754341 414.415647 
L 629.180493 414.415647 
L 629.363129 415.526039 
L 629.424008 415.155618 
L 629.484887 415.406132 
L 630.519827 415.406132 
L 630.641584 413.543306 
L 631.128615 413.543306 
L 631.250372 410.639965 
L 632.589706 410.639965 
L 632.711464 414.687126 
L 632.772343 415.281015 
L 632.833222 415.128702 
L 633.015858 415.128702 
L 633.137616 414.657556 
L 633.259373 414.657556 
L 633.381131 412.191819 
L 633.502888 411.819303 
L 633.868161 411.77819 
L 633.92904 411.194773 
L 634.050798 413.826018 
L 634.233434 413.826018 
L 634.355192 414.499635 
L 634.659586 414.499635 
L 634.842222 414.694912 
L 635.329253 414.694912 
L 635.451011 411.715584 
L 636.181556 411.715584 
L 636.303314 414.919083 
L 636.425072 414.919083 
L 636.546829 415.524058 
L 636.972981 415.493795 
L 637.216496 415.168771 
L 637.338254 415.274495 
L 637.460011 415.003462 
L 637.581769 415.003462 
L 637.764406 415.42711 
L 637.947042 415.38569 
L 638.0688 414.518524 
L 638.677588 414.518524 
L 638.799345 415.363981 
L 640.62571 415.414831 
L 640.808346 415.492519 
L 641.538892 415.399177 
L 641.66065 415.503458 
L 641.782407 415.217001 
L 641.904165 415.217001 
L 642.025923 415.392914 
L 642.452074 415.448482 
L 642.634711 415.521614 
L 644.948106 415.463576 
L 645.069863 415.368707 
L 645.191621 415.522911 
L 645.2525 415.522911 
L 645.374257 415.374226 
L 645.617773 415.352087 
L 645.73953 413.667039 
L 645.922167 413.667039 
L 646.043924 408.876251 
L 646.470076 408.876251 
L 646.591834 383.085512 
L 647.505016 383.085512 
L 647.626774 399.694322 
L 648.113804 399.694322 
L 648.174683 387.172199 
L 648.235562 387.259844 
L 648.600835 387.259844 
L 648.722592 394.454471 
L 649.209623 394.454471 
L 649.33138 406.454829 
L 649.392259 406.454829 
L 649.453138 410.818685 
L 649.574896 356.012197 
L 650.001047 356.012197 
L 650.122805 334.913956 
L 650.427199 334.913956 
L 650.548957 396.864621 
L 650.609836 396.864621 
L 650.731593 390.222709 
L 650.975108 390.222709 
L 651.096866 409.578346 
L 651.523018 409.578346 
L 651.705654 415.224264 
L 652.070927 415.224264 
L 652.192685 413.616641 
L 652.4362 413.616641 
L 652.557958 412.487875 
L 652.618836 412.487875 
L 652.740594 414.350636 
L 653.47114 414.350636 
L 653.592897 409.209683 
L 653.714655 409.209683 
L 653.836413 412.452749 
L 654.201686 412.452749 
L 654.323443 413.061564 
L 655.175747 413.13857 
L 655.297504 413.677697 
L 655.419262 413.677697 
L 655.54102 415.25757 
L 657.428263 415.271531 
L 657.55002 414.89786 
L 657.854415 414.89786 
L 657.976172 408.05061 
L 661.324507 408.086966 
L 661.446265 412.111054 
L 661.507143 412.111054 
L 661.628901 407.281474 
L 663.029114 407.281474 
L 663.150871 414.420867 
L 663.272629 414.420867 
L 663.394387 414.773464 
L 663.455266 414.773464 
L 663.577023 415.164223 
L 663.820538 415.164223 
L 664.003175 415.284633 
L 664.307569 415.284633 
L 664.429327 414.49603 
L 665.220751 414.551405 
L 665.342509 415.225103 
L 666.012176 415.301859 
L 666.133933 415.099091 
L 666.438327 415.099091 
L 666.560085 413.448191 
L 666.681843 415.147707 
L 666.8036 415.147707 
L 666.925358 413.973813 
L 668.812601 413.988364 
L 668.934359 414.451854 
L 669.786662 414.451854 
L 669.90842 414.913814 
L 669.969299 414.913814 
L 670.091056 415.074882 
L 670.273693 414.912178 
L 670.334572 414.995184 
L 670.578087 414.714572 
L 671.004239 414.714572 
L 671.125996 414.886526 
L 672.404451 414.886526 
L 672.526209 415.484719 
L 673.50027 415.521935 
L 673.622028 415.361862 
L 673.926422 415.361862 
L 674.048179 414.945766 
L 674.291695 414.945766 
L 674.413452 415.389428 
L 674.596089 415.315096 
L 674.717846 413.722431 
L 674.839604 413.722431 
L 674.961362 413.97691 
L 675.509271 413.97691 
L 675.631029 415.427908 
L 675.874544 415.427908 
L 675.996301 415.1604 
L 676.178938 415.1604 
L 676.300696 415.496759 
L 676.422453 415.057024 
L 678.187939 415.133894 
L 678.309696 415.449088 
L 679.405515 415.349143 
L 679.527273 414.814566 
L 679.770788 414.814566 
L 679.892546 415.475642 
L 680.19694 415.470546 
L 680.866607 415.368719 
L 680.988364 413.301672 
L 681.110122 415.334322 
L 681.353637 415.334322 
L 681.414516 414.673447 
L 681.597152 415.505815 
L 682.145062 415.399925 
L 682.266819 415.080966 
L 682.449456 415.211938 
L 682.692971 415.211938 
L 682.814729 414.671605 
L 682.875608 414.671605 
L 682.997365 415.506309 
L 683.910547 415.50646 
L 684.397578 415.372476 
L 684.580214 415.291423 
L 684.641093 415.278355 
L 684.762851 415.459751 
L 684.884608 415.148549 
L 685.006366 415.148549 
L 685.128124 415.409743 
L 685.249881 415.486128 
L 685.432518 415.522518 
L 685.615154 415.40772 
L 685.736912 415.095608 
L 685.980427 415.095608 
L 686.102185 414.200702 
L 686.223942 414.200702 
L 686.3457 415.178594 
L 686.467458 415.317625 
L 687.137125 415.344455 
L 687.258882 415.509763 
L 687.38064 415.249704 
L 689.267883 415.170364 
L 689.511398 415.135846 
L 690.120187 415.135846 
L 690.241944 415.478823 
L 690.302823 415.436818 
L 690.424581 414.989755 
L 690.789854 414.989755 
L 691.033369 415.399199 
L 691.581278 415.432521 
L 691.642157 415.278256 
L 691.763915 413.862266 
L 693.04237 413.862266 
L 693.164127 413.180482 
L 693.285885 414.106435 
L 693.5294 411.259206 
L 694.07731 411.259206 
L 694.199067 414.289681 
L 694.807855 414.308284 
L 694.929613 414.105717 
L 694.990492 414.105717 
L 695.112249 415.181926 
L 695.294886 415.285135 
L 695.477522 415.285135 
L 695.59928 415.496953 
L 696.268947 415.489557 
L 696.390705 415.329485 
L 696.695099 415.329485 
L 696.816856 415.4556 
L 698.399705 415.352612 
L 698.460584 414.968118 
L 698.521463 415.356228 
L 698.582342 415.190779 
L 699.678161 415.190779 
L 699.799918 415.516339 
L 700.286949 415.510858 
L 700.408706 415.287505 
L 700.773979 415.394258 
L 700.895737 415.501857 
L 703.81792 415.488584 
L 703.878799 415.284604 
L 703.939678 415.307607 
L 704.183193 415.268499 
L 704.30495 414.983278 
L 705.096375 414.983278 
L 705.218133 415.15834 
L 705.705163 415.15834 
L 705.826921 414.591455 
L 706.253073 414.666394 
L 706.435709 415.423524 
L 706.557467 415.009049 
L 706.679224 415.465212 
L 706.740103 415.136281 
L 706.800982 415.472494 
L 706.861861 415.369793 
L 707.166255 415.369793 
L 707.348891 415.498428 
L 707.470649 415.526115 
L 707.653285 415.443709 
L 710.697226 415.513802 
L 710.818984 415.27251 
L 711.488651 415.305698 
L 711.671287 415.391336 
L 712.462712 415.3573 
L 712.584469 415.254185 
L 712.645348 415.451224 
L 712.706227 415.290096 
L 713.193258 415.290096 
L 713.315015 414.95172 
L 714.776107 414.95172 
L 714.897864 415.325362 
L 717.759169 415.397687 
L 717.941805 415.510477 
L 719.463775 415.506632 
L 719.585533 415.141628 
L 719.829048 415.141628 
L 719.950806 415.419037 
L 720.072564 413.502818 
L 720.316079 413.502818 
L 720.437837 415.017015 
L 720.985746 415.017015 
L 721.168382 415.371866 
L 721.229261 415.371866 
L 721.351019 414.976592 
L 721.472776 415.172617 
L 722.32508 415.172617 
L 722.446837 415.413619 
L 722.690353 415.412703 
L 722.81211 413.979292 
L 722.933868 413.979292 
L 723.055626 415.013068 
L 723.420898 415.013068 
L 723.542656 415.361203 
L 724.334081 415.471655 
L 725.064626 415.521681 
L 725.429899 415.031606 
L 725.551657 415.031606 
L 725.734293 415.143046 
L 725.977809 415.143046 
L 726.099566 414.788391 
L 726.282203 414.788391 
L 726.40396 414.457245 
L 727.98681 414.457245 
L 728.108567 413.552231 
L 728.230325 413.552231 
L 728.352082 412.885438 
L 728.47384 413.953215 
L 729.082628 413.953215 
L 729.204386 414.39224 
L 729.265265 414.39224 
L 729.447901 415.514913 
L 729.569659 415.522759 
L 729.691416 415.282041 
L 729.752295 415.282041 
L 729.874053 415.418711 
L 731.213387 415.410076 
L 731.335144 415.249904 
L 731.639538 415.249904 
L 731.883054 415.488477 
L 732.430963 415.480452 
L 732.552721 414.731436 
L 732.857115 414.711881 
L 732.917994 412.64803 
L 733.039751 415.401089 
L 733.222388 415.399642 
L 733.344145 415.14554 
L 733.526782 415.059083 
L 733.648539 413.370412 
L 733.831176 413.370412 
L 733.952933 415.327357 
L 734.074691 415.327357 
L 734.196449 415.078531 
L 734.257328 415.279459 
L 734.379085 414.964267 
L 735.048752 414.964267 
L 735.17051 415.507689 
L 735.414025 415.475837 
L 735.901056 415.489823 
L 736.022813 415.350101 
L 736.875117 415.319364 
L 737.057753 415.226573 
L 737.301268 415.226573 
L 737.423026 415.410588 
L 737.544784 415.410588 
L 737.72742 415.22028 
L 737.788299 415.19067 
L 737.910056 414.843585 
L 738.031814 415.329992 
L 738.457966 415.329992 
L 738.579723 414.945202 
L 738.640602 413.252222 
L 738.76236 314.890665 
L 738.823239 314.890665 
L 738.944996 411.449176 
L 739.858179 411.449176 
L 739.979936 414.701145 
L 740.223451 414.701145 
L 740.345209 414.968229 
L 740.466967 414.968229 
L 740.588724 414.604648 
L 740.771361 414.604648 
L 740.893118 415.405473 
L 740.953997 415.405473 
L 741.075755 413.034982 
L 741.136634 413.034982 
L 741.258391 414.673861 
L 741.928058 414.640748 
L 741.988937 414.269068 
L 742.110695 412.259554 
L 742.84124 412.259554 
L 742.962998 408.521761 
L 743.328271 408.521761 
L 743.450029 404.539738 
L 743.937059 404.539738 
L 744.180574 401.370953 
L 745.702545 401.370953 
L 745.824302 406.003563 
L 745.885181 406.003563 
L 746.006939 398.781506 
L 746.128697 398.781506 
L 746.250454 409.574395 
L 746.433091 409.574395 
L 746.554848 409.361412 
L 747.163636 409.361412 
L 747.163636 409.361412 
" clip-path="url(#p1cdec419bc)" style="fill: none; stroke: #4c72b0; stroke-width: 2; stroke-linecap: round"/>
   </g>
   <g id="patch_3">
    <path d="M 108 432.54 
L 108 58.32 
" style="fill: none; stroke: #000000; stroke-linejoin: miter; stroke-linecap: square"/>
   </g>
   <g id="patch_4">
    <path d="M 777.6 432.54 
L 777.6 58.32 
" style="fill: none; stroke: #000000; stroke-linejoin: miter; stroke-linecap: square"/>
   </g>
   <g id="patch_5">
    <path d="M 108 432.54 
L 777.6 432.54 
" style="fill: none; stroke: #000000; stroke-linejoin: miter; stroke-linecap: square"/>
   </g>
   <g id="patch_6">
    <path d="M 108 58.32 
L 777.6 58.32 
" style="fill: none; stroke: #000000; stroke-linejoin: miter; stroke-linecap: square"/>
   </g>
   <g id="legend_1">
    <g id="patch_7">
     <path d="M 691.366018 89.032028 
L 767.8 89.032028 
Q 770.6 89.032028 770.6 86.232028 
L 770.6 68.12 
Q 770.6 65.32 767.8 65.32 
L 691.366018 65.32 
Q 688.566018 65.32 688.566018 68.12 
L 688.566018 86.232028 
Q 688.566018 89.032028 691.366018 89.032028 
z
" style="fill: #ffffff; opacity: 0.8; stroke: #cccccc; stroke-width: 0.8; stroke-linejoin: miter"/>
    </g>
    <g id="line2d_41">
     <path d="M 694.166018 75.82 
L 708.166018 75.82 
L 722.166018 75.82 
" style="fill: none; stroke: #4c72b0; stroke-width: 2; stroke-linecap: round"/>
    </g>
    <g id="text_17">
     <!-- $j = 2$ -->
     <g style="fill: #262626" transform="translate(733.366018 80.72) scale(0.14 -0.14)">
      <defs>
       <path id="CMR17-3d" d="M 4115 2048 
C 4211 2048 4307 2048 4307 2156 
C 4307 2272 4198 2272 4090 2272 
L 512 2272 
C 403 2272 294 2272 294 2156 
C 294 2048 390 2048 486 2048 
L 4115 2048 
z
M 4090 927 
C 4198 927 4307 927 4307 1043 
C 4307 1152 4211 1152 4115 1152 
L 486 1152 
C 390 1152 294 1152 294 1043 
C 294 927 403 927 512 927 
L 4090 927 
z
" transform="scale(0.015625)"/>
      </defs>
      <use xlink:href="#CMMI12-6a" transform="scale(0.996264)"/>
      <use xlink:href="#CMR17-3d" transform="translate(73.636491 0) scale(0.996264)"/>
      <use xlink:href="#CMR17-32" transform="translate(173.025288 0) scale(0.996264)"/>
     </g>
    </g>
   </g>
  </g>
 </g>
 <defs>
  <clipPath id="p1cdec419bc">
   <rect x="108" y="58.32" width="669.6" height="374.22"/>
  </clipPath>
 </defs>
</svg>
