<?xml version="1.0" encoding="utf-8" standalone="no"?>
<!DOCTYPE svg PUBLIC "-//W3C//DTD SVG 1.1//EN"
  "http://www.w3.org/Graphics/SVG/1.1/DTD/svg11.dtd">
<svg xmlns:xlink="http://www.w3.org/1999/xlink" width="864pt" height="486pt" viewBox="0 0 864 486" xmlns="http://www.w3.org/2000/svg" version="1.1">
 <metadata>
  <rdf:RDF xmlns:dc="http://purl.org/dc/elements/1.1/" xmlns:cc="http://creativecommons.org/ns#" xmlns:rdf="http://www.w3.org/1999/02/22-rdf-syntax-ns#">
   <cc:Work>
    <dc:type rdf:resource="http://purl.org/dc/dcmitype/StillImage"/>
    <dc:date>2023-02-09T16:22:49.747201</dc:date>
    <dc:format>image/svg+xml</dc:format>
    <dc:creator>
     <cc:Agent>
      <dc:title>Matplotlib v3.6.2, https://matplotlib.org/</dc:title>
     </cc:Agent>
    </dc:creator>
   </cc:Work>
  </rdf:RDF>
 </metadata>
 <defs>
  <style type="text/css">*{stroke-linejoin: round; stroke-linecap: butt}</style>
 </defs>
 <g id="figure_1">
  <g id="patch_1">
   <path d="M 0 486 
L 864 486 
L 864 0 
L 0 0 
z
" style="fill: #ffffff"/>
  </g>
  <g id="axes_1">
   <g id="patch_2">
    <path d="M 108 432.54 
L 777.6 432.54 
L 777.6 58.32 
L 108 58.32 
z
" style="fill: #ffffff"/>
   </g>
   <g id="matplotlib.axis_1">
    <g id="xtick_1">
     <g id="line2d_1">
      <path d="M 138.375485 432.54 
L 138.375485 58.32 
" clip-path="url(#paf14682205)" style="fill: none; stroke: #e6e6e6; stroke-width: 0.8; stroke-linecap: round"/>
     </g>
     <g id="line2d_2">
      <defs>
       <path id="m0f18caf502" d="M 0 0 
L 0 -4.8 
" style="stroke: #262626"/>
      </defs>
      <g>
       <use xlink:href="#m0f18caf502" x="138.375485" y="432.54" style="fill: #262626; stroke: #262626"/>
      </g>
     </g>
     <g id="line2d_3">
      <defs>
       <path id="mf030ac5be2" d="M 0 0 
L 0 4.8 
" style="stroke: #262626"/>
      </defs>
      <g>
       <use xlink:href="#mf030ac5be2" x="138.375485" y="58.32" style="fill: #262626; stroke: #262626"/>
      </g>
     </g>
     <g id="text_1">
      <!-- $\mathdefault{0}$ -->
      <g style="fill: #262626" transform="translate(135.156348 445.172395) scale(0.132 -0.132)">
       <defs>
        <path id="CMR17-30" d="M 2688 2038 
C 2688 2430 2682 3099 2413 3613 
C 2176 4063 1798 4224 1466 4224 
C 1158 4224 768 4082 525 3620 
C 269 3137 243 2539 243 2038 
C 243 1671 250 1112 448 623 
C 723 -39 1216 -128 1466 -128 
C 1760 -128 2208 -7 2470 604 
C 2662 1048 2688 1568 2688 2038 
z
M 1466 -26 
C 1056 -26 813 328 723 816 
C 653 1196 653 1749 653 2109 
C 653 2604 653 3015 736 3407 
C 858 3954 1216 4121 1466 4121 
C 1728 4121 2067 3947 2189 3420 
C 2272 3054 2278 2623 2278 2109 
C 2278 1691 2278 1176 2202 797 
C 2067 96 1690 -26 1466 -26 
z
" transform="scale(0.015625)"/>
       </defs>
       <use xlink:href="#CMR17-30" transform="scale(0.996264)"/>
      </g>
     </g>
    </g>
    <g id="xtick_2">
     <g id="line2d_4">
      <path d="M 260.133115 432.54 
L 260.133115 58.32 
" clip-path="url(#paf14682205)" style="fill: none; stroke: #e6e6e6; stroke-width: 0.8; stroke-linecap: round"/>
     </g>
     <g id="line2d_5">
      <g>
       <use xlink:href="#m0f18caf502" x="260.133115" y="432.54" style="fill: #262626; stroke: #262626"/>
      </g>
     </g>
     <g id="line2d_6">
      <g>
       <use xlink:href="#mf030ac5be2" x="260.133115" y="58.32" style="fill: #262626; stroke: #262626"/>
      </g>
     </g>
     <g id="text_2">
      <!-- $\mathdefault{2000}$ -->
      <g style="fill: #262626" transform="translate(247.256567 445.172395) scale(0.132 -0.132)">
       <defs>
        <path id="CMR17-32" d="M 2669 990 
L 2554 990 
C 2490 537 2438 460 2413 422 
C 2381 371 1920 371 1830 371 
L 602 371 
C 832 620 1280 1073 1824 1596 
C 2214 1966 2669 2400 2669 3033 
C 2669 3788 2067 4224 1395 4224 
C 691 4224 262 3603 262 3027 
C 262 2777 448 2745 525 2745 
C 589 2745 781 2783 781 3007 
C 781 3206 614 3264 525 3264 
C 486 3264 448 3257 422 3244 
C 544 3788 915 4057 1306 4057 
C 1862 4057 2227 3616 2227 3033 
C 2227 2477 1901 1998 1536 1583 
L 262 147 
L 262 0 
L 2515 0 
L 2669 990 
z
" transform="scale(0.015625)"/>
       </defs>
       <use xlink:href="#CMR17-32" transform="scale(0.996264)"/>
       <use xlink:href="#CMR17-30" transform="translate(45.690477 0) scale(0.996264)"/>
       <use xlink:href="#CMR17-30" transform="translate(91.380954 0) scale(0.996264)"/>
       <use xlink:href="#CMR17-30" transform="translate(137.071431 0) scale(0.996264)"/>
      </g>
     </g>
    </g>
    <g id="xtick_3">
     <g id="line2d_7">
      <path d="M 381.890745 432.54 
L 381.890745 58.32 
" clip-path="url(#paf14682205)" style="fill: none; stroke: #e6e6e6; stroke-width: 0.8; stroke-linecap: round"/>
     </g>
     <g id="line2d_8">
      <g>
       <use xlink:href="#m0f18caf502" x="381.890745" y="432.54" style="fill: #262626; stroke: #262626"/>
      </g>
     </g>
     <g id="line2d_9">
      <g>
       <use xlink:href="#mf030ac5be2" x="381.890745" y="58.32" style="fill: #262626; stroke: #262626"/>
      </g>
     </g>
     <g id="text_3">
      <!-- $\mathdefault{4000}$ -->
      <g style="fill: #262626" transform="translate(369.014197 445.172395) scale(0.132 -0.132)">
       <defs>
        <path id="CMR17-34" d="M 2150 4147 
C 2150 4281 2144 4288 2029 4288 
L 128 1254 
L 128 1088 
L 1779 1088 
L 1779 460 
C 1779 230 1766 166 1318 166 
L 1197 166 
L 1197 0 
C 1402 12 1747 12 1965 12 
C 2182 12 2528 12 2733 0 
L 2733 166 
L 2611 166 
C 2163 166 2150 230 2150 460 
L 2150 1088 
L 2803 1088 
L 2803 1254 
L 2150 1254 
L 2150 4147 
z
M 1798 3723 
L 1798 1254 
L 256 1254 
L 1798 3723 
z
" transform="scale(0.015625)"/>
       </defs>
       <use xlink:href="#CMR17-34" transform="scale(0.996264)"/>
       <use xlink:href="#CMR17-30" transform="translate(45.690477 0) scale(0.996264)"/>
       <use xlink:href="#CMR17-30" transform="translate(91.380954 0) scale(0.996264)"/>
       <use xlink:href="#CMR17-30" transform="translate(137.071431 0) scale(0.996264)"/>
      </g>
     </g>
    </g>
    <g id="xtick_4">
     <g id="line2d_10">
      <path d="M 503.648376 432.54 
L 503.648376 58.32 
" clip-path="url(#paf14682205)" style="fill: none; stroke: #e6e6e6; stroke-width: 0.8; stroke-linecap: round"/>
     </g>
     <g id="line2d_11">
      <g>
       <use xlink:href="#m0f18caf502" x="503.648376" y="432.54" style="fill: #262626; stroke: #262626"/>
      </g>
     </g>
     <g id="line2d_12">
      <g>
       <use xlink:href="#mf030ac5be2" x="503.648376" y="58.32" style="fill: #262626; stroke: #262626"/>
      </g>
     </g>
     <g id="text_4">
      <!-- $\mathdefault{6000}$ -->
      <g style="fill: #262626" transform="translate(490.771828 445.172395) scale(0.132 -0.132)">
       <defs>
        <path id="CMR17-36" d="M 678 2198 
C 678 3712 1395 4076 1811 4076 
C 1946 4076 2272 4049 2400 3782 
C 2298 3782 2106 3782 2106 3558 
C 2106 3385 2246 3328 2336 3328 
C 2394 3328 2566 3353 2566 3571 
C 2566 3987 2246 4224 1805 4224 
C 1043 4224 243 3411 243 2011 
C 243 257 966 -128 1478 -128 
C 2099 -128 2688 431 2688 1295 
C 2688 2101 2170 2688 1517 2688 
C 1126 2688 838 2430 678 1979 
L 678 2198 
z
M 1478 25 
C 691 25 691 1212 691 1450 
C 691 1914 909 2585 1504 2585 
C 1613 2585 1926 2585 2138 2140 
C 2253 1889 2253 1624 2253 1302 
C 2253 954 2253 696 2118 438 
C 1978 173 1773 25 1478 25 
z
" transform="scale(0.015625)"/>
       </defs>
       <use xlink:href="#CMR17-36" transform="scale(0.996264)"/>
       <use xlink:href="#CMR17-30" transform="translate(45.690477 0) scale(0.996264)"/>
       <use xlink:href="#CMR17-30" transform="translate(91.380954 0) scale(0.996264)"/>
       <use xlink:href="#CMR17-30" transform="translate(137.071431 0) scale(0.996264)"/>
      </g>
     </g>
    </g>
    <g id="xtick_5">
     <g id="line2d_13">
      <path d="M 625.406006 432.54 
L 625.406006 58.32 
" clip-path="url(#paf14682205)" style="fill: none; stroke: #e6e6e6; stroke-width: 0.8; stroke-linecap: round"/>
     </g>
     <g id="line2d_14">
      <g>
       <use xlink:href="#m0f18caf502" x="625.406006" y="432.54" style="fill: #262626; stroke: #262626"/>
      </g>
     </g>
     <g id="line2d_15">
      <g>
       <use xlink:href="#mf030ac5be2" x="625.406006" y="58.32" style="fill: #262626; stroke: #262626"/>
      </g>
     </g>
     <g id="text_5">
      <!-- $\mathdefault{8000}$ -->
      <g style="fill: #262626" transform="translate(612.529458 445.172395) scale(0.132 -0.132)">
       <defs>
        <path id="CMR17-38" d="M 1741 2289 
C 2144 2494 2554 2803 2554 3298 
C 2554 3884 1990 4224 1472 4224 
C 890 4224 378 3800 378 3215 
C 378 3054 416 2777 666 2533 
C 730 2469 998 2276 1171 2154 
C 883 2006 211 1652 211 945 
C 211 282 838 -128 1459 -128 
C 2144 -128 2720 366 2720 1022 
C 2720 1607 2330 1877 2074 2051 
L 1741 2289 
z
M 902 2855 
C 851 2887 595 3086 595 3388 
C 595 3781 998 4076 1459 4076 
C 1965 4076 2336 3716 2336 3298 
C 2336 2700 1670 2359 1638 2359 
C 1632 2359 1626 2359 1574 2398 
L 902 2855 
z
M 2080 1536 
C 2176 1466 2483 1253 2483 861 
C 2483 385 2010 25 1472 25 
C 890 25 448 443 448 951 
C 448 1459 838 1884 1280 2083 
L 2080 1536 
z
" transform="scale(0.015625)"/>
       </defs>
       <use xlink:href="#CMR17-38" transform="scale(0.996264)"/>
       <use xlink:href="#CMR17-30" transform="translate(45.690477 0) scale(0.996264)"/>
       <use xlink:href="#CMR17-30" transform="translate(91.380954 0) scale(0.996264)"/>
       <use xlink:href="#CMR17-30" transform="translate(137.071431 0) scale(0.996264)"/>
      </g>
     </g>
    </g>
    <g id="xtick_6">
     <g id="line2d_16">
      <path d="M 747.163636 432.54 
L 747.163636 58.32 
" clip-path="url(#paf14682205)" style="fill: none; stroke: #e6e6e6; stroke-width: 0.8; stroke-linecap: round"/>
     </g>
     <g id="line2d_17">
      <g>
       <use xlink:href="#m0f18caf502" x="747.163636" y="432.54" style="fill: #262626; stroke: #262626"/>
      </g>
     </g>
     <g id="line2d_18">
      <g>
       <use xlink:href="#mf030ac5be2" x="747.163636" y="58.32" style="fill: #262626; stroke: #262626"/>
      </g>
     </g>
     <g id="text_6">
      <!-- $\mathdefault{10000}$ -->
      <g style="fill: #262626" transform="translate(731.067951 445.172395) scale(0.132 -0.132)">
       <defs>
        <path id="CMR17-31" d="M 1702 4083 
C 1702 4217 1696 4224 1606 4224 
C 1357 3927 979 3833 621 3820 
C 602 3820 570 3820 563 3808 
C 557 3795 557 3782 557 3648 
C 755 3648 1088 3686 1344 3839 
L 1344 467 
C 1344 243 1331 166 781 166 
L 589 166 
L 589 0 
C 896 6 1216 12 1523 12 
C 1830 12 2150 6 2458 0 
L 2458 166 
L 2266 166 
C 1715 166 1702 236 1702 467 
L 1702 4083 
z
" transform="scale(0.015625)"/>
       </defs>
       <use xlink:href="#CMR17-31" transform="scale(0.996264)"/>
       <use xlink:href="#CMR17-30" transform="translate(45.690477 0) scale(0.996264)"/>
       <use xlink:href="#CMR17-30" transform="translate(91.380954 0) scale(0.996264)"/>
       <use xlink:href="#CMR17-30" transform="translate(137.071431 0) scale(0.996264)"/>
       <use xlink:href="#CMR17-30" transform="translate(182.761908 0) scale(0.996264)"/>
      </g>
     </g>
    </g>
    <g id="text_7">
     <!-- step ($s$) -->
     <g style="fill: #262626" transform="translate(419.734282 462.489095) scale(0.144 -0.144)">
      <defs>
       <path id="CMSS17-73" d="M 2061 2623 
C 1683 2803 1389 2816 1197 2816 
C 742 2816 198 2655 198 2009 
C 198 1363 902 1222 1094 1183 
C 1389 1126 1715 1062 1715 742 
C 1715 339 1254 339 1171 339 
C 915 339 563 409 243 639 
L 166 211 
C 531 0 883 -64 1178 -64 
C 1965 -64 2163 416 2163 780 
C 2163 1094 1984 1305 1862 1401 
C 1651 1567 1574 1587 1050 1695 
C 960 1708 646 1779 646 2067 
C 646 2431 1050 2431 1139 2431 
C 1555 2431 1811 2303 1984 2207 
L 2061 2623 
z
" transform="scale(0.015625)"/>
       <path id="CMSS17-74" d="M 1069 2380 
L 1901 2380 
L 1901 2752 
L 1069 2752 
L 1069 3520 
L 614 3520 
L 614 2752 
L 109 2752 
L 109 2380 
L 602 2380 
L 602 751 
C 602 384 685 -64 1107 -64 
C 1427 -64 1722 25 2003 172 
L 1901 551 
C 1747 416 1562 339 1363 339 
C 1082 339 1069 699 1069 860 
L 1069 2380 
z
" transform="scale(0.015625)"/>
       <path id="CMSS17-65" d="M 2502 1375 
C 2502 1587 2490 2001 2285 2347 
C 2061 2713 1696 2816 1421 2816 
C 755 2816 192 2184 192 1363 
C 192 579 774 -64 1510 -64 
C 1798 -64 2150 19 2470 249 
C 2470 275 2458 414 2451 421 
C 2451 433 2432 629 2432 655 
C 2125 408 1773 326 1517 326 
C 1107 326 666 667 646 1375 
L 2502 1375 
z
M 698 1728 
C 781 2086 1062 2425 1421 2425 
C 1517 2425 1965 2412 2080 1728 
L 698 1728 
z
" transform="scale(0.015625)"/>
       <path id="CMSS17-70" d="M 966 275 
C 1178 70 1466 -64 1773 -64 
C 2368 -64 2880 553 2880 1382 
C 2880 2147 2496 2816 1946 2816 
C 1626 2816 1242 2700 954 2470 
L 954 2764 
L 480 2764 
L 480 -1280 
L 966 -1280 
L 966 275 
z
M 966 2088 
C 1018 2166 1235 2412 1587 2412 
C 2035 2412 2394 1946 2394 1382 
C 2394 741 1958 326 1530 326 
C 1402 326 1267 358 1139 468 
C 966 624 966 721 966 812 
L 966 2088 
z
" transform="scale(0.015625)"/>
       <path id="CMSS17-28" d="M 1613 4800 
C 1267 4447 474 3627 474 1603 
C 474 -428 1267 -1242 1613 -1600 
L 2003 -1600 
C 1216 -781 960 366 960 1596 
C 960 2820 1203 3973 2003 4800 
L 1613 4800 
z
" transform="scale(0.015625)"/>
       <path id="CMMI12-73" d="M 1459 1290 
C 1568 1271 1741 1233 1779 1227 
C 1862 1201 2150 1099 2150 793 
C 2150 595 1971 64 1229 64 
C 1094 64 614 83 486 447 
C 742 414 870 614 870 755 
C 870 889 781 960 653 960 
C 512 960 326 851 326 563 
C 326 176 710 -64 1222 -64 
C 2195 -64 2483 665 2483 998 
C 2483 1093 2483 1271 2278 1475 
C 2118 1627 1965 1659 1619 1729 
C 1446 1767 1171 1824 1171 2111 
C 1171 2239 1286 2687 1894 2687 
C 2163 2687 2426 2589 2490 2368 
C 2208 2368 2195 2124 2195 2118 
C 2195 1983 2317 1945 2374 1945 
C 2464 1945 2643 2015 2643 2284 
C 2643 2546 2400 2816 1901 2816 
C 1062 2816 838 2169 838 1907 
C 838 1424 1312 1322 1459 1290 
z
" transform="scale(0.015625)"/>
       <path id="CMSS17-29" d="M 723 -1600 
C 1069 -1248 1862 -428 1862 1596 
C 1862 3627 1069 4440 723 4800 
L 333 4800 
C 1120 3979 1376 2833 1376 1603 
C 1376 379 1133 -774 333 -1600 
L 723 -1600 
z
" transform="scale(0.015625)"/>
      </defs>
      <use xlink:href="#CMSS17-73" transform="scale(0.996264)"/>
      <use xlink:href="#CMSS17-74" transform="translate(35.913542 0) scale(0.996264)"/>
      <use xlink:href="#CMSS17-65" transform="translate(69.745109 0) scale(0.996264)"/>
      <use xlink:href="#CMSS17-70" transform="translate(111.383931 0) scale(0.996264)"/>
      <use xlink:href="#CMSS17-28" transform="translate(190.817987 0) scale(0.996264)"/>
      <use xlink:href="#CMMI12-73" transform="translate(227.251901 0) scale(0.996264)"/>
      <use xlink:href="#CMSS17-29" transform="translate(273.201948 0) scale(0.996264)"/>
     </g>
    </g>
   </g>
   <g id="matplotlib.axis_2">
    <g id="ytick_1">
     <g id="line2d_19">
      <path d="M 108 415.530005 
L 777.6 415.530005 
" clip-path="url(#paf14682205)" style="fill: none; stroke: #e6e6e6; stroke-width: 0.8; stroke-linecap: round"/>
     </g>
     <g id="line2d_20">
      <defs>
       <path id="m154730dba1" d="M 0 0 
L 4.8 0 
" style="stroke: #262626"/>
      </defs>
      <g>
       <use xlink:href="#m154730dba1" x="108" y="415.530005" style="fill: #262626; stroke: #262626"/>
      </g>
     </g>
     <g id="line2d_21">
      <defs>
       <path id="mfd811b7784" d="M 0 0 
L -4.8 0 
" style="stroke: #262626"/>
      </defs>
      <g>
       <use xlink:href="#mfd811b7784" x="777.6" y="415.530005" style="fill: #262626; stroke: #262626"/>
      </g>
     </g>
     <g id="text_8">
      <!-- $\mathdefault{0.00}$ -->
      <g style="fill: #262626" transform="translate(81.608366 420.096202) scale(0.132 -0.132)">
       <defs>
        <path id="CMMI12-3a" d="M 1178 307 
C 1178 492 1024 620 870 620 
C 685 620 557 467 557 313 
C 557 128 710 0 864 0 
C 1050 0 1178 153 1178 307 
z
" transform="scale(0.015625)"/>
       </defs>
       <use xlink:href="#CMR17-30" transform="scale(0.996264)"/>
       <use xlink:href="#CMMI12-3a" transform="translate(45.690477 0) scale(0.996264)"/>
       <use xlink:href="#CMR17-30" transform="translate(72.787654 0) scale(0.996264)"/>
       <use xlink:href="#CMR17-30" transform="translate(118.478131 0) scale(0.996264)"/>
      </g>
     </g>
    </g>
    <g id="ytick_2">
     <g id="line2d_22">
      <path d="M 108 364.268401 
L 777.6 364.268401 
" clip-path="url(#paf14682205)" style="fill: none; stroke: #e6e6e6; stroke-width: 0.8; stroke-linecap: round"/>
     </g>
     <g id="line2d_23">
      <g>
       <use xlink:href="#m154730dba1" x="108" y="364.268401" style="fill: #262626; stroke: #262626"/>
      </g>
     </g>
     <g id="line2d_24">
      <g>
       <use xlink:href="#mfd811b7784" x="777.6" y="364.268401" style="fill: #262626; stroke: #262626"/>
      </g>
     </g>
     <g id="text_9">
      <!-- $\mathdefault{0.25}$ -->
      <g style="fill: #262626" transform="translate(81.608366 368.834598) scale(0.132 -0.132)">
       <defs>
        <path id="CMR17-35" d="M 730 3750 
C 794 3724 1056 3641 1325 3641 
C 1920 3641 2246 3961 2432 4140 
C 2432 4191 2432 4224 2394 4224 
C 2387 4224 2374 4224 2323 4198 
C 2099 4102 1837 4032 1517 4032 
C 1325 4032 1037 4055 723 4191 
C 653 4224 640 4224 634 4224 
C 602 4224 595 4217 595 4090 
L 595 2231 
C 595 2113 595 2080 659 2080 
C 691 2080 704 2093 736 2139 
C 941 2435 1222 2560 1542 2560 
C 1766 2560 2246 2415 2246 1293 
C 2246 1087 2246 716 2054 422 
C 1894 159 1645 25 1370 25 
C 947 25 518 319 403 812 
C 429 806 480 793 506 793 
C 589 793 749 838 749 1036 
C 749 1209 627 1280 506 1280 
C 358 1280 262 1190 262 1011 
C 262 454 704 -128 1382 -128 
C 2042 -128 2669 441 2669 1267 
C 2669 2054 2170 2662 1549 2662 
C 1222 2662 947 2540 730 2304 
L 730 3750 
z
" transform="scale(0.015625)"/>
       </defs>
       <use xlink:href="#CMR17-30" transform="scale(0.996264)"/>
       <use xlink:href="#CMMI12-3a" transform="translate(45.690477 0) scale(0.996264)"/>
       <use xlink:href="#CMR17-32" transform="translate(72.787654 0) scale(0.996264)"/>
       <use xlink:href="#CMR17-35" transform="translate(118.478131 0) scale(0.996264)"/>
      </g>
     </g>
    </g>
    <g id="ytick_3">
     <g id="line2d_25">
      <path d="M 108 313.006797 
L 777.6 313.006797 
" clip-path="url(#paf14682205)" style="fill: none; stroke: #e6e6e6; stroke-width: 0.8; stroke-linecap: round"/>
     </g>
     <g id="line2d_26">
      <g>
       <use xlink:href="#m154730dba1" x="108" y="313.006797" style="fill: #262626; stroke: #262626"/>
      </g>
     </g>
     <g id="line2d_27">
      <g>
       <use xlink:href="#mfd811b7784" x="777.6" y="313.006797" style="fill: #262626; stroke: #262626"/>
      </g>
     </g>
     <g id="text_10">
      <!-- $\mathdefault{0.50}$ -->
      <g style="fill: #262626" transform="translate(81.608366 317.572994) scale(0.132 -0.132)">
       <use xlink:href="#CMR17-30" transform="scale(0.996264)"/>
       <use xlink:href="#CMMI12-3a" transform="translate(45.690477 0) scale(0.996264)"/>
       <use xlink:href="#CMR17-35" transform="translate(72.787654 0) scale(0.996264)"/>
       <use xlink:href="#CMR17-30" transform="translate(118.478131 0) scale(0.996264)"/>
      </g>
     </g>
    </g>
    <g id="ytick_4">
     <g id="line2d_28">
      <path d="M 108 261.745193 
L 777.6 261.745193 
" clip-path="url(#paf14682205)" style="fill: none; stroke: #e6e6e6; stroke-width: 0.8; stroke-linecap: round"/>
     </g>
     <g id="line2d_29">
      <g>
       <use xlink:href="#m154730dba1" x="108" y="261.745193" style="fill: #262626; stroke: #262626"/>
      </g>
     </g>
     <g id="line2d_30">
      <g>
       <use xlink:href="#mfd811b7784" x="777.6" y="261.745193" style="fill: #262626; stroke: #262626"/>
      </g>
     </g>
     <g id="text_11">
      <!-- $\mathdefault{0.75}$ -->
      <g style="fill: #262626" transform="translate(81.608366 266.31139) scale(0.132 -0.132)">
       <defs>
        <path id="CMR17-37" d="M 2886 3955 
L 2886 4096 
L 1382 4096 
C 634 4096 621 4166 595 4288 
L 480 4288 
L 294 3104 
L 410 3104 
C 429 3226 474 3552 550 3673 
C 589 3724 1062 3724 1171 3724 
L 2579 3724 
L 1869 2670 
C 1395 1961 1069 1003 1069 166 
C 1069 89 1069 -128 1299 -128 
C 1530 -128 1530 89 1530 172 
L 1530 466 
C 1530 1514 1709 2204 2003 2644 
L 2886 3955 
z
" transform="scale(0.015625)"/>
       </defs>
       <use xlink:href="#CMR17-30" transform="scale(0.996264)"/>
       <use xlink:href="#CMMI12-3a" transform="translate(45.690477 0) scale(0.996264)"/>
       <use xlink:href="#CMR17-37" transform="translate(72.787654 0) scale(0.996264)"/>
       <use xlink:href="#CMR17-35" transform="translate(118.478131 0) scale(0.996264)"/>
      </g>
     </g>
    </g>
    <g id="ytick_5">
     <g id="line2d_31">
      <path d="M 108 210.483589 
L 777.6 210.483589 
" clip-path="url(#paf14682205)" style="fill: none; stroke: #e6e6e6; stroke-width: 0.8; stroke-linecap: round"/>
     </g>
     <g id="line2d_32">
      <g>
       <use xlink:href="#m154730dba1" x="108" y="210.483589" style="fill: #262626; stroke: #262626"/>
      </g>
     </g>
     <g id="line2d_33">
      <g>
       <use xlink:href="#mfd811b7784" x="777.6" y="210.483589" style="fill: #262626; stroke: #262626"/>
      </g>
     </g>
     <g id="text_12">
      <!-- $\mathdefault{1.00}$ -->
      <g style="fill: #262626" transform="translate(81.608366 215.049786) scale(0.132 -0.132)">
       <use xlink:href="#CMR17-31" transform="scale(0.996264)"/>
       <use xlink:href="#CMMI12-3a" transform="translate(45.690477 0) scale(0.996264)"/>
       <use xlink:href="#CMR17-30" transform="translate(72.787654 0) scale(0.996264)"/>
       <use xlink:href="#CMR17-30" transform="translate(118.478131 0) scale(0.996264)"/>
      </g>
     </g>
    </g>
    <g id="ytick_6">
     <g id="line2d_34">
      <path d="M 108 159.221985 
L 777.6 159.221985 
" clip-path="url(#paf14682205)" style="fill: none; stroke: #e6e6e6; stroke-width: 0.8; stroke-linecap: round"/>
     </g>
     <g id="line2d_35">
      <g>
       <use xlink:href="#m154730dba1" x="108" y="159.221985" style="fill: #262626; stroke: #262626"/>
      </g>
     </g>
     <g id="line2d_36">
      <g>
       <use xlink:href="#mfd811b7784" x="777.6" y="159.221985" style="fill: #262626; stroke: #262626"/>
      </g>
     </g>
     <g id="text_13">
      <!-- $\mathdefault{1.25}$ -->
      <g style="fill: #262626" transform="translate(81.608366 163.788182) scale(0.132 -0.132)">
       <use xlink:href="#CMR17-31" transform="scale(0.996264)"/>
       <use xlink:href="#CMMI12-3a" transform="translate(45.690477 0) scale(0.996264)"/>
       <use xlink:href="#CMR17-32" transform="translate(72.787654 0) scale(0.996264)"/>
       <use xlink:href="#CMR17-35" transform="translate(118.478131 0) scale(0.996264)"/>
      </g>
     </g>
    </g>
    <g id="ytick_7">
     <g id="line2d_37">
      <path d="M 108 107.960381 
L 777.6 107.960381 
" clip-path="url(#paf14682205)" style="fill: none; stroke: #e6e6e6; stroke-width: 0.8; stroke-linecap: round"/>
     </g>
     <g id="line2d_38">
      <g>
       <use xlink:href="#m154730dba1" x="108" y="107.960381" style="fill: #262626; stroke: #262626"/>
      </g>
     </g>
     <g id="line2d_39">
      <g>
       <use xlink:href="#mfd811b7784" x="777.6" y="107.960381" style="fill: #262626; stroke: #262626"/>
      </g>
     </g>
     <g id="text_14">
      <!-- $\mathdefault{1.50}$ -->
      <g style="fill: #262626" transform="translate(81.608366 112.526578) scale(0.132 -0.132)">
       <use xlink:href="#CMR17-31" transform="scale(0.996264)"/>
       <use xlink:href="#CMMI12-3a" transform="translate(45.690477 0) scale(0.996264)"/>
       <use xlink:href="#CMR17-35" transform="translate(72.787654 0) scale(0.996264)"/>
       <use xlink:href="#CMR17-30" transform="translate(118.478131 0) scale(0.996264)"/>
      </g>
     </g>
    </g>
    <g id="text_15">
     <!-- $W^2 \left(j, [i_n]_s \right)$ -->
     <g style="fill: #262626" transform="translate(74.021809 280.621092) rotate(-90) scale(0.144 -0.144)">
      <defs>
       <path id="CMMI12-57" d="M 5779 3644 
C 5926 3892 6067 4127 6451 4166 
C 6509 4172 6566 4179 6566 4281 
C 6566 4352 6509 4352 6490 4352 
C 6477 4352 6432 4339 6010 4339 
C 5818 4339 5619 4352 5434 4352 
C 5395 4352 5318 4352 5318 4230 
C 5318 4172 5370 4166 5408 4166 
C 5536 4159 5741 4121 5741 3924 
C 5741 3841 5715 3797 5651 3689 
L 3904 648 
L 3674 3962 
C 3674 4038 3744 4159 4102 4166 
C 4186 4166 4250 4166 4250 4287 
C 4250 4352 4186 4352 4154 4352 
C 3930 4352 3693 4339 3462 4339 
L 3130 4339 
C 3034 4339 2918 4352 2822 4352 
C 2784 4352 2707 4352 2707 4230 
C 2707 4166 2752 4166 2861 4166 
C 3155 4166 3155 4159 3181 3771 
L 3200 3542 
L 1542 648 
L 1306 3930 
C 1306 4000 1306 4159 1741 4166 
C 1811 4166 1882 4166 1882 4281 
C 1882 4352 1824 4352 1786 4352 
C 1562 4352 1325 4339 1094 4339 
L 762 4339 
C 666 4339 550 4352 454 4352 
C 416 4352 339 4352 339 4230 
C 339 4166 390 4166 480 4166 
C 781 4166 787 4127 800 3924 
L 1082 19 
C 1088 -90 1094 -128 1171 -128 
C 1235 -128 1248 -103 1306 -7 
L 3213 3307 
L 3450 19 
C 3456 -90 3462 -128 3539 -128 
C 3603 -128 3622 -96 3674 -7 
L 5779 3644 
z
" transform="scale(0.015625)"/>
       <path id="CMR17-28" d="M 1958 -1562 
C 1958 -1556 1958 -1543 1939 -1524 
C 1645 -1223 858 -403 858 1596 
C 858 3595 1632 4408 1946 4729 
C 1946 4735 1958 4748 1958 4767 
C 1958 4787 1939 4800 1914 4800 
C 1843 4800 1299 4325 986 3620 
C 666 2909 576 2218 576 1603 
C 576 1141 621 360 1005 -467 
C 1312 -1133 1837 -1600 1914 -1600 
C 1946 -1600 1958 -1588 1958 -1562 
z
" transform="scale(0.015625)"/>
       <path id="CMMI12-6a" d="M 2240 2027 
C 2266 2129 2266 2218 2266 2243 
C 2266 2611 1990 2816 1702 2816 
C 1056 2816 710 1888 710 1843 
C 710 1811 736 1786 774 1786 
C 826 1786 832 1811 864 1875 
C 1120 2491 1440 2687 1683 2687 
C 1818 2687 1888 2617 1888 2395 
C 1888 2243 1869 2180 1843 2065 
L 1235 -327 
C 1114 -797 813 -1152 461 -1152 
C 435 -1152 301 -1152 179 -1089 
C 333 -1057 454 -937 454 -784 
C 454 -683 378 -581 237 -581 
C 70 -581 -83 -721 -83 -911 
C -83 -1172 198 -1280 461 -1280 
C 902 -1280 1485 -956 1645 -321 
L 2240 2027 
z
M 2502 4012 
C 2502 4172 2368 4224 2291 4224 
C 2118 4224 1971 4057 1971 3916 
C 1971 3820 2048 3705 2189 3705 
C 2336 3705 2502 3846 2502 4012 
z
" transform="scale(0.015625)"/>
       <path id="CMMI12-3b" d="M 1248 -26 
C 1248 345 1126 620 864 620 
C 659 620 557 454 557 313 
C 557 172 653 0 870 0 
C 954 0 1024 25 1082 83 
C 1094 96 1101 96 1107 96 
C 1120 96 1120 6 1120 -26 
C 1120 -233 1082 -642 710 -1051 
C 640 -1127 640 -1140 640 -1152 
C 640 -1184 672 -1216 704 -1216 
C 755 -1216 1248 -749 1248 -26 
z
" transform="scale(0.015625)"/>
       <path id="CMR17-5b" d="M 1504 -1600 
L 1504 -1376 
L 902 -1376 
L 902 4575 
L 1504 4575 
L 1504 4800 
L 678 4800 
L 678 -1600 
L 1504 -1600 
z
" transform="scale(0.015625)"/>
       <path id="CMMI12-69" d="M 1811 913 
C 1811 945 1786 970 1747 970 
C 1690 970 1683 951 1651 842 
C 1485 261 1222 64 1011 64 
C 934 64 845 83 845 274 
C 845 447 922 638 992 830 
L 1440 2017 
C 1459 2068 1504 2183 1504 2305 
C 1504 2573 1312 2816 998 2816 
C 410 2816 173 1890 173 1838 
C 173 1813 198 1781 243 1781 
C 301 1781 307 1807 333 1896 
C 486 2432 730 2687 979 2687 
C 1037 2687 1146 2681 1146 2477 
C 1146 2311 1062 2100 1011 1960 
L 563 772 
C 525 670 486 568 486 453 
C 486 166 685 -64 992 -64 
C 1581 -64 1811 868 1811 913 
z
M 1760 4012 
C 1760 4108 1683 4224 1542 4224 
C 1395 4224 1229 4083 1229 3916 
C 1229 3756 1363 3705 1440 3705 
C 1613 3705 1760 3871 1760 4012 
z
" transform="scale(0.015625)"/>
       <path id="CMMI12-6e" d="M 1318 1870 
C 1331 1909 1491 2228 1728 2432 
C 1894 2585 2112 2687 2362 2687 
C 2618 2687 2707 2496 2707 2241 
C 2707 1877 2445 1149 2317 804 
C 2259 651 2227 568 2227 453 
C 2227 166 2426 -64 2733 -64 
C 3328 -64 3552 874 3552 913 
C 3552 945 3526 970 3488 970 
C 3430 970 3424 951 3392 842 
C 3245 319 3002 64 2752 64 
C 2688 64 2586 70 2586 274 
C 2586 434 2656 625 2694 715 
C 2822 1066 3091 1781 3091 2145 
C 3091 2528 2867 2816 2381 2816 
C 1811 2816 1510 2413 1395 2253 
C 1376 2617 1114 2816 832 2816 
C 627 2816 486 2694 378 2477 
C 262 2247 173 1864 173 1838 
C 173 1813 198 1781 243 1781 
C 294 1781 301 1787 339 1934 
C 442 2324 557 2687 813 2687 
C 960 2687 1011 2585 1011 2394 
C 1011 2253 947 2004 902 1807 
L 723 1117 
C 698 996 627 708 595 593 
C 550 427 480 127 480 95 
C 480 6 550 -64 646 -64 
C 723 -64 813 -26 864 70 
C 877 102 934 325 966 453 
L 1107 1028 
L 1318 1870 
z
" transform="scale(0.015625)"/>
       <path id="CMR17-5d" d="M 915 4800 
L 90 4800 
L 90 4575 
L 691 4575 
L 691 -1376 
L 90 -1376 
L 90 -1600 
L 915 -1600 
L 915 4800 
z
" transform="scale(0.015625)"/>
       <path id="CMR17-29" d="M 1683 1596 
C 1683 2057 1638 2839 1254 3665 
C 947 4332 422 4800 346 4800 
C 326 4800 301 4793 301 4761 
C 301 4748 307 4742 314 4729 
C 621 4408 1402 3595 1402 1603 
C 1402 -396 627 -1210 314 -1530 
C 307 -1543 301 -1549 301 -1562 
C 301 -1594 326 -1600 346 -1600 
C 416 -1600 960 -1127 1274 -422 
C 1594 289 1683 981 1683 1596 
z
" transform="scale(0.015625)"/>
      </defs>
      <use xlink:href="#CMMI12-57" transform="scale(0.996264)"/>
      <use xlink:href="#CMR17-32" transform="translate(105.644498 36.153639) scale(0.697382)"/>
      <use xlink:href="#CMR17-28" transform="translate(154.730217 0.003177) scale(0.996264)"/>
      <use xlink:href="#CMMI12-6a" transform="translate(190.010985 0) scale(0.996264)"/>
      <use xlink:href="#CMMI12-3b" transform="translate(230.554032 0) scale(0.996264)"/>
      <use xlink:href="#CMR17-5b" transform="translate(274.255614 0) scale(0.996264)"/>
      <use xlink:href="#CMMI12-69" transform="translate(299.126673 0) scale(0.996264)"/>
      <use xlink:href="#CMMI12-6e" transform="translate(332.405275 -14.943915) scale(0.697382)"/>
      <use xlink:href="#CMR17-5d" transform="translate(373.66425 0) scale(0.996264)"/>
      <use xlink:href="#CMMI12-73" transform="translate(398.535308 -14.943915) scale(0.697382)"/>
      <use xlink:href="#CMR17-29" transform="translate(431.198329 0.003177) scale(0.996264)"/>
     </g>
    </g>
    <g id="text_16">
     <!-- $\times\mathdefault{10^{−21}}\mathdefault{}$ -->
     <g style="fill: #262626" transform="translate(108 55.32) scale(0.132 -0.132)">
      <defs>
       <path id="CMSY10-2" d="M 2490 1775 
L 1210 3046 
C 1133 3123 1120 3136 1069 3136 
C 1005 3136 941 3078 941 3008 
C 941 2963 954 2950 1024 2880 
L 2304 1596 
L 1024 313 
C 954 243 941 230 941 185 
C 941 115 1005 57 1069 57 
C 1120 57 1133 70 1210 147 
L 2483 1418 
L 3808 95 
C 3821 89 3866 57 3904 57 
C 3981 57 4032 115 4032 185 
C 4032 198 4032 223 4013 255 
C 4006 268 2989 1271 2669 1596 
L 3840 2765 
C 3872 2803 3968 2886 4000 2925 
C 4006 2937 4032 2963 4032 3008 
C 4032 3078 3981 3136 3904 3136 
C 3853 3136 3827 3110 3757 3040 
L 2490 1775 
z
" transform="scale(0.015625)"/>
       <path id="CMSY10-0" d="M 4218 1472 
C 4326 1472 4442 1472 4442 1600 
C 4442 1728 4326 1728 4218 1728 
L 755 1728 
C 646 1728 531 1728 531 1600 
C 531 1472 646 1472 755 1472 
L 4218 1472 
z
" transform="scale(0.015625)"/>
      </defs>
      <use xlink:href="#CMSY10-2" transform="scale(0.996264)"/>
      <use xlink:href="#CMR17-31" transform="translate(77.487468 0) scale(0.996264)"/>
      <use xlink:href="#CMR17-30" transform="translate(123.177945 0) scale(0.996264)"/>
      <use xlink:href="#CMSY10-0" transform="translate(168.868422 36.153639) scale(0.697382)"/>
      <use xlink:href="#CMR17-32" transform="translate(223.109415 36.153639) scale(0.697382)"/>
      <use xlink:href="#CMR17-31" transform="translate(255.092597 36.153639) scale(0.697382)"/>
     </g>
    </g>
   </g>
   <g id="line2d_40">
    <path d="M 138.436364 415.524047 
L 140.871516 415.506776 
L 140.993274 415.328488 
L 141.297668 415.328488 
L 141.419426 415.482916 
L 148.90752 415.378583 
L 149.151035 415.334944 
L 149.272793 415.334944 
L 149.455429 415.182233 
L 149.577187 415.182233 
L 149.759823 415.294083 
L 149.820702 415.294083 
L 149.881581 415.493978 
L 149.94246 415.344947 
L 150.125096 415.308461 
L 150.246854 415.111778 
L 150.794763 415.08007 
L 150.855642 415.326132 
L 151.038278 414.899666 
L 151.099157 414.899666 
L 151.342672 415.218543 
L 151.647067 415.218543 
L 151.768824 415.522136 
L 153.108158 415.478127 
L 153.229916 415.232544 
L 153.656067 415.308594 
L 153.777825 415.478974 
L 155.178038 415.474058 
L 155.299795 415.24562 
L 155.360674 415.24562 
L 155.421553 414.956499 
L 155.543311 415.488714 
L 155.60419 415.18195 
L 155.725947 410.895616 
L 156.273856 410.895616 
L 156.395614 413.416752 
L 156.517372 413.341968 
L 156.639129 407.021792 
L 156.882645 407.041329 
L 157.004402 408.64261 
L 157.308796 408.64261 
L 157.369675 414.09504 
L 157.430554 414.022834 
L 157.674069 414.022834 
L 157.795827 412.22731 
L 157.856706 412.22731 
L 157.978463 406.607248 
L 158.100221 406.607248 
L 158.221979 396.260133 
L 158.587251 396.260133 
L 158.64813 404.172868 
L 158.709009 400.007366 
L 158.769888 400.007366 
L 158.891646 410.590208 
L 159.68307 410.590208 
L 159.804828 415.074806 
L 160.352737 415.10735 
L 160.596252 414.519463 
L 160.900646 414.519463 
L 161.083283 415.294193 
L 161.265919 415.294193 
L 161.387677 415.432963 
L 161.448556 415.432963 
L 161.570313 414.907393 
L 161.692071 415.195211 
L 161.75295 415.195211 
L 161.874707 415.463946 
L 161.996465 415.166938 
L 162.666132 415.066612 
L 162.78789 415.460502 
L 163.031405 415.494977 
L 163.153163 415.007485 
L 163.27492 415.007485 
L 163.396678 415.222825 
L 163.883708 415.215666 
L 163.944587 414.984114 
L 164.005466 415.426797 
L 164.127224 414.992745 
L 164.370739 414.992745 
L 164.492497 415.14719 
L 164.553375 415.14719 
L 164.675133 415.413007 
L 165.040406 415.408553 
L 165.162163 415.24658 
L 165.3448 415.24658 
L 165.527436 415.524145 
L 167.779953 415.494621 
L 167.962589 415.343164 
L 168.084347 415.378908 
L 168.266983 415.508701 
L 169.484559 415.40939 
L 169.606317 413.875822 
L 170.093348 413.875822 
L 170.215105 414.622113 
L 170.336863 414.622113 
L 170.45862 413.265747 
L 170.519499 413.265747 
L 170.641257 414.536272 
L 170.945651 414.536272 
L 171.00653 414.312041 
L 171.128287 412.684094 
L 171.432681 412.684094 
L 171.554439 390.587944 
L 171.858833 390.587944 
L 171.980591 370.377795 
L 174.781016 370.377795 
L 175.08541 414.799836 
L 175.207168 414.309641 
L 175.389804 414.309641 
L 175.511562 412.367079 
L 175.998593 412.367079 
L 176.12035 414.942666 
L 177.15529 414.942666 
L 177.337927 412.956771 
L 177.459684 412.320133 
L 178.007593 412.320133 
L 178.129351 413.604859 
L 178.433745 413.604859 
L 178.616382 412.671935 
L 179.103412 412.703038 
L 179.22517 414.175346 
L 179.833958 414.175346 
L 179.955716 414.501807 
L 180.138352 414.501807 
L 180.199231 414.930022 
L 180.320988 414.428294 
L 180.442746 414.428294 
L 180.564504 413.691225 
L 180.990655 413.691225 
L 181.051534 414.38422 
L 181.173292 413.155902 
L 181.29505 413.155902 
L 181.416807 411.254844 
L 181.599444 411.254844 
L 181.721201 414.204366 
L 181.842959 411.787876 
L 181.964716 389.144263 
L 182.147353 389.144263 
L 182.269111 404.02599 
L 182.756141 404.02599 
L 182.877899 411.66721 
L 183.060535 411.66721 
L 183.182293 414.680236 
L 183.547566 414.680236 
L 183.791081 415.402259 
L 184.156354 415.402259 
L 184.278111 415.281691 
L 184.33899 413.057916 
L 184.399869 415.495527 
L 184.460748 415.430518 
L 184.643384 415.382284 
L 185.008657 415.444705 
L 185.191294 415.521715 
L 185.921839 415.502099 
L 186.043597 415.281628 
L 186.287112 415.281628 
L 186.530628 411.633514 
L 186.774143 415.003484 
L 186.8959 414.210708 
L 187.261173 414.210708 
L 187.382931 414.479343 
L 188.417871 414.479343 
L 188.539629 415.291246 
L 188.722265 415.291246 
L 188.783144 410.245972 
L 188.844023 413.723235 
L 190.061599 413.723235 
L 190.183357 414.488642 
L 190.670387 414.488642 
L 190.792145 415.104177 
L 190.913902 415.104177 
L 191.03566 415.384743 
L 191.279175 415.384743 
L 191.400933 414.729596 
L 191.52269 415.426733 
L 192.862024 415.373788 
L 193.10554 414.931648 
L 193.166418 414.931648 
L 193.288176 415.269191 
L 193.653449 415.269191 
L 193.775207 414.047769 
L 193.896964 414.047769 
L 194.018722 411.89006 
L 194.14048 411.89006 
L 194.262237 404.170732 
L 194.444874 404.170732 
L 194.566631 411.89006 
L 194.688389 411.89006 
L 194.810146 410.203627 
L 195.297177 410.203627 
L 195.418935 413.835298 
L 196.088602 413.835298 
L 196.210359 415.169205 
L 196.392996 415.169205 
L 196.514753 407.075965 
L 196.636511 414.078633 
L 196.69739 414.078633 
L 196.758269 413.777839 
L 196.880026 414.410092 
L 197.001784 414.217959 
L 197.123541 414.217959 
L 197.245299 413.011623 
L 197.427936 413.011623 
L 197.549693 413.863265 
L 197.854087 413.863265 
L 197.975845 397.035784 
L 198.158481 397.035784 
L 198.280239 413.042185 
L 198.645512 413.063011 
L 199.74133 413.063011 
L 199.802209 415.494254 
L 199.863088 415.425541 
L 200.106603 415.425541 
L 200.28924 415.299128 
L 201.019786 415.299128 
L 201.080664 415.042263 
L 201.202422 405.724914 
L 201.628574 405.724914 
L 201.750331 402.73471 
L 201.872089 402.73471 
L 201.993847 405.724914 
L 202.35912 405.724914 
L 202.419998 405.057809 
L 202.541756 405.724914 
L 202.907029 405.724914 
L 203.028787 408.133268 
L 203.150544 408.133268 
L 203.211423 404.994586 
L 203.394059 413.113025 
L 203.759332 413.113025 
L 203.88109 409.235417 
L 204.063726 409.235417 
L 204.185484 399.287877 
L 204.428999 399.287877 
L 204.672515 395.828183 
L 204.794272 408.973238 
L 205.220424 408.973238 
L 205.342181 407.754902 
L 205.829212 407.754902 
L 205.95097 393.095549 
L 206.316243 393.095549 
L 206.377121 395.828183 
L 206.498879 385.239111 
L 207.412061 385.239111 
L 207.533819 378.834861 
L 207.594698 378.834861 
L 207.716455 413.628298 
L 207.838213 413.890605 
L 207.959971 403.313714 
L 208.264365 403.313714 
L 208.386122 402.826644 
L 210.02985 402.826644 
L 210.151608 395.423945 
L 210.212487 395.423945 
L 210.334244 353.87684 
L 211.186548 353.87684 
L 211.308305 347.932479 
L 211.551821 347.932479 
L 211.612699 349.642292 
L 211.734457 381.713319 
L 211.856215 381.713319 
L 211.977972 393.571711 
L 212.282366 393.571711 
L 212.404124 396.945473 
L 212.465003 396.945473 
L 212.58676 413.010114 
L 212.647639 413.010114 
L 212.769397 403.623733 
L 213.256427 403.623733 
L 213.378185 400.000443 
L 213.6217 400.000443 
L 213.743458 405.995657 
L 214.047852 405.995657 
L 214.16961 412.3113 
L 214.291367 412.3113 
L 214.413125 409.149396 
L 215.387186 409.149396 
L 215.508944 413.496737 
L 215.630701 413.567814 
L 215.69158 414.693276 
L 215.752459 414.21995 
L 215.874217 414.491533 
L 216.239489 414.491533 
L 216.300368 412.173571 
L 216.361247 412.621619 
L 216.483005 413.387835 
L 216.604762 413.229957 
L 216.72652 413.229957 
L 216.848278 408.413422 
L 217.091793 408.413422 
L 217.152672 408.141591 
L 217.21355 404.678661 
L 217.335308 408.141591 
L 217.396187 408.141591 
L 217.517945 414.071226 
L 217.639702 414.071226 
L 217.76146 412.386169 
L 217.822339 412.386169 
L 217.944096 413.032305 
L 218.431127 413.032305 
L 218.552884 414.675094 
L 219.587824 414.675094 
L 219.709582 415.218164 
L 221.231552 415.269001 
L 221.292431 414.644972 
L 221.35331 414.785238 
L 221.414189 414.785238 
L 221.535946 415.415288 
L 222.449129 415.389485 
L 222.631765 415.299032 
L 222.753523 415.299032 
L 222.87528 415.51028 
L 223.057917 415.414686 
L 224.579887 415.360619 
L 224.640766 415.528559 
L 224.701645 415.487326 
L 224.823402 415.422556 
L 225.006039 415.301073 
L 225.188675 415.301073 
L 225.249554 415.07313 
L 225.310433 415.235461 
L 225.919221 415.235461 
L 226.101857 415.520436 
L 226.528009 415.499445 
L 226.649767 415.322895 
L 226.954161 415.322895 
L 227.01504 415.455682 
L 227.075919 415.387088 
L 228.232616 415.421368 
L 228.415252 415.507951 
L 229.024041 415.433295 
L 229.084919 414.732939 
L 229.145798 414.879978 
L 229.267556 414.879978 
L 229.389313 415.278027 
L 229.511071 415.278027 
L 229.693708 415.399121 
L 234.868407 415.367519 
L 235.051043 415.266329 
L 235.416316 415.284284 
L 235.598953 415.417183 
L 236.146862 415.452675 
L 236.26862 415.315766 
L 236.451256 415.315766 
L 236.573014 415.143252 
L 236.694771 415.143252 
L 236.877408 415.26369 
L 237.060044 415.339704 
L 237.851469 415.364761 
L 237.973226 415.51552 
L 238.886409 415.518695 
L 239.069045 415.470516 
L 242.721774 415.454951 
L 242.843532 415.454951 
L 242.965289 415.092671 
L 243.208805 415.092671 
L 243.330562 415.264946 
L 243.513199 415.264946 
L 243.574077 415.484405 
L 243.695835 414.875312 
L 243.817593 415.004614 
L 243.93935 414.981045 
L 244.061108 413.188512 
L 244.365502 413.188512 
L 244.48726 414.712 
L 244.609017 414.712 
L 244.730775 413.135892 
L 244.852533 413.135892 
L 244.97429 412.616675 
L 245.035169 412.616675 
L 245.156927 413.135892 
L 245.339563 413.135892 
L 245.461321 414.062967 
L 245.643957 414.062967 
L 245.704836 411.857486 
L 245.765715 413.462202 
L 245.826594 413.462202 
L 246.00923 415.317548 
L 246.191866 415.19991 
L 246.252745 415.19991 
L 246.374503 415.00829 
L 246.618018 415.030755 
L 246.739776 414.654023 
L 246.861533 414.654023 
L 246.983291 414.133797 
L 247.04417 415.195928 
L 247.105049 414.656132 
L 247.226806 414.301624 
L 247.348564 415.150891 
L 247.5312 415.150891 
L 247.652958 412.261554 
L 247.896473 412.261554 
L 248.018231 385.086897 
L 248.07911 385.086897 
L 248.139989 414.556785 
L 248.200867 413.54527 
L 248.322625 378.072217 
L 249.540201 378.072217 
L 249.661959 408.983646 
L 250.392505 408.983646 
L 250.453384 415.36393 
L 250.514262 413.660494 
L 250.879535 413.660494 
L 251.001293 412.379935 
L 251.12305 412.379935 
L 251.244808 415.456274 
L 251.366566 415.033809 
L 251.792717 415.033809 
L 251.975354 415.385632 
L 253.74084 415.474758 
L 254.045234 415.528409 
L 261.472449 415.292117 
L 261.594207 415.501286 
L 262.020358 415.396635 
L 262.202995 415.520265 
L 263.96848 415.480727 
L 265.00342 415.487789 
L 265.246936 415.525267 
L 266.099239 415.394239 
L 266.281875 415.419422 
L 266.464512 415.363543 
L 266.525391 415.363543 
L 266.647148 411.163902 
L 266.708027 411.163902 
L 266.829785 414.891898 
L 267.560331 414.891898 
L 267.682088 415.079055 
L 267.803846 415.079055 
L 267.986482 415.195777 
L 268.169119 415.195777 
L 268.290876 415.42333 
L 269.569331 415.474384 
L 269.691089 414.620179 
L 270.117241 414.620179 
L 270.238998 414.889653 
L 272.552393 414.889653 
L 272.674151 415.319531 
L 272.978545 415.319531 
L 273.100303 415.51054 
L 274.683152 415.449992 
L 274.80491 414.823172 
L 275.352819 414.823172 
L 275.474577 415.376502 
L 275.718092 415.343137 
L 275.961607 415.342747 
L 276.205122 415.29608 
L 276.266001 415.29608 
L 276.387759 415.505965 
L 276.509516 414.283945 
L 276.631274 414.283945 
L 276.753032 414.499253 
L 276.81391 414.499253 
L 276.935668 414.848912 
L 277.179183 414.848912 
L 277.300941 415.443423 
L 277.36182 415.441214 
L 277.483577 415.207967 
L 277.666214 415.207967 
L 277.787972 415.363665 
L 278.335881 415.307732 
L 278.457638 415.487457 
L 278.88379 415.439243 
L 278.944669 415.33061 
L 279.005548 415.439243 
L 279.370821 415.507702 
L 279.492578 415.31973 
L 280.405761 415.344819 
L 280.588397 415.515003 
L 281.318943 415.489416 
L 281.501579 415.364507 
L 281.562458 415.364507 
L 281.684216 415.516836 
L 281.805973 415.513342 
L 281.927731 415.354526 
L 283.267065 415.428314 
L 283.449701 415.503899 
L 284.423762 415.409093 
L 284.667278 415.36973 
L 285.276066 415.469147 
L 285.458702 415.502182 
L 285.58046 415.457475 
L 285.702217 414.736186 
L 285.884854 414.736186 
L 286.006612 413.195201 
L 286.189248 413.195201 
L 286.250127 415.292016 
L 286.311006 414.736186 
L 286.371884 414.736186 
L 286.493642 413.480666 
L 286.554521 413.480666 
L 286.6154 413.606241 
L 286.737157 410.751567 
L 286.858915 410.751567 
L 286.980673 413.752538 
L 287.711218 413.752538 
L 287.832976 415.08505 
L 288.015612 415.08505 
L 288.13737 415.302941 
L 288.198249 415.302941 
L 288.259128 415.456026 
L 288.320007 415.276456 
L 288.380885 415.403481 
L 288.502643 415.403481 
L 288.563522 415.522528 
L 288.624401 415.48378 
L 294.590525 415.518981 
L 294.712282 415.229896 
L 298.547647 415.247799 
L 298.669405 413.410454 
L 298.91292 413.410454 
L 299.034678 415.342496 
L 300.313133 415.398959 
L 300.49577 415.527167 
L 304.57465 415.500144 
L 304.818165 415.151944 
L 305.12256 415.253638 
L 305.244317 414.763717 
L 305.305196 415.115815 
L 305.548711 413.805624 
L 305.792226 413.805624 
L 305.913984 412.443488 
L 306.035742 412.443488 
L 306.218378 415.049202 
L 306.583651 415.049202 
L 306.705409 413.821464 
L 307.070682 413.896467 
L 307.192439 398.025567 
L 307.314197 398.025567 
L 307.496833 407.814485 
L 307.618591 404.416927 
L 307.740349 411.342011 
L 307.801227 411.342011 
L 307.922985 413.64824 
L 307.983864 413.670165 
L 308.1665 408.777183 
L 308.227379 408.777183 
L 308.349137 413.893966 
L 308.470894 414.519855 
L 308.531773 414.519855 
L 308.653531 413.521212 
L 308.775288 414.432861 
L 309.018804 414.432861 
L 309.140561 412.387309 
L 309.20144 412.387309 
L 309.323198 413.345382 
L 309.505834 413.345382 
L 309.627592 414.962785 
L 309.810228 415.248135 
L 310.114622 415.248135 
L 310.297259 415.130138 
L 310.419016 415.130138 
L 310.601653 415.015649 
L 310.906047 415.015649 
L 311.088683 415.51147 
L 311.149562 415.407362 
L 312.671533 415.398539 
L 312.732411 414.51725 
L 312.854169 402.158898 
L 313.3412 402.158898 
L 313.523836 409.969887 
L 313.645594 409.969887 
L 313.767351 414.147461 
L 313.889109 413.573164 
L 314.254382 413.573164 
L 314.497897 415.053657 
L 314.558776 413.929564 
L 314.619655 414.388772 
L 314.86317 414.388772 
L 314.984928 407.693036 
L 315.3502 407.693036 
L 315.471958 407.283673 
L 315.593716 407.283673 
L 315.715473 409.90263 
L 315.837231 378.170814 
L 315.89811 378.170814 
L 316.019867 395.581158 
L 316.141625 395.581158 
L 316.263383 386.570437 
L 316.750413 386.570437 
L 316.993928 378.170814 
L 317.602717 378.170814 
L 317.724474 384.656653 
L 317.96799 384.656653 
L 318.089747 404.200137 
L 318.272384 404.200137 
L 318.394141 404.025713 
L 318.515899 387.768393 
L 318.637656 387.768393 
L 318.698535 384.904237 
L 318.942051 402.593599 
L 319.307323 402.593599 
L 319.48996 408.64722 
L 319.611718 409.822492 
L 319.672596 409.822492 
L 319.916112 411.224661 
L 320.037869 411.224661 
L 320.159627 415.367717 
L 320.220506 415.307377 
L 320.342263 414.317502 
L 320.403142 414.317502 
L 320.646657 410.300105 
L 320.768415 410.300105 
L 320.890173 414.365298 
L 321.072809 414.365298 
L 321.194567 415.523998 
L 321.681597 415.48225 
L 321.985991 414.785386 
L 322.838295 414.785386 
L 322.960052 415.015701 
L 323.020931 415.015701 
L 323.142689 412.966467 
L 323.264446 412.966467 
L 323.386204 412.274639 
L 323.507962 414.839507 
L 323.690598 414.839507 
L 323.812356 409.590889 
L 324.542902 409.590889 
L 324.60378 415.347506 
L 324.664659 415.254608 
L 325.334326 415.212964 
L 325.516963 414.688672 
L 325.821357 414.688672 
L 325.882235 414.057412 
L 325.943114 415.353772 
L 326.003993 415.094723 
L 326.67366 415.094723 
L 326.795418 414.257818 
L 327.586842 414.257818 
L 327.647721 414.023457 
L 327.769479 415.279878 
L 328.073873 415.279878 
L 328.19563 414.658163 
L 328.317388 415.290715 
L 328.439146 415.290715 
L 328.500025 414.658163 
L 328.621782 415.248875 
L 328.682661 415.248875 
L 328.926176 412.173886 
L 329.047934 412.173886 
L 329.169692 415.019196 
L 329.352328 415.019196 
L 329.595843 414.464326 
L 329.77848 414.464326 
L 329.900237 414.135904 
L 330.082874 403.438741 
L 330.326389 403.438741 
L 330.448147 413.554688 
L 330.509025 413.554688 
L 330.630783 408.425256 
L 330.752541 409.453106 
L 331.361329 409.453106 
L 331.483086 414.003024 
L 332.152753 414.003024 
L 332.213632 414.636201 
L 332.33539 408.90994 
L 332.457148 408.90994 
L 332.578905 408.439877 
L 333.613845 408.439877 
L 333.735603 395.243728 
L 334.344391 395.243728 
L 334.648785 352.859351 
L 335.135815 352.859351 
L 335.257573 348.389631 
L 335.683725 348.389631 
L 335.805482 352.859351 
L 337.083937 352.859351 
L 337.205695 372.038187 
L 337.44921 372.038187 
L 337.570968 412.017883 
L 337.875362 412.017883 
L 337.99712 415.002846 
L 338.118877 415.002846 
L 338.240635 414.616261 
L 338.362393 414.616261 
L 338.423271 414.986774 
L 338.48415 414.87408 
L 338.605908 414.87408 
L 338.666787 415.157525 
L 338.727665 414.986774 
L 338.971181 414.986774 
L 339.092938 414.742066 
L 339.153817 414.742066 
L 339.275575 413.366015 
L 339.336454 414.72376 
L 339.397332 414.442724 
L 339.884363 414.442724 
L 340.006121 414.14943 
L 341.284576 414.14943 
L 341.406333 415.069788 
L 341.528091 415.069788 
L 341.649849 414.273815 
L 342.684788 414.273815 
L 342.806546 412.700357 
L 343.171819 412.700357 
L 343.293577 414.644776 
L 343.476213 414.644776 
L 343.597971 412.244766 
L 344.267638 412.244766 
L 344.389395 415.171047 
L 344.450274 415.171047 
L 344.632911 415.040681 
L 344.693789 415.040681 
L 344.754668 415.370934 
L 344.876426 411.948449 
L 345.059062 411.948449 
L 345.18082 411.144332 
L 345.302578 413.157298 
L 345.424335 413.157298 
L 345.66785 403.421289 
L 345.850487 403.421289 
L 345.972244 408.766777 
L 346.094002 408.766777 
L 346.21576 414.306968 
L 346.337517 415.179472 
L 346.398396 415.179472 
L 346.459275 415.047776 
L 346.520154 415.166065 
L 346.581033 415.166065 
L 346.763669 415.047776 
L 347.73773 414.990718 
L 347.981245 415.434892 
L 348.103003 415.434892 
L 348.224761 414.866452 
L 348.346518 415.508564 
L 348.529155 415.374766 
L 348.590034 415.374766 
L 348.711791 415.50128 
L 348.77267 415.364783 
L 348.833549 415.394009 
L 349.016185 415.320667 
L 349.320579 415.200129 
L 349.929367 415.200129 
L 349.990246 415.320315 
L 350.112004 415.193521 
L 350.355519 415.226892 
L 350.599034 415.226892 
L 350.720792 415.498129 
L 351.268701 415.456357 
L 351.390459 408.081107 
L 351.816611 408.081107 
L 351.938368 411.055621 
L 352.486278 411.055621 
L 352.608035 414.168433 
L 352.668914 414.168433 
L 352.729793 413.625224 
L 352.851551 409.792356 
L 352.912429 410.912134 
L 353.095066 405.343658 
L 354.251763 405.343658 
L 354.312642 412.569369 
L 354.373521 410.488179 
L 355.104067 410.488179 
L 355.225824 396.875796 
L 355.530218 396.875796 
L 355.712855 414.214097 
L 355.895491 414.214097 
L 356.017249 412.651351 
L 356.078128 412.651351 
L 356.199885 413.980108 
L 356.382522 413.980108 
L 356.443401 414.20205 
L 356.565158 415.230679 
L 356.686916 414.20205 
L 356.869552 414.088969 
L 357.052189 414.088969 
L 357.173946 409.888592 
L 358.51328 409.888592 
L 358.574159 409.718275 
L 358.695917 410.181825 
L 358.756796 410.181825 
L 358.878553 414.278278 
L 359.426463 414.278278 
L 359.54822 414.740956 
L 359.609099 414.740956 
L 359.730857 413.979454 
L 359.791736 413.979454 
L 360.157008 409.884655 
L 360.217887 410.931906 
L 360.339645 414.982098 
L 361.131069 414.982098 
L 361.252827 415.297615 
L 361.313706 415.297615 
L 361.435464 413.377935 
L 361.496342 413.377935 
L 361.6181 411.615903 
L 361.922494 411.615903 
L 362.044252 410.793504 
L 362.166009 389.270182 
L 362.287767 389.270182 
L 362.348646 414.13277 
L 362.409525 413.935756 
L 363.018313 413.935756 
L 363.14007 411.446565 
L 363.444464 411.446565 
L 363.566222 410.39137 
L 363.809737 410.39137 
L 363.931495 408.422697 
L 364.053253 411.844476 
L 364.17501 408.422697 
L 364.296768 411.109042 
L 364.662041 411.109042 
L 364.783798 411.623872 
L 364.844677 411.623872 
L 364.966435 410.230138 
L 365.270829 410.230138 
L 365.392587 365.781414 
L 365.453465 365.781414 
L 365.575223 401.149742 
L 365.696981 361.019132 
L 366.305769 361.019132 
L 366.427526 330.712449 
L 367.036315 330.712449 
L 367.158072 302.893683 
L 367.340709 302.893683 
L 367.462466 358.119071 
L 367.523345 358.119071 
L 367.584224 408.480933 
L 367.645103 382.56631 
L 368.253891 382.56631 
L 368.31477 340.618107 
L 368.375648 348.140805 
L 368.497406 366.299381 
L 368.680043 366.299381 
L 368.8018 351.391144 
L 368.862679 358.049057 
L 368.984437 320.229035 
L 369.045315 320.229035 
L 369.167073 376.958273 
L 369.654104 376.958273 
L 369.775861 385.543884 
L 370.080255 385.543884 
L 370.202013 376.958273 
L 370.323771 409.388819 
L 370.567286 409.388819 
L 370.689043 410.42087 
L 370.810801 410.42087 
L 370.932559 405.813221 
L 371.297832 405.813221 
L 371.419589 406.56665 
L 371.480468 406.56665 
L 371.602226 415.194215 
L 371.723983 415.194215 
L 371.845741 413.933995 
L 371.967499 414.563242 
L 372.089256 414.563242 
L 372.271893 414.68097 
L 372.576287 414.68097 
L 372.819802 415.230461 
L 373.002438 415.292285 
L 373.063317 415.292285 
L 373.124196 414.547408 
L 373.245954 408.459902 
L 373.550348 408.459902 
L 373.672105 392.99678 
L 374.524409 392.99678 
L 374.646166 387.367561 
L 375.437591 387.367561 
L 375.559349 322.737319 
L 376.107258 322.737319 
L 376.229016 316.21174 
L 376.472531 316.21174 
L 376.594289 414.295916 
L 376.716046 413.635871 
L 376.837804 413.90263 
L 377.811865 413.90263 
L 377.933622 414.101725 
L 378.542411 414.101725 
L 378.603289 414.398041 
L 378.725047 413.968643 
L 379.029441 413.968643 
L 379.151199 411.891494 
L 379.394714 411.891494 
L 379.516472 411.394591 
L 379.820866 411.394591 
L 379.942623 412.691896 
L 380.064381 412.691896 
L 380.186139 413.233897 
L 380.247017 413.233897 
L 380.368775 414.79752 
L 380.490533 414.858171 
L 380.61229 413.008834 
L 380.673169 413.008834 
L 380.855806 414.619237 
L 381.221078 414.619237 
L 381.342836 414.413826 
L 381.403715 415.444456 
L 381.464594 415.406328 
L 382.073382 415.346399 
L 382.134261 415.27307 
L 382.256018 415.488202 
L 382.316897 415.418232 
L 382.377776 415.478547 
L 382.925685 415.417414 
L 383.047443 415.229395 
L 384.325898 415.225169 
L 384.386777 415.487018 
L 384.447656 415.390634 
L 384.75205 415.480022 
L 384.873807 415.509834 
L 384.934686 415.054213 
L 384.995565 415.350581 
L 385.543474 415.306175 
L 385.604353 414.79714 
L 385.665232 415.151387 
L 386.030505 415.479646 
L 386.395778 415.508024 
L 386.639293 415.093239 
L 386.943687 415.093239 
L 387.004566 414.910155 
L 387.126324 415.102408 
L 387.552475 415.020935 
L 387.674233 414.777504 
L 387.735112 414.777504 
L 387.795991 414.64389 
L 387.917748 415.206346 
L 388.100385 415.285763 
L 388.465657 415.285763 
L 388.587415 413.469553 
L 388.709173 413.469553 
L 388.83093 413.855059 
L 389.135324 413.855059 
L 389.257082 415.037197 
L 389.317961 415.037197 
L 389.439719 409.426733 
L 389.500597 409.426733 
L 389.622355 414.163197 
L 389.744113 403.262635 
L 389.926749 403.262635 
L 390.048507 397.597662 
L 391.509598 397.597662 
L 391.631356 408.513428 
L 391.753113 408.513428 
L 391.874871 413.718923 
L 391.996629 413.718923 
L 392.118386 412.332356 
L 392.301023 412.332356 
L 392.42278 412.926845 
L 393.031569 412.926845 
L 393.153326 415.493096 
L 394.00563 415.428125 
L 394.127387 412.963087 
L 394.249145 414.761329 
L 394.736175 414.761329 
L 394.797054 412.553062 
L 394.857933 414.168782 
L 394.979691 414.168782 
L 395.101448 415.133476 
L 395.466721 415.133476 
L 395.710236 411.423217 
L 396.440782 411.313049 
L 396.501661 410.178013 
L 396.623419 413.443576 
L 396.866934 413.443576 
L 396.988692 415.523114 
L 397.293086 415.483907 
L 397.414843 415.318053 
L 397.962753 415.318053 
L 398.08451 415.479555 
L 398.145389 415.479555 
L 398.328026 415.3655 
L 398.449783 415.523975 
L 400.276148 415.460911 
L 400.397905 415.267579 
L 400.580542 415.267579 
L 400.763178 413.918661 
L 401.067572 413.918661 
L 401.18933 414.15026 
L 401.250209 414.15026 
L 401.371966 414.99586 
L 401.67636 414.99586 
L 401.919876 415.454657 
L 402.102512 415.322445 
L 402.285149 415.258487 
L 402.406906 415.449376 
L 402.467785 415.449376 
L 402.589543 415.19541 
L 402.650421 415.19541 
L 402.772179 414.658729 
L 402.833058 414.658729 
L 403.015694 414.792318 
L 403.076573 414.792318 
L 403.25921 415.331298 
L 404.294149 415.343256 
L 404.415907 414.797853 
L 404.537665 414.797853 
L 404.659422 411.792167 
L 404.78118 412.451232 
L 404.842059 412.451232 
L 404.963816 411.682005 
L 405.207332 411.682005 
L 405.389968 412.704515 
L 405.511726 410.418024 
L 405.937877 410.418024 
L 406.120514 415.203061 
L 406.546666 415.203061 
L 406.668423 415.035931 
L 406.790181 413.683221 
L 407.277211 413.683221 
L 407.398969 414.152716 
L 407.642484 414.152716 
L 407.825121 414.687375 
L 408.251272 414.708162 
L 408.37303 415.417451 
L 408.616545 415.396108 
L 408.738303 415.174192 
L 409.164455 415.174192 
L 409.286212 415.476405 
L 409.468849 415.185037 
L 409.590606 415.321462 
L 409.955879 415.321462 
L 410.077637 413.693422 
L 410.199394 414.131527 
L 410.260273 414.131527 
L 410.382031 411.836004 
L 410.503789 411.836004 
L 410.625546 414.052726 
L 410.686425 414.052726 
L 410.747304 411.066916 
L 410.869061 414.433032 
L 410.990819 414.604415 
L 411.051698 414.604415 
L 411.173456 413.859744 
L 411.234334 413.895147 
L 411.356092 414.702866 
L 411.538728 414.799062 
L 411.599607 414.799062 
L 411.721365 411.868048 
L 411.904001 411.868048 
L 411.96488 411.694182 
L 412.086638 399.423587 
L 412.451911 399.36112 
L 412.573668 394.987207 
L 413.182456 394.987207 
L 413.304214 389.151706 
L 413.608608 389.151706 
L 413.791245 412.948324 
L 415.374094 412.874552 
L 415.495851 409.264716 
L 415.861124 409.264716 
L 415.922003 407.195379 
L 416.043761 412.100237 
L 416.165518 412.100237 
L 416.287276 412.785386 
L 416.409034 407.195379 
L 416.469912 407.195379 
L 416.59167 405.211049 
L 417.017822 405.211049 
L 417.139579 407.195379 
L 417.62661 407.195379 
L 417.748368 402.547173 
L 418.600671 402.547173 
L 418.722429 412.653763 
L 418.844186 413.602848 
L 418.905065 413.602848 
L 419.026823 405.462195 
L 419.513853 405.462195 
L 419.635611 414.586309 
L 419.818247 414.586309 
L 420.000884 412.823095 
L 420.244399 414.008357 
L 420.305278 414.087718 
L 420.427035 415.19853 
L 421.888127 415.156391 
L 422.009885 415.06259 
L 422.192521 415.09023 
L 422.314279 415.422624 
L 422.375158 415.422624 
L 422.496915 415.091934 
L 422.679552 415.091934 
L 422.862188 415.441283 
L 423.044824 415.330494 
L 423.227461 415.439606 
L 423.410097 415.479622 
L 423.592734 415.353528 
L 423.714491 415.353528 
L 423.836249 415.518928 
L 424.992947 415.27552 
L 425.175583 415.465765 
L 426.027886 415.494916 
L 426.149644 415.278132 
L 426.393159 415.278132 
L 426.575796 415.489687 
L 426.819311 415.343817 
L 427.184584 415.343817 
L 427.306342 414.955264 
L 427.549857 414.955264 
L 427.671614 415.330043 
L 428.584797 415.220269 
L 428.767433 415.141792 
L 429.132706 415.2557 
L 430.045888 415.176678 
L 430.167646 415.435353 
L 430.95907 415.354847 
L 431.141707 415.252909 
L 431.385222 415.252909 
L 431.446101 415.474521 
L 431.50698 413.930206 
L 431.628737 415.318998 
L 431.689616 415.318998 
L 431.811374 415.490756 
L 432.176647 415.392468 
L 432.298404 415.379827 
L 432.420162 414.226617 
L 432.481041 414.226617 
L 432.602798 413.430251 
L 432.968071 413.430251 
L 433.089829 414.226617 
L 433.150708 414.226617 
L 433.211587 413.82447 
L 433.333344 414.47451 
L 433.57686 414.47451 
L 433.698617 413.82447 
L 433.820375 413.82447 
L 433.881254 414.262299 
L 434.003011 413.82447 
L 434.550921 413.82447 
L 434.611799 415.15409 
L 434.672678 393.75128 
L 434.733557 407.016561 
L 434.855315 407.016561 
L 434.977072 415.113761 
L 435.037951 414.707776 
L 435.09883 415.31779 
L 435.159709 415.015941 
L 435.403224 415.116008 
L 435.524982 415.422919 
L 435.58586 415.422919 
L 435.646739 415.153301 
L 435.768497 415.487398 
L 435.829376 415.484751 
L 435.951133 415.161274 
L 436.072891 415.161274 
L 436.559921 405.71561 
L 436.742558 405.71561 
L 436.864316 400.235523 
L 436.986073 412.694809 
L 437.229588 406.495417 
L 437.290467 406.946445 
L 437.412225 415.169537 
L 437.473104 415.169537 
L 437.594861 414.494208 
L 437.838377 414.494208 
L 437.899255 415.298566 
L 437.960134 415.285284 
L 438.142771 415.419826 
L 438.203649 415.419826 
L 438.325407 414.75639 
L 438.447165 414.75639 
L 438.508044 413.583274 
L 438.568922 413.712788 
L 438.69068 414.011305 
L 438.995074 414.011305 
L 439.116832 415.19597 
L 439.299468 415.417903 
L 439.482105 415.313695 
L 439.664741 415.228062 
L 439.786499 415.368953 
L 439.908256 415.368953 
L 440.030014 414.7686 
L 440.090893 414.7686 
L 440.21265 414.428902 
L 440.273529 414.428902 
L 440.395287 414.676408 
L 441.125833 414.567734 
L 441.24759 410.016407 
L 441.308469 410.016407 
L 441.430227 412.270307 
L 441.491105 412.270307 
L 441.673742 415.257093 
L 441.7955 415.257093 
L 442.039015 412.4003 
L 442.28253 412.4003 
L 442.343409 408.863488 
L 442.404288 411.458215 
L 442.526045 408.528485 
L 442.647803 412.711589 
L 442.708682 412.711589 
L 442.891318 411.595971 
L 443.013076 408.949447 
L 443.31747 408.949447 
L 443.439228 403.63904 
L 443.560985 408.705166 
L 443.621864 408.705166 
L 443.682743 365.73605 
L 443.743622 406.212004 
L 443.8045 399.414062 
L 443.926258 399.414062 
L 444.048016 411.458434 
L 444.108895 411.458434 
L 444.35241 415.08095 
L 444.535046 415.08095 
L 444.595925 414.317402 
L 444.656804 415.08095 
L 444.778561 413.889282 
L 444.961198 413.889282 
L 445.082956 415.120158 
L 445.204713 414.742114 
L 445.448228 414.742114 
L 445.569986 415.051723 
L 445.691744 414.885414 
L 445.813501 414.815759 
L 445.87438 414.772617 
L 445.996138 412.592386 
L 446.117895 412.781484 
L 446.300532 412.781484 
L 446.42229 414.519773 
L 446.483168 414.519773 
L 446.665805 414.766378 
L 446.848441 414.766378 
L 446.970199 414.448429 
L 447.335472 414.448429 
L 447.457229 413.585737 
L 447.578987 413.585737 
L 447.700745 412.491273 
L 448.309533 412.546668 
L 448.43129 413.633427 
L 448.492169 413.633427 
L 448.613927 413.778499 
L 448.735684 413.139814 
L 448.9792 413.139814 
L 449.040079 412.414815 
L 449.161836 392.700038 
L 449.709746 392.700038 
L 449.831503 383.504317 
L 450.257655 383.504317 
L 450.318534 392.213255 
L 450.379412 392.14586 
L 450.805564 392.14586 
L 450.927322 378.464169 
L 451.049079 396.431098 
L 451.231716 396.431098 
L 451.353474 378.464169 
L 451.414352 378.464169 
L 451.53611 397.667087 
L 452.02314 397.667087 
L 452.084019 378.464169 
L 452.205777 396.349915 
L 452.692807 396.349915 
L 452.814565 318.394611 
L 453.301596 318.394611 
L 453.423353 392.483165 
L 453.484232 392.483165 
L 453.60599 367.896416 
L 454.09302 367.896416 
L 454.214778 412.965509 
L 454.275657 411.461905 
L 454.336535 412.298289 
L 454.397414 381.814886 
L 454.458293 396.92165 
L 454.580051 396.92165 
L 454.701808 381.814886 
L 454.762687 381.814886 
L 454.884445 383.848819 
L 455.006202 314.45581 
L 455.188839 314.45581 
L 455.310597 311.002445 
L 455.614991 311.002445 
L 455.736748 320.869816 
L 455.858506 410.386093 
L 455.980263 410.386093 
L 456.102021 414.831954 
L 456.1629 414.831954 
L 456.223779 413.838609 
L 456.284658 414.067187 
L 456.406415 414.505523 
L 456.467294 414.505523 
L 456.589052 411.021014 
L 456.771688 411.021014 
L 456.893446 415.28579 
L 457.015203 415.217192 
L 457.136961 415.448203 
L 457.258719 415.272652 
L 457.68487 415.272652 
L 457.806628 415.435489 
L 457.867507 415.324942 
L 457.928386 414.753081 
L 458.050143 415.521251 
L 458.171901 415.480275 
L 458.293658 415.320423 
L 458.354537 415.320423 
L 458.658931 403.423432 
L 458.780689 372.125343 
L 459.024204 372.125343 
L 459.145962 363.982626 
L 459.450356 363.982626 
L 459.572114 372.125343 
L 460.546175 372.125343 
L 460.667932 361.60529 
L 460.78969 379.599433 
L 461.27672 379.599433 
L 461.398478 406.140904 
L 461.641993 406.140904 
L 461.763751 359.598479 
L 462.007266 359.598479 
L 462.129024 335.143608 
L 462.250781 402.490625 
L 462.372539 402.490625 
L 462.494297 223.850097 
L 462.737812 223.850097 
L 462.85957 287.847168 
L 463.529237 287.847168 
L 463.650994 371.438882 
L 463.833631 371.438882 
L 464.077146 334.869737 
L 464.259782 334.869737 
L 464.38154 316.28754 
L 464.625055 316.28754 
L 464.685934 385.411326 
L 464.746813 383.148675 
L 464.86857 394.605764 
L 465.172965 394.605764 
L 465.294722 375.720654 
L 465.599116 375.720654 
L 465.720874 366.102198 
L 465.842632 411.250985 
L 465.90351 411.250985 
L 466.086147 363.03681 
L 466.207904 334.052685 
L 466.390541 415.11334 
L 466.512299 412.941189 
L 466.755814 412.941189 
L 466.877571 410.758078 
L 467.48636 410.758078 
L 467.608117 401.733401 
L 467.729875 406.463894 
L 467.851632 406.463894 
L 467.97339 407.443483 
L 468.095148 411.697268 
L 468.156027 411.697268 
L 468.277784 403.366708 
L 468.460421 413.494902 
L 468.582178 414.120937 
L 470.225906 414.01933 
L 470.347664 411.314983 
L 470.5303 411.314983 
L 470.652058 412.802703 
L 470.712937 412.802703 
L 470.834694 411.144313 
L 471.686998 411.144313 
L 471.747877 408.590747 
L 471.869634 414.155839 
L 471.991392 414.155839 
L 472.113149 409.483965 
L 472.234907 409.483965 
L 472.356665 415.246556 
L 472.60018 415.325593 
L 472.721938 413.575621 
L 472.904574 413.575621 
L 473.026332 405.250895 
L 473.087211 405.250895 
L 473.208968 394.505391 
L 473.452483 394.505391 
L 473.574241 403.113162 
L 474.183029 403.113162 
L 474.304787 407.784041 
L 474.791817 407.784041 
L 474.913575 412.243568 
L 475.217969 412.243568 
L 475.339727 412.090334 
L 475.461484 414.763209 
L 475.583242 414.763209 
L 475.644121 415.188687 
L 475.765878 414.440891 
L 475.948515 414.440891 
L 476.070272 414.138373 
L 476.131151 414.138373 
L 476.252909 408.297543 
L 476.374667 414.440891 
L 476.557303 414.440891 
L 476.679061 415.335887 
L 476.800818 415.145777 
L 476.861697 415.449935 
L 476.922576 415.379751 
L 477.105212 415.348043 
L 477.22697 415.168432 
L 477.470485 415.168432 
L 477.592243 412.013163 
L 478.992456 412.013163 
L 479.114213 415.138915 
L 479.357729 415.138915 
L 479.479486 413.788122 
L 479.78388 413.788122 
L 479.905638 415.018276 
L 479.966517 415.018276 
L 480.088274 414.829182 
L 480.514426 414.829182 
L 480.636184 413.494437 
L 480.81882 413.494437 
L 480.940578 413.877417 
L 481.062335 413.877417 
L 481.184093 412.775866 
L 481.305851 412.775866 
L 481.427608 415.300141 
L 481.549366 415.45692 
L 482.036396 415.422265 
L 482.158154 415.110536 
L 482.279912 415.110536 
L 482.401669 415.414571 
L 482.462548 415.414571 
L 482.584306 415.252613 
L 482.766942 415.30993 
L 483.193094 415.30993 
L 483.314851 415.525218 
L 483.619246 415.523926 
L 483.741003 415.284356 
L 484.288913 415.284356 
L 484.471549 415.415279 
L 485.141216 415.492725 
L 485.262974 415.255662 
L 485.628246 415.255662 
L 485.810883 415.36871 
L 485.871762 415.36871 
L 485.993519 415.099965 
L 486.054398 415.099965 
L 486.176156 415.401091 
L 486.358792 415.327923 
L 487.028459 415.436841 
L 487.332853 415.427659 
L 487.759005 415.439697 
L 487.880763 415.302799 
L 488.00252 415.232722 
L 488.063399 415.490264 
L 488.124278 415.39888 
L 488.246036 415.201797 
L 489.159218 415.261668 
L 489.280975 415.393396 
L 489.463612 415.383913 
L 489.646248 415.511986 
L 490.0724 415.442301 
L 490.194158 415.008931 
L 490.315915 415.442056 
L 490.681188 415.484601 
L 490.802946 414.663912 
L 491.046461 414.663912 
L 491.168219 415.48437 
L 491.411734 415.52436 
L 493.968644 415.477064 
L 494.090402 415.02685 
L 494.69919 415.02685 
L 494.881826 414.334802 
L 494.942705 414.334802 
L 495.003584 415.150958 
L 495.064463 414.756143 
L 495.247099 414.756143 
L 495.368857 411.811804 
L 495.429736 411.811804 
L 495.551493 410.530874 
L 495.612372 410.530874 
L 495.673251 411.035292 
L 495.916766 415.04239 
L 496.099403 415.04239 
L 496.22116 415.179687 
L 496.282039 415.179687 
L 496.403797 415.04239 
L 496.464676 415.04239 
L 496.586433 415.334387 
L 496.647312 415.04239 
L 496.829948 415.345796 
L 496.951706 415.362035 
L 497.073464 408.719189 
L 497.134343 408.719189 
L 497.2561 413.272773 
L 497.316979 413.272773 
L 497.438737 411.769353 
L 497.499615 411.769353 
L 497.621373 410.036718 
L 497.743131 410.036718 
L 497.864888 414.227589 
L 497.925767 414.227589 
L 498.047525 415.402416 
L 498.838949 415.380637 
L 498.960707 415.062708 
L 499.143343 415.062708 
L 499.204222 414.676634 
L 499.32598 415.225784 
L 499.447738 414.957891 
L 500.056526 414.957891 
L 500.178283 415.220899 
L 501.091466 415.194131 
L 501.152344 415.502084 
L 501.213223 415.464478 
L 502.735194 415.481576 
L 502.91783 415.23157 
L 503.283103 415.328277 
L 503.40486 414.274871 
L 503.465739 414.274871 
L 503.587497 414.590948 
L 503.648376 414.590948 
L 503.770133 414.33593 
L 504.074527 414.33593 
L 504.196285 415.080525 
L 504.318043 415.080525 
L 504.4398 414.602663 
L 504.622437 414.602663 
L 504.744194 413.329357 
L 504.805073 413.329357 
L 504.926831 415.213912 
L 505.292104 415.213912 
L 505.535619 415.50778 
L 507.179347 415.494851 
L 507.301105 415.282571 
L 507.361983 415.282571 
L 507.483741 415.479952 
L 507.54462 415.303562 
L 507.605499 415.395868 
L 507.727256 415.395868 
L 507.788135 415.274684 
L 507.909893 415.428879 
L 509.918894 415.369416 
L 509.979773 415.303084 
L 510.162409 414.8315 
L 510.284167 414.8315 
L 510.405924 414.705508 
L 510.588561 415.325074 
L 510.771197 415.484901 
L 510.832076 415.484901 
L 510.892955 415.050476 
L 510.953834 415.144485 
L 511.197349 415.144485 
L 511.319106 412.363922 
L 511.379985 412.363922 
L 511.440864 412.015727 
L 511.501743 413.155316 
L 511.623501 396.979619 
L 511.867016 396.979619 
L 511.988773 409.237916 
L 513.815138 409.237916 
L 513.936896 413.070217 
L 513.997774 413.070217 
L 514.119532 414.629329 
L 514.667441 414.629329 
L 514.789199 415.110143 
L 514.850078 415.110143 
L 514.971835 414.930401 
L 515.641502 414.929594 
L 515.76326 409.348737 
L 516.067654 409.348737 
L 516.189412 411.265436 
L 516.432927 411.265436 
L 516.554685 415.394993 
L 516.676442 415.309109 
L 516.7982 415.424085 
L 516.980836 415.308772 
L 517.041715 415.308772 
L 517.102594 415.50594 
L 517.163473 415.465177 
L 517.346109 415.516975 
L 517.406988 415.516975 
L 517.467867 415.276707 
L 517.528746 415.417591 
L 517.650503 415.481731 
L 517.772261 415.131923 
L 518.015776 415.131923 
L 518.137534 414.478257 
L 518.746322 414.478257 
L 518.86808 415.509321 
L 519.050716 415.441273 
L 519.476868 415.458016 
L 519.963898 415.458016 
L 520.085656 415.074445 
L 520.450929 415.074445 
L 520.572686 415.458631 
L 521.303232 415.403436 
L 521.485869 415.213845 
L 521.668505 415.349545 
L 521.729384 415.349545 
L 521.851141 415.185601 
L 522.155536 415.185601 
L 522.338172 415.370283 
L 522.520808 415.270692 
L 523.494869 415.307112 
L 523.616627 415.489576 
L 523.738385 415.385109 
L 523.860142 415.151359 
L 523.9819 415.49038 
L 524.164536 415.395834 
L 524.712446 415.2921 
L 524.834203 415.169417 
L 525.077719 415.469953 
L 525.321234 415.491715 
L 525.564749 415.454576 
L 526.904083 415.363038 
L 526.964962 415.321619 
L 527.147598 415.443133 
L 529.704509 415.430571 
L 529.765387 415.194461 
L 529.826266 415.384005 
L 529.948024 415.384005 
L 530.13066 415.26969 
L 530.252418 415.506741 
L 530.739448 415.474784 
L 530.861206 415.323945 
L 530.922085 415.323945 
L 531.043843 414.982735 
L 531.957025 414.967746 
L 532.078782 415.41461 
L 532.626692 415.325713 
L 532.931086 415.122034 
L 533.052843 414.236977 
L 533.23548 414.236977 
L 533.357238 413.282193 
L 533.478995 413.851775 
L 533.539874 413.851775 
L 533.661632 406.21709 
L 533.905147 406.21709 
L 534.026905 412.670358 
L 534.513935 412.670358 
L 534.696571 412.969931 
L 535.000966 412.969931 
L 535.122723 413.68119 
L 535.183602 413.68119 
L 535.244481 415.334479 
L 535.30536 414.470226 
L 535.366238 406.362033 
L 535.427117 408.537684 
L 535.548875 408.537684 
L 535.609754 413.794904 
L 535.670633 411.136762 
L 535.79239 411.136762 
L 535.914148 413.794904 
L 536.157663 413.794904 
L 536.218542 408.412335 
L 536.279421 412.212976 
L 536.401178 412.212976 
L 536.522936 415.372373 
L 536.766451 415.052005 
L 536.888209 415.268367 
L 537.009966 415.070721 
L 537.192603 415.131969 
L 537.253482 415.399179 
L 537.314361 415.380099 
L 537.375239 415.380099 
L 537.496997 414.956815 
L 537.618755 415.309717 
L 537.801391 415.19852 
L 538.531937 415.19852 
L 538.653694 415.414812 
L 539.505998 415.387675 
L 539.627756 415.295212 
L 539.749513 415.497519 
L 540.358301 415.476427 
L 540.480059 415.012904 
L 540.723574 415.000299 
L 540.784453 415.402287 
L 541.027968 413.148627 
L 541.575878 413.148627 
L 541.697635 415.374163 
L 542.062908 415.43183 
L 542.306423 413.253302 
L 542.48906 415.516804 
L 543.097848 415.516062 
L 543.219606 415.288842 
L 543.463121 415.496005 
L 543.950151 415.509667 
L 544.071909 414.934978 
L 544.680697 414.934978 
L 544.924212 411.380417 
L 545.654758 411.380417 
L 545.776516 414.189811 
L 546.56794 414.189811 
L 546.689698 414.355081 
L 547.237607 414.355081 
L 547.359365 413.246382 
L 548.576941 413.246382 
L 548.698699 397.708478 
L 548.759578 397.708478 
L 548.881335 413.765951 
L 550.038033 413.765951 
L 550.159791 413.980796 
L 550.220669 413.980796 
L 550.403306 415.126004 
L 550.525063 414.877047 
L 550.7077 414.877047 
L 550.829457 414.173881 
L 551.012094 414.173881 
L 551.133852 414.895835 
L 551.255609 414.895835 
L 551.316488 415.202714 
L 551.377367 415.10194 
L 551.620882 415.10194 
L 551.681761 415.231298 
L 551.803519 414.903442 
L 551.864397 414.903442 
L 551.986155 414.786636 
L 552.22967 409.597001 
L 552.290549 409.597001 
L 552.412307 407.96366 
L 552.473186 407.96366 
L 552.594943 411.174493 
L 552.655822 411.174493 
L 552.77758 409.597001 
L 552.838458 409.597001 
L 552.960216 413.892992 
L 553.142852 413.892992 
L 553.26461 414.831326 
L 553.812519 414.831326 
L 553.934277 414.043995 
L 554.177792 414.043995 
L 554.238671 414.61614 
L 554.29955 413.592638 
L 554.360429 414.102277 
L 554.725702 414.167334 
L 554.908338 412.908489 
L 555.030096 412.908489 
L 555.273611 409.884311 
L 555.395369 413.267477 
L 555.578005 413.267477 
L 555.699763 412.500754 
L 555.82152 412.500754 
L 555.943278 415.447485 
L 556.065036 415.447485 
L 556.186793 414.40564 
L 556.247672 414.893236 
L 556.36943 414.289419 
L 556.430308 414.289419 
L 556.552066 415.106426 
L 556.795581 415.106426 
L 556.85646 414.978667 
L 557.160854 415.499477 
L 557.221733 415.504125 
L 557.343491 414.410887 
L 557.526127 414.328754 
L 557.647885 410.474342 
L 557.8914 410.474342 
L 558.013158 408.272899 
L 558.074036 399.121934 
L 558.195794 411.062227 
L 558.317552 411.062227 
L 558.439309 396.512701 
L 559.291613 396.512701 
L 559.41337 398.40823 
L 559.535128 398.40823 
L 559.656886 383.484326 
L 559.778643 383.484326 
L 559.900401 208.365311 
L 560.022159 305.027824 
L 560.326553 305.027824 
L 560.570068 75.33 
L 560.630947 75.33 
L 560.752704 166.776558 
L 561.057098 166.776558 
L 561.239735 335.03639 
L 561.48325 335.03639 
L 561.605008 341.689686 
L 561.726765 284.199866 
L 561.970281 284.199866 
L 562.092038 399.057158 
L 562.396432 399.057158 
L 562.51819 356.724572 
L 562.761705 356.724572 
L 563.005221 409.190005 
L 563.370493 409.190005 
L 563.431372 411.29935 
L 563.492251 407.792307 
L 563.674887 413.422554 
L 563.857524 413.422554 
L 564.04016 414.433298 
L 564.648949 414.433298 
L 564.709827 414.791726 
L 564.831585 413.190992 
L 564.953343 413.190992 
L 565.0751 411.628363 
L 565.683888 411.628363 
L 565.805646 412.355956 
L 566.049161 412.355956 
L 566.11004 415.441345 
L 566.170919 415.387881 
L 566.779707 415.480727 
L 566.901465 415.256369 
L 567.023222 415.256369 
L 567.14498 415.502528 
L 567.388495 415.478311 
L 567.510253 414.99719 
L 567.753768 414.99719 
L 567.875526 415.348039 
L 568.119041 414.266934 
L 568.545193 414.250228 
L 568.66695 414.768 
L 568.788708 414.768 
L 568.910466 415.239551 
L 569.093102 415.239551 
L 569.275738 414.524337 
L 569.519254 414.569146 
L 569.641011 412.821202 
L 569.762769 412.821202 
L 569.884527 413.526689 
L 570.006284 413.526689 
L 570.067163 405.552624 
L 570.128042 408.287091 
L 570.2498 404.511283 
L 570.310678 404.511283 
L 570.432436 407.658188 
L 570.615072 407.658188 
L 570.73683 401.842444 
L 570.858588 401.842444 
L 570.980345 408.324699 
L 571.041224 408.324699 
L 571.162982 409.161378 
L 571.345618 409.161378 
L 571.406497 409.527488 
L 571.528255 407.164891 
L 571.650012 407.164891 
L 571.77177 414.172224 
L 571.893528 414.172224 
L 572.015285 411.982833 
L 572.624073 411.982833 
L 572.745831 411.621885 
L 572.989346 406.368942 
L 573.111104 393.31421 
L 574.024286 393.31421 
L 574.146044 404.019569 
L 574.389559 404.019569 
L 574.511317 403.71988 
L 574.572195 403.71988 
L 574.693953 391.658988 
L 575.059226 391.658988 
L 575.241862 409.306696 
L 575.302741 406.305815 
L 575.424499 406.305815 
L 575.607135 392.93311 
L 576.88559 392.93311 
L 577.068227 409.200308 
L 577.250863 409.200308 
L 577.372621 410.32844 
L 577.555257 410.32844 
L 577.677015 408.373672 
L 577.737894 411.589718 
L 577.92053 391.038189 
L 578.224924 391.038189 
L 578.346682 401.103547 
L 578.529318 401.103547 
L 578.590197 400.355495 
L 578.711955 402.994901 
L 578.833712 402.994901 
L 578.95547 396.836504 
L 579.564258 396.836504 
L 579.686016 396.456855 
L 579.807774 396.456855 
L 579.99041 411.654081 
L 580.294804 411.654081 
L 580.47744 414.17234 
L 580.538319 414.17234 
L 580.660077 398.931763 
L 580.781835 401.392918 
L 581.086229 401.392918 
L 581.268865 415.363366 
L 581.451502 415.363366 
L 581.573259 415.160691 
L 581.634138 415.160691 
L 581.755896 400.722721 
L 581.816774 400.32394 
L 581.877653 366.78935 
L 581.938532 382.755824 
L 582.06029 364.506664 
L 582.121168 364.506664 
L 582.182047 393.763112 
L 582.242926 333.677032 
L 582.303805 359.609992 
L 582.364684 359.609992 
L 582.425563 382.320952 
L 582.54732 348.209185 
L 582.851714 348.209185 
L 582.973472 405.604591 
L 583.156108 352.800548 
L 583.216987 352.800548 
L 583.399624 373.241576 
L 583.825775 373.241576 
L 583.886654 362.990869 
L 584.008412 390.375821 
L 584.312806 390.375821 
L 584.495442 395.303482 
L 584.556321 395.303482 
L 584.678079 407.527811 
L 584.860715 407.527811 
L 584.921594 396.158345 
L 584.982473 406.963497 
L 585.043352 406.302872 
L 585.165109 406.302872 
L 585.286867 379.667801 
L 586.260928 379.667801 
L 586.382686 400.964175 
L 586.626201 400.964175 
L 586.68708 406.726231 
L 586.747958 406.182318 
L 586.991474 406.182318 
L 587.052353 405.667575 
L 587.17411 411.686995 
L 587.295868 412.346268 
L 587.478504 412.346268 
L 587.600262 409.026005 
L 587.722019 410.447488 
L 587.843777 407.399333 
L 587.965535 397.193339 
L 588.087292 397.193339 
L 588.20905 407.579937 
L 588.330808 398.80304 
L 588.391686 398.80304 
L 588.574323 414.261697 
L 588.635202 408.562592 
L 588.756959 414.74926 
L 588.878717 411.200838 
L 589.000475 413.063082 
L 589.122232 411.956021 
L 589.24399 411.956021 
L 589.304869 412.186831 
L 589.365747 411.96726 
L 589.670142 399.033625 
L 590.644203 399.033625 
L 590.76596 404.834571 
L 590.826839 404.834571 
L 590.948597 400.758489 
L 591.009475 403.420848 
L 591.131233 414.608027 
L 591.252991 414.626327 
L 591.435627 415.436872 
L 591.496506 415.436872 
L 591.618264 415.228077 
L 591.679142 415.256136 
L 591.861779 405.998956 
L 591.983537 409.707441 
L 592.105294 402.929919 
L 592.166173 402.929919 
L 592.287931 392.100292 
L 592.409688 390.859483 
L 592.774961 390.859483 
L 592.896719 392.164688 
L 592.957598 392.164688 
L 593.018476 393.478248 
L 593.140234 404.958045 
L 593.32287 396.910944 
L 593.444628 405.500894 
L 593.505507 405.500894 
L 593.627265 409.236439 
L 593.87078 409.236439 
L 593.992537 407.09615 
L 594.053416 409.336099 
L 594.114295 407.430988 
L 594.236053 412.980411 
L 594.296932 412.980411 
L 594.418689 410.577439 
L 594.479568 410.577439 
L 594.601326 403.891395 
L 594.723083 403.891395 
L 594.844841 412.434253 
L 594.90572 412.434253 
L 595.027477 414.74934 
L 595.149235 412.575474 
L 595.514508 412.575474 
L 595.697144 415.264876 
L 595.818902 415.264876 
L 595.94066 414.844158 
L 596.184175 414.844158 
L 596.366811 415.363486 
L 596.853842 415.397712 
L 596.975599 414.477848 
L 597.036478 414.477848 
L 597.158236 415.234128 
L 598.010539 415.311478 
L 598.132297 415.022853 
L 598.193176 415.022853 
L 598.436691 415.269537 
L 598.558449 415.269537 
L 598.619327 415.522394 
L 598.680206 415.466228 
L 598.801964 415.336939 
L 598.862843 415.464609 
L 599.045479 415.062194 
L 599.106358 415.062194 
L 599.228116 413.665296 
L 599.349873 413.665296 
L 599.471631 413.18427 
L 599.593388 415.002899 
L 599.715146 415.002899 
L 599.836904 415.178087 
L 600.080419 415.178087 
L 600.202177 413.099913 
L 600.506571 413.099913 
L 600.689207 415.437416 
L 600.750086 415.437416 
L 600.810965 415.099977 
L 600.932722 409.537446 
L 601.05448 409.537446 
L 601.176238 414.37056 
L 601.419753 414.37056 
L 601.480632 413.97669 
L 601.663268 410.802231 
L 602.08942 410.802231 
L 602.211177 414.463905 
L 602.454693 414.917222 
L 603.063481 414.991961 
L 603.185239 414.734806 
L 603.367875 414.734806 
L 603.489633 412.973813 
L 603.61139 412.973813 
L 603.733148 413.392789 
L 603.976663 413.392789 
L 604.098421 414.175009 
L 605.011603 414.175009 
L 605.133361 413.245533 
L 605.194239 413.245533 
L 605.315997 414.739177 
L 605.742149 414.739177 
L 605.863906 414.377677 
L 605.985664 415.176285 
L 606.229179 415.176285 
L 606.350937 414.654828 
L 606.533573 414.654828 
L 606.655331 414.112226 
L 606.898846 414.112226 
L 607.020604 409.246069 
L 607.142362 414.845642 
L 607.264119 414.565965 
L 607.507634 414.565965 
L 607.629392 414.85967 
L 607.690271 414.85967 
L 607.872907 414.359563 
L 607.933786 414.359563 
L 607.994665 415.160707 
L 608.055544 414.615707 
L 608.116423 414.615707 
L 608.23818 415.46228 
L 608.299059 415.505089 
L 608.420817 415.294347 
L 609.029605 415.259769 
L 609.151362 414.879 
L 609.699272 414.837565 
L 609.821029 415.349446 
L 610.186302 415.349446 
L 610.30806 414.907757 
L 610.490696 414.907757 
L 610.551575 414.768292 
L 610.673333 414.907757 
L 610.916848 414.907757 
L 611.038606 414.005015 
L 611.343 414.005015 
L 611.464757 413.066822 
L 611.83003 413.143411 
L 611.951788 412.300373 
L 612.134424 412.300373 
L 612.256182 414.281447 
L 612.743213 414.281447 
L 612.86497 415.337952 
L 612.925849 415.337952 
L 613.108485 411.489695 
L 613.839031 411.558195 
L 614.082546 396.868794 
L 614.143425 396.868794 
L 614.265183 411.272932 
L 615.42188 411.272932 
L 615.543638 413.219658 
L 615.848032 413.219658 
L 615.96979 406.696055 
L 616.517699 406.696055 
L 616.639457 402.652749 
L 616.822093 402.652749 
L 616.882972 409.250517 
L 616.943851 405.002169 
L 617.49176 405.002169 
L 617.613518 414.092847 
L 617.796154 414.092847 
L 617.917912 377.399099 
L 618.100548 377.399099 
L 618.161427 379.834648 
L 618.283185 411.2388 
L 618.648458 411.2388 
L 618.770215 412.657218 
L 619.01373 412.657218 
L 619.135488 413.84387 
L 619.318125 413.751886 
L 619.439882 415.250305 
L 619.683397 415.250305 
L 619.805155 414.836818 
L 620.59658 414.836818 
L 620.718337 415.26055 
L 620.779216 415.26055 
L 620.840095 415.400386 
L 620.961853 415.033049 
L 621.144489 415.467892 
L 621.266247 415.280462 
L 621.570641 415.375019 
L 621.692398 412.168359 
L 621.996792 412.168359 
L 622.11855 408.376434 
L 622.483823 408.376434 
L 622.605581 410.988379 
L 623.275248 410.988379 
L 623.397005 415.013438 
L 624.249309 415.054531 
L 624.371066 415.394712 
L 624.431945 415.324331 
L 624.553703 415.324331 
L 624.67546 415.501807 
L 625.953915 415.405312 
L 626.136552 415.315607 
L 627.232371 415.315607 
L 627.293249 415.156413 
L 627.415007 415.437451 
L 628.206432 415.391518 
L 628.328189 415.217405 
L 628.936977 415.243021 
L 629.058735 415.069647 
L 629.484887 415.069647 
L 629.606644 415.416184 
L 629.667523 415.404825 
L 629.85016 415.525319 
L 634.47695 415.522946 
L 634.720465 415.372618 
L 635.024859 415.407754 
L 635.207495 414.985043 
L 635.451011 415.159154 
L 635.572768 415.140906 
L 635.694526 415.288472 
L 635.755405 415.288472 
L 635.877162 415.100873 
L 636.303314 415.201132 
L 636.425072 413.253192 
L 636.972981 413.253192 
L 637.094739 407.681014 
L 637.155617 407.681014 
L 637.277375 405.16197 
L 637.399133 411.50964 
L 637.52089 400.727878 
L 637.581769 400.727878 
L 637.703527 386.757281 
L 638.007921 386.757281 
L 638.190557 406.869939 
L 638.373194 406.869939 
L 638.494951 410.21806 
L 638.677588 410.21806 
L 638.738467 400.727878 
L 638.799345 408.075693 
L 638.981982 408.075693 
L 639.103739 409.983332 
L 639.286376 409.983332 
L 639.408134 406.525607 
L 639.469012 406.525607 
L 639.529891 413.196225 
L 639.834285 362.038026 
L 640.321316 362.038026 
L 640.443073 382.372078 
L 640.564831 361.153448 
L 640.686589 401.04639 
L 641.173619 401.04639 
L 641.356256 410.748082 
L 641.417134 410.748082 
L 641.538892 412.432628 
L 642.391195 412.432628 
L 642.634711 414.893445 
L 642.756468 414.101964 
L 642.817347 414.101964 
L 642.939105 414.722719 
L 642.999984 414.722719 
L 643.121741 412.290339 
L 644.034923 412.290339 
L 644.156681 414.508848 
L 644.21756 414.026179 
L 644.278439 414.073785 
L 644.521954 414.073785 
L 644.643712 414.474575 
L 644.70459 414.474575 
L 644.765469 415.1484 
L 644.887227 413.075357 
L 645.313379 413.075357 
L 645.435136 414.911196 
L 645.556894 414.911196 
L 645.678652 415.456558 
L 646.226561 415.486984 
L 646.348318 415.320514 
L 647.017985 415.36098 
L 647.139743 414.789733 
L 647.626774 414.789733 
L 647.748531 414.367906 
L 648.722592 414.367906 
L 648.84435 414.789733 
L 649.026986 414.789733 
L 649.148744 413.875356 
L 650.061926 413.875356 
L 650.183684 415.440536 
L 661.263628 415.452312 
L 661.385386 415.153518 
L 661.568022 415.153518 
L 661.628901 414.276838 
L 661.750659 415.410195 
L 663.272629 415.513926 
L 663.75966 415.527634 
L 664.003175 415.481653 
L 664.064054 415.52397 
L 664.124932 415.419049 
L 664.185811 415.478404 
L 664.429327 415.457167 
L 664.551084 415.112709 
L 664.672842 415.112709 
L 664.794599 414.911616 
L 665.159872 414.911616 
L 665.28163 413.45117 
L 665.403388 414.821031 
L 665.951297 414.821031 
L 666.073055 414.933378 
L 666.194812 415.448736 
L 667.899419 415.383162 
L 668.082055 415.332968 
L 668.508207 415.332968 
L 668.569086 415.097175 
L 668.629965 415.267082 
L 668.87348 415.229995 
L 668.934359 415.409037 
L 668.995238 415.328158 
L 669.299632 415.328158 
L 669.421389 415.464919 
L 676.300696 415.489296 
L 676.422453 415.32969 
L 677.822666 415.247558 
L 677.944424 415.147963 
L 678.066181 415.504398 
L 678.918485 415.507056 
L 679.040242 415.180752 
L 679.222879 415.231348 
L 679.527273 415.231348 
L 679.64903 415.0597 
L 680.014303 415.0597 
L 680.075182 415.453109 
L 680.19694 415.0597 
L 680.744849 415.123439 
L 680.866607 415.310095 
L 681.049243 415.310095 
L 681.171001 415.051435 
L 681.292758 415.222634 
L 681.414516 415.051435 
L 681.597152 415.051435 
L 681.71891 414.898263 
L 682.75385 414.898263 
L 682.875608 415.14292 
L 683.727911 415.185542 
L 683.971426 415.486175 
L 688.841731 415.508817 
L 688.963489 415.320978 
L 689.146126 415.320978 
L 689.267883 415.514247 
L 689.694035 415.415223 
L 689.876671 415.394389 
L 690.059308 415.468388 
L 690.424581 415.467648 
L 691.946551 415.482307 
L 692.068309 415.305686 
L 692.250945 415.305686 
L 692.372703 415.476933 
L 695.903674 415.49174 
L 696.025432 413.588413 
L 696.08631 413.725645 
L 696.208068 412.250935 
L 696.390705 412.250935 
L 696.512462 412.771159 
L 696.573341 412.575614 
L 696.63422 412.771159 
L 696.755977 411.227987 
L 696.816856 411.227987 
L 696.938614 404.997702 
L 698.217069 404.997702 
L 698.338827 404.117039 
L 698.460584 382.164198 
L 698.886736 382.164198 
L 699.008494 352.59811 
L 699.130251 361.32561 
L 699.617282 361.32561 
L 699.678161 413.53909 
L 699.739039 410.922268 
L 699.799918 413.884186 
L 699.860797 413.19491 
L 700.530464 413.19491 
L 700.591343 406.75394 
L 700.652222 411.768651 
L 700.834858 405.534078 
L 700.956616 409.029538 
L 701.078373 409.029538 
L 701.139252 407.397731 
L 701.321889 412.667846 
L 701.565404 412.667846 
L 701.687161 414.469247 
L 702.174192 414.469247 
L 702.235071 415.027216 
L 702.356828 414.422373 
L 702.722101 414.422373 
L 702.843859 413.789568 
L 703.391768 413.789568 
L 703.513526 414.721262 
L 703.635284 414.721262 
L 703.757041 412.06393 
L 703.81792 412.06393 
L 703.878799 410.095357 
L 703.939678 411.51964 
L 704.061435 401.532524 
L 704.548466 401.532524 
L 704.670223 412.715768 
L 704.974617 412.715768 
L 705.096375 402.181871 
L 705.218133 402.181871 
L 705.33989 380.506723 
L 705.644284 380.506723 
L 705.766042 404.019047 
L 705.8878 383.741171 
L 706.800982 383.741171 
L 706.92274 406.176557 
L 707.227134 406.176557 
L 707.40977 414.044735 
L 707.470649 414.044735 
L 707.592407 414.910476 
L 707.775043 414.910476 
L 707.835922 414.564364 
L 707.896801 415.452228 
L 707.957679 415.229042 
L 708.262073 415.155959 
L 708.44471 415.470994 
L 710.149317 415.524411 
L 710.210196 415.333955 
L 710.271074 415.489996 
L 710.51459 415.502459 
L 710.636347 415.346298 
L 710.697226 415.346298 
L 710.879863 415.230605 
L 710.940741 415.230605 
L 711.00162 415.387045 
L 711.062499 415.279031 
L 711.184257 415.279031 
L 711.306014 415.461518 
L 721.959807 415.493652 
L 722.081565 415.267954 
L 722.385959 415.267954 
L 722.446837 415.439942 
L 722.507716 415.414767 
L 728.230325 415.5116 
L 728.534719 415.525976 
L 728.717355 415.478835 
L 730.117568 415.467945 
L 730.239326 415.319032 
L 731.152508 415.343513 
L 731.274266 414.794183 
L 731.456902 414.794183 
L 731.57866 415.49914 
L 732.6136 415.406067 
L 732.857115 415.371851 
L 732.978872 415.515284 
L 735.474904 415.409482 
L 735.535783 415.202388 
L 735.596661 415.513876 
L 735.65754 415.43003 
L 737.301268 415.523555 
L 737.423026 415.122543 
L 738.031814 415.025159 
L 738.153572 415.025159 
L 738.214451 415.525591 
L 738.275329 415.43145 
L 739.188512 415.436024 
L 739.24939 415.296221 
L 739.310269 415.32745 
L 739.492906 415.446973 
L 739.675542 415.477127 
L 739.858179 415.452234 
L 740.040815 415.376953 
L 740.162573 415.376953 
L 740.28433 415.503634 
L 742.35421 415.418844 
L 742.415089 415.364123 
L 742.597725 415.4782 
L 743.023877 415.415931 
L 743.145635 415.270332 
L 743.450029 415.270332 
L 743.571786 414.800764 
L 743.693544 415.51417 
L 745.093757 415.425985 
L 745.154635 415.317319 
L 745.337272 415.51336 
L 745.885181 415.509496 
L 747.163636 415.505915 
L 747.163636 415.505915 
" clip-path="url(#paf14682205)" style="fill: none; stroke: #4c72b0; stroke-width: 2; stroke-linecap: round"/>
   </g>
   <g id="patch_3">
    <path d="M 108 432.54 
L 108 58.32 
" style="fill: none; stroke: #000000; stroke-linejoin: miter; stroke-linecap: square"/>
   </g>
   <g id="patch_4">
    <path d="M 777.6 432.54 
L 777.6 58.32 
" style="fill: none; stroke: #000000; stroke-linejoin: miter; stroke-linecap: square"/>
   </g>
   <g id="patch_5">
    <path d="M 108 432.54 
L 777.6 432.54 
" style="fill: none; stroke: #000000; stroke-linejoin: miter; stroke-linecap: square"/>
   </g>
   <g id="patch_6">
    <path d="M 108 58.32 
L 777.6 58.32 
" style="fill: none; stroke: #000000; stroke-linejoin: miter; stroke-linecap: square"/>
   </g>
   <g id="legend_1">
    <g id="patch_7">
     <path d="M 680.743925 89.032028 
L 767.8 89.032028 
Q 770.6 89.032028 770.6 86.232028 
L 770.6 68.12 
Q 770.6 65.32 767.8 65.32 
L 680.743925 65.32 
Q 677.943925 65.32 677.943925 68.12 
L 677.943925 86.232028 
Q 677.943925 89.032028 680.743925 89.032028 
z
" style="fill: #ffffff; opacity: 0.8; stroke: #cccccc; stroke-width: 0.8; stroke-linejoin: miter"/>
    </g>
    <g id="line2d_41">
     <path d="M 683.543925 75.82 
L 697.543925 75.82 
L 711.543925 75.82 
" style="fill: none; stroke: #4c72b0; stroke-width: 2; stroke-linecap: round"/>
    </g>
    <g id="text_17">
     <!-- $j = 3.5$ -->
     <g style="fill: #262626" transform="translate(722.743925 80.72) scale(0.14 -0.14)">
      <defs>
       <path id="CMR17-3d" d="M 4115 2048 
C 4211 2048 4307 2048 4307 2156 
C 4307 2272 4198 2272 4090 2272 
L 512 2272 
C 403 2272 294 2272 294 2156 
C 294 2048 390 2048 486 2048 
L 4115 2048 
z
M 4090 927 
C 4198 927 4307 927 4307 1043 
C 4307 1152 4211 1152 4115 1152 
L 486 1152 
C 390 1152 294 1152 294 1043 
C 294 927 403 927 512 927 
L 4090 927 
z
" transform="scale(0.015625)"/>
       <path id="CMR17-33" d="M 1414 2176 
C 1984 2176 2234 1673 2234 1094 
C 2234 322 1824 25 1453 25 
C 1114 25 563 193 390 691 
C 422 678 454 678 486 678 
C 640 678 755 780 755 947 
C 755 1132 614 1216 486 1216 
C 378 1216 211 1164 211 927 
C 211 335 787 -128 1466 -128 
C 2176 -128 2720 432 2720 1087 
C 2720 1718 2208 2176 1600 2246 
C 2086 2347 2554 2776 2554 3353 
C 2554 3856 2048 4224 1472 4224 
C 890 4224 378 3862 378 3347 
C 378 3123 544 3084 627 3084 
C 762 3084 877 3167 877 3334 
C 877 3500 762 3584 627 3584 
C 602 3584 570 3584 544 3571 
C 730 3999 1235 4076 1459 4076 
C 1683 4076 2106 3966 2106 3347 
C 2106 3167 2080 2851 1862 2574 
C 1670 2329 1453 2316 1242 2297 
C 1210 2297 1062 2284 1037 2284 
C 992 2278 966 2272 966 2227 
C 966 2182 973 2176 1101 2176 
L 1414 2176 
z
" transform="scale(0.015625)"/>
      </defs>
      <use xlink:href="#CMMI12-6a" transform="scale(0.996264)"/>
      <use xlink:href="#CMR17-3d" transform="translate(73.636491 0) scale(0.996264)"/>
      <use xlink:href="#CMR17-33" transform="translate(173.025288 0) scale(0.996264)"/>
      <use xlink:href="#CMMI12-3a" transform="translate(218.715766 0) scale(0.996264)"/>
      <use xlink:href="#CMR17-35" transform="translate(245.812943 0) scale(0.996264)"/>
     </g>
    </g>
   </g>
  </g>
 </g>
 <defs>
  <clipPath id="paf14682205">
   <rect x="108" y="58.32" width="669.6" height="374.22"/>
  </clipPath>
 </defs>
</svg>
