<?xml version="1.0" encoding="utf-8" standalone="no"?>
<!DOCTYPE svg PUBLIC "-//W3C//DTD SVG 1.1//EN"
  "http://www.w3.org/Graphics/SVG/1.1/DTD/svg11.dtd">
<svg xmlns:xlink="http://www.w3.org/1999/xlink" width="864pt" height="486pt" viewBox="0 0 864 486" xmlns="http://www.w3.org/2000/svg" version="1.1">
 <metadata>
  <rdf:RDF xmlns:dc="http://purl.org/dc/elements/1.1/" xmlns:cc="http://creativecommons.org/ns#" xmlns:rdf="http://www.w3.org/1999/02/22-rdf-syntax-ns#">
   <cc:Work>
    <dc:type rdf:resource="http://purl.org/dc/dcmitype/StillImage"/>
    <dc:date>2023-02-09T16:22:45.956082</dc:date>
    <dc:format>image/svg+xml</dc:format>
    <dc:creator>
     <cc:Agent>
      <dc:title>Matplotlib v3.6.2, https://matplotlib.org/</dc:title>
     </cc:Agent>
    </dc:creator>
   </cc:Work>
  </rdf:RDF>
 </metadata>
 <defs>
  <style type="text/css">*{stroke-linejoin: round; stroke-linecap: butt}</style>
 </defs>
 <g id="figure_1">
  <g id="patch_1">
   <path d="M 0 486 
L 864 486 
L 864 0 
L 0 0 
z
" style="fill: #ffffff"/>
  </g>
  <g id="axes_1">
   <g id="patch_2">
    <path d="M 108 432.54 
L 777.6 432.54 
L 777.6 58.32 
L 108 58.32 
z
" style="fill: #ffffff"/>
   </g>
   <g id="matplotlib.axis_1">
    <g id="xtick_1">
     <g id="line2d_1">
      <path d="M 138.375485 432.54 
L 138.375485 58.32 
" clip-path="url(#p4a826315e9)" style="fill: none; stroke: #e6e6e6; stroke-width: 0.8; stroke-linecap: round"/>
     </g>
     <g id="line2d_2">
      <defs>
       <path id="m430ba9ecc3" d="M 0 0 
L 0 -4.8 
" style="stroke: #262626"/>
      </defs>
      <g>
       <use xlink:href="#m430ba9ecc3" x="138.375485" y="432.54" style="fill: #262626; stroke: #262626"/>
      </g>
     </g>
     <g id="line2d_3">
      <defs>
       <path id="m6b1a3d0dff" d="M 0 0 
L 0 4.8 
" style="stroke: #262626"/>
      </defs>
      <g>
       <use xlink:href="#m6b1a3d0dff" x="138.375485" y="58.32" style="fill: #262626; stroke: #262626"/>
      </g>
     </g>
     <g id="text_1">
      <!-- $\mathdefault{0}$ -->
      <g style="fill: #262626" transform="translate(135.156348 445.172395) scale(0.132 -0.132)">
       <defs>
        <path id="CMR17-30" d="M 2688 2038 
C 2688 2430 2682 3099 2413 3613 
C 2176 4063 1798 4224 1466 4224 
C 1158 4224 768 4082 525 3620 
C 269 3137 243 2539 243 2038 
C 243 1671 250 1112 448 623 
C 723 -39 1216 -128 1466 -128 
C 1760 -128 2208 -7 2470 604 
C 2662 1048 2688 1568 2688 2038 
z
M 1466 -26 
C 1056 -26 813 328 723 816 
C 653 1196 653 1749 653 2109 
C 653 2604 653 3015 736 3407 
C 858 3954 1216 4121 1466 4121 
C 1728 4121 2067 3947 2189 3420 
C 2272 3054 2278 2623 2278 2109 
C 2278 1691 2278 1176 2202 797 
C 2067 96 1690 -26 1466 -26 
z
" transform="scale(0.015625)"/>
       </defs>
       <use xlink:href="#CMR17-30" transform="scale(0.996264)"/>
      </g>
     </g>
    </g>
    <g id="xtick_2">
     <g id="line2d_4">
      <path d="M 260.133115 432.54 
L 260.133115 58.32 
" clip-path="url(#p4a826315e9)" style="fill: none; stroke: #e6e6e6; stroke-width: 0.8; stroke-linecap: round"/>
     </g>
     <g id="line2d_5">
      <g>
       <use xlink:href="#m430ba9ecc3" x="260.133115" y="432.54" style="fill: #262626; stroke: #262626"/>
      </g>
     </g>
     <g id="line2d_6">
      <g>
       <use xlink:href="#m6b1a3d0dff" x="260.133115" y="58.32" style="fill: #262626; stroke: #262626"/>
      </g>
     </g>
     <g id="text_2">
      <!-- $\mathdefault{2000}$ -->
      <g style="fill: #262626" transform="translate(247.256567 445.172395) scale(0.132 -0.132)">
       <defs>
        <path id="CMR17-32" d="M 2669 990 
L 2554 990 
C 2490 537 2438 460 2413 422 
C 2381 371 1920 371 1830 371 
L 602 371 
C 832 620 1280 1073 1824 1596 
C 2214 1966 2669 2400 2669 3033 
C 2669 3788 2067 4224 1395 4224 
C 691 4224 262 3603 262 3027 
C 262 2777 448 2745 525 2745 
C 589 2745 781 2783 781 3007 
C 781 3206 614 3264 525 3264 
C 486 3264 448 3257 422 3244 
C 544 3788 915 4057 1306 4057 
C 1862 4057 2227 3616 2227 3033 
C 2227 2477 1901 1998 1536 1583 
L 262 147 
L 262 0 
L 2515 0 
L 2669 990 
z
" transform="scale(0.015625)"/>
       </defs>
       <use xlink:href="#CMR17-32" transform="scale(0.996264)"/>
       <use xlink:href="#CMR17-30" transform="translate(45.690477 0) scale(0.996264)"/>
       <use xlink:href="#CMR17-30" transform="translate(91.380954 0) scale(0.996264)"/>
       <use xlink:href="#CMR17-30" transform="translate(137.071431 0) scale(0.996264)"/>
      </g>
     </g>
    </g>
    <g id="xtick_3">
     <g id="line2d_7">
      <path d="M 381.890745 432.54 
L 381.890745 58.32 
" clip-path="url(#p4a826315e9)" style="fill: none; stroke: #e6e6e6; stroke-width: 0.8; stroke-linecap: round"/>
     </g>
     <g id="line2d_8">
      <g>
       <use xlink:href="#m430ba9ecc3" x="381.890745" y="432.54" style="fill: #262626; stroke: #262626"/>
      </g>
     </g>
     <g id="line2d_9">
      <g>
       <use xlink:href="#m6b1a3d0dff" x="381.890745" y="58.32" style="fill: #262626; stroke: #262626"/>
      </g>
     </g>
     <g id="text_3">
      <!-- $\mathdefault{4000}$ -->
      <g style="fill: #262626" transform="translate(369.014197 445.172395) scale(0.132 -0.132)">
       <defs>
        <path id="CMR17-34" d="M 2150 4147 
C 2150 4281 2144 4288 2029 4288 
L 128 1254 
L 128 1088 
L 1779 1088 
L 1779 460 
C 1779 230 1766 166 1318 166 
L 1197 166 
L 1197 0 
C 1402 12 1747 12 1965 12 
C 2182 12 2528 12 2733 0 
L 2733 166 
L 2611 166 
C 2163 166 2150 230 2150 460 
L 2150 1088 
L 2803 1088 
L 2803 1254 
L 2150 1254 
L 2150 4147 
z
M 1798 3723 
L 1798 1254 
L 256 1254 
L 1798 3723 
z
" transform="scale(0.015625)"/>
       </defs>
       <use xlink:href="#CMR17-34" transform="scale(0.996264)"/>
       <use xlink:href="#CMR17-30" transform="translate(45.690477 0) scale(0.996264)"/>
       <use xlink:href="#CMR17-30" transform="translate(91.380954 0) scale(0.996264)"/>
       <use xlink:href="#CMR17-30" transform="translate(137.071431 0) scale(0.996264)"/>
      </g>
     </g>
    </g>
    <g id="xtick_4">
     <g id="line2d_10">
      <path d="M 503.648376 432.54 
L 503.648376 58.32 
" clip-path="url(#p4a826315e9)" style="fill: none; stroke: #e6e6e6; stroke-width: 0.8; stroke-linecap: round"/>
     </g>
     <g id="line2d_11">
      <g>
       <use xlink:href="#m430ba9ecc3" x="503.648376" y="432.54" style="fill: #262626; stroke: #262626"/>
      </g>
     </g>
     <g id="line2d_12">
      <g>
       <use xlink:href="#m6b1a3d0dff" x="503.648376" y="58.32" style="fill: #262626; stroke: #262626"/>
      </g>
     </g>
     <g id="text_4">
      <!-- $\mathdefault{6000}$ -->
      <g style="fill: #262626" transform="translate(490.771828 445.172395) scale(0.132 -0.132)">
       <defs>
        <path id="CMR17-36" d="M 678 2198 
C 678 3712 1395 4076 1811 4076 
C 1946 4076 2272 4049 2400 3782 
C 2298 3782 2106 3782 2106 3558 
C 2106 3385 2246 3328 2336 3328 
C 2394 3328 2566 3353 2566 3571 
C 2566 3987 2246 4224 1805 4224 
C 1043 4224 243 3411 243 2011 
C 243 257 966 -128 1478 -128 
C 2099 -128 2688 431 2688 1295 
C 2688 2101 2170 2688 1517 2688 
C 1126 2688 838 2430 678 1979 
L 678 2198 
z
M 1478 25 
C 691 25 691 1212 691 1450 
C 691 1914 909 2585 1504 2585 
C 1613 2585 1926 2585 2138 2140 
C 2253 1889 2253 1624 2253 1302 
C 2253 954 2253 696 2118 438 
C 1978 173 1773 25 1478 25 
z
" transform="scale(0.015625)"/>
       </defs>
       <use xlink:href="#CMR17-36" transform="scale(0.996264)"/>
       <use xlink:href="#CMR17-30" transform="translate(45.690477 0) scale(0.996264)"/>
       <use xlink:href="#CMR17-30" transform="translate(91.380954 0) scale(0.996264)"/>
       <use xlink:href="#CMR17-30" transform="translate(137.071431 0) scale(0.996264)"/>
      </g>
     </g>
    </g>
    <g id="xtick_5">
     <g id="line2d_13">
      <path d="M 625.406006 432.54 
L 625.406006 58.32 
" clip-path="url(#p4a826315e9)" style="fill: none; stroke: #e6e6e6; stroke-width: 0.8; stroke-linecap: round"/>
     </g>
     <g id="line2d_14">
      <g>
       <use xlink:href="#m430ba9ecc3" x="625.406006" y="432.54" style="fill: #262626; stroke: #262626"/>
      </g>
     </g>
     <g id="line2d_15">
      <g>
       <use xlink:href="#m6b1a3d0dff" x="625.406006" y="58.32" style="fill: #262626; stroke: #262626"/>
      </g>
     </g>
     <g id="text_5">
      <!-- $\mathdefault{8000}$ -->
      <g style="fill: #262626" transform="translate(612.529458 445.172395) scale(0.132 -0.132)">
       <defs>
        <path id="CMR17-38" d="M 1741 2289 
C 2144 2494 2554 2803 2554 3298 
C 2554 3884 1990 4224 1472 4224 
C 890 4224 378 3800 378 3215 
C 378 3054 416 2777 666 2533 
C 730 2469 998 2276 1171 2154 
C 883 2006 211 1652 211 945 
C 211 282 838 -128 1459 -128 
C 2144 -128 2720 366 2720 1022 
C 2720 1607 2330 1877 2074 2051 
L 1741 2289 
z
M 902 2855 
C 851 2887 595 3086 595 3388 
C 595 3781 998 4076 1459 4076 
C 1965 4076 2336 3716 2336 3298 
C 2336 2700 1670 2359 1638 2359 
C 1632 2359 1626 2359 1574 2398 
L 902 2855 
z
M 2080 1536 
C 2176 1466 2483 1253 2483 861 
C 2483 385 2010 25 1472 25 
C 890 25 448 443 448 951 
C 448 1459 838 1884 1280 2083 
L 2080 1536 
z
" transform="scale(0.015625)"/>
       </defs>
       <use xlink:href="#CMR17-38" transform="scale(0.996264)"/>
       <use xlink:href="#CMR17-30" transform="translate(45.690477 0) scale(0.996264)"/>
       <use xlink:href="#CMR17-30" transform="translate(91.380954 0) scale(0.996264)"/>
       <use xlink:href="#CMR17-30" transform="translate(137.071431 0) scale(0.996264)"/>
      </g>
     </g>
    </g>
    <g id="xtick_6">
     <g id="line2d_16">
      <path d="M 747.163636 432.54 
L 747.163636 58.32 
" clip-path="url(#p4a826315e9)" style="fill: none; stroke: #e6e6e6; stroke-width: 0.8; stroke-linecap: round"/>
     </g>
     <g id="line2d_17">
      <g>
       <use xlink:href="#m430ba9ecc3" x="747.163636" y="432.54" style="fill: #262626; stroke: #262626"/>
      </g>
     </g>
     <g id="line2d_18">
      <g>
       <use xlink:href="#m6b1a3d0dff" x="747.163636" y="58.32" style="fill: #262626; stroke: #262626"/>
      </g>
     </g>
     <g id="text_6">
      <!-- $\mathdefault{10000}$ -->
      <g style="fill: #262626" transform="translate(731.067951 445.172395) scale(0.132 -0.132)">
       <defs>
        <path id="CMR17-31" d="M 1702 4083 
C 1702 4217 1696 4224 1606 4224 
C 1357 3927 979 3833 621 3820 
C 602 3820 570 3820 563 3808 
C 557 3795 557 3782 557 3648 
C 755 3648 1088 3686 1344 3839 
L 1344 467 
C 1344 243 1331 166 781 166 
L 589 166 
L 589 0 
C 896 6 1216 12 1523 12 
C 1830 12 2150 6 2458 0 
L 2458 166 
L 2266 166 
C 1715 166 1702 236 1702 467 
L 1702 4083 
z
" transform="scale(0.015625)"/>
       </defs>
       <use xlink:href="#CMR17-31" transform="scale(0.996264)"/>
       <use xlink:href="#CMR17-30" transform="translate(45.690477 0) scale(0.996264)"/>
       <use xlink:href="#CMR17-30" transform="translate(91.380954 0) scale(0.996264)"/>
       <use xlink:href="#CMR17-30" transform="translate(137.071431 0) scale(0.996264)"/>
       <use xlink:href="#CMR17-30" transform="translate(182.761908 0) scale(0.996264)"/>
      </g>
     </g>
    </g>
    <g id="text_7">
     <!-- step ($s$) -->
     <g style="fill: #262626" transform="translate(419.734282 462.489095) scale(0.144 -0.144)">
      <defs>
       <path id="CMSS17-73" d="M 2061 2623 
C 1683 2803 1389 2816 1197 2816 
C 742 2816 198 2655 198 2009 
C 198 1363 902 1222 1094 1183 
C 1389 1126 1715 1062 1715 742 
C 1715 339 1254 339 1171 339 
C 915 339 563 409 243 639 
L 166 211 
C 531 0 883 -64 1178 -64 
C 1965 -64 2163 416 2163 780 
C 2163 1094 1984 1305 1862 1401 
C 1651 1567 1574 1587 1050 1695 
C 960 1708 646 1779 646 2067 
C 646 2431 1050 2431 1139 2431 
C 1555 2431 1811 2303 1984 2207 
L 2061 2623 
z
" transform="scale(0.015625)"/>
       <path id="CMSS17-74" d="M 1069 2380 
L 1901 2380 
L 1901 2752 
L 1069 2752 
L 1069 3520 
L 614 3520 
L 614 2752 
L 109 2752 
L 109 2380 
L 602 2380 
L 602 751 
C 602 384 685 -64 1107 -64 
C 1427 -64 1722 25 2003 172 
L 1901 551 
C 1747 416 1562 339 1363 339 
C 1082 339 1069 699 1069 860 
L 1069 2380 
z
" transform="scale(0.015625)"/>
       <path id="CMSS17-65" d="M 2502 1375 
C 2502 1587 2490 2001 2285 2347 
C 2061 2713 1696 2816 1421 2816 
C 755 2816 192 2184 192 1363 
C 192 579 774 -64 1510 -64 
C 1798 -64 2150 19 2470 249 
C 2470 275 2458 414 2451 421 
C 2451 433 2432 629 2432 655 
C 2125 408 1773 326 1517 326 
C 1107 326 666 667 646 1375 
L 2502 1375 
z
M 698 1728 
C 781 2086 1062 2425 1421 2425 
C 1517 2425 1965 2412 2080 1728 
L 698 1728 
z
" transform="scale(0.015625)"/>
       <path id="CMSS17-70" d="M 966 275 
C 1178 70 1466 -64 1773 -64 
C 2368 -64 2880 553 2880 1382 
C 2880 2147 2496 2816 1946 2816 
C 1626 2816 1242 2700 954 2470 
L 954 2764 
L 480 2764 
L 480 -1280 
L 966 -1280 
L 966 275 
z
M 966 2088 
C 1018 2166 1235 2412 1587 2412 
C 2035 2412 2394 1946 2394 1382 
C 2394 741 1958 326 1530 326 
C 1402 326 1267 358 1139 468 
C 966 624 966 721 966 812 
L 966 2088 
z
" transform="scale(0.015625)"/>
       <path id="CMSS17-28" d="M 1613 4800 
C 1267 4447 474 3627 474 1603 
C 474 -428 1267 -1242 1613 -1600 
L 2003 -1600 
C 1216 -781 960 366 960 1596 
C 960 2820 1203 3973 2003 4800 
L 1613 4800 
z
" transform="scale(0.015625)"/>
       <path id="CMMI12-73" d="M 1459 1290 
C 1568 1271 1741 1233 1779 1227 
C 1862 1201 2150 1099 2150 793 
C 2150 595 1971 64 1229 64 
C 1094 64 614 83 486 447 
C 742 414 870 614 870 755 
C 870 889 781 960 653 960 
C 512 960 326 851 326 563 
C 326 176 710 -64 1222 -64 
C 2195 -64 2483 665 2483 998 
C 2483 1093 2483 1271 2278 1475 
C 2118 1627 1965 1659 1619 1729 
C 1446 1767 1171 1824 1171 2111 
C 1171 2239 1286 2687 1894 2687 
C 2163 2687 2426 2589 2490 2368 
C 2208 2368 2195 2124 2195 2118 
C 2195 1983 2317 1945 2374 1945 
C 2464 1945 2643 2015 2643 2284 
C 2643 2546 2400 2816 1901 2816 
C 1062 2816 838 2169 838 1907 
C 838 1424 1312 1322 1459 1290 
z
" transform="scale(0.015625)"/>
       <path id="CMSS17-29" d="M 723 -1600 
C 1069 -1248 1862 -428 1862 1596 
C 1862 3627 1069 4440 723 4800 
L 333 4800 
C 1120 3979 1376 2833 1376 1603 
C 1376 379 1133 -774 333 -1600 
L 723 -1600 
z
" transform="scale(0.015625)"/>
      </defs>
      <use xlink:href="#CMSS17-73" transform="scale(0.996264)"/>
      <use xlink:href="#CMSS17-74" transform="translate(35.913542 0) scale(0.996264)"/>
      <use xlink:href="#CMSS17-65" transform="translate(69.745109 0) scale(0.996264)"/>
      <use xlink:href="#CMSS17-70" transform="translate(111.383931 0) scale(0.996264)"/>
      <use xlink:href="#CMSS17-28" transform="translate(190.817987 0) scale(0.996264)"/>
      <use xlink:href="#CMMI12-73" transform="translate(227.251901 0) scale(0.996264)"/>
      <use xlink:href="#CMSS17-29" transform="translate(273.201948 0) scale(0.996264)"/>
     </g>
    </g>
   </g>
   <g id="matplotlib.axis_2">
    <g id="ytick_1">
     <g id="line2d_19">
      <path d="M 108 415.530001 
L 777.6 415.530001 
" clip-path="url(#p4a826315e9)" style="fill: none; stroke: #e6e6e6; stroke-width: 0.8; stroke-linecap: round"/>
     </g>
     <g id="line2d_20">
      <defs>
       <path id="ma0719a6b41" d="M 0 0 
L 4.8 0 
" style="stroke: #262626"/>
      </defs>
      <g>
       <use xlink:href="#ma0719a6b41" x="108" y="415.530001" style="fill: #262626; stroke: #262626"/>
      </g>
     </g>
     <g id="line2d_21">
      <defs>
       <path id="m27f8015482" d="M 0 0 
L -4.8 0 
" style="stroke: #262626"/>
      </defs>
      <g>
       <use xlink:href="#m27f8015482" x="777.6" y="415.530001" style="fill: #262626; stroke: #262626"/>
      </g>
     </g>
     <g id="text_8">
      <!-- $\mathdefault{0.0}$ -->
      <g style="fill: #262626" transform="translate(88.04664 420.096199) scale(0.132 -0.132)">
       <defs>
        <path id="CMMI12-3a" d="M 1178 307 
C 1178 492 1024 620 870 620 
C 685 620 557 467 557 313 
C 557 128 710 0 864 0 
C 1050 0 1178 153 1178 307 
z
" transform="scale(0.015625)"/>
       </defs>
       <use xlink:href="#CMR17-30" transform="scale(0.996264)"/>
       <use xlink:href="#CMMI12-3a" transform="translate(45.690477 0) scale(0.996264)"/>
       <use xlink:href="#CMR17-30" transform="translate(72.787654 0) scale(0.996264)"/>
      </g>
     </g>
    </g>
    <g id="ytick_2">
     <g id="line2d_22">
      <path d="M 108 358.703588 
L 777.6 358.703588 
" clip-path="url(#p4a826315e9)" style="fill: none; stroke: #e6e6e6; stroke-width: 0.8; stroke-linecap: round"/>
     </g>
     <g id="line2d_23">
      <g>
       <use xlink:href="#ma0719a6b41" x="108" y="358.703588" style="fill: #262626; stroke: #262626"/>
      </g>
     </g>
     <g id="line2d_24">
      <g>
       <use xlink:href="#m27f8015482" x="777.6" y="358.703588" style="fill: #262626; stroke: #262626"/>
      </g>
     </g>
     <g id="text_9">
      <!-- $\mathdefault{0.5}$ -->
      <g style="fill: #262626" transform="translate(88.04664 363.269785) scale(0.132 -0.132)">
       <defs>
        <path id="CMR17-35" d="M 730 3750 
C 794 3724 1056 3641 1325 3641 
C 1920 3641 2246 3961 2432 4140 
C 2432 4191 2432 4224 2394 4224 
C 2387 4224 2374 4224 2323 4198 
C 2099 4102 1837 4032 1517 4032 
C 1325 4032 1037 4055 723 4191 
C 653 4224 640 4224 634 4224 
C 602 4224 595 4217 595 4090 
L 595 2231 
C 595 2113 595 2080 659 2080 
C 691 2080 704 2093 736 2139 
C 941 2435 1222 2560 1542 2560 
C 1766 2560 2246 2415 2246 1293 
C 2246 1087 2246 716 2054 422 
C 1894 159 1645 25 1370 25 
C 947 25 518 319 403 812 
C 429 806 480 793 506 793 
C 589 793 749 838 749 1036 
C 749 1209 627 1280 506 1280 
C 358 1280 262 1190 262 1011 
C 262 454 704 -128 1382 -128 
C 2042 -128 2669 441 2669 1267 
C 2669 2054 2170 2662 1549 2662 
C 1222 2662 947 2540 730 2304 
L 730 3750 
z
" transform="scale(0.015625)"/>
       </defs>
       <use xlink:href="#CMR17-30" transform="scale(0.996264)"/>
       <use xlink:href="#CMMI12-3a" transform="translate(45.690477 0) scale(0.996264)"/>
       <use xlink:href="#CMR17-35" transform="translate(72.787654 0) scale(0.996264)"/>
      </g>
     </g>
    </g>
    <g id="ytick_3">
     <g id="line2d_25">
      <path d="M 108 301.877174 
L 777.6 301.877174 
" clip-path="url(#p4a826315e9)" style="fill: none; stroke: #e6e6e6; stroke-width: 0.8; stroke-linecap: round"/>
     </g>
     <g id="line2d_26">
      <g>
       <use xlink:href="#ma0719a6b41" x="108" y="301.877174" style="fill: #262626; stroke: #262626"/>
      </g>
     </g>
     <g id="line2d_27">
      <g>
       <use xlink:href="#m27f8015482" x="777.6" y="301.877174" style="fill: #262626; stroke: #262626"/>
      </g>
     </g>
     <g id="text_10">
      <!-- $\mathdefault{1.0}$ -->
      <g style="fill: #262626" transform="translate(88.04664 306.443372) scale(0.132 -0.132)">
       <use xlink:href="#CMR17-31" transform="scale(0.996264)"/>
       <use xlink:href="#CMMI12-3a" transform="translate(45.690477 0) scale(0.996264)"/>
       <use xlink:href="#CMR17-30" transform="translate(72.787654 0) scale(0.996264)"/>
      </g>
     </g>
    </g>
    <g id="ytick_4">
     <g id="line2d_28">
      <path d="M 108 245.050761 
L 777.6 245.050761 
" clip-path="url(#p4a826315e9)" style="fill: none; stroke: #e6e6e6; stroke-width: 0.8; stroke-linecap: round"/>
     </g>
     <g id="line2d_29">
      <g>
       <use xlink:href="#ma0719a6b41" x="108" y="245.050761" style="fill: #262626; stroke: #262626"/>
      </g>
     </g>
     <g id="line2d_30">
      <g>
       <use xlink:href="#m27f8015482" x="777.6" y="245.050761" style="fill: #262626; stroke: #262626"/>
      </g>
     </g>
     <g id="text_11">
      <!-- $\mathdefault{1.5}$ -->
      <g style="fill: #262626" transform="translate(88.04664 249.616958) scale(0.132 -0.132)">
       <use xlink:href="#CMR17-31" transform="scale(0.996264)"/>
       <use xlink:href="#CMMI12-3a" transform="translate(45.690477 0) scale(0.996264)"/>
       <use xlink:href="#CMR17-35" transform="translate(72.787654 0) scale(0.996264)"/>
      </g>
     </g>
    </g>
    <g id="ytick_5">
     <g id="line2d_31">
      <path d="M 108 188.224348 
L 777.6 188.224348 
" clip-path="url(#p4a826315e9)" style="fill: none; stroke: #e6e6e6; stroke-width: 0.8; stroke-linecap: round"/>
     </g>
     <g id="line2d_32">
      <g>
       <use xlink:href="#ma0719a6b41" x="108" y="188.224348" style="fill: #262626; stroke: #262626"/>
      </g>
     </g>
     <g id="line2d_33">
      <g>
       <use xlink:href="#m27f8015482" x="777.6" y="188.224348" style="fill: #262626; stroke: #262626"/>
      </g>
     </g>
     <g id="text_12">
      <!-- $\mathdefault{2.0}$ -->
      <g style="fill: #262626" transform="translate(88.04664 192.790545) scale(0.132 -0.132)">
       <use xlink:href="#CMR17-32" transform="scale(0.996264)"/>
       <use xlink:href="#CMMI12-3a" transform="translate(45.690477 0) scale(0.996264)"/>
       <use xlink:href="#CMR17-30" transform="translate(72.787654 0) scale(0.996264)"/>
      </g>
     </g>
    </g>
    <g id="ytick_6">
     <g id="line2d_34">
      <path d="M 108 131.397934 
L 777.6 131.397934 
" clip-path="url(#p4a826315e9)" style="fill: none; stroke: #e6e6e6; stroke-width: 0.8; stroke-linecap: round"/>
     </g>
     <g id="line2d_35">
      <g>
       <use xlink:href="#ma0719a6b41" x="108" y="131.397934" style="fill: #262626; stroke: #262626"/>
      </g>
     </g>
     <g id="line2d_36">
      <g>
       <use xlink:href="#m27f8015482" x="777.6" y="131.397934" style="fill: #262626; stroke: #262626"/>
      </g>
     </g>
     <g id="text_13">
      <!-- $\mathdefault{2.5}$ -->
      <g style="fill: #262626" transform="translate(88.04664 135.964131) scale(0.132 -0.132)">
       <use xlink:href="#CMR17-32" transform="scale(0.996264)"/>
       <use xlink:href="#CMMI12-3a" transform="translate(45.690477 0) scale(0.996264)"/>
       <use xlink:href="#CMR17-35" transform="translate(72.787654 0) scale(0.996264)"/>
      </g>
     </g>
    </g>
    <g id="ytick_7">
     <g id="line2d_37">
      <path d="M 108 74.571521 
L 777.6 74.571521 
" clip-path="url(#p4a826315e9)" style="fill: none; stroke: #e6e6e6; stroke-width: 0.8; stroke-linecap: round"/>
     </g>
     <g id="line2d_38">
      <g>
       <use xlink:href="#ma0719a6b41" x="108" y="74.571521" style="fill: #262626; stroke: #262626"/>
      </g>
     </g>
     <g id="line2d_39">
      <g>
       <use xlink:href="#m27f8015482" x="777.6" y="74.571521" style="fill: #262626; stroke: #262626"/>
      </g>
     </g>
     <g id="text_14">
      <!-- $\mathdefault{3.0}$ -->
      <g style="fill: #262626" transform="translate(88.04664 79.137718) scale(0.132 -0.132)">
       <defs>
        <path id="CMR17-33" d="M 1414 2176 
C 1984 2176 2234 1673 2234 1094 
C 2234 322 1824 25 1453 25 
C 1114 25 563 193 390 691 
C 422 678 454 678 486 678 
C 640 678 755 780 755 947 
C 755 1132 614 1216 486 1216 
C 378 1216 211 1164 211 927 
C 211 335 787 -128 1466 -128 
C 2176 -128 2720 432 2720 1087 
C 2720 1718 2208 2176 1600 2246 
C 2086 2347 2554 2776 2554 3353 
C 2554 3856 2048 4224 1472 4224 
C 890 4224 378 3862 378 3347 
C 378 3123 544 3084 627 3084 
C 762 3084 877 3167 877 3334 
C 877 3500 762 3584 627 3584 
C 602 3584 570 3584 544 3571 
C 730 3999 1235 4076 1459 4076 
C 1683 4076 2106 3966 2106 3347 
C 2106 3167 2080 2851 1862 2574 
C 1670 2329 1453 2316 1242 2297 
C 1210 2297 1062 2284 1037 2284 
C 992 2278 966 2272 966 2227 
C 966 2182 973 2176 1101 2176 
L 1414 2176 
z
" transform="scale(0.015625)"/>
       </defs>
       <use xlink:href="#CMR17-33" transform="scale(0.996264)"/>
       <use xlink:href="#CMMI12-3a" transform="translate(45.690477 0) scale(0.996264)"/>
       <use xlink:href="#CMR17-30" transform="translate(72.787654 0) scale(0.996264)"/>
      </g>
     </g>
    </g>
    <g id="text_15">
     <!-- $W^2 \left(j, [i_n]_s \right)$ -->
     <g style="fill: #262626" transform="translate(80.460083 280.621092) rotate(-90) scale(0.144 -0.144)">
      <defs>
       <path id="CMMI12-57" d="M 5779 3644 
C 5926 3892 6067 4127 6451 4166 
C 6509 4172 6566 4179 6566 4281 
C 6566 4352 6509 4352 6490 4352 
C 6477 4352 6432 4339 6010 4339 
C 5818 4339 5619 4352 5434 4352 
C 5395 4352 5318 4352 5318 4230 
C 5318 4172 5370 4166 5408 4166 
C 5536 4159 5741 4121 5741 3924 
C 5741 3841 5715 3797 5651 3689 
L 3904 648 
L 3674 3962 
C 3674 4038 3744 4159 4102 4166 
C 4186 4166 4250 4166 4250 4287 
C 4250 4352 4186 4352 4154 4352 
C 3930 4352 3693 4339 3462 4339 
L 3130 4339 
C 3034 4339 2918 4352 2822 4352 
C 2784 4352 2707 4352 2707 4230 
C 2707 4166 2752 4166 2861 4166 
C 3155 4166 3155 4159 3181 3771 
L 3200 3542 
L 1542 648 
L 1306 3930 
C 1306 4000 1306 4159 1741 4166 
C 1811 4166 1882 4166 1882 4281 
C 1882 4352 1824 4352 1786 4352 
C 1562 4352 1325 4339 1094 4339 
L 762 4339 
C 666 4339 550 4352 454 4352 
C 416 4352 339 4352 339 4230 
C 339 4166 390 4166 480 4166 
C 781 4166 787 4127 800 3924 
L 1082 19 
C 1088 -90 1094 -128 1171 -128 
C 1235 -128 1248 -103 1306 -7 
L 3213 3307 
L 3450 19 
C 3456 -90 3462 -128 3539 -128 
C 3603 -128 3622 -96 3674 -7 
L 5779 3644 
z
" transform="scale(0.015625)"/>
       <path id="CMR17-28" d="M 1958 -1562 
C 1958 -1556 1958 -1543 1939 -1524 
C 1645 -1223 858 -403 858 1596 
C 858 3595 1632 4408 1946 4729 
C 1946 4735 1958 4748 1958 4767 
C 1958 4787 1939 4800 1914 4800 
C 1843 4800 1299 4325 986 3620 
C 666 2909 576 2218 576 1603 
C 576 1141 621 360 1005 -467 
C 1312 -1133 1837 -1600 1914 -1600 
C 1946 -1600 1958 -1588 1958 -1562 
z
" transform="scale(0.015625)"/>
       <path id="CMMI12-6a" d="M 2240 2027 
C 2266 2129 2266 2218 2266 2243 
C 2266 2611 1990 2816 1702 2816 
C 1056 2816 710 1888 710 1843 
C 710 1811 736 1786 774 1786 
C 826 1786 832 1811 864 1875 
C 1120 2491 1440 2687 1683 2687 
C 1818 2687 1888 2617 1888 2395 
C 1888 2243 1869 2180 1843 2065 
L 1235 -327 
C 1114 -797 813 -1152 461 -1152 
C 435 -1152 301 -1152 179 -1089 
C 333 -1057 454 -937 454 -784 
C 454 -683 378 -581 237 -581 
C 70 -581 -83 -721 -83 -911 
C -83 -1172 198 -1280 461 -1280 
C 902 -1280 1485 -956 1645 -321 
L 2240 2027 
z
M 2502 4012 
C 2502 4172 2368 4224 2291 4224 
C 2118 4224 1971 4057 1971 3916 
C 1971 3820 2048 3705 2189 3705 
C 2336 3705 2502 3846 2502 4012 
z
" transform="scale(0.015625)"/>
       <path id="CMMI12-3b" d="M 1248 -26 
C 1248 345 1126 620 864 620 
C 659 620 557 454 557 313 
C 557 172 653 0 870 0 
C 954 0 1024 25 1082 83 
C 1094 96 1101 96 1107 96 
C 1120 96 1120 6 1120 -26 
C 1120 -233 1082 -642 710 -1051 
C 640 -1127 640 -1140 640 -1152 
C 640 -1184 672 -1216 704 -1216 
C 755 -1216 1248 -749 1248 -26 
z
" transform="scale(0.015625)"/>
       <path id="CMR17-5b" d="M 1504 -1600 
L 1504 -1376 
L 902 -1376 
L 902 4575 
L 1504 4575 
L 1504 4800 
L 678 4800 
L 678 -1600 
L 1504 -1600 
z
" transform="scale(0.015625)"/>
       <path id="CMMI12-69" d="M 1811 913 
C 1811 945 1786 970 1747 970 
C 1690 970 1683 951 1651 842 
C 1485 261 1222 64 1011 64 
C 934 64 845 83 845 274 
C 845 447 922 638 992 830 
L 1440 2017 
C 1459 2068 1504 2183 1504 2305 
C 1504 2573 1312 2816 998 2816 
C 410 2816 173 1890 173 1838 
C 173 1813 198 1781 243 1781 
C 301 1781 307 1807 333 1896 
C 486 2432 730 2687 979 2687 
C 1037 2687 1146 2681 1146 2477 
C 1146 2311 1062 2100 1011 1960 
L 563 772 
C 525 670 486 568 486 453 
C 486 166 685 -64 992 -64 
C 1581 -64 1811 868 1811 913 
z
M 1760 4012 
C 1760 4108 1683 4224 1542 4224 
C 1395 4224 1229 4083 1229 3916 
C 1229 3756 1363 3705 1440 3705 
C 1613 3705 1760 3871 1760 4012 
z
" transform="scale(0.015625)"/>
       <path id="CMMI12-6e" d="M 1318 1870 
C 1331 1909 1491 2228 1728 2432 
C 1894 2585 2112 2687 2362 2687 
C 2618 2687 2707 2496 2707 2241 
C 2707 1877 2445 1149 2317 804 
C 2259 651 2227 568 2227 453 
C 2227 166 2426 -64 2733 -64 
C 3328 -64 3552 874 3552 913 
C 3552 945 3526 970 3488 970 
C 3430 970 3424 951 3392 842 
C 3245 319 3002 64 2752 64 
C 2688 64 2586 70 2586 274 
C 2586 434 2656 625 2694 715 
C 2822 1066 3091 1781 3091 2145 
C 3091 2528 2867 2816 2381 2816 
C 1811 2816 1510 2413 1395 2253 
C 1376 2617 1114 2816 832 2816 
C 627 2816 486 2694 378 2477 
C 262 2247 173 1864 173 1838 
C 173 1813 198 1781 243 1781 
C 294 1781 301 1787 339 1934 
C 442 2324 557 2687 813 2687 
C 960 2687 1011 2585 1011 2394 
C 1011 2253 947 2004 902 1807 
L 723 1117 
C 698 996 627 708 595 593 
C 550 427 480 127 480 95 
C 480 6 550 -64 646 -64 
C 723 -64 813 -26 864 70 
C 877 102 934 325 966 453 
L 1107 1028 
L 1318 1870 
z
" transform="scale(0.015625)"/>
       <path id="CMR17-5d" d="M 915 4800 
L 90 4800 
L 90 4575 
L 691 4575 
L 691 -1376 
L 90 -1376 
L 90 -1600 
L 915 -1600 
L 915 4800 
z
" transform="scale(0.015625)"/>
       <path id="CMR17-29" d="M 1683 1596 
C 1683 2057 1638 2839 1254 3665 
C 947 4332 422 4800 346 4800 
C 326 4800 301 4793 301 4761 
C 301 4748 307 4742 314 4729 
C 621 4408 1402 3595 1402 1603 
C 1402 -396 627 -1210 314 -1530 
C 307 -1543 301 -1549 301 -1562 
C 301 -1594 326 -1600 346 -1600 
C 416 -1600 960 -1127 1274 -422 
C 1594 289 1683 981 1683 1596 
z
" transform="scale(0.015625)"/>
      </defs>
      <use xlink:href="#CMMI12-57" transform="scale(0.996264)"/>
      <use xlink:href="#CMR17-32" transform="translate(105.644498 36.153639) scale(0.697382)"/>
      <use xlink:href="#CMR17-28" transform="translate(154.730217 0.003177) scale(0.996264)"/>
      <use xlink:href="#CMMI12-6a" transform="translate(190.010985 0) scale(0.996264)"/>
      <use xlink:href="#CMMI12-3b" transform="translate(230.554032 0) scale(0.996264)"/>
      <use xlink:href="#CMR17-5b" transform="translate(274.255614 0) scale(0.996264)"/>
      <use xlink:href="#CMMI12-69" transform="translate(299.126673 0) scale(0.996264)"/>
      <use xlink:href="#CMMI12-6e" transform="translate(332.405275 -14.943915) scale(0.697382)"/>
      <use xlink:href="#CMR17-5d" transform="translate(373.66425 0) scale(0.996264)"/>
      <use xlink:href="#CMMI12-73" transform="translate(398.535308 -14.943915) scale(0.697382)"/>
      <use xlink:href="#CMR17-29" transform="translate(431.198329 0.003177) scale(0.996264)"/>
     </g>
    </g>
    <g id="text_16">
     <!-- $\times\mathdefault{10^{−17}}\mathdefault{}$ -->
     <g style="fill: #262626" transform="translate(108 55.32) scale(0.132 -0.132)">
      <defs>
       <path id="CMSY10-2" d="M 2490 1775 
L 1210 3046 
C 1133 3123 1120 3136 1069 3136 
C 1005 3136 941 3078 941 3008 
C 941 2963 954 2950 1024 2880 
L 2304 1596 
L 1024 313 
C 954 243 941 230 941 185 
C 941 115 1005 57 1069 57 
C 1120 57 1133 70 1210 147 
L 2483 1418 
L 3808 95 
C 3821 89 3866 57 3904 57 
C 3981 57 4032 115 4032 185 
C 4032 198 4032 223 4013 255 
C 4006 268 2989 1271 2669 1596 
L 3840 2765 
C 3872 2803 3968 2886 4000 2925 
C 4006 2937 4032 2963 4032 3008 
C 4032 3078 3981 3136 3904 3136 
C 3853 3136 3827 3110 3757 3040 
L 2490 1775 
z
" transform="scale(0.015625)"/>
       <path id="CMSY10-0" d="M 4218 1472 
C 4326 1472 4442 1472 4442 1600 
C 4442 1728 4326 1728 4218 1728 
L 755 1728 
C 646 1728 531 1728 531 1600 
C 531 1472 646 1472 755 1472 
L 4218 1472 
z
" transform="scale(0.015625)"/>
       <path id="CMR17-37" d="M 2886 3955 
L 2886 4096 
L 1382 4096 
C 634 4096 621 4166 595 4288 
L 480 4288 
L 294 3104 
L 410 3104 
C 429 3226 474 3552 550 3673 
C 589 3724 1062 3724 1171 3724 
L 2579 3724 
L 1869 2670 
C 1395 1961 1069 1003 1069 166 
C 1069 89 1069 -128 1299 -128 
C 1530 -128 1530 89 1530 172 
L 1530 466 
C 1530 1514 1709 2204 2003 2644 
L 2886 3955 
z
" transform="scale(0.015625)"/>
      </defs>
      <use xlink:href="#CMSY10-2" transform="scale(0.996264)"/>
      <use xlink:href="#CMR17-31" transform="translate(77.487468 0) scale(0.996264)"/>
      <use xlink:href="#CMR17-30" transform="translate(123.177945 0) scale(0.996264)"/>
      <use xlink:href="#CMSY10-0" transform="translate(168.868422 36.153639) scale(0.697382)"/>
      <use xlink:href="#CMR17-31" transform="translate(223.109415 36.153639) scale(0.697382)"/>
      <use xlink:href="#CMR17-37" transform="translate(255.092597 36.153639) scale(0.697382)"/>
     </g>
    </g>
   </g>
   <g id="line2d_40">
    <path d="M 138.436364 415.528448 
L 139.349546 415.421673 
L 139.532182 415.312999 
L 139.65394 415.479976 
L 148.359611 415.36912 
L 150.551248 415.327003 
L 150.673005 415.512679 
L 156.639129 415.461194 
L 156.821766 415.393275 
L 157.917584 415.306242 
L 158.1611 415.319885 
L 159.378676 415.319885 
L 159.561312 415.524398 
L 160.657131 415.477993 
L 161.326798 415.467617 
L 161.631192 415.518072 
L 162.300859 415.526696 
L 163.092284 415.505143 
L 163.396678 415.5073 
L 166.440619 415.405826 
L 166.501497 415.392176 
L 166.684134 415.514109 
L 166.86677 415.45383 
L 172.589379 415.47288 
L 172.650258 415.269817 
L 172.711137 415.303827 
L 173.56344 415.356672 
L 173.685198 415.115749 
L 173.989592 415.100152 
L 174.111349 415.406746 
L 174.659259 415.418962 
L 174.781016 415.143657 
L 175.268047 415.143657 
L 175.389804 414.419102 
L 175.63332 414.419102 
L 175.815956 406.37593 
L 175.937714 406.37593 
L 176.059471 415.298311 
L 176.363865 415.298311 
L 176.485623 409.96957 
L 176.607381 413.743159 
L 176.66826 413.245327 
L 176.790017 414.910261 
L 176.911775 414.016799 
L 177.094411 414.016799 
L 177.216169 408.821125 
L 177.277048 408.821125 
L 177.337927 414.751706 
L 177.398805 413.495855 
L 177.459684 413.495855 
L 177.581442 413.755835 
L 178.311988 413.755835 
L 178.494624 415.442958 
L 178.555503 415.481615 
L 178.738139 415.372177 
L 179.22517 415.471804 
L 179.529564 415.52667 
L 179.955716 415.437134 
L 180.138352 415.394666 
L 180.320988 415.470537 
L 184.156354 415.440319 
L 184.278111 414.702656 
L 184.460748 415.238683 
L 184.582506 415.238683 
L 184.704263 415.459616 
L 184.765142 415.089633 
L 184.8869 415.47089 
L 186.40887 415.483237 
L 186.469749 415.294629 
L 186.591506 415.511648 
L 186.713264 415.484885 
L 186.835022 415.335477 
L 187.078537 415.393418 
L 187.200295 415.475778 
L 187.382931 415.475778 
L 187.504689 415.241605 
L 187.991719 415.348904 
L 188.661386 415.451555 
L 188.722265 415.270268 
L 188.783144 415.29539 
L 189.51369 415.323832 
L 189.574568 415.496862 
L 189.635447 415.406485 
L 189.878962 415.510815 
L 189.939841 415.527083 
L 190.061599 415.025244 
L 190.609508 415.025244 
L 190.731266 415.280669 
L 191.52269 415.336074 
L 191.644448 415.412463 
L 191.766206 406.56624 
L 192.253236 406.56624 
L 192.374994 398.081227 
L 193.349055 398.081227 
L 193.470813 394.806032 
L 193.653449 394.806032 
L 193.775207 414.358685 
L 193.957843 414.444545 
L 194.018722 414.494931 
L 194.201358 415.249427 
L 194.383995 415.224753 
L 194.566631 415.403462 
L 195.297177 415.351309 
L 195.418935 415.523768 
L 196.027723 415.517285 
L 196.880026 415.515393 
L 206.438 415.472355 
L 206.620637 415.171076 
L 206.742394 415.171076 
L 206.803273 415.311618 
L 206.925031 415.008704 
L 207.046788 415.008704 
L 207.168546 415.288449 
L 207.533819 415.182437 
L 207.655576 415.476933 
L 208.690516 415.455603 
L 208.873153 415.356975 
L 208.934032 415.47213 
L 208.99491 415.356975 
L 209.299304 415.451739 
L 209.481941 415.50365 
L 209.603699 415.251473 
L 209.725456 415.254376 
L 209.908093 414.345433 
L 210.090729 415.249723 
L 210.212487 415.249723 
L 210.334244 414.807682 
L 210.456002 414.807682 
L 210.57776 414.159752 
L 211.186548 414.159752 
L 211.308305 413.768252 
L 211.430063 413.768252 
L 211.551821 414.343142 
L 211.612699 414.343142 
L 211.734457 415.489853 
L 211.856215 415.309679 
L 211.917094 415.309679 
L 211.977972 415.150553 
L 212.09973 413.384258 
L 212.404124 413.384258 
L 212.525882 412.34491 
L 212.830276 412.34491 
L 212.952033 412.982956 
L 213.012912 412.982956 
L 213.13467 413.7366 
L 213.743458 413.7366 
L 213.804337 412.882228 
L 213.926094 403.926862 
L 214.595761 403.926862 
L 214.717519 396.253465 
L 214.839277 403.926862 
L 214.900155 403.926862 
L 215.021913 408.721034 
L 215.265428 408.721034 
L 215.448065 413.044177 
L 215.508944 413.044177 
L 215.569822 413.449523 
L 215.69158 413.041678 
L 215.752459 413.041678 
L 215.874217 415.03029 
L 216.056853 415.066092 
L 216.178611 412.931325 
L 216.361247 414.806495 
L 216.422126 414.806495 
L 216.543883 414.318756 
L 216.787399 414.318756 
L 216.909156 414.12768 
L 217.030914 414.12768 
L 217.091793 414.912446 
L 217.21355 412.139383 
L 217.274429 412.139383 
L 217.396187 411.334537 
L 217.457066 412.725848 
L 217.578823 409.608661 
L 217.822339 409.608661 
L 218.126733 413.313119 
L 218.918157 413.313119 
L 219.039915 408.153427 
L 219.161673 408.153427 
L 219.28343 410.427715 
L 219.526945 410.427715 
L 219.770461 401.973836 
L 220.196612 401.973836 
L 220.379249 414.33257 
L 221.048916 414.33257 
L 221.170673 408.151522 
L 221.231552 409.7753 
L 221.475068 409.7753 
L 221.535946 411.897667 
L 221.657704 408.990405 
L 221.962098 408.990405 
L 222.083856 400.489219 
L 222.327371 400.489219 
L 222.449129 411.301756 
L 222.631765 411.301756 
L 222.87528 399.549032 
L 223.240553 399.549032 
L 223.362311 405.389583 
L 223.544947 405.389583 
L 223.788462 367.678824 
L 223.91022 377.893153 
L 224.031978 345.604161 
L 224.153735 371.222534 
L 224.275493 371.222534 
L 224.397251 409.996756 
L 224.519008 406.944519 
L 225.006039 406.944519 
L 225.127796 409.996756 
L 225.310433 409.996756 
L 225.553948 401.824726 
L 225.614827 401.824726 
L 225.736585 383.148704 
L 226.223615 383.148704 
L 226.345373 393.378935 
L 226.649767 393.378935 
L 226.710646 372.523799 
L 226.893282 414.522831 
L 226.954161 415.105071 
L 227.075919 414.375017 
L 227.319434 414.375017 
L 227.441191 414.135773 
L 227.684707 414.135773 
L 227.806464 414.94111 
L 227.928222 414.94111 
L 228.04998 415.311221 
L 228.415252 415.311221 
L 228.476131 413.707972 
L 228.53701 414.387498 
L 228.841404 414.387498 
L 228.902283 415.124576 
L 228.963162 414.601186 
L 229.084919 415.095462 
L 229.693708 415.095462 
L 229.815465 414.757471 
L 229.937223 414.757471 
L 230.05898 415.099718 
L 230.119859 415.099718 
L 230.180738 415.391141 
L 230.241617 415.275818 
L 231.520072 415.230563 
L 231.64183 415.42627 
L 233.224679 415.431512 
L 233.346436 415.125126 
L 233.772588 415.125126 
L 233.894346 414.84595 
L 234.68577 414.948532 
L 234.868407 415.243015 
L 234.929286 415.243015 
L 235.111922 415.494302 
L 235.355437 415.524544 
L 235.964226 415.473794 
L 236.085983 415.236375 
L 237.303559 415.236375 
L 237.486196 415.357356 
L 238.399378 415.350279 
L 238.521136 415.526464 
L 239.373439 415.514697 
L 246.191866 415.513132 
L 246.374503 415.384508 
L 247.592079 415.384508 
L 247.713837 415.170559 
L 247.774716 415.170559 
L 247.896473 415.34037 
L 248.56614 415.330117 
L 248.687898 415.516316 
L 251.975354 415.517487 
L 252.097112 415.381286 
L 252.279748 415.514919 
L 252.766778 415.51121 
L 252.888536 415.260634 
L 252.949415 415.260634 
L 253.071173 414.993667 
L 253.253809 415.029799 
L 253.375567 415.245171 
L 253.923476 415.231429 
L 254.410507 415.338669 
L 254.593143 415.451996 
L 255.019295 415.37957 
L 255.141052 415.205977 
L 255.445446 415.205977 
L 255.567204 414.873095 
L 255.810719 414.873095 
L 255.932477 413.533091 
L 256.115113 413.533091 
L 256.175992 407.302424 
L 256.236871 412.188617 
L 256.29775 412.617779 
L 256.419507 411.934313 
L 256.602144 411.934313 
L 256.723901 415.442953 
L 258.976418 415.405155 
L 259.098175 415.257007 
L 259.219933 415.444395 
L 261.289813 415.354877 
L 261.41157 414.751093 
L 261.95948 414.751093 
L 262.081237 415.182508 
L 262.142116 415.182508 
L 262.324752 414.623122 
L 262.44651 415.079133 
L 262.994419 415.079133 
L 263.116177 414.623122 
L 263.298814 414.623122 
L 263.48145 414.751093 
L 263.542329 414.751093 
L 263.664086 415.115671 
L 263.724965 414.99729 
L 263.785844 415.074808 
L 264.029359 415.074808 
L 264.151117 415.480092 
L 265.855724 415.410781 
L 265.977481 415.309568 
L 266.03836 415.410047 
L 266.403633 415.346919 
L 266.58627 415.249323 
L 266.647148 415.249323 
L 266.829785 415.131429 
L 267.560331 415.131429 
L 267.682088 415.332465 
L 268.899665 415.425031 
L 269.082301 415.526756 
L 270.299877 415.514025 
L 273.891727 415.528287 
L 274.013485 415.346373 
L 274.987546 415.346373 
L 275.109304 415.486714 
L 275.961607 415.494556 
L 276.083365 415.082784 
L 277.422699 415.151595 
L 277.605335 415.273102 
L 277.666214 415.273102 
L 277.787972 415.468406 
L 277.970608 415.388284 
L 278.457638 415.316415 
L 278.579396 415.518754 
L 278.701154 415.518754 
L 278.822911 415.306863 
L 278.88379 415.306863 
L 279.005548 415.053279 
L 279.309942 415.053279 
L 279.4317 414.57401 
L 279.492578 414.57401 
L 279.553457 413.920949 
L 279.614336 414.342944 
L 280.223124 414.342944 
L 280.344882 415.216627 
L 280.710155 415.216627 
L 280.831912 414.556966 
L 281.014549 414.452139 
L 282.47564 414.47879 
L 282.719156 414.807556 
L 283.449701 414.807556 
L 283.571459 414.398627 
L 283.693217 415.424697 
L 283.814974 415.353055 
L 283.997611 415.353055 
L 284.180247 415.471314 
L 284.849914 415.471314 
L 284.971672 415.291603 
L 285.032551 415.291603 
L 285.154308 415.44922 
L 285.763096 415.450895 
L 285.945733 415.318176 
L 286.189248 415.318176 
L 286.311006 415.502696 
L 286.432763 415.502696 
L 286.6154 414.159215 
L 286.980673 414.159215 
L 287.041551 413.961631 
L 287.10243 415.21734 
L 287.163309 415.078037 
L 287.285067 415.085211 
L 287.406824 415.307442 
L 287.528582 414.852332 
L 287.589461 414.852332 
L 287.711218 415.310801 
L 287.893855 415.310801 
L 288.015612 415.483367 
L 291.485705 415.379931 
L 291.546584 415.354493 
L 291.72922 415.481733 
L 292.703281 415.397154 
L 292.885918 414.932844 
L 292.946796 414.932844 
L 293.068554 413.432947 
L 293.616463 413.414629 
L 293.738221 408.970371 
L 294.468767 408.970371 
L 294.590525 404.604913 
L 294.651403 405.48035 
L 294.712282 402.724044 
L 294.83404 392.630472 
L 295.016676 392.630472 
L 295.138434 400.391 
L 295.990737 400.391 
L 296.112495 409.562468 
L 296.477768 409.562468 
L 296.599525 413.939974 
L 297.208314 413.939974 
L 297.330071 412.781492 
L 297.39095 413.688928 
L 297.512708 412.089052 
L 297.634465 412.089052 
L 297.756223 399.93055 
L 298.121496 399.93055 
L 298.243253 400.263233 
L 298.91292 400.263233 
L 299.034678 400.633735 
L 299.94786 400.633735 
L 300.069618 407.797112 
L 300.191376 402.194124 
L 300.374012 402.194124 
L 300.556648 411.947508 
L 300.800164 415.367485 
L 301.043679 415.367485 
L 301.348073 413.800819 
L 301.469831 413.660182 
L 301.530709 413.660182 
L 301.652467 413.800819 
L 301.956861 413.800819 
L 302.078619 413.497173 
L 302.139498 413.497173 
L 302.200376 414.737058 
L 302.261255 414.090436 
L 302.322134 414.090436 
L 302.443892 414.510757 
L 302.809165 414.510757 
L 302.930922 414.818352 
L 302.991801 414.818352 
L 303.113559 415.37309 
L 304.270256 415.441981 
L 304.452893 415.523577 
L 305.061681 415.503387 
L 305.183438 415.002136 
L 305.305196 415.002136 
L 305.426954 414.768278 
L 305.913984 414.768278 
L 306.035742 415.289693 
L 306.157499 415.127208 
L 306.401015 415.127208 
L 306.522772 414.933672 
L 306.766288 414.933672 
L 306.888045 415.210841 
L 307.009803 415.210841 
L 307.070682 415.507692 
L 307.13156 415.485285 
L 319.124687 415.394869 
L 319.246445 415.162662 
L 321.072809 415.162662 
L 321.194567 415.487143 
L 333.37033 415.417489 
L 333.552966 415.28655 
L 334.466148 415.341709 
L 334.587906 414.214691 
L 334.709664 414.214691 
L 334.8923 414.339945 
L 335.074937 414.339945 
L 335.196694 401.038726 
L 335.440209 401.038726 
L 335.561967 414.287652 
L 335.683725 404.636181 
L 335.805482 404.636181 
L 335.92724 408.93932 
L 336.048998 408.93932 
L 336.170755 409.916372 
L 336.596907 409.916372 
L 336.718665 410.461409 
L 336.901301 410.461409 
L 337.023059 413.745843 
L 337.083937 413.745843 
L 337.144816 414.848424 
L 337.205695 414.343135 
L 337.327453 414.343135 
L 337.44921 415.045337 
L 337.510089 415.045337 
L 337.570968 410.488529 
L 337.631847 411.534436 
L 337.814483 411.534436 
L 337.936241 415.067986 
L 338.057999 415.067986 
L 338.118877 415.183485 
L 338.240635 414.92702 
L 338.362393 414.92702 
L 338.48415 413.777458 
L 338.545029 415.503415 
L 338.605908 415.449529 
L 338.788544 415.438607 
L 338.910302 415.153852 
L 339.092938 415.153852 
L 339.214696 415.302964 
L 339.397332 415.302964 
L 339.51909 415.478821 
L 340.493151 415.459405 
L 340.675788 415.356287 
L 340.797545 415.356287 
L 340.980182 415.477987 
L 341.771606 415.509534 
L 341.893364 415.298051 
L 342.62391 415.335215 
L 342.745667 413.748796 
L 342.806546 413.748796 
L 342.928304 410.562858 
L 343.050061 410.562858 
L 343.171819 415.256355 
L 343.232698 415.256355 
L 343.293577 414.932922 
L 343.354455 413.904228 
L 343.415334 414.403792 
L 343.597971 414.403792 
L 343.719728 414.75098 
L 343.963244 414.75098 
L 344.085001 415.381096 
L 344.693789 415.381096 
L 344.815547 414.880664 
L 345.485214 414.880664 
L 345.606972 414.520583 
L 346.337517 414.520583 
L 346.459275 412.872586 
L 346.581033 414.682406 
L 347.920367 414.682406 
L 348.042124 413.615087 
L 348.163882 415.238042 
L 348.650912 415.238042 
L 348.77267 415.446391 
L 348.833549 415.446391 
L 348.955306 414.043569 
L 349.077064 414.043569 
L 349.198822 414.997984 
L 349.564095 414.997984 
L 349.624973 414.858136 
L 349.746731 415.453762 
L 349.990246 415.453762 
L 350.112004 414.858136 
L 350.233762 414.858136 
L 350.355519 415.395572 
L 350.84255 415.467654 
L 350.964307 415.51802 
L 351.086065 415.096972 
L 351.755732 415.096972 
L 352.060126 415.514674 
L 371.663104 415.44466 
L 371.784862 415.267632 
L 371.90662 415.267632 
L 372.028377 415.4975 
L 373.002438 415.478478 
L 373.124196 415.318653 
L 374.46353 415.318653 
L 374.585288 415.485843 
L 374.950561 415.485843 
L 375.072318 415.318653 
L 375.254955 415.511372 
L 375.376712 415.470165 
L 375.559349 415.370905 
L 376.350773 415.437222 
L 376.472531 414.873565 
L 376.898683 414.873565 
L 377.02044 415.167233 
L 377.081319 415.167233 
L 377.203077 415.466387 
L 379.151199 415.484743 
L 379.394714 413.928287 
L 380.12526 413.960423 
L 380.247017 403.693038 
L 380.307896 403.693038 
L 380.429654 410.514761 
L 380.794927 410.514761 
L 380.916684 410.812281 
L 381.586351 410.812281 
L 381.708109 408.448434 
L 382.377776 408.448434 
L 382.499534 399.335115 
L 382.986564 399.335115 
L 383.108322 412.1004 
L 384.021504 412.1004 
L 384.143262 407.340634 
L 384.508534 407.340634 
L 384.630292 415.251266 
L 384.75205 415.516871 
L 384.873807 415.251266 
L 384.934686 415.251266 
L 385.056444 412.544711 
L 385.360838 412.544711 
L 385.482596 412.054861 
L 385.908747 412.054861 
L 386.030505 414.850704 
L 387.369839 414.826497 
L 387.552475 415.420797 
L 388.465657 415.363291 
L 388.587415 415.180319 
L 388.891809 415.180319 
L 389.013567 414.551524 
L 389.37884 414.551524 
L 389.500597 414.974935 
L 389.561476 414.974935 
L 389.683234 415.258987 
L 389.926749 415.258987 
L 389.987628 415.509746 
L 390.109385 415.258987 
L 390.231143 415.250283 
L 390.352901 415.437274 
L 391.083447 415.464751 
L 391.326962 413.62273 
L 391.387841 414.665438 
L 391.448719 413.951515 
L 391.509598 413.951515 
L 391.631356 414.606221 
L 391.93575 414.606221 
L 392.240144 371.584875 
L 392.361902 409.892752 
L 393.092447 409.892752 
L 393.214205 413.020575 
L 393.275084 413.020575 
L 393.396842 413.583054 
L 393.45772 413.583054 
L 393.579478 412.469027 
L 393.640357 412.469027 
L 393.762114 309.90011 
L 393.822993 309.90011 
L 393.944751 227.297608 
L 394.310024 227.297608 
L 394.431781 156.649455 
L 397.59748 156.649455 
L 397.719237 246.732758 
L 398.206268 246.732758 
L 398.328026 327.52828 
L 398.510662 327.52828 
L 398.63242 345.316883 
L 398.815056 345.316883 
L 398.997692 322.327147 
L 399.11945 358.089879 
L 399.241208 358.089879 
L 399.362965 367.776254 
L 399.789117 367.776254 
L 399.910875 349.807681 
L 399.971754 349.807681 
L 400.093511 339.357648 
L 400.215269 339.357648 
L 400.337026 377.132379 
L 400.397905 377.132379 
L 400.519663 75.33 
L 401.737239 75.33 
L 401.858997 397.007624 
L 402.102512 397.007624 
L 402.22427 415.351437 
L 402.346027 415.351437 
L 402.528664 414.207063 
L 402.772179 414.207063 
L 402.893937 415.213153 
L 403.380967 415.213153 
L 403.685361 411.92587 
L 403.928877 411.92587 
L 404.050634 414.133519 
L 404.537665 414.133519 
L 404.659422 413.383517 
L 404.720301 413.383517 
L 404.842059 414.671421 
L 405.450847 414.671421 
L 405.511726 414.54499 
L 405.694362 415.442554 
L 405.876999 415.340564 
L 406.120514 414.835477 
L 406.181393 414.835477 
L 406.30315 415.256757 
L 406.607544 415.256757 
L 406.729302 415.458977 
L 406.85106 415.458977 
L 406.972817 415.296942 
L 407.764242 415.296942 
L 407.825121 415.424394 
L 407.946878 414.471636 
L 408.068636 415.301058 
L 408.190394 415.083325 
L 408.251272 415.083325 
L 408.37303 413.609634 
L 409.225333 413.609634 
L 409.347091 414.594076 
L 409.895 414.588981 
L 410.016758 415.473472 
L 412.330153 415.451883 
L 412.391032 415.356824 
L 412.573668 415.488965 
L 413.730366 415.476911 
L 413.913002 415.372635 
L 414.156517 415.482767 
L 415.130579 415.483529 
L 416.713428 415.40397 
L 416.835185 414.518197 
L 416.956943 414.518197 
L 417.078701 415.401493 
L 417.261337 415.28041 
L 418.174519 415.351255 
L 418.357156 415.462268 
L 418.478913 415.462268 
L 418.600671 415.213213 
L 418.905065 415.523412 
L 419.270338 415.479808 
L 419.392096 412.325471 
L 420.609672 412.325471 
L 420.73143 410.54627 
L 420.853187 410.54627 
L 420.974945 410.709787 
L 421.035824 410.709787 
L 421.157581 397.634246 
L 421.401096 397.634246 
L 421.522854 400.030519 
L 422.192521 400.030519 
L 422.314279 413.009915 
L 422.436036 412.467057 
L 423.105703 412.467057 
L 423.28834 412.35334 
L 423.349219 412.35334 
L 423.470976 414.699544 
L 423.531855 414.699544 
L 423.653613 413.488097 
L 423.77537 414.150819 
L 423.897128 412.746371 
L 424.201522 412.846639 
L 424.32328 410.314852 
L 425.662614 410.314852 
L 425.784371 412.933423 
L 426.697553 412.933423 
L 426.819311 413.365402 
L 427.976009 413.365402 
L 428.097766 414.384635 
L 429.071827 414.384635 
L 429.193585 415.155046 
L 429.376221 415.155046 
L 429.497979 415.426412 
L 429.741494 415.426412 
L 429.863252 415.155046 
L 431.019949 415.155046 
L 431.141707 415.494603 
L 435.159709 415.477917 
L 435.281466 415.248723 
L 435.707618 415.248723 
L 435.829376 415.48475 
L 436.012012 415.48475 
L 436.13377 415.279358 
L 436.559921 415.279358 
L 436.681679 415.456667 
L 443.621864 415.483622 
L 443.743622 415.345462 
L 444.83944 415.345462 
L 444.961198 415.468705 
L 445.326471 415.521805 
L 463.285721 415.46247 
L 463.468358 415.409125 
L 465.842632 415.459959 
L 466.025268 415.525964 
L 467.547238 415.522396 
L 468.582178 415.504965 
L 468.825693 415.470429 
L 469.49536 415.434629 
L 469.677997 415.324743 
L 469.799755 415.356248 
L 469.982391 413.655652 
L 470.104149 414.485271 
L 470.408543 414.485271 
L 470.469421 414.120997 
L 470.5303 414.384144 
L 471.504361 414.384144 
L 471.626119 413.926358 
L 471.930513 413.926358 
L 471.991392 414.038674 
L 472.052271 413.928287 
L 472.356665 413.928287 
L 472.417544 415.113215 
L 472.478422 414.963011 
L 472.721938 415.366311 
L 472.843695 415.366311 
L 472.965453 415.155368 
L 473.452483 415.155368 
L 473.574241 413.374162 
L 474.365666 413.374162 
L 474.487423 414.129572 
L 474.974454 414.129572 
L 475.15709 411.824012 
L 475.217969 411.824012 
L 475.339727 412.445744 
L 475.826757 412.445744 
L 475.948515 411.240728 
L 477.592243 411.240728 
L 477.714 412.10377 
L 477.774879 412.10377 
L 477.896637 412.350467 
L 478.566304 412.350467 
L 478.627183 409.04646 
L 478.688062 410.87372 
L 478.809819 410.87372 
L 478.931577 412.712113 
L 478.992456 409.753508 
L 479.053334 411.633014 
L 479.357729 411.633014 
L 479.418607 410.560273 
L 479.540365 414.042401 
L 479.601244 414.042401 
L 479.723001 413.204329 
L 479.844759 413.204329 
L 479.966517 414.663706 
L 480.027395 414.699716 
L 480.149153 415.403683 
L 480.575305 415.403683 
L 480.697062 413.509584 
L 481.001457 413.509584 
L 481.123214 412.725114 
L 481.549366 412.725114 
L 481.732002 414.882906 
L 481.85376 414.302271 
L 481.975518 414.302271 
L 482.097275 415.494527 
L 482.219033 408.791263 
L 483.984518 408.791263 
L 484.106276 400.277456 
L 484.167155 400.277456 
L 484.288913 397.011106 
L 484.836822 397.011106 
L 484.958579 384.469013 
L 485.44561 384.469013 
L 485.506489 392.921861 
L 485.628246 334.535953 
L 485.871762 334.535953 
L 485.993519 219.357253 
L 486.845823 219.357253 
L 486.96758 370.640328 
L 487.089338 346.633821 
L 487.271974 346.633821 
L 487.393732 393.680638 
L 488.733066 393.680638 
L 488.854824 399.84949 
L 488.915702 399.84949 
L 489.03746 382.052621 
L 489.402733 382.052621 
L 489.524491 407.047788 
L 490.255036 407.047788 
L 490.376794 353.702374 
L 490.742067 353.702374 
L 490.863825 408.119987 
L 491.229097 408.119987 
L 491.350855 353.702374 
L 493.66425 353.702374 
L 493.786008 184.513786 
L 493.907765 184.513786 
L 494.029523 373.205111 
L 495.307978 373.205111 
L 495.429736 386.33332 
L 495.916766 386.33332 
L 496.038524 348.862501 
L 496.282039 348.862501 
L 496.525554 223.628713 
L 499.021586 223.628713 
L 499.143343 377.352662 
L 499.32598 377.352662 
L 499.447738 288.574855 
L 499.995647 288.574855 
L 500.117404 349.518755 
L 500.178283 349.518755 
L 500.300041 389.214267 
L 500.726193 389.214267 
L 500.84795 389.670223 
L 500.908829 389.670223 
L 501.030587 392.46951 
L 501.152344 392.46951 
L 501.274102 389.670223 
L 501.761132 389.670223 
L 501.88289 348.862501 
L 503.95277 348.862501 
L 504.074527 300.379147 
L 504.196285 300.379147 
L 504.318043 184.513786 
L 505.718255 184.513786 
L 505.900892 351.155199 
L 507.118468 351.155199 
L 507.240226 375.033828 
L 507.483741 375.033828 
L 507.605499 300.379147 
L 507.970772 300.379147 
L 508.092529 376.641993 
L 508.57956 376.641993 
L 508.640439 401.125351 
L 508.762196 376.641993 
L 508.883954 377.152848 
L 509.005711 389.386924 
L 509.249227 389.386924 
L 509.370984 377.152848 
L 509.675378 377.152848 
L 509.797136 395.199488 
L 510.10153 395.199488 
L 510.223288 401.62431 
L 510.345045 401.62431 
L 510.588561 405.283261 
L 510.771197 405.283261 
L 510.892955 410.943005 
L 511.197349 410.943005 
L 511.319106 405.050563 
L 511.684379 405.050563 
L 511.867016 413.611343 
L 511.988773 409.952338 
L 512.049652 411.593276 
L 512.17141 390.437283 
L 512.719319 390.437283 
L 512.841077 377.152848 
L 513.388986 377.152848 
L 513.510744 401.552308 
L 513.754259 401.552308 
L 513.876017 386.33332 
L 515.154472 386.33332 
L 515.215351 384.809279 
L 515.337108 370.180182 
L 516.128533 370.180182 
L 516.311169 413.843956 
L 516.432927 413.843956 
L 516.554685 405.359824 
L 516.980836 405.359824 
L 517.102594 382.69013 
L 517.224352 403.461801 
L 517.467867 403.461801 
L 517.589624 401.567681 
L 517.772261 401.567681 
L 517.894018 413.19832 
L 518.137534 413.19832 
L 518.259291 414.515184 
L 518.381049 414.515184 
L 518.502807 415.242242 
L 518.624564 413.664623 
L 518.685443 413.664623 
L 518.807201 414.354347 
L 519.35511 414.354347 
L 519.537747 415.293935 
L 519.781262 415.459923 
L 520.816202 415.44771 
L 520.998838 415.337106 
L 521.303232 415.337106 
L 521.485869 415.462816 
L 521.91202 415.3713 
L 522.033778 413.707326 
L 522.155536 413.707326 
L 522.277293 414.712208 
L 522.825203 414.712208 
L 522.94696 415.267684 
L 523.007839 415.267684 
L 523.068718 415.502777 
L 523.129597 415.471344 
L 523.433991 415.305274 
L 523.677506 415.305274 
L 523.738385 414.497529 
L 523.799264 415.038308 
L 524.103658 415.049697 
L 524.286294 414.949092 
L 524.529809 414.949092 
L 524.712446 415.46419 
L 526.477931 415.514221 
L 526.599689 415.094559 
L 526.721447 415.094559 
L 526.904083 414.970183 
L 527.391114 414.970183 
L 527.512871 414.71086 
L 527.939023 414.71086 
L 528.060781 410.327501 
L 528.426054 410.327501 
L 528.547811 414.570466 
L 528.973963 414.570466 
L 529.09572 415.237922 
L 530.313297 415.160763 
L 530.435054 414.152576 
L 530.67857 414.152576 
L 530.800327 415.390711 
L 531.287358 415.390711 
L 531.530873 415.039669 
L 531.591752 415.039669 
L 531.71351 415.247713 
L 532.931086 415.306576 
L 533.052843 415.470053 
L 533.174601 415.196693 
L 533.23548 415.196693 
L 533.296359 414.612761 
L 533.357238 415.400837 
L 533.418116 415.091631 
L 533.783389 414.992412 
L 534.026905 413.55756 
L 534.148662 413.55756 
L 534.331299 414.633603 
L 534.453056 414.633603 
L 534.574814 414.830151 
L 534.818329 414.811156 
L 534.940087 414.001458 
L 535.122723 414.001458 
L 535.244481 412.761469 
L 535.30536 415.149992 
L 535.427117 412.761469 
L 535.609754 412.761469 
L 535.731511 411.643708 
L 536.462057 411.643708 
L 536.522936 414.579875 
L 536.583815 414.546054 
L 536.644694 414.546054 
L 536.82733 414.415631 
L 536.949088 414.415631 
L 537.009966 414.923649 
L 537.131724 414.079982 
L 537.436118 414.079982 
L 537.557876 410.996624 
L 537.679633 415.257556 
L 537.86227 415.257556 
L 538.044906 414.652525 
L 538.166664 414.652525 
L 538.3493 414.770342 
L 538.410179 414.770342 
L 538.531937 415.234149 
L 539.201604 415.143007 
L 539.323361 415.186898 
L 539.93215 415.265934 
L 540.053907 414.610868 
L 540.114786 414.610868 
L 540.236544 415.292113 
L 541.332362 415.292113 
L 541.45412 413.383675 
L 541.94115 413.383675 
L 542.002029 414.116728 
L 542.123787 408.941518 
L 542.732575 408.941518 
L 542.854333 412.24111 
L 543.584878 412.24111 
L 543.706636 415.040598 
L 543.950151 415.040598 
L 544.071909 415.495374 
L 544.193667 415.399593 
L 544.315424 415.488851 
L 544.437182 415.458597 
L 544.619818 415.503675 
L 553.203731 415.420632 
L 553.26461 415.363005 
L 553.325489 415.498298 
L 553.386368 415.421754 
L 554.908338 415.345163 
L 555.030096 415.096683 
L 555.151853 415.096683 
L 555.273611 415.422107 
L 556.186793 415.465396 
L 556.308551 415.2982 
L 556.85646 415.395411 
L 556.978218 415.470452 
L 557.221733 415.428686 
L 560.265674 415.523082 
L 560.387431 415.182083 
L 561.544129 415.289187 
L 561.665887 415.489031 
L 568.849587 415.505696 
L 568.971344 415.191205 
L 569.275738 415.191221 
L 569.336617 415.333013 
L 569.458375 415.110412 
L 570.067163 415.110412 
L 570.188921 414.697755 
L 570.371557 414.697755 
L 570.493315 414.444882 
L 570.675951 414.890498 
L 571.650012 414.983377 
L 571.77177 414.306951 
L 572.319679 414.306951 
L 572.380558 414.68833 
L 572.502316 414.343884 
L 572.624073 414.343884 
L 572.684952 415.473665 
L 572.745831 414.808713 
L 572.80671 415.226156 
L 572.867589 415.080373 
L 572.989346 414.647725 
L 573.171983 414.647725 
L 573.29374 414.887508 
L 573.598134 414.887508 
L 573.780771 415.343338 
L 575.120105 415.417309 
L 575.302741 415.509575 
L 575.668014 415.485926 
L 576.033287 415.462981 
L 580.112168 415.500459 
L 580.233925 415.235076 
L 580.538319 415.235076 
L 580.660077 415.501542 
L 581.877653 415.462598 
L 582.06029 415.351506 
L 582.851714 415.351506 
L 582.912593 415.148582 
L 583.034351 415.510877 
L 583.156108 415.282454 
L 583.460502 415.282454 
L 583.643139 415.150508 
L 583.825775 415.150508 
L 583.886654 415.50469 
L 583.947533 415.068532 
L 584.008412 415.370547 
L 584.6172 415.456724 
L 584.738958 415.439434 
L 585.286867 415.439434 
L 585.408624 414.983701 
L 585.65214 414.983701 
L 585.773897 415.397098 
L 586.200049 415.397098 
L 586.382686 415.514505 
L 588.148171 415.506401 
L 588.269929 415.075031 
L 588.452565 415.075031 
L 588.574323 415.319863 
L 589.183111 415.3906 
L 589.304869 415.504187 
L 589.609263 415.504187 
L 589.73102 415.351847 
L 589.974536 415.406438 
L 594.114295 415.434447 
L 594.296932 415.528866 
L 603.12436 415.52729 
L 615.848032 415.511897 
L 616.030669 415.4054 
L 618.344063 415.491188 
L 618.587579 415.523694 
L 624.492824 415.48937 
L 624.67546 415.390398 
L 625.649521 415.357505 
L 625.771279 415.524435 
L 637.581769 415.418986 
L 637.703527 415.242679 
L 638.434072 415.242679 
L 638.55583 415.506506 
L 644.521954 415.475961 
L 644.643712 414.928004 
L 644.70459 414.928004 
L 644.887227 415.45094 
L 647.626774 415.417327 
L 647.80941 414.981171 
L 648.296441 414.981171 
L 648.418198 414.737094 
L 648.539956 414.737094 
L 648.661713 409.812779 
L 649.33138 409.812779 
L 649.453138 414.795962 
L 649.574896 414.163703 
L 650.36632 414.163703 
L 650.488078 415.515653 
L 651.827412 415.415707 
L 651.949169 415.165391 
L 652.070927 415.250319 
L 652.192685 414.477337 
L 652.557958 415.093798 
L 652.679715 415.093798 
L 652.801473 415.463802 
L 655.297504 415.499618 
L 655.419262 415.272387 
L 656.332444 415.344008 
L 656.454202 415.497846 
L 656.819475 415.46971 
L 656.941232 415.222028 
L 657.184748 415.222028 
L 657.306505 415.445533 
L 657.489142 415.415374 
L 657.671778 415.421619 
L 675.57015 415.511398 
L 675.691907 415.087102 
L 676.178938 415.087102 
L 676.239817 415.487232 
L 676.361574 415.05852 
L 676.544211 415.05852 
L 676.665968 413.397236 
L 676.787726 414.873953 
L 676.970362 414.873953 
L 677.09212 413.10456 
L 677.274757 413.10456 
L 677.396514 414.102424 
L 677.761787 414.102424 
L 677.883545 414.833514 
L 678.187939 414.833514 
L 678.309696 414.685897 
L 678.61409 414.627425 
L 678.735848 412.935736 
L 678.979363 412.935736 
L 679.101121 410.689975 
L 681.71891 410.689975 
L 681.840668 412.935736 
L 682.327698 412.935736 
L 682.449456 415.43593 
L 687.441519 415.363872 
L 687.563276 414.925422 
L 687.685034 415.2081 
L 688.232943 415.204106 
L 688.354701 414.818767 
L 688.476459 414.818767 
L 688.598216 414.031675 
L 688.780853 414.031675 
L 688.90261 413.741202 
L 688.963489 413.741202 
L 689.085247 414.751563 
L 689.815792 414.751563 
L 689.93755 415.140743 
L 689.998429 415.140743 
L 690.059308 415.015531 
L 690.181065 414.557943 
L 691.033369 414.557943 
L 691.155126 415.313247 
L 691.398642 415.313247 
L 691.520399 415.166253 
L 691.581278 415.49526 
L 691.642157 415.281735 
L 691.946551 415.281735 
L 692.068309 415.450664 
L 692.129187 415.082644 
L 692.190066 415.339338 
L 692.372703 415.339338 
L 692.49446 415.200895 
L 692.981491 415.200895 
L 693.103249 414.214582 
L 693.346764 414.214582 
L 693.407643 415.132594 
L 693.468521 415.019841 
L 694.016431 415.019841 
L 694.138188 415.500468 
L 694.320825 415.425799 
L 699.495524 415.460191 
L 699.617282 415.270769 
L 700.286949 415.251046 
L 700.408706 414.55037 
L 700.834858 414.55037 
L 700.956616 415.059242 
L 701.808919 415.059242 
L 701.930677 415.318166 
L 702.600344 415.318166 
L 702.661222 415.454253 
L 702.78298 415.318166 
L 702.843859 415.494651 
L 702.965617 414.991586 
L 703.026495 414.991586 
L 703.087374 414.628245 
L 703.148253 414.827983 
L 703.270011 414.827983 
L 703.391768 413.157713 
L 704.426708 413.157713 
L 704.487587 403.681204 
L 704.548466 406.878426 
L 706.313951 406.878426 
L 706.435709 396.372875 
L 706.861861 396.372875 
L 706.983618 366.800784 
L 707.105376 381.919068 
L 707.775043 381.919068 
L 707.896801 410.294661 
L 708.992619 410.294661 
L 709.114377 397.871621 
L 709.236135 397.871621 
L 709.297013 413.618948 
L 709.357892 411.051769 
L 709.47965 402.962517 
L 710.210196 402.962517 
L 710.331953 401.837454 
L 710.392832 401.837454 
L 710.51459 386.581623 
L 712.280075 386.581623 
L 712.401833 407.346885 
L 712.949742 407.346885 
L 713.0715 411.066895 
L 714.776107 411.066895 
L 714.958743 414.043109 
L 715.324016 414.043109 
L 715.445774 410.767405 
L 716.054562 410.767405 
L 716.176319 411.202003 
L 717.941805 411.277681 
L 718.063563 414.206908 
L 718.18532 414.206908 
L 718.307078 413.571559 
L 720.011685 413.571559 
L 720.133442 411.312757 
L 720.924867 411.312757 
L 721.046625 415.510194 
L 721.351019 415.513686 
L 721.472776 415.375519 
L 721.594534 415.375519 
L 721.716292 414.867235 
L 722.142443 414.867235 
L 722.264201 414.180055 
L 722.933868 414.180055 
L 723.055626 411.500671 
L 723.177383 401.16371 
L 723.786171 401.16371 
L 723.907929 407.677009 
L 724.029687 407.677009 
L 724.151444 412.634646 
L 724.212323 412.634646 
L 724.334081 365.461122 
L 724.638475 365.461122 
L 724.760232 320.554778 
L 726.099566 320.554778 
L 726.221324 359.259691 
L 726.890991 359.259691 
L 727.073627 297.395054 
L 727.134506 297.395054 
L 727.256264 190.388063 
L 727.743294 190.388063 
L 727.925931 392.44036 
L 728.534719 392.44036 
L 728.656477 396.46219 
L 730.117568 396.46219 
L 730.178447 294.278517 
L 730.300205 410.11113 
L 730.848114 410.11113 
L 731.03075 387.106689 
L 731.456902 387.106689 
L 731.57866 415.300754 
L 732.004811 415.300754 
L 732.126569 414.837167 
L 733.465903 414.837167 
L 733.587661 415.442071 
L 733.770297 415.492015 
L 735.779298 415.499548 
L 735.901056 415.158473 
L 736.022813 415.158473 
L 736.144571 415.478393 
L 737.849178 415.456633 
L 737.970935 415.280275 
L 739.005875 415.216276 
L 739.127633 415.483478 
L 739.24939 415.483478 
L 739.371148 415.198683 
L 739.553784 415.198683 
L 739.675542 415.342157 
L 740.162573 415.44974 
L 740.588724 415.431343 
L 747.163636 415.528206 
L 747.163636 415.528206 
" clip-path="url(#p4a826315e9)" style="fill: none; stroke: #4c72b0; stroke-width: 2; stroke-linecap: round"/>
   </g>
   <g id="patch_3">
    <path d="M 108 432.54 
L 108 58.32 
" style="fill: none; stroke: #000000; stroke-linejoin: miter; stroke-linecap: square"/>
   </g>
   <g id="patch_4">
    <path d="M 777.6 432.54 
L 777.6 58.32 
" style="fill: none; stroke: #000000; stroke-linejoin: miter; stroke-linecap: square"/>
   </g>
   <g id="patch_5">
    <path d="M 108 432.54 
L 777.6 432.54 
" style="fill: none; stroke: #000000; stroke-linejoin: miter; stroke-linecap: square"/>
   </g>
   <g id="patch_6">
    <path d="M 108 58.32 
L 777.6 58.32 
" style="fill: none; stroke: #000000; stroke-linejoin: miter; stroke-linecap: square"/>
   </g>
   <g id="legend_1">
    <g id="patch_7">
     <path d="M 680.743925 89.032028 
L 767.8 89.032028 
Q 770.6 89.032028 770.6 86.232028 
L 770.6 68.12 
Q 770.6 65.32 767.8 65.32 
L 680.743925 65.32 
Q 677.943925 65.32 677.943925 68.12 
L 677.943925 86.232028 
Q 677.943925 89.032028 680.743925 89.032028 
z
" style="fill: #ffffff; opacity: 0.8; stroke: #cccccc; stroke-width: 0.8; stroke-linejoin: miter"/>
    </g>
    <g id="line2d_41">
     <path d="M 683.543925 75.82 
L 697.543925 75.82 
L 711.543925 75.82 
" style="fill: none; stroke: #4c72b0; stroke-width: 2; stroke-linecap: round"/>
    </g>
    <g id="text_17">
     <!-- $j = 2.5$ -->
     <g style="fill: #262626" transform="translate(722.743925 80.72) scale(0.14 -0.14)">
      <defs>
       <path id="CMR17-3d" d="M 4115 2048 
C 4211 2048 4307 2048 4307 2156 
C 4307 2272 4198 2272 4090 2272 
L 512 2272 
C 403 2272 294 2272 294 2156 
C 294 2048 390 2048 486 2048 
L 4115 2048 
z
M 4090 927 
C 4198 927 4307 927 4307 1043 
C 4307 1152 4211 1152 4115 1152 
L 486 1152 
C 390 1152 294 1152 294 1043 
C 294 927 403 927 512 927 
L 4090 927 
z
" transform="scale(0.015625)"/>
      </defs>
      <use xlink:href="#CMMI12-6a" transform="scale(0.996264)"/>
      <use xlink:href="#CMR17-3d" transform="translate(73.636491 0) scale(0.996264)"/>
      <use xlink:href="#CMR17-32" transform="translate(173.025288 0) scale(0.996264)"/>
      <use xlink:href="#CMMI12-3a" transform="translate(218.715766 0) scale(0.996264)"/>
      <use xlink:href="#CMR17-35" transform="translate(245.812943 0) scale(0.996264)"/>
     </g>
    </g>
   </g>
  </g>
 </g>
 <defs>
  <clipPath id="p4a826315e9">
   <rect x="108" y="58.32" width="669.6" height="374.22"/>
  </clipPath>
 </defs>
</svg>
