<?xml version="1.0" encoding="utf-8" standalone="no"?>
<!DOCTYPE svg PUBLIC "-//W3C//DTD SVG 1.1//EN"
  "http://www.w3.org/Graphics/SVG/1.1/DTD/svg11.dtd">
<svg xmlns:xlink="http://www.w3.org/1999/xlink" width="864pt" height="486pt" viewBox="0 0 864 486" xmlns="http://www.w3.org/2000/svg" version="1.1">
 <metadata>
  <rdf:RDF xmlns:dc="http://purl.org/dc/elements/1.1/" xmlns:cc="http://creativecommons.org/ns#" xmlns:rdf="http://www.w3.org/1999/02/22-rdf-syntax-ns#">
   <cc:Work>
    <dc:type rdf:resource="http://purl.org/dc/dcmitype/StillImage"/>
    <dc:date>2023-01-19T23:27:31.245152</dc:date>
    <dc:format>image/svg+xml</dc:format>
    <dc:creator>
     <cc:Agent>
      <dc:title>Matplotlib v3.6.2, https://matplotlib.org/</dc:title>
     </cc:Agent>
    </dc:creator>
   </cc:Work>
  </rdf:RDF>
 </metadata>
 <defs>
  <style type="text/css">*{stroke-linejoin: round; stroke-linecap: butt}</style>
 </defs>
 <g id="figure_1">
  <g id="patch_1">
   <path d="M 0 486 
L 864 486 
L 864 0 
L 0 0 
z
" style="fill: #ffffff"/>
  </g>
  <g id="axes_1">
   <g id="patch_2">
    <path d="M 108 432.54 
L 777.6 432.54 
L 777.6 58.32 
L 108 58.32 
z
" style="fill: #ffffff"/>
   </g>
   <g id="matplotlib.axis_1">
    <g id="xtick_1">
     <g id="line2d_1">
      <path d="M 138.375485 432.54 
L 138.375485 58.32 
" clip-path="url(#p5ea3a325df)" style="fill: none; stroke: #e6e6e6; stroke-width: 0.8; stroke-linecap: round"/>
     </g>
     <g id="line2d_2">
      <defs>
       <path id="mf2f5201500" d="M 0 0 
L 0 -4.8 
" style="stroke: #262626"/>
      </defs>
      <g>
       <use xlink:href="#mf2f5201500" x="138.375485" y="432.54" style="fill: #262626; stroke: #262626"/>
      </g>
     </g>
     <g id="line2d_3">
      <defs>
       <path id="m1e3705f9c1" d="M 0 0 
L 0 4.8 
" style="stroke: #262626"/>
      </defs>
      <g>
       <use xlink:href="#m1e3705f9c1" x="138.375485" y="58.32" style="fill: #262626; stroke: #262626"/>
      </g>
     </g>
     <g id="text_1">
      <!-- $\mathdefault{0}$ -->
      <g style="fill: #262626" transform="translate(135.156348 445.172395) scale(0.132 -0.132)">
       <defs>
        <path id="CMR17-30" d="M 2688 2038 
C 2688 2430 2682 3099 2413 3613 
C 2176 4063 1798 4224 1466 4224 
C 1158 4224 768 4082 525 3620 
C 269 3137 243 2539 243 2038 
C 243 1671 250 1112 448 623 
C 723 -39 1216 -128 1466 -128 
C 1760 -128 2208 -7 2470 604 
C 2662 1048 2688 1568 2688 2038 
z
M 1466 -26 
C 1056 -26 813 328 723 816 
C 653 1196 653 1749 653 2109 
C 653 2604 653 3015 736 3407 
C 858 3954 1216 4121 1466 4121 
C 1728 4121 2067 3947 2189 3420 
C 2272 3054 2278 2623 2278 2109 
C 2278 1691 2278 1176 2202 797 
C 2067 96 1690 -26 1466 -26 
z
" transform="scale(0.015625)"/>
       </defs>
       <use xlink:href="#CMR17-30" transform="scale(0.996264)"/>
      </g>
     </g>
    </g>
    <g id="xtick_2">
     <g id="line2d_4">
      <path d="M 260.133115 432.54 
L 260.133115 58.32 
" clip-path="url(#p5ea3a325df)" style="fill: none; stroke: #e6e6e6; stroke-width: 0.8; stroke-linecap: round"/>
     </g>
     <g id="line2d_5">
      <g>
       <use xlink:href="#mf2f5201500" x="260.133115" y="432.54" style="fill: #262626; stroke: #262626"/>
      </g>
     </g>
     <g id="line2d_6">
      <g>
       <use xlink:href="#m1e3705f9c1" x="260.133115" y="58.32" style="fill: #262626; stroke: #262626"/>
      </g>
     </g>
     <g id="text_2">
      <!-- $\mathdefault{2000}$ -->
      <g style="fill: #262626" transform="translate(247.256567 445.172395) scale(0.132 -0.132)">
       <defs>
        <path id="CMR17-32" d="M 2669 990 
L 2554 990 
C 2490 537 2438 460 2413 422 
C 2381 371 1920 371 1830 371 
L 602 371 
C 832 620 1280 1073 1824 1596 
C 2214 1966 2669 2400 2669 3033 
C 2669 3788 2067 4224 1395 4224 
C 691 4224 262 3603 262 3027 
C 262 2777 448 2745 525 2745 
C 589 2745 781 2783 781 3007 
C 781 3206 614 3264 525 3264 
C 486 3264 448 3257 422 3244 
C 544 3788 915 4057 1306 4057 
C 1862 4057 2227 3616 2227 3033 
C 2227 2477 1901 1998 1536 1583 
L 262 147 
L 262 0 
L 2515 0 
L 2669 990 
z
" transform="scale(0.015625)"/>
       </defs>
       <use xlink:href="#CMR17-32" transform="scale(0.996264)"/>
       <use xlink:href="#CMR17-30" transform="translate(45.690477 0) scale(0.996264)"/>
       <use xlink:href="#CMR17-30" transform="translate(91.380954 0) scale(0.996264)"/>
       <use xlink:href="#CMR17-30" transform="translate(137.071431 0) scale(0.996264)"/>
      </g>
     </g>
    </g>
    <g id="xtick_3">
     <g id="line2d_7">
      <path d="M 381.890745 432.54 
L 381.890745 58.32 
" clip-path="url(#p5ea3a325df)" style="fill: none; stroke: #e6e6e6; stroke-width: 0.8; stroke-linecap: round"/>
     </g>
     <g id="line2d_8">
      <g>
       <use xlink:href="#mf2f5201500" x="381.890745" y="432.54" style="fill: #262626; stroke: #262626"/>
      </g>
     </g>
     <g id="line2d_9">
      <g>
       <use xlink:href="#m1e3705f9c1" x="381.890745" y="58.32" style="fill: #262626; stroke: #262626"/>
      </g>
     </g>
     <g id="text_3">
      <!-- $\mathdefault{4000}$ -->
      <g style="fill: #262626" transform="translate(369.014197 445.172395) scale(0.132 -0.132)">
       <defs>
        <path id="CMR17-34" d="M 2150 4147 
C 2150 4281 2144 4288 2029 4288 
L 128 1254 
L 128 1088 
L 1779 1088 
L 1779 460 
C 1779 230 1766 166 1318 166 
L 1197 166 
L 1197 0 
C 1402 12 1747 12 1965 12 
C 2182 12 2528 12 2733 0 
L 2733 166 
L 2611 166 
C 2163 166 2150 230 2150 460 
L 2150 1088 
L 2803 1088 
L 2803 1254 
L 2150 1254 
L 2150 4147 
z
M 1798 3723 
L 1798 1254 
L 256 1254 
L 1798 3723 
z
" transform="scale(0.015625)"/>
       </defs>
       <use xlink:href="#CMR17-34" transform="scale(0.996264)"/>
       <use xlink:href="#CMR17-30" transform="translate(45.690477 0) scale(0.996264)"/>
       <use xlink:href="#CMR17-30" transform="translate(91.380954 0) scale(0.996264)"/>
       <use xlink:href="#CMR17-30" transform="translate(137.071431 0) scale(0.996264)"/>
      </g>
     </g>
    </g>
    <g id="xtick_4">
     <g id="line2d_10">
      <path d="M 503.648376 432.54 
L 503.648376 58.32 
" clip-path="url(#p5ea3a325df)" style="fill: none; stroke: #e6e6e6; stroke-width: 0.8; stroke-linecap: round"/>
     </g>
     <g id="line2d_11">
      <g>
       <use xlink:href="#mf2f5201500" x="503.648376" y="432.54" style="fill: #262626; stroke: #262626"/>
      </g>
     </g>
     <g id="line2d_12">
      <g>
       <use xlink:href="#m1e3705f9c1" x="503.648376" y="58.32" style="fill: #262626; stroke: #262626"/>
      </g>
     </g>
     <g id="text_4">
      <!-- $\mathdefault{6000}$ -->
      <g style="fill: #262626" transform="translate(490.771828 445.172395) scale(0.132 -0.132)">
       <defs>
        <path id="CMR17-36" d="M 678 2198 
C 678 3712 1395 4076 1811 4076 
C 1946 4076 2272 4049 2400 3782 
C 2298 3782 2106 3782 2106 3558 
C 2106 3385 2246 3328 2336 3328 
C 2394 3328 2566 3353 2566 3571 
C 2566 3987 2246 4224 1805 4224 
C 1043 4224 243 3411 243 2011 
C 243 257 966 -128 1478 -128 
C 2099 -128 2688 431 2688 1295 
C 2688 2101 2170 2688 1517 2688 
C 1126 2688 838 2430 678 1979 
L 678 2198 
z
M 1478 25 
C 691 25 691 1212 691 1450 
C 691 1914 909 2585 1504 2585 
C 1613 2585 1926 2585 2138 2140 
C 2253 1889 2253 1624 2253 1302 
C 2253 954 2253 696 2118 438 
C 1978 173 1773 25 1478 25 
z
" transform="scale(0.015625)"/>
       </defs>
       <use xlink:href="#CMR17-36" transform="scale(0.996264)"/>
       <use xlink:href="#CMR17-30" transform="translate(45.690477 0) scale(0.996264)"/>
       <use xlink:href="#CMR17-30" transform="translate(91.380954 0) scale(0.996264)"/>
       <use xlink:href="#CMR17-30" transform="translate(137.071431 0) scale(0.996264)"/>
      </g>
     </g>
    </g>
    <g id="xtick_5">
     <g id="line2d_13">
      <path d="M 625.406006 432.54 
L 625.406006 58.32 
" clip-path="url(#p5ea3a325df)" style="fill: none; stroke: #e6e6e6; stroke-width: 0.8; stroke-linecap: round"/>
     </g>
     <g id="line2d_14">
      <g>
       <use xlink:href="#mf2f5201500" x="625.406006" y="432.54" style="fill: #262626; stroke: #262626"/>
      </g>
     </g>
     <g id="line2d_15">
      <g>
       <use xlink:href="#m1e3705f9c1" x="625.406006" y="58.32" style="fill: #262626; stroke: #262626"/>
      </g>
     </g>
     <g id="text_5">
      <!-- $\mathdefault{8000}$ -->
      <g style="fill: #262626" transform="translate(612.529458 445.172395) scale(0.132 -0.132)">
       <defs>
        <path id="CMR17-38" d="M 1741 2289 
C 2144 2494 2554 2803 2554 3298 
C 2554 3884 1990 4224 1472 4224 
C 890 4224 378 3800 378 3215 
C 378 3054 416 2777 666 2533 
C 730 2469 998 2276 1171 2154 
C 883 2006 211 1652 211 945 
C 211 282 838 -128 1459 -128 
C 2144 -128 2720 366 2720 1022 
C 2720 1607 2330 1877 2074 2051 
L 1741 2289 
z
M 902 2855 
C 851 2887 595 3086 595 3388 
C 595 3781 998 4076 1459 4076 
C 1965 4076 2336 3716 2336 3298 
C 2336 2700 1670 2359 1638 2359 
C 1632 2359 1626 2359 1574 2398 
L 902 2855 
z
M 2080 1536 
C 2176 1466 2483 1253 2483 861 
C 2483 385 2010 25 1472 25 
C 890 25 448 443 448 951 
C 448 1459 838 1884 1280 2083 
L 2080 1536 
z
" transform="scale(0.015625)"/>
       </defs>
       <use xlink:href="#CMR17-38" transform="scale(0.996264)"/>
       <use xlink:href="#CMR17-30" transform="translate(45.690477 0) scale(0.996264)"/>
       <use xlink:href="#CMR17-30" transform="translate(91.380954 0) scale(0.996264)"/>
       <use xlink:href="#CMR17-30" transform="translate(137.071431 0) scale(0.996264)"/>
      </g>
     </g>
    </g>
    <g id="xtick_6">
     <g id="line2d_16">
      <path d="M 747.163636 432.54 
L 747.163636 58.32 
" clip-path="url(#p5ea3a325df)" style="fill: none; stroke: #e6e6e6; stroke-width: 0.8; stroke-linecap: round"/>
     </g>
     <g id="line2d_17">
      <g>
       <use xlink:href="#mf2f5201500" x="747.163636" y="432.54" style="fill: #262626; stroke: #262626"/>
      </g>
     </g>
     <g id="line2d_18">
      <g>
       <use xlink:href="#m1e3705f9c1" x="747.163636" y="58.32" style="fill: #262626; stroke: #262626"/>
      </g>
     </g>
     <g id="text_6">
      <!-- $\mathdefault{10000}$ -->
      <g style="fill: #262626" transform="translate(731.067951 445.172395) scale(0.132 -0.132)">
       <defs>
        <path id="CMR17-31" d="M 1702 4083 
C 1702 4217 1696 4224 1606 4224 
C 1357 3927 979 3833 621 3820 
C 602 3820 570 3820 563 3808 
C 557 3795 557 3782 557 3648 
C 755 3648 1088 3686 1344 3839 
L 1344 467 
C 1344 243 1331 166 781 166 
L 589 166 
L 589 0 
C 896 6 1216 12 1523 12 
C 1830 12 2150 6 2458 0 
L 2458 166 
L 2266 166 
C 1715 166 1702 236 1702 467 
L 1702 4083 
z
" transform="scale(0.015625)"/>
       </defs>
       <use xlink:href="#CMR17-31" transform="scale(0.996264)"/>
       <use xlink:href="#CMR17-30" transform="translate(45.690477 0) scale(0.996264)"/>
       <use xlink:href="#CMR17-30" transform="translate(91.380954 0) scale(0.996264)"/>
       <use xlink:href="#CMR17-30" transform="translate(137.071431 0) scale(0.996264)"/>
       <use xlink:href="#CMR17-30" transform="translate(182.761908 0) scale(0.996264)"/>
      </g>
     </g>
    </g>
    <g id="text_7">
     <!-- $s$ -->
     <g style="fill: #262626" transform="translate(439.491598 461.692081) scale(0.144 -0.144)">
      <defs>
       <path id="CMMI12-73" d="M 1459 1290 
C 1568 1271 1741 1233 1779 1227 
C 1862 1201 2150 1099 2150 793 
C 2150 595 1971 64 1229 64 
C 1094 64 614 83 486 447 
C 742 414 870 614 870 755 
C 870 889 781 960 653 960 
C 512 960 326 851 326 563 
C 326 176 710 -64 1222 -64 
C 2195 -64 2483 665 2483 998 
C 2483 1093 2483 1271 2278 1475 
C 2118 1627 1965 1659 1619 1729 
C 1446 1767 1171 1824 1171 2111 
C 1171 2239 1286 2687 1894 2687 
C 2163 2687 2426 2589 2490 2368 
C 2208 2368 2195 2124 2195 2118 
C 2195 1983 2317 1945 2374 1945 
C 2464 1945 2643 2015 2643 2284 
C 2643 2546 2400 2816 1901 2816 
C 1062 2816 838 2169 838 1907 
C 838 1424 1312 1322 1459 1290 
z
" transform="scale(0.015625)"/>
      </defs>
      <use xlink:href="#CMMI12-73" transform="scale(0.996264)"/>
     </g>
    </g>
   </g>
   <g id="matplotlib.axis_2">
    <g id="ytick_1">
     <g id="line2d_19">
      <path d="M 108 415.530086 
L 777.6 415.530086 
" clip-path="url(#p5ea3a325df)" style="fill: none; stroke: #e6e6e6; stroke-width: 0.8; stroke-linecap: round"/>
     </g>
     <g id="line2d_20">
      <defs>
       <path id="me0eb61b17d" d="M 0 0 
L 4.8 0 
" style="stroke: #262626"/>
      </defs>
      <g>
       <use xlink:href="#me0eb61b17d" x="108" y="415.530086" style="fill: #262626; stroke: #262626"/>
      </g>
     </g>
     <g id="line2d_21">
      <defs>
       <path id="m404deab203" d="M 0 0 
L -4.8 0 
" style="stroke: #262626"/>
      </defs>
      <g>
       <use xlink:href="#m404deab203" x="777.6" y="415.530086" style="fill: #262626; stroke: #262626"/>
      </g>
     </g>
     <g id="text_8">
      <!-- $\mathdefault{0.0}$ -->
      <g style="fill: #262626" transform="translate(88.04664 420.096283) scale(0.132 -0.132)">
       <defs>
        <path id="CMMI12-3a" d="M 1178 307 
C 1178 492 1024 620 870 620 
C 685 620 557 467 557 313 
C 557 128 710 0 864 0 
C 1050 0 1178 153 1178 307 
z
" transform="scale(0.015625)"/>
       </defs>
       <use xlink:href="#CMR17-30" transform="scale(0.996264)"/>
       <use xlink:href="#CMMI12-3a" transform="translate(45.690477 0) scale(0.996264)"/>
       <use xlink:href="#CMR17-30" transform="translate(72.787654 0) scale(0.996264)"/>
      </g>
     </g>
    </g>
    <g id="ytick_2">
     <g id="line2d_22">
      <path d="M 108 366.374801 
L 777.6 366.374801 
" clip-path="url(#p5ea3a325df)" style="fill: none; stroke: #e6e6e6; stroke-width: 0.8; stroke-linecap: round"/>
     </g>
     <g id="line2d_23">
      <g>
       <use xlink:href="#me0eb61b17d" x="108" y="366.374801" style="fill: #262626; stroke: #262626"/>
      </g>
     </g>
     <g id="line2d_24">
      <g>
       <use xlink:href="#m404deab203" x="777.6" y="366.374801" style="fill: #262626; stroke: #262626"/>
      </g>
     </g>
     <g id="text_9">
      <!-- $\mathdefault{0.5}$ -->
      <g style="fill: #262626" transform="translate(88.04664 370.940998) scale(0.132 -0.132)">
       <defs>
        <path id="CMR17-35" d="M 730 3750 
C 794 3724 1056 3641 1325 3641 
C 1920 3641 2246 3961 2432 4140 
C 2432 4191 2432 4224 2394 4224 
C 2387 4224 2374 4224 2323 4198 
C 2099 4102 1837 4032 1517 4032 
C 1325 4032 1037 4055 723 4191 
C 653 4224 640 4224 634 4224 
C 602 4224 595 4217 595 4090 
L 595 2231 
C 595 2113 595 2080 659 2080 
C 691 2080 704 2093 736 2139 
C 941 2435 1222 2560 1542 2560 
C 1766 2560 2246 2415 2246 1293 
C 2246 1087 2246 716 2054 422 
C 1894 159 1645 25 1370 25 
C 947 25 518 319 403 812 
C 429 806 480 793 506 793 
C 589 793 749 838 749 1036 
C 749 1209 627 1280 506 1280 
C 358 1280 262 1190 262 1011 
C 262 454 704 -128 1382 -128 
C 2042 -128 2669 441 2669 1267 
C 2669 2054 2170 2662 1549 2662 
C 1222 2662 947 2540 730 2304 
L 730 3750 
z
" transform="scale(0.015625)"/>
       </defs>
       <use xlink:href="#CMR17-30" transform="scale(0.996264)"/>
       <use xlink:href="#CMMI12-3a" transform="translate(45.690477 0) scale(0.996264)"/>
       <use xlink:href="#CMR17-35" transform="translate(72.787654 0) scale(0.996264)"/>
      </g>
     </g>
    </g>
    <g id="ytick_3">
     <g id="line2d_25">
      <path d="M 108 317.219516 
L 777.6 317.219516 
" clip-path="url(#p5ea3a325df)" style="fill: none; stroke: #e6e6e6; stroke-width: 0.8; stroke-linecap: round"/>
     </g>
     <g id="line2d_26">
      <g>
       <use xlink:href="#me0eb61b17d" x="108" y="317.219516" style="fill: #262626; stroke: #262626"/>
      </g>
     </g>
     <g id="line2d_27">
      <g>
       <use xlink:href="#m404deab203" x="777.6" y="317.219516" style="fill: #262626; stroke: #262626"/>
      </g>
     </g>
     <g id="text_10">
      <!-- $\mathdefault{1.0}$ -->
      <g style="fill: #262626" transform="translate(88.04664 321.785714) scale(0.132 -0.132)">
       <use xlink:href="#CMR17-31" transform="scale(0.996264)"/>
       <use xlink:href="#CMMI12-3a" transform="translate(45.690477 0) scale(0.996264)"/>
       <use xlink:href="#CMR17-30" transform="translate(72.787654 0) scale(0.996264)"/>
      </g>
     </g>
    </g>
    <g id="ytick_4">
     <g id="line2d_28">
      <path d="M 108 268.064232 
L 777.6 268.064232 
" clip-path="url(#p5ea3a325df)" style="fill: none; stroke: #e6e6e6; stroke-width: 0.8; stroke-linecap: round"/>
     </g>
     <g id="line2d_29">
      <g>
       <use xlink:href="#me0eb61b17d" x="108" y="268.064232" style="fill: #262626; stroke: #262626"/>
      </g>
     </g>
     <g id="line2d_30">
      <g>
       <use xlink:href="#m404deab203" x="777.6" y="268.064232" style="fill: #262626; stroke: #262626"/>
      </g>
     </g>
     <g id="text_11">
      <!-- $\mathdefault{1.5}$ -->
      <g style="fill: #262626" transform="translate(88.04664 272.630429) scale(0.132 -0.132)">
       <use xlink:href="#CMR17-31" transform="scale(0.996264)"/>
       <use xlink:href="#CMMI12-3a" transform="translate(45.690477 0) scale(0.996264)"/>
       <use xlink:href="#CMR17-35" transform="translate(72.787654 0) scale(0.996264)"/>
      </g>
     </g>
    </g>
    <g id="ytick_5">
     <g id="line2d_31">
      <path d="M 108 218.908947 
L 777.6 218.908947 
" clip-path="url(#p5ea3a325df)" style="fill: none; stroke: #e6e6e6; stroke-width: 0.8; stroke-linecap: round"/>
     </g>
     <g id="line2d_32">
      <g>
       <use xlink:href="#me0eb61b17d" x="108" y="218.908947" style="fill: #262626; stroke: #262626"/>
      </g>
     </g>
     <g id="line2d_33">
      <g>
       <use xlink:href="#m404deab203" x="777.6" y="218.908947" style="fill: #262626; stroke: #262626"/>
      </g>
     </g>
     <g id="text_12">
      <!-- $\mathdefault{2.0}$ -->
      <g style="fill: #262626" transform="translate(88.04664 223.475144) scale(0.132 -0.132)">
       <use xlink:href="#CMR17-32" transform="scale(0.996264)"/>
       <use xlink:href="#CMMI12-3a" transform="translate(45.690477 0) scale(0.996264)"/>
       <use xlink:href="#CMR17-30" transform="translate(72.787654 0) scale(0.996264)"/>
      </g>
     </g>
    </g>
    <g id="ytick_6">
     <g id="line2d_34">
      <path d="M 108 169.753662 
L 777.6 169.753662 
" clip-path="url(#p5ea3a325df)" style="fill: none; stroke: #e6e6e6; stroke-width: 0.8; stroke-linecap: round"/>
     </g>
     <g id="line2d_35">
      <g>
       <use xlink:href="#me0eb61b17d" x="108" y="169.753662" style="fill: #262626; stroke: #262626"/>
      </g>
     </g>
     <g id="line2d_36">
      <g>
       <use xlink:href="#m404deab203" x="777.6" y="169.753662" style="fill: #262626; stroke: #262626"/>
      </g>
     </g>
     <g id="text_13">
      <!-- $\mathdefault{2.5}$ -->
      <g style="fill: #262626" transform="translate(88.04664 174.31986) scale(0.132 -0.132)">
       <use xlink:href="#CMR17-32" transform="scale(0.996264)"/>
       <use xlink:href="#CMMI12-3a" transform="translate(45.690477 0) scale(0.996264)"/>
       <use xlink:href="#CMR17-35" transform="translate(72.787654 0) scale(0.996264)"/>
      </g>
     </g>
    </g>
    <g id="ytick_7">
     <g id="line2d_37">
      <path d="M 108 120.598378 
L 777.6 120.598378 
" clip-path="url(#p5ea3a325df)" style="fill: none; stroke: #e6e6e6; stroke-width: 0.8; stroke-linecap: round"/>
     </g>
     <g id="line2d_38">
      <g>
       <use xlink:href="#me0eb61b17d" x="108" y="120.598378" style="fill: #262626; stroke: #262626"/>
      </g>
     </g>
     <g id="line2d_39">
      <g>
       <use xlink:href="#m404deab203" x="777.6" y="120.598378" style="fill: #262626; stroke: #262626"/>
      </g>
     </g>
     <g id="text_14">
      <!-- $\mathdefault{3.0}$ -->
      <g style="fill: #262626" transform="translate(88.04664 125.164575) scale(0.132 -0.132)">
       <defs>
        <path id="CMR17-33" d="M 1414 2176 
C 1984 2176 2234 1673 2234 1094 
C 2234 322 1824 25 1453 25 
C 1114 25 563 193 390 691 
C 422 678 454 678 486 678 
C 640 678 755 780 755 947 
C 755 1132 614 1216 486 1216 
C 378 1216 211 1164 211 927 
C 211 335 787 -128 1466 -128 
C 2176 -128 2720 432 2720 1087 
C 2720 1718 2208 2176 1600 2246 
C 2086 2347 2554 2776 2554 3353 
C 2554 3856 2048 4224 1472 4224 
C 890 4224 378 3862 378 3347 
C 378 3123 544 3084 627 3084 
C 762 3084 877 3167 877 3334 
C 877 3500 762 3584 627 3584 
C 602 3584 570 3584 544 3571 
C 730 3999 1235 4076 1459 4076 
C 1683 4076 2106 3966 2106 3347 
C 2106 3167 2080 2851 1862 2574 
C 1670 2329 1453 2316 1242 2297 
C 1210 2297 1062 2284 1037 2284 
C 992 2278 966 2272 966 2227 
C 966 2182 973 2176 1101 2176 
L 1414 2176 
z
" transform="scale(0.015625)"/>
       </defs>
       <use xlink:href="#CMR17-33" transform="scale(0.996264)"/>
       <use xlink:href="#CMMI12-3a" transform="translate(45.690477 0) scale(0.996264)"/>
       <use xlink:href="#CMR17-30" transform="translate(72.787654 0) scale(0.996264)"/>
      </g>
     </g>
    </g>
    <g id="ytick_8">
     <g id="line2d_40">
      <path d="M 108 71.443093 
L 777.6 71.443093 
" clip-path="url(#p5ea3a325df)" style="fill: none; stroke: #e6e6e6; stroke-width: 0.8; stroke-linecap: round"/>
     </g>
     <g id="line2d_41">
      <g>
       <use xlink:href="#me0eb61b17d" x="108" y="71.443093" style="fill: #262626; stroke: #262626"/>
      </g>
     </g>
     <g id="line2d_42">
      <g>
       <use xlink:href="#m404deab203" x="777.6" y="71.443093" style="fill: #262626; stroke: #262626"/>
      </g>
     </g>
     <g id="text_15">
      <!-- $\mathdefault{3.5}$ -->
      <g style="fill: #262626" transform="translate(88.04664 76.00929) scale(0.132 -0.132)">
       <use xlink:href="#CMR17-33" transform="scale(0.996264)"/>
       <use xlink:href="#CMMI12-3a" transform="translate(45.690477 0) scale(0.996264)"/>
       <use xlink:href="#CMR17-35" transform="translate(72.787654 0) scale(0.996264)"/>
      </g>
     </g>
    </g>
    <g id="text_16">
     <!-- $W^2 \left(j, [i_n]_s \right)$ -->
     <g style="fill: #262626" transform="translate(80.460083 280.621092) rotate(-90) scale(0.144 -0.144)">
      <defs>
       <path id="CMMI12-57" d="M 5779 3644 
C 5926 3892 6067 4127 6451 4166 
C 6509 4172 6566 4179 6566 4281 
C 6566 4352 6509 4352 6490 4352 
C 6477 4352 6432 4339 6010 4339 
C 5818 4339 5619 4352 5434 4352 
C 5395 4352 5318 4352 5318 4230 
C 5318 4172 5370 4166 5408 4166 
C 5536 4159 5741 4121 5741 3924 
C 5741 3841 5715 3797 5651 3689 
L 3904 648 
L 3674 3962 
C 3674 4038 3744 4159 4102 4166 
C 4186 4166 4250 4166 4250 4287 
C 4250 4352 4186 4352 4154 4352 
C 3930 4352 3693 4339 3462 4339 
L 3130 4339 
C 3034 4339 2918 4352 2822 4352 
C 2784 4352 2707 4352 2707 4230 
C 2707 4166 2752 4166 2861 4166 
C 3155 4166 3155 4159 3181 3771 
L 3200 3542 
L 1542 648 
L 1306 3930 
C 1306 4000 1306 4159 1741 4166 
C 1811 4166 1882 4166 1882 4281 
C 1882 4352 1824 4352 1786 4352 
C 1562 4352 1325 4339 1094 4339 
L 762 4339 
C 666 4339 550 4352 454 4352 
C 416 4352 339 4352 339 4230 
C 339 4166 390 4166 480 4166 
C 781 4166 787 4127 800 3924 
L 1082 19 
C 1088 -90 1094 -128 1171 -128 
C 1235 -128 1248 -103 1306 -7 
L 3213 3307 
L 3450 19 
C 3456 -90 3462 -128 3539 -128 
C 3603 -128 3622 -96 3674 -7 
L 5779 3644 
z
" transform="scale(0.015625)"/>
       <path id="CMR17-28" d="M 1958 -1562 
C 1958 -1556 1958 -1543 1939 -1524 
C 1645 -1223 858 -403 858 1596 
C 858 3595 1632 4408 1946 4729 
C 1946 4735 1958 4748 1958 4767 
C 1958 4787 1939 4800 1914 4800 
C 1843 4800 1299 4325 986 3620 
C 666 2909 576 2218 576 1603 
C 576 1141 621 360 1005 -467 
C 1312 -1133 1837 -1600 1914 -1600 
C 1946 -1600 1958 -1588 1958 -1562 
z
" transform="scale(0.015625)"/>
       <path id="CMMI12-6a" d="M 2240 2027 
C 2266 2129 2266 2218 2266 2243 
C 2266 2611 1990 2816 1702 2816 
C 1056 2816 710 1888 710 1843 
C 710 1811 736 1786 774 1786 
C 826 1786 832 1811 864 1875 
C 1120 2491 1440 2687 1683 2687 
C 1818 2687 1888 2617 1888 2395 
C 1888 2243 1869 2180 1843 2065 
L 1235 -327 
C 1114 -797 813 -1152 461 -1152 
C 435 -1152 301 -1152 179 -1089 
C 333 -1057 454 -937 454 -784 
C 454 -683 378 -581 237 -581 
C 70 -581 -83 -721 -83 -911 
C -83 -1172 198 -1280 461 -1280 
C 902 -1280 1485 -956 1645 -321 
L 2240 2027 
z
M 2502 4012 
C 2502 4172 2368 4224 2291 4224 
C 2118 4224 1971 4057 1971 3916 
C 1971 3820 2048 3705 2189 3705 
C 2336 3705 2502 3846 2502 4012 
z
" transform="scale(0.015625)"/>
       <path id="CMMI12-3b" d="M 1248 -26 
C 1248 345 1126 620 864 620 
C 659 620 557 454 557 313 
C 557 172 653 0 870 0 
C 954 0 1024 25 1082 83 
C 1094 96 1101 96 1107 96 
C 1120 96 1120 6 1120 -26 
C 1120 -233 1082 -642 710 -1051 
C 640 -1127 640 -1140 640 -1152 
C 640 -1184 672 -1216 704 -1216 
C 755 -1216 1248 -749 1248 -26 
z
" transform="scale(0.015625)"/>
       <path id="CMR17-5b" d="M 1504 -1600 
L 1504 -1376 
L 902 -1376 
L 902 4575 
L 1504 4575 
L 1504 4800 
L 678 4800 
L 678 -1600 
L 1504 -1600 
z
" transform="scale(0.015625)"/>
       <path id="CMMI12-69" d="M 1811 913 
C 1811 945 1786 970 1747 970 
C 1690 970 1683 951 1651 842 
C 1485 261 1222 64 1011 64 
C 934 64 845 83 845 274 
C 845 447 922 638 992 830 
L 1440 2017 
C 1459 2068 1504 2183 1504 2305 
C 1504 2573 1312 2816 998 2816 
C 410 2816 173 1890 173 1838 
C 173 1813 198 1781 243 1781 
C 301 1781 307 1807 333 1896 
C 486 2432 730 2687 979 2687 
C 1037 2687 1146 2681 1146 2477 
C 1146 2311 1062 2100 1011 1960 
L 563 772 
C 525 670 486 568 486 453 
C 486 166 685 -64 992 -64 
C 1581 -64 1811 868 1811 913 
z
M 1760 4012 
C 1760 4108 1683 4224 1542 4224 
C 1395 4224 1229 4083 1229 3916 
C 1229 3756 1363 3705 1440 3705 
C 1613 3705 1760 3871 1760 4012 
z
" transform="scale(0.015625)"/>
       <path id="CMMI12-6e" d="M 1318 1870 
C 1331 1909 1491 2228 1728 2432 
C 1894 2585 2112 2687 2362 2687 
C 2618 2687 2707 2496 2707 2241 
C 2707 1877 2445 1149 2317 804 
C 2259 651 2227 568 2227 453 
C 2227 166 2426 -64 2733 -64 
C 3328 -64 3552 874 3552 913 
C 3552 945 3526 970 3488 970 
C 3430 970 3424 951 3392 842 
C 3245 319 3002 64 2752 64 
C 2688 64 2586 70 2586 274 
C 2586 434 2656 625 2694 715 
C 2822 1066 3091 1781 3091 2145 
C 3091 2528 2867 2816 2381 2816 
C 1811 2816 1510 2413 1395 2253 
C 1376 2617 1114 2816 832 2816 
C 627 2816 486 2694 378 2477 
C 262 2247 173 1864 173 1838 
C 173 1813 198 1781 243 1781 
C 294 1781 301 1787 339 1934 
C 442 2324 557 2687 813 2687 
C 960 2687 1011 2585 1011 2394 
C 1011 2253 947 2004 902 1807 
L 723 1117 
C 698 996 627 708 595 593 
C 550 427 480 127 480 95 
C 480 6 550 -64 646 -64 
C 723 -64 813 -26 864 70 
C 877 102 934 325 966 453 
L 1107 1028 
L 1318 1870 
z
" transform="scale(0.015625)"/>
       <path id="CMR17-5d" d="M 915 4800 
L 90 4800 
L 90 4575 
L 691 4575 
L 691 -1376 
L 90 -1376 
L 90 -1600 
L 915 -1600 
L 915 4800 
z
" transform="scale(0.015625)"/>
       <path id="CMR17-29" d="M 1683 1596 
C 1683 2057 1638 2839 1254 3665 
C 947 4332 422 4800 346 4800 
C 326 4800 301 4793 301 4761 
C 301 4748 307 4742 314 4729 
C 621 4408 1402 3595 1402 1603 
C 1402 -396 627 -1210 314 -1530 
C 307 -1543 301 -1549 301 -1562 
C 301 -1594 326 -1600 346 -1600 
C 416 -1600 960 -1127 1274 -422 
C 1594 289 1683 981 1683 1596 
z
" transform="scale(0.015625)"/>
      </defs>
      <use xlink:href="#CMMI12-57" transform="scale(0.996264)"/>
      <use xlink:href="#CMR17-32" transform="translate(105.644498 36.153639) scale(0.697382)"/>
      <use xlink:href="#CMR17-28" transform="translate(154.730217 0.003177) scale(0.996264)"/>
      <use xlink:href="#CMMI12-6a" transform="translate(190.010985 0) scale(0.996264)"/>
      <use xlink:href="#CMMI12-3b" transform="translate(230.554032 0) scale(0.996264)"/>
      <use xlink:href="#CMR17-5b" transform="translate(274.255614 0) scale(0.996264)"/>
      <use xlink:href="#CMMI12-69" transform="translate(299.126673 0) scale(0.996264)"/>
      <use xlink:href="#CMMI12-6e" transform="translate(332.405275 -14.943915) scale(0.697382)"/>
      <use xlink:href="#CMR17-5d" transform="translate(373.66425 0) scale(0.996264)"/>
      <use xlink:href="#CMMI12-73" transform="translate(398.535308 -14.943915) scale(0.697382)"/>
      <use xlink:href="#CMR17-29" transform="translate(431.198329 0.003177) scale(0.996264)"/>
     </g>
    </g>
    <g id="text_17">
     <!-- $\times\mathdefault{10^{−13}}\mathdefault{}$ -->
     <g style="fill: #262626" transform="translate(108 55.32) scale(0.132 -0.132)">
      <defs>
       <path id="CMSY10-2" d="M 2490 1775 
L 1210 3046 
C 1133 3123 1120 3136 1069 3136 
C 1005 3136 941 3078 941 3008 
C 941 2963 954 2950 1024 2880 
L 2304 1596 
L 1024 313 
C 954 243 941 230 941 185 
C 941 115 1005 57 1069 57 
C 1120 57 1133 70 1210 147 
L 2483 1418 
L 3808 95 
C 3821 89 3866 57 3904 57 
C 3981 57 4032 115 4032 185 
C 4032 198 4032 223 4013 255 
C 4006 268 2989 1271 2669 1596 
L 3840 2765 
C 3872 2803 3968 2886 4000 2925 
C 4006 2937 4032 2963 4032 3008 
C 4032 3078 3981 3136 3904 3136 
C 3853 3136 3827 3110 3757 3040 
L 2490 1775 
z
" transform="scale(0.015625)"/>
       <path id="CMSY10-0" d="M 4218 1472 
C 4326 1472 4442 1472 4442 1600 
C 4442 1728 4326 1728 4218 1728 
L 755 1728 
C 646 1728 531 1728 531 1600 
C 531 1472 646 1472 755 1472 
L 4218 1472 
z
" transform="scale(0.015625)"/>
      </defs>
      <use xlink:href="#CMSY10-2" transform="scale(0.996264)"/>
      <use xlink:href="#CMR17-31" transform="translate(77.487468 0) scale(0.996264)"/>
      <use xlink:href="#CMR17-30" transform="translate(123.177945 0) scale(0.996264)"/>
      <use xlink:href="#CMSY10-0" transform="translate(168.868422 36.153639) scale(0.697382)"/>
      <use xlink:href="#CMR17-31" transform="translate(223.109415 36.153639) scale(0.697382)"/>
      <use xlink:href="#CMR17-33" transform="translate(255.092597 36.153639) scale(0.697382)"/>
     </g>
    </g>
   </g>
   <g id="line2d_43">
    <path d="M 138.436364 415.463237 
L 139.288667 415.451003 
L 139.471303 415.331738 
L 139.593061 415.452833 
L 139.775698 415.358233 
L 139.836576 415.358233 
L 139.958334 414.672158 
L 141.115032 414.672158 
L 141.236789 415.416179 
L 143.732821 415.517482 
L 144.28073 415.510056 
L 146.472367 415.50966 
L 146.594125 414.89246 
L 146.776761 414.89246 
L 146.898519 415.454427 
L 148.603126 415.393344 
L 148.785762 415.324168 
L 148.90752 415.324168 
L 149.090156 415.45889 
L 153.960462 415.469664 
L 154.02134 415.187978 
L 154.082219 415.320446 
L 154.934523 415.377668 
L 155.117159 415.47395 
L 155.421553 415.451413 
L 155.543311 414.429284 
L 155.725947 414.429284 
L 155.908584 413.52412 
L 156.030341 413.52412 
L 156.152099 412.895527 
L 156.212978 412.895527 
L 156.334735 414.22917 
L 156.456493 414.22917 
L 156.578251 414.749539 
L 157.004402 414.749539 
L 157.065281 414.22917 
L 157.12616 412.69148 
L 157.187039 412.863019 
L 158.891646 412.863019 
L 159.013403 415.351628 
L 159.074282 415.29137 
L 159.135161 415.377356 
L 159.987464 415.300954 
L 160.352737 415.195844 
L 160.535374 415.195844 
L 160.596252 414.553515 
L 160.657131 414.569862 
L 160.839768 415.230988 
L 161.631192 415.230988 
L 161.75295 415.371608 
L 162.118223 415.371608 
L 162.23998 414.182584 
L 162.483496 414.182584 
L 162.727011 408.030101 
L 162.909647 408.030101 
L 163.031405 410.918253 
L 163.761951 410.918253 
L 163.883708 391.603078 
L 164.005466 398.975358 
L 164.30986 398.975358 
L 164.431618 413.788778 
L 165.3448 413.788778 
L 165.405679 413.569977 
L 165.527436 415.426207 
L 165.649194 414.410161 
L 165.710073 414.410161 
L 165.83183 410.610438 
L 166.014467 410.610438 
L 166.136225 411.829633 
L 166.440619 411.829633 
L 166.562376 415.271343 
L 166.745013 415.271343 
L 166.86677 415.432066 
L 167.475558 415.468564 
L 167.536437 415.052691 
L 167.597316 415.21 
L 167.962589 415.288947 
L 168.084347 415.09362 
L 168.206104 415.09362 
L 168.327862 415.37896 
L 168.875771 415.515042 
L 173.259046 415.528458 
L 173.319925 415.368192 
L 173.380804 415.514224 
L 173.867834 415.430148 
L 173.928713 415.430148 
L 174.050471 415.277753 
L 174.537501 415.375318 
L 174.720137 415.516244 
L 174.841895 415.457016 
L 175.024532 415.51701 
L 178.007593 415.517813 
L 178.129351 415.346906 
L 179.529564 415.346906 
L 179.651321 414.144753 
L 179.7122 414.144753 
L 179.833958 414.774036 
L 179.894837 414.774036 
L 180.016594 415.325725 
L 180.381867 415.416484 
L 180.503625 414.040329 
L 180.625383 415.30658 
L 180.74714 415.478509 
L 181.538565 415.467337 
L 181.660322 415.027857 
L 181.964716 415.027857 
L 182.086474 414.604852 
L 183.121414 414.604852 
L 183.243172 415.085972 
L 183.364929 411.548209 
L 183.973717 411.548209 
L 184.095475 414.95394 
L 184.156354 414.95394 
L 184.33899 415.497824 
L 184.521627 415.36923 
L 185.982718 415.296953 
L 186.104476 415.065533 
L 186.652385 415.065533 
L 186.774143 415.505946 
L 186.8959 415.458212 
L 187.017658 414.890801 
L 188.235234 414.890801 
L 188.356992 415.399218 
L 188.539629 415.307268 
L 188.722265 415.424512 
L 188.904901 415.502706 
L 189.026659 415.512995 
L 189.148417 415.229659 
L 189.452811 415.229659 
L 189.574568 415.375044 
L 190.670387 415.375044 
L 190.792145 409.735901 
L 191.766206 409.735901 
L 191.887963 413.338538 
L 191.948842 413.338538 
L 192.0706 415.479231 
L 192.192357 414.770444 
L 193.470813 414.770444 
L 193.59257 413.979694 
L 193.836085 413.979694 
L 193.957843 414.754793 
L 195.236298 414.754793 
L 195.358056 414.2176 
L 195.784208 414.2176 
L 195.905965 415.164787 
L 196.088602 415.164787 
L 196.210359 415.329084 
L 196.514753 415.329084 
L 196.575632 415.469434 
L 196.636511 415.392287 
L 197.18442 415.331414 
L 197.549693 415.331414 
L 197.671451 415.219962 
L 197.793208 415.403937 
L 198.828148 415.479124 
L 199.010785 415.524399 
L 200.654513 415.528698 
L 200.837149 414.790575 
L 201.080664 414.790575 
L 201.202422 415.042687 
L 201.32418 415.042687 
L 201.506816 415.305586 
L 201.689453 415.210224 
L 202.054725 415.210224 
L 202.176483 414.265836 
L 202.35912 415.142232 
L 202.419998 415.142232 
L 202.541756 415.517435 
L 202.602635 415.413077 
L 202.785271 415.341626 
L 203.515817 415.389451 
L 203.698453 415.486123 
L 204.611636 415.481761 
L 204.733393 415.065785 
L 204.855151 415.422471 
L 205.037787 415.31608 
L 205.585697 415.31608 
L 205.707454 415.048818 
L 206.498879 415.048818 
L 206.559758 415.356474 
L 206.620637 415.197368 
L 207.168546 415.265618 
L 207.290304 414.957988 
L 207.412061 414.957988 
L 207.533819 415.101263 
L 207.655576 414.941839 
L 208.203486 414.941839 
L 208.325243 414.470879 
L 208.568759 414.470879 
L 208.629638 415.232861 
L 208.690516 414.888824 
L 208.812274 414.888824 
L 208.873153 414.072688 
L 209.055789 415.276567 
L 209.238426 415.276567 
L 209.360183 415.443149 
L 209.664577 415.443149 
L 209.725456 415.253766 
L 209.786335 415.370808 
L 209.847214 415.370808 
L 209.968971 415.054323 
L 210.090729 415.054323 
L 210.212487 414.766855 
L 210.334244 414.766855 
L 210.456002 415.152161 
L 210.760396 415.152161 
L 210.882154 415.291732 
L 211.003911 415.291732 
L 211.186548 415.502506 
L 211.247427 415.502506 
L 211.369184 415.09511 
L 211.612699 415.09511 
L 211.673578 414.569561 
L 211.734457 414.644211 
L 211.795336 414.644211 
L 211.977972 415.241744 
L 212.160609 415.241744 
L 212.221488 414.771029 
L 212.404124 415.384778 
L 212.769397 415.384778 
L 212.891155 415.502659 
L 213.073791 415.414849 
L 213.256427 415.514374 
L 214.595761 415.502238 
L 214.778398 415.216007 
L 214.839277 415.216007 
L 214.961034 414.148272 
L 215.813338 414.148272 
L 215.935095 414.349495 
L 216.300368 414.349495 
L 216.422126 415.257213 
L 216.543883 414.643561 
L 217.030914 414.643561 
L 217.152672 414.440093 
L 218.187611 414.440093 
L 218.309369 413.845953 
L 219.770461 413.845953 
L 220.013976 415.405179 
L 220.257491 415.023296 
L 220.379249 415.363787 
L 220.440128 415.363787 
L 220.561885 415.206682 
L 220.622764 415.206682 
L 220.744522 415.039696 
L 221.535946 415.076697 
L 221.657704 414.304569 
L 222.38825 414.304569 
L 222.570886 415.404562 
L 223.118796 415.335789 
L 223.301432 415.226807 
L 223.788462 415.226807 
L 223.91022 415.404988 
L 224.275493 415.404988 
L 224.397251 415.115907 
L 224.519008 413.830815 
L 224.823402 413.830815 
L 224.94516 413.585364 
L 225.310433 413.585364 
L 225.43219 414.632171 
L 226.284494 414.632171 
L 226.406252 414.770936 
L 226.528009 414.770936 
L 226.588888 414.395106 
L 226.710646 414.946653 
L 226.893282 415.043816 
L 227.075919 415.385911 
L 229.084919 415.47075 
L 229.267556 415.525646 
L 230.302496 415.438651 
L 230.60689 415.032074 
L 231.154799 415.032074 
L 231.337436 415.361998 
L 231.398314 415.361998 
L 231.520072 415.509896 
L 232.067981 415.50517 
L 232.12886 415.331453 
L 232.250618 414.68407 
L 232.311497 414.68407 
L 232.433254 414.119857 
L 232.494133 414.119857 
L 232.615891 413.818285 
L 233.102921 413.818285 
L 233.1638 415.214374 
L 233.224679 414.719109 
L 233.346436 414.899779 
L 233.468194 414.881769 
L 233.589952 414.741563 
L 234.381376 414.741563 
L 234.503134 414.881769 
L 234.624892 414.881769 
L 234.68577 415.002047 
L 234.807528 413.986549 
L 235.477195 413.986549 
L 235.598953 412.405837 
L 235.659831 412.405837 
L 235.781589 413.986549 
L 236.633892 413.986549 
L 236.75565 415.285737 
L 236.816529 415.285737 
L 236.877408 415.446229 
L 236.999165 414.195582 
L 237.668832 414.195582 
L 237.79059 413.986549 
L 237.851469 413.986549 
L 237.973226 414.195582 
L 238.582015 414.195582 
L 238.703772 413.382127 
L 240.164864 413.441795 
L 240.286621 415.216843 
L 240.408379 415.216843 
L 240.469258 414.191124 
L 240.530137 414.770002 
L 240.956288 414.770002 
L 241.078046 415.198211 
L 241.138925 415.198211 
L 241.260682 414.741563 
L 241.38244 415.110656 
L 241.747713 415.110656 
L 241.808592 414.9103 
L 241.930349 415.279743 
L 242.295622 415.241579 
L 242.41738 414.757221 
L 242.478259 414.757221 
L 242.539138 415.459645 
L 242.600016 415.30256 
L 242.782653 415.30256 
L 242.90441 415.514934 
L 244.000229 415.452388 
L 244.121987 415.276077 
L 244.182866 415.437016 
L 244.365502 414.689305 
L 244.548138 414.689305 
L 244.669896 412.443266 
L 245.096048 412.443266 
L 245.217805 412.781563 
L 245.278684 415.502158 
L 245.339563 415.494646 
L 245.948351 415.503678 
L 246.070109 415.259661 
L 246.191866 415.508544 
L 247.713837 415.509486 
L 247.835594 415.362878 
L 248.748777 415.362878 
L 248.931413 415.490938 
L 248.992292 415.490938 
L 249.053171 415.326699 
L 249.11405 415.408892 
L 249.905474 415.518015 
L 250.879535 415.526467 
L 251.001293 415.236277 
L 251.244808 415.236277 
L 251.366566 414.639139 
L 251.549202 414.639139 
L 251.67096 413.80435 
L 252.340627 413.80435 
L 252.462384 411.698598 
L 252.949415 411.698598 
L 253.071173 412.21525 
L 255.445446 412.21525 
L 255.567204 408.791063 
L 256.29775 408.791063 
L 256.419507 412.232126 
L 257.33269 412.232126 
L 257.393568 412.782478 
L 257.454447 412.431422 
L 257.637084 412.431422 
L 257.81972 415.223305 
L 257.880599 415.223305 
L 258.002357 415.410139 
L 258.124114 415.439743 
L 258.306751 415.525673 
L 259.098175 415.505577 
L 259.341691 415.505577 
L 259.402569 414.939475 
L 259.463448 415.091496 
L 259.524327 415.091496 
L 259.646085 415.460705 
L 259.8896 415.460705 
L 260.011357 411.889368 
L 260.133115 411.889368 
L 260.254873 410.47974 
L 260.92454 410.43811 
L 261.046297 410.262715 
L 261.289813 410.262715 
L 261.41157 391.153138 
L 262.081237 391.153138 
L 262.263874 414.799548 
L 262.507389 414.799548 
L 262.629147 414.68313 
L 262.690025 414.789205 
L 262.811783 414.477111 
L 263.420571 414.477111 
L 263.542329 415.334105 
L 263.603208 415.334105 
L 263.785844 415.216228 
L 263.846723 415.216228 
L 263.96848 415.040868 
L 264.211996 415.146411 
L 264.333753 414.68313 
L 264.577269 414.68313 
L 264.699026 404.035944 
L 265.186057 404.035944 
L 265.307814 407.306042 
L 265.733966 407.306042 
L 265.855724 401.589835 
L 266.03836 401.589835 
L 266.160118 396.233677 
L 269.63021 396.233677 
L 269.751968 337.936224 
L 272.856787 337.936224 
L 272.978545 356.407836 
L 273.100303 356.407836 
L 273.22206 370.040781 
L 275.109304 370.040781 
L 275.231061 359.098863 
L 275.657213 359.098863 
L 275.778971 342.256981 
L 275.839849 342.256981 
L 275.961607 189.955914 
L 277.483577 189.955914 
L 277.605335 374.471026 
L 277.970608 374.471026 
L 278.092366 321.417773 
L 279.005548 321.417773 
L 279.127305 390.058398 
L 279.249063 362.49628 
L 279.492578 362.49628 
L 279.614336 75.33 
L 279.736094 75.33 
L 279.857851 409.398421 
L 279.979609 414.741128 
L 280.466639 414.741128 
L 280.527518 415.492152 
L 280.588397 415.467982 
L 280.649276 415.467982 
L 280.771033 412.456363 
L 281.4407 412.456363 
L 281.562458 410.843331 
L 281.866852 410.843331 
L 281.98861 398.37241 
L 282.353883 398.37241 
L 282.47564 378.082667 
L 282.719156 378.082667 
L 283.084428 413.123615 
L 283.145307 413.123615 
L 283.206186 414.227581 
L 283.327944 411.087485 
L 284.180247 411.087485 
L 284.302005 403.820642 
L 285.823975 403.820642 
L 286.189248 415.08606 
L 286.311006 413.975349 
L 286.371884 413.975349 
L 286.493642 412.107141 
L 287.10243 412.107141 
L 287.224188 410.417826 
L 287.528582 410.417826 
L 287.65034 412.107141 
L 288.015612 412.107141 
L 288.13737 387.934322 
L 288.928795 387.934322 
L 289.050552 408.197729 
L 289.233189 408.197729 
L 289.354946 414.889251 
L 290.146371 414.889251 
L 290.268129 411.977975 
L 290.633402 411.977975 
L 290.755159 414.081592 
L 290.937796 414.081592 
L 291.059553 415.003986 
L 291.790099 415.003986 
L 291.911857 415.330751 
L 292.094493 415.330751 
L 292.216251 414.231465 
L 293.251191 414.231465 
L 293.372948 415.214737 
L 293.677342 415.16603 
L 293.738221 415.374498 
L 293.859979 414.738609 
L 294.28613 414.738609 
L 294.407888 415.374498 
L 294.83404 415.442077 
L 295.077555 415.512433 
L 295.747222 415.512433 
L 295.86898 415.309721 
L 296.173374 415.309721 
L 296.234253 414.958064 
L 296.35601 415.327622 
L 296.599525 415.327622 
L 296.721283 415.001322 
L 296.903919 415.417481 
L 297.817102 415.440716 
L 297.938859 415.137193 
L 298.365011 415.137193 
L 298.486769 415.35807 
L 299.94786 415.278722 
L 300.008739 415.233664 
L 300.191376 415.34254 
L 300.313133 415.34254 
L 300.434891 415.495844 
L 302.322134 415.387644 
L 302.443892 414.844168 
L 302.991801 414.844168 
L 303.113559 415.498374 
L 303.296195 415.498374 
L 303.357074 415.144159 
L 303.478832 412.614215 
L 303.661468 412.614215 
L 303.783226 412.981875 
L 304.270256 412.981875 
L 304.392014 396.479432 
L 304.57465 396.479432 
L 304.696408 408.741321 
L 304.818165 389.691223 
L 305.60959 389.691223 
L 305.731348 392.055816 
L 305.853105 392.055816 
L 305.974863 390.758344 
L 306.035742 390.758344 
L 306.157499 377.136206 
L 306.279257 377.136206 
L 306.401015 359.985215 
L 306.888045 359.985215 
L 307.009803 363.311483 
L 307.192439 363.311483 
L 307.314197 388.707579 
L 307.496833 388.707579 
L 307.618591 382.728365 
L 307.862106 382.728365 
L 307.983864 391.666838 
L 308.653531 391.666838 
L 308.836167 375.298189 
L 308.957925 382.636717 
L 309.018804 382.636717 
L 309.140561 379.25867 
L 309.627592 379.25867 
L 309.749349 375.298189 
L 309.931986 375.298189 
L 310.114622 362.342726 
L 310.419016 362.342726 
L 310.540774 409.810934 
L 311.027805 409.810934 
L 311.088683 409.547613 
L 311.210441 413.136264 
L 312.001866 413.136264 
L 312.123623 414.342986 
L 312.245381 414.342986 
L 312.367139 415.169657 
L 312.549775 415.075839 
L 312.854169 415.075839 
L 312.975927 415.408953 
L 313.280321 415.454143 
L 313.402078 415.270516 
L 313.767351 415.270516 
L 313.82823 415.087805 
L 313.889109 415.524396 
L 313.949988 415.48012 
L 314.619655 415.489886 
L 314.741412 415.351071 
L 315.776352 415.43378 
L 316.019867 414.169164 
L 316.080746 414.169164 
L 316.141625 415.450341 
L 316.202504 415.431107 
L 316.567777 415.395922 
L 316.689534 415.246486 
L 316.872171 415.246486 
L 316.993928 414.573177 
L 317.054807 414.573177 
L 317.176565 410.63214 
L 317.298323 410.63214 
L 317.42008 410.375543 
L 317.480959 410.375543 
L 317.541838 411.471574 
L 317.602717 409.392239 
L 317.724474 414.377804 
L 317.907111 414.377804 
L 317.96799 414.894466 
L 318.089747 406.807749 
L 318.45502 406.807749 
L 318.576778 409.076154 
L 319.672596 409.076154 
L 319.794354 411.389069 
L 319.97699 411.389069 
L 320.037869 413.115933 
L 320.098748 412.748989 
L 321.194567 412.748989 
L 321.316324 413.189723 
L 321.55984 413.189723 
L 321.681597 415.345769 
L 322.107749 415.395628 
L 322.229507 415.130839 
L 322.533901 415.104223 
L 322.655658 412.440677 
L 322.838295 412.440677 
L 322.960052 411.93687 
L 323.386204 411.93687 
L 323.507962 413.302885 
L 323.629719 413.302885 
L 323.751477 413.154412 
L 324.11675 413.154412 
L 324.238507 412.723403 
L 325.090811 412.723403 
L 325.212569 415.261848 
L 325.882235 415.261848 
L 326.003993 414.980733 
L 326.491024 414.980733 
L 326.551902 415.452833 
L 326.612781 415.117407 
L 327.465085 415.117407 
L 327.586842 414.943315 
L 329.413207 414.943315 
L 329.534964 412.037398 
L 329.656722 412.037398 
L 329.77848 414.943315 
L 329.900237 414.943315 
L 330.082874 415.431507 
L 330.691662 415.431507 
L 330.81342 412.585899 
L 331.178692 412.585899 
L 331.30045 414.780451 
L 331.483086 414.780451 
L 331.604844 415.217975 
L 332.091875 415.273587 
L 332.213632 412.501776 
L 332.518026 412.501776 
L 332.639784 414.508032 
L 332.761542 414.508032 
L 332.82242 415.376778 
L 332.883299 415.2323 
L 333.005057 415.2323 
L 333.126814 414.641299 
L 333.187693 414.641299 
L 333.37033 414.766477 
L 333.552966 414.798964 
L 333.674724 414.953264 
L 334.039997 414.953264 
L 334.161754 415.229659 
L 334.222633 415.229659 
L 334.344391 415.41882 
L 334.466148 414.432157 
L 334.587906 414.432157 
L 334.709664 415.499304 
L 334.8923 415.385108 
L 335.014058 414.068119 
L 335.196694 414.068119 
L 335.379331 415.015305 
L 335.561967 415.065844 
L 335.744604 415.157995 
L 335.92724 413.806911 
L 336.048998 412.985567 
L 336.170755 413.599374 
L 336.414271 413.599374 
L 336.536028 412.985567 
L 336.96218 412.985567 
L 337.205695 415.274621 
L 337.327453 415.483254 
L 337.44921 415.059521 
L 340.188757 415.138285 
L 340.310515 415.296869 
L 340.432272 415.296869 
L 340.55403 415.15984 
L 340.614909 415.15984 
L 340.736666 415.507311 
L 340.980182 415.470713 
L 341.101939 414.986144 
L 341.58897 414.986144 
L 341.710727 415.438363 
L 342.441273 415.403564 
L 342.806546 412.010262 
L 344.754668 412.010262 
L 344.815547 411.74244 
L 344.937305 412.995231 
L 345.911366 412.995231 
L 346.033123 412.053716 
L 347.068063 412.053716 
L 347.372457 415.077431 
L 347.615973 415.077431 
L 347.73773 412.995231 
L 349.868489 413.060894 
L 349.990246 415.064878 
L 350.477277 415.064878 
L 350.599034 415.336526 
L 350.781671 415.336526 
L 350.903429 415.459768 
L 351.025186 413.721746 
L 351.146944 413.919385 
L 352.425399 413.919385 
L 352.547157 413.060894 
L 352.608035 413.060894 
L 352.729793 414.256915 
L 353.825612 414.256915 
L 354.008248 414.655319 
L 355.347582 414.655319 
L 355.46934 414.768125 
L 355.591097 414.036438 
L 357.721856 414.036438 
L 357.843613 413.555068 
L 358.574159 413.555068 
L 358.695917 415.490321 
L 360.157008 415.474897 
L 360.278766 415.04462 
L 360.644039 415.04462 
L 360.765797 415.262834 
L 361.131069 415.262834 
L 361.313706 415.141587 
L 362.348646 415.141587 
L 362.470403 415.360952 
L 363.748859 415.468283 
L 363.931495 415.520783 
L 364.053253 415.372854 
L 364.418525 415.420916 
L 364.601162 415.513009 
L 364.966435 415.400271 
L 365.575223 415.37998 
L 365.696981 415.014976 
L 365.818738 415.228125 
L 365.940496 415.087325 
L 366.305769 415.14068 
L 366.427526 415.303334 
L 367.523345 415.303334 
L 367.76686 404.100908 
L 367.888618 401.4191 
L 368.497406 401.4191 
L 368.558285 410.324749 
L 368.619164 404.100908 
L 372.211014 404.100908 
L 372.271893 410.924351 
L 372.332771 405.410066 
L 373.672105 405.410066 
L 373.793863 414.376087 
L 374.159136 414.376087 
L 374.280894 415.430859 
L 374.524409 415.445288 
L 374.828803 414.613674 
L 375.437591 414.613674 
L 375.559349 415.483905 
L 375.741985 415.519718 
L 375.924622 414.908165 
L 376.53341 414.988814 
L 376.655167 415.291576 
L 376.959561 415.307401 
L 377.02044 415.502718 
L 377.081319 415.462328 
L 377.142198 415.462328 
L 377.263955 415.074905 
L 377.811865 415.074905 
L 377.933622 415.224669 
L 378.238017 415.254582 
L 378.359774 415.525884 
L 379.455593 415.50522 
L 379.638229 415.386168 
L 380.61229 415.386168 
L 380.734048 414.96671 
L 381.281957 414.96671 
L 381.403715 415.356302 
L 381.586351 415.356302 
L 381.708109 415.497854 
L 382.438655 415.435096 
L 382.560412 415.248087 
L 382.68217 413.272356 
L 382.803928 413.272356 
L 382.925685 412.969517 
L 383.047443 413.272356 
L 385.908747 413.272356 
L 386.030505 414.923279 
L 386.456657 414.923279 
L 386.578414 415.225635 
L 386.639293 415.225635 
L 386.761051 415.468826 
L 387.187202 415.413773 
L 387.30896 415.060248 
L 387.856869 415.060248 
L 387.978627 415.342336 
L 388.526536 415.342336 
L 388.587415 415.122295 
L 388.709173 415.443004 
L 389.561476 415.435057 
L 389.744113 414.92347 
L 391.022568 414.92347 
L 391.083447 415.425652 
L 391.144325 415.020609 
L 391.570477 415.03087 
L 391.692235 415.264627 
L 393.396842 415.315493 
L 393.518599 414.765166 
L 393.944751 414.765166 
L 394.127387 414.893476 
L 394.797054 414.893476 
L 394.857933 415.008629 
L 395.04057 414.878908 
L 395.405842 414.878908 
L 395.5276 414.319959 
L 395.588479 414.319959 
L 395.710236 414.884644 
L 395.771115 414.884644 
L 395.892873 415.320966 
L 395.953752 415.320966 
L 396.075509 415.523169 
L 396.197267 411.821728 
L 396.501661 411.821728 
L 396.623419 412.97854 
L 396.927813 412.97854 
L 397.04957 414.201278 
L 397.475722 414.201278 
L 397.658359 415.300347 
L 398.145389 415.24717 
L 398.267147 413.876679 
L 398.754177 413.876679 
L 398.875935 415.4712 
L 399.11945 415.436641 
L 399.789117 415.423765 
L 400.580542 415.423765 
L 400.763178 415.303973 
L 401.371966 415.277308 
L 401.737239 412.226897 
L 403.198331 412.226897 
L 403.320088 412.418748 
L 404.050634 412.418748 
L 404.172392 415.394009 
L 404.355028 415.394009 
L 404.476786 413.761755 
L 405.085574 413.770301 
L 405.207332 413.171855 
L 405.572605 413.171855 
L 405.694362 415.529709 
L 405.876999 415.379235 
L 406.059635 415.379235 
L 406.181393 414.418249 
L 406.424908 414.418249 
L 406.546666 414.988412 
L 407.033696 414.988412 
L 407.216333 415.500279 
L 407.33809 415.500279 
L 407.459848 415.082291 
L 407.581605 415.082291 
L 407.703363 415.334759 
L 409.651485 415.334759 
L 409.773243 414.774816 
L 410.625546 414.774816 
L 410.747304 415.033357 
L 410.990819 415.033357 
L 411.112577 414.57637 
L 411.416971 414.57637 
L 411.538728 415.480571 
L 411.660486 414.294043 
L 411.721365 414.294043 
L 411.843122 414.099327 
L 412.451911 414.099327 
L 412.573668 412.064266 
L 412.756305 412.064266 
L 412.878062 414.38104 
L 413.121578 414.38104 
L 413.243335 415.263725 
L 413.547729 415.263563 
L 413.669487 415.45985 
L 413.973881 415.403689 
L 414.095639 412.442374 
L 414.339154 412.442374 
L 414.460912 412.19217 
L 415.313215 412.19217 
L 415.434973 415.339989 
L 415.55673 414.903458 
L 415.617609 415.516547 
L 415.678488 415.508972 
L 415.861124 415.406895 
L 420.853187 415.430279 
L 421.035824 415.525686 
L 421.21846 415.473684 
L 421.949006 415.38588 
L 422.131642 415.28674 
L 423.836249 415.28674 
L 423.958007 415.467573 
L 427.549857 415.427627 
L 427.671614 414.673592 
L 427.732493 414.673592 
L 427.854251 414.905774 
L 428.097766 414.905774 
L 428.158645 415.396241 
L 428.219524 415.349118 
L 428.40216 415.349118 
L 428.523918 415.499563 
L 429.315342 415.475 
L 429.4371 414.224008 
L 429.619737 414.224008 
L 429.741494 415.210429 
L 430.045888 415.198669 
L 430.106767 415.059129 
L 430.228525 410.320456 
L 431.872253 410.342146 
L 431.99401 414.870155 
L 432.481041 414.870155 
L 432.602798 415.413615 
L 432.663677 415.425149 
L 432.785435 415.085768 
L 432.968071 415.085768 
L 433.089829 412.290063 
L 433.211587 412.290063 
L 433.333344 413.165099 
L 433.455102 413.165099 
L 433.57686 412.912822 
L 433.637738 412.912822 
L 433.759496 412.618037 
L 433.881254 412.912822 
L 434.003011 415.233647 
L 434.185648 415.12556 
L 434.307405 415.374903 
L 434.794436 415.282034 
L 434.977072 415.230885 
L 435.220588 415.325671 
L 435.403224 415.441811 
L 435.646739 415.464582 
L 435.768497 415.138682 
L 436.13377 415.138682 
L 436.255527 415.437809 
L 440.943196 415.481045 
L 441.004075 415.285638 
L 441.064954 415.399046 
L 441.186711 415.364485 
L 441.308469 415.148874 
L 441.430227 415.372189 
L 441.551984 414.773589 
L 441.734621 414.773589 
L 441.856378 406.365765 
L 441.978136 406.365765 
L 442.099894 413.143826 
L 442.526045 413.143826 
L 442.647803 415.021661 
L 442.769561 414.913775 
L 442.891318 414.33371 
L 443.439228 414.33371 
L 443.560985 414.59086 
L 444.474167 414.514551 
L 444.595925 415.067842 
L 444.900319 415.024491 
L 445.022077 412.649775 
L 445.265592 412.649775 
L 445.326471 412.833371 
L 445.448228 414.351068 
L 445.630865 414.430231 
L 445.813501 414.351068 
L 445.87438 414.430231 
L 445.996138 413.915507 
L 446.057017 413.915507 
L 446.117895 412.742899 
L 446.178774 413.124996 
L 446.42229 413.124996 
L 446.544047 411.403731 
L 447.639866 411.403731 
L 447.761623 415.454927 
L 448.370412 415.506103 
L 451.231716 415.452731 
L 451.353474 415.288254 
L 451.414352 415.288254 
L 451.53611 415.462716 
L 451.657868 415.113203 
L 452.02314 415.113203 
L 452.144898 415.449801 
L 452.205777 415.346194 
L 452.266656 413.916296 
L 452.388413 415.344606 
L 452.449292 415.344606 
L 452.57105 413.181158 
L 452.692807 412.893756 
L 452.997202 412.893756 
L 453.179838 413.640119 
L 453.362474 413.543214 
L 453.666869 413.543214 
L 453.727747 413.861428 
L 453.788626 412.726092 
L 453.849505 413.640119 
L 453.971263 413.640119 
L 454.032141 415.272481 
L 454.153899 413.4998 
L 454.214778 413.4998 
L 454.336535 414.061318 
L 454.458293 413.115933 
L 454.580051 413.121649 
L 454.762687 411.826279 
L 454.823566 411.826279 
L 454.884445 411.367334 
L 455.067081 412.770688 
L 455.493233 412.689885 
L 455.614991 412.996169 
L 455.919385 412.996169 
L 455.980263 412.148988 
L 456.102021 415.404924 
L 456.528173 415.496946 
L 458.050143 415.474319 
L 458.111022 415.293928 
L 458.171901 415.349604 
L 458.598053 415.349604 
L 458.71981 415.0525 
L 458.780689 415.0525 
L 458.902447 415.410398 
L 459.024204 414.927614 
L 459.328598 414.927614 
L 459.389477 415.13803 
L 459.511235 413.538306 
L 461.885509 413.538306 
L 462.007266 414.306574 
L 462.129024 411.741903 
L 462.31166 411.741903 
L 462.433418 412.602145 
L 463.407479 412.677824 
L 463.529237 413.147457 
L 463.590115 412.119926 
L 463.711873 412.993773 
L 463.772752 400.172008 
L 463.833631 409.33882 
L 464.38154 409.33882 
L 464.503298 414.600002 
L 464.807692 414.600002 
L 464.929449 413.281383 
L 465.294722 413.281383 
L 465.41648 412.274173 
L 465.842632 412.274173 
L 465.964389 414.381376 
L 467.242844 414.381376 
L 467.364602 413.155049 
L 468.277784 413.155049 
L 468.399542 415.251973 
L 469.860633 415.251973 
L 469.982391 414.914405 
L 470.469421 414.914405 
L 470.591179 415.079101 
L 470.652058 415.079101 
L 470.773816 414.914405 
L 470.895573 414.914405 
L 471.017331 415.137048 
L 471.139088 414.829313 
L 471.260846 415.246826 
L 471.382604 415.246826 
L 471.504361 415.025436 
L 473.330726 415.025436 
L 473.452483 415.213108 
L 473.695999 415.213108 
L 473.756878 415.332304 
L 473.878635 415.142654 
L 474.365666 415.142654 
L 474.487423 415.394254 
L 475.705 415.407104 
L 475.887636 415.278907 
L 476.009394 414.553403 
L 476.070272 414.553403 
L 476.374667 378.3833 
L 476.618182 378.3833 
L 476.739939 382.813787 
L 476.922576 382.813787 
L 476.983455 340.687689 
L 477.105212 401.061157 
L 477.653122 401.061157 
L 477.774879 327.180296 
L 478.018395 327.180296 
L 478.140152 388.167059 
L 479.662123 388.167059 
L 479.78388 400.697523 
L 480.879699 400.697523 
L 481.001457 411.654035 
L 481.427608 411.654035 
L 481.549366 408.019398 
L 481.671123 412.512396 
L 482.584306 412.512396 
L 482.706063 408.019398 
L 483.132215 408.019398 
L 483.314851 415.390379 
L 483.436609 415.301071 
L 483.558367 411.654035 
L 484.715064 411.654035 
L 484.836822 400.697523 
L 485.262974 400.697523 
L 485.384731 411.520393 
L 485.567368 411.520393 
L 485.689125 392.275271 
L 485.810883 392.275271 
L 485.871762 395.819101 
L 485.993519 392.275271 
L 486.358792 392.275271 
L 486.48055 400.697523 
L 487.637247 400.697523 
L 487.759005 406.010293 
L 488.246036 406.010293 
L 488.367793 415.245303 
L 488.489551 400.697523 
L 489.402733 400.697523 
L 489.524491 392.275271 
L 489.768006 392.275271 
L 489.889764 392.925068 
L 490.133279 392.925068 
L 490.255036 407.127479 
L 490.376794 407.127479 
L 490.498552 412.763798 
L 490.620309 411.30648 
L 490.863825 411.30648 
L 490.985582 412.763798 
L 491.411734 412.763798 
L 491.472613 415.503737 
L 491.533492 415.502121 
L 492.020522 415.401891 
L 492.081401 414.887256 
L 492.14228 415.143453 
L 492.446674 415.143453 
L 492.62931 414.744689 
L 493.420735 414.820952 
L 493.542492 415.390151 
L 493.66425 415.405012 
L 493.846887 415.526908 
L 494.455675 415.517946 
L 494.577432 415.289258 
L 494.760069 415.289258 
L 494.820948 415.472068 
L 494.881826 415.338428 
L 495.916766 415.370658 
L 496.099403 412.644888 
L 496.403797 412.644888 
L 496.525554 415.478571 
L 496.586433 415.478571 
L 496.708191 413.85006 
L 496.829948 413.85006 
L 496.951706 415.253578 
L 497.012585 415.253578 
L 497.2561 413.260515 
L 497.560494 413.254863 
L 497.682252 415.122823 
L 497.864888 415.122823 
L 497.925767 415.413989 
L 497.986646 415.246833 
L 498.169282 415.246833 
L 498.351919 415.508971 
L 498.412798 415.508971 
L 498.534555 411.830104 
L 498.656313 413.876292 
L 499.32598 413.876292 
L 499.447738 414.172658 
L 499.569495 414.172658 
L 499.691253 413.877566 
L 499.873889 413.877566 
L 499.995647 414.390793 
L 500.239162 414.390793 
L 500.421799 414.507055 
L 500.543556 414.586601 
L 500.665314 413.640894 
L 500.787071 414.055666 
L 501.39586 414.055666 
L 501.517617 415.337788 
L 501.578496 415.337788 
L 501.639375 415.462256 
L 501.761132 414.936474 
L 501.88289 415.206243 
L 503.95277 415.148587 
L 504.135406 415.044393 
L 504.196285 415.044393 
L 504.318043 415.318562 
L 504.4398 415.318562 
L 504.561558 414.342562 
L 504.683316 414.342562 
L 504.805073 415.220032 
L 504.926831 414.342562 
L 505.413861 414.2642 
L 505.596498 413.586736 
L 505.718255 413.586736 
L 505.779134 413.100309 
L 505.900892 413.799288 
L 505.961771 413.799288 
L 506.083528 413.387142 
L 506.50968 413.387142 
L 506.631438 411.484917 
L 506.814074 411.484917 
L 506.996711 411.60745 
L 507.666378 411.60745 
L 507.788135 411.312432 
L 507.909893 411.312432 
L 508.03165 408.091199 
L 508.092529 408.091199 
L 508.214287 414.532732 
L 508.518681 414.532732 
L 508.640439 414.306727 
L 508.823075 414.306727 
L 508.944833 415.471457 
L 509.310106 415.506298 
L 509.553621 414.886824 
L 509.6145 414.886824 
L 509.736257 414.237625 
L 509.858015 415.173981 
L 509.979773 415.173981 
L 510.10153 415.485889 
L 512.049652 415.520249 
L 512.17141 415.04441 
L 512.293167 415.202761 
L 512.414925 413.21809 
L 512.536683 413.432232 
L 512.719319 413.432232 
L 512.901956 414.541649 
L 512.962834 414.541649 
L 513.084592 415.184857 
L 513.267229 415.184857 
L 513.388986 413.422612 
L 513.754259 413.422612 
L 513.876017 414.570114 
L 513.997774 414.570114 
L 514.180411 415.487953 
L 514.24129 415.489182 
L 514.363047 415.088243 
L 515.032714 415.088243 
L 515.093593 414.878843 
L 515.154472 414.964345 
L 515.215351 414.964345 
L 515.337108 415.487479 
L 516.006775 415.441138 
L 516.859079 415.346328 
L 517.102594 414.918929 
L 517.894018 414.986847 
L 517.954897 415.360501 
L 518.015776 415.213528 
L 518.502807 415.213528 
L 518.624564 415.365211 
L 519.233352 415.360501 
L 519.35511 414.946055 
L 519.963898 414.92937 
L 520.024777 415.334271 
L 520.146535 414.924422 
L 520.450929 414.924422 
L 520.572686 415.3391 
L 521.546747 415.275815 
L 521.668505 414.106159 
L 521.972899 414.106159 
L 522.094657 413.551894 
L 522.216414 414.957566 
L 522.338172 414.957566 
L 522.45993 414.376141 
L 522.642566 414.376141 
L 522.764324 414.729921 
L 522.94696 414.729921 
L 523.068718 414.145712 
L 523.312233 414.145712 
L 523.433991 414.331823 
L 523.555748 414.05785 
L 523.616627 414.05785 
L 523.738385 413.820237 
L 524.286294 413.820237 
L 524.468931 414.180202 
L 524.651567 414.05785 
L 524.773325 414.05785 
L 524.895082 414.455886 
L 525.260355 414.467107 
L 525.382113 412.990036 
L 525.442992 412.990036 
L 525.564749 414.485479 
L 525.869143 414.485479 
L 525.990901 414.056869 
L 527.08672 414.056869 
L 527.208477 414.544471 
L 527.330235 414.544471 
L 527.451992 414.056869 
L 527.57375 414.253828 
L 527.817265 414.221821 
L 528.060781 414.221821 
L 528.121659 414.708895 
L 528.243417 413.377115 
L 528.913084 413.377115 
L 529.034842 415.32641 
L 529.460993 415.276194 
L 529.521872 415.5072 
L 529.64363 415.294561 
L 530.069782 415.294561 
L 530.191539 415.461414 
L 530.374176 415.463989 
L 530.495933 415.449323 
L 530.617691 414.715479 
L 530.982964 414.715479 
L 531.104721 414.900491 
L 531.287358 414.900491 
L 531.409115 415.475586 
L 531.774388 415.482994 
L 531.957025 415.350543 
L 532.261419 415.43693 
L 532.322298 415.501508 
L 532.383176 414.384687 
L 532.504934 415.357901 
L 532.565813 415.357901 
L 532.687571 414.982034 
L 532.870207 414.982034 
L 533.052843 415.237723 
L 533.418116 415.130839 
L 533.539874 414.232236 
L 533.783389 414.232236 
L 533.844268 413.302885 
L 533.966026 414.750569 
L 534.087783 414.750569 
L 534.209541 414.872898 
L 534.331299 415.373614 
L 535.000966 415.342094 
L 535.061844 415.254023 
L 535.183602 414.832134 
L 535.609754 414.832134 
L 535.731511 411.33738 
L 535.975027 411.33738 
L 536.096784 413.683651 
L 536.888209 413.741828 
L 537.009966 412.096633 
L 537.253482 412.096633 
L 537.375239 413.741828 
L 537.496997 413.954457 
L 537.801391 413.954457 
L 537.923149 412.096633 
L 538.3493 412.096633 
L 538.471058 414.797612 
L 538.592816 415.266395 
L 539.627756 415.350466 
L 539.810392 415.502252 
L 540.114786 415.522722 
L 540.236544 415.074554 
L 541.027968 415.074554 
L 541.149726 414.460645 
L 541.575878 414.460645 
L 541.758514 414.911878 
L 542.48906 414.982939 
L 542.610817 414.787644 
L 543.097848 414.862066 
L 543.219606 415.518907 
L 543.706636 415.526984 
L 546.141789 415.450387 
L 546.202668 414.900217 
L 546.263546 414.961805 
L 546.689698 415.013111 
L 546.811456 415.373405 
L 547.054971 415.373405 
L 547.176729 415.117471 
L 547.785517 415.170217 
L 547.907274 408.494207 
L 548.272547 408.494207 
L 548.394305 414.370469 
L 548.516063 414.748597 
L 548.820457 414.716639 
L 548.942214 408.768759 
L 549.063972 408.768759 
L 549.124851 408.393247 
L 549.246608 410.289752 
L 549.429245 410.289752 
L 549.67276 414.655847 
L 549.794518 415.309347 
L 549.916275 414.718855 
L 550.585942 414.718855 
L 550.7077 414.17803 
L 550.890336 414.17803 
L 550.951215 414.792596 
L 551.072973 412.391889 
L 551.19473 412.391889 
L 551.255609 412.878583 
L 551.438246 415.452095 
L 553.021095 415.380171 
L 553.142852 411.795331 
L 553.26461 413.062806 
L 553.629883 413.062806 
L 553.751641 411.706977 
L 553.873398 411.706977 
L 553.995156 413.162668 
L 554.177792 413.162668 
L 554.29955 415.319783 
L 554.360429 415.319783 
L 554.482186 415.12905 
L 554.78658 415.12905 
L 554.847459 415.32433 
L 555.030096 414.914961 
L 555.82152 414.914961 
L 555.943278 411.770021 
L 556.125914 411.770021 
L 556.247672 409.988623 
L 557.343491 409.988623 
L 557.465248 410.751575 
L 557.526127 405.044347 
L 557.647885 415.075603 
L 558.074036 415.075603 
L 558.195794 415.438949 
L 558.317552 415.438949 
L 558.439309 415.135801 
L 559.474249 415.136438 
L 559.596007 414.945829 
L 560.204795 415.006199 
L 560.265674 415.369969 
L 560.387431 414.107326 
L 562.213796 414.107326 
L 562.457311 415.090308 
L 562.944342 415.090308 
L 563.005221 415.401531 
L 563.066099 415.356949 
L 563.248736 415.288947 
L 563.492251 415.288947 
L 563.614009 415.416566 
L 563.674887 415.348916 
L 563.796645 412.040772 
L 564.161918 412.040772 
L 564.283676 414.622931 
L 564.344554 414.622931 
L 564.466312 415.348916 
L 565.562131 415.289362 
L 565.683888 414.96877 
L 565.805646 414.96877 
L 565.927404 414.396715 
L 566.11004 414.396715 
L 566.231798 415.314408 
L 566.353555 415.314408 
L 566.475313 415.175588 
L 566.597071 415.413959 
L 566.962344 415.389949 
L 567.14498 415.270801 
L 567.63201 415.270801 
L 567.692889 415.110526 
L 567.814647 415.481833 
L 567.875526 415.481833 
L 567.997283 415.360141 
L 568.484314 415.367477 
L 569.641011 415.46727 
L 569.762769 415.097308 
L 570.432436 415.028745 
L 570.554194 414.670641 
L 570.615072 414.670641 
L 570.73683 414.935309 
L 571.041224 414.855624 
L 571.162982 413.644349 
L 571.589133 413.705308 
L 571.710891 414.08675 
L 571.832649 412.905025 
L 571.954406 414.715428 
L 572.380558 414.715428 
L 572.441437 415.316376 
L 572.563195 414.715428 
L 573.111104 414.715428 
L 573.232861 414.8407 
L 573.29374 414.760371 
L 573.415498 415.452403 
L 573.537256 414.344864 
L 573.659013 414.344864 
L 573.780771 414.8407 
L 574.267801 414.8407 
L 574.32868 415.522457 
L 574.389559 415.514516 
L 574.511317 414.6778 
L 574.693953 414.6778 
L 574.876589 415.153713 
L 575.36362 415.153713 
L 575.485378 414.971984 
L 575.789772 414.971984 
L 575.911529 415.256268 
L 575.972408 413.600167 
L 576.094166 415.202155 
L 576.215923 415.202155 
L 576.337681 415.461627 
L 576.39856 415.461627 
L 576.520317 413.600167 
L 577.189984 413.600167 
L 577.311742 415.265286 
L 577.798773 415.265286 
L 578.042288 414.631939 
L 578.224924 414.631939 
L 578.346682 415.039679 
L 578.529318 414.190383 
L 578.651076 412.971523 
L 578.833712 412.971523 
L 578.95547 413.369342 
L 579.016349 413.369342 
L 579.138107 413.011936 
L 579.381622 413.011936 
L 579.503379 414.276699 
L 579.746895 414.276699 
L 579.868652 414.75678 
L 579.99041 414.52946 
L 580.051289 415.382816 
L 580.112168 415.285169 
L 580.233925 415.432146 
L 582.486441 415.351442 
L 582.608199 415.087726 
L 582.790835 415.438868 
L 583.216987 415.413897 
L 583.338745 415.239098 
L 583.460502 415.480708 
L 584.251927 415.494345 
L 584.312806 415.196909 
L 584.373685 415.521956 
L 584.434563 415.465261 
L 584.982473 415.432451 
L 585.10423 415.058027 
L 587.052353 415.058027 
L 587.17411 415.225628 
L 587.295868 415.225628 
L 587.417625 415.398214 
L 588.026414 415.35495 
L 588.087292 414.854439 
L 588.148171 415.266507 
L 588.391686 415.266507 
L 588.452565 414.813333 
L 588.574323 411.985665 
L 589.000475 411.985665 
L 589.122232 406.555708 
L 589.426626 406.555708 
L 589.548384 414.180793 
L 589.852778 414.180793 
L 589.974536 413.915595 
L 590.096293 414.402449 
L 590.218051 414.402449 
L 590.339809 406.555708 
L 592.348809 406.555708 
L 592.470567 415.264359 
L 592.531446 415.264359 
L 592.653204 415.441405 
L 592.83584 415.441405 
L 593.018476 415.326812 
L 593.201113 415.393923 
L 594.053416 415.498777 
L 594.35781 415.478425 
L 600.993601 415.4208 
L 601.297995 415.078127 
L 601.602389 415.078127 
L 601.663268 415.336319 
L 601.785026 414.753782 
L 605.498633 414.777702 
L 605.559512 413.819187 
L 605.68127 415.272646 
L 605.803028 415.368978 
L 605.863906 415.428788 
L 605.924785 414.879096 
L 605.985664 415.427078 
L 606.107422 414.529423 
L 606.959725 414.529423 
L 607.081483 414.937618 
L 607.324998 415.001491 
L 607.446756 415.482423 
L 607.812028 415.40523 
L 607.994665 415.287068 
L 608.481695 415.287068 
L 608.603453 415.025352 
L 609.029605 415.025352 
L 609.151362 415.26717 
L 609.333999 415.180666 
L 609.394878 415.180666 
L 609.516635 415.335841 
L 609.699272 415.335841 
L 609.821029 415.485516 
L 612.256182 415.450683 
L 612.37794 415.323997 
L 612.560576 415.446408 
L 612.743213 415.476956 
L 612.86497 415.106214 
L 612.986728 415.106214 
L 613.108485 414.660865 
L 613.412879 414.748674 
L 613.534637 415.490766 
L 613.656395 415.490766 
L 613.778152 415.296075 
L 616.030669 415.287809 
L 616.152426 415.021016 
L 616.274184 415.395255 
L 616.943851 415.470222 
L 617.065608 415.091185 
L 617.370002 415.091185 
L 617.49176 415.351744 
L 617.796154 415.351744 
L 617.917912 414.924739 
L 618.039669 414.924739 
L 618.161427 413.027297 
L 618.648458 413.027297 
L 618.770215 394.172992 
L 618.831094 394.172992 
L 618.952852 397.431498 
L 619.135488 397.431498 
L 619.257246 389.53863 
L 619.318125 389.53863 
L 619.379003 403.324745 
L 619.439882 394.172992 
L 620.109549 394.172992 
L 620.231307 409.286062 
L 620.961853 409.286062 
L 621.08361 401.888843 
L 621.388004 401.888843 
L 621.509762 372.720087 
L 621.63152 372.720087 
L 621.753277 368.106821 
L 622.362065 368.106821 
L 622.483823 390.420432 
L 623.031732 390.420432 
L 623.15349 390.009318 
L 623.457884 390.009318 
L 623.579642 390.420432 
L 624.066672 390.420432 
L 624.18843 410.654029 
L 624.310187 404.82102 
L 624.614581 404.82102 
L 624.736339 398.919689 
L 625.040733 398.919689 
L 625.162491 406.750799 
L 625.284248 406.750799 
L 625.406006 415.322603 
L 625.466885 415.322603 
L 625.649521 415.489997 
L 625.771279 415.106434 
L 626.197431 415.055533 
L 626.258309 414.728827 
L 626.380067 415.391242 
L 626.501825 415.391242 
L 626.623582 414.858818 
L 627.962916 414.858818 
L 628.084674 415.023108 
L 628.145553 415.023108 
L 628.26731 415.490955 
L 631.433009 415.471889 
L 631.493888 415.361313 
L 631.615645 414.456952 
L 632.650585 414.356428 
L 632.954979 414.356428 
L 633.015858 406.521241 
L 633.076737 406.714753 
L 633.746404 406.714753 
L 633.868161 412.493204 
L 633.92904 411.507977 
L 633.989919 398.996273 
L 634.050798 407.496433 
L 634.111677 407.496433 
L 634.233434 415.426873 
L 635.511889 415.511119 
L 635.633647 415.257543 
L 635.755405 415.360315 
L 635.938041 415.485344 
L 635.99892 415.485344 
L 636.059799 415.360315 
L 636.181556 415.519139 
L 636.242435 415.519139 
L 636.364193 415.271958 
L 636.48595 415.271958 
L 636.668587 415.517683 
L 636.790344 415.275821 
L 637.03386 415.275821 
L 637.155617 404.985173 
L 637.216496 404.985173 
L 637.338254 415.108448 
L 637.581769 415.108448 
L 637.642648 391.535547 
L 637.703527 404.345926 
L 638.494951 404.345926 
L 638.616709 412.428861 
L 638.799345 412.428861 
L 638.921103 413.291002 
L 638.981982 413.291002 
L 639.103739 411.681505 
L 639.773406 411.681505 
L 639.895164 415.017476 
L 639.956043 415.017476 
L 640.199558 415.349739 
L 640.808346 415.433068 
L 640.869225 415.501877 
L 640.990983 415.237527 
L 641.234498 415.237527 
L 641.356256 413.490944 
L 641.478013 413.65775 
L 642.14768 413.65775 
L 642.269438 414.72699 
L 642.999984 414.72699 
L 643.18262 414.847177 
L 643.365257 414.847177 
L 643.487014 414.534422 
L 644.095802 414.534422 
L 644.278439 415.310524 
L 644.339318 414.917909 
L 644.461075 415.32228 
L 644.521954 415.32228 
L 644.582833 415.501796 
L 644.643712 415.469459 
L 645.556894 415.367748 
L 645.983046 415.346935 
L 646.043924 415.517261 
L 646.165682 415.351472 
L 646.226561 415.351472 
L 646.348318 415.025623 
L 646.470076 415.025623 
L 646.652713 415.524673 
L 647.32238 415.467107 
L 647.383258 415.089484 
L 647.444137 415.38951 
L 647.626774 415.38951 
L 647.80941 415.521239 
L 647.931168 415.512617 
L 648.052925 415.354945 
L 648.235562 415.403905 
L 648.357319 415.122615 
L 648.539956 415.122615 
L 648.661713 414.818933 
L 649.209623 414.818933 
L 649.33138 415.43451 
L 650.609836 415.41061 
L 650.853351 415.138913 
L 651.340381 415.12631 
L 651.462139 415.339858 
L 652.192685 415.304724 
L 652.4362 414.362317 
L 652.618836 414.362317 
L 652.740594 415.304843 
L 653.288503 415.292958 
L 653.532019 414.236626 
L 653.653776 411.274588 
L 654.201686 411.274588 
L 654.323443 404.766158 
L 655.845414 404.766158 
L 655.967171 403.437965 
L 656.697717 403.437965 
L 656.819475 414.434935 
L 656.941232 409.05731 
L 657.06299 409.05731 
L 657.184748 403.437965 
L 657.245626 403.437965 
L 657.367384 404.766158 
L 658.280566 404.766158 
L 658.402324 399.766579 
L 658.463203 399.766579 
L 658.58496 413.521579 
L 659.13287 413.521579 
L 659.254627 414.728013 
L 659.376385 413.521579 
L 660.350446 413.521579 
L 660.472204 414.664847 
L 660.898355 414.664847 
L 661.020113 414.805016 
L 661.750659 414.805016 
L 661.872416 413.142876 
L 661.933295 413.142876 
L 662.115932 415.332937 
L 662.17681 415.328496 
L 662.237689 415.328496 
L 662.298568 415.147005 
L 662.359447 415.293641 
L 662.968235 415.314819 
L 663.089993 415.499327 
L 663.75966 415.433328 
L 663.942296 415.342925 
L 664.003175 415.498786 
L 664.064054 415.442104 
L 664.124932 415.442104 
L 664.24669 415.06266 
L 664.916357 415.06266 
L 665.038115 415.427966 
L 672.891482 415.494334 
L 672.952361 415.299032 
L 673.074118 415.511739 
L 674.109058 415.48894 
L 674.230816 415.206985 
L 674.474331 415.206985 
L 674.596089 415.500393 
L 675.143998 415.496547 
L 675.265756 415.292377 
L 675.448392 415.292377 
L 675.57015 415.479103 
L 677.152999 415.435151 
L 677.274757 415.327732 
L 677.457393 415.453927 
L 680.988364 415.411177 
L 681.110122 415.313002 
L 681.23188 415.358558 
L 681.353637 414.404466 
L 681.414516 414.404466 
L 681.536274 415.189784 
L 682.023304 415.189784 
L 682.145062 415.349449 
L 682.266819 415.342105 
L 682.388577 415.166188 
L 682.75385 415.166188 
L 682.875608 415.474372 
L 683.423517 415.472354 
L 683.545275 415.309912 
L 683.910547 415.37866 
L 683.971426 415.449504 
L 684.032305 415.382026 
L 684.154063 415.150479 
L 684.519336 415.221542 
L 684.641093 415.478509 
L 685.432518 415.463768 
L 685.554275 415.191311 
L 685.676033 415.191311 
L 685.797791 414.94093 
L 686.467458 414.94093 
L 686.771852 415.453097 
L 687.745913 415.528704 
L 687.806792 415.301404 
L 687.928549 413.641386 
L 690.728975 413.641386 
L 690.850732 414.255414 
L 691.216005 414.255414 
L 691.398642 414.383149 
L 691.581278 414.383149 
L 691.642157 414.51779 
L 691.703036 414.383149 
L 691.824793 410.679668 
L 692.190066 410.679668 
L 692.311824 403.587094 
L 692.616218 403.587094 
L 692.737976 373.961551 
L 693.407643 373.961551 
L 693.5294 411.536538 
L 693.772915 411.536538 
L 693.894673 415.034788 
L 694.016431 415.034788 
L 694.138188 415.347978 
L 694.381704 415.418038 
L 694.503461 415.171642 
L 694.686098 415.278568 
L 695.477522 415.278568 
L 695.59928 415.494615 
L 696.147189 415.425427 
L 696.329826 414.798385 
L 697.973554 414.798385 
L 698.095311 414.262301 
L 698.15619 414.262301 
L 698.277948 413.812142 
L 700.7131 413.812142 
L 700.834858 414.981737 
L 700.895737 414.981737 
L 701.017494 415.305137 
L 701.139252 415.305137 
L 701.26101 414.113879 
L 701.382767 414.272814 
L 701.869798 414.272814 
L 701.991556 414.113879 
L 702.113313 415.069878 
L 704.365829 415.005386 
L 704.487587 415.482847 
L 705.279012 415.474818 
L 705.400769 415.315011 
L 706.070436 415.315011 
L 706.192194 415.52139 
L 708.079437 415.418336 
L 708.262073 412.334361 
L 708.322952 412.334361 
L 708.44471 412.041182 
L 708.566468 412.666311 
L 708.809983 412.666311 
L 708.93174 414.568362 
L 709.114377 414.568362 
L 709.236135 415.249337 
L 709.905801 415.304396 
L 710.027559 415.470106 
L 710.149317 415.470106 
L 710.210196 414.621826 
L 710.271074 414.873874 
L 710.636347 414.873874 
L 710.697226 414.073657 
L 710.818984 415.321911 
L 710.879863 415.321911 
L 711.062499 415.522471 
L 711.975681 415.486831 
L 712.219196 415.528608 
L 712.767106 415.512571 
L 712.949742 415.387668 
L 713.132379 415.38377 
L 713.254136 415.080245 
L 713.436773 415.080245 
L 713.55853 414.138938 
L 713.802046 414.138938 
L 713.923803 411.029523 
L 714.167319 411.029523 
L 714.289076 406.970443 
L 714.715228 406.970443 
L 714.836986 413.756389 
L 714.958743 413.756389 
L 715.14138 414.995446 
L 715.445774 414.995446 
L 715.567531 415.262721 
L 715.750168 415.357054 
L 715.932804 415.45498 
L 716.967744 415.359352 
L 717.089502 415.194432 
L 717.211259 415.404101 
L 717.333017 415.194432 
L 717.515653 415.194432 
L 717.637411 415.483296 
L 717.69829 415.483296 
L 717.880926 415.367998 
L 718.307078 415.356542 
L 718.73323 412.772781 
L 718.854987 412.772781 
L 718.976745 414.873645 
L 719.402897 414.909238 
L 719.463775 413.733289 
L 719.646412 415.38619 
L 719.707291 415.090374 
L 719.76817 415.216393 
L 719.829048 415.310283 
L 719.889927 415.200544 
L 719.950806 415.200544 
L 720.072564 415.521678 
L 720.194321 409.897569 
L 720.316079 409.897569 
L 720.437837 411.624484 
L 720.620473 411.624484 
L 720.742231 406.543794 
L 720.985746 406.543794 
L 721.107503 398.231075 
L 721.594534 398.231075 
L 721.716292 397.343354 
L 722.751231 397.343354 
L 722.872989 395.248184 
L 722.994747 413.714479 
L 723.116504 413.714479 
L 723.238262 415.472384 
L 723.36002 415.472384 
L 723.420898 414.479985 
L 723.481777 414.973533 
L 723.907929 415.081746 
L 724.090565 415.131616 
L 724.212323 415.131616 
L 724.334081 414.710905 
L 724.394959 414.710905 
L 724.516717 415.043811 
L 724.699354 414.949466 
L 725.064626 414.96744 
L 725.125505 415.500755 
L 725.186384 415.434702 
L 725.308142 414.610339 
L 725.490778 414.610339 
L 725.673415 414.958946 
L 726.038688 414.987332 
L 726.160445 415.231893 
L 726.221324 415.231893 
L 726.343082 414.143395 
L 726.830112 414.159813 
L 726.95187 414.159813 
L 727.073627 413.289313 
L 727.134506 413.289313 
L 727.256264 412.525541 
L 727.317143 412.525541 
L 727.378021 414.088731 
L 727.499779 411.525326 
L 727.560658 411.525326 
L 727.682416 413.408542 
L 727.925931 413.408542 
L 728.047688 410.422929 
L 728.412961 410.422929 
L 728.534719 414.734341 
L 728.595598 414.734341 
L 728.717355 413.335408 
L 729.082628 413.335408 
L 729.204386 414.66867 
L 729.326144 412.557716 
L 729.630538 415.060243 
L 729.752295 414.317454 
L 730.300205 414.317454 
L 730.421962 414.163232 
L 730.604599 414.156581 
L 730.726356 413.111206 
L 730.848114 414.156581 
L 730.908993 414.156581 
L 731.03075 415.211386 
L 731.152508 414.196539 
L 731.822175 414.196539 
L 731.943933 414.374099 
L 732.248327 414.374099 
L 732.370084 413.043373 
L 732.552721 413.043373 
L 732.674478 414.506307 
L 732.917994 414.506307 
L 733.039751 413.211449 
L 733.161509 413.211449 
L 733.344145 414.617524 
L 733.465903 413.777962 
L 733.892055 413.777962 
L 734.013812 412.378989 
L 734.379085 412.378989 
L 734.500843 413.988948 
L 734.683479 413.988948 
L 734.805237 411.704316 
L 735.109631 411.704316 
L 735.292267 414.364803 
L 735.353146 414.364803 
L 735.414025 415.277737 
L 735.474904 414.858685 
L 735.65754 414.858685 
L 735.840177 411.100719 
L 737.057753 411.100719 
L 737.179511 414.139101 
L 737.301268 414.614448 
L 737.423026 414.139101 
L 737.483905 414.139101 
L 737.605662 413.414885 
L 737.970935 413.377676 
L 738.031814 410.481121 
L 738.092693 411.971638 
L 738.397087 411.971638 
L 738.518845 412.179246 
L 739.127633 412.289013 
L 739.24939 413.546775 
L 739.7973 413.546775 
L 739.919057 415.138148 
L 740.101694 415.138148 
L 740.28433 415.267758 
L 740.345209 415.023448 
L 740.466967 415.413349 
L 740.710482 415.471022 
L 740.83224 415.164306 
L 740.893118 415.164306 
L 741.014876 415.326995 
L 741.258391 415.326995 
L 741.380149 415.123775 
L 741.562785 415.123775 
L 741.684543 415.435599 
L 743.145635 415.426877 
L 743.267392 415.071527 
L 744.180574 415.071527 
L 744.302332 415.316474 
L 744.545847 415.316474 
L 744.667605 415.474187 
L 746.067818 415.40354 
L 746.250454 415.34737 
L 747.163636 415.282421 
L 747.163636 415.282421 
" clip-path="url(#p5ea3a325df)" style="fill: none; stroke: #4c72b0; stroke-width: 2; stroke-linecap: round"/>
   </g>
   <g id="patch_3">
    <path d="M 108 432.54 
L 108 58.32 
" style="fill: none; stroke: #000000; stroke-linejoin: miter; stroke-linecap: square"/>
   </g>
   <g id="patch_4">
    <path d="M 777.6 432.54 
L 777.6 58.32 
" style="fill: none; stroke: #000000; stroke-linejoin: miter; stroke-linecap: square"/>
   </g>
   <g id="patch_5">
    <path d="M 108 432.54 
L 777.6 432.54 
" style="fill: none; stroke: #000000; stroke-linejoin: miter; stroke-linecap: square"/>
   </g>
   <g id="patch_6">
    <path d="M 108 58.32 
L 777.6 58.32 
" style="fill: none; stroke: #000000; stroke-linejoin: miter; stroke-linecap: square"/>
   </g>
   <g id="legend_1">
    <g id="patch_7">
     <path d="M 680.743925 89.032028 
L 767.8 89.032028 
Q 770.6 89.032028 770.6 86.232028 
L 770.6 68.12 
Q 770.6 65.32 767.8 65.32 
L 680.743925 65.32 
Q 677.943925 65.32 677.943925 68.12 
L 677.943925 86.232028 
Q 677.943925 89.032028 680.743925 89.032028 
z
" style="fill: #ffffff; opacity: 0.8; stroke: #cccccc; stroke-width: 0.8; stroke-linejoin: miter"/>
    </g>
    <g id="line2d_44">
     <path d="M 683.543925 75.82 
L 697.543925 75.82 
L 711.543925 75.82 
" style="fill: none; stroke: #4c72b0; stroke-width: 2; stroke-linecap: round"/>
    </g>
    <g id="text_18">
     <!-- $j = 1.5$ -->
     <g style="fill: #262626" transform="translate(722.743925 80.72) scale(0.14 -0.14)">
      <defs>
       <path id="CMR17-3d" d="M 4115 2048 
C 4211 2048 4307 2048 4307 2156 
C 4307 2272 4198 2272 4090 2272 
L 512 2272 
C 403 2272 294 2272 294 2156 
C 294 2048 390 2048 486 2048 
L 4115 2048 
z
M 4090 927 
C 4198 927 4307 927 4307 1043 
C 4307 1152 4211 1152 4115 1152 
L 486 1152 
C 390 1152 294 1152 294 1043 
C 294 927 403 927 512 927 
L 4090 927 
z
" transform="scale(0.015625)"/>
      </defs>
      <use xlink:href="#CMMI12-6a" transform="scale(0.996264)"/>
      <use xlink:href="#CMR17-3d" transform="translate(73.636491 0) scale(0.996264)"/>
      <use xlink:href="#CMR17-31" transform="translate(173.025288 0) scale(0.996264)"/>
      <use xlink:href="#CMMI12-3a" transform="translate(218.715766 0) scale(0.996264)"/>
      <use xlink:href="#CMR17-35" transform="translate(245.812943 0) scale(0.996264)"/>
     </g>
    </g>
   </g>
  </g>
 </g>
 <defs>
  <clipPath id="p5ea3a325df">
   <rect x="108" y="58.32" width="669.6" height="374.22"/>
  </clipPath>
 </defs>
</svg>
