<?xml version="1.0" encoding="utf-8" standalone="no"?>
<!DOCTYPE svg PUBLIC "-//W3C//DTD SVG 1.1//EN"
  "http://www.w3.org/Graphics/SVG/1.1/DTD/svg11.dtd">
<svg xmlns:xlink="http://www.w3.org/1999/xlink" width="864pt" height="486pt" viewBox="0 0 864 486" xmlns="http://www.w3.org/2000/svg" version="1.1">
 <metadata>
  <rdf:RDF xmlns:dc="http://purl.org/dc/elements/1.1/" xmlns:cc="http://creativecommons.org/ns#" xmlns:rdf="http://www.w3.org/1999/02/22-rdf-syntax-ns#">
   <cc:Work>
    <dc:type rdf:resource="http://purl.org/dc/dcmitype/StillImage"/>
    <dc:date>2023-01-19T23:27:33.341885</dc:date>
    <dc:format>image/svg+xml</dc:format>
    <dc:creator>
     <cc:Agent>
      <dc:title>Matplotlib v3.6.2, https://matplotlib.org/</dc:title>
     </cc:Agent>
    </dc:creator>
   </cc:Work>
  </rdf:RDF>
 </metadata>
 <defs>
  <style type="text/css">*{stroke-linejoin: round; stroke-linecap: butt}</style>
 </defs>
 <g id="figure_1">
  <g id="patch_1">
   <path d="M 0 486 
L 864 486 
L 864 0 
L 0 0 
z
" style="fill: #ffffff"/>
  </g>
  <g id="axes_1">
   <g id="patch_2">
    <path d="M 108 432.54 
L 777.6 432.54 
L 777.6 58.32 
L 108 58.32 
z
" style="fill: #ffffff"/>
   </g>
   <g id="matplotlib.axis_1">
    <g id="xtick_1">
     <g id="line2d_1">
      <path d="M 138.375485 432.54 
L 138.375485 58.32 
" clip-path="url(#p6079889328)" style="fill: none; stroke: #e6e6e6; stroke-width: 0.8; stroke-linecap: round"/>
     </g>
     <g id="line2d_2">
      <defs>
       <path id="m8cb0dc003e" d="M 0 0 
L 0 -4.8 
" style="stroke: #262626"/>
      </defs>
      <g>
       <use xlink:href="#m8cb0dc003e" x="138.375485" y="432.54" style="fill: #262626; stroke: #262626"/>
      </g>
     </g>
     <g id="line2d_3">
      <defs>
       <path id="m1462aab3dd" d="M 0 0 
L 0 4.8 
" style="stroke: #262626"/>
      </defs>
      <g>
       <use xlink:href="#m1462aab3dd" x="138.375485" y="58.32" style="fill: #262626; stroke: #262626"/>
      </g>
     </g>
     <g id="text_1">
      <!-- $\mathdefault{0}$ -->
      <g style="fill: #262626" transform="translate(135.156348 445.172395) scale(0.132 -0.132)">
       <defs>
        <path id="CMR17-30" d="M 2688 2038 
C 2688 2430 2682 3099 2413 3613 
C 2176 4063 1798 4224 1466 4224 
C 1158 4224 768 4082 525 3620 
C 269 3137 243 2539 243 2038 
C 243 1671 250 1112 448 623 
C 723 -39 1216 -128 1466 -128 
C 1760 -128 2208 -7 2470 604 
C 2662 1048 2688 1568 2688 2038 
z
M 1466 -26 
C 1056 -26 813 328 723 816 
C 653 1196 653 1749 653 2109 
C 653 2604 653 3015 736 3407 
C 858 3954 1216 4121 1466 4121 
C 1728 4121 2067 3947 2189 3420 
C 2272 3054 2278 2623 2278 2109 
C 2278 1691 2278 1176 2202 797 
C 2067 96 1690 -26 1466 -26 
z
" transform="scale(0.015625)"/>
       </defs>
       <use xlink:href="#CMR17-30" transform="scale(0.996264)"/>
      </g>
     </g>
    </g>
    <g id="xtick_2">
     <g id="line2d_4">
      <path d="M 260.133115 432.54 
L 260.133115 58.32 
" clip-path="url(#p6079889328)" style="fill: none; stroke: #e6e6e6; stroke-width: 0.8; stroke-linecap: round"/>
     </g>
     <g id="line2d_5">
      <g>
       <use xlink:href="#m8cb0dc003e" x="260.133115" y="432.54" style="fill: #262626; stroke: #262626"/>
      </g>
     </g>
     <g id="line2d_6">
      <g>
       <use xlink:href="#m1462aab3dd" x="260.133115" y="58.32" style="fill: #262626; stroke: #262626"/>
      </g>
     </g>
     <g id="text_2">
      <!-- $\mathdefault{2000}$ -->
      <g style="fill: #262626" transform="translate(247.256567 445.172395) scale(0.132 -0.132)">
       <defs>
        <path id="CMR17-32" d="M 2669 990 
L 2554 990 
C 2490 537 2438 460 2413 422 
C 2381 371 1920 371 1830 371 
L 602 371 
C 832 620 1280 1073 1824 1596 
C 2214 1966 2669 2400 2669 3033 
C 2669 3788 2067 4224 1395 4224 
C 691 4224 262 3603 262 3027 
C 262 2777 448 2745 525 2745 
C 589 2745 781 2783 781 3007 
C 781 3206 614 3264 525 3264 
C 486 3264 448 3257 422 3244 
C 544 3788 915 4057 1306 4057 
C 1862 4057 2227 3616 2227 3033 
C 2227 2477 1901 1998 1536 1583 
L 262 147 
L 262 0 
L 2515 0 
L 2669 990 
z
" transform="scale(0.015625)"/>
       </defs>
       <use xlink:href="#CMR17-32" transform="scale(0.996264)"/>
       <use xlink:href="#CMR17-30" transform="translate(45.690477 0) scale(0.996264)"/>
       <use xlink:href="#CMR17-30" transform="translate(91.380954 0) scale(0.996264)"/>
       <use xlink:href="#CMR17-30" transform="translate(137.071431 0) scale(0.996264)"/>
      </g>
     </g>
    </g>
    <g id="xtick_3">
     <g id="line2d_7">
      <path d="M 381.890745 432.54 
L 381.890745 58.32 
" clip-path="url(#p6079889328)" style="fill: none; stroke: #e6e6e6; stroke-width: 0.8; stroke-linecap: round"/>
     </g>
     <g id="line2d_8">
      <g>
       <use xlink:href="#m8cb0dc003e" x="381.890745" y="432.54" style="fill: #262626; stroke: #262626"/>
      </g>
     </g>
     <g id="line2d_9">
      <g>
       <use xlink:href="#m1462aab3dd" x="381.890745" y="58.32" style="fill: #262626; stroke: #262626"/>
      </g>
     </g>
     <g id="text_3">
      <!-- $\mathdefault{4000}$ -->
      <g style="fill: #262626" transform="translate(369.014197 445.172395) scale(0.132 -0.132)">
       <defs>
        <path id="CMR17-34" d="M 2150 4147 
C 2150 4281 2144 4288 2029 4288 
L 128 1254 
L 128 1088 
L 1779 1088 
L 1779 460 
C 1779 230 1766 166 1318 166 
L 1197 166 
L 1197 0 
C 1402 12 1747 12 1965 12 
C 2182 12 2528 12 2733 0 
L 2733 166 
L 2611 166 
C 2163 166 2150 230 2150 460 
L 2150 1088 
L 2803 1088 
L 2803 1254 
L 2150 1254 
L 2150 4147 
z
M 1798 3723 
L 1798 1254 
L 256 1254 
L 1798 3723 
z
" transform="scale(0.015625)"/>
       </defs>
       <use xlink:href="#CMR17-34" transform="scale(0.996264)"/>
       <use xlink:href="#CMR17-30" transform="translate(45.690477 0) scale(0.996264)"/>
       <use xlink:href="#CMR17-30" transform="translate(91.380954 0) scale(0.996264)"/>
       <use xlink:href="#CMR17-30" transform="translate(137.071431 0) scale(0.996264)"/>
      </g>
     </g>
    </g>
    <g id="xtick_4">
     <g id="line2d_10">
      <path d="M 503.648376 432.54 
L 503.648376 58.32 
" clip-path="url(#p6079889328)" style="fill: none; stroke: #e6e6e6; stroke-width: 0.8; stroke-linecap: round"/>
     </g>
     <g id="line2d_11">
      <g>
       <use xlink:href="#m8cb0dc003e" x="503.648376" y="432.54" style="fill: #262626; stroke: #262626"/>
      </g>
     </g>
     <g id="line2d_12">
      <g>
       <use xlink:href="#m1462aab3dd" x="503.648376" y="58.32" style="fill: #262626; stroke: #262626"/>
      </g>
     </g>
     <g id="text_4">
      <!-- $\mathdefault{6000}$ -->
      <g style="fill: #262626" transform="translate(490.771828 445.172395) scale(0.132 -0.132)">
       <defs>
        <path id="CMR17-36" d="M 678 2198 
C 678 3712 1395 4076 1811 4076 
C 1946 4076 2272 4049 2400 3782 
C 2298 3782 2106 3782 2106 3558 
C 2106 3385 2246 3328 2336 3328 
C 2394 3328 2566 3353 2566 3571 
C 2566 3987 2246 4224 1805 4224 
C 1043 4224 243 3411 243 2011 
C 243 257 966 -128 1478 -128 
C 2099 -128 2688 431 2688 1295 
C 2688 2101 2170 2688 1517 2688 
C 1126 2688 838 2430 678 1979 
L 678 2198 
z
M 1478 25 
C 691 25 691 1212 691 1450 
C 691 1914 909 2585 1504 2585 
C 1613 2585 1926 2585 2138 2140 
C 2253 1889 2253 1624 2253 1302 
C 2253 954 2253 696 2118 438 
C 1978 173 1773 25 1478 25 
z
" transform="scale(0.015625)"/>
       </defs>
       <use xlink:href="#CMR17-36" transform="scale(0.996264)"/>
       <use xlink:href="#CMR17-30" transform="translate(45.690477 0) scale(0.996264)"/>
       <use xlink:href="#CMR17-30" transform="translate(91.380954 0) scale(0.996264)"/>
       <use xlink:href="#CMR17-30" transform="translate(137.071431 0) scale(0.996264)"/>
      </g>
     </g>
    </g>
    <g id="xtick_5">
     <g id="line2d_13">
      <path d="M 625.406006 432.54 
L 625.406006 58.32 
" clip-path="url(#p6079889328)" style="fill: none; stroke: #e6e6e6; stroke-width: 0.8; stroke-linecap: round"/>
     </g>
     <g id="line2d_14">
      <g>
       <use xlink:href="#m8cb0dc003e" x="625.406006" y="432.54" style="fill: #262626; stroke: #262626"/>
      </g>
     </g>
     <g id="line2d_15">
      <g>
       <use xlink:href="#m1462aab3dd" x="625.406006" y="58.32" style="fill: #262626; stroke: #262626"/>
      </g>
     </g>
     <g id="text_5">
      <!-- $\mathdefault{8000}$ -->
      <g style="fill: #262626" transform="translate(612.529458 445.172395) scale(0.132 -0.132)">
       <defs>
        <path id="CMR17-38" d="M 1741 2289 
C 2144 2494 2554 2803 2554 3298 
C 2554 3884 1990 4224 1472 4224 
C 890 4224 378 3800 378 3215 
C 378 3054 416 2777 666 2533 
C 730 2469 998 2276 1171 2154 
C 883 2006 211 1652 211 945 
C 211 282 838 -128 1459 -128 
C 2144 -128 2720 366 2720 1022 
C 2720 1607 2330 1877 2074 2051 
L 1741 2289 
z
M 902 2855 
C 851 2887 595 3086 595 3388 
C 595 3781 998 4076 1459 4076 
C 1965 4076 2336 3716 2336 3298 
C 2336 2700 1670 2359 1638 2359 
C 1632 2359 1626 2359 1574 2398 
L 902 2855 
z
M 2080 1536 
C 2176 1466 2483 1253 2483 861 
C 2483 385 2010 25 1472 25 
C 890 25 448 443 448 951 
C 448 1459 838 1884 1280 2083 
L 2080 1536 
z
" transform="scale(0.015625)"/>
       </defs>
       <use xlink:href="#CMR17-38" transform="scale(0.996264)"/>
       <use xlink:href="#CMR17-30" transform="translate(45.690477 0) scale(0.996264)"/>
       <use xlink:href="#CMR17-30" transform="translate(91.380954 0) scale(0.996264)"/>
       <use xlink:href="#CMR17-30" transform="translate(137.071431 0) scale(0.996264)"/>
      </g>
     </g>
    </g>
    <g id="xtick_6">
     <g id="line2d_16">
      <path d="M 747.163636 432.54 
L 747.163636 58.32 
" clip-path="url(#p6079889328)" style="fill: none; stroke: #e6e6e6; stroke-width: 0.8; stroke-linecap: round"/>
     </g>
     <g id="line2d_17">
      <g>
       <use xlink:href="#m8cb0dc003e" x="747.163636" y="432.54" style="fill: #262626; stroke: #262626"/>
      </g>
     </g>
     <g id="line2d_18">
      <g>
       <use xlink:href="#m1462aab3dd" x="747.163636" y="58.32" style="fill: #262626; stroke: #262626"/>
      </g>
     </g>
     <g id="text_6">
      <!-- $\mathdefault{10000}$ -->
      <g style="fill: #262626" transform="translate(731.067951 445.172395) scale(0.132 -0.132)">
       <defs>
        <path id="CMR17-31" d="M 1702 4083 
C 1702 4217 1696 4224 1606 4224 
C 1357 3927 979 3833 621 3820 
C 602 3820 570 3820 563 3808 
C 557 3795 557 3782 557 3648 
C 755 3648 1088 3686 1344 3839 
L 1344 467 
C 1344 243 1331 166 781 166 
L 589 166 
L 589 0 
C 896 6 1216 12 1523 12 
C 1830 12 2150 6 2458 0 
L 2458 166 
L 2266 166 
C 1715 166 1702 236 1702 467 
L 1702 4083 
z
" transform="scale(0.015625)"/>
       </defs>
       <use xlink:href="#CMR17-31" transform="scale(0.996264)"/>
       <use xlink:href="#CMR17-30" transform="translate(45.690477 0) scale(0.996264)"/>
       <use xlink:href="#CMR17-30" transform="translate(91.380954 0) scale(0.996264)"/>
       <use xlink:href="#CMR17-30" transform="translate(137.071431 0) scale(0.996264)"/>
       <use xlink:href="#CMR17-30" transform="translate(182.761908 0) scale(0.996264)"/>
      </g>
     </g>
    </g>
    <g id="text_7">
     <!-- $s$ -->
     <g style="fill: #262626" transform="translate(439.491598 461.692081) scale(0.144 -0.144)">
      <defs>
       <path id="CMMI12-73" d="M 1459 1290 
C 1568 1271 1741 1233 1779 1227 
C 1862 1201 2150 1099 2150 793 
C 2150 595 1971 64 1229 64 
C 1094 64 614 83 486 447 
C 742 414 870 614 870 755 
C 870 889 781 960 653 960 
C 512 960 326 851 326 563 
C 326 176 710 -64 1222 -64 
C 2195 -64 2483 665 2483 998 
C 2483 1093 2483 1271 2278 1475 
C 2118 1627 1965 1659 1619 1729 
C 1446 1767 1171 1824 1171 2111 
C 1171 2239 1286 2687 1894 2687 
C 2163 2687 2426 2589 2490 2368 
C 2208 2368 2195 2124 2195 2118 
C 2195 1983 2317 1945 2374 1945 
C 2464 1945 2643 2015 2643 2284 
C 2643 2546 2400 2816 1901 2816 
C 1062 2816 838 2169 838 1907 
C 838 1424 1312 1322 1459 1290 
z
" transform="scale(0.015625)"/>
      </defs>
      <use xlink:href="#CMMI12-73" transform="scale(0.996264)"/>
     </g>
    </g>
   </g>
   <g id="matplotlib.axis_2">
    <g id="ytick_1">
     <g id="line2d_19">
      <path d="M 108 415.53 
L 777.6 415.53 
" clip-path="url(#p6079889328)" style="fill: none; stroke: #e6e6e6; stroke-width: 0.8; stroke-linecap: round"/>
     </g>
     <g id="line2d_20">
      <defs>
       <path id="m691b5c59af" d="M 0 0 
L 4.8 0 
" style="stroke: #262626"/>
      </defs>
      <g>
       <use xlink:href="#m691b5c59af" x="108" y="415.53" style="fill: #262626; stroke: #262626"/>
      </g>
     </g>
     <g id="line2d_21">
      <defs>
       <path id="m15f67c5813" d="M 0 0 
L -4.8 0 
" style="stroke: #262626"/>
      </defs>
      <g>
       <use xlink:href="#m15f67c5813" x="777.6" y="415.53" style="fill: #262626; stroke: #262626"/>
      </g>
     </g>
     <g id="text_8">
      <!-- $\mathdefault{0.0}$ -->
      <g style="fill: #262626" transform="translate(88.04664 420.096198) scale(0.132 -0.132)">
       <defs>
        <path id="CMMI12-3a" d="M 1178 307 
C 1178 492 1024 620 870 620 
C 685 620 557 467 557 313 
C 557 128 710 0 864 0 
C 1050 0 1178 153 1178 307 
z
" transform="scale(0.015625)"/>
       </defs>
       <use xlink:href="#CMR17-30" transform="scale(0.996264)"/>
       <use xlink:href="#CMMI12-3a" transform="translate(45.690477 0) scale(0.996264)"/>
       <use xlink:href="#CMR17-30" transform="translate(72.787654 0) scale(0.996264)"/>
      </g>
     </g>
    </g>
    <g id="ytick_2">
     <g id="line2d_22">
      <path d="M 108 344.936586 
L 777.6 344.936586 
" clip-path="url(#p6079889328)" style="fill: none; stroke: #e6e6e6; stroke-width: 0.8; stroke-linecap: round"/>
     </g>
     <g id="line2d_23">
      <g>
       <use xlink:href="#m691b5c59af" x="108" y="344.936586" style="fill: #262626; stroke: #262626"/>
      </g>
     </g>
     <g id="line2d_24">
      <g>
       <use xlink:href="#m15f67c5813" x="777.6" y="344.936586" style="fill: #262626; stroke: #262626"/>
      </g>
     </g>
     <g id="text_9">
      <!-- $\mathdefault{0.5}$ -->
      <g style="fill: #262626" transform="translate(88.04664 349.502783) scale(0.132 -0.132)">
       <defs>
        <path id="CMR17-35" d="M 730 3750 
C 794 3724 1056 3641 1325 3641 
C 1920 3641 2246 3961 2432 4140 
C 2432 4191 2432 4224 2394 4224 
C 2387 4224 2374 4224 2323 4198 
C 2099 4102 1837 4032 1517 4032 
C 1325 4032 1037 4055 723 4191 
C 653 4224 640 4224 634 4224 
C 602 4224 595 4217 595 4090 
L 595 2231 
C 595 2113 595 2080 659 2080 
C 691 2080 704 2093 736 2139 
C 941 2435 1222 2560 1542 2560 
C 1766 2560 2246 2415 2246 1293 
C 2246 1087 2246 716 2054 422 
C 1894 159 1645 25 1370 25 
C 947 25 518 319 403 812 
C 429 806 480 793 506 793 
C 589 793 749 838 749 1036 
C 749 1209 627 1280 506 1280 
C 358 1280 262 1190 262 1011 
C 262 454 704 -128 1382 -128 
C 2042 -128 2669 441 2669 1267 
C 2669 2054 2170 2662 1549 2662 
C 1222 2662 947 2540 730 2304 
L 730 3750 
z
" transform="scale(0.015625)"/>
       </defs>
       <use xlink:href="#CMR17-30" transform="scale(0.996264)"/>
       <use xlink:href="#CMMI12-3a" transform="translate(45.690477 0) scale(0.996264)"/>
       <use xlink:href="#CMR17-35" transform="translate(72.787654 0) scale(0.996264)"/>
      </g>
     </g>
    </g>
    <g id="ytick_3">
     <g id="line2d_25">
      <path d="M 108 274.343171 
L 777.6 274.343171 
" clip-path="url(#p6079889328)" style="fill: none; stroke: #e6e6e6; stroke-width: 0.8; stroke-linecap: round"/>
     </g>
     <g id="line2d_26">
      <g>
       <use xlink:href="#m691b5c59af" x="108" y="274.343171" style="fill: #262626; stroke: #262626"/>
      </g>
     </g>
     <g id="line2d_27">
      <g>
       <use xlink:href="#m15f67c5813" x="777.6" y="274.343171" style="fill: #262626; stroke: #262626"/>
      </g>
     </g>
     <g id="text_10">
      <!-- $\mathdefault{1.0}$ -->
      <g style="fill: #262626" transform="translate(88.04664 278.909368) scale(0.132 -0.132)">
       <use xlink:href="#CMR17-31" transform="scale(0.996264)"/>
       <use xlink:href="#CMMI12-3a" transform="translate(45.690477 0) scale(0.996264)"/>
       <use xlink:href="#CMR17-30" transform="translate(72.787654 0) scale(0.996264)"/>
      </g>
     </g>
    </g>
    <g id="ytick_4">
     <g id="line2d_28">
      <path d="M 108 203.749756 
L 777.6 203.749756 
" clip-path="url(#p6079889328)" style="fill: none; stroke: #e6e6e6; stroke-width: 0.8; stroke-linecap: round"/>
     </g>
     <g id="line2d_29">
      <g>
       <use xlink:href="#m691b5c59af" x="108" y="203.749756" style="fill: #262626; stroke: #262626"/>
      </g>
     </g>
     <g id="line2d_30">
      <g>
       <use xlink:href="#m15f67c5813" x="777.6" y="203.749756" style="fill: #262626; stroke: #262626"/>
      </g>
     </g>
     <g id="text_11">
      <!-- $\mathdefault{1.5}$ -->
      <g style="fill: #262626" transform="translate(88.04664 208.315953) scale(0.132 -0.132)">
       <use xlink:href="#CMR17-31" transform="scale(0.996264)"/>
       <use xlink:href="#CMMI12-3a" transform="translate(45.690477 0) scale(0.996264)"/>
       <use xlink:href="#CMR17-35" transform="translate(72.787654 0) scale(0.996264)"/>
      </g>
     </g>
    </g>
    <g id="ytick_5">
     <g id="line2d_31">
      <path d="M 108 133.156341 
L 777.6 133.156341 
" clip-path="url(#p6079889328)" style="fill: none; stroke: #e6e6e6; stroke-width: 0.8; stroke-linecap: round"/>
     </g>
     <g id="line2d_32">
      <g>
       <use xlink:href="#m691b5c59af" x="108" y="133.156341" style="fill: #262626; stroke: #262626"/>
      </g>
     </g>
     <g id="line2d_33">
      <g>
       <use xlink:href="#m15f67c5813" x="777.6" y="133.156341" style="fill: #262626; stroke: #262626"/>
      </g>
     </g>
     <g id="text_12">
      <!-- $\mathdefault{2.0}$ -->
      <g style="fill: #262626" transform="translate(88.04664 137.722539) scale(0.132 -0.132)">
       <use xlink:href="#CMR17-32" transform="scale(0.996264)"/>
       <use xlink:href="#CMMI12-3a" transform="translate(45.690477 0) scale(0.996264)"/>
       <use xlink:href="#CMR17-30" transform="translate(72.787654 0) scale(0.996264)"/>
      </g>
     </g>
    </g>
    <g id="ytick_6">
     <g id="line2d_34">
      <path d="M 108 62.562927 
L 777.6 62.562927 
" clip-path="url(#p6079889328)" style="fill: none; stroke: #e6e6e6; stroke-width: 0.8; stroke-linecap: round"/>
     </g>
     <g id="line2d_35">
      <g>
       <use xlink:href="#m691b5c59af" x="108" y="62.562927" style="fill: #262626; stroke: #262626"/>
      </g>
     </g>
     <g id="line2d_36">
      <g>
       <use xlink:href="#m15f67c5813" x="777.6" y="62.562927" style="fill: #262626; stroke: #262626"/>
      </g>
     </g>
     <g id="text_13">
      <!-- $\mathdefault{2.5}$ -->
      <g style="fill: #262626" transform="translate(88.04664 67.129124) scale(0.132 -0.132)">
       <use xlink:href="#CMR17-32" transform="scale(0.996264)"/>
       <use xlink:href="#CMMI12-3a" transform="translate(45.690477 0) scale(0.996264)"/>
       <use xlink:href="#CMR17-35" transform="translate(72.787654 0) scale(0.996264)"/>
      </g>
     </g>
    </g>
    <g id="text_14">
     <!-- $W^2 \left(j, [i_n]_s \right)$ -->
     <g style="fill: #262626" transform="translate(80.460083 280.621092) rotate(-90) scale(0.144 -0.144)">
      <defs>
       <path id="CMMI12-57" d="M 5779 3644 
C 5926 3892 6067 4127 6451 4166 
C 6509 4172 6566 4179 6566 4281 
C 6566 4352 6509 4352 6490 4352 
C 6477 4352 6432 4339 6010 4339 
C 5818 4339 5619 4352 5434 4352 
C 5395 4352 5318 4352 5318 4230 
C 5318 4172 5370 4166 5408 4166 
C 5536 4159 5741 4121 5741 3924 
C 5741 3841 5715 3797 5651 3689 
L 3904 648 
L 3674 3962 
C 3674 4038 3744 4159 4102 4166 
C 4186 4166 4250 4166 4250 4287 
C 4250 4352 4186 4352 4154 4352 
C 3930 4352 3693 4339 3462 4339 
L 3130 4339 
C 3034 4339 2918 4352 2822 4352 
C 2784 4352 2707 4352 2707 4230 
C 2707 4166 2752 4166 2861 4166 
C 3155 4166 3155 4159 3181 3771 
L 3200 3542 
L 1542 648 
L 1306 3930 
C 1306 4000 1306 4159 1741 4166 
C 1811 4166 1882 4166 1882 4281 
C 1882 4352 1824 4352 1786 4352 
C 1562 4352 1325 4339 1094 4339 
L 762 4339 
C 666 4339 550 4352 454 4352 
C 416 4352 339 4352 339 4230 
C 339 4166 390 4166 480 4166 
C 781 4166 787 4127 800 3924 
L 1082 19 
C 1088 -90 1094 -128 1171 -128 
C 1235 -128 1248 -103 1306 -7 
L 3213 3307 
L 3450 19 
C 3456 -90 3462 -128 3539 -128 
C 3603 -128 3622 -96 3674 -7 
L 5779 3644 
z
" transform="scale(0.015625)"/>
       <path id="CMR17-28" d="M 1958 -1562 
C 1958 -1556 1958 -1543 1939 -1524 
C 1645 -1223 858 -403 858 1596 
C 858 3595 1632 4408 1946 4729 
C 1946 4735 1958 4748 1958 4767 
C 1958 4787 1939 4800 1914 4800 
C 1843 4800 1299 4325 986 3620 
C 666 2909 576 2218 576 1603 
C 576 1141 621 360 1005 -467 
C 1312 -1133 1837 -1600 1914 -1600 
C 1946 -1600 1958 -1588 1958 -1562 
z
" transform="scale(0.015625)"/>
       <path id="CMMI12-6a" d="M 2240 2027 
C 2266 2129 2266 2218 2266 2243 
C 2266 2611 1990 2816 1702 2816 
C 1056 2816 710 1888 710 1843 
C 710 1811 736 1786 774 1786 
C 826 1786 832 1811 864 1875 
C 1120 2491 1440 2687 1683 2687 
C 1818 2687 1888 2617 1888 2395 
C 1888 2243 1869 2180 1843 2065 
L 1235 -327 
C 1114 -797 813 -1152 461 -1152 
C 435 -1152 301 -1152 179 -1089 
C 333 -1057 454 -937 454 -784 
C 454 -683 378 -581 237 -581 
C 70 -581 -83 -721 -83 -911 
C -83 -1172 198 -1280 461 -1280 
C 902 -1280 1485 -956 1645 -321 
L 2240 2027 
z
M 2502 4012 
C 2502 4172 2368 4224 2291 4224 
C 2118 4224 1971 4057 1971 3916 
C 1971 3820 2048 3705 2189 3705 
C 2336 3705 2502 3846 2502 4012 
z
" transform="scale(0.015625)"/>
       <path id="CMMI12-3b" d="M 1248 -26 
C 1248 345 1126 620 864 620 
C 659 620 557 454 557 313 
C 557 172 653 0 870 0 
C 954 0 1024 25 1082 83 
C 1094 96 1101 96 1107 96 
C 1120 96 1120 6 1120 -26 
C 1120 -233 1082 -642 710 -1051 
C 640 -1127 640 -1140 640 -1152 
C 640 -1184 672 -1216 704 -1216 
C 755 -1216 1248 -749 1248 -26 
z
" transform="scale(0.015625)"/>
       <path id="CMR17-5b" d="M 1504 -1600 
L 1504 -1376 
L 902 -1376 
L 902 4575 
L 1504 4575 
L 1504 4800 
L 678 4800 
L 678 -1600 
L 1504 -1600 
z
" transform="scale(0.015625)"/>
       <path id="CMMI12-69" d="M 1811 913 
C 1811 945 1786 970 1747 970 
C 1690 970 1683 951 1651 842 
C 1485 261 1222 64 1011 64 
C 934 64 845 83 845 274 
C 845 447 922 638 992 830 
L 1440 2017 
C 1459 2068 1504 2183 1504 2305 
C 1504 2573 1312 2816 998 2816 
C 410 2816 173 1890 173 1838 
C 173 1813 198 1781 243 1781 
C 301 1781 307 1807 333 1896 
C 486 2432 730 2687 979 2687 
C 1037 2687 1146 2681 1146 2477 
C 1146 2311 1062 2100 1011 1960 
L 563 772 
C 525 670 486 568 486 453 
C 486 166 685 -64 992 -64 
C 1581 -64 1811 868 1811 913 
z
M 1760 4012 
C 1760 4108 1683 4224 1542 4224 
C 1395 4224 1229 4083 1229 3916 
C 1229 3756 1363 3705 1440 3705 
C 1613 3705 1760 3871 1760 4012 
z
" transform="scale(0.015625)"/>
       <path id="CMMI12-6e" d="M 1318 1870 
C 1331 1909 1491 2228 1728 2432 
C 1894 2585 2112 2687 2362 2687 
C 2618 2687 2707 2496 2707 2241 
C 2707 1877 2445 1149 2317 804 
C 2259 651 2227 568 2227 453 
C 2227 166 2426 -64 2733 -64 
C 3328 -64 3552 874 3552 913 
C 3552 945 3526 970 3488 970 
C 3430 970 3424 951 3392 842 
C 3245 319 3002 64 2752 64 
C 2688 64 2586 70 2586 274 
C 2586 434 2656 625 2694 715 
C 2822 1066 3091 1781 3091 2145 
C 3091 2528 2867 2816 2381 2816 
C 1811 2816 1510 2413 1395 2253 
C 1376 2617 1114 2816 832 2816 
C 627 2816 486 2694 378 2477 
C 262 2247 173 1864 173 1838 
C 173 1813 198 1781 243 1781 
C 294 1781 301 1787 339 1934 
C 442 2324 557 2687 813 2687 
C 960 2687 1011 2585 1011 2394 
C 1011 2253 947 2004 902 1807 
L 723 1117 
C 698 996 627 708 595 593 
C 550 427 480 127 480 95 
C 480 6 550 -64 646 -64 
C 723 -64 813 -26 864 70 
C 877 102 934 325 966 453 
L 1107 1028 
L 1318 1870 
z
" transform="scale(0.015625)"/>
       <path id="CMR17-5d" d="M 915 4800 
L 90 4800 
L 90 4575 
L 691 4575 
L 691 -1376 
L 90 -1376 
L 90 -1600 
L 915 -1600 
L 915 4800 
z
" transform="scale(0.015625)"/>
       <path id="CMR17-29" d="M 1683 1596 
C 1683 2057 1638 2839 1254 3665 
C 947 4332 422 4800 346 4800 
C 326 4800 301 4793 301 4761 
C 301 4748 307 4742 314 4729 
C 621 4408 1402 3595 1402 1603 
C 1402 -396 627 -1210 314 -1530 
C 307 -1543 301 -1549 301 -1562 
C 301 -1594 326 -1600 346 -1600 
C 416 -1600 960 -1127 1274 -422 
C 1594 289 1683 981 1683 1596 
z
" transform="scale(0.015625)"/>
      </defs>
      <use xlink:href="#CMMI12-57" transform="scale(0.996264)"/>
      <use xlink:href="#CMR17-32" transform="translate(105.644498 36.153639) scale(0.697382)"/>
      <use xlink:href="#CMR17-28" transform="translate(154.730217 0.003177) scale(0.996264)"/>
      <use xlink:href="#CMMI12-6a" transform="translate(190.010985 0) scale(0.996264)"/>
      <use xlink:href="#CMMI12-3b" transform="translate(230.554032 0) scale(0.996264)"/>
      <use xlink:href="#CMR17-5b" transform="translate(274.255614 0) scale(0.996264)"/>
      <use xlink:href="#CMMI12-69" transform="translate(299.126673 0) scale(0.996264)"/>
      <use xlink:href="#CMMI12-6e" transform="translate(332.405275 -14.943915) scale(0.697382)"/>
      <use xlink:href="#CMR17-5d" transform="translate(373.66425 0) scale(0.996264)"/>
      <use xlink:href="#CMMI12-73" transform="translate(398.535308 -14.943915) scale(0.697382)"/>
      <use xlink:href="#CMR17-29" transform="translate(431.198329 0.003177) scale(0.996264)"/>
     </g>
    </g>
    <g id="text_15">
     <!-- $\times\mathdefault{10^{−20}}\mathdefault{}$ -->
     <g style="fill: #262626" transform="translate(108 55.32) scale(0.132 -0.132)">
      <defs>
       <path id="CMSY10-2" d="M 2490 1775 
L 1210 3046 
C 1133 3123 1120 3136 1069 3136 
C 1005 3136 941 3078 941 3008 
C 941 2963 954 2950 1024 2880 
L 2304 1596 
L 1024 313 
C 954 243 941 230 941 185 
C 941 115 1005 57 1069 57 
C 1120 57 1133 70 1210 147 
L 2483 1418 
L 3808 95 
C 3821 89 3866 57 3904 57 
C 3981 57 4032 115 4032 185 
C 4032 198 4032 223 4013 255 
C 4006 268 2989 1271 2669 1596 
L 3840 2765 
C 3872 2803 3968 2886 4000 2925 
C 4006 2937 4032 2963 4032 3008 
C 4032 3078 3981 3136 3904 3136 
C 3853 3136 3827 3110 3757 3040 
L 2490 1775 
z
" transform="scale(0.015625)"/>
       <path id="CMSY10-0" d="M 4218 1472 
C 4326 1472 4442 1472 4442 1600 
C 4442 1728 4326 1728 4218 1728 
L 755 1728 
C 646 1728 531 1728 531 1600 
C 531 1472 646 1472 755 1472 
L 4218 1472 
z
" transform="scale(0.015625)"/>
      </defs>
      <use xlink:href="#CMSY10-2" transform="scale(0.996264)"/>
      <use xlink:href="#CMR17-31" transform="translate(77.487468 0) scale(0.996264)"/>
      <use xlink:href="#CMR17-30" transform="translate(123.177945 0) scale(0.996264)"/>
      <use xlink:href="#CMSY10-0" transform="translate(168.868422 36.153639) scale(0.697382)"/>
      <use xlink:href="#CMR17-32" transform="translate(223.109415 36.153639) scale(0.697382)"/>
      <use xlink:href="#CMR17-30" transform="translate(255.092597 36.153639) scale(0.697382)"/>
     </g>
    </g>
   </g>
   <g id="line2d_37">
    <path d="M 138.436364 415.529896 
L 192.374994 415.454792 
L 192.55763 415.394139 
L 192.740267 415.443619 
L 205.829212 415.487478 
L 205.95097 415.100524 
L 206.681515 415.100524 
L 206.803273 415.296497 
L 206.925031 415.296497 
L 207.046788 415.447965 
L 215.387186 415.491652 
L 215.508944 415.210482 
L 215.935095 415.210482 
L 216.056853 414.762185 
L 216.178611 414.762185 
L 216.422126 413.394263 
L 216.543883 415.2474 
L 216.665641 414.177327 
L 216.848278 415.464757 
L 217.091793 414.864141 
L 217.21355 413.463328 
L 217.517945 413.463328 
L 217.639702 413.895738 
L 218.24849 413.895738 
L 218.370248 414.83278 
L 218.492006 414.83278 
L 218.613763 415.14023 
L 218.7964 415.075142 
L 218.979036 415.075142 
L 219.100794 414.917301 
L 219.161673 414.917301 
L 219.28343 415.301546 
L 219.526945 415.301546 
L 219.709582 415.435368 
L 219.892218 415.301546 
L 220.196612 415.412156 
L 221.048916 415.519124 
L 221.475068 415.495685 
L 276.022486 415.473506 
L 276.083365 414.774593 
L 276.144244 415.215227 
L 276.753032 415.215227 
L 276.874789 413.883868 
L 277.179183 413.883868 
L 277.300941 412.716771 
L 278.031487 412.716771 
L 278.153244 413.305812 
L 278.457638 413.305812 
L 278.579396 415.16429 
L 278.701154 411.789662 
L 279.066427 411.789662 
L 279.188184 413.140381 
L 279.249063 413.140381 
L 279.370821 410.240587 
L 279.553457 410.240587 
L 279.796972 414.502151 
L 280.040488 414.502151 
L 280.162245 412.145685 
L 280.284003 412.145685 
L 280.405761 414.755394 
L 280.527518 414.566514 
L 280.649276 412.561834 
L 281.075428 412.561834 
L 281.197185 413.903233 
L 281.258064 413.903233 
L 281.379822 414.161591 
L 281.745095 414.161591 
L 281.866852 411.150034 
L 281.98861 411.150034 
L 282.110367 409.848478 
L 282.536519 409.848478 
L 282.719156 412.477101 
L 282.840913 407.295053 
L 282.962671 409.17354 
L 283.084428 407.295053 
L 283.206186 412.540423 
L 283.267065 412.540423 
L 283.388823 411.173379 
L 283.51058 411.173379 
L 283.632338 412.540423 
L 283.936732 412.540423 
L 284.058489 413.856036 
L 284.667278 413.856036 
L 284.789035 413.205287 
L 284.910793 413.205287 
L 285.032551 411.373842 
L 285.884854 411.373842 
L 285.945733 413.109386 
L 286.06749 379.018984 
L 286.311006 379.018984 
L 286.493642 403.229135 
L 286.798036 403.229135 
L 286.858915 405.987826 
L 287.10243 390.960085 
L 287.285067 390.960085 
L 287.406824 397.473325 
L 287.954734 397.473325 
L 288.076491 406.759745 
L 288.259128 406.759745 
L 288.380885 402.905308 
L 288.563522 402.905308 
L 288.685279 390.960085 
L 289.415825 390.960085 
L 289.537583 393.729606 
L 289.598462 393.729606 
L 289.720219 403.601423 
L 289.781098 403.601423 
L 289.902856 410.170398 
L 290.024613 410.170398 
L 290.146371 415.420286 
L 290.511644 415.403744 
L 290.633402 410.305101 
L 290.69428 410.305101 
L 290.816038 392.534623 
L 291.24219 392.534623 
L 291.363947 371.325256 
L 291.790099 371.325256 
L 291.972735 75.33 
L 292.338008 75.33 
L 292.459766 234.593826 
L 293.129433 234.593826 
L 293.251191 221.985039 
L 294.407888 221.985039 
L 294.529646 312.661202 
L 295.077555 312.661202 
L 295.199313 353.632912 
L 295.990737 353.632912 
L 296.112495 379.220885 
L 296.295131 379.220885 
L 296.35601 394.564515 
L 296.477768 373.676429 
L 296.538647 373.676429 
L 296.660404 415.157106 
L 296.782162 415.157106 
L 296.843041 415.301607 
L 296.964798 415.059534 
L 297.025677 415.059534 
L 297.147435 414.642424 
L 297.39095 414.642424 
L 297.512708 415.519546 
L 298.304132 415.476417 
L 298.486769 415.361109 
L 298.608526 415.361109 
L 298.791163 415.494004 
L 299.217314 415.46053 
L 299.339072 413.099912 
L 299.886981 413.138103 
L 300.008739 410.916122 
L 300.069618 410.916122 
L 300.130497 412.521946 
L 300.252254 410.916122 
L 300.374012 413.427714 
L 300.800164 413.427714 
L 300.921921 414.226346 
L 301.043679 407.85438 
L 301.530709 407.85438 
L 301.652467 414.3843 
L 302.078619 414.3843 
L 302.200376 407.85438 
L 302.50477 407.85438 
L 302.626528 411.706941 
L 303.235316 411.706941 
L 303.53971 404.156144 
L 303.661468 404.156144 
L 303.783226 405.256608 
L 303.844104 405.256608 
L 303.965862 408.855709 
L 304.08762 407.108792 
L 304.270256 407.108792 
L 304.392014 414.947071 
L 304.513771 414.947071 
L 304.635529 414.117369 
L 305.000802 414.117369 
L 305.12256 412.998405 
L 305.366075 412.998405 
L 305.487832 414.214868 
L 306.096621 414.214868 
L 306.218378 415.422404 
L 309.079683 415.484907 
L 309.20144 415.286005 
L 309.566713 415.395838 
L 309.688471 414.948808 
L 309.931986 414.948808 
L 310.053744 414.613846 
L 311.27132 414.613846 
L 311.393077 414.931818 
L 311.697472 414.931818 
L 311.819229 414.599169 
L 312.001866 414.599169 
L 312.123623 415.032888 
L 312.245381 415.032888 
L 312.30626 413.537838 
L 312.428017 415.151044 
L 312.671533 415.151044 
L 312.79329 414.998536 
L 312.915048 413.201844 
L 313.3412 413.10639 
L 313.462957 415.392134 
L 313.584715 414.638358 
L 313.767351 414.638358 
L 313.82823 414.362707 
L 313.949988 412.711666 
L 314.010867 412.940491 
L 314.071745 415.298142 
L 314.132624 415.229894 
L 314.437018 415.229894 
L 314.497897 414.539981 
L 314.558776 415.229894 
L 314.619655 415.175826 
L 314.741412 414.449913 
L 315.167564 414.449913 
L 315.3502 415.36676 
L 315.532837 415.36676 
L 315.654595 415.0989 
L 315.776352 413.52598 
L 316.141625 413.52598 
L 316.263383 415.069862 
L 316.324262 414.874333 
L 316.446019 413.858341 
L 316.567777 413.858341 
L 316.689534 413.724888 
L 316.811292 412.856375 
L 317.298323 412.856375 
L 317.480959 408.597426 
L 317.602717 408.597426 
L 317.846232 415.242421 
L 318.028868 415.242421 
L 318.150626 414.890112 
L 318.45502 414.992488 
L 318.576778 411.330758 
L 318.637656 411.330758 
L 318.759414 407.636776 
L 318.881172 414.080155 
L 318.942051 414.080155 
L 319.002929 414.292095 
L 319.124687 384.856615 
L 319.429081 384.856615 
L 319.611718 411.64269 
L 320.037869 411.64269 
L 320.159627 413.509158 
L 320.281385 411.64269 
L 321.01193 411.652055 
L 321.133688 408.740284 
L 321.194567 408.740284 
L 321.377203 414.358058 
L 321.925113 414.358058 
L 322.04687 414.211364 
L 322.168628 412.685675 
L 323.020931 412.685675 
L 323.142689 415.402259 
L 323.690598 415.344084 
L 323.751477 415.161834 
L 323.812356 415.298613 
L 324.11675 415.298613 
L 324.421144 414.063626 
L 324.786417 414.063626 
L 324.969053 414.804723 
L 325.15169 414.257393 
L 325.273447 415.116303 
L 325.395205 415.116303 
L 325.577841 414.861843 
L 326.551902 414.930573 
L 326.917175 415.070097 
L 327.038933 414.343081 
L 327.160691 414.343081 
L 327.404206 415.225294 
L 327.525964 415.225294 
L 327.586842 414.871177 
L 327.7086 413.847231 
L 327.830358 414.537203 
L 327.952115 414.537203 
L 328.073873 414.703934 
L 328.378267 414.703934 
L 328.500025 415.006759 
L 328.682661 415.006759 
L 328.865297 414.882516 
L 328.987055 414.882516 
L 329.047934 415.504427 
L 329.108813 415.46353 
L 329.656722 415.300282 
L 329.900237 415.254718 
L 330.021995 415.462848 
L 473.208968 415.474133 
L 473.330726 415.129898 
L 474.061272 415.175884 
L 474.183029 415.374765 
L 474.548302 415.45599 
L 474.791817 415.518899 
L 539.566877 415.457952 
L 539.688634 415.29593 
L 539.749513 415.29593 
L 539.93215 415.513021 
L 540.236544 415.513021 
L 540.41918 415.387393 
L 540.540938 415.387393 
L 540.723574 415.500075 
L 555.699763 415.422624 
L 555.82152 415.228852 
L 556.247672 415.228852 
L 556.430308 415.473247 
L 556.673824 415.509502 
L 565.805646 415.524073 
L 565.927404 415.383939 
L 566.231798 415.383939 
L 566.414434 415.502934 
L 579.442501 415.502871 
L 579.564258 415.316447 
L 580.47744 415.412336 
L 580.660077 415.470251 
L 653.227625 415.511251 
L 653.349382 415.113017 
L 653.775534 415.113017 
L 653.95817 414.672206 
L 654.688716 414.672206 
L 654.749595 415.425062 
L 654.871353 414.689179 
L 657.306505 414.689179 
L 657.428263 415.136088 
L 658.037051 415.136088 
L 658.219687 414.815235 
L 658.341445 413.744089 
L 659.376385 413.744089 
L 659.498143 414.93675 
L 659.559021 414.93675 
L 659.680779 414.689179 
L 659.741658 414.689179 
L 659.863415 414.93675 
L 660.837476 414.93675 
L 660.959234 413.88399 
L 661.080992 413.88399 
L 661.202749 413.396311 
L 661.811538 413.396311 
L 661.933295 414.978039 
L 663.698781 414.978039 
L 663.820538 415.15554 
L 664.551084 415.15554 
L 664.672842 414.320045 
L 668.934359 414.320045 
L 669.056117 414.673775 
L 669.543147 414.673775 
L 669.664905 415.510078 
L 671.247754 415.452341 
L 671.369511 414.960615 
L 672.100057 414.960615 
L 672.221815 415.411128 
L 672.830603 415.440327 
L 673.01324 415.524246 
L 735.961934 415.508664 
L 736.20545 415.28989 
L 736.388086 415.28989 
L 736.509844 414.944022 
L 737.605662 414.944022 
L 737.72742 415.149079 
L 738.336208 415.214018 
L 738.457966 415.398635 
L 740.588724 415.327656 
L 740.771361 415.528992 
L 743.693544 415.46117 
L 743.754423 415.309688 
L 743.815302 415.416276 
L 744.42409 415.4997 
L 744.728484 415.524443 
L 747.163636 415.529516 
L 747.163636 415.529516 
" clip-path="url(#p6079889328)" style="fill: none; stroke: #4c72b0; stroke-width: 2; stroke-linecap: round"/>
   </g>
   <g id="patch_3">
    <path d="M 108 432.54 
L 108 58.32 
" style="fill: none; stroke: #000000; stroke-linejoin: miter; stroke-linecap: square"/>
   </g>
   <g id="patch_4">
    <path d="M 777.6 432.54 
L 777.6 58.32 
" style="fill: none; stroke: #000000; stroke-linejoin: miter; stroke-linecap: square"/>
   </g>
   <g id="patch_5">
    <path d="M 108 432.54 
L 777.6 432.54 
" style="fill: none; stroke: #000000; stroke-linejoin: miter; stroke-linecap: square"/>
   </g>
   <g id="patch_6">
    <path d="M 108 58.32 
L 777.6 58.32 
" style="fill: none; stroke: #000000; stroke-linejoin: miter; stroke-linecap: square"/>
   </g>
   <g id="legend_1">
    <g id="patch_7">
     <path d="M 691.366018 89.032028 
L 767.8 89.032028 
Q 770.6 89.032028 770.6 86.232028 
L 770.6 68.12 
Q 770.6 65.32 767.8 65.32 
L 691.366018 65.32 
Q 688.566018 65.32 688.566018 68.12 
L 688.566018 86.232028 
Q 688.566018 89.032028 691.366018 89.032028 
z
" style="fill: #ffffff; opacity: 0.8; stroke: #cccccc; stroke-width: 0.8; stroke-linejoin: miter"/>
    </g>
    <g id="line2d_38">
     <path d="M 694.166018 75.82 
L 708.166018 75.82 
L 722.166018 75.82 
" style="fill: none; stroke: #4c72b0; stroke-width: 2; stroke-linecap: round"/>
    </g>
    <g id="text_16">
     <!-- $j = 4$ -->
     <g style="fill: #262626" transform="translate(733.366018 80.72) scale(0.14 -0.14)">
      <defs>
       <path id="CMR17-3d" d="M 4115 2048 
C 4211 2048 4307 2048 4307 2156 
C 4307 2272 4198 2272 4090 2272 
L 512 2272 
C 403 2272 294 2272 294 2156 
C 294 2048 390 2048 486 2048 
L 4115 2048 
z
M 4090 927 
C 4198 927 4307 927 4307 1043 
C 4307 1152 4211 1152 4115 1152 
L 486 1152 
C 390 1152 294 1152 294 1043 
C 294 927 403 927 512 927 
L 4090 927 
z
" transform="scale(0.015625)"/>
      </defs>
      <use xlink:href="#CMMI12-6a" transform="scale(0.996264)"/>
      <use xlink:href="#CMR17-3d" transform="translate(73.636491 0) scale(0.996264)"/>
      <use xlink:href="#CMR17-34" transform="translate(173.025288 0) scale(0.996264)"/>
     </g>
    </g>
   </g>
  </g>
 </g>
 <defs>
  <clipPath id="p6079889328">
   <rect x="108" y="58.32" width="669.6" height="374.22"/>
  </clipPath>
 </defs>
</svg>
